<svg width="110" height="110" viewBox="0 0 110 110" fill="none" xmlns="http://www.w3.org/2000/svg">
<g clip-path="url(#clip0_1_3853)">
<mask id="mask0_1_3853" style="mask-type:luminance" maskUnits="userSpaceOnUse" x="0" y="0" width="110" height="110">
<path d="M109.803 0.137878H0.76709V109.174H109.803V0.137878Z" fill="white"/>
</mask>
<g mask="url(#mask0_1_3853)">
<path d="M43.3594 48.2672C43.5703 48.5835 43.5703 48.5835 43.7853 48.9061C46.0204 52.2436 49.7387 54.7751 53.688 55.5877C57.7986 56.1153 62.343 55.9885 65.7968 53.4324C67.4862 52.0236 68.6799 50.3662 69.3407 48.2672C69.7666 48.4802 69.7666 48.4802 69.9186 48.8803C69.9646 49.0539 70.0104 49.2272 70.0577 49.4061C70.1097 49.5993 70.1616 49.7924 70.2151 49.9916C70.2692 50.2 70.3233 50.4083 70.3789 50.623C70.4638 50.9424 70.4638 50.9424 70.5507 51.2685C70.8378 52.3531 71.1166 53.4394 71.383 54.5293C71.4839 54.9367 71.5906 55.3424 71.6975 55.7483C71.8402 56.3406 71.948 56.8977 72.0351 57.4969C72.2412 58.675 72.4514 59.7409 73.3778 60.5625C74.426 61.2925 75.5566 61.8675 76.6885 62.4555C80.3152 64.4546 83.7351 67.9284 84.9933 71.9191C85.1077 72.3386 85.215 72.7601 85.3127 73.1837C85.3498 73.3417 85.3866 73.4995 85.4248 73.6622C85.6156 74.7706 85.5821 75.8985 85.5885 77.0208C85.5911 77.3177 85.5953 77.6145 85.6017 77.9114C85.6805 81.6197 84.4158 84.5191 81.9054 87.2391C79.1499 89.8715 75.8128 91.7291 72.3221 93.202C72.1884 93.2591 72.0546 93.3159 71.9166 93.3747C69.7998 94.2532 67.5884 94.7779 65.3611 95.2916C65.222 95.3244 65.0827 95.3569 64.9396 95.3906C58.9744 96.7776 52.0921 96.6777 46.1279 95.3316C45.8279 95.2649 45.8279 95.2649 45.5216 95.1968C38.9988 93.6958 31.8067 90.5366 27.9415 84.8092C27.4076 83.9458 26.951 83.0538 26.5355 82.128C26.4622 81.9715 26.3888 81.8152 26.3132 81.654C25.9019 80.4607 26.0259 79.1593 26.0297 77.9088C26.0299 77.7595 26.0301 77.6105 26.0304 77.4567C26.0476 73.3001 26.8696 69.518 29.8639 66.433C30.0304 66.2714 30.1972 66.1095 30.3688 65.943C30.5332 65.779 30.6976 65.6152 30.8671 65.4464C32.7555 63.6498 36.9585 60.406 39.7391 60.406C39.7734 60.0927 39.7734 60.0927 39.8081 59.7729C39.9412 58.8448 40.2378 57.9991 40.5511 57.1183C40.9828 55.8686 41.3655 54.6252 41.6692 53.3382C42.7176 48.9091 42.7176 48.9091 43.3594 48.2672Z" fill="#FA9C37"/>
<path d="M43.359 48.2672C43.4996 48.478 43.6401 48.6889 43.785 48.9061C46.02 52.2436 49.7381 54.7751 53.6877 55.5877C57.7982 56.1153 62.3426 55.9885 65.7964 53.4324C67.4858 52.0236 68.6795 50.3662 69.3403 48.2672C69.7662 48.4802 69.7662 48.4802 69.9183 48.8803C69.9643 49.0539 70.01 49.2272 70.0573 49.4061C70.1093 49.5991 70.161 49.7922 70.2145 49.9911C70.2956 50.304 70.2956 50.304 70.3785 50.623C70.4355 50.837 70.4924 51.051 70.5512 51.2717C70.8655 52.4589 71.1656 53.6492 71.4567 54.8424C71.9791 56.9722 72.6139 59.0703 73.239 61.172C73.965 63.6911 73.766 66.2963 72.7477 68.7115C70.811 72.1129 67.5295 74.0349 63.8614 75.141C57.3859 76.7405 50.4498 76.3917 44.65 72.8908C41.62 70.84 39.2868 68.076 38.4609 64.4522C38.4741 63.6937 38.4741 63.6937 38.6739 62.9615C38.7216 62.7624 38.7695 62.5635 38.8187 62.3584C39.1171 61.1605 39.1171 61.1605 39.3128 60.619C39.5236 60.5135 39.5236 60.5135 39.7387 60.406C39.7907 60.055 39.8409 59.7036 39.882 59.351C40.0058 58.5767 40.2888 57.8551 40.5505 57.1183C40.9822 55.8686 41.3651 54.6252 41.6686 53.3382C42.7172 48.9091 42.7172 48.9091 43.359 48.2672Z" fill="#E8E5F7"/>
<path d="M59.9745 18.1624C62.2907 19.7568 62.6634 24.0282 63.2528 26.5478C63.5544 27.8081 63.8981 28.9423 64.4563 30.11C64.8511 31.0647 65.0164 32.0835 65.2144 33.0938C65.3007 33.5231 65.3878 33.9524 65.4757 34.3815C65.5126 34.5689 65.5496 34.7564 65.5877 34.9495C65.7255 35.5115 65.9276 36.0194 66.1461 36.5544C66.3508 38.0134 66.1272 39.1727 65.2943 40.3877C63.5516 42.4208 61.1381 43.6896 58.4795 44.008C56.6577 44.1043 54.9197 44.0651 53.1555 43.5821C52.9213 43.5235 52.9213 43.5235 52.6823 43.4639C50.4656 42.8306 48.523 41.5042 47.3532 39.5092C46.1489 37.1087 47.0657 34.9103 47.8315 32.5213C47.939 32.1795 48.0462 31.8375 48.1531 31.4955C48.3679 30.8089 48.5841 30.123 48.8015 29.4372C49.2334 28.0726 49.65 26.7032 50.0676 25.3339C50.4684 24.0235 50.8753 22.717 51.3202 21.4207C51.4471 21.0232 51.5434 20.6161 51.6382 20.2096C52.0241 19.0949 52.694 18.6296 53.6347 17.9602C55.4977 17.0925 58.1337 17.3707 59.9745 18.1624Z" fill="#FE5D5D"/>
<path d="M73.5997 62.9615C75.5014 65.185 75.8388 69.0875 75.7817 71.8784C75.5813 74.425 74.383 76.7482 72.5349 78.5076C67.3678 82.9072 60.1908 84.2731 53.5814 83.8317C52.2823 83.7128 51.0173 83.4905 49.7481 83.1928C49.5964 83.1574 49.4448 83.1219 49.2885 83.0855C44.9824 82.0373 40.4185 79.8355 37.982 75.9787C36.4778 73.2963 36.4254 70.6694 37.1974 67.6956C37.532 66.5384 37.8785 65.3858 38.2482 64.2393C38.9403 64.5853 39.0101 65.339 39.2463 66.0362C40.7206 70.1574 43.6557 72.2589 47.4879 74.127C50.3015 75.3499 53.3118 75.8226 56.3631 75.8056C56.7093 75.8039 56.7093 75.8039 57.0624 75.802C61.9537 75.7294 67.117 74.6273 70.7688 71.1556C72.9921 68.754 73.451 66.1387 73.5997 62.9615Z" fill="#FD5E5D"/>
<path d="M46.5539 36.9802C46.6241 36.9802 46.6944 36.9802 46.7668 36.9802C46.8137 37.1774 46.8137 37.1774 46.8616 37.3787C47.5107 39.8296 48.6464 41.2158 50.8131 42.5172C53.5782 44.0895 57.1025 44.1907 60.1433 43.4489C61.3329 43.0999 62.3366 42.6435 63.3669 41.9565C63.8037 41.6654 63.8037 41.6654 64.2605 41.4673C64.7627 41.1777 64.8611 40.9164 65.0815 40.3876C65.1905 40.1917 65.1905 40.1917 65.3019 39.9917C65.8562 38.9714 66.0636 38.1383 66.1463 36.9802C66.6293 37.7047 66.8322 38.4158 67.0646 39.2429C67.1587 39.5696 67.2526 39.8963 67.3467 40.223C67.3944 40.3908 67.4424 40.5584 67.4918 40.7313C67.723 41.5406 67.9592 42.3485 68.196 43.1561C68.2625 43.384 68.2625 43.384 68.3304 43.6165C68.561 44.4015 68.8049 45.1788 69.0745 45.9512C69.5581 47.4132 69.6488 48.3998 69.0195 49.8252C67.5267 52.5102 65.409 54.3244 62.5259 55.2949C62.323 55.3632 62.1202 55.4316 61.9111 55.5021C57.7709 56.6655 53.0438 56.1329 49.2949 54.0835C46.7232 52.5954 44.4849 50.7311 43.1465 48.0542C43.5924 44.9109 44.8214 41.8517 45.8377 38.8577C45.8852 38.7178 45.9324 38.5776 45.9814 38.4335C46.1518 37.9351 46.3181 37.4517 46.5539 36.9802Z" fill="#E8E5F7"/>
<path d="M85.0997 74.2484C85.2403 74.2484 85.3808 74.2484 85.5256 74.2484C85.5469 75.1456 85.5623 76.0428 85.5725 76.9402C85.5765 77.2446 85.5825 77.5487 85.5899 77.853C85.6787 81.5768 84.4376 84.4952 81.9053 87.239C79.1498 89.8714 75.8125 91.7291 72.322 93.2019C72.1883 93.259 72.0543 93.3159 71.9166 93.3747C69.7995 94.2531 67.5883 94.7779 65.3608 95.2915C65.2217 95.3243 65.0826 95.3569 64.9393 95.3905C58.9743 96.7776 52.0918 96.6777 46.1278 95.3316C45.9276 95.287 45.7277 95.2425 45.5215 95.1968C38.9981 93.6956 31.8096 90.5367 27.942 84.8109C27.0124 83.3067 26.2933 81.9572 26.3016 80.1689C26.3022 79.9115 26.3031 79.6542 26.3037 79.3891C26.3054 79.1201 26.3073 78.8511 26.309 78.5741C26.3105 78.1671 26.3105 78.1671 26.312 77.7518C26.3146 77.081 26.318 76.41 26.3225 75.7391C26.7484 75.9521 26.7484 75.9521 26.8847 76.3563C26.9277 76.5305 26.9705 76.7045 27.0146 76.8838C28.1571 80.8741 31.2114 83.8713 34.7385 85.8748C35.881 86.5001 37.0489 87.0725 38.2217 87.6383C38.4265 87.7374 38.6316 87.8362 38.8429 87.9382C40.7891 88.8573 42.7117 89.4494 44.81 89.9143C45.0162 89.9605 45.2223 90.0067 45.4344 90.0544C46.8651 90.3711 48.2958 90.6611 49.7482 90.8594C50.0012 90.8951 50.2544 90.9309 50.515 90.968C51.4685 91.0862 52.411 91.1102 53.3711 91.1156C53.5504 91.1171 53.7297 91.1185 53.9145 91.12C54.4912 91.1239 55.0679 91.1251 55.6444 91.1256C55.9392 91.126 55.9392 91.126 56.2396 91.1262C59.0899 91.1241 61.861 91.047 64.6554 90.4335C64.8037 90.4026 64.9521 90.3719 65.105 90.3402C71.4832 88.9936 79.077 85.9419 82.965 80.4709C84.1429 78.5662 84.8916 76.4841 85.0997 74.2484Z" fill="#D66C1E"/>
<path d="M43.3593 48.2672C43.4998 48.478 43.6404 48.6889 43.7852 48.9061C46.0202 52.2436 49.7383 54.7751 53.6879 55.5877C57.7985 56.1153 62.3428 55.9885 65.7966 53.4324C67.4861 52.0236 68.6797 50.3662 69.3405 48.2672C69.7664 48.4802 69.7664 48.4802 69.9287 48.9276C69.9786 49.1201 70.0286 49.3126 70.0801 49.5109C70.1353 49.7196 70.1907 49.9285 70.2477 50.1436C70.3042 50.3632 70.3606 50.583 70.4185 50.8095C70.5316 51.2419 70.6451 51.6742 70.7588 52.1063C70.8087 52.299 70.8583 52.4917 70.9094 52.6902C71.0291 53.1681 71.0291 53.1681 71.2572 53.5912C71.4897 56.0109 70.5678 58.4844 69.1276 60.406C66.8244 63.1042 63.0169 64.4801 59.5443 64.8782C56.3691 65.0943 53.1815 65.178 50.174 64.0263C49.9851 63.9648 49.7962 63.9035 49.6016 63.84C46.2739 62.6753 43.7958 60.2872 42.2721 57.1534C41.925 56.3029 41.8 55.5705 41.8685 54.656C41.728 54.656 41.5874 54.656 41.4426 54.656C41.6368 53.1351 42.0353 51.7131 42.5206 50.2637C42.5781 50.0921 42.6356 49.9204 42.6946 49.7435C43.1163 48.5102 43.1163 48.5102 43.3593 48.2672Z" fill="#FE5D5D"/>
<path d="M73.6 62.9615C75.5018 65.185 75.8391 69.0875 75.782 71.8784C75.5816 74.425 74.3833 76.7482 72.5352 78.5076C67.3681 82.9072 60.1911 84.2731 53.5817 83.8317C52.2826 83.7128 51.0176 83.4905 49.7484 83.1928C49.5968 83.1574 49.4451 83.1219 49.2888 83.0855C44.9828 82.0373 40.4188 79.8355 37.9823 75.9787C36.8402 73.942 36.5357 72.1094 36.7578 69.7762C36.8983 69.6357 37.0389 69.4951 37.1837 69.3503C37.2303 69.5667 37.277 69.7831 37.3251 70.0058C38.1356 73.5961 39.5655 76.4926 42.7416 78.5675C48.7509 82.1263 54.8654 82.509 61.6742 81.7021C61.8148 79.5937 61.9553 77.4854 62.1001 75.3132C62.8732 75.1024 63.6462 74.8916 64.4427 74.6743C66.2865 74.0378 68.0072 73.3267 69.5538 72.1188C69.6994 72.0102 69.8453 71.9014 69.9954 71.7894C71.959 70.2186 73.005 68.1929 73.3871 65.73C73.4867 64.8079 73.5566 63.8879 73.6 62.9615Z" fill="#C93E3F"/>
<path d="M71.2571 55.0819C71.7853 55.6101 71.8477 55.9878 72.0357 56.7083C72.0998 56.95 72.1637 57.1917 72.2295 57.4407C72.2951 57.6945 72.3609 57.9484 72.4284 58.2099C72.5592 58.7076 72.6902 59.2053 72.8211 59.703C72.882 59.9381 72.9432 60.1732 73.006 60.4155C73.1367 60.906 73.2773 61.3892 73.4283 61.8734C74.0674 64.3429 73.6342 67.1549 72.3794 69.3586C70.1996 72.5175 66.8695 74.4164 63.1646 75.3132C62.8835 75.3132 62.6024 75.3132 62.3128 75.3132C62.2257 74.2113 62.1386 73.1097 62.0515 72.0078C62.0221 71.6343 61.9925 71.2606 61.9629 70.887C61.7934 68.7423 61.6247 66.5974 61.4609 64.4522C61.7056 64.3602 61.9501 64.2682 62.202 64.1734C62.3581 64.1149 62.5142 64.0561 62.675 63.9956C62.9849 63.8802 63.2954 63.7665 63.6069 63.6551C66.5047 62.6165 68.7331 61.3476 70.1615 58.4661C70.5073 57.5927 70.7339 56.7102 70.9285 55.7923C71.0442 55.2949 71.0442 55.2949 71.2571 55.0819Z" fill="#C1C0DF"/>
<path d="M61.2481 20.5822C61.3887 20.5822 61.5292 20.5822 61.674 20.5822C61.9051 21.403 62.1357 22.2237 62.3662 23.0445C62.4345 23.2875 62.5027 23.5304 62.5732 23.7807C63.0076 25.3306 63.4274 26.8825 63.8203 28.4435C64.0045 29.1154 64.0045 29.1153 64.3252 29.7762C64.7912 30.8261 64.9758 31.9462 65.2011 33.0671C65.2893 33.5004 65.3783 33.9336 65.4682 34.3665C65.5065 34.5565 65.5448 34.7467 65.5844 34.9426C65.7246 35.5063 65.9271 36.0172 66.1462 36.5543C66.3509 38.0133 66.1271 39.1726 65.2944 40.3876C63.9638 41.9399 62.3383 42.9683 60.3963 43.582C60.2557 43.582 60.1152 43.582 59.9704 43.582C59.9642 43.4312 59.958 43.2807 59.9516 43.1254C59.7419 38.4245 59.2188 33.78 58.634 29.1124C58.607 28.8966 58.5799 28.6807 58.552 28.4584C58.5256 28.2492 58.4994 28.0399 58.4724 27.8242C58.2963 26.4061 58.1457 24.9903 58.0537 23.5637C58.1921 23.4906 58.3306 23.4178 58.473 23.3426C59.8147 22.6296 60.7485 22.0808 61.2481 20.5822Z" fill="#C63D44"/>
<path d="M66.1463 36.9802C66.6293 37.7047 66.8322 38.4158 67.0646 39.2429C67.1587 39.5696 67.2526 39.8963 67.3468 40.223C67.3945 40.3908 67.4424 40.5584 67.4918 40.7313C67.7231 41.5406 67.9592 42.3485 68.196 43.1561C68.2403 43.3079 68.2849 43.46 68.3304 43.6165C68.5611 44.4015 68.8049 45.1788 69.0745 45.9512C69.5581 47.4132 69.6489 48.3998 69.0196 49.8252C67.5523 52.4642 65.4048 54.396 62.526 55.2949C62.0298 55.3701 61.5327 55.4416 61.0352 55.5078C61.025 55.383 61.0148 55.2582 61.0044 55.1298C60.8977 53.8274 60.7905 52.5249 60.683 51.2224C60.643 50.7367 60.6031 50.2511 60.5633 49.7656C60.5062 49.0662 60.4483 48.3668 60.3906 47.6675C60.3729 47.4515 60.3555 47.2356 60.3374 47.013C60.2475 45.9335 60.1382 44.8653 59.9704 43.795C59.7596 43.7247 59.5488 43.6544 59.3315 43.582C59.5092 43.5354 59.6868 43.4887 59.8697 43.4406C61.2878 43.0409 62.4474 42.6058 63.6323 41.7229C64.0167 41.4524 64.0167 41.4524 64.6556 41.2394C64.8932 40.8463 64.8932 40.8463 65.0815 40.3876C65.1543 40.2568 65.2269 40.1263 65.3019 39.9917C65.8562 38.9714 66.0637 38.1383 66.1463 36.9802Z" fill="#C1C0DF"/>
<path d="M85.0997 74.2484C85.2403 74.2484 85.3808 74.2484 85.5256 74.2484C85.5469 75.1456 85.5623 76.0428 85.5725 76.9402C85.5765 77.2446 85.5825 77.5487 85.59 77.853C85.6788 81.5768 84.4376 84.4952 81.9053 87.239C78.1844 90.7934 72.0501 94.5012 66.7851 94.6927C66.7308 93.0897 66.9378 91.5858 67.211 90.0075C67.5666 89.8721 67.5666 89.8721 67.9297 89.7339C74.7304 87.15 74.7304 87.15 80.6275 82.9798C80.8824 82.7541 80.8824 82.7541 81.1425 82.5239C83.4848 80.3425 84.8037 77.4292 85.0997 74.2484Z" fill="#BC5914"/>
<path d="M59.9936 18.1964C60.7604 18.6843 61.1261 19.2003 61.4479 20.0365C61.4668 20.8215 61.2515 21.2024 60.8222 21.86C60.0464 22.6645 59.3215 23.1795 58.2667 23.5637C58.2973 23.8384 58.3282 24.1133 58.3599 24.3963C58.3998 24.7622 58.4398 25.1279 58.4796 25.4935C58.4999 25.6741 58.5203 25.8547 58.5412 26.0406C58.6523 27.0679 58.7149 28.0674 58.6926 29.1006C57.6657 29.6965 56.8456 29.5385 55.7111 29.3136C53.6739 28.7556 51.8195 27.9781 49.9612 26.971C50.0751 25.5663 50.3513 24.3376 50.7998 23.0046C50.9127 22.6603 51.0256 22.3159 51.1382 21.9713C51.1923 21.8084 51.2464 21.6453 51.3022 21.4773C51.44 21.0452 51.5609 20.6121 51.6774 20.1737C52.0152 19.0675 52.7177 18.6127 53.6348 17.9601C55.4718 17.1045 58.1994 17.3298 59.9936 18.1964Z" fill="#F24948"/>
<path d="M69.3404 48.2672C69.7663 48.4802 69.7663 48.4802 69.9286 48.9276C69.9786 49.1201 70.0285 49.3126 70.08 49.5109C70.1354 49.7196 70.1905 49.9285 70.2476 50.1436C70.3041 50.3632 70.3605 50.583 70.4186 50.8095C70.5315 51.2419 70.645 51.6742 70.7587 52.1063C70.8086 52.299 70.8582 52.4917 70.9095 52.6902C71.029 53.1681 71.029 53.1681 71.257 53.5912C71.4898 56.0109 70.5677 58.4844 69.1274 60.406C67.9144 61.8273 66.5274 62.7413 64.7884 63.4275C64.6561 63.4826 64.5236 63.538 64.3874 63.5951C63.4107 63.9854 62.5082 64.1428 61.4608 64.2393C61.2811 63.1034 61.1853 61.9802 61.1282 60.8319C61.119 60.6569 61.1101 60.4818 61.1007 60.3014C61.0241 58.7025 61.0134 57.1083 61.0349 55.5079C61.3475 55.4148 61.3475 55.4148 61.6663 55.3198C64.5215 54.4407 66.7333 53.1951 68.3572 50.5574C68.5631 50.154 68.746 49.752 68.9145 49.332C69.0463 49.0158 69.0463 49.0158 69.1807 48.6931C69.2335 48.5526 69.2861 48.412 69.3404 48.2672Z" fill="#C03E47"/>
<path d="M59.9935 18.1965C60.7604 18.6844 61.126 19.2004 61.4478 20.0366C61.4667 20.8216 61.2514 21.2025 60.8221 21.8601C59.7109 23.0122 58.7061 23.6061 57.0693 23.6555C55.4174 23.6606 54.0908 23.5482 52.7296 22.4989C51.964 21.6401 51.6648 20.8858 51.6648 19.7304C52.1503 18.7592 53.0103 18.2531 53.9699 17.8038C55.8855 17.2289 58.1872 17.324 59.9935 18.1965Z" fill="#FBB720"/>
<path d="M68.4885 72.9707C68.8538 73.7012 68.8542 74.5215 68.9411 75.3265C68.9728 75.5891 68.9728 75.5891 69.0052 75.857C69.2678 78.2747 69.2678 78.2747 68.9145 79.3595C68.3855 79.7963 68.3855 79.7963 67.6899 80.0649C67.4401 80.1641 67.1903 80.2631 66.9329 80.3653C65.7554 80.7723 64.5765 81.1501 63.3775 81.4891C63.2207 81.5398 63.064 81.5907 62.9026 81.6431C62.2083 81.8665 61.7266 81.9787 61.0349 81.7021C61.2457 81.7021 61.4566 81.7021 61.6738 81.7021C61.8143 79.5938 61.9549 77.4855 62.0997 75.3133C62.8728 75.1024 63.6458 74.8916 64.4423 74.6744C65.0139 74.4661 65.5725 74.2555 66.1328 74.0223C66.2674 73.9678 66.402 73.9133 66.5408 73.857C67.2038 73.5864 67.8539 73.3031 68.4885 72.9707Z" fill="#CD444E"/>
<path d="M64.6553 54.2301C64.7958 54.3004 64.9364 54.3707 65.0812 54.4431C65.24 55.037 65.24 55.037 65.3874 55.8539C65.4138 56.0004 65.4402 56.1468 65.4675 56.2977C65.84 58.4363 66.0949 60.5944 66.3589 62.7485C65.863 62.9598 65.3661 63.1676 64.8682 63.3742C64.6612 63.4628 64.6612 63.4628 64.4498 63.5533C63.4467 63.9656 62.5416 64.1441 61.4608 64.2393C61.2811 63.1033 61.1853 61.9802 61.1282 60.8319C61.119 60.6568 61.1101 60.4818 61.1007 60.3014C61.0241 58.7025 61.0134 57.1083 61.0349 55.5079C61.3735 55.3963 61.3735 55.3963 61.7187 55.2823C62.0143 55.1846 62.3099 55.0866 62.6055 54.9887C62.8287 54.9152 62.8287 54.9152 63.0563 54.8402C63.8711 54.5736 63.8711 54.5736 64.6553 54.2301Z" fill="#D04751"/>
<path d="M60.609 28.4618C60.6508 28.6737 60.6508 28.6737 60.6934 28.8896C61.3814 32.3833 61.3814 32.3833 62.1398 35.8622C62.6241 37.9922 62.9435 40.1314 63.1646 42.3043C62.8326 42.4789 62.4997 42.6516 62.1662 42.8235C61.9809 42.9197 61.7956 43.016 61.6048 43.1154C61.052 43.3614 60.5622 43.4741 59.9701 43.582C59.9616 43.4157 59.9533 43.2494 59.9446 43.0782C59.6988 38.3958 59.2508 33.7556 58.6924 29.1007C60.1299 28.4618 60.1299 28.4618 60.609 28.4618Z" fill="#D64D55"/>
<path d="M58.5346 18.8037C58.8789 18.9984 58.8789 18.9984 59.3315 19.5174C59.4646 20.2628 59.4646 20.2628 59.3315 21.0082C58.8589 21.6273 58.5821 21.826 57.8407 22.073C57.3179 22.1096 56.794 22.1299 56.2701 22.1394C55.8525 22.1516 55.8525 22.1516 55.4266 22.1637C54.5356 22.06 54.1944 21.8643 53.5815 21.2211C53.4484 20.5956 53.4484 20.5956 53.5815 19.9434C54.8687 18.4192 56.6273 18.256 58.5346 18.8037Z" fill="#BB3200"/>
<path d="M73.5999 62.9615C74.1161 63.6498 74.4249 64.0785 74.6647 64.8781C74.5848 65.3705 74.5848 65.3705 74.4517 65.73C74.4517 65.5894 74.4517 65.4489 74.4517 65.3041C74.3111 65.3041 74.1706 65.3041 74.0258 65.3041C73.8852 65.5852 73.7447 65.8663 73.5999 66.1559C73.5999 65.1017 73.5999 64.0476 73.5999 62.9615Z" fill="#B52D2F"/>
<path d="M75.3034 69.9892C75.3737 69.9892 75.444 69.9892 75.5164 69.9892C75.5279 70.5084 75.5364 71.0272 75.543 71.5464C75.5483 71.767 75.5483 71.767 75.5539 71.9919C75.5615 72.7941 75.5471 73.1376 75.0905 73.8225C75.0905 73.6819 75.0905 73.5414 75.0905 73.3966C74.9499 73.3966 74.8094 73.3966 74.6646 73.3966C74.8754 72.2721 75.0862 71.1477 75.3034 69.9892Z" fill="#AA332F"/>
<path d="M72.9609 60.4059C73.8043 60.8276 73.8043 60.8276 74.6646 61.2578C74.243 61.4686 74.243 61.4686 73.8128 61.6837C73.6722 61.9648 73.5317 62.2459 73.3869 62.5356C73.2463 61.8328 73.1058 61.13 72.9609 60.4059Z" fill="#F8972B"/>
<path d="M48.2573 31.2303C48.6832 31.8692 48.6832 31.8692 48.654 32.3435C48.6155 32.5119 48.5767 32.6806 48.5367 32.8542C48.5009 33.0239 48.4649 33.1934 48.4279 33.3683C48.3433 33.575 48.3433 33.575 48.2573 33.7859C48.0465 33.8562 47.8356 33.9264 47.6184 33.9988C47.6849 33.6971 47.7513 33.3955 47.8182 33.0938C47.8552 32.9257 47.8923 32.7577 47.9304 32.5846C48.0333 32.1314 48.1427 31.6808 48.2573 31.2303Z" fill="#FA716B"/>
<path d="M27.6004 69.5632C27.7409 69.7741 27.8815 69.9849 28.0263 70.2021C27.8815 70.6838 27.8815 70.6838 27.627 71.2005C27.5026 71.4586 27.5026 71.4586 27.3757 71.722C27.276 71.9184 27.276 71.9184 27.1745 72.1188C27.0339 72.1188 26.8933 72.1188 26.7485 72.1188C26.8902 71.1841 27.2145 70.4191 27.6004 69.5632Z" fill="#F5A64D"/>
<path d="M54.0074 18.0267C54.0074 18.1673 54.0074 18.3078 54.0074 18.4527C53.6262 18.6537 53.2448 18.8547 52.8636 19.0558C52.4479 19.3024 52.4479 19.3024 52.3037 19.9434C52.0928 20.0137 51.882 20.0839 51.6648 20.1563C51.9208 19.1608 52.4189 18.7798 53.2288 18.2222C53.5814 18.0267 53.5814 18.0267 54.0074 18.0267Z" fill="#F4B630"/>
<path d="M51.6649 20.5822C52.0909 21.2211 52.0909 21.2211 52.0376 21.7667C51.8779 22.2859 51.8779 22.2859 51.452 22.7118C51.1898 21.5586 51.1898 21.5586 51.4386 20.9283C51.5506 20.757 51.5506 20.757 51.6649 20.5822Z" fill="#F85447"/>
<path d="M71.2572 55.0819C71.7885 55.6132 71.7595 55.8641 71.8162 56.5993C71.8321 56.7931 71.8481 56.9868 71.8645 57.1866C71.8801 57.4098 71.8801 57.4098 71.896 57.6374C71.8038 57.4464 71.8038 57.4464 71.7097 57.2516C71.4601 56.7445 71.4601 56.7445 71.0442 56.1467C71.124 55.5743 71.124 55.5743 71.2572 55.0819Z" fill="#AFAECD"/>
<path d="M26.5354 75.9521C26.6057 75.9521 26.676 75.9521 26.7484 75.9521C27.2333 77.6635 27.2333 77.6635 26.9613 78.5077C26.9613 78.3671 26.9613 78.2266 26.9613 78.0818C26.8208 78.0818 26.6802 78.0818 26.5354 78.0818C26.5354 77.379 26.5354 76.6762 26.5354 75.9521Z" fill="#CA6024"/>
<path d="M38.2481 64.2393C38.3887 64.3096 38.5292 64.3799 38.674 64.4523C38.8005 65.0164 38.8321 65.5793 38.887 66.156C38.6059 66.0154 38.3248 65.8749 38.0352 65.73C38.1054 65.2381 38.1757 64.7462 38.2481 64.2393Z" fill="#F9604F"/>
<path d="M43.3591 48.2672C43.4997 48.5483 43.6402 48.8294 43.785 49.1191C43.4336 49.4002 43.0822 49.6813 42.7202 49.9709C43.1195 48.5068 43.1195 48.5068 43.3591 48.2672Z" fill="#F67170"/>
<path d="M61.248 20.5822C61.3886 20.5822 61.5292 20.5822 61.674 20.5822C61.7442 21.0039 61.8145 21.4255 61.8869 21.86C61.6761 21.86 61.4653 21.86 61.248 21.86C61.0085 21.0614 61.0085 21.0614 61.248 20.5822Z" fill="#C24E4E"/>
</g>
</g>
<defs>
<clipPath id="clip0_1_3853">
<rect width="109.036" height="109.249" fill="white" transform="translate(0.767334 0.03125)"/>
</clipPath>
</defs>
</svg>
