<svg width="69" height="81" viewBox="0 0 69 81" fill="none" xmlns="http://www.w3.org/2000/svg">
<path d="M61.2349 12.4656C63.7873 17.9355 63.6013 22.5433 63.7854 28.6191C63.8555 29.5309 63.9257 30.4427 63.998 31.3822C64.3487 31.3822 64.6994 31.3822 65.0607 31.3822C65.9024 32.9603 65.9024 32.9603 66.761 34.5704C66.8312 34.6405 66.9013 34.7107 66.9736 34.7829C66.9736 36.9303 66.6526 37.8308 64.8481 39.0338C64.0845 40.9431 64.2777 42.1802 65.2732 43.9224C66.4305 44.6589 66.4305 44.6589 67.6112 45.4102C68.6767 46.4757 68.184 47.7623 67.8238 49.0235C66.336 49.8737 66.336 49.8737 65.9109 49.8737C66.1323 51.6739 66.1323 51.6739 67.6112 52.2117C67.303 56.5251 67.303 56.5251 64.6356 57.5253C63.9021 58.7479 63.4942 59.9184 64.2105 61.3512C64.2105 61.9824 64.2105 62.6137 64.2105 63.2641C62.9352 63.4766 62.9352 63.4766 62.2976 63.2641C62.2976 64.1058 62.2976 64.9474 62.2976 65.8146C57.2492 77.9306 44.1851 80.4803 32.3286 80.4803C22.4703 79.4426 11.8692 76.3633 7.46075 66.6648C7.39061 65.9634 7.32047 65.262 7.2482 64.5394C6.82736 64.4692 6.40652 64.3991 5.97293 64.3268C5.33529 63.6892 5.33529 63.6892 5.33529 60.0759C4.63389 60.0759 3.93249 60.0759 3.20983 60.0759C1.60086 59.0032 2.43701 56.2694 2.35965 54.3371C2.57007 53.9864 2.78049 53.6357 2.99729 53.2744C3.31547 51.35 3.31547 51.35 2.78474 49.4486C2.57219 47.9608 2.57219 47.9608 2.78474 47.5357C2.92502 47.5357 3.0653 47.5357 3.20983 47.5357C2.99941 46.7641 2.78899 45.9926 2.57219 45.1977C2.99729 44.3475 2.99729 44.3475 3.42238 44.3475C3.6328 43.1902 3.6328 43.1902 3.84747 42.0095C3.42663 41.9393 3.00579 41.8692 2.57219 41.7969C0.871826 40.3395 0.871826 40.3395 0.871826 37.7586C2.02914 36.6013 2.02914 36.6013 3.20983 35.4206C3.49039 34.9997 3.77095 34.5789 4.06001 34.1453C4.27043 34.1453 4.48086 34.1453 4.69765 34.1453C4.76779 33.4439 4.83793 32.7425 4.9102 32.0198C5.19076 30.7573 5.47132 29.4948 5.76038 28.194C5.69024 27.9836 5.6201 27.7732 5.54784 27.5564C5.54784 13.4867 9.63424 6.96644 22.9766 2.05085C36.5173 -1.17309 52.5842 0.35463 61.2349 12.4656Z" fill="#E29758"/>
<path d="M62.0851 35.6331C62.0851 59.1326 62.0851 59.1326 52.0955 64.7518C41.3674 68.3279 30.1758 68.7811 19.3634 65.1769C19.3634 65.0367 19.3634 64.8964 19.3634 64.7518C18.7321 64.5414 18.7321 64.5414 18.0881 64.3268C12.3494 61.3063 12.3494 61.3063 12.3494 60.5009C11.9987 60.3606 11.648 60.2204 11.2866 60.0758C10.9359 59.655 10.5852 59.2342 10.2239 58.8006C9.94336 58.5901 9.6628 58.3797 9.37374 58.1629C9.09317 57.5317 8.81261 56.9004 8.52355 56.25C8.24299 55.6889 7.96243 55.1278 7.67337 54.5496C7.39281 53.9184 7.11225 53.2871 6.82318 52.6367C6.75304 52.5666 6.6829 52.4964 6.61064 52.4242C6.5405 48.6366 6.47036 44.849 6.39809 40.9467C6.32795 39.4036 6.25781 37.8605 6.18555 36.2707C9.37374 36.2707 9.37374 36.2707 11.4992 36.6958C12.9721 36.801 12.9721 36.801 14.4748 36.9083C16.2634 37.8552 16.2634 37.8552 18.0881 38.8212C19.9453 39.336 19.9453 39.336 22.5516 39.4589C23.1127 39.6693 23.6738 39.8797 24.2519 40.0965C25.2339 40.3069 26.2159 40.5174 27.2276 40.7342C27.9991 41.155 28.7707 41.5758 29.5656 42.0094C36.19 42.1899 36.19 42.1899 42.7434 41.5843C45.0814 41.5843 45.0814 41.5843 46.7818 42.222C47.9041 42.5727 49.0263 42.9234 50.1825 43.2847C54.0084 44.56 54.0084 44.56 54.4335 44.7725C58.1741 44.7725 59.2557 41.3029 60.5973 38.3962C60.9129 37.4493 60.9129 37.4493 61.2349 36.4832C61.66 35.6331 61.66 35.6331 62.0851 35.6331Z" fill="#70211B"/>
<path d="M65.0607 31.3821C65.9024 32.9603 65.9024 32.9603 66.761 34.5703C66.8312 34.6404 66.9013 34.7106 66.9736 34.7828C66.9736 36.9302 66.6526 37.8308 64.8481 39.0338C64.0845 40.9431 64.2777 42.1801 65.2732 43.9223C66.0448 44.4133 66.8163 44.9043 67.6112 45.4101C68.6767 46.4756 68.184 47.7622 67.8238 49.0234C66.336 49.8736 66.336 49.8736 65.9109 49.8736C66.1323 51.6739 66.1323 51.6739 67.6112 52.2116C67.303 56.525 67.303 56.525 64.6356 57.5253C63.9021 58.7478 63.4942 59.9183 64.2105 61.3511C64.2105 61.9823 64.2105 62.6136 64.2105 63.264C62.9352 63.4765 62.9352 63.4765 62.2976 63.264C62.2976 64.1057 62.2976 64.9474 62.2976 65.8145C57.2492 77.9305 44.1851 80.4802 32.3286 80.4802C22.4703 79.4426 11.8692 76.3632 7.46075 66.6647C7.39061 65.9633 7.32047 65.2619 7.2482 64.5393C6.82736 64.4691 6.40652 64.399 5.97293 64.3267C5.33529 63.6891 5.33529 63.6891 5.33529 60.0758C4.63389 60.0758 3.93249 60.0758 3.20983 60.0758C1.60086 59.0031 2.43701 56.2693 2.35965 54.3371C2.57007 53.9864 2.78049 53.6357 2.99729 53.2743C3.31547 51.3499 3.31547 51.3499 2.78474 49.4485C2.57219 47.9607 2.57219 47.9607 2.78474 47.5356C2.92502 47.5356 3.0653 47.5356 3.20983 47.5356C2.99941 46.7641 2.78899 45.9925 2.57219 45.1976C2.99729 44.3474 2.99729 44.3474 3.42238 44.3474C3.56266 43.5759 3.70294 42.8043 3.84747 42.0094C3.42663 41.9393 3.00579 41.8691 2.57219 41.7969C0.871826 40.3394 0.871826 40.3394 0.871826 37.7585C1.64337 36.9869 2.41491 36.2154 3.20983 35.4205C3.42025 35.1399 3.63067 34.8594 3.84747 34.5703C3.98775 34.5703 4.12803 34.5703 4.27256 34.5703C4.27256 35.1314 4.27256 35.6925 4.27256 36.2707C4.90382 36.2707 5.53508 36.2707 6.18547 36.2707C6.67327 41.6372 6.72343 47.0363 6.82311 52.4242C7.03353 52.7047 7.24395 52.9853 7.46075 53.2743C7.74131 54.0459 8.02187 54.8174 8.31093 55.6123C8.66163 56.2436 9.01233 56.8749 9.37366 57.5253C9.51394 57.8058 9.65422 58.0864 9.79875 58.3754C10.1495 58.656 10.5002 58.9366 10.8615 59.2256C11.3875 59.7517 11.3875 59.7517 11.9242 60.2884C12.0645 60.3585 12.2048 60.4286 12.3493 60.5009C12.3493 60.6412 12.3493 60.7815 12.3493 60.926C12.6299 61.0663 12.9104 61.2065 13.1995 61.3511C14.1113 61.9122 15.0231 62.4733 15.9626 63.0514C17.0848 63.6126 18.2071 64.1737 19.3633 64.7518C19.3633 64.8921 19.3633 65.0324 19.3633 65.1769C20.0647 65.3172 20.7661 65.4575 21.4888 65.602C23.0319 66.0228 24.5749 66.4437 26.1648 66.8773C37.7643 68.242 53.1413 68.3611 60.1721 57.3127C63.8743 49.1679 61.9331 47.797 62.085 34.5703C63.7854 31.3821 63.7854 31.3821 65.0607 31.3821Z" fill="#09CF51"/>
<path d="M48.0571 3.11356C54.9561 3.88012 59.9841 9.78537 62.7228 15.6538C63.6667 20.0581 63.6467 24.0419 63.7855 28.6191C63.8556 29.5309 63.9258 30.4427 63.998 31.3822C63.1563 32.9603 63.1563 32.9603 62.2977 34.5703C62.2275 34.921 62.1574 35.2717 62.0851 35.6331C61.9448 35.6331 61.8046 35.6331 61.66 35.6331C61.5197 36.0539 61.3795 36.4748 61.2349 36.9084C60.0591 40.4358 58.9945 43.1598 55.7087 44.9851C54.4335 44.9851 54.4335 44.9851 51.4578 43.9224C49.417 43.242 47.3625 42.6005 45.294 42.0095C45.2239 41.9393 45.1537 41.8692 45.0814 41.7969C42.7307 41.7272 42.7307 41.7272 40.4054 42.222C29.5656 42.222 29.5656 42.222 26.59 40.7342C25.608 40.5238 24.626 40.3133 23.6143 40.0965C23.2636 39.9563 22.9129 39.816 22.5516 39.6714C21.2891 39.5312 20.0265 39.3909 18.7258 39.2464C17.6035 38.6852 16.4813 38.1241 15.325 37.546C14.6938 37.3356 14.0625 37.1251 13.4121 36.9084C13.1315 36.6278 12.851 36.3472 12.5619 36.0582C11.8605 35.497 11.1591 34.9359 10.4365 34.3578C6.82318 30.7445 6.82318 30.7445 6.82318 28.8316C6.61276 28.8316 6.40234 28.8316 6.18555 28.8316C6.39809 23.518 6.39809 23.518 6.82318 23.0929C7.52459 24.4255 8.22599 25.7582 8.94864 27.1312C18.307 38.1911 33.6288 38.1522 46.7818 34.9954C49.3638 34.0118 51.9297 32.9758 54.4335 31.8073C54.5737 31.8073 54.714 31.8073 54.8586 31.8073C54.9988 31.5267 55.1391 31.2461 55.2836 30.9571C55.5642 30.8869 55.8448 30.8168 56.1338 30.7445C56.3442 30.3237 56.3442 30.3237 56.5589 29.8943C57.4091 29.0442 57.4091 29.0442 58.0467 29.0442C58.187 28.6233 58.3273 28.2025 58.4718 27.7689C58.6844 27.3438 58.6844 27.3438 59.1095 27.3438C58.8991 25.1344 58.8991 25.1344 58.6844 22.8803C58.6844 20.9374 59.0916 19.7278 59.9597 17.9918C59.9597 15.6531 59.5981 15.2108 57.8342 13.7409C57.4091 13.1032 57.4091 13.1032 57.4091 11.6154C57.8342 11.8279 57.8342 11.8279 58.2593 13.7409C58.7503 13.7409 59.2413 13.7409 59.7471 13.7409C59.4755 11.975 59.4755 11.975 58.8969 11.1903C58.5462 11.1903 58.1955 11.1903 57.8342 11.1903C56.1338 9.27739 56.1338 9.27739 55.7087 8.63975C55.4983 8.63975 55.2879 8.63975 55.0711 8.63975C55.001 8.85017 54.9308 9.06059 54.8586 9.27739C54.9988 9.27739 55.1391 9.27739 55.2836 9.27739C55.2135 9.48781 55.1434 9.69823 55.0711 9.91502C53.785 9.14336 53.0353 8.66281 52.7331 7.15193C52.9435 7.43249 53.1539 7.71305 53.3707 8.00211C54.5351 8.09716 54.5351 8.09716 55.0711 7.78957C55.0711 7.50901 55.0711 7.22844 55.0711 6.93938C54.4398 6.93938 53.8086 6.93938 53.1582 6.93938C53.1582 6.51429 53.1582 6.51429 53.5833 6.30174C53.152 5.74908 53.152 5.74908 52.308 6.0892C52.0976 5.56315 52.0976 5.56315 51.8829 5.02647C50.7105 4.65332 50.7105 4.65332 50.3951 5.02647C50.3354 6.44853 50.3354 6.44853 51.4578 7.15193C50.3951 7.15193 50.3951 7.15193 49.97 6.51429C49.97 5.73495 49.97 4.95563 49.97 4.17629C49.0231 3.75544 49.0231 3.75544 48.0571 3.3261C48.0571 3.25596 48.0571 3.18582 48.0571 3.11356Z" fill="#C67132"/>
<path d="M8.73611 63.9016C8.87639 64.603 9.01667 65.3044 9.1612 66.0271C10.5136 67.3846 10.5136 67.3846 13.1996 67.0898C13.41 67.4405 13.6204 67.7912 13.8372 68.1526C15.0997 68.1526 16.3623 68.1526 17.663 68.1526C18.154 69.1345 18.645 70.1165 19.1509 71.1282C21.7628 73.2177 20.9356 72.4035 25.9523 72.4035C26.59 72.8286 26.59 72.8286 26.59 73.2537C30.7901 73.802 30.7901 73.802 34.2416 72.616C36.1384 72.616 36.3633 73.2498 37.6424 74.5289C38.6243 74.5289 39.6063 74.5289 40.618 74.5289C40.6881 74.1782 40.7583 73.8275 40.8305 73.4662C41.0431 73.2537 41.0431 73.2537 42.3184 73.2537C42.5288 73.4641 42.7392 73.6745 42.956 73.8913C45.561 74.5425 46.5908 73.4719 48.2696 71.5533C49.1113 71.6936 49.953 71.8339 50.8202 71.9784C53.6097 71.5799 54.0477 69.5226 54.8586 67.0898C55.2794 67.195 55.2794 67.195 55.7088 67.3024C57.2217 67.4777 57.2217 67.4777 58.0468 66.4522C58.187 65.6807 58.3273 64.9091 58.4719 64.1142C59.5346 64.3267 59.5346 64.3267 60.1722 65.3895C60.1722 65.5999 60.1722 65.8103 60.1722 66.0271C60.7333 65.957 61.2945 65.8868 61.8726 65.8146C61.8726 72.5869 52.5227 76.6312 47.4195 78.7799C34.0031 82.134 17.3185 81.0958 8.52357 69.0027C7.46084 66.6647 7.46084 66.6647 7.24829 64.3267C8.31102 63.9016 8.31102 63.9016 8.73611 63.9016Z" fill="#D68241"/>
<path d="M6.18555 36.2707C9.37374 36.2707 9.37374 36.2707 11.4992 36.6958C12.9721 36.801 12.9721 36.801 14.4748 36.9084C16.2634 37.8553 16.2634 37.8553 18.0881 38.8213C19.9453 39.3361 19.9453 39.3361 22.5516 39.4589C23.1127 39.6693 23.6738 39.8798 24.2519 40.0965C25.2339 40.307 26.2159 40.5174 27.2276 40.7342C27.9991 41.155 28.7707 41.5759 29.5656 42.0095C36.19 42.1899 36.19 42.1899 42.7434 41.5844C45.0814 41.5844 45.0814 41.5844 46.7818 42.222C48.8352 42.8637 50.8895 43.5022 52.9456 44.1349C50.584 45.7095 46.8462 46.1171 44.2313 46.6855C43.6701 46.8257 43.109 46.966 42.5309 47.1106C31.5754 48.206 14.7943 47.6217 8.09846 36.9084C7.53734 36.8382 6.97622 36.7681 6.39809 36.6958C6.39809 37.1868 6.39809 37.6778 6.39809 38.1836C6.32795 38.1836 6.25781 38.1836 6.18555 38.1836C6.18555 37.5524 6.18555 36.9211 6.18555 36.2707Z" fill="#92473F"/>
<path d="M65.0608 31.3821C65.622 32.4342 66.1831 33.4863 66.7612 34.5703C66.8664 34.6755 66.8664 34.6755 66.9737 34.7828C66.9737 36.9302 66.6528 37.8308 64.8483 39.0338C64.0846 40.9431 64.2778 42.1801 65.2734 43.9223C66.0449 44.4133 66.8165 44.9043 67.6114 45.4101C68.6769 46.4756 68.1842 47.7622 67.8239 49.0234C66.3361 49.8736 66.3361 49.8736 65.911 49.8736C66.1325 51.6739 66.1325 51.6739 67.6114 52.2116C67.3032 56.525 67.3032 56.525 64.6357 57.5253C63.9022 58.7478 63.4944 59.9183 64.2106 61.3511C64.2106 61.9823 64.2106 62.6136 64.2106 63.264C62.9354 63.4765 62.9354 63.4765 62.2977 63.264C62.2977 64.1057 62.2977 64.9474 62.2977 65.8145C62.1575 66.025 62.0172 66.2354 61.8726 66.4522C61.8726 66.2418 61.8726 66.0313 61.8726 65.8145C61.7324 65.8847 61.5921 65.9548 61.4476 66.0271C60.1723 66.0271 60.1723 66.0271 59.3221 64.3267C59.0415 64.2566 58.761 64.1864 58.4719 64.1142C58.4719 64.6052 58.4719 65.0961 58.4719 65.602C57.6521 67.5149 57.6521 67.5149 55.7088 67.5149C55.6387 67.3746 55.5685 67.2344 55.4963 67.0898C56.0574 67.0197 56.6185 66.9495 57.1966 66.8773C57.1966 66.6669 57.1966 66.4564 57.1966 66.2396C57.3369 66.2396 57.4772 66.2396 57.6217 66.2396C57.1307 65.6084 56.6398 64.9771 56.1339 64.3267C56.1339 64.1864 56.1339 64.0462 56.1339 63.9016C55.5026 63.9718 54.8714 64.0419 54.221 64.1142C54.0807 63.9739 53.9404 63.8336 53.7959 63.6891C54.7077 63.0578 55.6195 62.4266 56.559 61.7762C64.4957 53.8395 61.9472 46.5757 62.0852 34.5703C63.7856 31.3821 63.7856 31.3821 65.0608 31.3821Z" fill="#03B852"/>
<path d="M17.4504 50.5112C19.1508 50.7238 19.1508 50.7238 23.1892 51.9991C30.6425 53.6384 30.6425 53.6384 41.8932 53.4869C42.1036 53.8376 42.3141 54.1883 42.5309 54.5496C42.8816 54.8302 43.2323 55.1107 43.5936 55.3998C42.4781 57.6305 39.5758 59.2262 37.6423 60.7134C35.5092 62.5203 35.5092 62.5203 34.029 64.5393C31.8738 64.0005 30.3807 61.285 28.9279 59.6507C28.3668 59.1597 27.8057 58.6687 27.2276 58.1629C26.5261 57.4615 25.8247 56.7601 25.1021 56.0374C24.1903 55.336 23.2784 54.6346 22.339 53.912C22.339 53.7717 22.339 53.6314 22.339 53.4869C22.0584 53.3466 21.7779 53.2063 21.4888 53.0618C20.7173 52.5708 19.9457 52.0798 19.1508 51.574C18.5897 51.2934 18.0286 51.0128 17.4504 50.7238C17.4504 50.6536 17.4504 50.5835 17.4504 50.5112Z" fill="#F6CF83"/>
<path d="M4.27256 34.5703C4.27256 35.1314 4.27256 35.6926 4.27256 36.2707C4.90382 36.2707 5.53508 36.2707 6.18547 36.2707C6.67327 41.6373 6.72343 47.0363 6.82311 52.4242C7.03353 52.7047 7.24395 52.9853 7.46075 53.2744C7.74131 54.0459 8.02187 54.8174 8.31093 55.6124C8.66163 56.2436 9.01233 56.8749 9.37366 57.5253C9.51394 57.8058 9.65422 58.0864 9.79875 58.3755C10.1495 58.656 10.5002 58.9366 10.8615 59.2256C11.2122 59.5763 11.5629 59.927 11.9242 60.2884C12.1346 60.3936 12.1346 60.3936 12.3493 60.5009C12.3493 60.6412 12.3493 60.7815 12.3493 60.926C12.6299 61.0663 12.9104 61.2066 13.1995 61.3511C14.1815 61.9824 15.1634 62.6136 16.1751 63.264C14.9687 64.4704 13.5453 64.5393 11.9242 64.5393C11.4991 63.9016 11.4991 63.9016 11.4991 60.926C10.447 60.9961 9.39492 61.0663 8.31093 61.1385C8.38107 61.2087 8.45121 61.2788 8.52348 61.3511C8.52348 61.7018 8.52348 62.0525 8.52348 62.4138C7.38572 61.9588 6.39802 61.4576 6.39802 60.0758C6.25774 60.0758 6.11746 60.0758 5.97293 60.0758C5.97293 61.2682 5.97293 62.4606 5.97293 63.6891C5.76251 63.6891 5.55209 63.6891 5.33529 63.6891C5.33529 62.4967 5.33529 61.3043 5.33529 60.0758C4.63389 60.0758 3.93249 60.0758 3.20983 60.0758C1.60086 59.0031 2.43701 56.2693 2.35965 54.3371C2.57007 53.9864 2.78049 53.6357 2.99729 53.2744C3.31547 51.35 3.31547 51.35 2.78474 49.4485C2.57219 47.9607 2.57219 47.9607 2.78474 47.5356C2.92502 47.5356 3.0653 47.5356 3.20983 47.5356C2.8942 46.3783 2.8942 46.3783 2.57219 45.1976C2.99729 44.3474 2.99729 44.3474 3.42238 44.3474C3.56266 43.5759 3.70294 42.8043 3.84747 42.0094C3.42663 41.9393 3.00579 41.8691 2.57219 41.7969C0.871826 40.3394 0.871826 40.3394 0.871826 37.7585C1.64337 36.987 2.41491 36.2154 3.20983 35.4205C3.84747 34.5703 3.84747 34.5703 4.27256 34.5703Z" fill="#3FDB4A"/>
<path d="M62.9351 27.9814C63.7852 28.619 63.7852 28.619 63.9978 31.3821C63.4367 32.4342 62.8755 33.4863 62.2974 34.5703C62.2273 34.921 62.1571 35.2717 62.0849 35.633C61.9446 35.633 61.8043 35.633 61.6598 35.633C61.4494 36.2643 61.4494 36.2643 61.2347 36.9083C60.0589 40.4357 58.9942 43.1597 55.7085 44.9851C54.4332 44.9851 54.4332 44.9851 51.4576 43.9223C49.4167 43.242 47.3622 42.6005 45.2937 42.0094C45.1535 41.7289 45.0132 41.4483 44.8687 41.1592C46.6572 40.6332 46.6572 40.6332 48.4819 40.0965C55.2222 38.0225 60.6296 34.8981 62.9351 27.9814Z" fill="#E4A755"/>
<path d="M58.4718 64.1142C59.5346 64.3267 59.5346 64.3267 60.1722 65.3895C60.1722 65.5999 60.1722 65.8103 60.1722 66.0271C60.7333 65.957 61.2945 65.8868 61.8726 65.8146C61.8726 72.5869 52.5227 76.6312 47.4195 78.7799C44.8689 79.4175 44.8689 79.4175 42.3184 79.4175C43.1685 78.3548 43.1685 78.3548 45.0815 76.867C47.7755 74.459 47.7755 74.459 49.7575 72.1909C50.8096 72.0857 50.8096 72.0857 51.8829 71.9784C53.6296 70.5809 54.2235 69.2068 54.8586 67.0898C55.1391 67.16 55.4197 67.2301 55.7087 67.3024C57.2217 67.4777 57.2217 67.4777 58.0468 66.4522C58.187 65.6807 58.3273 64.9091 58.4718 64.1142Z" fill="#A2541C"/>
<path d="M48.0569 3.11356C54.9559 3.88012 59.9839 9.78537 62.7226 15.6538C63.3602 18.6294 63.3602 18.6294 63.3602 27.5563C63.2199 27.5563 63.0796 27.5563 62.9351 27.5563C62.865 25.5924 62.7948 23.6285 62.7226 21.605C62.0212 23.1481 61.3197 24.6912 60.5971 26.2811C59.7469 27.5563 59.7469 27.5563 59.3218 27.5563C58.4336 21.0433 58.4336 21.0433 59.9595 17.9918C59.9595 15.6531 59.5979 15.2108 57.834 13.7409C57.4089 13.1032 57.4089 13.1032 57.4089 11.6154C57.834 11.8279 57.834 11.8279 58.2591 13.7409C58.7501 13.7409 59.241 13.7409 59.7469 13.7409C59.4753 11.975 59.4753 11.975 58.8967 11.1903C58.546 11.1903 58.1953 11.1903 57.834 11.1903C56.1336 9.27739 56.1336 9.27739 55.7085 8.63975C55.4981 8.63975 55.2877 8.63975 55.0709 8.63975C54.9657 8.95538 54.9657 8.95538 54.8584 9.27739C54.9986 9.27739 55.1389 9.27739 55.2834 9.27739C55.1782 9.59302 55.1782 9.59302 55.0709 9.91502C53.7848 9.14336 53.0351 8.66281 52.7329 7.15193C52.9433 7.43249 53.1537 7.71305 53.3705 8.00211C54.5349 8.09716 54.5349 8.09716 55.0709 7.78957C55.0709 7.50901 55.0709 7.22844 55.0709 6.93938C54.4396 6.93938 53.8084 6.93938 53.158 6.93938C53.158 6.51429 53.158 6.51429 53.5831 6.30174C53.1518 5.74908 53.1518 5.74908 52.3078 6.0892C52.1675 5.7385 52.0272 5.3878 51.8827 5.02647C50.7103 4.65332 50.7103 4.65332 50.3949 5.02647C50.3352 6.44853 50.3352 6.44853 51.4576 7.15193C50.3949 7.15193 50.3949 7.15193 49.9698 6.51429C49.9698 5.73495 49.9698 4.95563 49.9698 4.17629C49.0229 3.75544 49.0229 3.75544 48.0569 3.3261C48.0569 3.25596 48.0569 3.18582 48.0569 3.11356Z" fill="#A85217"/>
<path d="M10.2238 46.4729C11.2866 46.898 11.2866 46.898 12.1367 47.7482C14.0307 48.6396 15.9317 49.5212 17.8755 50.2987C17.8053 50.439 17.7352 50.5793 17.6629 50.7238C18.5046 51.1447 19.3463 51.5655 20.2135 51.9991C22.3389 53.4869 22.3389 53.4869 22.5515 54.1246C17.753 56.3057 14.5451 55.6207 10.6489 52.2116C9.92052 50.2696 9.70436 48.5505 10.2238 46.4729Z" fill="#F65F58"/>
<path d="M22.9767 54.3371C25.0471 55.7174 26.7496 57.4724 28.5029 59.2257C28.9939 59.6465 29.4848 60.0674 29.9907 60.501C30.2011 60.9218 30.2011 60.9218 30.4158 61.3511C24.6407 61.3511 18.9736 60.3186 14.4749 56.4626C15.9338 55.7331 17.7323 56.25 19.3634 56.25C21.5813 55.8579 21.5813 55.8579 22.9767 54.3371Z" fill="#964A42"/>
<path d="M65.0606 31.3821C65.6217 32.4342 66.1828 33.4863 66.761 34.5703C66.8311 34.6404 66.9013 34.7106 66.9735 34.7828C66.9735 36.9302 66.6526 37.8308 64.8481 39.0338C64.1907 40.6772 64.39 42.2039 64.6355 43.9223C64.3199 44.0275 64.3199 44.0275 63.9979 44.1349C63.9979 43.9244 63.9979 43.714 63.9979 43.4972C63.7173 43.4972 63.4368 43.4972 63.1477 43.4972C63.0776 43.7778 63.0074 44.0583 62.9351 44.3474C62.7247 44.3474 62.5143 44.3474 62.2975 44.3474C62.2975 46.8725 62.2975 49.3975 62.2975 51.9991C62.2274 51.9991 62.1572 51.9991 62.085 51.9991C62.085 31.3821 62.085 31.3821 65.0606 31.3821Z" fill="#36D747"/>
<path d="M57.834 48.8109C57.834 51.8142 57.1683 52.6831 54.6458 54.1246C51.3177 55.2338 48.0396 54.9679 44.8687 53.6995C44.8687 53.5592 44.8687 53.4189 44.8687 53.2744C46.2715 52.7834 47.6743 52.2924 49.1196 51.7866C50.7328 51.0852 52.346 50.3838 54.0081 49.6611C56.5587 48.8109 56.5587 48.8109 57.834 48.8109Z" fill="#ED5654"/>
<path d="M5.97322 28.4065C6.04336 28.5468 6.1135 28.6871 6.18576 28.8316C6.39618 28.8316 6.6066 28.8316 6.8234 28.8316C7.31438 29.8135 7.80536 30.7955 8.31122 31.8072C9.91679 33.5911 11.4142 35.151 13.4123 36.4832C13.4123 36.6235 13.4123 36.7638 13.4123 36.9083C11.4994 36.9083 11.4994 36.9083 9.37395 36.4832C7.69059 36.4131 6.00722 36.343 4.27285 36.2707C4.20271 35.5693 4.13257 34.8679 4.0603 34.1452C4.27072 34.1452 4.48114 34.1452 4.69794 34.1452C4.76808 33.4438 4.83822 32.7424 4.91049 32.0198C5.76067 28.619 5.76067 28.619 5.97322 28.4065Z" fill="#F8CD81"/>
<path d="M59.1092 47.9607C59.1092 51.3013 58.6807 53.3823 55.4959 54.9747C51.3723 56.0056 46.4614 57.2052 43.1682 53.912C43.1682 53.7016 43.1682 53.4912 43.1682 53.2744C43.7293 53.2744 44.2905 53.2744 44.8686 53.2744C44.8686 53.4147 44.8686 53.5549 44.8686 53.6995C49.3631 55.0479 53.113 54.8434 56.9837 52.4242C57.7229 50.6188 57.7229 50.6188 58.0464 48.1733C58.259 47.9607 58.259 47.9607 59.1092 47.9607Z" fill="#BC141E"/>
<path d="M59.1094 48.3858C59.1796 48.3858 59.2497 48.3858 59.322 48.3858C59.322 53.011 58.4945 55.2053 54.0083 56.8876C45.8253 56.8876 45.8253 56.8876 42.956 54.9747C42.8858 54.4837 42.8157 53.9928 42.7434 53.4869C42.8837 53.4168 43.024 53.3466 43.1685 53.2744C43.3789 53.6251 43.5893 53.9758 43.8061 54.3371C47.2043 57.0558 52.075 55.5985 55.9213 54.5496C58.5156 52.604 58.8497 51.5019 59.1094 48.3858Z" fill="#770405"/>
<path d="M48.0569 3.11356C52.9048 3.65223 57.5137 7.36254 60.3845 11.1903C60.3845 11.6111 60.3845 12.032 60.3845 12.4656C60.2443 12.4656 60.104 12.4656 59.9595 12.4656C59.9595 12.8163 59.9595 13.167 59.9595 13.5283C59.8893 13.5283 59.8192 13.5283 59.7469 13.5283C59.5365 12.8269 59.3261 12.1255 59.1093 11.4028C58.8287 11.3327 58.5482 11.2626 58.2591 11.1903C57.4089 10.7652 57.4089 10.7652 55.7085 8.63975C55.4981 8.63975 55.2877 8.63975 55.0709 8.63975C54.9657 8.95538 54.9657 8.95538 54.8584 9.27739C54.9986 9.27739 55.1389 9.27739 55.2834 9.27739C55.1782 9.59302 55.1782 9.59302 55.0709 9.91503C53.7848 9.14336 53.0351 8.66281 52.7329 7.15193C52.9433 7.43249 53.1537 7.71305 53.3705 8.00211C54.5349 8.09716 54.5349 8.09716 55.0709 7.78957C55.0709 7.50901 55.0709 7.22845 55.0709 6.93938C54.4396 6.93938 53.8084 6.93938 53.158 6.93938C53.158 6.51429 53.158 6.51429 53.5831 6.30174C53.1518 5.74908 53.1518 5.74908 52.3078 6.0892C52.1675 5.7385 52.0272 5.3878 51.8827 5.02647C50.7103 4.65332 50.7103 4.65332 50.3949 5.02647C50.3352 6.44853 50.3352 6.44853 51.4576 7.15193C50.3949 7.15193 50.3949 7.15193 49.9698 6.51429C49.9698 5.73495 49.9698 4.95563 49.9698 4.17629C49.0229 3.75544 49.0229 3.75544 48.0569 3.3261C48.0569 3.25596 48.0569 3.18582 48.0569 3.11356Z" fill="#A95620"/>
<path d="M17.6628 63.9016C19.3632 64.7518 19.3632 64.7518 19.3632 65.1769C20.0646 65.3172 20.766 65.4575 21.4887 65.602C26.1647 66.8773 26.1647 66.8773 27.6525 67.3024C26.2945 68.3209 25.7587 68.6108 24.0392 68.3651C23.6184 68.0144 23.1975 67.6637 22.7639 67.3024C22.4132 67.7232 22.0625 68.1441 21.7012 68.5777C20.6385 69.2153 20.6385 69.2153 19.7883 69.0027C19.1507 68.3651 19.1507 68.3651 18.7256 66.2396C18.3749 65.8188 18.0242 65.398 17.6628 64.9644C17.6628 64.6137 17.6628 64.263 17.6628 63.9016Z" fill="#80E048"/>
<path d="M51.8827 42.0094C53.8817 42.7459 53.8817 42.7459 55.921 43.4972C56.3461 43.9223 56.3461 43.9223 56.3461 44.56C54.7159 45.6469 53.1809 44.5379 51.4576 43.9223C49.4167 43.242 47.3622 42.6005 45.2937 42.0094C45.1535 41.7289 45.0132 41.4483 44.8687 41.1592C47.6613 40.2283 49.1011 40.9662 51.8827 42.0094Z" fill="#F2C87E"/>
<path d="M10.2238 46.4729C11.2866 46.898 11.2866 46.898 11.4991 47.5356C11.3588 47.5356 11.2185 47.5356 11.074 47.5356C11.5913 51.9536 11.5913 51.9536 15.3249 53.912C19.4388 54.4727 19.4388 54.4727 21.4888 53.2744C22.3389 53.4869 22.3389 53.4869 22.5515 54.1246C17.753 56.3057 14.5451 55.6207 10.6489 52.2116C9.92052 50.2696 9.70436 48.5505 10.2238 46.4729Z" fill="#C21D28"/>
<path d="M42.7434 67.0898C42.533 67.16 42.3226 67.2301 42.1058 67.3024C42.5266 67.9337 42.9475 68.5649 43.3811 69.2153C43.4863 69.7414 43.4863 69.7414 43.5936 70.278C43.4533 70.278 43.3131 70.278 43.1685 70.278C43.1685 70.4183 43.1685 70.5586 43.1685 70.7031C41.2556 70.7031 41.2556 70.7031 39.7678 69.6404C38.5053 69.5703 37.2427 69.5001 35.942 69.4278C35.3107 69.2174 34.6794 69.007 34.0291 68.7902C34.8792 67.94 34.8792 67.94 38.0674 67.7275C38.5584 67.5872 39.0494 67.4469 39.5552 67.3024C41.6807 67.0898 41.6807 67.0898 42.7434 67.0898Z" fill="#30DF5F"/>
<path d="M9.37378 58.1629C10.6491 59.0131 10.6491 59.0131 11.7118 60.0758C11.9222 60.2161 12.1326 60.3564 12.3494 60.5009C12.3494 60.6412 12.3494 60.7815 12.3494 60.926C12.63 61.0663 12.9105 61.2066 13.1996 61.3511C14.1816 61.9824 15.1635 62.6136 16.1752 63.264C14.9688 64.4704 13.5454 64.5393 11.9243 64.5393C11.1332 63.3526 11.3806 62.0383 11.7118 60.7135C11.4312 60.6433 11.1507 60.5732 10.8616 60.5009C9.37378 59.509 9.37378 59.509 9.37378 58.1629Z" fill="#7DDA75"/>
<path d="M23.8269 72.4035C25.9524 72.4035 25.9524 72.4035 26.59 72.8286C26.59 72.9689 26.59 73.1092 26.59 73.2537C30.7901 73.8021 30.7901 73.8021 34.2417 72.6161C36.1971 72.6161 36.4664 73.2714 37.6424 74.7415C27.4402 74.0614 27.4402 74.0614 23.8269 72.6161C23.8269 72.5459 23.8269 72.4758 23.8269 72.4035Z" fill="#DA9358"/>
<path d="M52.5207 64.7518C52.5207 67.5149 52.5207 67.5149 51.6705 68.3651C50.6184 68.3651 49.5663 68.3651 48.4823 68.3651C48.4122 67.5234 48.342 66.6817 48.2698 65.8146C51.458 64.7518 51.458 64.7518 52.5207 64.7518Z" fill="#78D95A"/>
<path d="M54.4336 50.9364C54.4336 52.4829 54.1224 53.0049 52.7332 53.6995C48.4823 53.6995 48.4823 53.6995 47.207 53.2744C47.207 52.8493 47.207 52.8493 48.2698 52.4242C48.4802 52.4242 48.6906 52.4242 48.9074 52.4242C48.9775 52.2839 49.0477 52.1436 49.1199 51.9991C49.8564 51.8939 49.8564 51.8939 50.6078 51.7866C53.3709 50.9364 53.3709 50.9364 54.4336 50.9364Z" fill="#F46763"/>
<path d="M5.97322 28.4065C6.04336 28.5468 6.1135 28.6871 6.18576 28.8316C6.32604 28.8316 6.46632 28.8316 6.61085 28.8316C6.61085 33.7201 6.61085 33.7201 6.18576 36.0581C5.23887 36.1634 5.23887 36.1634 4.27285 36.2707C4.20271 35.5693 4.13257 34.8679 4.0603 34.1452C4.27072 34.1452 4.48114 34.1452 4.69794 34.1452C4.76808 33.4438 4.83822 32.7424 4.91049 32.0198C5.76067 28.619 5.76067 28.619 5.97322 28.4065Z" fill="#F7EAAB"/>
<path d="M13.4121 48.3858C14.8851 49.0171 16.358 49.6483 17.8756 50.2987C17.8054 50.439 17.7353 50.5793 17.663 50.7238C18.0137 50.9342 18.3644 51.1446 18.7258 51.3614C18.0881 52.4242 18.0881 52.4242 15.7501 52.4242C13.4121 50.6707 13.4121 50.6707 13.4121 48.3858Z" fill="#DB4B52"/>
<path d="M59.1095 47.9607C59.1095 51.3013 58.6811 53.3823 55.4963 54.9747C55.1456 54.9747 54.7949 54.9747 54.4335 54.9747C54.4335 54.7643 54.4335 54.5539 54.4335 54.3371C54.2231 54.267 54.0127 54.1968 53.7959 54.1246C54.2869 53.9141 54.7779 53.7037 55.2837 53.4869C57.6893 51.9834 57.5813 50.9665 58.0468 48.1733C58.2594 47.9607 58.2594 47.9607 59.1095 47.9607Z" fill="#C12023"/>
<path d="M59.9596 61.9888C61.4474 62.2013 61.4474 62.2013 62.2976 62.839C62.8587 62.9091 63.4198 62.9792 63.9979 63.0515C63.9278 63.1918 63.8577 63.3321 63.7854 63.4766C63.2944 63.4065 62.8034 63.3363 62.2976 63.264C62.2976 64.1057 62.2976 64.9474 62.2976 65.8146C62.1573 66.025 62.017 66.2354 61.8725 66.4522C61.8725 66.2418 61.8725 66.0314 61.8725 65.8146C61.7322 65.8847 61.5919 65.9549 61.4474 66.0271C61.0265 66.0271 60.6057 66.0271 60.1721 66.0271C59.577 62.7539 59.577 62.7539 59.9596 61.9888Z" fill="#14CD77"/>
<path d="M10.224 46.4729C11.2868 46.898 11.2868 46.898 11.4993 47.5356C11.359 47.5356 11.2187 47.5356 11.0742 47.5356C11.4005 51.3121 11.4005 51.3121 14.0498 53.4869C14.0498 53.8376 14.0498 54.1883 14.0498 54.5496C11.8587 53.8193 10.8041 52.6248 10.0115 50.5113C10.0115 47.3231 10.0115 47.3231 10.224 46.4729Z" fill="#C93337"/>
<path d="M48.0569 3.11356C51.0976 3.4514 53.4203 5.0596 55.9211 6.72684C55.7107 6.83205 55.7107 6.83205 55.496 6.93938C55.496 7.43036 55.496 7.92134 55.496 8.4272C55.2856 8.53241 55.2856 8.53241 55.0709 8.63975C54.9657 8.95538 54.9657 8.95538 54.8584 9.27739C54.9986 9.27739 55.1389 9.27739 55.2834 9.27739C55.1782 9.59302 55.1782 9.59302 55.0709 9.91502C53.7848 9.14336 53.0351 8.66281 52.7329 7.15193C52.9433 7.43249 53.1537 7.71305 53.3705 8.00211C54.5349 8.09716 54.5349 8.09716 55.0709 7.78957C55.0709 7.50901 55.0709 7.22844 55.0709 6.93938C54.4396 6.93938 53.8084 6.93938 53.158 6.93938C53.158 6.51429 53.158 6.51429 53.5831 6.30174C53.1518 5.74908 53.1518 5.74908 52.3078 6.0892C52.1675 5.7385 52.0272 5.3878 51.8827 5.02647C50.7103 4.65332 50.7103 4.65332 50.3949 5.02647C50.3352 6.44853 50.3352 6.44853 51.4576 7.15193C50.3949 7.15193 50.3949 7.15193 49.9698 6.51429C49.9698 5.73495 49.9698 4.95563 49.9698 4.17629C49.0229 3.75544 49.0229 3.75544 48.0569 3.3261C48.0569 3.25596 48.0569 3.18582 48.0569 3.11356Z" fill="#C07739"/>
<path d="M8.94856 56.8876C9.37365 57.5253 9.37365 57.5253 9.5862 59.4382C10.8761 60.4697 10.8761 60.4697 11.7117 60.7135C11.6415 60.994 11.5714 61.2746 11.4991 61.5636C11.4991 61.3532 11.4991 61.1428 11.4991 60.926C10.2366 60.926 8.97406 60.926 7.67328 60.926C7.46286 60.8559 7.25244 60.7857 7.03564 60.7135C7.03564 59.0131 7.03564 59.0131 7.46074 58.1629C8.19721 58.0577 8.19721 58.0577 8.94856 57.9504C8.94856 57.5997 8.94856 57.249 8.94856 56.8876Z" fill="#48CB1F"/>
<path d="M62.085 35.6331C62.1551 35.6331 62.2252 35.6331 62.2975 35.6331C62.2975 35.9838 62.2975 36.3345 62.2975 36.6958C62.4378 36.6958 62.5781 36.6958 62.7226 36.6958C62.7226 38.2389 62.7226 39.782 62.7226 41.3718C63.0733 41.2315 63.424 41.0912 63.7853 40.9467C63.7853 41.578 63.7853 42.2092 63.7853 42.8596C63.2943 42.9999 62.8034 43.1402 62.2975 43.2847C62.2975 46.1605 62.2975 49.0362 62.2975 51.9991C62.2274 51.9991 62.1572 51.9991 62.085 51.9991C62.085 46.5983 62.085 41.1975 62.085 35.6331Z" fill="#388E29"/>
<path d="M22.9766 54.3371C22.7641 55.1873 22.7641 55.1873 20.6386 56.25C19.0956 56.25 17.5525 56.25 15.9626 56.25C15.9626 56.1097 15.9626 55.9695 15.9626 55.8249C15.4366 55.6145 15.4366 55.6145 14.8999 55.3998C16.3801 54.9065 18.0156 55.1873 19.5759 55.1873C21.9505 54.1318 21.9505 54.1318 22.9766 54.3371Z" fill="#890809"/>
<path d="M5.5479 19.0545C5.75832 19.0545 5.96874 19.0545 6.18554 19.0545C6.25568 19.9663 6.32582 20.8781 6.39809 21.8176C6.46823 21.8877 6.53837 21.9579 6.61063 22.0301C6.39809 27.7689 6.39809 27.7689 5.973 28.4065C4.57742 25.6153 5.5479 22.1751 5.5479 19.0545Z" fill="#D68E5A"/>
<path d="M48.4823 66.2397C48.5525 66.8709 48.6226 67.5022 48.6949 68.1526C48.765 68.2928 48.8351 68.4331 48.9074 68.5777C47.203 68.5777 45.5046 68.5734 44.6565 66.8773C47.0961 65.9625 47.0961 65.9625 48.4823 66.2397Z" fill="#2BD25E"/>
<path d="M42.7434 67.0898C42.5329 67.16 42.3225 67.2301 42.1057 67.3024C42.5266 67.9337 42.9474 68.5649 43.381 69.2153C43.4511 69.566 43.5213 69.9167 43.5935 70.278C41.8932 70.0655 41.8932 70.0655 40.6179 69.6404C40.4776 68.939 40.3373 68.2376 40.1928 67.5149C39.9824 67.4448 39.772 67.3747 39.5552 67.3024C41.6806 67.0898 41.6806 67.0898 42.7434 67.0898Z" fill="#4FBF1D"/>
<path d="M55.7088 15.8663C56.262 16.4196 55.9213 17.4217 55.9213 18.2043C55.4962 18.4169 55.4962 18.4169 53.5833 18.4169C53.1582 17.9918 53.1582 17.9918 53.1582 16.7165C54.2209 15.6538 54.2209 15.6538 55.7088 15.8663Z" fill="#F2EBEB"/>
<path d="M17.8755 11.4028C18.3006 11.8279 18.3006 11.8279 18.3006 13.1032C17.663 13.5283 17.663 13.5283 15.5375 13.5283C14.8999 12.8906 14.8999 12.8906 14.8999 11.6153C15.603 10.9122 16.881 11.4028 17.8755 11.4028Z" fill="#F4EDF0"/>
<path d="M30.4158 67.515C33.1512 67.515 35.8867 67.515 38.7051 67.515C37.0502 68.6181 34.7426 67.94 32.7538 67.94C32.6836 68.2907 32.6135 68.6414 32.5412 69.0028C32.3287 69.6404 32.3287 69.6404 31.0534 69.853C30.7378 68.6956 30.7378 68.6956 30.4158 67.515Z" fill="#45B92F"/>
<path d="M20.2138 65.602C22.3392 65.8145 22.3392 65.8145 22.9769 66.2396C22.8366 66.2396 22.6963 66.2396 22.5518 66.2396C22.4115 66.5903 22.2712 66.941 22.1267 67.3024C21.0639 68.3651 21.0639 68.3651 20.0012 68.3651C19.1719 67.5357 19.8344 66.5504 20.2138 65.602Z" fill="#4DC71E"/>
<path d="M11.2866 52.8493C12.1368 53.2744 12.1368 53.2744 13.1995 54.1246C14.5673 54.9663 14.5673 54.9663 15.9626 55.8249C15.9626 55.9652 15.9626 56.1055 15.9626 56.25C17.0849 56.25 18.2071 56.25 19.3634 56.25C19.3634 56.3202 19.3634 56.3903 19.3634 56.4626C14.8999 56.4626 14.8999 56.4626 13.4121 55.6124C13.4121 55.4721 13.4121 55.3318 13.4121 55.1873C12.7808 55.0821 12.7808 55.0821 12.1368 54.9748C11.4992 54.5497 11.4992 54.5497 11.2866 52.8493Z" fill="#901818"/>
<path d="M25.9522 21.8176C26.4432 21.8877 26.9342 21.9578 27.4401 22.0301C27.4401 22.8803 27.4401 22.8803 27.015 23.0928C26.524 23.0928 26.033 23.0928 25.5272 23.0928C25.457 23.4435 25.3869 23.7942 25.3146 24.1556C25.1021 24.3681 25.1021 24.3681 23.1892 24.3681C22.9787 24.2278 22.7683 24.0876 22.5515 23.943C22.7641 23.0928 22.7641 23.0928 23.1892 22.8803C23.9607 22.8803 24.7322 22.8803 25.5272 22.8803C25.6674 22.5296 25.8077 22.1789 25.9522 21.8176Z" fill="#F4EAE4"/>
<path d="M6.39795 39.0338C6.46809 39.0338 6.53823 39.0338 6.6105 39.0338C7.5457 41.8394 7.5457 41.8394 7.03559 42.8596C6.72973 45.7201 6.72973 45.7201 7.24813 48.3858C7.24813 49.7185 7.24813 51.0512 7.24813 52.4242C7.03771 52.4242 6.82729 52.4242 6.6105 52.4242C6.54035 48.0054 6.47021 43.5865 6.39795 39.0338Z" fill="#814E38"/>
<path d="M28.0776 67.515C30.4156 67.515 30.4156 67.515 31.0533 68.7902C31.0533 69.1409 31.0533 69.4916 31.0533 69.853C32.4644 69.8219 32.4644 69.8219 32.5411 68.5777C32.6112 68.3673 32.6814 68.1568 32.7536 67.94C32.9641 67.94 33.1745 67.94 33.3913 67.94C32.9662 69.853 32.9662 69.853 32.116 70.4906C31.0533 70.4906 31.0533 70.4906 29.778 68.5777C29.2169 68.4374 28.6558 68.2971 28.0776 68.1526C28.0776 67.9422 28.0776 67.7318 28.0776 67.515Z" fill="#8DDF79"/>
<path d="M51.2454 13.7408C51.2454 13.8811 51.2454 14.0214 51.2454 14.1659C50.544 14.2361 49.8426 14.3062 49.12 14.3785C48.9797 14.7993 48.8394 15.2202 48.6949 15.6538C48.9754 15.5836 49.256 15.5135 49.5451 15.4412C50.1062 15.4412 50.6673 15.4412 51.2454 15.4412C50.8203 16.0788 50.8203 16.0788 49.7576 16.2914C49.7576 16.6421 49.7576 16.9928 49.7576 17.3541C49.4069 17.0034 49.0562 16.6527 48.6949 16.2914C48.1337 16.2213 47.5726 16.1511 46.9945 16.0788C46.8693 17.1165 46.8693 17.1165 47.4196 17.5667C47.9807 17.6368 48.5418 17.707 49.12 17.7792C49.12 17.8494 49.12 17.9195 49.12 17.9918C48.3484 17.9918 47.5769 17.9918 46.782 17.9918C46.3569 16.7165 46.3569 16.7165 46.782 15.8663C47.5184 15.7611 47.5184 15.7611 48.2698 15.6538C48.2698 15.3031 48.2698 14.9524 48.2698 14.591C49.3325 13.7408 49.3325 13.7408 51.2454 13.7408Z" fill="#CC8953"/>
<path d="M11.7116 14.8035C11.9242 15.0161 11.9242 15.0161 11.9242 16.7165C11.074 17.3541 11.074 17.3541 9.79873 17.3541C9.58618 17.1416 9.58618 17.1416 9.58618 15.8663C10.1975 14.6437 10.3482 14.5308 11.7116 14.8035Z" fill="#F7EDE9"/>
<path d="M16.8129 5.23899C16.7428 5.51955 16.6727 5.80011 16.6004 6.08917C17.1264 6.29959 17.1264 6.29959 17.6631 6.51427C17.6631 6.86497 17.6631 7.21567 17.6631 7.57699C16.3879 7.57699 16.3879 7.57699 15.1126 6.72681C14.6917 6.93723 14.6917 6.93723 14.2624 7.1519C14.052 7.08176 13.8416 7.01162 13.6248 6.93936C15.6227 4.94143 15.6227 4.94143 16.8129 5.23899Z" fill="#EAB07C"/>
<path d="M34.6665 3.96371C35.5167 4.60135 35.5167 4.60135 35.5167 5.66408C34.2773 6.07718 33.5695 6.01032 32.541 5.23899C32.541 3.46608 32.5595 3.96371 34.6665 3.96371Z" fill="#F2EAEA"/>
<path d="M23.8269 72.4035C25.9524 72.4035 25.9524 72.4035 26.59 72.8286C26.59 72.9689 26.59 73.1092 26.59 73.2537C28.3435 73.2537 30.097 73.2537 31.9036 73.2537C32.0089 73.5693 32.0089 73.5693 32.1162 73.8914C29.1582 74.1379 26.5881 73.7995 23.8269 72.6161C23.8269 72.5459 23.8269 72.4758 23.8269 72.4035Z" fill="#D19153"/>
<path d="M24.677 14.8036C26.1648 14.8036 26.1648 14.8036 27.2276 15.6537C27.2276 16.0746 27.2276 16.4954 27.2276 16.929C25.9523 17.1416 25.9523 17.1416 24.677 16.0788C24.677 15.658 24.677 15.2372 24.677 14.8036Z" fill="#F7EFEB"/>
<path d="M12.3494 61.1385C13.8372 61.7762 13.8372 61.7762 14.6874 62.4138C14.4749 63.0515 14.4749 63.0515 13.1996 63.6891C12.1369 63.6891 12.1369 63.6891 11.9243 63.4766C11.9243 61.9887 11.9243 61.9887 12.3494 61.1385Z" fill="#49CB10"/>
<path d="M46.9942 25.856C47.2068 27.3438 47.2068 27.3438 46.5691 28.194C45.2938 28.194 45.2938 28.194 45.0813 27.7689C45.0813 25.5826 45.0813 25.5826 46.9942 25.856Z" fill="#F4EBE5"/>
<path d="M39.5552 9.4899C41.4681 9.70244 41.4681 9.70244 42.7434 10.7652C42.7434 11.0457 42.7434 11.3263 42.7434 11.6154C40.6179 11.4028 40.6179 11.4028 39.5552 10.5526C39.5552 10.2019 39.5552 9.85123 39.5552 9.4899Z" fill="#F6EFED"/>
<path d="M17.663 68.1526C18.0881 69.6404 18.0881 69.6404 17.8755 70.278C16.8128 70.0655 16.8128 70.0655 14.8999 69.0028C15.3552 67.6367 16.0411 68.1526 17.663 68.1526Z" fill="#D89B5B"/>
<path d="M6.61062 51.7865C7.46081 53.2743 7.46081 53.2743 7.46081 54.337C6.18553 54.337 6.18553 54.337 5.1228 53.4869C5.1228 52.0069 5.15128 51.7865 6.61062 51.7865Z" fill="#78D062"/>
<path d="M57.8342 19.4796C58.0467 19.6921 58.0467 19.6921 58.0467 20.9674C57.6217 21.605 57.6217 21.605 55.7087 21.3925C55.7087 19.8173 56.238 19.1603 57.8342 19.4796Z" fill="#F0E5E0"/>
<path d="M26.3774 3.75114C26.3774 4.81387 26.3774 4.81387 25.3146 5.66406C24.7535 5.7342 24.1924 5.80434 23.6143 5.8766C23.6143 4.00535 24.6449 3.4624 26.3774 3.75114Z" fill="#F7ECE4"/>
<path d="M23.6144 9.06482C23.4018 10.5526 23.4018 10.5526 22.5516 11.4028C21.9204 11.2976 21.9204 11.2976 21.2764 11.1903C21.2764 9.13279 21.6028 9.06482 23.6144 9.06482Z" fill="#F7F0E9"/>
<path d="M31.0533 72.616C32.1054 72.616 33.1575 72.616 34.2415 72.616C32.8219 74.7455 29.1493 73.2537 26.5898 73.2537C26.5898 73.1134 26.5898 72.9731 26.5898 72.8286C28.5028 72.4035 28.5028 72.4035 31.0533 72.616Z" fill="#1CCA61"/>
<path d="M5.54812 41.5843C5.89882 41.5843 6.24953 41.5843 6.61085 41.5843C6.61085 44.0392 6.61085 46.4941 6.61085 49.0234C6.47057 48.8831 6.33029 48.7429 6.18576 48.5983C5.48436 48.5983 4.78296 48.5983 4.0603 48.5983C4.0603 48.1732 4.0603 48.1732 4.48539 47.9607C5.11666 47.9607 5.74792 47.9607 6.39831 47.9607C6.32817 47.5399 6.25803 47.119 6.18576 46.6854C6.18576 45.1423 6.18576 43.5993 6.18576 42.0094C5.97534 41.9393 5.76492 41.8691 5.54812 41.7969C5.54812 41.7267 5.54812 41.6566 5.54812 41.5843Z" fill="#69B95B"/>
<path d="M59.1095 11.1903C59.7471 12.4655 59.7471 12.4655 59.7471 13.7408C58.2593 13.7408 58.2593 13.7408 57.8342 12.8906C57.8342 10.8715 57.8342 10.8715 59.1095 11.1903Z" fill="#F2E7E4"/>
<path d="M34.0291 13.7408C35.5169 13.7408 35.5169 13.7408 36.3671 14.3785C36.3671 15.6538 36.3671 15.6538 36.1545 15.8663C34.8792 15.8663 34.8792 15.8663 34.2416 15.2287C34.1715 14.7377 34.1013 14.2467 34.0291 13.7408Z" fill="#F5ECED"/>
<path d="M17.6628 63.9016C19.3632 64.7518 19.3632 64.7518 19.3632 65.1769C19.9945 65.2821 19.9945 65.2821 20.6385 65.3895C20.4281 65.4947 20.4281 65.4947 20.2134 65.602C20.003 66.3034 19.7926 67.0048 19.5758 67.7275C19.1507 67.3024 19.1507 67.3024 18.3005 65.602C18.0901 65.3916 17.8796 65.1812 17.6628 64.9644C17.6628 64.6137 17.6628 64.263 17.6628 63.9016Z" fill="#91D135"/>
<path d="M32.7537 6.72681C33.1788 7.1519 33.1788 7.1519 32.9662 9.06481C32.1161 9.27736 32.1161 9.27736 31.2659 8.63972C31.2659 6.72681 31.2659 6.72681 32.7537 6.72681Z" fill="#F5E8E1"/>
<path d="M56.559 48.8109C56.9798 48.8109 57.4007 48.8109 57.8343 48.8109C57.8343 51.946 57.8343 51.946 56.3464 53.0618C56.559 50.2987 56.559 50.2987 56.7715 49.236C56.7014 49.0957 56.6312 48.9554 56.559 48.8109Z" fill="#EB4B4C"/>
<path d="M36.5796 17.1415C36.7921 17.3541 36.7921 17.3541 36.7921 18.4168C35.8208 19.0644 35.0004 19.0644 34.0291 18.4168C34.4393 16.776 34.6771 17.1415 36.5796 17.1415Z" fill="#F2E9E6"/>
<path d="M54.4333 68.5776C54.1177 70.1558 53.2373 71.2878 51.8828 72.1909C51.1814 72.1208 50.48 72.0506 49.7573 71.9784C49.7573 71.768 49.7573 71.5575 49.7573 71.3407C50.3184 71.3407 50.8796 71.3407 51.4577 71.3407C52.8756 70.5218 52.8756 70.5218 53.7957 68.7902C54.0082 68.5776 54.0082 68.5776 54.4333 68.5776Z" fill="#0DC163"/>
<path d="M28.7154 9.48988C29.1405 10.1275 29.1405 10.1275 29.1405 11.6153C27.8652 11.8279 27.8652 11.8279 27.2275 10.9777C27.2275 9.2419 27.2275 9.2419 28.7154 9.48988Z" fill="#F6E8DF"/>
<path d="M43.5938 3.75116C45.0816 3.96371 45.0816 3.96371 45.7192 4.60134C45.7192 5.09232 45.7192 5.58331 45.7192 6.08916C44.4439 6.08916 44.4439 6.08916 43.5938 5.23898C43.5938 4.748 43.5938 4.25702 43.5938 3.75116Z" fill="#F7F1EF"/>
<path d="M51.6703 66.8773C51.6703 67.228 51.6703 67.5787 51.6703 67.94C50.395 67.7275 50.395 67.7275 49.3323 66.4522C49.3323 66.2418 49.3323 66.0314 49.3323 65.8146C49.192 65.7444 49.0518 65.6743 48.9072 65.602C50.4726 65.2107 50.5991 65.5918 51.6703 66.8773Z" fill="#56CC25"/>
<path d="M21.7014 53.0618C20.4405 54.3226 19.9028 54.3371 18.0881 54.3371C18.0881 54.1968 18.0881 54.0565 18.0881 53.912C17.8777 53.7016 17.6672 53.4912 17.4504 53.2744C20.8512 52.6367 20.8512 52.6367 21.7014 53.0618Z" fill="#F9524E"/>
<path d="M44.4437 14.3784C44.4437 15.6537 44.4437 15.6537 44.0186 16.2914C43.4575 16.2914 42.8964 16.2914 42.3183 16.2914C41.9839 14.619 42.8494 14.0596 44.4437 14.3784Z" fill="#F7F2F0"/>
<path d="M45.0815 8.63974C45.5066 9.06483 45.5066 9.06483 45.294 10.3401C44.2101 11.4241 43.1807 10.8551 41.8933 10.3401C41.8933 10.1998 41.8933 10.0595 41.8933 9.91502C42.0336 9.91502 42.1739 9.91502 42.3184 9.91502C42.3885 9.77474 42.4587 9.63445 42.5309 9.48992C42.6712 9.6302 42.8115 9.77048 42.956 9.91502C43.5873 9.98516 44.2186 10.0553 44.869 10.1276C44.869 9.77686 44.869 9.42616 44.869 9.06483C44.2377 9.06483 43.6064 9.06483 42.956 9.06483C43.1686 8.63974 43.1686 8.63974 45.0815 8.63974Z" fill="#D38B52"/>
<path d="M34.029 24.7932C34.5822 25.3465 34.2415 26.3486 34.2415 27.1312C32.7537 26.9187 32.7537 26.9187 32.3286 26.281C32.5767 24.7932 32.5767 24.7932 34.029 24.7932Z" fill="#F4EBE7"/>
<path d="M42.7433 22.4552C42.7433 23.7305 42.7433 23.7305 41.8931 24.3681C40.6178 24.3681 40.6178 24.3681 40.4053 24.1556C40.4053 22.3912 41.0948 22.4552 42.7433 22.4552Z" fill="#F7F0EC"/>
<path d="M46.9943 16.0788C48.6947 16.0788 48.6947 16.0788 49.3323 16.5039C49.3323 17.5666 49.3323 17.5666 48.9072 17.7792C47.4194 17.7792 47.4194 17.7792 46.7817 17.1416C46.8519 16.7909 46.922 16.4402 46.9943 16.0788Z" fill="#F3EDEA"/>
<path d="M48.0571 69.8529C48.1974 69.8529 48.3376 69.8529 48.4822 69.8529C48.4822 72.2251 47.7901 72.4519 45.9316 74.1038C45.294 74.3164 45.294 74.3164 43.8062 74.3164C44.2312 73.8913 44.2312 73.8913 46.3567 72.8285C46.7775 72.3376 47.1984 71.8466 47.632 71.3407C47.7723 71.3407 47.9125 71.3407 48.0571 71.3407C48.0571 70.8497 48.0571 70.3588 48.0571 69.8529Z" fill="#0ECB60"/>
<path d="M9.37378 58.1629C10.6491 59.0131 10.6491 59.0131 11.7118 60.0758C11.9222 60.2161 12.1326 60.3564 12.3494 60.5009C12.3494 60.6412 12.3494 60.7815 12.3494 60.926C12.5598 60.9961 12.7703 61.0663 12.9871 61.1385C12.1369 61.9887 12.1369 61.9887 11.4992 61.7762C11.5694 61.4255 11.6395 61.0748 11.7118 60.7135C11.4312 60.6433 11.1507 60.5732 10.8616 60.5009C9.37378 59.509 9.37378 59.509 9.37378 58.1629Z" fill="#85CA36"/>
<path d="M14.2622 17.9917C14.2622 19.267 14.2622 19.267 13.6246 19.9046C13.1336 19.9046 12.6426 19.9046 12.1367 19.9046C11.7882 18.1622 12.6819 17.9917 14.2622 17.9917Z" fill="#F8EFE7"/>
<path d="M53.1582 12.6781C53.7959 13.3157 53.7959 13.3157 53.7959 14.591C52.5206 14.591 52.5206 14.591 51.6704 13.7408C51.6704 12.4301 51.6704 12.4301 53.1582 12.6781Z" fill="#F5E9E6"/>
<path d="M22.339 2.68845C22.1264 3.53863 22.1264 3.53863 20.8511 4.38881C19.5759 4.38881 19.5759 4.38881 18.9382 3.53863C21.0637 2.68845 21.0637 2.68845 22.339 2.68845Z" fill="#F4C38B"/>
<path d="M48.2698 65.8145C49.3325 65.8145 49.3325 65.8145 49.9701 67.0898C50.1104 67.2301 50.2507 67.3704 50.3952 67.5149C50.3952 67.7955 50.3952 68.076 50.3952 68.3651C49.764 68.3651 49.1327 68.3651 48.4823 68.3651C48.4122 67.5234 48.342 66.6817 48.2698 65.8145Z" fill="#90D46B"/>
<path d="M30.8411 22.2427C33.1791 22.2427 33.1791 22.2427 33.8167 22.4552C33.7466 22.8059 33.6764 23.1566 33.6042 23.518C31.2662 23.518 31.2662 23.518 30.8411 23.3054C30.8411 22.9547 30.8411 22.604 30.8411 22.2427Z" fill="#F6EDED"/>
<path d="M18.7256 16.5039C19.4971 16.5039 20.2687 16.5039 21.0636 16.5039C21.2761 17.5667 21.2761 17.5667 20.851 17.9918C19.1507 17.9918 19.1507 17.9918 18.7256 17.7792C18.7256 17.3584 18.7256 16.9375 18.7256 16.5039Z" fill="#F5EEEB"/>
<path d="M50.1825 9.91498C51.8829 9.91498 51.8829 9.91498 52.5205 10.3401C52.5205 10.6908 52.5205 11.0415 52.5205 11.4028C51.0327 11.6153 51.0327 11.6153 49.97 10.7652C50.0401 10.4846 50.1103 10.204 50.1825 9.91498Z" fill="#F5E8E3"/>
<path d="M6.82303 58.3755C6.82303 59.4382 6.82303 59.4382 6.39793 60.0758C6.25765 60.0758 6.11737 60.0758 5.97284 60.0758C5.97284 61.2682 5.97284 62.4606 5.97284 63.6891C5.76242 63.6891 5.552 63.6891 5.33521 63.6891C5.33521 58.3755 5.33521 58.3755 6.82303 58.3755Z" fill="#2AD749"/>
<path d="M17.4504 50.5112C20.8512 50.9363 20.8512 50.9363 21.7014 51.7865C21.7014 52.1372 21.7014 52.4879 21.7014 52.8492C20.8512 52.6367 20.8512 52.6367 19.1508 51.574C18.5897 51.2934 18.0286 51.0128 17.4504 50.7238C17.4504 50.6536 17.4504 50.5835 17.4504 50.5112Z" fill="#EAC69A"/>
<path d="M51.883 4.8139C52.0955 5.02644 52.0955 5.02644 52.0955 6.51426C51.883 6.72681 51.883 6.72681 50.6077 6.72681C50.1826 6.08917 50.1826 6.08917 50.1826 5.02644C50.6077 4.60135 50.6077 4.60135 51.883 4.8139Z" fill="#F3E9E3"/>
<path d="M62.9353 27.9814C63.7855 28.619 63.7855 28.619 63.9981 31.3821C63.7877 31.5925 63.5772 31.803 63.3604 32.0198C63.1479 31.8072 63.1479 31.8072 63.1479 30.1068C62.9375 30.1068 62.7271 30.1068 62.5103 30.1068C62.7228 28.619 62.7228 28.619 62.9353 27.9814Z" fill="#DBA85D"/>
<path d="M44.8687 20.7548C46.1439 20.7548 46.1439 20.7548 46.9941 21.605C46.9941 21.9557 46.9941 22.3064 46.9941 22.6677C45.7188 22.6677 45.7188 22.6677 44.8687 22.0301C44.8687 21.6093 44.8687 21.1884 44.8687 20.7548Z" fill="#F7EFEC"/>
<path d="M32.1161 20.5423C32.7538 21.1799 32.7538 21.1799 32.7538 21.8176C31.842 21.8176 30.9301 21.8176 29.9907 21.8176C29.6223 19.9757 29.8744 20.5423 32.1161 20.5423Z" fill="#F8F1EE"/>
<path d="M19.576 20.1172C19.576 21.1799 19.576 21.1799 18.9383 21.605C18.3772 21.605 17.8161 21.605 17.238 21.605C16.8488 19.6594 17.5238 20.1172 19.576 20.1172Z" fill="#F8F0E9"/>
<path d="M51.4578 20.9674C53.5833 20.9674 53.5833 20.9674 54.2209 21.605C54.0084 22.4552 54.0084 22.4552 53.1582 23.0928C51.4578 23.0928 51.4578 23.0928 51.0327 22.8803C51.0327 22.6699 51.0327 22.4594 51.0327 22.2427C51.8043 22.3128 52.5758 22.3829 53.3707 22.4552C53.3707 22.1746 53.3707 21.8941 53.3707 21.605C52.4238 21.3946 52.4238 21.3946 51.4578 21.1799C51.4578 21.1098 51.4578 21.0396 51.4578 20.9674Z" fill="#C77D4B"/>
<path d="M39.3426 6.30173C39.5551 7.36446 39.5551 7.36446 38.9175 8.21464C38.4265 8.21464 37.9355 8.21464 37.4297 8.21464C37.4297 6.57226 37.7107 6.30173 39.3426 6.30173Z" fill="#F7EDE7"/>
<path d="M10.2236 46.4729C11.2864 46.898 11.2864 46.898 11.4989 47.5356C11.3586 47.5356 11.2183 47.5356 11.0738 47.5356C11.144 48.5176 11.2141 49.4996 11.2864 50.5113C10.2236 49.8736 10.2236 49.8736 10.2236 46.4729Z" fill="#D04543"/>
<path d="M11.4989 9.91498C11.8496 9.98512 12.2003 10.0553 12.5616 10.1275C12.3491 11.6153 12.3491 11.6153 11.924 11.8279C11.3629 11.8279 10.8018 11.8279 10.2236 11.8279C10.2236 10.7652 10.2236 10.7652 11.2864 10.3401C11.3565 10.1998 11.4266 10.0595 11.4989 9.91498Z" fill="#F8EFE6"/>
<path d="M48.6949 69.4279C49.7576 69.4279 49.7576 69.4279 49.9701 69.8529C49.9701 71.3408 49.9701 71.3408 49.7576 71.7659C49.2666 71.6957 48.7756 71.6256 48.2698 71.5533C48.4101 70.8519 48.5503 70.1505 48.6949 69.4279Z" fill="#8FCF1A"/>
<path d="M16.3879 24.5807C17.8758 24.7932 17.8758 24.7932 18.0883 25.0057C18.0883 25.4967 18.0883 25.9877 18.0883 26.4936C17.0256 26.7061 17.0256 26.7061 16.3879 26.0685C16.3879 25.5775 16.3879 25.0865 16.3879 24.5807Z" fill="#F9EEE8"/>
<path d="M39.7678 67.7275C39.9081 67.7275 40.0484 67.7275 40.1929 67.7275C40.3332 68.3588 40.4735 68.99 40.618 69.6404C41.8805 69.9561 41.8805 69.9561 43.1686 70.2781C43.1686 70.4183 43.1686 70.5586 43.1686 70.7032C41.2556 70.7032 41.2556 70.7032 39.7678 69.6404C39.7678 69.0092 39.7678 68.3779 39.7678 67.7275Z" fill="#7CE075"/>
<path d="M7.46068 58.1629C7.3204 59.0046 7.18012 59.8463 7.03559 60.7135C7.38629 60.7836 7.73699 60.8537 8.09832 60.926C8.52341 61.3511 8.52341 61.3511 8.52341 62.4138C7.08235 61.8374 6.39795 61.254 6.39795 59.6507C7.03559 58.1629 7.03559 58.1629 7.46068 58.1629Z" fill="#59DC5A"/>
<path d="M54.0084 24.5807C54.7098 24.5807 55.4112 24.5807 56.1339 24.5807C56.1339 25.6434 56.1339 25.6434 55.4963 26.0685C54.221 26.0685 54.221 26.0685 53.7959 25.6434C53.866 25.2927 53.9362 24.942 54.0084 24.5807Z" fill="#F2EAE5"/>
<path d="M51.2451 14.1659C51.2451 14.5166 51.2451 14.8673 51.2451 15.2286C49.5448 15.6537 49.5448 15.6537 48.6946 15.6537C48.6946 13.7094 49.1294 14.1659 51.2451 14.1659Z" fill="#F3E9E4"/>
<path d="M48.0569 3.11356C50.9826 3.43862 50.9826 3.43862 51.6702 4.81392C51.3195 4.81392 50.9688 4.81392 50.6074 4.81392C50.0742 5.34716 50.4019 6.11056 50.6074 6.72684C50.888 6.86712 51.1686 7.0074 51.4576 7.15193C50.3949 7.15193 50.3949 7.15193 49.9698 6.51429C49.9698 5.73495 49.9698 4.95563 49.9698 4.17629C49.0229 3.75544 49.0229 3.75544 48.0569 3.3261C48.0569 3.25596 48.0569 3.18582 48.0569 3.11356Z" fill="#C57F42"/>
<path d="M40.4054 2.26331C40.4756 2.54387 40.5457 2.82443 40.618 3.11349C39.7678 3.53858 39.7678 3.53858 38.0674 3.53858C37.6842 1.62239 38.0098 2.26331 40.4054 2.26331Z" fill="#F5EBE3"/>
<path d="M22.5516 66.2397C22.762 66.3098 22.9725 66.38 23.1893 66.4522C22.4411 67.699 21.8942 68.4621 20.6387 69.2153C19.7885 69.0028 19.7885 69.0028 19.1509 68.3651C19.1509 68.0144 19.1509 67.6637 19.1509 67.3024C19.4314 67.583 19.712 67.8635 20.0011 68.1526C21.687 68.1052 21.687 68.1052 22.5516 66.2397Z" fill="#83E87A"/>
<path d="M48.057 25.2183C49.9699 25.2183 49.9699 25.2183 50.395 25.4308C50.395 25.7815 50.395 26.1322 50.395 26.4936C48.2696 26.4936 48.2696 26.4936 47.8445 26.281C47.9146 25.9303 47.9848 25.5796 48.057 25.2183Z" fill="#F2E5DF"/>
<path d="M11.9242 8.63973C11.2865 10.5526 11.2865 10.5526 10.2238 10.9777C10.0134 10.9777 9.80298 10.9777 9.58618 10.9777C9.83125 9.75198 10.3864 8.12711 11.9242 8.63973Z" fill="#E3A86A"/>
<path d="M56.1339 53.0618C56.204 53.2021 56.2742 53.3424 56.3464 53.4869C56.4867 53.4869 56.627 53.4869 56.7715 53.4869C56.559 54.3371 56.559 54.3371 55.4963 54.9747C55.1456 54.9747 54.7949 54.9747 54.4335 54.9747C54.4335 54.7643 54.4335 54.5539 54.4335 54.3371C54.2231 54.267 54.0127 54.1968 53.7959 54.1246C54.2869 53.9141 54.7779 53.7037 55.2837 53.4869C55.5643 53.3466 55.8448 53.2064 56.1339 53.0618Z" fill="#D01B29"/>
<path d="M46.9943 8.42715C47.6957 8.42715 48.3971 8.42715 49.1197 8.42715C49.3323 9.27734 49.3323 9.27734 48.9072 9.70243C47.2068 9.70243 47.2068 9.70243 46.7817 9.48988C46.8519 9.13918 46.922 8.78848 46.9943 8.42715Z" fill="#F6EDEB"/>
<path d="M13.8373 54.7621C15.9628 55.6123 15.9628 55.6123 15.9628 56.25C17.085 56.25 18.2072 56.25 19.3635 56.25C19.3635 56.3201 19.3635 56.3902 19.3635 56.4625C14.9 56.4625 14.9 56.4625 13.6248 55.8249C13.6949 55.4742 13.765 55.1235 13.8373 54.7621Z" fill="#8B1616"/>
<path d="M55.0711 6.72681C55.2837 7.78954 55.2837 7.78954 54.646 8.21463C53.3707 8.21463 53.3707 8.21463 53.1582 8.00208C53.1582 6.72681 53.1582 6.72681 55.0711 6.72681Z" fill="#F2EAE5"/>
<path d="M31.2662 1.62574C31.4788 2.68846 31.4788 2.68846 31.2662 2.90101C30.4947 2.90101 29.7231 2.90101 28.9282 2.90101C29.2428 1.32811 29.7401 1.62574 31.2662 1.62574Z" fill="#F6EDE0"/>
<path d="M52.7331 10.5526C53.5748 10.6228 54.4164 10.6929 55.2836 10.7652C54.8585 11.1903 54.8585 11.1903 52.7331 11.6154C52.7331 11.2647 52.7331 10.914 52.7331 10.5526ZM51.0327 11.6154C51.5938 11.6154 52.155 11.6154 52.7331 11.6154C52.8032 11.8258 52.8734 12.0362 52.9456 12.253C53.0859 12.3232 53.2262 12.3933 53.3707 12.4656C53.3006 12.6058 53.2304 12.7461 53.1582 12.8906C51.6704 12.4656 51.6704 12.4656 51.0327 11.6154Z" fill="#C97D46"/>
<path d="M22.9764 54.3371C22.7638 55.1873 22.7638 55.1873 21.0635 56.0374C20.7128 56.0374 20.3621 56.0374 20.0007 56.0374C20.2112 55.9673 20.4216 55.8972 20.6384 55.8249C20.7787 55.4742 20.9189 55.1235 21.0635 54.7622C21.9136 54.1245 21.9136 54.1245 22.9764 54.3371Z" fill="#6A0607"/>
<path d="M4.27262 34.5703C4.06007 36.2707 4.06007 36.2707 2.7848 36.9083C2.57438 37.1187 2.36396 37.3292 2.14716 37.546C1.93674 37.4758 1.72632 37.4057 1.50952 37.3334C1.93036 36.8424 2.3512 36.3514 2.7848 35.8456C3.84753 34.5703 3.84753 34.5703 4.27262 34.5703Z" fill="#3EE33A"/>
<path d="M55.0712 6.72681C55.3517 6.79695 55.6323 6.86709 55.9213 6.93935C55.7811 6.93935 55.6408 6.93935 55.4963 6.93935C55.4963 7.43033 55.4963 7.92131 55.4963 8.42717C55.2858 8.53238 55.2858 8.53238 55.0712 8.63972C55.001 8.85014 54.9309 9.06056 54.8586 9.27736C54.9989 9.27736 55.1392 9.27736 55.2837 9.27736C55.2136 9.48778 55.1434 9.6982 55.0712 9.91499C53.785 9.14333 53.0354 8.66278 52.7332 7.1519C52.9436 7.43246 53.154 7.71302 53.3708 8.00208C54.5351 8.09713 54.5351 8.09713 55.0712 7.78954C55.0712 7.43884 55.0712 7.08813 55.0712 6.72681Z" fill="#C87C46"/>
<path d="M34.8794 24.1556C36.1547 24.1556 36.1547 24.1556 37.2174 25.0058C37.2174 25.2162 37.2174 25.4266 37.2174 25.6434C35.7296 25.6434 35.7296 25.6434 34.8794 25.0058C34.8794 24.7252 34.8794 24.4446 34.8794 24.1556Z" fill="#F6EEE6"/>
<path d="M42.1055 67.3024C42.6666 67.3024 43.2277 67.3024 43.8058 67.3024C43.8058 68.2142 43.8058 69.126 43.8058 70.0655C43.3807 70.0655 43.3807 70.0655 42.7431 68.5776C42.5327 68.2971 42.3223 68.0165 42.1055 67.7275C42.1055 67.5872 42.1055 67.4469 42.1055 67.3024Z" fill="#79E868"/>
<path d="M36.5796 67.94C36.5796 68.3609 36.5796 68.7817 36.5796 69.2153C35.0918 69.2153 35.0918 69.2153 34.0291 68.7902C34.8792 67.94 34.8792 67.94 36.5796 67.94Z" fill="#50E96D"/>
<path d="M63.998 41.5843C64.4231 42.4345 64.4231 42.4345 64.6356 43.9223C64.4252 43.9925 64.2148 44.0626 63.998 44.1349C63.998 43.9245 63.998 43.714 63.998 43.4972C63.7174 43.4972 63.4369 43.4972 63.1478 43.4972C63.0777 43.7778 63.0075 44.0584 62.9352 44.3474C62.7248 44.3474 62.5144 44.3474 62.2976 44.3474C62.2976 43.9967 62.2976 43.646 62.2976 43.2847C62.7886 43.1444 63.2796 43.0041 63.7854 42.8596C63.8556 42.4388 63.9257 42.0179 63.998 41.5843Z" fill="#27CD50"/>
<path d="M58.897 15.4412C58.897 16.5039 58.897 16.5039 58.2594 16.929C57.6281 16.8238 57.6281 16.8238 56.9841 16.7164C56.9841 15.4412 56.9841 15.4412 58.897 15.4412Z" fill="#F4ECE9"/>
<path d="M5.54785 19.0545C5.75827 19.0545 5.96869 19.0545 6.18549 19.0545C6.18549 20.9674 6.18549 20.9674 5.97294 21.3925C5.9028 23.0758 5.83266 24.7592 5.7604 26.4936C5.69026 26.4936 5.62012 26.4936 5.54785 26.4936C5.54785 24.0387 5.54785 21.5838 5.54785 19.0545Z" fill="#DB935C"/>
<path d="M17.4503 6.30173C17.6628 6.51427 17.6628 6.51427 17.6628 7.577C16.3875 7.577 16.3875 7.577 15.5374 6.93936C15.9193 5.79364 16.205 6.09415 17.4503 6.30173Z" fill="#F8EEE7"/>
<path d="M25.3147 71.9784C25.3848 72.1187 25.455 72.259 25.5272 72.4035C23.8269 72.616 23.8269 72.616 20.8512 72.616C20.7811 72.4758 20.7109 72.3355 20.6387 72.1909C21.9139 71.9784 21.9139 71.9784 25.3147 71.9784Z" fill="#26CF61"/>
<path d="M6.39795 39.0338C6.46809 39.0338 6.53823 39.0338 6.6105 39.0338C7.5457 41.8394 7.5457 41.8394 7.03559 42.8596C6.96545 43.7013 6.89531 44.543 6.82304 45.4102C6.7529 45.4102 6.68276 45.4102 6.6105 45.4102C6.54035 43.306 6.47021 41.2018 6.39795 39.0338Z" fill="#735B35"/>
<path d="M31.0533 17.5666C30.8407 18.6294 30.8407 18.6294 30.6282 18.8419C30.1372 18.8419 29.6462 18.8419 29.1404 18.8419C29.4084 17.5014 29.699 16.8895 31.0533 17.5666Z" fill="#F8EFE9"/>
<path d="M36.1545 53.2744C38.399 53.2744 40.6435 53.2744 42.956 53.2744C42.956 53.7653 42.956 54.2563 42.956 54.7622C42.1058 54.3371 42.1058 54.3371 41.8933 53.4869C39.9995 53.4869 38.1057 53.4869 36.1545 53.4869C36.1545 53.4168 36.1545 53.3466 36.1545 53.2744Z" fill="#994A31"/>
<path d="M54.8586 9.4899C55.0711 10.5526 55.0711 10.5526 54.8586 10.7652C54.2974 10.7652 53.7363 10.7652 53.1582 10.7652C53.1582 9.4899 53.1582 9.4899 54.8586 9.4899Z" fill="#F5EAE2"/>
<path d="M34.2417 24.5807C34.9782 25.0015 34.9782 25.0015 35.7295 25.4308C36.2906 25.4308 36.8518 25.4308 37.4299 25.4308C37.4299 25.6413 37.4299 25.8517 37.4299 26.0685C35.517 26.0685 35.517 26.0685 34.8793 25.8559C34.8793 26.2066 34.8793 26.5573 34.8793 26.9187C34.7391 26.9187 34.5988 26.9187 34.4542 26.9187C34.3841 26.1471 34.314 25.3756 34.2417 24.5807Z" fill="#D18857"/>
<path d="M23.8269 72.4035C25.9524 72.4035 25.9524 72.4035 26.59 72.8286C26.59 72.9689 26.59 73.1092 26.59 73.2537C27.081 73.2537 27.572 73.2537 28.0778 73.2537C28.0778 73.394 28.0778 73.5343 28.0778 73.6788C25.9524 73.4663 25.9524 73.4663 23.8269 72.6161C23.8269 72.5459 23.8269 72.4758 23.8269 72.4035Z" fill="#D09151"/>
<path d="M40.1928 67.515C39.9824 67.6202 39.9824 67.6202 39.7678 67.7275C39.7678 68.2886 39.7678 68.8497 39.7678 69.4279C38.9176 69.2153 38.9176 69.2153 38.705 68.5777C38.4946 68.4374 38.2842 68.2971 38.0674 68.1526C38.0674 68.0123 38.0674 67.872 38.0674 67.7275C38.705 67.515 38.705 67.515 40.1928 67.515Z" fill="#45DF60"/>
<path d="M44.8689 9.06485C44.8689 9.41555 44.8689 9.76625 44.8689 10.1276C44.2376 10.1276 43.6064 10.1276 42.956 10.1276C42.5649 8.56351 42.9843 9.06485 44.8689 9.06485Z" fill="#F4EDEC"/>
<path d="M23.4019 40.9467C26.8026 40.9467 26.8026 40.9467 28.0779 41.5844C28.0779 41.6545 28.0779 41.7246 28.0779 41.7969C26.59 41.7969 26.59 41.7969 23.4019 41.1593C23.4019 41.0891 23.4019 41.019 23.4019 40.9467Z" fill="#865828"/>
<path d="M51.2451 21.3925C52.9455 21.3925 52.9455 21.3925 53.3706 21.605C53.3706 21.8856 53.3706 22.1662 53.3706 22.4552C51.6702 22.4552 51.6702 22.4552 51.2451 22.2427C51.2451 21.9621 51.2451 21.6815 51.2451 21.3925Z" fill="#F5EFEC"/>
<path d="M40.8304 73.8913C40.6179 74.529 40.6179 74.529 40.1928 74.7415C37.6422 74.7415 37.6422 74.7415 37.4297 74.3164C38.0609 74.1761 38.6922 74.0358 39.3426 73.8913C40.1928 73.6788 40.1928 73.6788 40.8304 73.8913Z" fill="#17C761"/>
<path d="M14.8999 55.1873C16.2326 55.2574 17.5652 55.3275 18.9383 55.3998C18.7257 55.8249 18.7257 55.8249 16.8128 55.8249C16.8128 55.9652 16.8128 56.1055 16.8128 56.25C16.5323 56.25 16.2517 56.25 15.9626 56.25C15.9626 56.1097 15.9626 55.9694 15.9626 55.8249C15.4366 55.6145 15.4366 55.6145 14.8999 55.3998C14.8999 55.3297 14.8999 55.2595 14.8999 55.1873Z" fill="#9D0B12"/>
<path d="M47.4196 25.856C47.7001 25.9962 47.9807 26.1365 48.2698 26.281C48.9712 26.3512 49.6726 26.4213 50.3952 26.4936C50.3952 26.704 50.3952 26.9144 50.3952 27.1312C48.2698 26.9187 48.2698 26.9187 47.8447 26.7061C47.7745 26.9166 47.7044 27.127 47.6321 27.3438C47.4918 27.3438 47.3516 27.3438 47.207 27.3438C47.2772 26.8528 47.3473 26.3618 47.4196 25.856Z" fill="#C67541"/>
<path d="M28.0776 67.515C28.8492 67.515 29.6207 67.515 30.4156 67.515C30.4858 67.7254 30.5559 67.9358 30.6282 68.1526C29.778 68.5777 29.778 68.5777 28.0776 68.1526C28.0776 67.9422 28.0776 67.7318 28.0776 67.515Z" fill="#77E94F"/>
<path d="M33.3915 67.94C33.8825 67.94 34.3735 67.94 34.8793 67.94C34.5637 68.2557 34.5637 68.2557 34.2417 68.5777C34.5222 68.7881 34.8028 68.9985 35.0919 69.2153C34.145 69.3205 34.145 69.3205 33.179 69.4279C33.2491 68.9369 33.3192 68.4459 33.3915 67.94Z" fill="#37D54C"/>
<path d="M56.5588 48.8109C56.9797 48.8109 57.4005 48.8109 57.8341 48.8109C57.8341 50.7238 57.8341 50.7238 57.409 51.574C57.3389 51.1532 57.2687 50.7323 57.1965 50.2987C57.0562 50.2286 56.9159 50.1585 56.7714 50.0862C56.7012 49.6653 56.6311 49.2445 56.5588 48.8109Z" fill="#DF4346"/>
<path d="M5.54785 52.4242C5.96869 52.4242 6.38953 52.4242 6.82313 52.4242C6.89327 52.9152 6.96341 53.4062 7.03567 53.912C5.97294 53.6995 5.97294 53.6995 5.54785 53.4869C5.54785 53.1362 5.54785 52.7855 5.54785 52.4242Z" fill="#4CCC1A"/>
<path d="M30.4158 68.1526C31.0535 68.7902 31.0535 68.7902 31.0535 69.853C31.1937 69.853 31.334 69.853 31.4785 69.853C31.4785 69.9932 31.4785 70.1335 31.4785 70.278C31.689 70.3482 31.8994 70.4183 32.1162 70.4906C31.0535 70.4906 31.0535 70.4906 29.9907 69.0028C29.9907 68.3651 29.9907 68.3651 30.4158 68.1526Z" fill="#88E16D"/>
<path d="M9.79883 66.6647C10.8509 66.6647 11.903 66.6647 12.987 66.6647C12.987 67.0898 12.987 67.0898 12.5619 67.3024C10.4365 67.3024 10.4365 67.3024 9.79883 66.6647Z" fill="#2ACD56"/>
<path d="M58.2594 66.0271C57.6248 67.614 57.4617 67.515 55.7089 67.515C55.6387 67.3747 55.5686 67.2344 55.4963 67.0899C56.0575 67.0197 56.6186 66.9496 57.1967 66.8773C57.1967 66.6669 57.1967 66.4565 57.1967 66.2397C57.8343 66.0271 57.8343 66.0271 58.2594 66.0271Z" fill="#0DB75C"/>
<path d="M18.7259 51.3615C19.1468 51.5017 19.5676 51.642 20.0012 51.7865C20.0012 51.9268 20.0012 52.0671 20.0012 52.2116C19.6505 52.2116 19.2998 52.2116 18.9385 52.2116C18.9385 52.3519 18.9385 52.4922 18.9385 52.6367C18.0968 52.6367 17.2551 52.6367 16.3879 52.6367C16.3879 52.5666 16.3879 52.4964 16.3879 52.4242C16.9491 52.354 17.5102 52.2839 18.0883 52.2116C18.2987 51.9311 18.5091 51.6505 18.7259 51.3615Z" fill="#E95B51"/>
<path d="M1.29692 37.3334C1.72201 37.546 1.72201 37.546 1.50946 40.0965C1.29904 40.2017 1.29904 40.2017 1.08437 40.309C0.871826 39.884 0.871826 39.884 0.871826 37.7585C1.01211 37.6182 1.15239 37.4779 1.29692 37.3334Z" fill="#59E051"/>
<path d="M10.6489 60.0758C11.7117 60.0758 11.7117 60.0758 12.3493 60.5009C12.3493 60.6412 12.3493 60.7815 12.3493 60.926C12.5597 60.9962 12.7701 61.0663 12.9869 61.1386C12.1367 61.9887 12.1367 61.9887 11.4991 61.7762C11.5692 61.4255 11.6394 61.0748 11.7117 60.7135C11.4311 60.6433 11.1505 60.5732 10.8615 60.5009C10.7913 60.3606 10.7212 60.2204 10.6489 60.0758Z" fill="#7AD24F"/>
<path d="M59.1094 10.7652C60.3847 11.4028 60.3847 11.4028 60.3847 12.4656C60.2444 12.4656 60.1041 12.4656 59.9596 12.4656C59.9596 12.8163 59.9596 13.167 59.9596 13.5283C59.8894 13.5283 59.8193 13.5283 59.747 13.5283C59.1094 11.4028 59.1094 11.4028 59.1094 10.7652Z" fill="#BE7343"/>
<path d="M13.1995 67.0898C13.6203 67.3003 13.6203 67.3003 14.0496 67.5149C14.3302 67.5149 14.6108 67.5149 14.8998 67.5149C15.5375 68.1526 15.5375 68.1526 15.5375 68.3651C13.8371 68.3651 13.8371 68.3651 13.1995 67.7275C13.1995 67.5171 13.1995 67.3066 13.1995 67.0898Z" fill="#20C55D"/>
<path d="M8.73611 63.9016C8.66597 64.3926 8.59583 64.8836 8.52357 65.3895C8.24301 65.3193 7.96245 65.2492 7.67338 65.1769C7.46296 65.2821 7.46296 65.2821 7.24829 65.3895C7.24829 64.1484 7.42067 63.9016 8.73611 63.9016Z" fill="#C49054"/>
<path d="M58.4718 64.1142C59.5346 64.3267 59.5346 64.3267 59.7471 65.1769C59.221 65.4926 59.221 65.4926 58.6844 65.8146C58.5441 65.9548 58.4038 66.0951 58.2593 66.2397C58.3294 65.5383 58.3996 64.8369 58.4718 64.1142Z" fill="#776D2D"/>
<path d="M27.2277 40.7342C27.5784 40.9446 27.9291 41.155 28.2904 41.3718C27.4402 41.5843 27.4402 41.5843 26.8026 41.1593C26.0311 41.0891 25.2595 41.019 24.4646 40.9467C24.8897 40.3091 24.8897 40.3091 27.2277 40.7342Z" fill="#9E5C11"/>
<path d="M53.3707 5.45154C54.2209 5.66408 54.2209 5.66408 55.4962 6.51427C55.4962 6.58441 55.4962 6.65455 55.4962 6.72681C54.7247 6.79695 53.9531 6.86709 53.1582 6.93936C53.1582 6.79908 53.1582 6.6588 53.1582 6.51427C53.3686 6.44413 53.579 6.37399 53.7958 6.30172C53.6556 6.02116 53.5153 5.7406 53.3707 5.45154Z" fill="#BF773A"/>
<path d="M27.6526 67.3024C25.846 68.6574 25.846 68.6574 24.677 68.3651C26.5735 66.9428 26.5735 66.9428 27.6526 67.3024Z" fill="#74E747"/>
<path d="M23.1894 66.2397C23.6804 66.3098 24.1713 66.38 24.6772 66.4522C24.2521 67.3024 24.2521 67.3024 23.6145 67.7275C22.9768 67.0899 22.9768 67.0899 23.1894 66.2397Z" fill="#7BD13D"/>
<path d="M42.3183 73.2537C42.4586 73.4641 42.5988 73.6745 42.7434 73.8913C42.5308 74.1039 42.5308 74.1039 40.6179 74.1039C41.043 73.2537 41.043 73.2537 42.3183 73.2537Z" fill="#CC914A"/>
<path d="M56.1339 53.0618C56.204 53.2021 56.2742 53.3424 56.3464 53.4869C56.4867 53.4869 56.627 53.4869 56.7715 53.4869C56.559 54.3371 56.559 54.3371 56.3464 54.5496C55.9957 54.5496 55.645 54.5496 55.2837 54.5496C55.7088 53.2744 55.7088 53.2744 56.1339 53.0618Z" fill="#D3202D"/>
<path d="M11.2866 52.8493C12.3494 53.3807 12.3494 53.3807 12.3494 54.9748C11.4992 54.5497 11.4992 54.5497 11.2866 52.8493Z" fill="#8D2420"/>
<path d="M59.1095 25.4308C59.1796 25.4308 59.2497 25.4308 59.322 25.4308C59.322 27.9814 59.322 27.9814 58.6844 28.8316C58.5441 28.8316 58.4038 28.8316 58.2593 28.8316C58.4718 27.7689 58.4718 27.7689 58.6844 27.3438C58.8246 27.3438 58.9649 27.3438 59.1095 27.3438C59.1095 26.7125 59.1095 26.0812 59.1095 25.4308Z" fill="#C06C2E"/>
<path d="M11.7117 60.7135C11.6415 60.994 11.5714 61.2746 11.4991 61.5636C11.4991 61.3532 11.4991 61.1428 11.4991 60.926C10.938 60.926 10.3769 60.926 9.79877 60.926C9.58835 60.7857 9.37793 60.6454 9.16113 60.5009C10.1412 59.8475 10.7146 60.2148 11.7117 60.7135Z" fill="#3BD42E"/>
<path d="M6.39831 47.9607C6.32817 48.1711 6.25803 48.3816 6.18576 48.5983C5.48436 48.5983 4.78296 48.5983 4.0603 48.5983C4.0603 47.477 5.59828 47.9607 6.39831 47.9607Z" fill="#80E587"/>
<path d="M57.4089 11.6154C57.834 11.8279 57.834 11.8279 58.2591 13.7408C58.68 13.7408 59.1008 13.7408 59.5344 13.7408C59.2538 13.811 58.9733 13.8811 58.6842 13.9534C58.6141 14.0936 58.5439 14.2339 58.4717 14.3785C57.4089 13.1032 57.4089 13.1032 57.4089 11.6154Z" fill="#B5642B"/>
<path d="M39.7678 67.7275C39.9081 67.7275 40.0484 67.7275 40.1929 67.7275C40.3332 68.4289 40.4735 69.1303 40.618 69.853C40.3374 69.7828 40.0569 69.7127 39.7678 69.6404C39.7678 69.0092 39.7678 68.3779 39.7678 67.7275Z" fill="#87DD84"/>
<path d="M42.956 53.2744C43.3985 53.8276 43.8383 54.3851 44.2313 54.9747C43.8806 55.0449 43.5299 55.115 43.1686 55.1873C42.7435 54.3371 42.7435 54.3371 42.956 53.2744Z" fill="#910D0F"/>
<path d="M16.813 5.23897C16.7429 5.51953 16.6727 5.80009 16.6005 6.08916C16.1796 6.08916 15.7588 6.08916 15.3252 6.08916C15.6136 4.93543 15.6691 4.95297 16.813 5.23897Z" fill="#E5AB75"/>
<path d="M17.6628 63.9016C18.5045 64.3225 18.5045 64.3225 19.3632 64.7518C19.1507 65.1769 19.1507 65.1769 17.8754 65.1769C17.6628 64.9644 17.6628 64.9644 17.6628 63.9016Z" fill="#7BB332"/>
<path d="M31.9036 73.2537C32.5348 73.2537 33.1661 73.2537 33.8165 73.2537C33.8165 73.4641 33.8165 73.6745 33.8165 73.8913C32.3287 73.8913 32.3287 73.8913 31.9036 73.6788C31.9036 73.5385 31.9036 73.3982 31.9036 73.2537Z" fill="#C9A361"/>
<path d="M34.2416 72.8286C33.8165 73.2537 33.8165 73.2537 31.4785 73.2537C31.4785 73.1134 31.4785 72.9731 31.4785 72.8286C33.604 72.6161 33.604 72.6161 34.2416 72.8286Z" fill="#1ACB61"/>
<path d="M35.7296 72.616C35.7997 72.8264 35.8698 73.0369 35.9421 73.2537C35.2407 73.2537 34.5393 73.2537 33.8167 73.2537C34.2417 72.616 34.2417 72.616 35.7296 72.616Z" fill="#C8C443"/>
<path d="M35.7294 68.1526C35.7294 68.4331 35.7294 68.7137 35.7294 69.0028C34.4541 69.0028 34.4541 69.0028 34.0291 68.5777C34.6667 68.1526 34.6667 68.1526 35.7294 68.1526Z" fill="#65ED74"/>
<path d="M46.3565 41.3718C46.3565 41.6523 46.3565 41.9329 46.3565 42.222C45.0812 41.7969 45.0812 41.7969 44.8687 41.1592C45.5063 40.9467 45.5063 40.9467 46.3565 41.3718Z" fill="#E5B879"/>
<path d="M62.0853 35.6331C61.8728 36.9083 61.8728 36.9083 60.8101 37.9711C61.2777 35.6331 61.2777 35.6331 62.0853 35.6331Z" fill="#531106"/>
<path d="M49.7573 71.3408C50.3886 71.4109 51.0198 71.481 51.6702 71.5533C51.6702 71.6936 51.6702 71.8339 51.6702 71.9784C50.8201 72.1909 50.8201 72.1909 49.7573 71.9784C49.7573 71.768 49.7573 71.5576 49.7573 71.3408Z" fill="#1EC062"/>
<path d="M21.4886 54.3371C21.7011 55.1873 21.7011 55.1873 21.4886 55.8249C20.9976 55.8951 20.5066 55.9652 20.0007 56.0375C20.2112 55.9674 20.4216 55.8972 20.6384 55.8249C20.7787 55.4742 20.9189 55.1235 21.0635 54.7622C21.2037 54.6219 21.344 54.4817 21.4886 54.3371Z" fill="#750607"/>
<path d="M5.54785 19.0545C5.75827 19.0545 5.96869 19.0545 6.18549 19.0545C6.18549 20.9674 6.18549 20.9674 5.7604 21.3925C5.69026 20.6209 5.62012 19.8494 5.54785 19.0545Z" fill="#D8915E"/>
<path d="M51.2453 15.4412C50.8202 16.0788 50.8202 16.0788 49.1199 16.0788C49.1199 15.0146 50.4349 15.4412 51.2453 15.4412Z" fill="#CD7B3B"/>
<path d="M42.3184 9.4899C42.5288 9.63018 42.7392 9.77046 42.956 9.91499C43.3067 9.98513 43.6574 10.0553 44.0188 10.1275C43.3811 10.7652 43.3811 10.7652 41.8933 10.3401C41.8933 10.1998 41.8933 10.0595 41.8933 9.91499C42.0336 9.91499 42.1739 9.91499 42.3184 9.91499C42.3184 9.77471 42.3184 9.63443 42.3184 9.4899Z" fill="#D4905B"/>
<path d="M48.4824 66.8773C49.5452 67.515 49.5452 67.515 49.5452 68.3651C49.1945 68.3651 48.8437 68.3651 48.4824 68.3651C48.4824 67.8742 48.4824 67.3832 48.4824 66.8773Z" fill="#75DF71"/>
<path d="M48.0569 3.11356C49.9698 3.3261 49.9698 3.3261 50.3949 3.53865C50.3949 3.67893 50.3949 3.81921 50.3949 3.96374C48.9071 3.75119 48.9071 3.75119 48.0569 3.3261C48.0569 3.25596 48.0569 3.18582 48.0569 3.11356Z" fill="#C57C3E"/>
<path d="M56.3463 15.8663C56.6269 16.1469 56.9075 16.4274 57.1965 16.7165C56.9861 16.7866 56.7757 16.8568 56.5589 16.929C56.4186 17.2096 56.2783 17.4902 56.1338 17.7792C56.1338 16.0788 56.1338 16.0788 56.3463 15.8663Z" fill="#CF7E3E"/>
<path d="M48.2698 15.6537C48.5503 15.6537 48.8309 15.6537 49.12 15.6537C49.12 15.794 49.12 15.9343 49.12 16.0788C49.4707 16.0788 49.8214 16.0788 50.1827 16.0788C49.9723 16.184 49.9723 16.184 49.7576 16.2914C49.7576 16.6421 49.7576 16.9928 49.7576 17.3541C49.4069 17.0034 49.0562 16.6527 48.6949 16.2914C48.5546 16.2212 48.4143 16.1511 48.2698 16.0788C48.2698 15.9386 48.2698 15.7983 48.2698 15.6537Z" fill="#CC874E"/>
<path d="M23.8269 72.4035C24.4582 72.4035 25.0894 72.4035 25.7398 72.4035C25.81 72.614 25.8801 72.8244 25.9524 73.0412C24.0395 72.8286 24.0395 72.8286 23.8269 72.4035Z" fill="#DB9559"/>
<path d="M38.0674 67.7275C38.5584 67.7275 39.0493 67.7275 39.5552 67.7275C39.5552 68.0081 39.5552 68.2886 39.5552 68.5777C39.0642 68.4374 38.5732 68.2971 38.0674 68.1526C38.0674 68.0123 38.0674 67.872 38.0674 67.7275Z" fill="#58EA51"/>
<path d="M20.8511 52.4241C20.8511 52.5644 20.8511 52.7047 20.8511 52.8492C20.2199 52.7791 19.5886 52.709 18.9382 52.6367C18.9382 52.4964 18.9382 52.3561 18.9382 52.2116C20.001 51.9991 20.001 51.9991 20.8511 52.4241Z" fill="#F26B57"/>
<path d="M46.5693 16.7165C46.8499 16.9971 47.1305 17.2776 47.4195 17.5667C47.9806 17.6368 48.5418 17.707 49.1199 17.7792C49.1199 17.8494 49.1199 17.9195 49.1199 17.9918C46.7819 17.9918 46.7819 17.9918 46.5693 17.7792C46.5693 17.4285 46.5693 17.0778 46.5693 16.7165Z" fill="#CE8C56"/>
<path d="M19.1509 67.3024C19.7885 67.94 19.7885 67.94 20.0011 68.5776C20.2115 68.6478 20.4219 68.7179 20.6387 68.7902C20.6387 68.9305 20.6387 69.0708 20.6387 69.2153C19.7885 69.0027 19.7885 69.0027 19.1509 68.3651C19.1509 68.0144 19.1509 67.6637 19.1509 67.3024Z" fill="#97E48C"/>
<path d="M53.3707 63.9016C53.6513 63.9016 53.9319 63.9016 54.2209 63.9016C54.2209 64.2523 54.2209 64.603 54.2209 64.9644C53.8702 64.8942 53.5195 64.8241 53.1582 64.7518C53.2283 64.4713 53.2985 64.1907 53.3707 63.9016Z" fill="#17D777"/>
<path d="M16.1753 63.264C15.9628 63.6891 15.9628 63.6891 14.6875 63.6891C14.6875 62.4929 15.1806 62.8661 16.1753 63.264Z" fill="#8BD979"/>
<path d="M6.61062 51.7865C6.61062 51.9969 6.61062 52.2073 6.61062 52.4241C6.18978 52.4241 5.76894 52.4241 5.33535 52.4241C5.26521 52.7047 5.19507 52.9853 5.1228 53.2743C5.1228 51.9289 5.28986 51.7865 6.61062 51.7865Z" fill="#83D770"/>
<path d="M27.44 41.3718C27.6504 41.5121 27.8609 41.6524 28.0777 41.7969C26.5898 41.7969 26.5898 41.7969 25.5271 41.5844C26.3773 40.9467 26.3773 40.9467 27.44 41.3718Z" fill="#8F5720"/>
<path d="M15.3252 67.515C16.813 67.515 16.813 67.515 17.4507 67.94C16.7493 68.0102 16.0479 68.0803 15.3252 68.1526C15.3252 67.9422 15.3252 67.7318 15.3252 67.515Z" fill="#06CF62"/>
<path d="M8.94862 56.6751C8.94862 57.096 8.94862 57.5168 8.94862 57.9504C8.52777 58.0205 8.10693 58.0907 7.67334 58.1629C8.52352 56.6751 8.52352 56.6751 8.94862 56.6751Z" fill="#8DD468"/>
<path d="M6.39795 39.0338C6.46809 39.0338 6.53823 39.0338 6.6105 39.0338C6.82092 39.8054 7.03134 40.5769 7.24813 41.3718C6.39795 40.9467 6.39795 40.9467 6.39795 39.0338Z" fill="#6F6737"/>
<path d="M33.3913 67.94C33.3212 68.431 33.2511 68.922 33.1788 69.4279C32.5412 69.4279 32.5412 69.4279 32.3286 69.0028C32.7537 67.94 32.7537 67.94 33.3913 67.94Z" fill="#87DC72"/>
<path d="M8.52362 62.8389C8.6639 62.8389 8.80418 62.8389 8.94872 62.8389C8.94872 63.2598 8.94872 63.6806 8.94872 64.1142C8.59802 64.1142 8.24731 64.1142 7.88599 64.1142C7.88599 63.9038 7.88599 63.6934 7.88599 63.4766C8.09641 63.4766 8.30683 63.4766 8.52362 63.4766C8.52362 63.2661 8.52362 63.0557 8.52362 62.8389Z" fill="#2FCB4D"/>
<path d="M19.7886 68.1526C20.3497 68.1526 20.9108 68.1526 21.4889 68.1526C21.3487 68.4331 21.2084 68.7137 21.0638 69.0028C20.643 68.8625 20.2222 68.7222 19.7886 68.5777C19.7886 68.4374 19.7886 68.2971 19.7886 68.1526Z" fill="#83E982"/>
<path d="M51.8828 67.515C51.8828 68.1526 51.8828 68.1526 51.6703 68.3651C51.2495 68.3651 50.8286 68.3651 50.395 68.3651C50.395 68.1547 50.395 67.9443 50.395 67.7275C50.8159 67.7275 51.2367 67.7275 51.6703 67.7275C51.7404 67.6574 51.8106 67.5872 51.8828 67.515Z" fill="#7BDD5D"/>
<path d="M49.3323 67.3024C49.8583 67.4076 49.8583 67.4076 50.395 67.5149C50.395 67.7955 50.395 68.076 50.395 68.3651C50.1144 68.3651 49.8339 68.3651 49.5448 68.3651C49.4747 68.0144 49.4045 67.6637 49.3323 67.3024Z" fill="#90D86D"/>
<path d="M22.7641 67.0898C23.4017 67.5149 23.4017 67.5149 23.4017 67.94C22.9809 68.0102 22.5601 68.0803 22.1265 68.1526C22.5516 67.3024 22.5516 67.3024 22.7641 67.0898Z" fill="#1CCB37"/>
<path d="M55.0708 6.72681C55.3514 6.79695 55.632 6.86709 55.921 6.93935C55.7807 6.93935 55.6405 6.93935 55.4959 6.93935C55.4959 7.43033 55.4959 7.92131 55.4959 8.42717C55.2855 8.49731 55.0751 8.56745 54.8583 8.63972C54.7882 8.4293 54.718 8.21888 54.6458 8.00208C54.786 7.93194 54.9263 7.8618 55.0708 7.78954C55.0708 7.43884 55.0708 7.08813 55.0708 6.72681Z" fill="#C98755"/>
<path d="M5.54785 41.5843C5.89855 41.5843 6.24925 41.5843 6.61058 41.5843C6.61058 42.0052 6.61058 42.426 6.61058 42.8596C6.4703 42.8596 6.33002 42.8596 6.18549 42.8596C6.18549 42.579 6.18549 42.2985 6.18549 42.0094C5.97507 41.9393 5.76465 41.8691 5.54785 41.7969C5.54785 41.7267 5.54785 41.6566 5.54785 41.5843Z" fill="#6CC360"/>
<path d="M9.58618 10.1276C10.007 10.2678 10.4279 10.4081 10.8615 10.5527C10.2238 10.9777 10.2238 10.9777 9.58618 10.9777C9.58618 10.6972 9.58618 10.4166 9.58618 10.1276Z" fill="#E5AE79"/>
<path d="M58.4718 64.9644C58.8927 64.9644 59.3135 64.9644 59.7471 64.9644C59.3964 65.2449 59.0457 65.5255 58.6844 65.8146C58.5441 65.9548 58.4038 66.0951 58.2593 66.2397C58.3294 65.8188 58.3996 65.398 58.4718 64.9644Z" fill="#8C6125"/>
<path d="M46.569 25.6434C46.569 26.0685 46.569 26.0685 45.5063 26.4936C45.1546 25.4387 45.4321 25.6434 46.569 25.6434Z" fill="#EFDFD5"/>
<path d="M47.4196 25.856C47.8447 26.4936 47.8447 26.4936 47.6321 27.3438C47.4918 27.3438 47.3516 27.3438 47.207 27.3438C47.2772 26.8528 47.3473 26.3618 47.4196 25.856Z" fill="#D28245"/>
<path d="M48.0571 15.8663C47.7064 15.9364 47.3557 16.0066 46.9943 16.0788C46.9242 16.2893 46.854 16.4997 46.7818 16.7165C46.6415 16.7165 46.5012 16.7165 46.3567 16.7165C46.9235 15.583 46.9235 15.583 48.0571 15.8663Z" fill="#CD874E"/>
<path d="M49.7573 10.1276C50.6075 11.1903 50.6075 11.1903 50.8201 11.6154C49.7573 11.1903 49.7573 11.1903 49.7573 10.1276Z" fill="#D0854D"/>
<path d="M50.1826 6.30173C50.3229 6.30173 50.4632 6.30173 50.6077 6.30173C50.6077 6.44201 50.6077 6.58229 50.6077 6.72682C50.8883 6.8671 51.1688 7.00738 51.4579 7.15191C51.1072 7.15191 50.7565 7.15191 50.3952 7.15191C50.325 6.87135 50.2549 6.59079 50.1826 6.30173Z" fill="#C68144"/>
<path d="M22.1266 67.7275C21.9863 68.0081 21.846 68.2886 21.7015 68.5777C21.5612 68.5076 21.4209 68.4374 21.2764 68.3651C21.7015 67.7275 21.7015 67.7275 22.1266 67.7275Z" fill="#78E77C"/>
<path d="M50.1826 51.7866C49.9701 52.2116 49.9701 52.2116 49.1199 52.2116C49.1199 51.414 49.5518 51.5763 50.1826 51.7866Z" fill="#E65452"/>
<path d="M50.1826 15.6537C49.9701 16.0788 49.9701 16.0788 49.1199 16.0788C49.1199 15.2811 49.5518 15.4435 50.1826 15.6537Z" fill="#CC7F42"/>
</svg>
