<svg width="62" height="70" viewBox="0 0 62 70" fill="none" xmlns="http://www.w3.org/2000/svg">
<path d="M23.8404 0.9092C24.0536 0.913026 24.2668 0.916874 24.4866 0.920827C29.5783 1.08264 34.1134 3.11373 38.2935 5.91731C38.617 6.1339 38.617 6.1339 38.9469 6.35486C42.6864 8.98074 46.1537 12.2765 48.9208 15.907C49.1181 16.1595 49.3153 16.4118 49.5128 16.6641C54.9771 23.7236 59.0344 32.0075 60.8234 40.7748C60.8816 41.0463 60.8816 41.0463 60.9409 41.3232C61.3223 43.2992 61.342 45.2653 61.3414 47.2707C61.3416 47.4501 61.3418 47.6292 61.3422 47.8137C61.3371 50.4882 61.2002 52.934 60.1858 55.4405C60.091 55.6788 59.9962 55.9172 59.8984 56.1627C58.428 59.4243 55.9285 61.196 53.0655 63.1321C51.3564 64.2873 51.3564 64.2873 49.6647 65.4676C44.8754 68.8589 40.4179 70.0666 34.5208 69.3491C23.8253 67.2702 14.8655 58.8761 8.9622 50.1269C6.51601 46.3495 4.58525 42.4352 3.01092 38.2243C2.95119 38.0649 2.89125 37.9055 2.82983 37.7412C2.12056 35.8174 1.58197 33.876 1.13775 31.8745C1.09375 31.6775 1.04976 31.4806 1.00448 31.2777C-0.428288 24.4849 0.312647 17.2526 3.8611 11.231C6.40549 7.34437 10.0923 4.62778 14.6344 3.52617C15.3003 3.39082 15.9494 3.34051 16.627 3.30034C17.5744 3.21715 18.1461 2.94307 18.917 2.4021C20.5366 1.30823 21.885 0.853088 23.8404 0.9092Z" fill="#7AFEFB"/>
<path d="M23.8404 0.9092C24.0536 0.913026 24.2668 0.916874 24.4866 0.920827C29.5783 1.08264 34.1134 3.11373 38.2935 5.91731C38.617 6.1339 38.617 6.1339 38.9469 6.35486C42.6864 8.98074 46.1537 12.2765 48.9208 15.907C49.1181 16.1595 49.3153 16.4118 49.5128 16.6641C54.9771 23.7236 59.0344 32.0075 60.8234 40.7748C60.8816 41.0463 60.8816 41.0463 60.9409 41.3232C61.3223 43.2992 61.342 45.2653 61.3414 47.2707C61.3416 47.4501 61.3418 47.6292 61.3422 47.8137C61.3371 50.4882 61.2002 52.934 60.1858 55.4405C60.091 55.6788 59.9962 55.9172 59.8984 56.1627C58.428 59.4243 55.9285 61.196 53.0655 63.1321C51.3564 64.2873 51.3564 64.2873 49.6647 65.4676C44.8754 68.8589 40.4179 70.0666 34.5208 69.3491C23.8253 67.2702 14.8655 58.8761 8.9622 50.1269C6.51601 46.3495 4.58525 42.4352 3.01092 38.2243C2.95119 38.0649 2.89125 37.9055 2.82983 37.7412C2.12056 35.8174 1.58197 33.876 1.13775 31.8745C1.09375 31.6775 1.04976 31.4806 1.00448 31.2777C-0.428288 24.4849 0.312647 17.2526 3.8611 11.231C6.40549 7.34437 10.0923 4.62778 14.6344 3.52617C15.3003 3.39082 15.9494 3.34051 16.627 3.30034C17.5744 3.21715 18.1461 2.94307 18.917 2.4021C20.5366 1.30823 21.885 0.853088 23.8404 0.9092ZM6.65821 10.859C2.36265 16.3274 1.84021 23.0995 2.43641 29.7945C2.86298 33.3183 3.97587 36.8746 5.5315 40.0624C5.72406 40.4596 5.90239 40.8637 6.0754 41.2696C9.4213 49.0354 14.6867 56.1366 21.5024 61.1792C21.6754 61.3112 21.8486 61.4434 22.0272 61.5795C23.59 62.7302 25.3036 63.6367 27.0103 64.5532C27.3816 64.7536 27.7502 64.9596 28.1179 65.167C32.0895 67.3163 37.3685 68.3977 41.8197 67.3705C42.5897 67.1239 43.302 66.8396 44.0323 66.4929C44.2733 66.3826 44.5145 66.2721 44.7628 66.1583C47.4838 64.8072 49.2694 62.8956 50.8337 60.3291C50.9698 60.1091 51.106 59.8891 51.2463 59.6623C54.0938 54.5642 54.2853 46.9659 52.8296 41.3702C52.7324 41.0297 52.6338 40.6896 52.5341 40.3497C52.4748 40.1383 52.4155 39.927 52.3543 39.7091C50.2943 32.4192 47.1775 25.4048 42.3319 19.5202C42.2409 19.4078 42.15 19.2952 42.0562 19.1793C36.8115 12.712 29.3286 5.99719 20.6522 5.06713C15.1787 4.67745 10.263 6.68826 6.65821 10.859Z" fill="#000345"/>
<path d="M33.0298 10.4766C34.5019 11.5736 35.91 12.7173 37.231 13.994C37.3592 14.1179 37.4876 14.2419 37.6198 14.3696C39.376 16.0744 41.0556 17.7863 42.5447 19.7328C42.76 19.9991 42.76 19.9991 42.9797 20.2707C47.1565 25.5754 50.3496 32.0428 51.9864 38.5896C52.1192 39.1138 52.2597 39.6354 52.4015 40.1572C52.499 40.5181 52.5964 40.8787 52.6937 41.2399C52.7611 41.4879 52.7611 41.4879 52.8298 41.741C53.2347 43.2712 53.4121 44.7201 53.3845 46.301C51.6557 45.8111 49.9714 45.2149 48.2834 44.6006C47.969 44.488 47.969 44.488 47.6483 44.3732C46.7448 44.0484 45.8497 43.7118 44.9607 43.3494C43.8072 42.886 42.6365 42.4896 41.4554 42.1032C41.2522 42.0361 41.0488 41.9689 40.8394 41.8998C40.3452 41.7368 39.8508 41.5744 39.3565 41.4125C39.3327 41.2658 39.3089 41.1194 39.2844 40.9682C38.3628 35.4204 36.0597 31.1376 32.3425 26.9593C32.2162 26.815 32.0897 26.6705 31.9597 26.5217C30.2032 24.6345 27.9498 23.3477 25.541 22.4959C25.3 22.4038 25.0587 22.3118 24.8102 22.217C22.8108 21.831 20.9591 21.9088 19.1646 22.921C18.6985 23.2506 18.3053 23.5896 17.8893 23.9837C16.8685 23.6855 16.3161 23.0802 15.6444 22.2967C14.8765 21.4059 14.8765 21.4059 13.9912 20.6352C13.8165 20.5041 13.8165 20.5041 13.6384 20.3704C13.6384 20.2301 13.6384 20.0898 13.6384 19.9453C13.5241 19.8941 13.4099 19.8429 13.2922 19.7902C12.656 19.4494 12.1034 19.0367 11.5261 18.6037C11.3095 18.4422 11.0928 18.2809 10.8696 18.1147C10.1267 17.5183 9.47868 16.8613 8.82042 16.1752C7.94473 15.2678 7.00103 14.498 5.99505 13.7383C5.56167 13.3564 5.56167 13.3564 5.34912 12.7188C5.75785 12.0199 6.31387 11.4218 6.83694 10.8058C6.98572 10.6258 7.13451 10.4458 7.28775 10.2604C14.3473 2.01809 25.3805 4.89252 33.0298 10.4766Z" fill="#CFFBC1"/>
<path d="M5.34898 12.9313C5.62933 13.1286 5.90798 13.3284 6.18578 13.529C6.34115 13.6402 6.49652 13.7511 6.65657 13.8655C7.04935 14.2066 7.04935 14.2066 7.2619 14.8442C7.54225 14.992 7.82621 15.1329 8.11208 15.2693C8.49806 15.6213 8.49806 15.6213 8.86917 16.0133C9.31828 16.4853 9.68832 16.816 10.2375 17.1823C10.2375 17.3225 10.2375 17.4628 10.2375 17.6073C10.3517 17.6586 10.466 17.7098 10.5838 17.7625C11.2199 18.1032 11.7725 18.516 12.3496 18.9489C12.5664 19.1105 12.7832 19.2718 13.0064 19.438C13.6177 19.9288 14.1571 20.4444 14.701 21.0081C14.8455 21.1528 14.9903 21.2974 15.1393 21.4463C15.9142 22.2213 16.6892 22.9962 17.4641 23.7712C18.2014 23.4173 18.8675 22.9941 19.5481 22.5424C21.1573 21.6489 22.9552 21.6072 24.7247 22.0119C25.3661 22.2164 25.9827 22.4481 26.6036 22.7084C26.7825 22.783 26.9613 22.8574 27.1458 22.9342C32.374 25.3357 36.2502 30.6107 38.2802 35.8829C38.3548 36.0946 38.4294 36.3061 38.5061 36.5239C38.5895 36.7531 38.6728 36.982 38.7584 37.2181C39.7109 40.2203 39.9294 44.1048 38.7021 47.0666C37.1894 49.6784 37.1894 49.6784 36.159 50.0863C35.953 50.1062 35.953 50.1062 35.743 50.1269C35.2648 49.715 35.2648 49.715 34.8929 49.2767C34.6342 49.3819 34.3755 49.4871 34.109 49.5955C31.9676 50.2882 30.0555 50.0533 28.0383 49.0964C23.7795 46.7608 21.0478 43.159 18.9519 38.8619C18.8467 39.1776 18.8467 39.1776 18.7394 39.4996C18.5991 39.4996 18.4588 39.4996 18.3143 39.4996C18.1066 39.1259 17.8992 38.7523 17.6915 38.3788C17.4622 37.9775 17.4622 37.9775 17.039 37.5867C16.8743 37.1354 16.7257 36.6782 16.5873 36.2183C16.5123 35.9732 16.4371 35.7279 16.3599 35.4752C16.1888 34.8236 16.1888 34.8236 16.1888 34.1859C15.9531 34.2488 15.7176 34.312 15.4747 34.3768C13.9769 34.7088 12.4497 34.7976 10.9234 34.9156C10.401 34.9562 9.87876 34.9993 9.35654 35.0427C7.44851 35.1972 5.56408 35.291 3.64862 35.2487C3.51471 34.6999 3.38208 34.1506 3.25009 33.6014C3.21311 33.4505 3.17613 33.2994 3.13808 33.144C2.53488 30.6196 2.28577 28.1809 2.29364 25.591C2.29385 25.4322 2.29406 25.2732 2.29449 25.1096C2.31085 21.3522 2.49747 15.7829 5.34898 12.9313Z" fill="#D1E0F0"/>
<path d="M33.4052 11.0184C35.4042 11.9302 36.9972 13.6903 38.5195 15.2293C38.7061 15.4172 38.8927 15.6051 39.0848 15.7985C40.3229 17.0557 41.4838 18.3212 42.5447 19.7328C42.6871 19.9092 42.8297 20.0856 42.9763 20.2675C47.1569 25.5688 50.3498 32.0434 51.9864 38.5896C52.1192 39.1137 52.2597 39.6353 52.4015 40.1571C52.499 40.518 52.5964 40.8787 52.6937 41.2398C52.7386 41.4052 52.7834 41.5706 52.8298 41.741C53.2347 43.2711 53.4121 44.7201 53.3845 46.301C51.6557 45.8111 49.9714 45.2149 48.2834 44.6006C48.0738 44.5256 47.8643 44.4506 47.6483 44.3732C46.7448 44.0484 45.8498 43.7118 44.9607 43.3494C43.8072 42.886 42.6365 42.4896 41.4554 42.1032C41.2522 42.036 41.0488 41.9689 40.8394 41.8998C40.3452 41.7368 39.8509 41.5744 39.3565 41.4124C39.3327 41.2658 39.3089 41.1193 39.2844 40.9682C38.3048 35.0703 35.6516 29.7942 31.1186 25.8035C30.7556 25.3467 30.7137 24.9862 30.6421 24.4088C30.7477 23.8791 30.7477 23.8791 30.9318 23.3269C31.0306 23.0242 31.0306 23.0242 31.1316 22.7154C31.2379 22.403 31.2379 22.403 31.346 22.0839C31.4145 21.8765 31.4829 21.669 31.5533 21.4552C31.8226 20.6395 32.0974 19.8258 32.3799 19.0146C32.5503 18.4724 32.6551 17.9561 32.741 17.3947C32.9454 16.1781 33.2981 15.0295 33.68 13.8578C33.896 12.8316 33.7334 12.0027 33.4052 11.0184Z" fill="#EFA6F1"/>
<path d="M5.34898 12.9313C5.62933 13.1286 5.90798 13.3284 6.18578 13.529C6.34115 13.6402 6.49652 13.7511 6.65657 13.8655C7.04935 14.2066 7.04935 14.2066 7.2619 14.8442C7.54225 14.992 7.82621 15.1329 8.11208 15.2693C8.49806 15.6213 8.49806 15.6213 8.86917 16.0133C9.31828 16.4853 9.68832 16.816 10.2375 17.1823C10.2375 17.3225 10.2375 17.4628 10.2375 17.6073C10.3517 17.6586 10.466 17.7098 10.5838 17.7625C11.2199 18.1032 11.7725 18.516 12.3496 18.9489C12.5664 19.1105 12.7832 19.2718 13.0064 19.438C13.6177 19.9288 14.1571 20.4444 14.701 21.0081C14.8455 21.1528 14.9903 21.2974 15.1393 21.4463C15.9142 22.2213 16.6892 22.9962 17.4641 23.7712C18.2014 23.4173 18.8675 22.9941 19.5481 22.5424C21.1573 21.6489 22.9552 21.6072 24.7247 22.0119C25.3661 22.2164 25.9827 22.4481 26.6036 22.7084C26.7825 22.783 26.9613 22.8574 27.1458 22.9342C32.374 25.3357 36.2502 30.6107 38.2802 35.8829C38.3548 36.0946 38.4294 36.3061 38.5061 36.5239C38.5895 36.7531 38.6728 36.982 38.7584 37.2181C39.7109 40.2203 39.9294 44.1048 38.7021 47.0666C37.1552 49.7373 37.1552 49.7373 36.129 50.0606C36.0017 50.0824 35.8742 50.1043 35.743 50.1269C35.3222 49.6008 35.3222 49.6008 34.8929 49.0641C34.9904 48.9685 35.088 48.8728 35.1883 48.7744C37.158 46.7098 37.5348 44.26 37.4874 41.4939C37.3004 36.3005 34.74 31.5302 31.0479 27.9473C30.4145 27.4008 29.7337 26.9343 29.0387 26.4694C28.5703 26.1464 28.1518 25.8001 27.7194 25.4316C26.0218 24.1525 23.5867 23.7053 21.5025 23.9837C20.3785 24.3338 19.5717 24.8518 18.7394 25.6841C18.3487 26.3946 18.3487 26.3946 18.1017 27.1719C18.0278 27.3853 17.9538 27.5987 17.8775 27.8187C17.5853 28.8614 17.5952 29.908 17.5969 30.9846C17.5969 31.2003 17.5969 31.416 17.5969 31.6386C17.6254 33.5304 17.9959 35.1413 18.5268 36.949C18.6882 37.7255 18.8259 38.5042 18.9519 39.287C18.6363 39.3922 18.6363 39.3922 18.3143 39.4996C18.1066 39.1259 17.8992 38.7523 17.6915 38.3788C17.4622 37.9775 17.4622 37.9775 17.039 37.5867C16.8743 37.1354 16.7257 36.6782 16.5873 36.2183C16.5123 35.9732 16.4371 35.7279 16.3599 35.4752C16.1888 34.8236 16.1888 34.8236 16.1888 34.1859C15.9531 34.2488 15.7176 34.312 15.4747 34.3768C13.9769 34.7088 12.4497 34.7976 10.9234 34.9156C10.401 34.9562 9.87876 34.9993 9.35654 35.0427C7.44851 35.1972 5.56408 35.291 3.64862 35.2487C3.51471 34.6999 3.38208 34.1506 3.25009 33.6014C3.21311 33.4505 3.17613 33.2994 3.13808 33.144C2.53488 30.6196 2.28577 28.1809 2.29364 25.591C2.29385 25.4322 2.29406 25.2732 2.29449 25.1096C2.31085 21.3522 2.49747 15.7829 5.34898 12.9313Z" fill="#4DFEA2"/>
<path d="M17.7297 3.31356C17.9261 3.31516 18.1227 3.31675 18.3253 3.31839C23.8638 3.40508 28.7483 5.48336 33.1924 8.68035C33.4203 8.84316 33.6483 9.00575 33.8832 9.17345C35.0941 10.0602 36.2352 10.9967 37.3371 12.0154C37.7041 12.3546 38.0765 12.6879 38.4529 13.0167C39.6319 14.0533 40.66 15.1213 41.6303 16.3552C42.0577 16.8921 42.5013 17.4083 42.9553 17.9227C49.1733 25.0364 53.0446 34.3083 54.6596 43.5379C54.6976 43.7368 54.7359 43.9358 54.7752 44.1409C54.951 45.3602 54.9117 46.5919 54.9114 47.8217C54.9119 48.2989 54.9157 48.7759 54.9197 49.253C54.942 54.8706 53.7076 60.2385 50.0441 64.6348C49.7289 64.9852 49.7289 64.9852 49.771 65.4301C49.3344 65.753 48.9017 66.0458 48.4426 66.3334C48.3081 66.4184 48.1733 66.5037 48.0347 66.5912C43.6459 69.3254 39.0415 70.2277 33.9015 69.2285C22.3768 66.2193 13.2484 57.4883 7.29946 47.4324C5.58081 44.4735 4.20883 41.4286 3.01092 38.2242C2.95119 38.0648 2.89125 37.9054 2.82983 37.7411C2.12056 35.8174 1.58197 33.876 1.13775 31.8744C1.09375 31.6774 1.04976 31.4806 1.00448 31.2776C-0.428288 24.4848 0.312647 17.2525 3.8611 11.2309C6.47945 7.23121 10.3297 4.44953 15.0361 3.44921C15.9335 3.30542 16.8226 3.30381 17.7297 3.31356ZM6.65821 10.8589C2.36265 16.3273 1.84021 23.0995 2.43641 29.7944C2.86298 33.3182 3.97587 36.8746 5.5315 40.0623C5.72406 40.4596 5.90239 40.8636 6.0754 41.2696C9.4213 49.0354 14.6867 56.1365 21.5024 61.1792C21.6754 61.3112 21.8486 61.4434 22.0272 61.5794C23.59 62.7301 25.3036 63.6366 27.0103 64.5531C27.3816 64.7536 27.7502 64.9595 28.1179 65.167C32.0895 67.3162 37.3685 68.3977 41.8197 67.3704C42.5897 67.1239 43.302 66.8395 44.0323 66.4928C44.2733 66.3825 44.5145 66.272 44.7628 66.1583C47.4838 64.8071 49.2694 62.8955 50.8337 60.329C50.9698 60.109 51.106 59.889 51.2463 59.6622C54.0938 54.5641 54.2853 46.9658 52.8296 41.3701C52.7324 41.0296 52.6338 40.6895 52.5341 40.3497C52.4748 40.1382 52.4155 39.9269 52.3543 39.7091C50.2943 32.4192 47.1775 25.4047 42.3319 19.5202C42.2409 19.4078 42.15 19.2951 42.0562 19.1793C36.8115 12.7119 29.3286 5.99712 20.6522 5.06707C15.1787 4.67738 10.263 6.6882 6.65821 10.8589Z" fill="#042E5A"/>
<path d="M21.9276 45.451C22.4483 45.9671 22.9635 46.4848 23.462 47.0228C26.163 49.8858 29.2766 51.2611 33.1925 51.4023C33.2525 51.5842 33.3126 51.7662 33.3743 51.9536C34.221 54.4563 35.2157 56.8953 36.2194 59.3383C36.3354 59.621 36.4515 59.9037 36.5675 60.1864C36.6521 60.3928 36.6521 60.3928 36.7386 60.6032C37.1958 61.7216 37.6326 62.847 38.0613 63.9767C38.3587 64.7489 38.6745 65.5126 38.9952 66.2756C39.1438 66.7056 39.1438 66.7056 39.1438 67.3432C38.71 67.3549 38.276 67.363 37.842 67.3698C37.6003 67.3747 37.3586 67.3796 37.1097 67.3847C36.3807 67.3432 36.3807 67.3432 35.758 67.1158C35.0478 66.9007 34.5877 66.9895 33.8671 67.1037C32.9717 67.156 32.1685 66.8386 31.3327 66.5462C31.14 66.4803 30.9474 66.4144 30.7487 66.3466C28.5969 65.5738 26.6461 64.4777 24.6907 63.3048C24.466 63.1733 24.2414 63.0417 24.0099 62.9063C21.379 61.3063 19.0467 59.2612 16.8265 57.141C16.6339 56.9572 16.4414 56.7733 16.2428 56.5839C15.257 55.6228 15.257 55.6228 14.9136 55.2281C14.9136 55.0878 14.9136 54.9475 14.9136 54.803C15.0413 54.7463 15.1688 54.6895 15.3004 54.6311C16.5032 53.9739 17.2414 52.617 17.9689 51.4954C18.3415 50.9366 18.7371 50.4001 19.1379 49.8613C20.1596 48.4696 21.1543 46.9975 21.9276 45.451Z" fill="#ADF9D6"/>
<path d="M16.189 34.1859C16.2283 34.3205 16.2674 34.455 16.308 34.5934C17.4152 38.3138 18.7342 41.923 21.6586 44.6172C21.9277 45.0258 21.9277 45.0258 21.9054 45.6443C21.7067 46.3304 21.4586 46.8099 21.0644 47.4037C20.9303 47.6058 20.7963 47.808 20.6582 48.0163C20.1005 48.8225 19.5285 49.6165 18.9464 50.4051C18.5449 50.9528 18.1559 51.5076 17.7699 52.0663C17.527 52.4122 17.2834 52.7575 17.0392 53.1025C16.9093 53.2866 16.7794 53.4708 16.6455 53.6604C16.5169 53.8358 16.3881 54.0111 16.2553 54.1918C16.1405 54.3501 16.0258 54.5085 15.9076 54.6717C15.5514 55.0154 15.5514 55.0154 14.7012 55.0154C14.3847 54.731 14.3847 54.731 14.0884 54.3295C13.922 54.1083 13.922 54.1083 13.7522 53.8823C13.6357 53.7214 13.5192 53.5605 13.3993 53.3948C13.2769 53.2292 13.1545 53.0636 13.0282 52.8929C12.7789 52.555 12.5309 52.216 12.2841 51.8761C11.988 51.4706 11.6871 51.0701 11.3818 50.6714C8.99601 47.48 6.82656 43.7743 5.44225 40.0309C5.12555 39.1818 4.79738 38.342 4.44583 37.5069C4.10852 36.6748 3.93891 35.9294 3.86133 35.0361C4.06792 35.0414 4.06792 35.0414 4.27877 35.0469C6.15831 35.0727 8.01171 34.9343 9.88254 34.7753C10.4131 34.7302 10.9438 34.6869 11.4743 34.6437C11.8163 34.6155 12.1583 34.5872 12.5003 34.5587C12.7347 34.5394 12.7347 34.5394 12.9738 34.5198C14.0423 34.4284 15.1212 34.1859 16.189 34.1859Z" fill="#8DEFEC"/>
<path d="M17.2517 5.27966C17.2829 5.39858 17.3142 5.51747 17.3463 5.63998C17.6466 6.713 18.013 7.72627 18.4607 8.7467C19.5638 11.2635 20.5219 13.8429 21.4229 16.4383C22.3949 19.5438 22.3949 19.5438 24.5182 21.8051C24.7155 21.8927 24.9127 21.9804 25.1159 22.0708C24.6908 22.2833 24.6908 22.2833 24.0532 22.0708C21.9107 21.8876 20.0922 22.1163 18.3941 23.5055C18.2275 23.6634 18.0611 23.8211 17.8893 23.9837C16.8685 23.6855 16.3161 23.0802 15.6444 22.2965C14.8765 21.4059 14.8765 21.4059 13.9912 20.6352C13.8165 20.5041 13.8165 20.5041 13.6384 20.3704C13.6384 20.2301 13.6384 20.0899 13.6384 19.9453C13.5241 19.8941 13.4099 19.8429 13.2922 19.7902C12.656 19.4495 12.1034 19.0367 11.5261 18.6037C11.3095 18.4422 11.0928 18.2809 10.8696 18.1147C10.1267 17.5183 9.47868 16.8613 8.82042 16.1752C7.94473 15.2678 7.00103 14.498 5.99505 13.7383C5.56167 13.3564 5.56167 13.3564 5.34912 12.7188C5.75785 12.0199 6.31387 11.4218 6.83694 10.8058C6.98572 10.6258 7.13451 10.4458 7.28775 10.2605C9.60004 7.5607 13.5289 4.9778 17.2517 5.27966Z" fill="#6FF7EF"/>
<path d="M48.2835 29.0848C50.0776 32.4213 51.2464 35.862 52.2819 39.4995C52.3438 39.7151 52.4054 39.9306 52.4689 40.1525C53.0296 42.1785 53.4658 44.1913 53.3846 46.301C51.6557 45.8111 49.9715 45.2149 48.2835 44.6006C48.0739 44.5256 47.8643 44.4506 47.6484 44.3732C46.7449 44.0484 45.8498 43.7118 44.9608 43.3494C43.8073 42.886 42.6366 42.4896 41.4555 42.1032C41.2523 42.0361 41.0488 41.9689 40.8395 41.8998C40.3453 41.7368 39.8509 41.5744 39.3566 41.4125C39.3328 41.2658 39.309 41.1191 39.2843 40.9678C38.8822 38.5439 38.3172 36.1976 37.2211 33.9891C37.0186 33.5483 37.0186 33.5483 37.0186 33.1232C42.5524 30.9012 42.5524 30.9012 44.5299 30.1533C45.2772 29.8646 46.0141 29.552 46.7491 29.2334C47.282 29.0655 47.7281 29.0584 48.2835 29.0848Z" fill="#C6C2E3"/>
<path d="M18.5267 37.5866C18.9078 38.1584 19.2014 38.7307 19.4966 39.3493C20.367 41.1621 21.3547 42.781 22.5651 44.3881C22.6722 44.5396 22.7794 44.6912 22.8897 44.8472C24.5371 46.9754 27.6097 49.07 30.2168 49.7017C31.7826 49.8866 33.0489 49.7391 34.5076 49.1655C34.8928 49.0641 34.8928 49.0641 35.4373 49.3166C35.743 49.7017 35.743 49.7017 35.743 50.1268C36.2339 49.8463 36.7249 49.5657 37.2308 49.2766C37.3694 49.5117 37.3694 49.5117 37.5105 49.7515C37.8223 50.2637 38.1469 50.7532 38.4929 51.2427C38.6234 51.4278 38.7541 51.6131 38.8888 51.804C39.0432 52.0221 39.1973 52.2402 39.3562 52.4648C39.5454 52.7337 39.7344 53.0028 39.9233 53.2719C42.0983 56.3657 44.2994 59.4395 46.5828 62.4545C46.6954 62.6118 46.8081 62.769 46.9239 62.931C47.2632 63.3584 47.5711 63.5232 48.0706 63.7298C46.5579 65.4442 44.4461 66.3596 42.3319 67.1305C42.1185 67.2098 41.9051 67.2888 41.6851 67.3705C40.5059 67.6959 39.2668 67.6083 38.0544 67.5955C37.6824 67.5953 37.6824 67.5953 37.303 67.5951C36.2556 67.5896 35.2796 67.5785 34.2551 67.343C34.2551 67.2028 34.2551 67.0625 34.2551 66.9179C34.6058 66.8478 34.9565 66.7777 35.3179 66.7054C35.3179 66.8457 35.3179 66.986 35.3179 67.1305C36.5804 67.2006 37.8429 67.2708 39.1437 67.343C38.8829 66.652 38.6217 65.9613 38.3598 65.2707C38.2878 65.0792 38.2155 64.8877 38.1411 64.6905C37.6705 63.45 37.1728 62.2239 36.659 61.0007C36.1542 59.7832 35.6777 58.5545 35.1984 57.3268C34.9988 56.8169 34.7993 56.3072 34.5997 55.7975C34.5057 55.5563 34.4116 55.3151 34.3149 55.0666C34.1408 54.6262 33.9633 54.1873 33.7812 53.7503C33.7034 53.5633 33.6256 53.3764 33.5452 53.1839C33.4768 53.023 33.4084 52.8623 33.3378 52.6965C33.1924 52.2523 33.1924 52.2523 33.1924 51.4021C33.0404 51.4119 32.8883 51.4219 32.7316 51.4321C29.5694 51.5466 27.0171 50.4159 24.664 48.3601C23.6842 47.4428 22.7853 46.4825 21.9275 45.4508C21.8395 45.3464 21.7517 45.2423 21.6612 45.1348C17.7892 40.5132 17.7892 40.5132 17.2515 38.0117C17.3917 37.9416 17.532 37.8714 17.6766 37.7992C18.3142 39.0213 18.3142 39.0213 18.3142 39.4995C18.4545 39.4294 18.5948 39.3592 18.7393 39.287C18.6691 38.7259 18.599 38.1647 18.5267 37.5866Z" fill="#47E3FC"/>
<path d="M32.8781 2.85317C34.8022 3.67906 36.5579 4.75308 38.2937 5.91724C38.6172 6.13382 38.6172 6.13382 38.9471 6.35478C42.6866 8.98066 46.1539 12.2764 48.921 15.9069C49.1183 16.1594 49.3157 16.4117 49.513 16.664C54.9773 23.7235 59.0348 32.0075 60.8236 40.7748C60.8623 40.9556 60.9012 41.1367 60.9411 41.3231C61.3225 43.2992 61.3422 45.2652 61.3418 47.2706C61.342 47.45 61.3422 47.6292 61.3424 47.8136C61.3375 50.4881 61.2005 52.9339 60.186 55.4404C60.0912 55.6787 59.9964 55.9172 59.8986 56.1627C58.7666 58.6735 56.9493 60.8308 54.4472 62.0294C54.7882 61.1879 55.3788 60.6219 56.0014 59.9836C57.7959 58.0726 58.4924 56.0589 59.1232 53.5275C59.1613 53.397 59.1993 53.2667 59.2384 53.1324C59.6748 51.4907 59.6418 49.8073 59.6414 48.1208C59.6416 47.9571 59.6419 47.7932 59.6421 47.6243C59.6359 44.5419 59.2654 41.6381 58.4856 38.6493C58.4344 38.4529 58.3834 38.2567 58.3307 38.0544C57.74 35.8505 57.0097 33.7112 56.1081 31.6142C55.9261 31.1894 55.7501 30.7624 55.5739 30.3351C53.8128 26.1488 51.4903 22.0703 48.7351 18.4574C48.5686 18.2385 48.5686 18.2385 48.3988 18.0151C48.1778 17.7254 47.9559 17.4359 47.7333 17.1471C47.4798 16.8177 47.2287 16.4861 46.9782 16.1543C44.6302 13.15 41.7959 10.4965 38.7188 8.25524C38.5467 8.12431 38.3747 7.99338 38.1975 7.85842C32.6617 3.77254 26.6086 2.13462 19.8022 2.09141C23.2512 -0.618529 29.2029 1.36342 32.8781 2.85317Z" fill="#3A5C86"/>
<path d="M22.1402 2.02503C22.3887 2.02161 22.6372 2.01819 22.8933 2.01466C24.7484 2.01362 26.7195 2.09787 28.3041 3.15418C28.1638 3.29446 28.0235 3.43474 27.879 3.57927C27.2796 3.5743 27.2796 3.5743 26.5771 3.49957C26.3442 3.476 26.1114 3.45245 25.8715 3.42817C25.6923 3.4079 25.5131 3.38762 25.3284 3.36673C25.5067 3.42919 25.6851 3.49166 25.8689 3.55602C33.5962 6.43821 40.2251 12.1478 45.0535 18.748C45.2225 18.9789 45.3923 19.209 45.5628 19.4388C50.8322 26.547 54.4965 34.4248 56.1476 43.1128C56.2081 43.4274 56.2081 43.4274 56.2698 43.7481C56.5807 45.5322 56.6517 47.2817 56.6515 49.0875C56.6524 49.567 56.66 50.0461 56.6681 50.5254C56.6847 52.6559 56.3833 54.4738 55.7225 56.5032C55.6655 56.6805 55.6083 56.8577 55.5497 57.0403C55.3252 57.7122 55.0814 58.3772 54.8415 59.0438C54.5941 59.6929 54.5941 59.6929 54.8723 60.329C54.806 60.7276 54.806 60.7276 54.6597 61.1792C54.5945 61.423 54.5945 61.423 54.5278 61.6715C54.1252 62.4549 53.5137 62.8409 52.8 63.3179C52.6707 63.4073 52.5413 63.4968 52.408 63.5891C52.0272 63.8516 51.6437 64.1102 51.259 64.3674C51.1334 64.4516 51.0078 64.5355 50.8783 64.6222C50.5804 64.8212 50.2822 65.0195 49.9837 65.2176C49.8435 65.1474 49.7032 65.0773 49.5586 65.005C49.6715 64.8512 49.7844 64.6971 49.9006 64.5385C50.0509 64.333 50.201 64.1274 50.3557 63.9157C50.5036 63.7136 50.6516 63.5113 50.804 63.303C53.9256 58.9394 54.7558 53.8436 54.7528 48.5727C54.7528 48.3385 54.7528 48.3385 54.7531 48.0996C54.718 36.8971 49.3595 25.8033 42.2403 17.3661C41.9144 16.9786 41.5931 16.5877 41.2728 16.1958C40.3452 15.0689 39.4187 13.9959 38.2822 13.0707C37.8937 12.74 37.5475 12.3948 37.1961 12.0254C36.347 11.1695 35.4161 10.4628 34.4413 9.75628C34.2628 9.62642 34.0845 9.49655 33.9006 9.36265C28.7557 5.65077 23.9541 4.04368 17.6768 3.36673C19.0415 1.90449 20.218 2.01986 22.1402 2.02503Z" fill="#000442"/>
<path d="M25.9658 6.55493C28.4543 7.42637 32.383 9.11377 33.7886 11.4409C34.3933 12.9649 33.6987 14.5273 33.1998 16.0124C33.0266 16.5988 32.8986 17.1531 32.7873 17.7518C32.508 19.2059 32.0425 20.5976 31.5938 22.0064C31.2535 23.0938 30.9702 24.1244 30.8544 25.259C30.1596 24.931 29.5309 24.537 28.8883 24.1165C27.938 23.5055 26.9869 22.9775 25.9658 22.4959C26.0003 22.3781 26.0349 22.2602 26.0704 22.1388C26.42 20.5419 26.1609 18.7886 25.9658 17.1822C26.1061 17.1822 26.2464 17.1822 26.3909 17.1822C26.3909 13.8155 26.3909 10.4488 26.3909 6.98002C26.2506 6.98002 26.1104 6.98002 25.9658 6.98002C25.9658 6.83974 25.9658 6.69946 25.9658 6.55493Z" fill="#F7D4C1"/>
<path d="M25.5411 30.5726C28.2687 31.4972 30.2026 33.5867 31.4923 36.0988C32.4535 38.0574 33.0174 39.623 32.7676 41.8375C32.3232 43.0252 31.5729 43.828 30.4296 44.3881C28.7762 44.5303 27.5228 43.7022 26.285 42.6694C23.3021 39.7975 22.3556 36.577 22.2549 32.5204C22.3731 31.7091 22.6358 31.3652 23.203 30.7851C23.9389 30.4172 24.7351 30.4984 25.5411 30.5726Z" fill="#D3E1F2"/>
<path d="M26.1072 28.79C27.5534 29.3111 28.6578 30.1925 29.7919 31.2102C29.9724 31.3681 30.1526 31.5258 30.3384 31.6884C31.8143 33.0606 32.7195 34.5346 33.6178 36.3113C33.7867 36.6121 33.7867 36.6121 33.9591 36.919C35.1455 39.2721 35.0289 42.3317 34.2554 44.8132C33.7381 45.8079 33.0375 46.6965 31.9399 47.0649C29.6933 47.4982 28.1925 46.9864 26.3266 45.7688C23.0827 43.4397 20.9645 39.3531 20.2274 35.4611C19.96 33.4738 20.0433 31.5866 21.2901 29.9349C22.6646 28.4898 24.1973 28.3504 26.1072 28.79ZM22.5654 31.4228C21.6903 33.1731 22.4527 36.0254 22.9905 37.7991C24.0283 40.6232 26.0348 42.8416 28.7292 44.1755C28.8695 44.2457 29.0098 44.3158 29.1543 44.3881C29.9401 44.4773 30.3652 44.4195 31.0806 44.0692C32.036 43.256 32.66 42.5083 32.8632 41.2422C32.9718 38.3526 31.5631 35.5982 29.6857 33.4685C28.2306 31.9278 26.8095 30.579 24.598 30.5063C23.6708 30.5137 23.2143 30.7333 22.5654 31.4228Z" fill="#022E5D"/>
<path d="M26.6033 22.7084C26.8718 22.8202 26.8718 22.8202 27.1455 22.9341C32.3737 25.3357 36.2501 30.6106 38.2802 35.8828C38.3545 36.0945 38.4291 36.306 38.5059 36.5239C38.5892 36.753 38.6725 36.9819 38.7584 37.218C39.7106 40.2203 39.9293 44.1047 38.7018 47.0666C37.1551 49.7372 37.1551 49.7372 36.129 50.0605C36.0014 50.0824 35.8741 50.1043 35.7428 50.1268C35.4622 49.7761 35.1817 49.4254 34.8926 49.0641C34.9902 48.9684 35.0877 48.8728 35.1882 48.7744C37.1577 46.7097 37.5345 44.2599 37.4871 41.4938C37.3001 36.3005 34.7398 31.5301 31.0476 27.9472C30.4143 27.4008 29.7335 26.9342 29.0384 26.4694C28.5702 26.1463 28.1515 25.8001 27.7192 25.4315C26.0216 24.1524 23.5864 23.7052 21.5022 23.9837C20.3785 24.3337 19.5714 24.8517 18.7391 25.684C18.3487 26.3946 18.3487 26.3946 18.1015 27.1719C18.0275 27.3852 17.9535 27.5986 17.8772 27.8186C17.585 28.8614 17.5952 29.908 17.5967 30.9843C17.5967 31.2002 17.5967 31.416 17.5969 31.6385C17.6252 33.5304 17.9956 35.1413 18.5266 36.949C18.6879 37.7254 18.8256 38.5042 18.9517 39.287C18.636 39.3922 18.636 39.3922 18.314 39.4995C18.1066 39.1259 17.8989 38.7522 17.6913 38.3788C17.4619 37.9775 17.4619 37.9775 17.0387 37.5866C15.4925 34.2112 15.0952 29.9471 16.2085 26.3856C16.9612 24.4749 18.1708 23.0993 20.0369 22.2253C22.2332 21.383 24.4995 21.8263 26.6033 22.7084Z" fill="#04315D"/>
<path d="M5.34924 12.9313C5.62958 13.1286 5.90823 13.3284 6.18624 13.529C6.3414 13.6402 6.49677 13.7511 6.65682 13.8655C7.0496 14.2066 7.0496 14.2066 7.26215 14.8442C7.5425 14.992 7.82646 15.1329 8.11233 15.2693C8.49831 15.6213 8.49831 15.6213 8.86942 16.0133C9.31853 16.4853 9.68857 16.816 10.2378 17.1823C10.2378 17.3225 10.2378 17.4628 10.2378 17.6073C10.3521 17.6586 10.4663 17.7098 10.584 17.7625C11.2202 18.1032 11.7728 18.516 12.3501 18.9489C12.5667 19.1105 12.7835 19.2718 13.0066 19.438C13.6179 19.9288 14.1573 20.4444 14.7013 21.0081C14.846 21.1528 14.9905 21.2974 15.1395 21.4463C15.4235 21.7303 15.7068 22.0145 15.9897 22.2991C16.2388 22.5467 16.4905 22.7916 16.747 23.0315C16.9972 23.2668 17.2327 23.5176 17.4644 23.7712C17.4644 24.4088 17.4644 24.4088 17.0792 25.0333C16.4433 26.083 16.2339 27.2595 15.9765 28.4472C15.7574 28.2805 15.5383 28.1141 15.3123 27.9424C14.5285 27.3541 13.7335 26.7827 12.9346 26.2155C10.275 24.3234 7.65068 22.3843 5.07101 20.3845C4.39597 19.8661 3.70923 19.3696 3.01123 18.8826C3.23207 17.5334 3.66311 16.3293 4.18023 15.07C4.27864 14.8285 4.27864 14.8285 4.37918 14.582C4.86931 13.4113 4.86931 13.4113 5.34924 12.9313Z" fill="#2FFEB7"/>
<path d="M24.6909 3.15411C26.316 3.23014 27.6974 3.50985 29.2075 4.11057C29.4001 4.18577 29.5927 4.26099 29.7912 4.33848C31.543 5.04579 33.1164 5.92658 34.6806 6.97994C34.8819 7.11501 35.0833 7.25008 35.2908 7.38926C39.2684 10.1777 43.0232 13.7289 45.9455 17.6072C46.0932 17.7938 46.2409 17.9805 46.3929 18.1726C51.8041 25.1352 55.5039 33.2653 57.423 41.8375C57.4806 42.0942 57.538 42.351 57.5973 42.6154C58.6721 48.6017 57.7756 54.6888 54.6599 59.9039C54.4473 59.4788 54.4473 59.4788 54.6291 58.8985C54.815 58.4158 55.001 57.9331 55.187 57.4504C56.1067 54.8429 56.5127 52.519 56.4797 49.768C56.4791 49.6081 56.4782 49.4483 56.4776 49.2834C56.4559 46.0841 56.0236 43.0441 55.2975 39.9245C55.252 39.7252 55.2068 39.5256 55.16 39.3201C54.6773 37.2367 54.066 35.2823 53.1721 33.3356C53.0324 33.0164 52.8932 32.6971 52.7544 32.3775C50.1282 26.3718 46.8206 20.5988 42.3554 15.7566C41.9564 15.3228 41.5719 14.8809 41.1898 14.4322C36.9008 9.54473 30.9574 5.2445 24.6909 3.36666C24.6909 3.29652 24.6909 3.22638 24.6909 3.15411Z" fill="#125376"/>
<path d="M38.5062 46.7261C38.7339 46.9542 38.7339 46.9542 38.9662 47.1869C39.3534 47.5742 39.742 47.9598 40.1318 48.3442C40.4187 48.6282 40.4187 48.6282 40.7114 48.9179C40.9016 49.1058 41.0916 49.2935 41.2876 49.4867C41.7397 49.9434 42.1616 50.4181 42.5792 50.9063C43.399 51.8466 44.2713 52.7235 45.16 53.5982C45.4933 53.9287 45.8263 54.2594 46.1596 54.5899C46.6797 55.1047 47.2002 55.6193 47.7212 56.1334C48.2279 56.6335 48.7331 57.1349 49.2381 57.6365C49.3952 57.7906 49.552 57.9447 49.7138 58.1035C49.8579 58.247 50.002 58.3902 50.1506 58.5379C50.3412 58.7265 50.3412 58.7265 50.5359 58.9186C50.8339 59.2663 50.8339 59.2663 51.0464 59.904C50.3406 61.3202 49.3444 62.5653 48.2833 63.7298C46.9923 63.456 46.5422 62.8446 45.8259 61.8169C45.7171 61.6664 45.6082 61.5157 45.4962 61.3606C45.2652 61.04 45.0354 60.7187 44.8069 60.3962C44.4641 59.9131 44.1166 59.4336 43.7676 58.955C42.5063 57.2238 41.2642 55.479 40.0349 53.7251C39.5696 53.0623 39.1018 52.4032 38.6142 51.7567C38.4601 51.552 38.3062 51.3473 38.1475 51.1365C38.0153 50.9643 37.8828 50.7924 37.7466 50.6151C37.4093 50.0718 37.2684 49.7024 37.231 49.0641C37.4352 48.6108 37.4352 48.6108 37.7358 48.1874C38.0909 47.6775 38.3069 47.3242 38.5062 46.7261Z" fill="#5AEBFD"/>
<path d="M48.2835 29.0848C48.5547 29.6155 48.8246 30.1471 49.0937 30.6789C49.1696 30.8268 49.2453 30.9747 49.3235 31.1271C50.7365 33.9276 50.7365 33.9277 50.6215 35.4612C47.8595 35.8219 45.0923 36.0078 42.3126 36.163C42.1677 36.1715 42.0227 36.1798 41.8735 36.1883C41.4752 36.2112 41.0769 36.2331 40.6784 36.255C40.0792 36.3043 39.517 36.3908 38.9315 36.5239C38.9315 36.8746 38.9315 37.2253 38.9315 37.5866C38.3933 37.0485 38.2415 36.5452 37.975 35.8331C37.8851 35.5953 37.7952 35.3574 37.7027 35.1124C37.4634 34.4526 37.2368 33.7901 37.0186 33.1232C42.5524 30.9012 42.5524 30.9012 44.5299 30.1533C45.2772 29.8646 46.0141 29.552 46.7491 29.2334C47.282 29.0655 47.7281 29.0584 48.2835 29.0848Z" fill="#F5D7C2"/>
<path d="M3.01108 18.8825C3.72141 19.2064 4.30421 19.6183 4.92399 20.0915C5.25854 20.345 5.25854 20.345 5.59988 20.6037C5.72635 20.6998 5.85281 20.7961 5.98332 20.8951C6.84136 21.5466 7.70282 22.1938 8.56384 22.8412C8.73876 22.9732 8.91348 23.1052 9.0935 23.2412C10.1513 24.0365 11.2226 24.8081 12.3091 25.5635C12.8938 25.9698 13.473 26.3828 14.0503 26.7998C14.2407 26.9369 14.4312 27.0738 14.6273 27.2149C14.7919 27.341 14.9566 27.467 15.1262 27.5969C15.2537 27.6923 15.381 27.7875 15.5124 27.8857C15.892 28.412 15.8057 28.8811 15.7638 29.5098C15.3785 29.4178 14.9931 29.3247 14.6082 29.2309C14.3935 29.1791 14.1791 29.1272 13.958 29.0739C11.793 28.4875 9.69182 27.666 7.58188 26.9085C5.92891 26.3154 4.27721 25.736 2.58598 25.2589C2.58598 25.6797 2.58598 26.1006 2.58598 26.5342C2.51584 26.5342 2.4457 26.5342 2.37344 26.5342C2.26653 20.3716 2.26653 20.3716 3.01108 18.8825Z" fill="#98FDB2"/>
<path d="M24.6909 28.6597C24.6909 28.8 24.6909 28.9403 24.6909 29.0848C24.8913 29.1316 24.8913 29.1316 25.096 29.1794C26.4916 29.5452 27.4321 30.0589 28.5167 30.9977C28.6876 31.1382 28.8585 31.2789 29.0347 31.4236C31.2894 33.3451 33.2061 35.906 33.8304 38.8619C33.8756 39.4991 33.8697 40.1361 33.8701 40.7748C33.8727 40.9463 33.8754 41.1179 33.878 41.2945C33.8784 41.4605 33.8788 41.6267 33.8793 41.7978C33.8801 41.9481 33.881 42.0986 33.882 42.2535C33.8223 42.7553 33.6529 43.1009 33.4053 43.5379C33.4053 43.3275 33.4053 43.1171 33.4053 42.9003C32.9844 43.1107 32.9844 43.1107 32.5551 43.3254C32.5649 43.061 32.5747 42.7966 32.5849 42.5241C32.6382 40.5019 32.6393 38.7916 31.7049 36.949C31.5695 36.6593 31.5695 36.6593 31.4316 36.3636C30.3151 34.1274 28.6083 32.1916 26.3913 30.9977C25.4797 30.7261 24.5702 30.6304 23.6282 30.7852C22.9944 31.2591 22.9944 31.2591 22.5654 31.8479C22.4252 31.9882 22.2849 32.1285 22.1404 32.273C21.4832 34.2106 21.86 36.78 22.7074 38.5954C23.4694 40.1236 24.3149 41.4834 25.5411 42.6877C25.6601 42.8072 25.7794 42.9266 25.9022 43.0497C25.9934 43.1407 26.0846 43.2316 26.1787 43.3254C25.7579 43.5358 25.7579 43.5358 25.3285 43.7505C25.8897 44.1713 26.4508 44.5921 27.0289 45.0257C26.7133 45.1309 26.7133 45.1309 26.3913 45.2383C23.2467 43.4884 21.5535 40.0704 20.5344 36.7613C20.0009 34.825 19.8266 32.7198 20.6791 30.8517C21.6906 29.1398 22.7716 28.6287 24.6909 28.6597Z" fill="#052B5A"/>
<path d="M21.5025 46.301C21.5726 46.301 21.6428 46.301 21.715 46.301C21.7265 46.9476 21.735 47.5939 21.7416 48.2405C21.7452 48.4224 21.7488 48.6044 21.7524 48.7918C21.7605 49.8399 21.6413 50.6191 21.29 51.6147C21.26 52.1499 21.2432 52.6859 21.2368 53.2219C21.1771 54.958 20.616 56.2477 19.8021 57.7785C19.6555 58.1307 19.512 58.4844 19.377 58.8412C19.6576 59.1919 19.9382 59.5426 20.2272 59.904C19.404 59.5618 18.8093 59.0049 18.1681 58.403C18.0571 58.2997 17.9462 58.1964 17.8316 58.0899C15.5387 55.9464 15.5387 55.9464 14.9136 55.228C14.9136 55.0877 14.9136 54.9474 14.9136 54.8029C15.0413 54.7461 15.1688 54.6894 15.3004 54.6309C16.5028 53.9739 17.2403 52.6179 17.9681 51.4967C18.346 50.9294 18.746 50.3828 19.1513 49.8346C19.8908 48.829 20.563 47.7937 21.216 46.7304C21.3106 46.5886 21.4052 46.447 21.5025 46.301Z" fill="#D9E3E5"/>
<path d="M18.5267 37.5866C18.9078 38.1584 19.2014 38.7307 19.4966 39.3493C20.367 41.1621 21.3547 42.781 22.5651 44.3881C22.6722 44.5396 22.7794 44.6912 22.8897 44.8472C24.5371 46.9754 27.6097 49.07 30.2168 49.7017C31.915 49.9022 33.3161 49.7053 34.8928 49.0641C35.2435 49.4148 35.5942 49.7655 35.9555 50.1268C34.6097 51.2212 32.9718 51.5315 31.2629 51.4761C27.2526 50.9989 24.4134 48.4405 21.9275 45.4508C21.8395 45.3464 21.7517 45.2423 21.6612 45.1348C17.7892 40.5132 17.7892 40.5132 17.2515 38.0117C17.3917 37.9416 17.532 37.8714 17.6766 37.7992C18.3142 39.0213 18.3142 39.0213 18.3142 39.4995C18.4545 39.4294 18.5948 39.3592 18.7393 39.287C18.6691 38.7259 18.599 38.1647 18.5267 37.5866Z" fill="#04BCCD"/>
<path d="M24.6907 28.6596C27.325 28.8313 29.0702 30.4962 30.8545 32.2729C30.9948 32.4057 31.1351 32.5386 31.2796 32.6757C33.3868 34.8364 34.76 37.9768 34.7335 40.9607C34.736 41.2349 34.736 41.2349 34.7383 41.5144C34.7324 43.4838 34.4066 45.0735 32.9799 46.5135C31.7323 47.312 30.3933 47.346 28.9416 47.1511C26.7071 46.4182 24.9081 44.8331 23.6279 42.9002C24.0398 43.0728 24.0398 43.0728 24.4781 43.3253C24.5483 43.5357 24.6184 43.7461 24.6907 43.9629C25.0703 44.1833 25.0703 44.1833 25.5408 44.388C26.1296 44.76 26.7113 45.1417 27.2935 45.5238C28.5552 46.2826 29.61 46.4784 31.067 46.3009C31.8505 46.0665 32.3631 45.7309 32.8271 45.0531C33.9141 42.9997 33.9691 40.3046 33.425 38.0714C33.1712 37.3882 32.8862 36.7476 32.5549 36.0987C32.4626 35.914 32.3702 35.7293 32.2751 35.5391C30.5748 32.4487 27.9541 30.3085 24.6907 29.0847C24.6907 28.9444 24.6907 28.8041 24.6907 28.6596Z" fill="#027CB3"/>
<path d="M21.5022 32.9107C21.5723 32.9107 21.6425 32.9107 21.7147 32.9107C21.746 33.3109 21.746 33.3109 21.7778 33.7194C22.0125 36.4913 22.0125 36.4913 22.99 39.0745C23.0689 39.2367 23.1479 39.3989 23.2291 39.5659C23.9794 41.027 25.0168 42.1781 26.1782 43.3255C25.8976 43.4657 25.6171 43.606 25.328 43.7505C25.8891 44.1714 26.4502 44.5922 27.0284 45.0258C26.7127 45.131 26.7127 45.131 26.3907 45.2384C23.3286 43.5344 21.5991 40.1825 20.5765 36.9582C20.3364 35.8247 20.3727 34.6999 20.4394 33.5483C20.72 33.6185 21.0006 33.6886 21.2896 33.7609C21.3598 33.4803 21.4299 33.1998 21.5022 32.9107Z" fill="#012357"/>
<path d="M18.5267 37.5866C18.9078 38.1584 19.2014 38.7307 19.4966 39.3493C20.367 41.1621 21.3547 42.781 22.5651 44.3881C22.6722 44.5396 22.7794 44.6912 22.8897 44.8472C24.4889 46.9129 27.2898 48.7761 29.7917 49.4892C29.7917 49.5593 29.7917 49.6295 29.7917 49.7017C27.8441 49.6388 26.4898 48.8955 25.0493 47.6028C24.5341 47.0868 24.5341 47.0868 23.9873 47.2052C23.2389 47.1346 22.9847 46.7905 22.5122 46.2336C22.4068 46.1025 22.3016 45.9713 22.1932 45.8359C22.0265 45.6342 22.0265 45.6342 21.8563 45.4285C17.6842 40.3102 17.6842 40.3102 17.2515 38.0117C17.3917 37.9416 17.532 37.8714 17.6766 37.7992C18.3142 39.0213 18.3142 39.0213 18.3142 39.4995C18.4545 39.4294 18.5948 39.3592 18.7393 39.287C18.6691 38.7259 18.599 38.1647 18.5267 37.5866Z" fill="#0AB9D4"/>
<path d="M22.1402 32.0604C22.2104 32.0604 22.2805 32.0604 22.3528 32.0604C22.3761 32.3274 22.3993 32.5941 22.4233 32.8692C22.6537 35.6029 22.6537 35.6029 23.4155 38.2243C23.4799 38.3922 23.5443 38.5601 23.6106 38.7333C24.6138 41.0328 26.3998 42.8278 28.6005 43.9862C29.2501 44.2083 29.7472 44.234 30.4295 44.1755C31.3517 43.6775 31.9439 43.109 32.555 42.2626C32.4961 43.1064 32.3919 43.4792 31.8376 44.1356C30.9585 44.8684 30.2735 44.902 29.1542 44.8132C26.4198 44.0929 24.4629 42.1153 23.0561 39.7435C21.9402 37.6627 21.4647 35.4877 21.7151 33.1232C21.9311 32.5238 21.9311 32.5238 22.1402 32.0604Z" fill="#07A0D7"/>
<path d="M23.6279 42.9003C24.0398 43.0729 24.0398 43.0729 24.4781 43.3254C24.5483 43.5358 24.6184 43.7462 24.6907 43.963C25.0703 44.1834 25.0703 44.1834 25.5408 44.3881C26.1296 44.76 26.7113 45.1418 27.2935 45.5239C28.5505 46.2797 29.6141 46.4868 31.067 46.301C32.0101 45.9603 32.6312 45.4277 33.1925 44.6006C33.3328 44.6006 33.4731 44.6006 33.6176 44.6006C33.6877 44.3902 33.7579 44.1798 33.8301 43.963C34.0406 43.963 34.251 43.963 34.4678 43.963C34.1158 45.3067 33.5226 46.1813 32.3291 46.9121C31.0647 47.3684 29.6445 47.3818 28.372 46.9644C26.3915 46.0296 24.8346 44.7222 23.6279 42.9003Z" fill="#1AC3F0"/>
<path d="M25.9658 6.55493C26.2464 6.62507 26.5269 6.69521 26.816 6.76748C27.0649 7.55432 27.0541 8.2976 27.0528 9.11887C27.0528 9.26829 27.0528 9.41771 27.0528 9.5716C27.0526 10.0639 27.0511 10.5561 27.0494 11.0484C27.049 11.3901 27.0485 11.7321 27.0483 12.0739C27.0477 12.9728 27.0456 13.8714 27.0432 14.77C27.0409 15.6876 27.04 16.6052 27.039 17.5227C27.0366 19.3221 27.033 21.1216 27.0285 22.921C26.6778 22.7807 26.3271 22.6404 25.9658 22.4959C26.0003 22.3781 26.0349 22.2602 26.0704 22.1388C26.42 20.5419 26.1609 18.7886 25.9658 17.1822C26.1061 17.1822 26.2464 17.1822 26.3909 17.1822C26.3909 13.8155 26.3909 10.4488 26.3909 6.98002C26.2506 6.98002 26.1104 6.98002 25.9658 6.98002C25.9658 6.83974 25.9658 6.69946 25.9658 6.55493Z" fill="#F5F1B4"/>
<path d="M24.266 45.2383C24.4632 45.2734 24.6605 45.3084 24.8639 45.3446C25.5319 45.4672 25.5319 45.4672 26.1789 45.4508C26.5243 45.6899 26.5243 45.6899 26.8165 46.0885C26.8429 46.3033 26.8692 46.518 26.8962 46.7393C26.94 46.9455 26.984 47.1514 27.0291 47.3637C27.4948 47.6022 27.4948 47.6022 28.0918 47.7888C28.3286 47.8768 28.5654 47.9648 28.8091 48.0554C29.0633 48.1472 29.3178 48.239 29.5796 48.3334C29.9609 48.472 29.9609 48.472 30.3501 48.6133C30.9465 48.8114 31.5119 48.96 32.1302 49.0641C32.1302 49.1342 32.1302 49.2044 32.1302 49.2767C30.9499 49.3411 30.0978 49.2193 29 48.7784C28.5033 48.6046 28.5033 48.6046 27.9116 48.6847C26.9687 48.6203 26.5013 48.1812 25.7938 47.5895C25.6694 47.49 25.5451 47.3903 25.4171 47.2879C24.5727 46.6077 24.5727 46.6077 24.266 46.301C24.2573 45.9469 24.2568 45.5924 24.266 45.2383Z" fill="#C6D9EA"/>
<path d="M24.5181 47.0584C25.0541 47.3324 25.3702 47.5751 25.8065 47.9749C27.106 49.1279 28.5061 49.5775 30.2169 49.7018C30.1686 49.8289 30.1204 49.956 30.0706 50.0872C30.0487 50.2404 30.0268 50.3939 30.0043 50.552C30.2921 50.9286 30.2921 50.9286 30.6419 51.1896C28.1849 50.976 26.0244 49.7949 24.307 48.0329C24.0688 47.7487 23.8458 47.4516 23.6279 47.1513C24.053 46.9387 24.053 46.9387 24.5181 47.0584Z" fill="#03CAA7"/>
<path d="M15.3387 29.7225C15.479 29.7225 15.6193 29.7225 15.7638 29.7225C15.8055 30.4619 15.8446 31.2014 15.8833 31.941C15.9014 32.2575 15.9014 32.2575 15.9194 32.5806C15.9298 32.7814 15.94 32.9821 15.9507 33.1889C15.9607 33.3747 15.9706 33.5606 15.9811 33.7521C15.9764 34.1859 15.9764 34.1859 15.7638 34.3985C15.2922 34.4599 14.8187 34.5084 14.3449 34.5513C14.2004 34.5647 14.0556 34.5779 13.9066 34.5917C13.4409 34.6344 12.975 34.6759 12.5093 34.7173C12.2041 34.7451 11.8989 34.7732 11.5939 34.8013C10.7169 34.8814 9.83955 34.959 8.96237 35.0361C8.71922 35.0582 8.47628 35.0801 8.2259 35.1029C7.10302 35.2019 5.99799 35.2742 4.87086 35.2618C4.5208 35.2591 4.5208 35.2591 4.16351 35.2561C3.99369 35.2538 3.82365 35.2512 3.64872 35.2487C3.50844 34.6174 3.36816 33.9861 3.22363 33.3358C3.36391 33.3358 3.50419 33.3358 3.64872 33.3358C3.85915 33.8267 4.06957 34.3177 4.28636 34.8236C5.70404 34.7645 7.12066 34.6933 8.53728 34.611C8.75408 34.5985 8.97109 34.5859 9.19447 34.573C9.84805 34.5326 10.5012 34.4863 11.1541 34.4384C11.3582 34.4261 11.562 34.4138 11.772 34.401C13.0409 34.3007 13.8579 34.0537 14.9137 33.3358C14.9137 33.1955 14.9137 33.0552 14.9137 32.9107C15.0539 32.9107 15.1942 32.9107 15.3387 32.9107C15.3387 31.8586 15.3387 30.8065 15.3387 29.7225Z" fill="#17F2B0"/>
<path d="M18.5267 37.5866C18.8405 38.0574 19.0991 38.4916 19.3504 38.993C19.4237 39.1397 19.4972 39.2861 19.5729 39.4372C19.6864 39.6653 19.6864 39.6653 19.802 39.898C19.9155 40.1238 19.9155 40.1238 20.0311 40.354C20.7134 41.7211 21.1347 42.8631 21.2898 44.3881C20.4837 43.6316 19.8588 42.8424 19.2707 41.9038C19.1884 41.7744 19.1059 41.645 19.0211 41.5115C18.3567 40.4515 17.7731 39.362 17.2515 38.2242C17.3917 38.084 17.532 37.9437 17.6766 37.7992C18.3142 39.0213 18.3142 39.0213 18.3142 39.4995C18.4545 39.4294 18.5948 39.3592 18.7393 39.287C18.6691 38.7259 18.599 38.1647 18.5267 37.5866Z" fill="#09A6C6"/>
<path d="M22.1404 45.6633C22.9115 46.4344 23.5845 47.1643 24.2659 48.0013C24.1862 48.1122 24.1065 48.2232 24.0242 48.3375C23.1594 49.5816 22.5168 50.8581 21.9279 52.2522C21.8577 52.2522 21.7876 52.2522 21.7153 52.2522C21.9258 48.9907 21.9258 48.9907 22.1404 45.6633Z" fill="#95FDF8"/>
<path d="M27.1885 24.8409C27.4942 25.0441 27.7936 25.2571 28.0914 25.4716C27.6663 25.6841 27.6663 25.6841 27.1583 25.5264C26.9577 25.4469 26.7571 25.3674 26.5505 25.2856C24.7644 24.5799 22.9863 24.4624 21.0774 24.6214C19.5673 25.2956 18.5419 26.7481 17.8892 28.2347C17.6767 27.8096 17.6767 27.8096 17.9026 27.0257C18.4367 25.6841 19.3345 24.608 20.6523 23.9837C22.7242 23.3648 25.3353 23.7478 27.1885 24.8409Z" fill="#1ED7E4"/>
<path d="M33.618 36.7365C34.7221 38.0415 34.7432 39.3829 34.7206 41.014C34.7204 41.2038 34.7202 41.3938 34.7202 41.5894C34.7083 43.3322 34.7083 43.3322 34.4681 43.9631C34.1525 44.0683 34.1525 44.0683 33.8305 44.1756C33.7604 44.3159 33.6902 44.4562 33.618 44.6007C33.4777 44.5306 33.3374 44.4604 33.1929 44.3882C33.2968 44.0264 33.2968 44.0264 33.4029 43.6574C33.6452 42.6857 33.6741 41.7721 33.6579 40.7749C33.6577 40.6144 33.6575 40.4537 33.6575 40.2884C33.6511 39.4873 33.6071 38.7125 33.496 37.9187C33.4054 37.1616 33.4054 37.1616 33.618 36.7365Z" fill="#058AC0"/>
<path d="M47.6458 28.6596C47.6458 28.7999 47.6458 28.9402 47.6458 29.0847C45.3627 29.998 45.3627 29.998 44.9229 30.1738C44.6009 30.3028 44.2787 30.4316 43.9567 30.5606C43.6011 30.703 43.2455 30.8452 42.8899 30.9874C42.5127 31.1381 42.1356 31.289 41.7588 31.4403C41.1804 31.6718 40.6008 31.8994 40.0208 32.1267C39.8246 32.2057 39.6284 32.2848 39.4263 32.3662C39.2373 32.4399 39.0482 32.5135 38.8535 32.5892C38.6845 32.6561 38.5153 32.7231 38.3412 32.7921C37.8143 32.9241 37.5261 32.8744 37.0186 32.698C38.9961 31.7126 41.0144 30.8739 43.0761 30.0811C43.3144 29.9891 43.5529 29.8973 43.7983 29.8025C46.7999 28.6596 46.7999 28.6596 47.6458 28.6596Z" fill="#2EB8D4"/>
<path d="M21.9275 45.451C21.9976 45.451 22.0678 45.451 22.14 45.451C22.208 52.5415 22.208 52.5415 21.2898 54.3779C21.1496 54.3779 21.0093 54.3779 20.8647 54.3779C20.8892 53.9439 20.9164 53.5099 20.9445 53.0761C20.9593 52.8344 20.974 52.5927 20.9893 52.3439C21.0773 51.6148 21.0773 51.6148 21.2907 51.0286C21.5934 50.0435 21.5931 49.08 21.6218 48.0547C21.6346 47.6528 21.6482 47.251 21.6626 46.8491C21.6677 46.6725 21.6728 46.4959 21.6779 46.3139C21.7149 45.8761 21.7149 45.8761 21.9275 45.451Z" fill="#B8F9EB"/>
<path d="M3.86133 35.0361C4.38865 35.502 4.608 35.8646 4.80461 36.5371C5.4144 38.497 6.23483 40.3906 7.13411 42.2344C7.23337 42.441 7.33263 42.6476 7.43465 42.8604C7.52817 43.0504 7.62169 43.2402 7.71797 43.4359C7.91564 44.0094 7.89927 44.2549 7.68715 44.8132C6.74876 42.9994 5.86011 41.2012 5.15658 39.2805C4.93575 38.6813 4.69387 38.0953 4.44583 37.507C4.10852 36.6749 3.93891 35.9295 3.86133 35.0361Z" fill="#50EED7"/>
<path d="M22.1399 32.0604C22.2101 32.0604 22.2802 32.0604 22.3525 32.0604C22.3808 32.3323 22.409 32.6041 22.4379 32.884C22.476 33.2471 22.5138 33.6103 22.5519 33.9733C22.5703 34.1517 22.5888 34.33 22.6078 34.5138C22.7225 35.6108 22.8496 36.7052 22.9901 37.7992C22.7096 37.7992 22.429 37.7992 22.1399 37.7992C21.7248 35.8829 21.3063 33.9062 22.1399 32.0604Z" fill="#2496C8"/>
<path d="M58.9106 57.566C58.1856 59.632 56.4465 60.8909 54.6597 62.0295C54.6597 61.1657 54.9849 60.9557 55.563 60.3291C55.7307 60.1451 55.8984 59.9608 56.0712 59.7712C56.5037 59.3359 56.9088 58.9625 57.4228 58.6288C57.563 58.6288 57.7033 58.6288 57.8479 58.6288C57.9135 58.493 57.9794 58.3569 58.0472 58.2169C58.3824 57.566 58.3824 57.566 58.9106 57.566Z" fill="#254A71"/>
<path d="M33.8301 43.963C34.0406 43.963 34.251 43.963 34.4678 43.963C34.1456 45.193 33.6189 46.0602 32.568 46.8058C31.9865 46.982 31.4581 46.9661 30.8545 46.9387C31.1212 46.1386 31.4736 46.0538 32.1903 45.6742C32.6482 45.3937 32.8939 45.0408 33.1925 44.6007C33.3328 44.6007 33.4731 44.6007 33.6176 44.6007C33.6877 44.3902 33.7579 44.1798 33.8301 43.963Z" fill="#0BB6DA"/>
<path d="M20.6523 35.6736C21.3439 36.0195 21.4228 36.771 21.6619 37.4671C22.1182 38.7483 22.64 39.885 23.3939 41.0255C23.6279 41.4124 23.6279 41.4124 23.6279 41.8375C23.4876 41.8375 23.3474 41.8375 23.2028 41.8375C22.9875 41.4851 22.7754 41.1303 22.5652 40.7747C22.43 40.6525 22.2946 40.5303 22.1552 40.4045C21.6009 39.8 21.3998 39.2357 21.1305 38.4633C21.0395 38.2095 20.9486 37.956 20.8548 37.6945C20.6608 36.9802 20.6119 36.4088 20.6523 35.6736Z" fill="#010C39"/>
<path d="M24.4785 45.6633C25.4101 45.7668 25.7606 46.0531 26.3914 46.726C26.6018 46.7961 26.8123 46.8663 27.0291 46.9385C27.0291 47.0788 27.0291 47.2191 27.0291 47.3636C27.8724 47.7071 28.7233 48.0242 29.5796 48.3333C29.9609 48.4719 29.9609 48.4718 30.3501 48.6132C30.9465 48.8113 31.5119 48.9599 32.1302 49.064C32.1302 49.1341 32.1302 49.2043 32.1302 49.2765C29.4234 49.4243 27.109 48.1526 25.063 46.4337C24.87 46.2497 24.6772 46.0654 24.4785 45.8758C24.4785 45.8057 24.4785 45.7355 24.4785 45.6633Z" fill="#B3CDE7"/>
<path d="M3.22363 33.3357C3.36391 33.3357 3.50419 33.3357 3.64872 33.3357C3.85915 33.8267 4.06957 34.3177 4.28636 34.8235C7.02693 34.7134 7.02693 34.7134 9.75942 34.4915C11.26 34.3378 12.7697 34.3814 14.276 34.3984C14.276 34.4686 14.276 34.5387 14.276 34.611C13.2067 34.7032 12.1374 34.794 11.0679 34.8835C10.7052 34.9138 10.3426 34.9449 9.98025 34.9761C7.86351 35.1589 5.77503 35.3005 3.64872 35.2486C3.50844 34.6173 3.36816 33.9861 3.22363 33.3357Z" fill="#2CFEB5"/>
<path d="M18.5267 37.5866C18.8842 38.1229 19.1433 38.6092 19.4035 39.1939C19.4785 39.3609 19.5536 39.5278 19.6309 39.6995C19.802 40.1372 19.802 40.1372 19.802 40.5623C19.3769 40.9076 19.3769 40.9076 18.9518 41.1999C17.5662 39.2389 17.5662 39.2389 17.2515 38.0117C17.3917 37.9416 17.532 37.8714 17.6766 37.7992C18.3142 39.0213 18.3142 39.0213 18.3142 39.4995C18.4545 39.4294 18.5948 39.3592 18.7393 39.287C18.6691 38.7259 18.599 38.1647 18.5267 37.5866Z" fill="#0E6290"/>
<path d="M22.353 37.374C22.4232 37.5143 22.4933 37.6546 22.5656 37.7991C22.776 37.7991 22.9864 37.7991 23.2032 37.7991C23.2878 37.9709 23.3726 38.1426 23.4598 38.3196C23.5724 38.5469 23.6851 38.7739 23.8009 39.0081C23.9121 39.2323 24.023 39.4568 24.1374 39.688C24.4421 40.2791 24.7667 40.8468 25.1161 41.4124C24.2659 41.4124 24.2659 41.4124 23.854 41.0273C23.1594 39.9535 22.353 38.6776 22.353 37.374Z" fill="#08A1D8"/>
<path d="M10.2377 7.61761C10.3078 7.82804 10.378 8.03846 10.4502 8.25525C10.2921 8.36748 10.2921 8.36748 10.1306 8.48183C8.22189 9.8689 6.98339 11.3238 5.77421 13.3564C5.63393 13.1459 5.49365 12.9355 5.34912 12.7187C6.77955 10.8145 8.21041 8.91159 10.2377 7.61761Z" fill="#6DD4DB"/>
<path d="M24.6909 28.6596C26.2925 28.764 27.8198 29.3872 28.9684 30.5326C29.1 30.686 29.2315 30.8395 29.3669 30.9976C29.1565 31.1379 28.9461 31.2782 28.7293 31.4227C28.4664 31.1859 28.4664 31.1859 28.1979 30.9445C27.1616 30.0796 25.9479 29.5561 24.6909 29.0847C24.6909 28.9444 24.6909 28.8041 24.6909 28.6596Z" fill="#0C70A8"/>
<path d="M24.6909 3.15411C26.5603 3.19533 28.0825 3.6929 29.792 4.42939C29.792 4.70995 29.792 4.99051 29.792 5.27957C28.6847 4.92477 27.606 4.5085 26.5241 4.084C26.3475 4.01497 26.1707 3.94591 25.9885 3.87477C25.556 3.70569 25.1234 3.53631 24.6909 3.36666C24.6909 3.29652 24.6909 3.22638 24.6909 3.15411Z" fill="#0E5581"/>
<path d="M24.2658 46.301C24.5446 46.487 24.8237 46.673 25.1028 46.859C25.2775 46.9748 25.4522 47.0908 25.6324 47.2101C25.9812 47.4441 26.3281 47.6811 26.6718 47.9225C27.6835 48.6259 28.6198 49.1056 29.792 49.4892C29.792 49.5594 29.792 49.6295 29.792 49.7018C27.3626 49.6233 25.7725 48.3493 24.0532 46.7261C24.1234 46.5858 24.1935 46.4456 24.2658 46.301Z" fill="#71CCCE"/>
<path d="M5.34924 12.9313C5.48952 13.1418 5.6298 13.3522 5.77433 13.569C5.59026 13.8255 5.59026 13.8255 5.40237 14.0872C4.51584 15.423 3.94218 16.8847 3.64887 18.4575C3.73559 18.9188 3.73559 18.9188 3.86141 19.3077C3.58085 19.0973 3.30029 18.8869 3.01123 18.6701C3.29519 17.4173 3.68394 16.2668 4.18023 15.0834C4.2457 14.9223 4.31116 14.7611 4.37875 14.5951C4.86973 13.4108 4.86973 13.4108 5.34924 12.9313Z" fill="#4FECAF"/>
<path d="M33.4049 38.8619C33.5452 38.8619 33.6854 38.8619 33.83 38.8619C33.8414 39.4819 33.8499 40.1017 33.8565 40.7217C33.8618 40.9846 33.8618 40.9846 33.8674 41.253C33.8686 41.4228 33.8701 41.5927 33.8714 41.7678C33.8737 41.9236 33.8759 42.0794 33.8782 42.2401C33.8232 42.7513 33.6582 43.0943 33.4049 43.5379C33.4049 43.3275 33.4049 43.117 33.4049 42.9002C32.984 43.1107 32.984 43.1107 32.5547 43.3253C32.5983 43.1279 32.6418 42.9302 32.6867 42.7268C32.7441 42.4639 32.8012 42.2012 32.8603 41.9306C32.9169 41.6715 32.9736 41.4126 33.0321 41.1459C33.1853 40.3846 33.3028 39.6313 33.4049 38.8619Z" fill="#002045"/>
<path d="M24.9035 48.639C25.2542 48.8494 25.6049 49.0598 25.9662 49.2766C25.7558 49.3818 25.7558 49.3818 25.5411 49.4892C25.5422 49.6469 25.5432 49.8044 25.5445 49.9668C25.549 50.6798 25.5517 51.3929 25.5543 52.106C25.5562 52.3543 25.5579 52.6023 25.5598 52.858C25.5604 53.0956 25.5611 53.3333 25.5619 53.5781C25.563 53.7975 25.5641 54.0168 25.5653 54.2427C25.5411 54.8028 25.5411 54.8028 25.3286 55.4404C25.1883 55.4404 25.048 55.4404 24.9035 55.4404C24.906 55.1607 24.9084 54.881 24.9109 54.5928C24.9317 51.9084 24.9317 51.9084 24.7166 49.2343C24.7081 49.1081 24.6996 48.9816 24.6909 48.8515C24.7611 48.7814 24.8312 48.7112 24.9035 48.639Z" fill="#E8F5B5"/>
<path d="M38.9319 65.8552C39.3468 66.2701 39.5372 66.6059 39.7821 67.1305C40.3432 67.1305 40.9043 67.1305 41.4824 67.1305C40.7496 67.6191 40.4735 67.6079 39.611 67.6045C39.3684 67.6043 39.1261 67.6038 38.8762 67.6034C38.4962 67.5994 38.4962 67.5994 38.1083 67.5955C37.7306 67.5953 37.7306 67.5953 37.3452 67.5951C36.2846 67.5896 35.2933 67.5826 34.2559 67.343C34.2559 67.2028 34.2559 67.0625 34.2559 66.918C34.6066 66.8478 34.9573 66.7777 35.3186 66.7054C35.3186 66.8457 35.3186 66.986 35.3186 67.1305C36.5811 67.2006 37.8436 67.2708 39.1444 67.343C39.0743 66.8521 39.0041 66.3611 38.9319 65.8552Z" fill="#6ADAEF"/>
<path d="M22.7779 1.24131C22.7779 1.38159 22.7779 1.52187 22.7779 1.6664C23.9352 1.77161 23.9352 1.77161 25.1159 1.87895C25.1159 1.94909 25.1159 2.01923 25.1159 2.09149C23.3624 2.09149 21.6089 2.09149 19.8022 2.09149C21.3642 0.920025 21.3642 0.920024 22.7779 1.24131Z" fill="#2C6B94"/>
<path d="M33.6173 36.7365C34.6307 37.9342 34.7419 39.1387 34.7066 40.642C34.7047 40.7985 34.7028 40.9549 34.7009 41.116C34.6958 41.4984 34.6881 41.8805 34.6801 42.2627C34.5398 42.1926 34.3995 42.1224 34.255 42.0502C34.1744 41.4159 34.1744 41.4159 34.1355 40.6155C34.0898 39.7255 34.0305 38.8811 33.8299 38.0118C33.6896 38.0118 33.5493 38.0118 33.4048 38.0118C33.4749 37.5909 33.5451 37.1701 33.6173 36.7365Z" fill="#1784C2"/>
<path d="M52.7471 46.301C52.9575 46.301 53.1679 46.301 53.3847 46.301C53.3847 48.3351 53.3847 50.3692 53.3847 52.4649C52.9677 51.6306 52.8993 51.2701 52.8716 50.3694C52.8633 50.1324 52.8553 49.8954 52.8468 49.6512C52.8402 49.4048 52.8336 49.1585 52.8268 48.9047C52.8185 48.6552 52.8104 48.4054 52.8019 48.1483C52.7819 47.5325 52.7636 46.9168 52.7471 46.301Z" fill="#6CF7F6"/>
<path d="M26.6038 29.9349C27.814 30.2254 28.4757 30.8186 29.3403 31.6618C29.4664 31.7815 29.5924 31.9014 29.7223 32.0246C30.0307 32.3182 30.3367 32.614 30.6422 32.9105C30.572 33.0508 30.5019 33.1911 30.4296 33.3356C30.2757 33.1822 30.1216 33.0287 29.9631 32.8706C29.7556 32.6712 29.548 32.472 29.3403 32.2729C29.2396 32.1715 29.1386 32.0701 29.0349 31.9657C28.4748 31.4359 28.1809 31.2161 27.4008 31.1636C27.1116 31.1868 27.1116 31.1868 26.8163 31.2102C26.4178 30.8913 26.4178 30.8913 26.1787 30.5725C26.3891 30.5024 26.5996 30.4322 26.8163 30.36C26.7462 30.2197 26.6761 30.0794 26.6038 29.9349Z" fill="#001C46"/>
<path d="M33.4051 11.0184C34.0181 11.2932 34.4407 11.5835 34.893 12.0811C34.6825 12.0811 34.4721 12.0811 34.2553 12.0811C34.2685 12.283 34.2817 12.4849 34.2953 12.693C34.2953 13.7511 33.9531 14.6878 33.6177 15.6812C33.5569 15.867 33.4961 16.0529 33.4334 16.2444C33.2842 16.6993 33.1331 17.1535 32.9801 17.6073C32.6274 16.5084 33.1021 15.5652 33.4608 14.5175C33.8702 13.2429 33.8343 12.3055 33.4051 11.0184Z" fill="#F4ABDC"/>
<path d="M31.9172 33.7608C32.7412 34.4671 33.2736 35.2858 33.6175 36.3114C33.5644 37.0553 33.5644 37.0553 33.405 37.5866C33.0386 37.0372 32.7259 36.4978 32.422 35.9128C32.3272 35.7337 32.2324 35.5545 32.1346 35.3698C31.9036 34.7895 31.8751 34.3791 31.9172 33.7608Z" fill="#078CBE"/>
<path d="M34.6804 49.0641C35.7166 49.622 35.7166 49.622 35.9557 50.3394C34.5954 50.9934 34.5954 50.9934 33.9497 50.9107C33.8402 50.8624 33.7305 50.8142 33.6177 50.7645C33.8281 50.6242 34.0385 50.4839 34.2553 50.3394C34.1852 50.0588 34.115 49.7782 34.0428 49.4892C34.2532 49.3489 34.4636 49.2086 34.6804 49.0641Z" fill="#0298B4"/>
<path d="M23.6279 42.9003C24.0398 43.0729 24.0398 43.0729 24.4781 43.3254C24.5483 43.5358 24.6184 43.7462 24.6907 43.963C25.0671 44.1836 25.0671 44.1836 25.5408 44.3881C25.9508 44.6361 26.3581 44.8889 26.763 45.1452C27.0769 45.3431 27.0769 45.3431 27.3972 45.5446C27.5562 45.654 27.7152 45.7633 27.8788 45.8759C27.8788 45.9461 27.8788 46.0162 27.8788 46.0885C26.7241 46.1858 26.2408 45.7516 25.3765 45.0449C24.6894 44.3998 24.1472 43.6841 23.6279 42.9003Z" fill="#117CC3"/>
<path d="M53.8092 60.5416C54.1599 60.6118 54.5106 60.6819 54.8719 60.7542C54.7301 61.0375 54.5886 61.321 54.4468 61.6044C54.3898 61.7491 54.3329 61.8936 54.2742 62.0426C53.9375 62.5921 53.5212 62.7963 52.959 63.0922C52.959 62.8116 52.959 62.5311 52.959 62.242C53.2395 62.1719 53.5201 62.1017 53.8092 62.0294C53.739 61.8892 53.6689 61.7489 53.5966 61.6044C53.3862 61.7096 53.3862 61.7096 53.1715 61.8169C53.3841 61.3918 53.5966 60.9667 53.8092 60.5416Z" fill="#051144"/>
<path d="M32.3425 42.2626C32.5803 42.8466 32.575 43.0647 32.3293 43.6573C31.8164 44.3026 31.4154 44.5307 30.6421 44.8131C29.8185 44.8531 29.8185 44.8531 29.1543 44.8131C29.6026 44.3649 29.8151 44.2898 30.403 44.1092C31.3964 43.7557 31.8723 43.2029 32.3425 42.2626Z" fill="#0E93B5"/>
<path d="M29.6194 49.6486C29.8167 49.6663 30.0139 49.6837 30.2171 49.7018C30.1689 49.8289 30.1206 49.956 30.0709 50.0869C30.0382 50.3171 30.0381 50.3171 30.0046 50.5519C30.2924 50.9286 30.2924 50.9286 30.6422 51.1896C29.7801 51.0901 29.0553 51.0025 28.3042 50.5519C28.6917 49.8631 28.8062 49.7124 29.6194 49.6486Z" fill="#10C7BE"/>
<path d="M41.482 31.4228C41.079 31.5911 40.676 31.7594 40.2731 31.9276C40.0488 32.0213 39.8244 32.115 39.5931 32.2115C39.3748 32.3019 39.1566 32.3924 38.9315 32.4855C38.6532 32.6145 38.6532 32.6145 38.3693 32.7463C37.8145 32.9284 37.5586 32.898 37.0186 32.698C40.3683 30.8659 40.3683 30.8659 41.482 31.4228Z" fill="#22B5DB"/>
<path d="M27.8619 31.0433C28.4111 31.2508 28.6299 31.5118 28.9944 31.9675C29.1051 32.1035 29.2158 32.2398 29.3298 32.3801C29.412 32.485 29.4943 32.5898 29.5789 32.698C29.4386 32.8383 29.2983 32.9786 29.1538 33.1231C28.8792 32.8842 28.6046 32.6451 28.3302 32.4058C28.1773 32.2727 28.0243 32.1394 27.8668 32.0024C27.5792 31.7471 27.3002 31.482 27.0283 31.2102C27.4534 30.9977 27.4534 30.9977 27.8619 31.0433Z" fill="#102D64"/>
<path d="M23.8408 42.0502C24.3711 42.5658 24.8687 43.067 25.3155 43.6574C25.8205 44.2545 26.3652 44.6186 27.029 45.0258C26.8186 45.096 26.6082 45.1661 26.3914 45.2384C25.2685 44.6458 24.4334 43.7988 23.8408 42.6878C23.8408 42.4774 23.8408 42.267 23.8408 42.0502Z" fill="#001D50"/>
<path d="M16.6141 24.8338C16.8267 25.2589 16.8267 25.2589 16.7155 25.674C16.6258 25.9157 16.6258 25.9157 16.5344 26.1622C16.2656 26.9223 16.0794 27.6443 15.9765 28.4471C15.7661 28.3068 15.5557 28.1665 15.3389 28.022C15.4806 27.3136 15.6222 26.6049 15.764 25.8965C15.9042 25.8965 16.0445 25.8965 16.1891 25.8965C16.3293 25.5458 16.4696 25.1951 16.6141 24.8338Z" fill="#1CE9C7"/>
<path d="M56.3597 59.4789C56.4868 59.87 56.4868 59.87 56.5722 60.3291C56.0217 61.2317 55.4058 61.6154 54.4468 62.0294C54.7537 61.341 55.1393 60.8349 55.6423 60.2759C55.7767 60.1259 55.9108 59.9756 56.0492 59.8209C56.1516 59.708 56.2541 59.5951 56.3597 59.4789Z" fill="#0E3B67"/>
<path d="M21.7153 44.8132C21.8556 44.8132 21.9959 44.8132 22.1404 44.8132C22.1404 44.9535 22.1404 45.0937 22.1404 45.2383C22.2807 45.2383 22.421 45.2383 22.5655 45.2383C22.5655 45.3785 22.5655 45.5188 22.5655 45.6634C22.6882 45.7161 22.811 45.7686 22.9375 45.8228C23.4795 46.1239 23.8446 46.4872 24.2659 46.9386C23.9853 47.0088 23.7048 47.0789 23.4157 47.1512C23.1317 46.802 22.8484 46.4519 22.5655 46.1016C22.4076 45.9069 22.2499 45.712 22.0873 45.5114C21.7153 45.0257 21.7153 45.0257 21.7153 44.8132Z" fill="#0ABBC1"/>
<path d="M28.5167 66.7054C29.2883 66.986 30.0598 67.2666 30.8547 67.5556C30.8547 67.766 30.8547 67.9765 30.8547 68.1933C30.5092 68.0919 30.1638 67.9899 29.8186 67.8876C29.6262 67.8311 29.4339 67.7743 29.2358 67.7159C28.7293 67.5556 28.7293 67.5556 28.3042 67.3431C28.3743 67.1327 28.4445 66.9222 28.5167 66.7054Z" fill="#123969"/>
<path d="M5.34901 12.9313C5.48929 13.1418 5.62957 13.3522 5.7741 13.569C5.57685 13.8517 5.57685 13.8517 5.37557 14.1403C4.99745 14.7297 4.73028 15.2511 4.49882 15.907C4.35854 15.8368 4.21826 15.7667 4.07373 15.6944C4.6882 13.6551 4.6882 13.6551 5.34901 12.9313Z" fill="#66EEBF"/>
<path d="M33.8298 43.963C34.0402 43.963 34.2507 43.963 34.4675 43.963C34.1221 45.1852 34.1221 45.1852 33.4047 45.6634C33.1943 45.453 32.9839 45.2425 32.7671 45.0257C32.9029 44.9688 33.0389 44.9118 33.179 44.8532C33.6876 44.6247 33.6876 44.6247 33.8298 43.963Z" fill="#12A4CB"/>
<path d="M27.0283 43.1128C27.87 43.5336 28.7117 43.9545 29.5789 44.3881C29.5789 44.4582 29.5789 44.5283 29.5789 44.6006C27.7571 44.4185 27.7571 44.4185 27.0283 43.963C27.0283 43.6824 27.0283 43.4019 27.0283 43.1128Z" fill="#15A2CF"/>
<path d="M22.1401 40.5623C22.5521 40.7217 22.5521 40.7217 22.9903 40.9874C23.1497 41.4391 23.1497 41.4391 23.2029 41.8376C23.4133 41.7675 23.6237 41.6973 23.8405 41.625C23.9106 41.9757 23.9808 42.3264 24.053 42.6878C23.8426 42.6878 23.6322 42.6878 23.4154 42.6878C23.0743 42.2767 23.0743 42.2767 22.7378 41.7445C22.6254 41.5696 22.5127 41.3944 22.3967 41.214C22.1401 40.7749 22.1401 40.7749 22.1401 40.5623Z" fill="#071F5E"/>
<path d="M3.86133 35.0361C4.51151 35.5698 4.6588 36.0778 4.85774 36.8827C4.93787 37.1994 4.93787 37.1994 5.01949 37.5227C5.05817 37.684 5.09686 37.8456 5.1366 38.0118C4.92618 38.117 4.92618 38.117 4.71151 38.2243C4.56868 37.8128 4.42713 37.4009 4.28642 36.989C4.20757 36.7597 4.1285 36.5303 4.04731 36.294C3.86133 35.6738 3.86133 35.6738 3.86133 35.0361Z" fill="#4AF0D3"/>
<path d="M32.3424 36.3114C32.5528 36.3815 32.7633 36.4517 32.9801 36.5239C32.9099 37.3656 32.8398 38.2073 32.7675 39.0745C32.2162 38.2475 32.2081 37.7223 32.1299 36.7365C32.2 36.5962 32.2702 36.4559 32.3424 36.3114Z" fill="#022152"/>
<path d="M6.41211 41.1998C6.90203 41.6897 7.11521 42.1406 7.40853 42.7674C7.50566 42.9705 7.60301 43.174 7.70311 43.3833C7.90822 43.9876 7.91566 44.2295 7.68738 44.8131C7.47293 44.3712 7.26081 43.9283 7.04975 43.4847C6.93136 43.2381 6.81297 42.9916 6.69097 42.7374C6.41211 42.05 6.41211 42.05 6.41211 41.1998Z" fill="#5DEAE4"/>
<path d="M42.9696 30.5725C42.9696 30.7128 42.9696 30.8531 42.9696 30.9976C42.563 31.1109 42.1553 31.221 41.7474 31.3299C41.5207 31.3915 41.2937 31.4531 41.0601 31.5165C40.4524 31.6291 40.1393 31.6319 39.5688 31.4227C40.0554 31.2393 40.5423 31.058 41.0301 30.8782C41.1685 30.8257 41.3068 30.7732 41.4495 30.719C42.4962 30.336 42.4962 30.336 42.9696 30.5725Z" fill="#53C2DC"/>
<path d="M22.353 44.3881C23.0459 45.0619 23.6755 45.7482 24.2659 46.5136C23.4124 46.5136 23.1618 46.2596 22.5656 45.6634C22.393 44.9726 22.393 44.9726 22.353 44.3881Z" fill="#24CFD6"/>
<path d="M19.3772 40.5623C19.5877 40.5623 19.7981 40.5623 20.0149 40.5623C20.1611 40.9343 20.1611 40.9343 20.2274 41.4125C19.9218 41.8907 19.9218 41.8907 19.5898 42.2627C19.3794 41.912 19.1689 41.5613 18.9521 41.2C19.0924 40.9895 19.2327 40.7791 19.3772 40.5623Z" fill="#038BB3"/>
<path d="M10.2378 7.61761C10.3079 7.82804 10.378 8.03846 10.4503 8.25525C10.181 8.4644 9.91066 8.67227 9.64009 8.87971C9.41436 9.05336 9.41436 9.05336 9.18417 9.23084C8.74994 9.53053 8.74994 9.53053 8.1123 9.74307C8.4154 9.00937 8.77056 8.65888 9.41415 8.20212C9.56803 8.09138 9.72213 7.98064 9.88069 7.86672C9.99865 7.78446 10.1164 7.70221 10.2378 7.61761Z" fill="#76D2E6"/>
<path d="M24.6909 3.15411C25.0675 3.17841 25.4438 3.20551 25.82 3.23382C26.1345 3.25601 26.1345 3.25601 26.4553 3.27864C27.0289 3.36666 27.0289 3.36666 27.6666 3.79175C27.5964 3.93203 27.5263 4.07231 27.454 4.21684C27.1127 4.12077 26.7717 4.02304 26.4312 3.92459C26.1464 3.84321 26.1464 3.84321 25.8557 3.76021C25.3286 3.57921 25.3286 3.57921 24.6909 3.15411Z" fill="#074775"/>
<path d="M34.4678 11.4435C35.0869 11.4618 35.4387 11.5665 35.885 12.0014C36.2024 12.3753 36.5091 12.7534 36.8058 13.1438C36.7356 13.2841 36.6655 13.4244 36.5932 13.5689C36.2383 13.2552 35.8842 12.9407 35.5305 12.6257C35.3333 12.4507 35.136 12.2756 34.9328 12.0951C34.7794 11.9502 34.6259 11.8054 34.4678 11.656C34.4678 11.5859 34.4678 11.5157 34.4678 11.4435Z" fill="#0B2869"/>
<path d="M33.6173 36.7365C34.2197 37.4173 34.3657 37.9652 34.4675 38.862C34.2571 38.9672 34.2571 38.9672 34.0424 39.0745C33.9723 38.7238 33.9021 38.3731 33.8299 38.0118C33.6896 38.0118 33.5493 38.0118 33.4048 38.0118C33.4749 37.5909 33.5451 37.1701 33.6173 36.7365Z" fill="#1C89CB"/>
<path d="M24.2656 46.301C24.8969 46.7219 25.5281 47.1427 26.1785 47.5763C26.1084 47.7867 26.0383 47.9971 25.966 48.2139C25.6808 48.0173 25.3979 47.8173 25.1158 47.6163C24.9579 47.5051 24.8002 47.3942 24.6376 47.2798C24.5149 47.1674 24.3921 47.0547 24.2656 46.9387C24.2656 46.7282 24.2656 46.5178 24.2656 46.301Z" fill="#68D6D4"/>
<path d="M47.6457 28.6596C47.6457 28.7999 47.6457 28.9402 47.6457 29.0847C46.5868 29.4919 45.5783 29.6278 44.4575 29.7223C45.0565 29.323 45.4896 29.1506 46.1711 28.9519C46.3577 28.8966 46.5443 28.8411 46.7366 28.7842C47.2206 28.6596 47.2206 28.6596 47.6457 28.6596Z" fill="#55BAD6"/>
<path d="M20.2275 59.9039C20.8235 60.1947 21.3995 60.505 21.9679 60.8472C22.1154 60.9346 22.2631 61.0219 22.4153 61.112C22.7781 61.3917 22.7781 61.3918 22.9906 62.0294C22.2977 61.7131 21.7298 61.3159 21.1309 60.8472C20.961 60.7152 20.7912 60.5834 20.6161 60.4478C20.4879 60.3384 20.3597 60.2291 20.2275 60.1165C20.2275 60.0463 20.2275 59.9762 20.2275 59.9039Z" fill="#E3D4B4"/>
<path d="M21.0773 51.6146C21.1474 51.6146 21.2176 51.6146 21.2898 51.6146C21.3204 51.8469 21.3513 52.0792 21.3829 52.3185C21.4775 53.0877 21.4775 53.0877 21.7149 53.74C21.5045 54.0557 21.5045 54.0557 21.2898 54.3777C21.1496 54.3777 21.0093 54.3777 20.8647 54.3777C20.9349 53.4658 21.005 52.554 21.0773 51.6146Z" fill="#CEF7DC"/>
<path d="M24.6909 28.6596C26.1256 28.8456 26.1256 28.8456 26.6038 29.0847C26.6038 29.2951 26.6038 29.5055 26.6038 29.7223C25.9726 29.5119 25.3413 29.3015 24.6909 29.0847C24.6909 28.9444 24.6909 28.8041 24.6909 28.6596Z" fill="#09517F"/>
<path d="M27.2415 24.8339C27.7463 25.2856 27.7463 25.2856 28.0917 25.6841C27.7504 25.588 27.4094 25.4902 27.0689 25.3918C26.8789 25.3376 26.6891 25.2834 26.4934 25.2275C25.9663 25.0464 25.9663 25.0464 25.3286 24.6213C26.1476 24.3484 26.4579 24.4981 27.2415 24.8339Z" fill="#17C0CF"/>
<path d="M17.464 37.7991C17.8891 38.3403 18.2772 38.8546 18.5267 39.4995C18.4566 39.7099 18.3865 39.9203 18.3142 40.1371C17.3329 38.7443 17.3329 38.7443 17.2515 38.0117C17.3216 37.9415 17.3917 37.8714 17.464 37.7991Z" fill="#075A89"/>
<path d="M17.2515 38.2244C17.5894 38.7313 17.8608 39.2085 18.1282 39.7521C18.2032 39.9041 18.2783 40.0561 18.3556 40.2127C18.4122 40.3281 18.4685 40.4436 18.5267 40.5624C18.3865 40.5624 18.2462 40.5624 18.1016 40.5624C18.1016 40.4221 18.1016 40.2818 18.1016 40.1373C17.8211 40.0671 17.5405 39.997 17.2515 39.9247C17.2515 39.3636 17.2515 38.8025 17.2515 38.2244Z" fill="#6DF3F1"/>
<path d="M16.4014 23.1334C17.0326 23.5543 17.0326 23.5543 17.6766 23.9836C17.3961 24.3343 17.1155 24.685 16.8265 25.0463C16.6862 24.4151 16.5459 23.7838 16.4014 23.1334Z" fill="#35F6D7"/>
<path d="M31.2799 67.9806C32.7146 68.14 32.7146 68.14 33.1928 68.6182C32.382 68.93 31.8559 68.7103 31.0674 68.4057C31.1375 68.2654 31.2077 68.1251 31.2799 67.9806Z" fill="#153C65"/>
<path d="M24.5976 47.1111C25.1158 47.3636 25.1158 47.3636 25.3283 47.7887C24.9776 47.8588 24.6269 47.929 24.2656 48.0012C24.0551 47.7207 23.8447 47.4401 23.6279 47.1511C24.053 46.9385 24.053 46.9385 24.5976 47.1111Z" fill="#03D0BC"/>
<path d="M30.6421 51.402C31.4136 51.402 32.1852 51.402 32.9801 51.402C32.9801 51.4722 32.9801 51.5423 32.9801 51.6146C32.4891 51.6847 31.9981 51.7549 31.4923 51.8271C31.4923 52.248 31.4923 52.6688 31.4923 53.1024C31.0672 52.4648 31.0672 52.4648 30.6421 51.402Z" fill="#75FEED"/>
<path d="M35.5305 50.7644C35.2606 50.9021 34.9904 51.0394 34.7203 51.1763C34.5698 51.2526 34.4193 51.3291 34.2644 51.4078C33.8302 51.6146 33.8302 51.6146 33.1925 51.8271C33.1224 51.6167 33.0522 51.4063 32.98 51.1895C33.3247 51.0768 33.6703 50.9665 34.0161 50.8575C34.2085 50.7956 34.4009 50.734 34.5989 50.6707C35.1054 50.5519 35.1054 50.5519 35.5305 50.7644Z" fill="#25F8F2"/>
<path d="M18.5266 25.8965C18.737 25.9667 18.9475 26.0368 19.1643 26.1091C19.0327 26.3021 18.9011 26.4949 18.7657 26.6936C18.4322 27.2035 18.143 27.6841 17.889 28.2346C17.6764 27.8095 17.6764 27.8095 17.7876 27.4035C17.8473 27.2526 17.907 27.1015 17.9687 26.9461C18.0271 26.7946 18.0858 26.643 18.1464 26.4868C18.3141 26.1091 18.3141 26.1091 18.5266 25.8965Z" fill="#2BDBEB"/>
<path d="M26.816 21.4331C26.8861 21.4331 26.9563 21.4331 27.0285 21.4331C27.0285 21.9241 27.0285 22.4151 27.0285 22.9209C26.5025 22.7105 26.5025 22.7105 25.9658 22.4958C26.1061 22.2153 26.2464 21.9347 26.3909 21.6457C26.4611 21.7158 26.5312 21.7859 26.6035 21.8582C26.6736 21.7179 26.7437 21.5776 26.816 21.4331Z" fill="#E3EBB7"/>
<path d="M34.043 41.1998C34.4182 41.8562 34.4681 42.0995 34.4681 42.9002C34.3278 42.9002 34.1875 42.9002 34.043 42.9002C33.9729 43.0405 33.9027 43.1808 33.8305 43.3253C33.8039 41.6781 33.8039 41.6781 34.043 41.1998Z" fill="#0A92CB"/>
<path d="M31.917 9.7431C32.2677 9.7431 32.6184 9.7431 32.9797 9.7431C32.9797 9.88338 32.9797 10.0237 32.9797 10.1682C33.1901 10.1682 33.4006 10.1682 33.6174 10.1682C33.6875 10.3786 33.7576 10.589 33.8299 10.8058C32.9765 10.8058 32.5929 10.4513 31.917 9.95565C31.917 9.88551 31.917 9.81537 31.917 9.7431Z" fill="#183870"/>
<path d="M3.22363 33.3357C3.36391 33.3357 3.50419 33.3357 3.64872 33.3357C3.85915 33.8267 4.06957 34.3177 4.28636 34.8235C3.97073 35.0339 3.97073 35.0339 3.64872 35.2486C3.50844 34.6173 3.36816 33.9861 3.22363 33.3357Z" fill="#2EEAA4"/>
<path d="M29.3672 32.9107C30.1763 33.2176 30.4865 33.6227 30.855 34.3985C30.7849 34.5388 30.7147 34.6791 30.6425 34.8236C30.4286 34.5856 30.2163 34.3462 30.0048 34.1063C29.8864 33.9732 29.7681 33.84 29.6461 33.7029C29.3672 33.3358 29.3672 33.3358 29.3672 32.9107Z" fill="#0C1F4F"/>
<path d="M15.551 33.1232C15.6913 33.1933 15.8316 33.2634 15.9761 33.3357C15.906 33.6864 15.8358 34.0371 15.7636 34.3984C15.3427 34.3984 14.9219 34.3984 14.4883 34.3984C14.7688 34.3283 15.0494 34.2582 15.3385 34.1859C15.4086 33.8352 15.4787 33.4845 15.551 33.1232Z" fill="#1EFDB3"/>
<path d="M3.01132 12.7188C3.2143 13.18 3.25447 13.4761 3.09591 13.9566C2.93501 14.3273 2.76136 14.6925 2.58622 15.0568C2.44594 15.0568 2.30566 15.0568 2.16113 15.0568C2.41895 14.2652 2.69441 13.4886 3.01132 12.7188Z" fill="#1F385A"/>
<path d="M27.0283 49.4891C27.6596 49.5943 27.6596 49.5943 28.3036 49.7016C28.3036 49.9822 28.3036 50.2627 28.3036 50.5518C27.8828 50.4115 27.4619 50.2712 27.0283 50.1267C27.0283 49.9163 27.0283 49.7059 27.0283 49.4891Z" fill="#14CFA5"/>
<path d="M29.7915 46.5136C30.2825 46.5136 30.7735 46.5136 31.2793 46.5136C31.3495 46.724 31.4196 46.9345 31.4919 47.1512C31.0009 47.1512 30.5099 47.1512 30.004 47.1512C29.9339 46.9408 29.8638 46.7304 29.7915 46.5136Z" fill="#10C5E7"/>
<path d="M21.5027 37.7991C21.9278 38.4368 21.9278 38.4368 22.1404 39.0744C21.9412 39.5395 21.9412 39.5395 21.7153 39.9246C21.2636 38.5165 21.2636 38.5165 21.5027 37.7991Z" fill="#061343"/>
<path d="M6.1993 11.4435C6.26944 11.4435 6.33958 11.4435 6.41185 11.4435C6.46499 11.9217 6.46499 11.9217 6.41185 12.5062C5.98676 12.9976 5.98676 12.9976 5.56167 13.3564C5.49153 13.146 5.42139 12.9356 5.34912 12.7188C5.74764 12.0412 5.74764 12.0412 6.1993 11.4435Z" fill="#54D6CA"/>
<path d="M21.5823 1.41398C21.6962 1.49728 21.8102 1.58058 21.9277 1.66638C20.5916 2.18257 20.5916 2.18257 19.8022 1.87893C20.9532 1.19878 20.9532 1.19878 21.5823 1.41398Z" fill="#377B9F"/>
<path d="M24.9033 48.4265C25.1839 48.4265 25.4644 48.4265 25.7535 48.4265C25.7535 48.5667 25.7535 48.707 25.7535 48.8515C26.0341 48.9918 26.3146 49.1321 26.6037 49.2766C26.5335 49.4169 26.4634 49.5572 26.3911 49.7017C26.1427 49.53 25.8946 49.357 25.6472 49.1835C25.5091 49.0875 25.3711 48.9914 25.2287 48.8921C25.1214 48.8086 25.0141 48.7251 24.9033 48.639C24.9033 48.5689 24.9033 48.4987 24.9033 48.4265Z" fill="#1BD6A8"/>
<path d="M25.9658 45.2383C26.778 45.3511 27.2543 45.5565 27.8787 46.0885C27.4005 46.1416 27.4005 46.1416 26.816 46.0885C26.3246 45.6634 26.3246 45.6634 25.9658 45.2383Z" fill="#0C9FDD"/>
<path d="M39.3564 41.4124C39.8474 41.4826 40.3384 41.5527 40.8443 41.625C40.4946 41.9837 40.1401 42.3378 39.7815 42.6877C39.7114 42.6877 39.6413 42.6877 39.569 42.6877C39.4989 42.2668 39.4287 41.846 39.3564 41.4124Z" fill="#94F5FB"/>
<path d="M25.5412 41.6249C25.5412 41.9756 25.5412 42.3263 25.5412 42.6877C25.1905 42.337 24.8398 41.9863 24.4785 41.6249C24.9036 41.4124 24.9036 41.4124 25.5412 41.6249Z" fill="#029AD1"/>
<path d="M18.3145 40.1372C18.8054 40.1372 19.2964 40.1372 19.8023 40.1372C19.8023 40.2775 19.8023 40.4178 19.8023 40.5623C19.3772 40.9077 19.3772 40.9077 18.9521 41.1999C18.7417 40.8492 18.5312 40.4985 18.3145 40.1372Z" fill="#06739D"/>
<path d="M23.2029 38.2244C23.7043 38.726 23.7324 39.0276 23.8406 39.7122C23.6301 39.7823 23.4197 39.8525 23.2029 39.9247C22.9942 39.2758 22.9942 38.8733 23.2029 38.2244Z" fill="#16A5DB"/>
<path d="M38.2935 36.0988C38.8546 36.0988 39.4157 36.0988 39.9938 36.0988C39.9938 36.1689 39.9938 36.239 39.9938 36.3113C39.6431 36.3814 39.2924 36.4516 38.9311 36.5238C38.9311 36.8745 38.9311 37.2252 38.9311 37.5866C38.4295 37.085 38.4016 36.7834 38.2935 36.0988Z" fill="#E6C8D5"/>
</svg>
