<svg width="59" height="83" viewBox="0 0 59 83" fill="none" xmlns="http://www.w3.org/2000/svg">
<path d="M38.079 3.26115C39.6296 4.1833 41.0205 5.25084 42.3757 6.43856C42.5861 6.62295 42.7965 6.80733 43.0133 6.99732C46.3715 9.98676 49.0243 13.4222 51.3026 17.2784C51.3787 17.4049 51.455 17.5313 51.5334 17.6614C53.6002 21.1242 54.8026 24.987 55.341 28.9684C55.3801 29.1729 55.4194 29.3771 55.4598 29.5878C55.5361 30.1217 55.5658 30.6016 55.5684 31.1379C55.575 33.5637 55.575 33.5637 56.8611 35.5556C58.2626 37.0785 58.7955 39.2087 58.7933 41.2238C58.7938 41.3792 58.7942 41.5345 58.7946 41.6948C58.7953 42.2039 58.7931 42.7131 58.7906 43.2224C58.7904 43.5788 58.7904 43.9353 58.7904 44.2917C58.7902 45.0371 58.7882 45.7825 58.7855 46.5277C58.7819 47.4803 58.781 48.4329 58.7812 49.3856C58.781 50.1212 58.78 50.8568 58.7785 51.5924C58.7778 51.9436 58.7774 52.2947 58.7772 52.6458C58.7768 53.1376 58.7748 53.6293 58.7725 54.1211C58.7717 54.4002 58.771 54.6795 58.7702 54.967C58.7417 55.7492 58.7417 55.7492 58.6201 56.5418C58.5362 57.1843 58.5561 57.4885 58.7417 58.0872C58.7636 58.4132 58.7753 58.7401 58.7793 59.067C58.7821 59.26 58.7848 59.4532 58.7876 59.6522C58.7899 59.9633 58.7899 59.9633 58.7923 60.2807C58.794 60.4962 58.7957 60.7117 58.7976 60.9338C58.8006 61.3899 58.8027 61.8463 58.8044 62.3026C58.8069 62.7668 58.8112 63.231 58.8176 63.6952C58.8267 64.3681 58.8301 65.0408 58.8322 65.714C58.8359 65.9189 58.8397 66.1238 58.8435 66.3348C58.8369 68.3982 58.0917 70.0367 56.9616 71.7301C56.8849 71.85 56.8082 71.9696 56.7291 72.0933C52.7806 78.1335 45.079 80.898 38.3373 82.3174C37.4705 82.4707 36.6046 82.5816 35.7294 82.6737C35.1302 82.7249 35.1302 82.7249 34.5115 82.9551C33.9831 82.9782 33.4608 82.9899 32.9322 82.9908C32.7754 82.9916 32.6185 82.9925 32.4568 82.9935C31.946 82.9957 31.4355 82.9957 30.9248 82.995C30.7511 82.9948 30.5774 82.9946 30.3985 82.9946C23.6221 82.9808 17.3486 81.9907 11.344 78.7042C11.0534 78.5471 11.0534 78.5471 10.7569 78.387C6.73745 76.0956 2.91099 72.6385 1.56685 68.0769C1.45101 67.151 1.45037 66.2362 1.45675 65.304C1.45462 64.8997 1.45462 64.8997 1.45229 64.4872C1.44846 63.7539 1.44995 63.0204 1.45271 62.2871C1.45484 61.5151 1.45271 60.743 1.45144 59.971C1.44995 58.6745 1.45186 57.3779 1.45611 56.0814C1.46058 54.5891 1.45909 53.097 1.45441 51.6048C1.45058 50.3172 1.45016 49.0298 1.45229 47.7424C1.45356 46.9762 1.45377 46.2101 1.45101 45.4439C1.44804 44.588 1.45207 43.7321 1.45675 42.8761C1.45505 42.6273 1.45335 42.3781 1.45165 42.1214C1.47418 39.9041 1.88822 37.7021 3.30717 35.9427C3.52865 35.6619 3.52865 35.6619 3.75458 35.3756C3.93418 35.1499 3.93418 35.1499 4.1174 34.9197C4.22261 34.7093 4.22261 34.7093 4.32995 34.4946C4.08403 33.9152 3.82515 33.3575 3.54608 32.7942C3.38667 32.4618 3.22768 32.1292 3.0687 31.7963C2.92246 31.4913 2.77602 31.1863 2.62958 30.8813C1.18937 27.8783 0.849718 24.7432 0.822938 21.4496C0.819112 21.1846 0.815074 20.9195 0.811035 20.6466C0.834415 17.1258 2.0776 14.2141 4.42793 11.6219C5.86028 10.2754 7.47775 9.34064 9.20532 8.4179C9.44678 8.28805 9.68844 8.15823 9.93733 8.02445C11.7731 7.04795 13.6528 6.19998 15.5662 5.38661C17.0757 4.73743 18.517 4.00995 19.9521 3.21052C20.1451 3.1041 20.3383 2.9977 20.5372 2.88807C21.6046 2.29966 21.6046 2.29966 22.6646 1.69768C27.8031 -1.24476 33.209 0.556694 38.079 3.26115Z" fill="#E7A420"/>
<path d="M19.4602 9.60008C19.6968 9.60163 19.6968 9.60163 19.9385 9.60321C22.0856 9.62637 23.8687 9.68348 25.7967 10.6894C26.0628 10.8173 26.3295 10.9446 26.5963 11.0713C29.232 12.3347 31.4242 13.9065 33.6609 15.7905C33.8951 15.985 33.8951 15.985 34.1342 16.1833C35.1419 17.0373 36.0095 17.9601 36.849 18.9787C37.0525 19.2252 37.0524 19.2252 37.2601 19.4769C37.6965 20.0144 38.1237 20.5581 38.5494 21.1041C38.6801 21.2661 38.8108 21.4281 38.9454 21.5949C41.0328 24.2957 42.9064 27.5324 43.6505 30.8812C43.7204 31.1233 43.7204 31.1233 43.7916 31.3703C44.7917 35.2301 43.9925 39.2902 42.1578 42.749C41.0417 44.5356 39.5341 45.6338 37.6992 46.6096C37.5598 46.6902 37.4204 46.7707 37.2767 46.8536C33.7357 48.8038 29.3655 48.421 25.6024 47.3784C21.6805 46.1877 18.3053 44.1041 15.1694 41.5085C14.899 41.2879 14.899 41.2879 14.6231 41.0626C13.3634 39.9939 12.3616 38.7661 11.3435 37.4702C11.189 37.2823 11.0345 37.0942 10.8753 36.9005C8.79299 34.3634 8.79299 34.3634 8.79299 33.4318C8.44229 33.4318 8.09159 33.4318 7.73026 33.4318C5.24985 29.1634 3.65151 24.3399 4.76801 19.3623C6.07517 15.4515 8.51541 13.0754 12.113 11.1466C14.4002 10.0405 16.9341 9.58278 19.4602 9.60008Z" fill="#FBECB6"/>
<path d="M38.0793 3.26139C39.6298 4.18355 41.0207 5.25108 42.3759 6.43881C42.5864 6.62319 42.7968 6.80757 43.0136 6.99757C46.3718 9.98701 49.0246 13.4224 51.3029 17.2786C51.379 17.4051 51.4553 17.5316 51.5337 17.6616C53.6005 21.1244 54.8029 24.9872 55.3412 28.9687C55.3793 29.1667 55.4173 29.3648 55.4566 29.5689C55.9134 32.7433 55.5704 35.7463 54.4911 38.7458C54.4069 38.9864 54.3229 39.227 54.2362 39.4748C53.0581 42.5512 51.0289 44.8142 48.1546 46.3842C47.9599 46.4926 47.7655 46.6012 47.5652 46.7133C45.8241 47.6729 44.0425 48.5286 42.2344 49.3531C41.7319 49.5886 41.2386 49.8375 40.7453 50.0913C38.3114 51.3283 35.9165 52.0511 33.2365 52.5613C33.0158 52.604 32.7954 52.6467 32.568 52.6907C26.5436 53.5149 20.7938 50.9283 16.0202 47.4601C13.3732 45.4337 10.9833 43.1661 8.79368 40.6587C8.65532 40.5014 8.51695 40.3441 8.37433 40.1822C5.74981 37.0505 3.73105 33.5968 2.20476 29.8188C2.12739 29.6388 2.05024 29.4588 1.97053 29.2734C1.03448 26.7378 0.842128 24.1326 0.823212 21.4498C0.819386 21.185 0.815562 20.92 0.811523 20.6471C0.834266 17.1262 2.07787 14.2144 4.4282 11.6221C5.86055 10.2756 7.47802 9.34089 9.2056 8.41814C9.44705 8.2883 9.68871 8.15847 9.93761 8.0247C11.7734 7.0482 13.6531 6.20022 15.5665 5.38685C17.076 4.73767 18.5172 4.01019 19.9523 3.21077C20.1453 3.10434 20.3385 2.99794 20.5375 2.88831C21.6049 2.2999 21.6049 2.2999 22.6649 1.69793C27.8034 -1.24451 33.2093 0.556939 38.0793 3.26139ZM14.5324 10.2646C14.3373 10.3139 14.1422 10.3633 13.9413 10.4141C10.7991 11.3794 7.53074 13.707 5.95471 16.5925C5.20208 18.0576 4.63947 19.4445 4.54277 21.1045C4.5298 21.321 4.5298 21.321 4.51641 21.5419C4.28835 25.9397 5.51814 29.6613 7.73095 33.4321C8.08165 33.4321 8.43236 33.4321 8.79368 33.4321C8.84469 33.6162 8.89571 33.8005 8.9482 33.9901C9.4513 35.3238 10.4518 36.3742 11.3442 37.4705C11.4949 37.6584 11.4949 37.6584 11.6488 37.8501C15.5781 42.7255 20.9062 46.3415 27.0726 47.6727C27.2176 47.7097 27.3625 47.7469 27.5118 47.7851C31.2915 48.7212 35.0803 48.1588 38.4298 46.2389C41.3867 44.4422 42.8659 41.8494 43.8372 38.6129C44.4525 35.8772 44.2538 32.9071 43.4387 30.2439C43.3647 29.9542 43.3647 29.9542 43.2892 29.6586C42.4172 26.5854 40.5376 23.5781 38.5501 21.1045C38.3926 20.9066 38.2351 20.7089 38.0727 20.5051C37.6002 19.9201 37.1207 19.342 36.6372 18.7665C36.508 18.6107 36.3785 18.4546 36.2453 18.294C35.3891 17.2842 34.4688 16.4206 33.449 15.5783C33.3393 15.485 33.2299 15.3919 33.117 15.2958C30.634 13.1867 27.9847 11.4734 24.9472 10.2646C24.7782 10.1904 24.609 10.1161 24.4349 10.0396C21.5231 8.98115 17.4528 9.50104 14.5324 10.2646Z" fill="#F6AD07"/>
<path d="M19.4602 9.60008C19.6968 9.60163 19.6968 9.60163 19.9385 9.60321C22.0856 9.62637 23.8687 9.68348 25.7967 10.6894C26.0628 10.8173 26.3295 10.9446 26.5963 11.0713C29.232 12.3347 31.4242 13.9065 33.6609 15.7905C33.8951 15.985 33.8951 15.985 34.1342 16.1833C35.1419 17.0373 36.0095 17.9601 36.849 18.9787C37.0525 19.2252 37.0524 19.2252 37.2601 19.4769C37.6965 20.0144 38.1237 20.5581 38.5494 21.1041C38.6801 21.2661 38.8108 21.4281 38.9454 21.5949C41.0328 24.2957 42.9064 27.5324 43.6505 30.8812C43.7204 31.1233 43.7204 31.1233 43.7916 31.3703C44.7917 35.2301 43.9925 39.2902 42.1578 42.749C41.0417 44.5356 39.5341 45.6338 37.6992 46.6096C37.5598 46.6902 37.4204 46.7707 37.2767 46.8536C33.7357 48.8038 29.3655 48.421 25.6024 47.3784C21.6805 46.1877 18.3053 44.1041 15.1694 41.5085C14.899 41.2879 14.899 41.2879 14.6231 41.0626C13.3634 39.9939 12.3616 38.7661 11.3435 37.4702C11.189 37.2823 11.0345 37.0942 10.8753 36.9005C8.79299 34.3634 8.79299 34.3634 8.79299 33.4318C8.44229 33.4318 8.09159 33.4318 7.73026 33.4318C5.24985 29.1634 3.65151 24.3399 4.76801 19.3623C6.07517 15.4515 8.51541 13.0754 12.113 11.1466C14.4002 10.0405 16.9341 9.58278 19.4602 9.60008ZM12.3863 19.0907C10.4744 21.5709 10.1784 24.0079 10.4934 27.0554C11.3216 31.0598 14.2325 34.2905 17.0823 37.0451C17.2621 37.2291 17.4417 37.4134 17.627 37.603C17.7979 37.7696 17.9688 37.9363 18.145 38.1078C18.2489 38.2109 18.3527 38.3138 18.4598 38.42C21.8824 41.6237 26.2292 43.828 30.9609 43.6814C33.7038 43.5165 35.7778 42.502 37.6338 40.479C39.6719 37.9862 39.6967 35.0278 39.3996 31.944C38.5987 27.0076 34.5655 21.7024 30.6852 18.7661C25.3112 14.9726 17.3384 13.7046 12.3863 19.0907Z" fill="#D49474"/>
<path d="M58.1039 38.5328C58.529 38.7454 58.529 38.7454 58.6601 39.0865C58.7704 39.7754 58.771 40.4557 58.7691 41.1514C58.7696 41.3841 58.7696 41.3841 58.7702 41.622C58.771 42.1346 58.7704 42.6473 58.7698 43.16C58.77 43.5173 58.7702 43.8745 58.7704 44.232C58.7706 44.9813 58.7702 45.7303 58.7693 46.4795C58.7681 47.4372 58.7687 48.3948 58.77 49.3525C58.7708 50.0907 58.7706 50.829 58.77 51.5674C58.7698 51.9202 58.77 52.2733 58.7706 52.6261C58.771 53.1211 58.7702 53.6159 58.7691 54.1107C58.7696 54.2551 58.77 54.3996 58.7704 54.5482C58.7674 55.2294 58.7234 55.8679 58.6203 56.5423C58.536 57.1846 58.5559 57.4885 58.7415 58.0871C58.7634 58.4131 58.7751 58.74 58.7791 59.0669C58.7832 59.3564 58.7832 59.3564 58.7874 59.652C58.7891 59.8595 58.7906 60.0669 58.7923 60.2805C58.794 60.4961 58.7957 60.7116 58.7974 60.9337C58.8004 61.3898 58.8027 61.8461 58.8042 62.3025C58.8068 62.7667 58.811 63.2309 58.8174 63.6951C58.8265 64.368 58.8299 65.0407 58.832 65.7138C58.8359 65.9187 58.8395 66.1236 58.8433 66.3347C58.8367 68.3981 58.0915 70.0366 56.9614 71.7299C56.8847 71.8496 56.808 71.9695 56.7289 72.093C52.7743 78.1429 45.0816 80.8803 38.3371 82.3173C36.8444 82.5961 35.3929 82.7424 33.8736 82.7424C33.8736 80.7785 33.8736 78.8145 33.8736 76.7911C34.2639 76.7428 34.6539 76.6946 35.056 76.6449C42.7374 75.5299 50.6125 73.2112 55.5533 66.8014C57.4968 63.9397 58.0356 61.4708 57.8913 58.0871C57.8265 58.2214 57.7614 58.3555 57.6945 58.4939C54.7165 64.3159 49.0909 68.3537 43.0067 70.4921C41.8322 70.8715 40.6279 71.1333 39.4206 71.3844C38.9811 71.4762 38.5428 71.5731 38.1046 71.6709C36.6131 71.9916 35.4361 72.1151 33.8736 72.1151C33.8736 70.081 33.8736 68.047 33.8736 65.9513C34.4855 65.7472 35.0288 65.6864 35.6679 65.6341C42.7466 65.0184 50.3349 62.2661 55.0985 56.8001C56.2993 55.1478 57.1693 53.2599 57.6788 51.2856C57.6139 51.394 57.5489 51.5026 57.482 51.6144C54.3222 56.6343 49.4511 59.722 44.0758 61.9129C43.7602 62.044 43.7602 62.044 43.4382 62.1777C41.4154 62.9333 39.2417 63.1909 37.1175 63.5246C36.604 63.6077 36.604 63.6077 35.9991 63.8258C35.6318 63.8403 35.2641 63.8439 34.8966 63.839C34.6092 63.8362 34.6092 63.8362 34.3161 63.8332C34.1701 63.8309 34.0241 63.8283 33.8736 63.8258C33.8685 62.9822 33.8645 62.1384 33.8619 61.2948C33.8609 61.0077 33.8594 60.7205 33.8577 60.4331C33.8551 60.0212 33.8541 59.6091 33.853 59.1972C33.8517 58.9489 33.8507 58.7007 33.8496 58.445C33.8736 57.8745 33.8736 57.8745 34.0862 57.662C34.4535 57.6382 34.8212 57.6222 35.1889 57.6088C42.3548 57.0919 50.0027 54.1265 54.8292 48.673C57.2277 45.7626 58.0501 42.2192 58.1039 38.5328Z" fill="#BA8604"/>
<path d="M55.5531 34.0694C56.2031 34.6983 56.788 35.3113 57.2932 36.062C57.3972 36.2127 57.5011 36.3634 57.608 36.5186C58.726 38.5973 58.3902 41.0724 57.7727 43.2673C56.9616 45.8891 55.7608 47.8356 53.8527 49.7978C53.7065 49.9598 53.5601 50.1217 53.4094 50.2886C52.1067 51.6856 50.604 52.674 48.9642 53.6236C48.7421 53.7526 48.5197 53.8817 48.2908 54.0147C45.3296 55.6054 42.0001 56.6265 38.722 57.33C38.5724 57.3621 38.4227 57.3944 38.2687 57.4276C35.7963 57.9126 33.27 57.9143 30.76 57.9139C30.2608 57.9143 29.7615 57.9183 29.2622 57.9224C27.3572 57.9296 25.5476 57.8133 23.6712 57.4494C23.4712 57.4129 23.271 57.3765 23.0648 57.3389C17.6262 56.3164 12.4539 54.4383 8.15536 50.8605C7.98873 50.7285 7.82209 50.5963 7.65057 50.4603C5.40056 48.5931 3.92421 46.3229 2.84172 43.634C2.40153 43.8805 2.40153 43.8805 1.99153 44.2716C1.86061 44.7792 1.8606 44.7792 1.87548 45.3586C1.87123 45.5798 1.86719 45.8011 1.86273 46.0289C1.86252 46.2674 1.86231 46.5059 1.86209 46.7516C1.85848 46.996 1.85508 47.2404 1.85125 47.4923C1.84105 48.2741 1.83659 49.0558 1.83212 49.8378C1.82617 50.3672 1.8198 50.8969 1.813 51.4263C1.79727 52.7256 1.78643 54.0247 1.77899 55.324C1.70885 55.324 1.63871 55.324 1.56644 55.324C1.54667 53.3764 1.53158 51.4289 1.52244 49.4813C1.51798 48.5765 1.51203 47.6719 1.50225 46.7673C1.4929 45.8923 1.48801 45.0172 1.48567 44.1422C1.48419 43.8104 1.48121 43.4786 1.47653 43.147C1.4421 40.5731 1.64445 38.0344 3.27999 35.9292C3.42282 35.7396 3.56565 35.55 3.71273 35.3547C4.11699 34.9196 4.11699 34.9196 4.75463 34.707C4.89087 34.9149 5.0269 35.123 5.16718 35.3372C10.2355 43.0382 17.2326 50.0405 26.4809 52.2329C31.4846 53.2098 36.4875 52.1001 40.9637 49.7663C41.5876 49.4435 42.2203 49.1434 42.8569 48.8462C50.0207 45.5116 50.0207 45.5116 54.2113 39.0111C54.7592 37.3894 55.1658 35.7355 55.5531 34.0694Z" fill="#FDF269"/>
<path d="M38.0784 3.26108C39.629 4.18323 41.0199 5.25076 42.3751 6.43849C42.5855 6.62288 42.7959 6.80726 43.0127 6.99725C45.8153 9.49214 48.3319 12.3353 50.2393 15.5779C49.6003 16.2687 48.9374 16.7444 48.1346 17.2326C48.0156 17.3055 47.8966 17.3782 47.7741 17.4532C47.3965 17.6838 47.0179 17.9128 46.6392 18.1419C46.3858 18.2962 46.1324 18.4507 45.8791 18.6054C45.2081 19.0148 44.5358 19.4225 43.8629 19.8289C43.6699 19.95 43.4769 20.0714 43.2779 20.1961C42.8001 20.4665 42.8001 20.4665 42.3751 20.4665C42.4518 20.5666 42.5285 20.6665 42.6076 20.7696C42.7062 20.9018 42.8048 21.0342 42.9064 21.1707C43.005 21.3012 43.1037 21.4319 43.2053 21.5666C43.4378 21.9543 43.4378 21.9543 43.4378 22.592C43.1638 22.7348 42.8892 22.8761 42.6142 23.0171C42.4613 23.0959 42.3083 23.175 42.1508 23.2562C41.7374 23.4421 41.7374 23.4421 41.3123 23.4421C41.2422 23.5824 41.172 23.7227 41.0998 23.8672C40.9433 23.6494 40.7869 23.4315 40.6258 23.2073C40.4162 22.918 40.2067 22.6287 39.9971 22.3397C39.8432 22.1248 39.8432 22.1248 39.6863 21.9059C39.0785 21.0697 38.4472 20.3345 37.699 19.6163C37.4748 19.3621 37.2531 19.1054 37.0348 18.8458C35.3612 16.9223 33.5334 15.2449 31.5352 13.665C31.2657 13.4414 31.2657 13.4414 30.9907 13.2134C28.256 10.9574 25.2298 9.51497 21.7581 8.7765C21.6263 8.74022 21.4943 8.70396 21.3585 8.66659C19.8939 8.28573 18.4683 8.30316 16.9626 8.32484C16.5801 8.32771 16.5801 8.32771 16.19 8.33064C15.5662 8.33561 14.9426 8.34322 14.319 8.35141C14.2489 7.57986 14.1787 6.80832 14.1064 6.0134C14.2977 5.93559 14.489 5.85777 14.6861 5.7776C16.4604 5.03716 18.1503 4.19609 19.832 3.26359C20.2341 3.04343 20.6367 2.82341 21.0391 2.60353C21.5861 2.30452 22.132 2.00451 22.6725 1.69387C27.8057 -1.24696 33.2141 0.559854 38.0784 3.26108Z" fill="#FDD92B"/>
<path d="M3.267 57.0244C3.32248 57.1292 3.37795 57.234 3.43513 57.342C4.50487 59.349 5.54358 61.2911 7.09283 62.9757C7.25968 63.1621 7.42653 63.3483 7.59848 63.5402C9.93627 66.0208 12.771 67.7629 15.8521 69.1772C16.1887 69.3321 16.5224 69.4932 16.8557 69.6552C18.887 70.5857 21.0684 71.0286 23.2463 71.4775C23.4149 71.5132 23.5836 71.549 23.7575 71.5857C28.5646 72.5681 33.6691 72.4412 38.4457 71.3821C38.9464 71.2712 39.4481 71.1702 39.9511 71.0716C44.5861 70.1219 48.7427 67.8929 52.3651 64.8886C52.6429 64.6671 52.6429 64.6671 52.9262 64.4412C55.0387 62.6707 56.6473 60.3197 57.8913 57.8746C57.9614 57.8746 58.0316 57.8746 58.1039 57.8746C58.3121 61.9582 57.3918 64.9418 54.65 68.09C54.3171 68.4434 53.9805 68.7933 53.6404 69.1395C53.4706 69.3147 53.3005 69.4896 53.1256 69.67C49.0896 73.5898 43.5132 75.2628 38.1245 76.3661C37.9513 76.4037 37.7781 76.4413 37.5995 76.48C35.313 76.964 33.0636 77.0433 30.7335 77.0431C30.2531 77.0435 29.773 77.0475 29.2926 77.0516C26.2825 77.0635 23.3498 76.7784 20.4167 76.0738C20.1168 76.0029 20.1168 76.0029 19.8107 75.9304C13.7145 74.4598 7.51728 71.3717 3.89125 66.0576C2.70907 63.9934 2.11394 62.1259 2.098 59.7609C2.09651 59.5871 2.09524 59.4132 2.09375 59.234C2.11012 58.4846 2.13732 57.9962 2.50312 57.3315C2.84191 57.0244 2.84191 57.0244 3.267 57.0244Z" fill="#FDF36A"/>
<path d="M26.0886 17.4111C26.8336 17.5176 27.0321 17.7567 27.4967 18.341C27.6261 18.9821 27.6261 18.9821 27.6561 19.6694C27.6682 19.8986 27.6801 20.1275 27.6927 20.3636C27.6982 20.5377 27.7035 20.712 27.7093 20.8916C27.9503 20.9921 28.1915 21.0926 28.4398 21.1964C32.0854 22.773 32.0854 22.773 33.0229 24.5049C33.2076 25.1529 33.2971 25.7451 33.2354 26.4178C32.91 26.7432 32.6123 26.682 32.1593 26.6966C31.0566 26.6828 30.3427 26.3332 29.4096 25.7801C29.0555 25.5848 28.7014 25.3901 28.3469 25.1956C28.0634 25.0366 27.7798 24.8772 27.4967 24.7174C27.3492 25.5844 27.3821 26.2341 27.7093 27.0554C28.5722 27.9083 29.6779 28.4954 30.7038 29.1305C32.3642 30.2053 33.445 31.7678 34.0025 33.6584C34.3097 35.1781 34.0323 36.3711 33.2354 37.6827C32.2854 38.6328 31.4001 38.979 30.0738 39.0111C29.142 38.9943 28.3743 38.8381 27.4967 38.5329C27.5016 38.7274 27.5065 38.9218 27.5116 39.1223C27.5154 39.375 27.5192 39.6275 27.5233 39.8879C27.5282 40.1393 27.5331 40.391 27.5382 40.6501C27.4967 41.296 27.4967 41.296 27.0716 41.7211C26.5668 41.8008 26.5668 41.8008 26.0089 41.7211C25.5319 41.3236 25.2235 41.0008 24.9462 40.4458C24.9309 39.8681 24.9264 39.2961 24.9328 38.7189C24.9338 38.5586 24.9347 38.3983 24.9357 38.2332C24.9383 37.8372 24.9421 37.441 24.9462 37.0451C24.7355 36.9955 24.5247 36.9458 24.3077 36.8948C23.3631 36.6238 22.5928 36.1526 21.7711 35.6236C21.6219 35.5283 21.4727 35.4331 21.3188 35.3349C18.0979 33.2456 18.0979 33.2456 17.507 31.3063C17.448 30.7862 17.4633 30.3439 17.507 29.8185C19.6429 29.6368 21.0857 30.7314 22.6734 32.0252C23.3935 32.6077 24.1041 33.0466 24.9462 33.4318C25.0216 32.317 25.011 31.332 24.7336 30.2436C24.168 29.6602 23.6033 29.3337 22.8938 28.9409C20.8634 27.8048 19.2333 26.1253 18.5698 23.8672C18.4227 22.7822 18.3443 21.7592 18.5698 20.679C19.2839 19.8018 19.9248 19.2535 21.0564 19.1272C22.4747 19.1217 23.6367 19.2732 24.9462 19.8288C24.9566 19.6958 24.967 19.5625 24.9776 19.4254C24.9936 19.2516 25.0095 19.0779 25.0259 18.899C25.0407 18.7264 25.0554 18.5538 25.0707 18.3759C25.1993 17.704 25.4178 17.517 26.0886 17.4111Z" fill="#F5A90A"/>
<path d="M1.77881 40.8709C1.84895 40.8709 1.91909 40.8709 1.99135 40.8709C2.06149 41.923 2.13163 42.9751 2.2039 44.0591C2.41432 43.8487 2.62474 43.6383 2.84154 43.4215C2.94994 43.6478 3.05855 43.8742 3.17035 44.1073C6.03164 49.8935 10.8836 53.3233 16.8696 55.5366C18.6314 56.1275 20.441 56.5383 22.2495 56.9581C22.5426 57.0265 22.5426 57.0265 22.8417 57.0962C25.3113 57.6546 27.7509 57.7194 30.2731 57.7815C30.623 57.7908 30.9726 57.8 31.3223 57.8093C32.1727 57.8321 33.0228 57.8533 33.8732 57.8746C33.8732 59.8385 33.8732 61.8024 33.8732 63.8259C29.5964 64.6812 25.0966 63.9394 20.9079 62.9757C20.7419 62.9396 20.5762 62.9032 20.4051 62.8658C14.2266 61.507 7.21637 57.5866 3.74741 52.1998C3.50149 51.7586 3.26854 51.3178 3.05408 50.8606C2.84366 50.8606 2.63324 50.8606 2.41645 50.8606C2.17223 51.8678 2.13397 52.8719 2.08445 53.9025C2.07063 54.1691 2.07064 54.1691 2.05661 54.4411C2.03408 54.877 2.01261 55.313 1.99135 55.7491C1.92121 55.7491 1.85107 55.7491 1.77881 55.7491C1.77881 50.8393 1.77881 45.9295 1.77881 40.8709Z" fill="#E7A420"/>
<path d="M2.41662 62.9757C2.96413 63.2495 2.97944 63.4499 3.20049 64.0119C5.56315 69.4392 10.6379 72.4903 15.9388 74.6179C20.6097 76.3106 25.4538 76.8248 30.3798 76.924C30.7216 76.9321 31.0636 76.9404 31.4055 76.9489C32.2281 76.9693 33.0506 76.9865 33.8734 77.0037C33.8734 78.8975 33.8734 80.7913 33.8734 82.7425C34.0838 82.8126 34.2943 82.8828 34.5111 82.955C26.3057 83.0426 18.7029 82.7321 11.3435 78.7041C11.1499 78.5995 10.9561 78.4947 10.7565 78.387C7.23482 76.3795 4.44494 73.7029 2.41662 70.2023C2.2944 70.021 2.17219 69.8395 2.04636 69.6526C1.61638 68.4855 1.71309 67.3161 1.73923 66.0842C1.742 65.8264 1.74497 65.5686 1.74795 65.3029C1.75539 64.6688 1.7658 64.0348 1.77898 63.4008C1.9894 63.506 1.9894 63.506 2.20407 63.6133C2.27421 63.4029 2.34435 63.1925 2.41662 62.9757Z" fill="#E7A31F"/>
<path d="M54.7029 25.355C54.805 25.9306 54.9068 26.5063 55.0086 27.0819C55.0371 27.2437 55.0658 27.4052 55.0953 27.5718C55.1518 27.8919 55.208 28.2124 55.2636 28.5328C55.3259 28.8852 55.3935 29.2365 55.4626 29.5876C55.9004 32.7611 55.5693 35.747 54.4904 38.7454C54.4062 38.986 54.3223 39.2266 54.2356 39.4744C53.0487 42.5731 51.0106 44.8233 48.114 46.397C47.9206 46.5046 47.727 46.6121 47.5276 46.7231C46.9461 47.044 46.3618 47.3594 45.776 47.6723C45.6009 47.7658 45.4257 47.8596 45.2451 47.9558C44.7728 48.2058 44.2988 48.4519 43.8232 48.6953C43.6115 48.8047 43.6115 48.8047 43.3953 48.9165C43.0618 49.0823 42.7192 49.2296 42.3753 49.3727C42.235 49.3025 42.0947 49.2324 41.9502 49.1601C42.0864 49.0492 42.2225 48.9382 42.3627 48.8239C44.7348 46.8055 45.9422 44.4401 46.8388 41.5085C46.8808 41.3709 46.9229 41.2334 46.9663 41.0917C47.3393 39.6763 47.3357 38.2561 47.331 36.7995C47.3304 36.3719 47.3353 35.9447 47.3406 35.517C47.3416 33.3862 47.0898 31.4219 46.4137 29.3934C46.5276 29.3387 46.6415 29.2843 46.759 29.2282C47.9404 28.6509 49.0939 28.0318 50.2395 27.3876C50.3857 27.3053 50.5319 27.2233 50.6826 27.1385C51.6937 26.5665 52.6838 25.9671 53.6576 25.3333C54.0653 25.1424 54.0653 25.1424 54.7029 25.355Z" fill="#BD8801"/>
<path d="M36.7803 2.57458C38.7022 3.54883 40.6041 4.72673 42.1631 6.22584C42.1631 6.36612 42.1631 6.5064 42.1631 6.65093C42.0228 6.72107 41.8825 6.79121 41.738 6.86348C41.738 7.0739 41.738 7.28432 41.738 7.50112C41.5018 7.5455 41.2657 7.58987 41.0223 7.63561C39.8504 7.92923 38.9018 8.53962 37.8856 9.17492C37.7011 9.28752 37.5168 9.40013 37.3268 9.51614C36.5553 9.98941 35.8046 10.4616 35.0842 11.0098C34.5114 11.3269 34.5114 11.3269 33.9601 11.2141C33.4345 10.8931 32.97 10.5465 32.4922 10.1579C28.2194 6.98795 23.1069 5.68517 17.8755 5.44871C17.2952 5.37566 17.2952 5.37566 16.8701 4.95057C18.4561 3.96042 20.0925 3.08222 21.7544 2.22862C22.1755 2.01225 22.5957 1.7946 23.0161 1.5768C27.7004 -0.840482 32.2202 0.345376 36.7803 2.57458Z" fill="#FDD524"/>
<path d="M57.8909 50.648C58.1034 51.0731 58.1034 51.0731 57.89 51.7373C57.7821 52.0128 57.6715 52.2874 57.5589 52.5609C57.4998 52.7048 57.4409 52.8487 57.3801 52.9971C55.1911 58.2093 50.7438 61.345 45.6695 63.4407C44.0962 64.062 42.4983 64.5472 40.8606 64.9683C40.666 65.0191 40.4713 65.0697 40.2708 65.122C37.1045 65.8867 33.8507 66.0457 30.6053 66.0444C30.4317 66.0444 30.2582 66.0446 30.0793 66.0448C23.9333 66.0304 18.0013 64.7271 12.6186 61.7004C12.4949 61.6311 12.3712 61.5618 12.2437 61.4904C8.52753 59.3771 4.93742 56.3863 3.2666 52.3484C3.3529 51.875 3.3529 51.875 3.47915 51.4982C3.60795 51.6729 3.73675 51.8478 3.86938 52.0279C8.39895 58.0992 15.0204 61.5878 22.3702 63.0951C22.6648 63.1559 22.9588 63.2193 23.2523 63.2856C26.4122 63.9931 29.5885 63.9051 32.8105 63.8259C32.9807 63.8227 33.1512 63.8193 33.3265 63.8159C40.1603 63.6579 47.3599 61.2736 52.5772 56.8118C52.6876 56.7181 52.7981 56.6244 52.9118 56.5279C54.8823 54.8364 56.6991 52.9799 57.8909 50.648Z" fill="#FCF368"/>
<path d="M8.15491 39.8082C8.82146 40.4637 9.46186 41.1332 10.088 41.8278C15.0391 47.3019 21.7073 52.0918 29.2992 52.6115C33.4013 52.6938 37.3249 51.6619 40.9575 49.7696C41.6009 49.4367 42.2534 49.1255 42.9087 48.8165C43.1219 48.7158 43.3351 48.6152 43.5546 48.5115C43.9795 48.3113 44.4046 48.1119 44.8303 47.9134C46.0442 47.3395 47.1945 46.7151 48.3297 45.9973C48.7512 45.7594 48.7512 45.7595 49.1763 45.7595C49.2985 46.7365 49.2392 47.2758 48.6583 48.0843C45.6157 51.7664 40.9053 53.9444 36.211 54.4738C35.1465 54.5365 34.0813 54.5353 33.0153 54.5293C32.5341 54.527 32.0531 54.5293 31.5719 54.5319C28.9194 54.5346 26.3225 54.2908 23.7373 53.6636C23.5864 53.627 23.4355 53.5907 23.2799 53.5533C21.9296 53.2132 20.6781 52.7333 19.4198 52.1358C19.182 52.0266 18.9442 51.9171 18.6991 51.8045C14.5647 49.8329 10.1543 46.6422 8.32431 42.2865C8.06649 41.4259 8.0818 40.7002 8.15491 39.8082Z" fill="#EBC76B"/>
<path d="M17.2946 5.16318C17.6492 5.19912 18.005 5.2259 18.3608 5.24702C22.2385 5.50382 25.4796 6.24038 28.9847 7.92627C29.3356 8.09312 29.3356 8.09312 29.6937 8.26335C34.9989 10.9487 39.1395 15.4816 42.3402 20.4059C42.7695 21.0801 42.7695 21.0801 43.1804 21.5832C43.4378 21.9543 43.4378 21.9543 43.4378 22.5919C43.1638 22.7348 42.8892 22.8761 42.6142 23.017C42.4613 23.0959 42.3083 23.175 42.1508 23.2561C41.7374 23.4421 41.7374 23.4421 41.3123 23.4421C41.2422 23.5824 41.172 23.7227 41.0998 23.8672C40.9433 23.6494 40.7869 23.4315 40.6258 23.2073C40.4162 22.918 40.2067 22.6287 39.9971 22.3394C39.8432 22.1248 39.8432 22.1248 39.6863 21.9056C39.0785 21.0697 38.4472 20.3345 37.699 19.6163C37.4748 19.3619 37.2531 19.1053 37.0348 18.8458C35.3612 16.9223 33.5334 15.2449 31.5352 13.665C31.2657 13.4414 31.2657 13.4414 30.9907 13.2134C28.256 10.9574 25.2298 9.51495 21.7581 8.77646C21.6263 8.7402 21.4943 8.70391 21.3585 8.66655C19.8939 8.28571 18.4683 8.30314 16.9626 8.3248C16.5801 8.32766 16.5801 8.32766 16.19 8.3306C15.5662 8.33557 14.9426 8.3432 14.319 8.35136C14.2489 7.57982 14.1787 6.80828 14.1064 6.01336C14.5171 5.82934 14.9292 5.64835 15.3418 5.46871C15.5711 5.3676 15.8004 5.26652 16.0368 5.16235C16.657 4.95063 16.657 4.95063 17.2946 5.16318Z" fill="#FDE344"/>
<path d="M19.4602 9.60008C19.6968 9.60163 19.6968 9.60163 19.9385 9.60321C22.0856 9.62637 23.8687 9.68348 25.7967 10.6894C26.0628 10.8173 26.3295 10.9446 26.5963 11.0713C32.7843 14.0374 32.7843 14.0374 33.8734 16.2156C33.0961 15.9297 32.4445 15.572 31.7479 15.1263C27.0114 12.3173 20.7219 10.6932 15.2674 11.9921C12.7863 12.6984 10.6617 13.8599 8.58045 15.3654C8.44017 15.3654 8.29988 15.3654 8.15535 15.3654C8.08521 15.5758 8.01507 15.7862 7.94281 16.003C7.81571 16.1127 7.6886 16.2222 7.55768 16.3352C6.86478 17.107 6.5738 18.0054 6.24244 18.9787C6.16571 19.2014 6.08898 19.4242 6.00992 19.6537C5.05686 23.6761 6.10407 27.7745 7.81826 31.4152C8.1205 32.08 8.36429 32.7351 8.58045 33.4318C8.29988 33.4318 8.01932 33.4318 7.73026 33.4318C5.24985 29.1634 3.65151 24.3399 4.76801 19.3623C6.07517 15.4515 8.51541 13.0754 12.113 11.1466C14.4002 10.0405 16.9341 9.58278 19.4602 9.60008Z" fill="#B58062"/>
<path d="M50.4521 15.7905C50.7327 16.3516 51.0132 16.9127 51.3023 17.4908C49.6334 18.7004 47.9005 19.7489 46.1153 20.7762C45.916 20.892 45.7166 21.008 45.5113 21.1273C45.3323 21.2304 45.1531 21.3332 44.9686 21.4393C44.5367 21.7186 44.2084 22.0006 43.8632 22.3794C44.0702 23.0481 44.2936 23.6653 44.6071 24.2923C45.0819 25.242 45.351 25.9884 45.351 27.0554C44.5767 27.5508 43.917 27.5955 43.013 27.4805C42.4823 26.7336 42.1035 25.8964 41.6978 25.0762C41.5853 24.849 41.4727 24.6217 41.3566 24.3877C41.272 24.216 41.1872 24.0443 41.1001 23.8672C41.6395 23.3133 42.0719 22.874 42.8005 22.5919C43.0109 22.5919 43.2213 22.5919 43.4381 22.5919C43.3416 22.3989 43.2453 22.2062 43.1459 22.0074C42.8891 21.4937 42.6321 20.9802 42.3754 20.4665C42.5894 20.3426 42.8034 20.2189 43.0238 20.0911C44.9563 18.9663 46.8599 17.8058 48.7367 16.5899C48.8993 16.4855 49.0616 16.3811 49.2291 16.2736C49.373 16.1803 49.5171 16.087 49.6655 15.9909C50.027 15.7905 50.027 15.7905 50.4521 15.7905Z" fill="#FCC410"/>
<path d="M13.6812 6.22595C13.8916 6.22595 14.102 6.22595 14.3188 6.22595C14.3889 6.85721 14.4591 7.48847 14.5313 8.13887C14.7511 8.13385 14.7511 8.13385 14.9753 8.12875C20.2629 8.02409 20.2628 8.02409 22.6081 8.7765C22.8746 8.84883 23.1414 8.92116 23.416 8.99568C25.8855 9.68171 28.4316 10.6852 30.3203 12.4729C30.7881 12.9118 31.2865 13.3042 31.7875 13.705C37.0121 17.9706 37.0121 17.9706 38.3365 20.254C38.5824 20.4927 38.8283 20.7314 39.0755 20.9688C40.2598 22.2413 41.2989 23.7421 41.9498 25.3551C41.8626 25.8276 41.8626 25.8276 41.7372 26.2053C41.222 25.5519 40.8148 24.8718 40.4088 24.1461C39.7321 22.9756 38.9801 21.935 38.1239 20.8916C37.8359 20.5286 37.5481 20.1656 37.2606 19.8023C36.9819 19.4565 36.7031 19.1111 36.4236 18.7662C36.3143 18.6299 36.2049 18.4939 36.0922 18.3536C35.2956 17.3884 34.4103 16.5878 33.4479 15.7905C33.338 15.697 33.2282 15.6035 33.1149 15.5072C30.6323 13.3985 27.9832 11.6854 24.9461 10.4769C24.7771 10.4026 24.6079 10.3284 24.4338 10.2519C22.0178 9.37363 18.374 9.59361 15.8906 10.1713C15.3815 10.2643 15.3815 10.2643 14.1062 10.2643C14.1062 9.0018 14.1062 7.73928 14.1062 6.4385C13.966 6.36836 13.8257 6.29822 13.6812 6.22595Z" fill="#ECAC15"/>
<path d="M8.15542 33.4318C8.36584 33.4318 8.57626 33.4318 8.79305 33.4318C9.09104 33.8851 9.09104 33.8851 9.41752 34.5211C10.2681 36.0505 11.3496 37.3033 12.5152 38.6009C12.8446 38.9726 13.1628 39.3524 13.4816 39.7333C14.3539 40.7531 15.3854 41.5408 16.4447 42.3587C16.6611 42.5302 16.8777 42.7017 17.1006 42.8784C20.0448 45.1435 23.4443 46.6902 27.072 47.4598C27.3309 47.5267 27.3309 47.5267 27.5951 47.5952C28.9596 47.9425 30.3461 48.0152 31.748 48.0974C31.748 48.1676 31.748 48.2377 31.748 48.31C26.3598 49.3051 21.2971 46.934 16.8698 44.0591C13.6863 41.8577 11.1901 38.7994 8.97903 35.6635C8.82026 35.4418 8.82026 35.4418 8.65809 35.2159C8.40218 34.8452 8.1703 34.4581 7.94287 34.0694C8.01301 33.859 8.08315 33.6486 8.15542 33.4318Z" fill="#FAE04F"/>
<path d="M10.0683 12.3897C10.2085 12.4598 10.3488 12.53 10.4934 12.6023C10.3531 12.7338 10.2128 12.8654 10.0683 13.0008C7.61145 15.4854 5.76485 18.564 5.71788 22.1322C5.72 22.3235 5.72213 22.5145 5.72447 22.7114C5.72617 22.9148 5.72787 23.118 5.72978 23.3271C5.79843 26.2626 6.57529 28.7751 7.81826 31.4151C8.1205 32.08 8.36429 32.735 8.58045 33.4318C8.29988 33.4318 8.01932 33.4318 7.73026 33.4318C5.24985 29.1634 3.65151 24.3399 4.76801 19.3623C5.75146 16.42 7.32791 13.9762 10.0683 12.3897Z" fill="#BD7907"/>
<path d="M13.6812 6.22595C13.8916 6.22595 14.102 6.22595 14.3188 6.22595C14.3889 6.85721 14.4591 7.48847 14.5313 8.13887C14.7511 8.13385 14.7511 8.13385 14.9753 8.12875C20.3502 8.02235 20.3502 8.02235 22.6081 8.7765C22.6081 8.91678 22.6081 9.05706 22.6081 9.20159C22.7484 9.27173 22.8886 9.34188 23.0332 9.41414C22.7658 9.42209 22.4984 9.43004 22.2229 9.43822C20.1332 9.51389 18.1446 9.68635 16.1006 10.1323C15.3815 10.2643 15.3815 10.2643 14.1062 10.2643C14.1062 9.0018 14.1062 7.73928 14.1062 6.4385C13.966 6.36836 13.8257 6.29822 13.6812 6.22595Z" fill="#F9C619"/>
<path d="M54.7029 25.355C54.6697 25.8375 54.6697 25.8375 54.4903 26.4177C53.9921 26.8188 53.9921 26.8188 53.3213 27.2016C53.2008 27.2719 53.0805 27.3423 52.9564 27.4148C52.5485 27.6524 52.1379 27.8851 51.7272 28.1181C51.2518 28.392 50.7774 28.6671 50.3034 28.9436C49.9935 29.1241 49.6825 29.3032 49.3709 29.4807C48.4445 30.0163 47.6421 30.5985 46.8387 31.3063C46.6984 30.675 46.5581 30.0437 46.4136 29.3934C46.6941 29.2575 46.9747 29.1215 47.2638 28.9816C48.2717 28.4775 49.2574 27.9397 50.2394 27.3876C50.3856 27.3053 50.5319 27.2233 50.6826 27.1385C51.6936 26.5665 52.6837 25.9671 53.6576 25.3333C54.0652 25.1424 54.0652 25.1424 54.7029 25.355Z" fill="#D79401"/>
<path d="M3.05436 36.4074C3.1245 36.5477 3.19464 36.688 3.2669 36.8325C3.16616 37.0561 3.0652 37.2797 2.96147 37.5101C2.32129 39.1091 2.48813 41.0486 2.78867 42.7175C2.80632 42.9498 2.82374 43.1821 2.84181 43.4214C2.70493 43.5534 2.56826 43.6852 2.42735 43.821C1.88897 44.3777 1.88301 44.6208 1.87558 45.3828C1.87132 45.6038 1.86729 45.8251 1.86282 46.053C1.86261 46.2904 1.8624 46.5278 1.86219 46.7724C1.85857 47.0164 1.85517 47.2606 1.85156 47.5121C1.84114 48.2917 1.83668 49.0713 1.83222 49.8509C1.82627 50.3795 1.81989 50.9081 1.81309 51.4367C1.79736 52.7324 1.78652 54.0281 1.77908 55.324C1.70894 55.324 1.6388 55.324 1.56653 55.324C1.54677 53.3764 1.53168 51.4289 1.52254 49.4813C1.51807 48.5765 1.51212 47.6719 1.50235 46.7673C1.49299 45.8923 1.48811 45.0172 1.48598 44.1422C1.48428 43.8104 1.4813 43.4786 1.47663 43.147C1.44517 40.8016 1.483 38.301 3.05436 36.4074Z" fill="#E9C575"/>
<path d="M22.609 8.98895C23.8622 9.09652 24.8558 9.35738 25.9966 9.87899C26.1437 9.94477 26.2908 10.0106 26.4423 10.0784C27.5701 10.5956 28.6628 11.1697 29.623 11.9646C29.623 12.0347 29.623 12.1049 29.623 12.1771C28.4132 12.2945 27.6661 11.9106 26.6342 11.3535C26.3396 11.1988 26.0448 11.0443 25.7498 10.8902C25.621 10.8213 25.4922 10.7522 25.3596 10.681C24.4507 10.231 23.6796 9.99317 22.6647 9.91718C22.4379 9.89937 22.2111 9.88156 21.9776 9.86322C21.7433 9.84649 21.5089 9.82978 21.2674 9.81257C20.9095 9.78502 20.9095 9.78502 20.5446 9.75694C19.9575 9.71197 19.3705 9.66859 18.7832 9.62659C18.7832 9.55645 18.7832 9.48631 18.7832 9.41404C20.0457 9.3439 21.3082 9.27376 22.609 9.2015C22.609 9.13136 22.609 9.06122 22.609 8.98895Z" fill="#FAC419"/>
<path d="M42.1632 20.6791C43.1834 21.3854 43.1834 21.3854 43.3985 22.1138C43.4117 22.2717 43.4249 22.4294 43.4385 22.592C43.1645 22.7348 42.8899 22.8762 42.6149 23.0171C42.462 23.0959 42.309 23.175 42.1515 23.2562C41.7381 23.4422 41.7381 23.4422 41.313 23.4422C41.2429 23.5825 41.1727 23.7227 41.1005 23.8673C40.6796 23.236 40.2588 22.6047 39.8252 21.9544C39.9761 21.8802 40.1272 21.8058 40.2826 21.7293C40.4779 21.6326 40.6735 21.5358 40.8747 21.4362C41.1668 21.2921 41.1668 21.2921 41.465 21.1448C41.9305 20.9331 41.9305 20.9331 42.1632 20.6791Z" fill="#FCD72B"/>
<path d="M27.2843 31.5189C28.5932 32.2823 28.5932 32.2823 28.9847 33.0067C29.1252 33.5912 29.1677 34.0985 29.1972 34.707C29.0569 34.8473 28.9167 34.9876 28.7721 35.1321C27.5887 35.0114 27.5887 35.0114 27.2843 34.707C27.2688 34.1693 27.2645 33.6373 27.2709 33.0998C27.272 32.9487 27.2728 32.7975 27.2739 32.6417C27.2764 32.2674 27.2803 31.8932 27.2843 31.5189Z" fill="#FCE8BC"/>
<path d="M58.1037 38.5328C58.5288 38.7454 58.5288 38.7454 58.6601 39.0948C58.7651 39.742 58.7666 40.3629 58.7655 41.0188C58.7655 41.1599 58.7655 41.301 58.7655 41.4464C58.7653 41.911 58.7638 42.3757 58.7621 42.8403C58.7617 43.1629 58.7613 43.4858 58.7611 43.8086C58.7604 44.6571 58.7583 45.5054 58.756 46.3539C58.7536 47.22 58.7528 48.0864 58.7517 48.9525C58.7494 50.6514 58.7458 52.35 58.7413 54.0487C58.6712 54.0487 58.601 54.0487 58.5288 54.0487C58.1659 50.2309 58.3923 46.3962 58.5288 42.5712C58.3885 42.5712 58.2482 42.5712 58.1037 42.5712C58.0335 42.7115 57.9634 42.8518 57.8911 42.9963C57.9613 41.5234 58.0314 40.0504 58.1037 38.5328Z" fill="#A17C04"/>
<path d="M1.56641 56.8118C1.63655 56.8118 1.70669 56.8118 1.77895 56.8118C1.84909 57.443 1.91923 58.0743 1.9915 58.7247C2.06164 58.7247 2.13178 58.7247 2.20404 58.7247C2.21701 58.9425 2.22976 59.1604 2.24315 59.3846C2.26101 59.6739 2.27907 59.9632 2.29714 60.2525C2.30543 60.3955 2.31372 60.5388 2.32243 60.6863C2.36154 61.3044 2.4134 61.8976 2.54284 62.504C2.66463 63.169 2.44826 63.6334 2.20404 64.2509C2.1339 64.2509 2.06376 64.2509 1.9915 64.2509C1.92136 65.5134 1.85122 66.7759 1.77895 68.0767C1.70881 68.0767 1.63867 68.0767 1.56641 68.0767C1.56641 64.3593 1.56641 60.6418 1.56641 56.8118Z" fill="#E6B250"/>
<path d="M23.9636 23.4022C24.5216 23.4421 24.5216 23.4421 25.1592 23.8672C25.2215 24.4666 25.2215 24.4666 25.1992 25.1691C25.1932 25.402 25.1875 25.6347 25.1815 25.8747C25.1743 26.0539 25.1669 26.2331 25.1592 26.4178C24.3526 26.0386 23.8172 25.6277 23.2463 24.9299C23.1666 24.2392 23.1666 24.2392 23.2463 23.6547C23.4588 23.4421 23.4588 23.4421 23.9636 23.4022Z" fill="#F8E9C2"/>
<path d="M27.0588 47.6324C27.2403 47.6339 27.422 47.6352 27.6091 47.6366C28.1347 47.6723 28.1347 47.6723 28.5375 47.7737C29.1613 47.9287 29.7789 47.9595 30.4195 48.0043C30.6682 48.0222 30.9171 48.0401 31.1734 48.0583C31.363 48.0713 31.5526 48.0843 31.748 48.0974C31.748 48.1676 31.748 48.2377 31.748 48.31C29.6112 48.7147 27.4749 48.6403 25.3716 48.0974C26.0621 47.6371 26.2613 47.6192 27.0588 47.6324Z" fill="#F9E244"/>
<path d="M58.7413 60.2126C58.7413 62.6675 58.7413 65.1224 58.7413 67.6517C58.6712 67.6517 58.601 67.6517 58.5288 67.6517C58.4586 65.8982 58.3885 64.1447 58.3162 62.338C58.1759 62.4783 58.0356 62.6186 57.8911 62.7631C57.9153 62.4175 57.9425 62.0721 57.9708 61.727C57.9857 61.5346 58.0004 61.3423 58.0157 61.1442C58.1776 60.2126 58.1776 60.2126 58.7413 60.2126Z" fill="#9F7700"/>
<path d="M18.7832 9.41404C19.5005 9.40783 20.2179 9.40407 20.9352 9.40075C21.2385 9.39807 21.2385 9.39807 21.548 9.39535C22.5644 9.39182 23.5226 9.41289 24.5219 9.62658C24.5219 9.76686 24.5219 9.90714 24.5219 10.0517C24.6622 10.1218 24.8025 10.192 24.947 10.2642C24.7158 10.236 24.4845 10.2078 24.2463 10.1787C22.4273 9.95924 20.6109 9.7604 18.7832 9.62658C18.7832 9.55644 18.7832 9.4863 18.7832 9.41404Z" fill="#E8AE26"/>
<path d="M58.1037 57.2369C58.2439 57.2369 58.3842 57.2369 58.5288 57.2369C58.7175 57.892 58.7821 58.4952 58.7944 59.1764C58.8 59.3611 58.8053 59.5458 58.811 59.7361C58.7881 59.8933 58.7649 60.0506 58.7413 60.2126C58.4257 60.423 58.4257 60.423 58.1037 60.6377C58.0622 60.1507 58.0227 59.6636 57.984 59.1764C57.9508 58.7696 57.9508 58.7696 57.9168 58.3545C57.8911 57.662 57.8911 57.662 58.1037 57.2369Z" fill="#AB9D1C"/>
<path d="M2.20411 40.8709C2.54439 41.4155 2.70189 41.9455 2.81518 42.5713C2.84089 42.7116 2.86661 42.8518 2.89318 42.9964C2.81709 43.6255 2.45491 43.8678 1.99156 44.2716C1.98582 43.7447 1.98157 43.2178 1.97838 42.6907C1.97562 42.4654 1.97562 42.4654 1.97286 42.2355C1.97116 41.8514 1.98051 41.4673 1.99156 41.0835C2.0617 41.0133 2.13184 40.9432 2.20411 40.8709Z" fill="#EDB435"/>
<path d="M57.8907 50.648C57.9608 50.7883 58.031 50.9286 58.1032 51.0731C57.9103 51.6251 57.7056 52.156 57.4788 52.6938C57.4171 52.8438 57.3553 52.9941 57.2917 53.1488C57.1385 53.5201 56.9836 53.8908 56.828 54.2613C56.6877 54.2613 56.5474 54.2613 56.4029 54.2613C56.2061 53.6171 56.1332 53.3159 56.4337 52.6987C56.5506 52.5392 56.6675 52.3798 56.788 52.2155C56.9034 52.0551 57.0188 51.8944 57.1376 51.729C57.2458 51.5828 57.354 51.4363 57.4656 51.2856C57.6059 51.0752 57.7462 50.8648 57.8907 50.648Z" fill="#EEDF42"/>
<path d="M41.0999 49.1602C41.2402 49.2304 41.3805 49.3005 41.525 49.3728C40.7488 50.0399 39.9821 50.4971 39.0541 50.9269C38.6949 51.0967 38.6949 51.0967 38.3285 51.2699C37.6992 51.4982 37.6992 51.4982 37.0615 51.2857C37.7242 50.9243 38.3891 50.5666 39.0541 50.2098C39.3377 50.055 39.3377 50.055 39.627 49.8971C39.8078 49.8004 39.9887 49.7039 40.1749 49.6044C40.342 49.5143 40.5088 49.424 40.681 49.3311C40.8191 49.2748 40.9575 49.2185 41.0999 49.1602Z" fill="#E59805"/>
<path d="M5.60475 10.4767C5.74503 10.5469 5.88531 10.617 6.02984 10.6893C5.93228 10.7996 5.83472 10.9101 5.73419 11.0238C5.03428 11.8194 4.34435 12.6171 3.69184 13.4524C3.48142 13.3822 3.271 13.3121 3.0542 13.2398C3.35942 12.8987 3.66506 12.5578 3.9707 12.2171C4.14095 12.0271 4.3112 11.8373 4.48633 11.6415C4.85064 11.2421 5.2177 10.8538 5.60475 10.4767Z" fill="#EEAF15"/>
<path d="M24.9463 10.2643C25.7064 10.3964 26.3837 10.599 27.0983 10.8887C27.2786 10.9608 27.4588 11.0328 27.6446 11.107C28.1345 11.327 28.1345 11.327 28.7721 11.7521C28.7721 11.8924 28.7721 12.0327 28.7721 12.1772C27.9192 11.8463 27.0911 11.4735 26.2615 11.0879C25.8911 10.9162 25.8911 10.9162 25.5134 10.7408C25.3263 10.6537 25.1391 10.5665 24.9463 10.4768C24.9463 10.4067 24.9463 10.3365 24.9463 10.2643Z" fill="#EAA922"/>
<path d="M10.0686 12.3897C10.2089 12.4598 10.3492 12.53 10.4937 12.6023C10.1394 12.9566 9.78529 13.3107 9.43098 13.665C9.27752 13.8272 9.12406 13.9893 8.96593 14.1564C8.5808 14.5152 8.5808 14.5152 8.1557 14.5152C7.84007 14.7256 7.84007 14.7256 7.51807 14.9403C7.8067 14.2769 8.11617 13.8839 8.67389 13.4259C8.80057 13.32 8.92746 13.2144 9.05817 13.1054C9.38379 12.8516 9.72514 12.6186 10.0686 12.3897Z" fill="#B57E0F"/>
<path d="M58.104 38.5328C58.5291 38.7454 58.5291 38.7454 58.6619 39.0774C58.7765 39.8217 58.7542 40.5431 58.7416 41.2959C58.5312 41.2258 58.3208 41.1557 58.104 41.0834C58.104 40.2417 58.104 39.4 58.104 38.5328Z" fill="#B6A224"/>
<path d="M37.9121 15.1528C38.7259 15.4755 39.1306 15.959 39.6656 16.6407C39.8157 16.8292 39.9659 17.0177 40.1207 17.212C40.4627 17.7034 40.4627 17.7034 40.4627 18.1285C40.3224 18.1285 40.1821 18.1285 40.0376 18.1285C39.693 17.7325 39.693 17.7325 39.3068 17.212C38.7814 16.5048 38.7814 16.5048 38.1835 15.861C37.9121 15.5779 37.9121 15.5779 37.9121 15.1528Z" fill="#FDEA4F"/>
<path d="M54.4903 56.8118C54.6305 56.952 54.7708 57.0923 54.9154 57.2369C54.3542 57.798 53.7931 58.3591 53.215 58.9372C53.1448 58.7268 53.0747 58.5164 53.0024 58.2996C53.4934 57.8086 53.9844 57.3176 54.4903 56.8118Z" fill="#FAF056"/>
<path d="M56.191 54.2613C56.3313 54.2613 56.4716 54.2613 56.6161 54.2613C56.3593 55.2031 56.0811 55.7451 55.3408 56.3868C55.3408 55.4843 55.7272 55.0296 56.191 54.2613Z" fill="#FAEF58"/>
<path d="M8.79305 33.4318C8.93333 33.7825 9.07362 34.1332 9.21815 34.4945C8.93759 34.5646 8.65703 34.6348 8.36796 34.707C8.22768 34.3563 8.0874 34.0056 7.94287 33.6443C8.15542 33.4318 8.15542 33.4318 8.79305 33.4318Z" fill="#FAD857"/>
<path d="M58.5288 60.425C58.6078 62.0332 58.6078 62.0332 58.2074 62.4999C58.103 62.5866 57.9987 62.6736 57.8911 62.7631C57.9209 62.4132 57.9521 62.0634 57.9842 61.7135C58.0014 61.5188 58.0186 61.3239 58.0365 61.1233C58.133 60.425 58.133 60.425 58.5288 60.425Z" fill="#A48B03"/>
<path d="M58.1037 57.2369C58.2439 57.2369 58.3842 57.2369 58.5288 57.2369C58.4586 58.3592 58.3885 59.4814 58.3162 60.6377C58.2461 60.6377 58.1759 60.6377 58.1037 60.6377C58.0622 60.1507 58.0227 59.6636 57.984 59.1764C57.9508 58.7696 57.9508 58.7696 57.9168 58.3545C57.8911 57.662 57.8911 57.662 58.1037 57.2369Z" fill="#D3C228"/>
<path d="M2.20408 61.9129C2.62917 62.5505 2.62917 62.5505 2.57773 62.9848C2.45318 63.4069 2.32863 63.8288 2.20408 64.2509C2.13394 64.2509 2.0638 64.2509 1.99153 64.2509C1.9858 63.9011 1.98176 63.5512 1.97836 63.2014C1.97581 63.0067 1.97325 62.8118 1.9707 62.6111C1.99153 62.1254 1.99153 62.1254 2.20408 61.9129Z" fill="#EAAF2D"/>
<path d="M56.616 64.4636C56.7562 64.5337 56.8965 64.6038 57.041 64.6761C56.8746 64.9607 56.7059 65.2438 56.5362 65.5263C56.4425 65.6842 56.3488 65.8419 56.2523 66.0045C56.1167 66.1886 56.1167 66.1886 55.9783 66.3765C55.838 66.3765 55.6978 66.3765 55.5532 66.3765C55.8187 65.6413 56.1218 65.07 56.616 64.4636Z" fill="#F7F15A"/>
<path d="M58.1037 41.0834C58.2439 41.0834 58.3842 41.0834 58.5288 41.0834C58.5288 41.5744 58.5288 42.0654 58.5288 42.5713C58.3885 42.5713 58.2482 42.5713 58.1037 42.5713C58.0335 42.7115 57.9634 42.8518 57.8911 42.9963C57.9613 42.3651 58.0314 41.7338 58.1037 41.0834Z" fill="#A99204"/>
<path d="M1.9915 15.1528C2.20192 15.223 2.41234 15.2931 2.62914 15.3654C2.31351 16.1018 2.31351 16.1018 1.9915 16.8532C1.85122 16.7831 1.71094 16.7129 1.56641 16.6407C1.75238 15.6311 1.75238 15.6311 1.9915 15.1528Z" fill="#F4B422"/>
<path d="M4.32947 34.707C4.46975 34.7772 4.61004 34.8473 4.75457 34.9196C4.33373 35.4106 3.91288 35.9015 3.47929 36.4074C3.33901 36.3373 3.19873 36.2671 3.0542 36.1949C3.47504 35.7039 3.89588 35.2129 4.32947 34.707Z" fill="#F8EA5E"/>
<path d="M57.8912 57.8745C57.9613 57.8745 58.0315 57.8745 58.1037 57.8745C58.1037 58.2954 58.1037 58.7162 58.1037 59.1498C57.8933 59.1498 57.6829 59.1498 57.4661 59.1498C57.4661 59.2901 57.4661 59.4303 57.4661 59.5749C57.3258 59.5047 57.1855 59.4346 57.041 59.3623C57.3216 58.8714 57.6021 58.3804 57.8912 57.8745Z" fill="#F3E141"/>
<path d="M40.8872 18.7661C41.5172 19.3629 42.0445 19.8677 42.375 20.679C42.2347 20.679 42.0945 20.679 41.9499 20.679C40.8872 19.5404 40.8872 19.5404 40.8872 18.7661Z" fill="#FEEB53"/>
</svg>
