<svg width="85" height="92" viewBox="0 0 85 92" fill="none" xmlns="http://www.w3.org/2000/svg">
<path d="M50.3189 0.64344C51.4802 1.26999 52.2124 2.0582 52.8744 3.19897C52.9822 3.88394 52.9822 3.88394 52.9839 4.63565C52.9854 4.7748 52.9869 4.91395 52.9886 5.05733C52.9924 5.5208 52.9903 5.98403 52.988 6.44752C52.9894 6.781 52.9914 7.11449 52.9935 7.44799C52.9984 8.35231 52.9978 9.25652 52.9958 10.1608C52.9948 10.9175 52.9963 11.6742 52.998 12.4309C53.0016 14.218 53.0007 16.005 52.9971 17.7921C52.9935 19.6304 52.9969 21.4687 53.0037 23.3068C53.0095 24.8888 53.011 26.4709 53.0093 28.053C53.0082 28.996 53.0086 29.9392 53.0131 30.8822C53.0169 31.7709 53.0156 32.6591 53.0105 33.5478C53.0095 33.8717 53.0101 34.1959 53.0129 34.52C53.0348 37.3728 52.4504 39.7755 50.5319 41.9579C50.7178 41.9466 50.9039 41.9353 51.0956 41.9236C51.8872 41.9615 52.3152 42.1389 53.0116 42.5069C53.2341 42.624 53.4567 42.7411 53.686 42.8617C54.7523 43.4488 55.8065 44.0534 56.8541 44.6731C57.077 44.8041 57.3 44.9351 57.5296 45.0699C58.1789 45.4515 58.8276 45.8342 59.4762 46.2171C59.7948 46.4047 60.1134 46.5921 60.432 46.7795C60.8581 47.03 61.2841 47.2806 61.71 47.5313C65.9066 50.0104 65.9066 50.0104 70.1509 52.4062C71.7658 53.2938 73.3521 54.2251 74.9353 55.1679C76.1289 55.8776 77.3298 56.5723 78.5392 57.2549C83.7519 60.1995 83.7519 60.1995 84.3927 61.9762C84.6976 63.6891 84.1495 65.4296 83.7538 67.0873C83.7208 67.2602 83.6878 67.4331 83.6539 67.6114C83.4203 68.7839 82.8743 69.6337 81.9059 70.3228C81.4858 70.572 81.0592 70.8015 80.6258 71.0271C80.3784 71.1602 80.3784 71.1602 80.126 71.296C79.7601 71.4924 79.3936 71.6877 79.0267 71.8819C78.3966 72.216 77.7685 72.5544 77.1411 72.8939C75.966 73.5291 74.7894 74.1616 73.6124 74.7935C72.449 75.4181 71.2866 76.0444 70.1243 76.6705C68.7351 77.4187 67.346 78.1666 65.9566 78.9141C60.3926 81.8983 60.3926 81.8983 54.8575 84.936C54.7106 85.018 54.5637 85.0997 54.4122 85.1841C54.09 85.3636 53.768 85.5431 53.4458 85.7224C41.8015 92.209 41.8015 92.209 38.8216 91.4064C37.3585 90.8322 36.0363 90.0204 34.7021 89.1986C33.4509 88.4328 32.1742 87.7115 30.8994 86.9859C30.6409 86.8383 30.3821 86.691 30.1234 86.5434C29.5946 86.2421 29.0658 85.9409 28.5368 85.6398C27.3937 84.989 26.2511 84.3369 25.109 83.6844C24.8605 83.5426 24.612 83.4007 24.3636 83.2589C22.5635 82.2309 20.7678 81.1959 18.9736 80.1578C16.4969 78.7254 14.0035 77.3241 11.5046 75.9311C10.9763 75.6364 10.4481 75.3414 9.92042 75.0458C9.77156 74.9626 9.6227 74.8795 9.46916 74.7937C9.19188 74.6374 8.91546 74.4794 8.64031 74.3192C8.02124 73.9606 7.41664 73.649 6.75412 73.3762C6.0062 73.0442 5.51468 72.8014 4.95822 72.1983C4.58958 71.0884 4.59363 69.926 4.56594 68.768C4.52463 68.2747 4.35788 67.9355 4.10633 67.5132C4.07971 66.8211 4.07971 66.8211 4.10633 66.2354C3.957 66.2178 3.80765 66.2003 3.65379 66.1822C2.6291 65.9149 1.96379 65.4209 1.30568 64.5975C0.846471 63.7757 0.803922 63.2832 0.800876 62.3468C0.799258 62.1958 0.797618 62.045 0.795936 61.8895C0.79157 61.3863 0.793231 60.8833 0.794935 60.3801C0.793082 60.0182 0.790867 59.6564 0.788333 59.2946C0.782647 58.3133 0.782391 57.3322 0.783456 56.3508C0.783924 55.5307 0.781838 54.7104 0.779793 53.8901C0.775066 51.9541 0.774895 50.0178 0.777472 48.0818C0.780027 46.0874 0.774789 44.0932 0.765717 42.0989C0.758199 40.3843 0.755664 38.6698 0.757048 36.9552C0.757815 35.9321 0.756709 34.9093 0.750788 33.8862C0.7454 32.9234 0.746273 31.9606 0.75181 30.9978C0.752811 30.6458 0.75166 30.2936 0.748125 29.9416C0.729491 27.9372 0.811439 26.3001 2.18968 24.708C3.26694 23.7033 4.51504 23.0723 5.83668 22.4453C7.32485 21.721 8.78385 20.9625 10.229 20.156C12.4832 18.9048 14.7879 17.7612 17.097 16.6155C19.5733 15.3869 22.0339 14.1481 24.449 12.8022C26.025 11.9272 27.6343 11.1277 29.2505 10.33C30.6315 9.64471 31.9879 8.92628 33.3353 8.17694C35.7573 6.83287 38.2366 5.60824 40.7167 4.37639C42.7758 3.35322 44.8232 2.31259 46.8517 1.22908C47.0821 1.1061 47.3128 0.983113 47.5504 0.856401C47.7052 0.768555 47.8601 0.680708 48.0196 0.5902C48.7862 0.270205 49.5382 0.424261 50.3189 0.64344Z" fill="#DAE7F8"/>
<path d="M48.8284 6.60629C48.8284 16.7262 48.8284 26.8461 48.8284 37.2727C46.2019 38.7053 46.2019 38.7053 45.164 39.2377C44.9361 39.3548 44.7084 39.4721 44.4738 39.5929C44.2374 39.7145 44.0008 39.8361 43.7574 39.9613C41.3656 41.1952 38.9975 42.4679 36.6394 43.7648C35.5937 44.3381 34.5442 44.9046 33.4952 45.4717C31.8695 46.3512 30.2456 47.2339 28.6237 48.1205C24.9693 50.1155 21.307 52.0939 17.6106 54.0108C16.2057 54.7414 14.8123 55.4915 13.4236 56.2528C11.902 57.0866 10.3779 57.9152 8.84496 58.7285C8.67353 58.8203 8.5023 58.9119 8.32576 59.0064C7.13786 59.6336 7.13786 59.6336 6.66211 59.6336C6.66211 49.2326 6.66211 38.8316 6.66211 28.1154C14.4876 23.9724 14.4876 23.9724 17.2252 22.6201C18.172 22.1507 19.1063 21.6594 20.0395 21.1641C21.9902 20.1334 23.9516 19.1244 25.9166 18.1213C26.8698 17.6347 27.8223 17.147 28.7751 16.6595C28.9625 16.5637 29.1499 16.4677 29.3431 16.3689C32.8033 14.5973 36.2501 12.7999 39.6956 11C41.4465 10.0858 43.2005 9.17741 44.9551 8.27005C45.0928 8.19882 45.2306 8.12758 45.3725 8.05419C48.1725 6.60629 48.1725 6.60629 48.8284 6.60629Z" fill="#98E9FE"/>
<path d="M50.319 0.643379C51.4802 1.26993 52.2124 2.05814 52.8745 3.19891C52.9823 3.88388 52.9823 3.88388 52.9842 4.63559C52.9857 4.77474 52.9871 4.91389 52.9886 5.05727C52.9925 5.52074 52.9903 5.98397 52.988 6.44746C52.9897 6.78094 52.9914 7.11443 52.9937 7.44793C52.9984 8.35225 52.9978 9.25646 52.9959 10.1608C52.9948 10.9175 52.9963 11.6741 52.998 12.4308C53.0016 14.2179 53.0008 16.005 52.9972 17.7921C52.9937 19.6303 52.9969 21.4686 53.004 23.3067C53.0095 24.8888 53.0112 26.4709 53.0093 28.053C53.0082 28.9959 53.0087 29.9392 53.0131 30.8821C53.017 31.7708 53.0157 32.6591 53.0106 33.5478C53.0095 33.8717 53.0101 34.1958 53.0129 34.5199C53.034 37.2595 52.5135 39.7577 50.665 41.878C49.4284 42.9969 47.9493 43.7333 46.4857 44.5134C46.0227 44.7623 45.5595 45.0113 45.0965 45.2604C44.3337 45.6695 43.5706 46.078 42.8063 46.4841C41.1923 47.3423 39.594 48.2244 38.0073 49.1321C36.2079 50.1594 34.3873 51.1345 32.5467 52.0854C31.1629 52.8012 29.7899 53.5342 28.424 54.2829C26.7369 55.2076 25.0469 56.1265 23.3528 57.038C23.1226 57.162 22.8923 57.2859 22.6551 57.4135C21.0624 58.27 19.4681 59.124 17.8737 59.9773C15.8648 61.0526 13.8573 62.1303 11.8529 63.2139C11.5405 63.3821 11.5405 63.3821 11.2219 63.5536C10.2429 64.0823 9.272 64.6199 8.31325 65.1846C8.13926 65.286 7.96527 65.3872 7.78595 65.4915C7.46545 65.6787 7.14686 65.8693 6.83061 66.0639C6.08269 66.499 5.70256 66.6643 4.81515 66.6396C3.33377 66.2399 1.96094 65.6636 1.12496 64.3187C0.813461 63.6958 0.881567 63.1451 0.877797 62.4492C0.876711 62.299 0.875624 62.1489 0.874517 61.9941C0.871152 61.4883 0.869342 60.9825 0.867553 60.4767C0.865509 60.1151 0.8634 59.7533 0.861228 59.3917C0.854541 58.2012 0.85024 57.0108 0.846278 55.8203C0.845576 55.6178 0.844872 55.415 0.844148 55.2063C0.837589 53.2957 0.831904 51.3848 0.828305 49.4741C0.823641 47.0308 0.814718 44.5875 0.799896 42.1442C0.789823 40.426 0.784669 38.7078 0.783114 36.9897C0.782071 35.9638 0.778876 34.938 0.7704 33.9122C0.762521 32.9459 0.760754 31.9797 0.763586 31.0133C0.763565 30.6598 0.761393 30.3063 0.756814 29.9528C0.732238 27.9441 0.805901 26.3031 2.18976 24.708C3.26718 23.7034 4.51509 23.0722 5.83672 22.4453C7.32489 21.721 8.78389 20.9624 10.229 20.1559C12.4832 18.9048 14.7879 17.7612 17.097 16.6155C19.5733 15.3868 22.0341 14.148 24.4491 12.8021C26.0252 11.9271 27.6346 11.1276 29.2505 10.3299C30.6318 9.64465 31.9881 8.92622 33.3353 8.17688C35.7573 6.83281 38.2366 5.60818 40.7168 4.37633C42.7759 3.35316 44.8235 2.31253 46.8517 1.22902C47.0824 1.10604 47.3128 0.983052 47.5505 0.85634C47.7053 0.768494 47.8601 0.680647 48.0196 0.590139C48.7863 0.270143 49.5382 0.4242 50.319 0.643379ZM47.3375 6.99726C47.0841 7.1247 47.0841 7.1247 46.8255 7.25469C46.5519 7.39493 46.5519 7.39493 46.2727 7.53799C46.0802 7.63547 45.8879 7.73294 45.6894 7.83337C44.3396 8.51957 42.9984 9.22188 41.6608 9.93161C39.4375 11.1079 37.1957 12.2485 34.9564 13.394C33.2946 14.2447 31.6369 15.1023 29.9861 15.9741C28.1501 16.9434 26.3053 17.8947 24.4565 18.8396C23.5532 19.3013 22.6502 19.7641 21.7473 20.2266C21.5677 20.3186 21.3882 20.4106 21.2034 20.5052C18.8708 21.7005 16.5433 22.9055 14.2167 24.1117C13.5661 24.4486 12.9155 24.7851 12.2647 25.1209C11.7313 25.3963 11.1982 25.6721 10.665 25.9476C10.2934 26.1397 9.92174 26.3314 9.55012 26.523C9.21407 26.6968 9.21407 26.6968 8.87142 26.8742C8.67549 26.9754 8.47936 27.0767 8.27747 27.1809C8.09581 27.2784 7.91394 27.376 7.72675 27.4765C7.45011 27.6042 7.45012 27.6042 7.16794 27.7348C6.60764 28.0713 6.60764 28.0713 6.53098 28.6863C6.53183 28.918 6.53289 29.1499 6.53396 29.3886C6.53247 29.6549 6.53097 29.9208 6.52948 30.1951C6.53332 30.4905 6.53715 30.7859 6.54098 31.0813C6.54141 31.3918 6.5412 31.7025 6.54056 32.013C6.54035 32.8569 6.54652 33.7007 6.55397 34.5447C6.56058 35.4263 6.56122 36.308 6.56249 37.1896C6.5659 38.8595 6.57463 40.5293 6.58528 42.1991C6.59721 44.1 6.60296 46.0009 6.60828 47.9018C6.61957 51.8124 6.63831 55.723 6.66195 59.6336C7.6241 59.3239 8.49618 58.9453 9.38295 58.464C9.58718 58.3548 9.58718 58.3548 9.79567 58.2434C10.2378 58.0066 10.6792 57.7687 11.1209 57.5306C11.5839 57.2823 12.0473 57.0344 12.5105 56.7867C12.8201 56.621 13.1298 56.4554 13.4394 56.2895C14.733 55.5969 16.0335 54.9178 17.3366 54.2431C19.081 53.3372 20.8113 52.408 22.5346 51.4629C24.0317 50.6417 25.5348 49.8323 27.0398 49.0256C28.9664 47.9916 30.8812 46.9379 32.7897 45.871C34.7568 44.7719 36.7384 43.7075 38.7401 42.6725C41.7454 41.1164 44.717 39.496 47.6395 37.7893C48.1893 37.4856 48.1893 37.4856 48.8282 37.2727C48.8282 27.1528 48.8282 17.0329 48.8282 6.60629C48.1589 6.60629 47.9202 6.70204 47.3375 6.99726Z" fill="#013B54"/>
<path d="M51.5838 45.8576C51.7989 45.9762 52.0142 46.0948 52.2359 46.217C52.408 46.3118 52.58 46.4064 52.7574 46.5041C54.2092 47.3325 54.2092 47.3325 54.762 47.906C55.2191 48.3481 55.6369 48.625 56.1923 48.9306C56.3842 49.0375 56.576 49.1442 56.7737 49.2541C56.9805 49.3676 57.1872 49.4809 57.4002 49.5978C57.8457 49.8457 58.291 50.0938 58.7361 50.3423C58.965 50.4699 59.194 50.5977 59.4297 50.7291C60.5092 51.3368 61.5766 51.9646 62.6444 52.5927C65.2585 54.1262 67.9009 55.6065 70.5505 57.0781C69.9528 57.7248 69.385 58.1448 68.6064 58.553C68.389 58.6682 68.1716 58.7837 67.9473 58.9025C67.7128 59.0252 67.4781 59.1478 67.2364 59.2741C66.7334 59.541 66.2306 59.808 65.728 60.0753C65.599 60.1438 65.4697 60.2124 65.3366 60.2831C63.9588 61.0159 62.5958 61.7743 61.2335 62.5352C59.3081 63.6094 57.3772 64.672 55.439 65.723C54.2895 66.3483 53.1499 66.9888 52.0151 67.6403C49.5281 69.0656 46.9966 70.3871 44.4451 71.6917C41.2403 73.3308 38.074 75.0381 34.9179 76.7695C34.5953 76.9463 34.5953 76.9463 34.2662 77.1264C33.8625 77.3479 33.4589 77.57 33.056 77.793C32.8767 77.8914 32.6976 77.9898 32.5129 78.0914C32.3575 78.1772 32.202 78.263 32.0419 78.3516C30.8618 78.9519 29.8697 79.2873 28.5525 78.8606C27.227 78.332 26.0063 77.6991 24.7771 76.9767C24.5835 76.8643 24.3898 76.752 24.1902 76.6362C23.7915 76.4049 23.3931 76.173 22.9951 75.9407C22.4682 75.6329 21.9401 75.3273 21.4115 75.0226C20.5837 74.5453 19.7572 74.0657 18.9309 73.5855C18.3131 73.2271 17.6945 72.8704 17.0756 72.5135C12.6958 69.9814 12.6958 69.9814 10.7085 68.578C10.7396 68.0886 10.7396 68.0886 10.9215 67.5131C11.439 67.149 11.439 67.149 12.1268 66.8244C12.3777 66.703 12.6286 66.5819 12.8869 66.4571C13.0202 66.3949 13.1535 66.3325 13.2906 66.2684C13.8456 66.0092 14.3963 65.7415 14.9473 65.4738C15.2205 65.3414 15.4937 65.2091 15.7672 65.0773C16.7459 64.6045 17.7009 64.1045 18.6413 63.5602C19.9964 62.7794 21.3649 62.0271 22.7408 61.284C23.0666 61.1079 23.0666 61.1079 23.3988 60.9284C23.8441 60.688 24.2892 60.4475 24.7345 60.2073C25.8185 59.6221 26.9018 59.0356 27.985 58.4491C28.1971 58.3341 28.4092 58.2193 28.6277 58.1009C30.2204 57.2382 31.8108 56.3708 33.4001 55.5017C34.7126 54.7853 36.0287 54.076 37.3463 53.3691C39.2108 52.3686 41.071 51.3662 42.9022 50.3057C44.0765 49.6274 45.2625 48.9689 46.4459 48.3066C46.6723 48.1801 46.8987 48.0534 47.1319 47.9229C47.5659 47.6801 48.0001 47.4377 48.4348 47.196C48.8275 46.9758 49.2187 46.7526 49.608 46.5261C49.8629 46.3789 49.8629 46.3789 50.1229 46.2288C50.3437 46.0989 50.3437 46.0989 50.569 45.9666C50.9581 45.7911 50.9581 45.7911 51.5838 45.8576Z" fill="#337097"/>
<path d="M52.4488 6.18036C52.5191 6.18036 52.5894 6.18036 52.6618 6.18036C52.6818 10.3086 52.6967 14.4368 52.7058 18.5651C52.7103 20.482 52.7163 22.3988 52.7261 24.3159C52.7346 25.9872 52.7399 27.6588 52.7418 29.3301C52.7431 30.2145 52.7457 31.0989 52.7518 31.9834C52.7576 32.8173 52.7593 33.6508 52.758 34.4848C52.7584 34.7895 52.7599 35.0943 52.7633 35.399C52.7893 37.9369 52.3453 39.8976 50.6727 41.8556C49.4471 42.9983 47.9555 43.7299 46.4859 44.5133C46.0227 44.7623 45.5597 45.0112 45.0967 45.2604C44.3339 45.6695 43.5709 46.078 42.8066 46.4841C41.1925 47.3423 39.5943 48.2244 38.0075 49.132C36.2082 50.1594 34.3876 51.1345 32.547 52.0854C31.1631 52.8011 29.7902 53.5342 28.4242 54.2829C26.7372 55.2076 25.0471 56.1265 23.353 57.038C23.1228 57.162 22.8926 57.2859 22.6553 57.4135C20.6872 58.4719 18.7171 59.526 16.747 60.5806C15.0912 61.4674 13.438 62.3588 11.7865 63.2539C11.576 63.3678 11.3654 63.4816 11.1486 63.5989C10.2725 64.0732 9.39746 64.5485 8.52815 65.0349C8.39867 65.1067 8.26919 65.1784 8.13587 65.2526C7.81366 65.4317 7.49231 65.6125 7.17137 65.7937C6.66218 66.0224 6.66218 66.0224 5.81034 66.0224C5.81034 65.8116 5.81034 65.6007 5.81034 65.3835C5.66979 65.3835 5.52923 65.3835 5.38442 65.3835C5.24386 65.0321 5.10331 64.6808 4.9585 64.3187C5.09905 64.2484 5.2396 64.1782 5.38442 64.1058C5.34055 63.9124 5.29668 63.7192 5.25132 63.5201C5.16571 62.7788 5.25302 62.6005 5.59738 61.9761C5.49196 61.6599 5.49196 61.6599 5.38442 61.3373C5.66553 61.3373 5.94664 61.3373 6.23626 61.3373C6.23626 60.4939 6.23626 59.6506 6.23626 58.7817C6.30654 58.7817 6.37682 58.7817 6.44922 58.7817C6.44922 59.6251 6.44922 60.4684 6.44922 61.3373C6.58978 61.4075 6.73033 61.4778 6.87515 61.5502C6.80487 61.7611 6.73459 61.9719 6.66218 62.1891C7.08385 62.1891 7.50551 62.1891 7.93995 62.1891C7.86967 62.3297 7.7994 62.4702 7.72699 62.615C7.44588 62.615 7.16477 62.615 6.87515 62.615C7.36709 62.7556 7.85903 62.8961 8.36587 63.041C8.5767 62.6193 8.5767 62.6193 8.79179 62.1891C9.00263 62.1891 9.21346 62.1891 9.43068 62.1891C9.64151 61.7674 9.64151 61.7674 9.8566 61.3373C10.0674 61.4075 10.2783 61.4778 10.4955 61.5502C10.5 61.3569 10.5042 61.1637 10.5087 60.9646C10.7084 60.2725 10.7084 60.2725 11.4138 59.8065C11.6755 59.6777 11.9372 59.549 12.1992 59.4206C12.4869 59.2128 12.7718 59.0011 13.051 58.7817C13.2618 58.6412 13.4727 58.5006 13.6899 58.3558C13.4791 58.145 13.4791 58.145 13.264 57.9299C13.4045 57.9299 13.5451 57.9299 13.6899 57.9299C13.7304 57.8059 13.7708 57.6818 13.8126 57.554C14.2455 56.8744 14.8569 56.621 15.5599 56.2777C15.7049 56.2045 15.85 56.131 15.9992 56.0554C16.3097 55.8987 16.6207 55.743 16.932 55.5884C17.7438 55.1852 18.5516 54.7742 19.36 54.3645C19.518 54.2846 19.6762 54.2048 19.8391 54.1226C20.9632 53.5538 22.0716 52.9628 23.1667 52.3397C24.6167 51.517 26.09 50.7465 27.5724 49.9839C29.2793 49.1039 30.9642 48.1974 32.6302 47.2418C34.9722 45.8999 37.3537 44.6392 39.7416 43.3819C40.0496 43.2196 40.3573 43.0575 40.6652 42.8953C40.8158 42.816 40.9666 42.7366 41.1218 42.6548C42.7518 41.7953 44.3716 40.9175 45.9893 40.035C46.1784 39.9319 46.3675 39.8288 46.5624 39.7226C46.7238 39.6344 46.8852 39.546 47.0513 39.4551C47.638 39.1427 48.2339 38.8477 48.8285 38.5504C48.8987 27.9386 48.969 17.3267 49.0414 6.39332C49.1117 6.39332 49.182 6.39332 49.2544 6.39332C49.3247 16.7241 49.3949 27.0548 49.4674 37.6986C49.5376 37.3472 49.6079 36.9958 49.6803 36.6338C49.8209 36.5635 49.9614 36.4932 50.1062 36.4208C50.7949 34.5461 50.7372 32.1382 50.1062 30.245C50.036 30.0341 49.9657 29.8233 49.8933 29.6061C49.7527 29.6061 49.6122 29.6061 49.4674 29.6061C49.4674 27.7789 49.4674 25.9517 49.4674 24.0691C49.6782 23.9988 49.889 23.9285 50.1062 23.8561C50.2468 23.7858 50.3873 23.7156 50.5322 23.6432C50.5322 23.0107 50.5322 22.3782 50.5322 21.7265C50.0051 21.8319 50.0051 21.8319 49.4674 21.9395C49.4674 19.3392 49.4674 16.739 49.4674 14.0599C49.889 13.9194 50.3107 13.7788 50.7451 13.634C51.4215 13.3628 51.4215 13.3628 51.8099 12.7822C51.8423 12.443 51.8629 12.1027 51.8772 11.7623C51.8862 11.5619 51.8951 11.3615 51.9043 11.155C51.9128 10.9453 51.9211 10.7355 51.9296 10.5194C51.9435 10.2024 51.9434 10.2024 51.9575 9.8789C51.9803 9.35595 52.002 8.83298 52.0229 8.30997C52.0932 8.30997 52.1634 8.30997 52.2358 8.30997C52.3061 7.6072 52.3764 6.90443 52.4488 6.18036Z" fill="#013953"/>
<path d="M83.5412 66.0224C83.6719 68.0636 83.6719 68.0636 83.2352 69.0703C81.8471 70.5261 79.9358 71.4012 78.1773 72.3314C77.6811 72.5961 77.1849 72.8608 76.689 73.1257C76.4432 73.2569 76.1972 73.3879 75.944 73.5229C74.9322 74.0642 73.926 74.6149 72.9198 75.1665C71.159 76.1295 69.3921 77.0813 67.6224 78.0281C67.3681 78.1642 67.1136 78.3002 66.8593 78.4365C66.351 78.7085 65.8426 78.9804 65.3343 79.2524C65.0879 79.3842 64.8415 79.516 64.5877 79.6519C64.3525 79.7778 64.1174 79.9034 63.8751 80.0331C61.0455 81.5479 58.2291 83.0838 55.4261 84.6471C53.6319 85.647 51.8296 86.6309 50.0213 87.6049C49.0055 88.1527 47.992 88.7042 46.9843 89.2667C46.7924 89.3736 46.6005 89.4805 46.4027 89.5906C46.046 89.7897 45.6899 89.9897 45.3343 90.1907C43.2119 91.3737 41.2774 92.0718 38.8243 91.4054C37.3593 90.8349 36.037 90.0206 34.7024 89.1985C33.4513 88.4327 32.1746 87.7114 30.9 86.9859C30.6412 86.8383 30.3825 86.6909 30.1237 86.5433C29.595 86.242 29.0662 85.9409 28.5372 85.6397C27.394 84.9889 26.2517 84.3368 25.1094 83.6843C24.8608 83.5425 24.6125 83.4007 24.364 83.2588C22.5638 82.2309 20.7682 81.1959 18.9742 80.1577C16.4974 78.7253 14.0039 77.324 11.505 75.9311C10.9766 75.6363 10.4485 75.3414 9.92077 75.0458C9.77192 74.9625 9.62284 74.8795 9.46951 74.7936C9.19245 74.6375 8.91645 74.4795 8.64152 74.3196C8.01733 73.958 7.4072 73.6447 6.73956 73.3687C5.99505 73.0375 5.50141 72.8086 4.95857 72.1983C4.65723 71.0117 4.8129 69.7778 4.95857 68.5779C6.29064 69.233 7.59652 69.9281 8.89835 70.6411C9.20906 70.8108 9.20906 70.8108 9.52616 70.9842C11.2767 71.9431 13.0181 72.9179 14.7548 73.902C15.3251 74.2248 15.8954 74.5474 16.4657 74.8699C16.8801 75.1043 17.2945 75.3388 17.709 75.5735C18.804 76.193 19.9008 76.8095 21.0005 77.4207C23.5963 78.8646 26.1618 80.3453 28.7016 81.8848C30.236 82.8112 31.7806 83.7205 33.3267 84.6271C33.729 84.8631 34.1308 85.0994 34.5325 85.3363C35.1307 85.6885 35.7304 86.038 36.3305 86.3868C36.599 86.5455 36.599 86.5455 36.8731 86.7075C38.7568 87.7947 40.6016 88.5856 42.7832 88.0281C45.123 87.2193 47.2667 85.9083 49.424 84.7133C50.5258 84.1056 51.6341 83.5101 52.7417 82.9128C54.1847 82.1327 55.6231 81.3454 57.0542 80.5438C58.8924 79.515 60.7522 78.5273 62.612 77.5385C64.544 76.5112 66.4707 75.4751 68.3894 74.4235C69.4419 73.8472 70.4965 73.2752 71.5538 72.7083C71.7985 72.5769 72.0434 72.4455 72.2956 72.3103C72.7658 72.0584 73.2362 71.8066 73.7069 71.5556C74.8198 70.959 75.9202 70.3483 77.0084 69.7077C77.9075 69.1787 78.8066 68.6938 79.7479 68.2453C80.6292 67.8123 82.644 66.0224 83.5412 66.0224Z" fill="#03364B"/>
<path d="M57.5599 56.2262C58.5152 56.4929 59.1769 56.8212 59.9025 57.504C59.9025 57.6445 59.9025 57.7851 59.9025 57.9299C59.7785 57.994 59.6548 58.0579 59.5272 58.1239C56.4361 59.7243 53.368 61.3614 50.3192 63.041C50.0858 63.1694 49.8526 63.298 49.6122 63.4303C47.398 64.6501 45.1845 65.8712 42.9731 67.0966C40.034 68.7249 37.0873 70.3366 34.1216 71.9159C32.9784 72.5254 31.8382 73.1392 30.7068 73.7706C30.4097 73.9361 30.4097 73.9361 30.1067 74.1052C29.7412 74.3096 29.3764 74.5153 29.0122 74.7225C28.853 74.8115 28.6939 74.9008 28.5299 74.9926C28.3242 75.1093 28.3242 75.1093 28.1142 75.2283C27.7453 75.3927 27.7453 75.3927 27.1065 75.3927C27.1065 75.5333 27.1065 75.6738 27.1065 75.8186C27.2163 75.867 27.326 75.9153 27.4391 75.9652C27.9031 76.215 28.2748 76.4833 28.6905 76.8036C29.1519 77.1339 29.4213 77.3032 29.9814 77.4291C30.7979 77.2455 31.3169 76.9469 32.0046 76.4575C32.2271 75.8994 32.2271 75.8994 32.2175 75.3927C32.85 75.463 33.4825 75.5333 34.1342 75.6057C34.0639 75.3246 33.9936 75.0435 33.9212 74.7538C34.0368 74.6535 34.1523 74.5534 34.2715 74.4502C34.5 74.2512 34.5 74.2512 34.733 74.0485C34.8838 73.9175 35.0346 73.7866 35.1898 73.6516C35.6758 73.2177 36.1339 72.7852 36.5432 72.2782C36.9027 71.9853 36.9027 71.9853 37.4617 71.9189C38.5097 71.7053 39.2393 71.1105 40.0971 70.4946C40.6838 70.1034 40.9349 70.0067 41.5878 69.8557C43.9596 69.078 45.7533 67.9651 47.6097 66.3236C48.3755 65.6951 49.2303 65.1806 50.1171 64.7413C50.6866 64.4538 51.1336 64.1458 51.5704 63.6799C52.1779 63.1081 52.7704 62.9253 53.5594 62.6832C53.7287 62.63 53.8982 62.5767 54.0726 62.5218C54.2334 62.4739 54.3944 62.4257 54.5601 62.3763C55.0203 62.2187 55.0203 62.2187 55.3129 61.8514C55.7846 61.4212 56.1226 61.4859 56.7481 61.5102C57.0358 61.5189 57.0358 61.5189 57.3295 61.5279C57.549 61.539 57.549 61.539 57.7728 61.5503C57.8431 61.4097 57.9134 61.2691 57.9858 61.1243C58.4839 60.7169 58.8449 60.4825 59.4997 60.4921C59.9201 60.5457 60.3377 60.6207 60.7543 60.6984C60.8005 60.896 60.8005 60.896 60.8476 61.0977C60.9528 61.5573 60.9528 61.5573 61.1802 61.9762C61.6019 61.6599 61.6019 61.6599 62.0321 61.3373C61.6807 61.1265 61.3293 60.9156 60.9673 60.6984C61.5559 60.2401 62.1524 59.85 62.8041 59.4871C62.9693 59.3942 63.1346 59.3012 63.3049 59.2051C63.7358 58.9947 63.7358 58.9947 64.1617 58.9947C64.1617 58.8542 64.1617 58.7136 64.1617 58.5688C64.0211 58.516 63.8806 58.4634 63.7358 58.4091C62.9342 58.0752 62.166 57.6861 61.3932 57.291C61.3932 57.1505 61.3932 57.0099 61.3932 56.8651C62.2233 56.9803 62.6567 57.2067 63.3098 57.717C64.0247 58.1035 64.5927 58.2191 65.4011 58.0771C66.4636 57.7402 67.4419 57.1777 68.4209 56.6521C68.6498 57.2169 68.8671 57.7774 69.0598 58.3558C68.9113 58.4317 68.7627 58.5075 68.6096 58.5856C65.7729 60.0367 62.9582 61.5111 60.1914 63.0927C58.633 63.9835 57.0609 64.8467 55.4822 65.7013C54.3173 66.3338 53.1627 66.9812 52.0131 67.6412C49.527 69.0667 46.996 70.3875 44.4451 71.6917C41.2403 73.3308 38.0739 75.0381 34.9179 76.7695C34.7028 76.8873 34.4877 77.005 34.2662 77.1264C33.8624 77.3479 33.4589 77.57 33.056 77.793C32.787 77.9406 32.787 77.9406 32.5129 78.0914C32.3574 78.1772 32.202 78.263 32.0418 78.3516C30.8629 78.9513 29.8754 79.2827 28.5576 78.8657C27.1605 78.3152 25.9058 77.6197 24.6308 76.8302C24.4372 76.7122 24.2436 76.594 24.0443 76.4724C23.5734 76.1849 23.1034 75.8959 22.6343 75.6057C23.0602 75.3927 23.0602 75.3927 23.6991 75.6057C24.0848 75.4423 24.0848 75.4423 24.4711 75.1666C24.6208 75.0684 24.7703 74.9704 24.9245 74.8695C25.2479 74.6471 25.5691 74.4214 25.8877 74.1923C27.178 73.2814 27.178 73.2814 28.0382 73.1698C29.0457 73.0135 29.6413 72.5456 30.4798 71.9836C31.1791 71.5428 31.8983 71.1816 32.6434 70.8273C34.2856 70.0359 35.8457 69.1144 37.4084 68.1787C40.346 66.4209 43.3162 64.7462 46.3458 63.1528C47.5744 62.5056 48.7946 61.8437 50.013 61.1776C50.3028 61.0193 50.3028 61.0193 50.5984 60.8581C51.449 60.3934 52.2995 59.9283 53.1497 59.4622C53.8561 59.0748 54.5633 58.6887 55.2706 58.3026C55.4925 58.1806 55.7146 58.0583 55.9431 57.9327C56.251 57.7649 56.251 57.7649 56.5649 57.5939C56.747 57.4942 56.9291 57.3943 57.1167 57.2917C57.5599 57.0781 57.5599 57.0781 57.9858 57.0781C57.775 56.6564 57.775 56.6564 57.5599 56.2262Z" fill="#296488"/>
<path d="M50.3189 0.643389C50.971 1.08262 50.971 1.08262 51.3837 1.49523C51.2423 1.51208 51.1007 1.52892 50.955 1.54628C49.3314 1.78428 48.0843 2.32591 46.6585 3.11906C46.2262 3.35221 45.7935 3.58513 45.3609 3.81785C45.1522 3.93121 44.9435 4.04459 44.7287 4.1614C43.9599 4.57529 43.1821 4.96852 42.3993 5.35515C42.2664 5.42123 42.1335 5.48734 41.9964 5.55542C41.5764 5.76412 41.156 5.97227 40.7356 6.18038C38.5253 7.2757 36.3231 8.38209 34.1437 9.53747C32.4346 10.4416 30.7154 11.3256 28.9962 12.2098C26.847 13.3154 24.6984 14.4223 22.5541 15.5374C22.2295 15.7061 22.2295 15.7061 21.8984 15.8783C20.946 16.3742 19.9945 16.8719 19.046 17.3749C18.7202 17.5478 18.3943 17.7205 18.0685 17.8932C17.9116 17.9765 17.7546 18.0598 17.593 18.1454C15.8929 19.0411 14.1703 19.8921 12.4451 20.7382C11.2052 21.3513 10.0098 22.0013 8.83111 22.7249C8.04762 23.1951 7.22346 23.5742 6.39824 23.9643C5.38561 24.5114 4.68518 25.1233 4.0664 26.0922C3.96237 26.2526 3.85832 26.413 3.75111 26.578C3.65752 26.7339 3.5639 26.89 3.46745 27.0506C3.39251 27.1702 3.31755 27.2899 3.24033 27.4132C2.9668 28.0862 2.98652 28.6608 2.98458 29.3867C2.98362 29.5362 2.98265 29.6857 2.98167 29.8395C2.97896 30.3402 2.9793 30.8406 2.97966 31.3413C2.97838 31.7001 2.97694 32.0592 2.97532 32.418C2.97155 33.3932 2.97057 34.3681 2.97029 35.3433C2.96989 36.1572 2.96831 36.9711 2.9668 37.7851C2.96335 39.7056 2.96231 41.6258 2.96261 43.5461C2.96286 45.5273 2.95837 47.5082 2.95164 49.4892C2.94608 51.1899 2.94378 52.8908 2.94406 54.5915C2.94416 55.6074 2.94295 56.6232 2.93845 57.639C2.93432 58.5946 2.93428 59.5499 2.93739 60.5052C2.93784 60.8558 2.93684 61.2063 2.93426 61.5566C2.93096 62.0356 2.93294 62.5143 2.93622 62.9933C2.93598 63.261 2.93577 63.5289 2.93552 63.8049C3.06061 64.6625 3.38484 65.119 3.89337 65.8095C3.89337 65.95 3.89337 66.0906 3.89337 66.2354C2.70656 65.9245 1.78955 65.4197 1.09202 64.3773C0.841981 63.7048 0.855462 63.1153 0.852098 62.398C0.850841 62.2475 0.849562 62.0969 0.848263 61.9417C0.844579 61.4374 0.843919 60.9329 0.84328 60.4284C0.841321 60.0665 0.83917 59.7049 0.836891 59.3431C0.831291 58.3601 0.828544 57.3771 0.826649 56.394C0.825414 55.7794 0.823667 55.1648 0.82175 54.5502C0.815936 52.6261 0.811805 50.702 0.810166 48.7777C0.80827 46.5591 0.800794 44.3402 0.788443 42.1216C0.779221 40.4051 0.774941 38.6889 0.774366 36.9724C0.773918 35.9479 0.771427 34.9235 0.763803 33.8992C0.756754 32.9347 0.755881 31.9702 0.759608 31.0057C0.759927 30.6528 0.758096 30.2999 0.753879 29.9473C0.731263 27.9403 0.80827 26.3018 2.18968 24.708C3.26703 23.7034 4.51503 23.0722 5.83666 22.4453C7.32483 21.721 8.78383 20.9624 10.229 20.1559C12.4832 18.9048 14.7878 17.7612 17.097 16.6155C19.5733 15.3868 22.034 14.148 24.449 12.8021C26.0252 11.9272 27.6345 11.1277 29.2504 10.3299C30.6317 9.64466 31.9881 8.92623 33.3353 8.17689C35.7573 6.83282 38.2365 5.60819 40.7167 4.37634C42.7758 3.35317 44.8234 2.31253 46.8517 1.22903C47.0821 1.10605 47.3127 0.983062 47.5504 0.85635C47.7044 0.76795 47.8583 0.67955 48.017 0.588488C48.7692 0.279864 49.5497 0.447678 50.3189 0.643389Z" fill="#2B7FAB"/>
<path d="M4.9585 68.5779C6.29057 69.233 7.59644 69.9281 8.89828 70.6411C9.20899 70.8108 9.20898 70.8108 9.52608 70.9842C11.2766 71.9432 13.018 72.9179 14.7547 73.902C15.325 74.2248 15.8953 74.5475 16.4656 74.8699C16.8801 75.1043 17.2945 75.3388 17.7089 75.5735C18.8039 76.193 19.9007 76.8095 21.0004 77.4207C23.5962 78.8646 26.1617 80.3453 28.7015 81.8848C31.903 83.8174 35.1413 85.686 38.3934 87.5315C38.3934 88.5856 38.3934 89.6398 38.3934 90.7259C37.7545 90.9388 37.7545 90.9388 37.2683 90.7238C37.0777 90.6107 36.8869 90.4974 36.6905 90.3807C36.4735 90.2535 36.2565 90.1262 36.0331 89.9952C35.7974 89.8542 35.5616 89.7133 35.3186 89.5678C35.0703 89.4215 34.8216 89.2754 34.5729 89.1295C34.1834 88.9008 33.7938 88.6721 33.4048 88.4425C32.032 87.6326 30.6478 86.8428 29.2627 86.054C28.8879 85.8401 28.5133 85.6263 28.1387 85.4123C27.5106 85.0537 26.8826 84.6955 26.2546 84.3371C25.2518 83.7648 24.2491 83.1926 23.2465 82.6202C23.123 82.5497 22.9997 82.4792 22.8726 82.4066C21.0726 81.3788 19.2771 80.344 17.4832 79.3059C15.4545 78.1322 13.415 76.9793 11.368 75.8376C9.2224 74.6403 7.08938 73.4217 4.9585 72.1983C4.9585 71.0036 4.9585 69.8089 4.9585 68.5779Z" fill="#3D698B"/>
<path d="M60.4705 67.5606C60.8083 67.7589 60.8083 67.7589 61.153 67.9612C61.386 68.0988 61.619 68.2364 61.859 68.3784C62.3233 68.6516 62.7877 68.9247 63.2522 69.1977C63.4575 69.3188 63.6626 69.4398 63.8738 69.5646C64.1777 69.7414 64.4859 69.9115 64.8004 70.0687C64.8004 70.4201 64.8004 70.7715 64.8004 71.1335C62.4583 72.3716 60.111 73.6002 57.7595 74.8205C57.5191 74.9453 57.2789 75.0701 57.0312 75.1985C56.5708 75.4372 56.1097 75.6749 55.648 75.9115C55.2331 76.1261 54.8206 76.3453 54.4111 76.5702C54.2295 76.6677 54.0476 76.7655 53.8604 76.866C53.6272 76.995 53.6272 76.995 53.3891 77.1264C52.4451 77.462 51.6622 77.4231 50.7395 77.0457C50.5297 76.925 50.3197 76.8042 50.1036 76.6796C49.8721 76.548 49.6406 76.4164 49.4018 76.2808C49.0456 76.0718 49.0456 76.0718 48.6818 75.8587C48.4418 75.7217 48.2018 75.5848 47.9544 75.4438C45.8352 74.2274 45.8352 74.2274 45.208 73.689C45.208 73.5485 45.208 73.4079 45.208 73.2631C45.4433 73.1568 45.6784 73.0506 45.921 72.9411C47.8983 72.0339 49.815 71.0566 51.7033 69.9756C51.9078 69.8589 52.112 69.7422 52.3226 69.6221C52.7317 69.3887 53.1408 69.1551 53.5499 68.9215C54.5014 68.3788 55.4544 67.8398 56.4151 67.3136C56.5801 67.219 56.7454 67.1247 56.9155 67.0274C57.0693 66.9441 57.2233 66.8611 57.3817 66.7752C57.5144 66.7013 57.6473 66.6277 57.784 66.5516C58.7357 66.3146 59.6787 67.094 60.4705 67.5606Z" fill="#2D739E"/>
<path d="M83.9673 63.8928C84.0375 63.8928 84.1078 63.8928 84.1802 63.8928C84.1892 64.3896 84.1889 64.8867 84.1802 65.3835C84.1099 65.4538 84.0397 65.5241 83.9673 65.5965C83.8889 66.0923 83.8178 66.5893 83.7543 67.0872C83.6137 66.8061 83.4732 66.525 83.3284 66.2354C83.115 66.4174 83.115 66.4174 82.8976 66.6031C82.1773 67.1532 81.4326 67.5838 80.6397 68.0189C80.4873 68.1035 80.3348 68.188 80.1778 68.2753C79.7379 68.5189 79.297 68.7615 78.8562 69.0039C78.6626 69.1114 78.469 69.2192 78.2697 69.3299C76.9987 70.0318 75.7112 70.7016 74.424 71.373C72.6756 72.2852 70.9409 73.2192 69.2116 74.1667C67.6306 75.0324 66.0438 75.8868 64.4547 76.7369C64.3303 76.8036 64.2062 76.87 64.0782 76.9386C62.7872 77.6294 61.4958 78.3196 60.204 79.0088C56.9491 80.738 56.9491 80.738 53.7268 82.5269C52.1703 83.4134 50.5935 84.2621 49.015 85.109C48.7689 85.2415 48.5225 85.374 48.2688 85.5105C46.9987 86.1902 45.7233 86.8591 44.4381 87.5097C44.1979 87.6316 43.9576 87.7534 43.7102 87.8786C42.1249 88.611 40.6618 88.563 39.0325 87.984C37.3886 87.3055 35.8928 86.3921 34.3784 85.4666C33.672 85.0373 32.958 84.6211 32.2444 84.204C31.1495 83.5614 30.0572 82.9147 28.9667 82.2649C25.3602 80.1172 21.7268 78.0245 18.0501 75.9992C17.9125 75.9234 17.7749 75.8476 17.6331 75.7694C16.9595 75.3984 16.2857 75.0281 15.611 74.659C14.5279 74.0651 13.4499 73.4671 12.394 72.8254C11.1951 72.0971 9.96182 71.4363 8.72558 70.774C8.27815 70.534 7.83072 70.2935 7.38371 70.0529C7.18864 69.9483 6.99357 69.8438 6.79274 69.7362C6.24394 69.4338 5.70686 69.1167 5.17168 68.7909C5.10141 69.4937 5.03113 70.1964 4.95872 70.9205C4.88845 70.9205 4.81817 70.9205 4.74576 70.9205C4.73533 70.7459 4.72489 70.5712 4.71424 70.3915C4.69827 70.1619 4.6823 69.9324 4.6659 69.696C4.65099 69.4688 4.6363 69.2413 4.62097 69.0073C4.53749 68.3993 4.39502 68.043 4.10688 67.5131C4.08026 66.9275 4.08026 66.9275 4.10688 66.4483C4.63396 66.5537 4.63396 66.5537 5.17168 66.6613C4.96085 66.7667 4.96085 66.7667 4.74576 66.8742C5.42319 67.6292 6.17963 68.0998 7.06171 68.5779C7.20823 68.6589 7.35496 68.74 7.50595 68.8233C8.0047 69.0982 8.50474 69.3706 9.00498 69.6427C9.38703 69.8512 9.7693 70.0597 10.1514 70.2684C10.7538 70.5968 11.3563 70.9254 11.9592 71.2534C17.0673 74.0357 22.0836 76.982 27.1052 79.9168C27.766 80.3027 28.4275 80.688 29.0891 81.0728C29.5329 81.3311 29.977 81.5896 30.4208 81.848C30.6346 81.9723 30.8482 82.0967 31.0684 82.2249C32.2654 82.923 33.4557 83.6311 34.6402 84.3503C36.7063 85.6003 38.6366 86.7548 41.1089 86.7595C41.3889 86.7654 41.6689 86.7716 41.9573 86.7778C44.0228 86.6536 45.8811 85.3733 47.6308 84.3771C48.1406 84.0894 48.6509 83.8029 49.1613 83.5167C49.2917 83.4437 49.422 83.3706 49.5562 83.2952C50.9619 82.5081 52.3839 81.7519 53.8067 80.9961C55.7778 79.9486 57.7245 78.8669 59.6561 77.7483C60.8295 77.0727 62.0176 76.4528 63.2351 75.8621C64.5531 75.2144 65.8262 74.4927 67.1033 73.7689C69.2766 72.5375 71.4745 71.3703 73.7004 70.2378C74.9311 69.6091 76.1252 68.9493 77.3039 68.228C78.0186 67.8042 78.7593 67.4456 79.5083 67.0872C82.028 65.8652 82.028 65.8652 83.9673 63.8928Z" fill="#ACB2C9"/>
<path d="M53.8994 53.5508C54.3943 53.9043 54.7925 54.3019 55.2172 54.7355C55.0494 54.8243 54.8814 54.9129 54.7084 55.0043C51.6884 56.6023 48.6776 58.2097 45.7098 59.9036C44.038 60.856 42.3492 61.7745 40.6556 62.6872C39.4082 63.3598 38.1658 64.0396 36.9292 64.7313C35.1392 65.7317 33.3337 66.7024 31.5268 67.6716C30.0742 68.4517 28.6279 69.2422 27.1862 70.0421C25.7649 70.8298 24.331 71.5824 22.8703 72.2948C22.2917 72.5774 21.7327 72.8674 21.1826 73.2033C20.7175 73.4761 20.7175 73.4761 20.2916 73.4761C20.2916 73.6166 20.2916 73.7572 20.2916 73.902C20.5024 73.902 20.7133 73.902 20.9305 73.902C21.0007 74.1128 21.071 74.3237 21.1434 74.5409C19.8467 74.2006 18.7868 73.5057 17.6562 72.8106C17.4588 72.6907 17.2614 72.5706 17.058 72.447C16.5735 72.1523 16.0897 71.8565 15.6064 71.5594C15.8173 71.454 15.8173 71.454 16.0324 71.3465C16.4483 71.5511 16.4483 71.5511 16.9375 71.8522C17.7058 72.3003 18.326 72.555 19.2268 72.6242C19.2268 72.4134 19.2268 72.2026 19.2268 71.9853C20.5007 71.0221 21.8756 70.4248 23.4087 70.0263C24.1357 69.7799 24.6986 69.3672 25.3177 68.921C25.8045 68.5941 26.2835 68.338 26.8118 68.0854C28.1792 67.4143 29.4836 66.6436 30.7948 65.8702C31.6068 65.3985 32.3893 64.9483 33.278 64.639C34.3954 64.2502 35.389 63.6445 36.4102 63.0542C36.6227 62.9328 36.8353 62.8114 37.0542 62.6862C37.7141 62.3086 38.3733 61.9295 39.0322 61.5502C39.8305 61.0928 40.6292 60.636 41.428 60.1792C41.6143 60.0725 41.8009 59.9656 41.9927 59.8557C43.1057 59.2188 44.2256 58.5975 45.3545 57.9889C46.0367 57.6122 46.6998 57.2063 47.366 56.8019C48.4246 56.173 49.5005 55.5748 50.577 54.9768C51.0561 54.7097 51.524 54.4363 51.9913 54.1481C53.1559 53.4352 53.1559 53.4352 53.8994 53.5508Z" fill="#286185"/>
<path d="M48.6154 6.39333C48.756 6.39333 48.8965 6.39333 49.0414 6.39333C49.0414 17.0052 49.0414 27.617 49.0414 38.5504C46.4294 39.9751 43.8223 41.3969 41.1884 42.7786C38.7577 44.0548 36.3478 45.3575 33.9656 46.723C32.2894 47.6792 30.5825 48.5696 28.8671 49.4528C27.4083 50.2049 25.9623 50.9763 24.5242 51.7672C22.946 52.635 21.3583 53.4809 19.7592 54.3096C18.1658 55.1358 16.5816 55.9762 15.0076 56.8385C14.7267 56.9922 14.7267 56.9922 14.4403 57.149C14.0491 57.3632 13.6577 57.5777 13.2662 57.7921C12.1674 58.3931 11.0678 58.9928 9.96641 59.5893C9.59586 59.7903 9.22595 59.9922 8.85603 60.1941C8.63157 60.3155 8.40733 60.4369 8.17605 60.5619C7.97629 60.6707 7.77632 60.7793 7.57039 60.8911C7.08803 61.1243 7.08803 61.1243 6.66211 61.1243C6.66211 60.6324 6.66211 60.1404 6.66211 59.6336C6.79883 59.5631 6.93555 59.4926 7.07653 59.42C9.48938 58.1748 11.8973 56.9245 14.2755 55.6139C16.1052 54.606 17.9546 53.6402 19.8125 52.6857C21.6277 51.7525 23.4336 50.8083 25.2114 49.8052C26.9317 48.8371 28.6757 47.9131 30.419 46.9869C31.7257 46.2907 33.0222 45.5809 34.3104 44.8511C36.0526 43.8649 37.8189 42.9285 39.5912 41.9979C41.9417 40.7608 44.2851 39.5145 46.6036 38.2182C46.775 38.1235 46.9465 38.0285 47.123 37.9307C47.3417 37.8083 47.3417 37.8083 47.5647 37.6835C47.9766 37.4856 47.9766 37.4856 48.8284 37.2727C48.7581 27.0825 48.6878 16.8923 48.6154 6.39333Z" fill="#3080B1"/>
<path d="M1.12491 27.9024C1.19518 28.0429 1.26546 28.1835 1.33787 28.3283C1.83226 28.415 2.32959 28.4867 2.8286 28.5413C2.82889 28.7255 2.82921 28.9099 2.82953 29.0999C2.83743 33.5842 2.84998 38.0685 2.86776 42.5528C2.87624 44.7214 2.88314 46.89 2.88631 49.0586C2.88908 50.9486 2.89481 52.8388 2.90411 54.7289C2.90892 55.7296 2.91227 56.7305 2.91203 57.7314C2.91188 58.6735 2.9157 59.6155 2.92253 60.5578C2.92434 60.9032 2.92473 61.2489 2.92353 61.5945C2.92211 62.0671 2.92592 62.5392 2.93103 63.0118C2.93182 63.2758 2.93261 63.5401 2.93342 63.8123C3.06141 64.6637 3.38909 65.1228 3.8934 65.8094C3.8934 65.95 3.8934 66.0905 3.8934 66.2354C2.7839 65.9449 2.16237 65.5117 1.33787 64.7446C1.02709 64.123 1.09878 63.5793 1.09929 62.8851C1.09912 62.736 1.09893 62.5869 1.09873 62.4331C1.09839 61.9314 1.09957 61.4295 1.10072 60.9275C1.10078 60.5687 1.10076 60.2098 1.10063 59.851C1.10057 58.8746 1.10182 57.8984 1.10331 56.9219C1.10464 55.9025 1.10476 54.883 1.10502 53.8634C1.10568 51.9318 1.10742 50.0005 1.10955 48.0689C1.11194 45.8703 1.11311 43.6717 1.11417 41.4731C1.11641 36.9496 1.12016 32.4259 1.12491 27.9024Z" fill="#265480"/>
<path d="M58.8374 63.6799C58.9429 63.8907 58.9429 63.8907 59.0504 64.1058C58.9099 64.1058 58.7693 64.1058 58.6245 64.1058C58.5542 64.5275 58.4839 64.9491 58.4115 65.3836C58.5653 65.4053 58.719 65.427 58.8775 65.4494C59.5475 65.614 59.9689 65.8657 60.5411 66.2486C61.4417 66.8411 62.3492 67.4182 63.2696 67.9791C65.8241 69.5369 65.8241 69.5369 66.0515 70.1219C66.0602 70.2448 66.069 70.3679 66.0781 70.4946C65.2795 71.1335 65.2795 71.1335 64.8004 71.1335C64.8004 70.7821 64.8004 70.4307 64.8004 70.0687C64.6127 70.0116 64.4251 69.9546 64.232 69.8958C63.5567 69.6549 63.0068 69.3736 62.3954 69.003C62.1909 68.8806 61.9867 68.7579 61.7761 68.6316C61.5661 68.5041 61.3564 68.3765 61.14 68.2453C60.7202 67.9915 60.3003 67.7383 59.8799 67.4857C59.695 67.3735 59.5102 67.2614 59.3198 67.1458C58.8272 66.8483 58.8272 66.8483 58.1986 66.6613C57.5827 66.9116 57.5827 66.9116 56.9033 67.296C56.7749 67.3652 56.6467 67.4342 56.5145 67.5053C56.0943 67.7323 55.6756 67.9621 55.2571 68.1921C54.9682 68.3486 54.6792 68.5051 54.3902 68.6612C53.6651 69.0539 52.9412 69.4492 52.2178 69.8453C51.6089 70.1786 50.9994 70.5104 50.3897 70.8424C49.7855 71.1714 49.1818 71.5009 48.5789 71.832C45.9725 73.2631 45.9725 73.2631 45.2079 73.2631C45.2079 73.1226 45.2079 72.982 45.2079 72.8372C44.782 72.6242 44.3921 72.519 43.9302 72.4113C43.9302 72.2004 43.9302 71.9896 43.9302 71.7724C44.0528 71.7096 44.1757 71.6465 44.302 71.5818C46.8514 70.2714 49.3735 68.9253 51.8628 67.5042C54.1668 66.1909 56.5011 64.9344 58.8374 63.6799Z" fill="#D6E4F1"/>
<path d="M47.1249 47.9207C47.251 48.0055 47.3768 48.0905 47.5067 48.1778C48.3622 48.7513 49.2153 49.3199 50.1063 49.8374C49.0869 50.7514 47.8994 51.3296 46.699 51.967C46.3129 52.1795 45.9268 52.3925 45.5409 52.6059C44.5014 53.1743 43.4458 53.705 42.3816 54.2255C41.7934 54.5108 41.7934 54.5108 41.2602 54.8927C40.7361 55.1614 40.7361 55.1614 40.2211 55.1357C39.5556 54.9091 38.9517 54.6188 38.327 54.2964C38.0994 54.1797 37.8717 54.063 37.6373 53.9426C37.4652 53.853 37.2931 53.7631 37.1157 53.6707C37.896 53.0376 38.7528 52.5795 39.6312 52.1001C39.9722 51.9125 40.3129 51.7249 40.6536 51.5368C40.8368 51.4361 41.0197 51.3352 41.2082 51.231C42.5151 50.5059 43.814 49.7661 45.1141 49.029C45.3143 48.9155 45.5145 48.8022 45.7206 48.6853C45.8993 48.5839 46.0778 48.4825 46.2618 48.3782C46.5461 48.2193 46.8336 48.0664 47.1249 47.9207Z" fill="#35759F"/>
<path d="M19.8624 63.1724C20.0042 63.2697 20.1459 63.3668 20.2917 63.4669C20.473 63.573 20.6542 63.6788 20.8408 63.788C21.0286 63.9016 21.2164 64.0153 21.4098 64.1324C21.5997 64.2472 21.7897 64.362 21.9854 64.4802C22.2011 64.6111 22.2011 64.6111 22.4214 64.7447C21.4888 65.7145 20.5207 66.5885 19.1471 66.7412C17.9705 66.9441 17.1925 67.6671 16.2455 68.365C14.286 69.7554 14.286 69.7554 13.224 69.6694C12.3104 69.3998 11.6962 69.1312 10.9215 68.578C10.7743 68.1229 10.7743 68.1229 10.7085 67.7261C10.864 67.6443 10.864 67.6444 11.0224 67.5611C12.0789 67.0057 13.135 66.4496 14.1908 65.8936C14.5554 65.7015 14.92 65.5096 15.2846 65.3178C15.7736 65.0605 16.2625 64.8028 16.7513 64.5451C16.8991 64.4674 17.0469 64.3897 17.1991 64.3096C17.3386 64.2361 17.4779 64.1624 17.6214 64.0866C17.7518 64.0183 17.8821 63.9501 18.0163 63.8796C18.4215 63.6615 18.4215 63.6616 18.9558 63.2797C19.4399 63.041 19.4399 63.041 19.8624 63.1724Z" fill="#3376A1"/>
<path d="M51.1705 44.7263C51.958 45.0238 52.6816 45.3793 53.4174 45.7877C53.762 45.979 53.762 45.979 54.1136 46.174C54.3615 46.3125 54.6094 46.4511 54.8573 46.5897C54.9842 46.6604 55.1109 46.7309 55.2414 46.8038C57.4707 48.0462 59.6783 49.3239 61.8792 50.616C63.0475 51.3013 64.2222 51.9751 65.3988 52.6459C65.6689 52.8003 65.6689 52.8003 65.9442 52.9579C66.8757 53.4905 67.8093 54.0184 68.7464 54.5408C69.1214 54.7521 69.4962 54.9634 69.871 55.1746C70.0469 55.2713 70.2226 55.3678 70.4038 55.4672C70.5631 55.5577 70.7226 55.648 70.8868 55.7413C71.0985 55.8591 71.0985 55.8591 71.3142 55.9792C71.4135 56.0607 71.5125 56.1423 71.6147 56.2262C71.6147 56.437 71.6147 56.6479 71.6147 56.8651C71.1639 57.1164 71.1639 57.1164 70.5499 57.291C69.9298 57.0672 69.9298 57.0672 69.2447 56.6771C69.1207 56.6078 68.9968 56.5386 68.869 56.4673C68.4644 56.2398 68.0632 56.0069 67.6617 55.7737C67.3808 55.6142 67.1 55.4551 66.8186 55.2962C65.0951 54.3181 63.3878 53.3114 61.6973 52.2771C60.0162 51.2523 58.2927 50.3055 56.5605 49.3701C55.4569 48.7645 54.5945 48.205 53.726 47.2819C53.0601 46.8874 52.3812 46.5363 51.692 46.1838C51.5199 46.0541 51.3479 45.9246 51.1705 45.7911C51.0949 45.2121 51.0949 45.2121 51.1705 44.7263Z" fill="#B2B1C2"/>
<path d="M57.0977 49.1804C57.7042 49.5822 58.2668 50.0246 58.8376 50.4763C59.2486 50.7007 59.6651 50.9156 60.0887 51.1151C60.2595 51.1986 60.4303 51.2821 60.6062 51.3681C60.7253 51.4252 60.8445 51.4823 60.9672 51.5411C60.087 52.1278 59.1721 52.644 58.2519 53.1649C58.0641 53.2748 57.8765 53.3844 57.6829 53.4977C55.8078 54.5525 55.8078 54.5525 54.5783 54.3095C54.083 53.9748 53.6995 53.6768 53.274 53.2714C52.5482 52.6018 51.9165 52.0594 50.958 51.754C52.2835 50.2494 55.0786 48.1166 57.0977 49.1804Z" fill="#3E84AE"/>
<path d="M59.1186 65.4857C59.9366 65.9498 60.7414 66.4302 61.5396 66.9275C61.8818 67.1392 62.2242 67.3506 62.5669 67.5621C62.7311 67.6639 62.8953 67.7655 63.0646 67.8703C63.7969 68.3207 64.5376 68.7568 65.2796 69.191C65.6523 69.4298 65.6523 69.4298 66.0782 69.8557C66.065 70.2816 66.065 70.2816 65.8652 70.7075C65.3196 70.9737 65.3196 70.9737 64.8004 71.1335C64.8004 70.7821 64.8004 70.4307 64.8004 70.0687C64.6128 70.0116 64.4252 69.9545 64.232 69.8957C63.5567 69.6549 63.0069 69.3736 62.3955 69.003C62.191 68.8806 61.9868 68.7579 61.7762 68.6316C61.5662 68.504 61.3564 68.3765 61.14 68.2451C60.7203 67.9914 60.3003 67.7382 59.88 67.4857C59.6027 67.3174 59.6027 67.3174 59.3199 67.1458C58.8273 66.8483 58.8273 66.8483 58.1986 66.6613C57.5827 66.9113 57.5827 66.9113 56.9034 67.2959C56.775 67.3651 56.6468 67.4341 56.5145 67.5053C56.0944 67.7323 55.6757 67.9621 55.2572 68.1918C54.9682 68.3486 54.6792 68.5051 54.3902 68.6612C53.6651 69.0539 52.9413 69.4492 52.2178 69.8453C51.609 70.1785 50.9995 70.5103 50.3898 70.8423C49.7856 71.1714 49.1819 71.5008 48.579 71.832C45.9725 73.2631 45.9725 73.2631 45.208 73.2631C45.5128 72.4907 45.8311 72.2334 46.5673 71.8663C46.7607 71.7681 46.9541 71.6697 47.1534 71.5683C47.3636 71.4644 47.5736 71.3605 47.7902 71.2532C48.2365 71.0266 48.6827 70.7993 49.1286 70.5719C49.3599 70.4545 49.591 70.3372 49.8293 70.2165C50.9643 69.6338 52.086 69.0271 53.2073 68.4182C53.4213 68.303 53.6351 68.1876 53.8553 68.0687C54.7778 67.5691 55.6934 67.0644 56.5897 66.519C56.7271 66.4362 56.8646 66.3533 57.006 66.2679C57.3555 66.0548 57.702 65.8363 58.0481 65.6173C58.6246 65.3835 58.6246 65.3835 59.1186 65.4857Z" fill="#A8B3CD"/>
<path d="M57.7727 66.8743C57.8285 67.3592 57.8285 67.3592 57.7727 67.9391C57.3909 68.3392 57.3909 68.3392 56.8808 68.6976C56.6157 68.8885 56.6157 68.8885 56.3452 69.0829C56.1838 69.1975 56.0224 69.3118 55.8561 69.4298C55.599 69.6538 55.599 69.6538 55.3369 69.8823C54.6705 70.37 53.965 70.6978 53.2232 71.057C52.221 71.5737 51.1826 72.1644 50.4006 72.986C50.3033 73.0774 50.2062 73.169 50.1061 73.2631C49.6402 73.1967 49.6402 73.1967 49.2543 73.0501C49.1137 73.4718 48.9732 73.8935 48.8283 74.3279C47.4401 74.1678 47.44 74.1678 46.8985 73.8888C46.3278 73.6126 45.8324 73.6607 45.208 73.689C45.208 73.5485 45.208 73.4079 45.208 73.2631C45.4433 73.1568 45.6784 73.0506 45.921 72.9411C48.5596 71.7302 51.0702 70.3434 53.5874 68.8995C54.3954 68.4395 55.2099 67.9927 56.029 67.5532C56.2764 67.4199 56.5237 67.2868 56.7786 67.1496C57.3468 66.8743 57.3468 66.8743 57.7727 66.8743Z" fill="#317AA7"/>
<path d="M64.8004 70.2816C64.7665 70.7723 64.7665 70.7723 64.5874 71.3465C64.0901 71.7004 64.0901 71.7004 63.427 72.0128C63.1823 72.131 62.9378 72.249 62.6859 72.3708C62.4899 72.4622 62.4899 72.4622 62.29 72.5552C61.607 72.8738 60.9298 73.2045 60.2517 73.5336C60.1146 73.5996 59.9774 73.6656 59.836 73.7335C58.3263 74.4642 56.8609 75.2713 55.3966 76.0887C55.219 76.1873 55.0414 76.2859 54.8585 76.3877C54.7058 76.4735 54.5531 76.5593 54.3957 76.6479C53.3482 77.1886 52.5817 77.4141 51.3838 77.3094C50.736 77.0425 50.736 77.0425 50.096 76.6722C49.8635 76.5395 49.6309 76.407 49.3916 76.2703C49.1528 76.13 48.9143 75.9899 48.6686 75.8453C48.4266 75.7066 48.1849 75.568 47.9358 75.4251C47.0839 74.9351 46.2387 74.4472 45.4209 73.902C45.4209 73.7614 45.4209 73.6209 45.4209 73.4761C46.8382 73.5527 47.7937 74.1275 48.988 74.8603C49.346 75.076 49.7042 75.2911 50.0628 75.5058C50.2977 75.6493 50.2977 75.6493 50.5375 75.7958C51.3657 76.2605 52.1577 76.4053 53.0875 76.2446C53.8848 75.9251 54.6259 75.5152 55.3768 75.0999C55.5915 74.9845 55.8059 74.869 56.0272 74.75C56.4678 74.5128 56.908 74.2745 57.3476 74.0351C58.2825 73.528 59.2257 73.0367 60.1685 72.5444C61.4432 71.8754 62.7091 71.1942 63.9626 70.4863C64.3744 70.2816 64.3744 70.2816 64.8004 70.2816Z" fill="#165C75"/>
<path d="M4.31936 24.708C4.47908 25.0674 4.47908 25.0674 4.53232 25.5598C4.25624 25.9208 3.97 26.2741 3.6805 26.6246C3.30085 27.3227 2.95592 28.0361 2.6157 28.7542C2.15385 28.6465 1.76394 28.5413 1.33793 28.3283C1.26765 40.0646 1.19737 51.8009 1.12497 63.8928C1.05469 63.8928 0.984414 63.8928 0.912007 63.8928C0.887133 59.0907 0.86835 54.2889 0.85685 49.4868C0.851355 47.2571 0.843882 45.0274 0.831679 42.7977C0.821073 40.8542 0.814195 38.9105 0.811831 36.9669C0.810447 35.938 0.807187 34.909 0.799435 33.8802C0.792195 32.911 0.789981 31.942 0.791578 30.9731C0.79128 30.6178 0.789171 30.2628 0.785082 29.9078C0.74971 26.6796 0.749709 26.6796 1.66495 25.4218C2.48932 24.6607 3.22506 24.6658 4.31936 24.708Z" fill="#53809E"/>
<path d="M68.2076 56.6522C68.4915 57.2201 68.7756 57.7879 69.0595 58.3558C68.9042 58.4351 68.749 58.5141 68.589 58.5956C67.8624 58.9673 67.1364 59.3399 66.4107 59.7135C66.2803 59.7806 66.1498 59.8476 66.0152 59.9169C64.2189 60.842 62.4498 61.7979 60.7412 62.8796C60.3996 63.0906 60.0452 63.2812 59.6892 63.4669C59.4783 63.3966 59.2675 63.3264 59.0503 63.254C60.0342 62.6917 61.0181 62.1295 62.0317 61.5503C61.7645 61.0155 61.4991 60.9389 60.9669 60.6984C61.5556 60.2401 62.1521 59.85 62.8037 59.4871C62.969 59.3942 63.1342 59.3012 63.3046 59.2051C63.7354 58.9947 63.7354 58.9947 64.1614 58.9947C64.1614 58.8542 64.1614 58.7136 64.1614 58.5688C64.0208 58.516 63.8802 58.4634 63.7354 58.4091C62.9339 58.0752 62.1657 57.6861 61.3929 57.291C61.3929 57.1505 61.3929 57.0099 61.3929 56.8651C62.223 56.9803 62.6564 57.2067 63.3095 57.717C64.0287 58.1056 64.6015 58.2196 65.4151 58.0771C66.4113 57.7513 67.3089 57.1835 68.2076 56.6522Z" fill="#225B79"/>
<path d="M52.826 46.5382C53.1003 46.7086 53.1003 46.7086 53.3801 46.8826C53.6593 47.0546 53.6593 47.0546 53.944 47.2303C54.0831 47.3176 54.2219 47.4049 54.365 47.4948C53.6156 48.1147 52.8511 48.6625 52.0225 49.1719C51.8072 49.3075 51.5921 49.4432 51.3704 49.5829C50.7447 49.8374 50.7447 49.8374 50.2031 49.7077C50.0304 49.6099 49.8577 49.5122 49.6799 49.4115C49.4919 49.3054 49.3038 49.1996 49.11 49.0903C48.9247 48.9768 48.7395 48.8631 48.5487 48.746C48.3604 48.6312 48.1724 48.5164 47.9788 48.3982C47.8374 48.3109 47.696 48.2236 47.5503 48.1337C47.8521 47.2284 48.4965 47.005 49.294 46.5763C49.4346 46.4945 49.5753 46.4125 49.7202 46.328C50.9743 45.6484 51.5819 45.8616 52.826 46.5382Z" fill="#3578A2"/>
<path d="M48.6152 6.39333C48.7557 6.39333 48.8963 6.39333 49.0411 6.39333C49.0411 17.0052 49.0411 27.617 49.0411 38.5504C46.9328 39.71 46.9328 39.71 44.7819 40.893C44.5711 40.7525 44.3602 40.6119 44.143 40.4671C44.139 39.9979 44.139 39.9979 44.356 39.4023C44.9028 38.9815 45.5079 38.6925 46.1263 38.3907C46.2907 38.306 46.4553 38.221 46.6248 38.1337C47.3723 37.7546 48.0076 37.4778 48.8281 37.2727C48.7579 27.0825 48.6876 16.8923 48.6152 6.39333Z" fill="#418AAC"/>
<path d="M24.9765 60.2725C25.0547 60.4684 25.0547 60.4684 25.1345 60.6684C25.4559 61.2151 25.7097 61.3456 26.2809 61.6035C26.4351 61.6748 26.5895 61.7462 26.7483 61.8199C26.8665 61.8714 26.9845 61.9229 27.1061 61.9762C27.1061 62.1167 27.1061 62.2573 27.1061 62.4021C26.6772 62.7247 26.256 63.011 25.8017 63.294C25.6803 63.3749 25.559 63.456 25.4339 63.5397C24.8208 63.9237 24.4139 64.1075 23.6855 64.0909C23.003 63.8749 22.4295 63.5964 21.8087 63.2407C21.6028 63.124 21.3968 63.0073 21.1847 62.887C21.0306 62.7974 20.8762 62.7075 20.7173 62.6151C21.1462 62.1557 21.5483 61.8361 22.1024 61.5411C22.3126 61.4289 22.3126 61.4289 22.527 61.3145C22.6721 61.2385 22.8173 61.1627 22.9666 61.0843C23.1127 61.0059 23.2586 60.9276 23.4089 60.8468C24.4948 60.2725 24.4948 60.2725 24.9765 60.2725Z" fill="#3579A4"/>
<path d="M57.5597 66.0224C57.7003 66.2332 57.8409 66.4441 57.9857 66.6613C56.2813 67.7169 54.5261 68.6661 52.7549 69.6027C52.4704 69.7537 52.1859 69.9045 51.9014 70.0555C51.4795 70.2793 51.0574 70.5029 50.6353 70.7265C49.844 71.1454 49.0549 71.5679 48.2676 71.9945C48.0998 72.085 47.932 72.1755 47.7591 72.2688C47.4607 72.4298 47.163 72.5916 46.8659 72.7547C46.2647 73.0774 45.902 73.2631 45.208 73.2631C45.5128 72.4907 45.8311 72.2334 46.5673 71.8663C46.7607 71.7679 46.9543 71.6695 47.1536 71.5681C47.3638 71.4642 47.5738 71.3603 47.7902 71.2532C48.235 71.0274 48.6799 70.801 49.1246 70.5744C49.3554 70.4573 49.5865 70.34 49.8246 70.2192C50.9839 69.6236 52.129 69.0015 53.2739 68.3782C53.4824 68.2651 53.6907 68.152 53.9053 68.0355C55.1273 67.3715 56.3452 66.7003 57.5597 66.0224Z" fill="#99B7DB"/>
<path d="M19.4399 63.041C19.6529 63.6798 19.6529 63.6798 19.3735 64.2389C19.014 64.7446 19.014 64.7446 18.5881 64.9576C18.1896 65.0062 17.7901 65.0449 17.3901 65.0773C17.1765 65.0952 16.9629 65.1131 16.743 65.1314C16.5788 65.1444 16.4146 65.1574 16.2455 65.1706C16.2263 65.2977 16.2072 65.4248 16.1873 65.5558C15.9003 66.4215 15.0733 66.8304 14.3288 67.3002C13.8392 67.5425 13.3471 67.7374 12.8381 67.9391C12.6537 68.0577 12.469 68.1763 12.2791 68.2985C11.7054 68.6154 11.3538 68.6333 10.7085 68.5779C10.7377 68.0896 10.7377 68.0896 10.9215 67.5131C11.4524 67.1422 11.4524 67.1422 12.1568 66.8093C12.3457 66.7177 12.3457 66.7177 12.5387 66.624C12.9429 66.4287 13.3494 66.2388 13.7564 66.049C14.2843 65.7984 14.8112 65.5454 15.3378 65.292C15.4671 65.2302 15.5962 65.1686 15.7293 65.105C17.0081 64.4867 18.2258 63.7784 19.4399 63.041Z" fill="#3785B0"/>
<path d="M38.3931 87.7444C38.8148 87.8499 38.8148 87.8499 39.245 87.9574C39.1747 88.098 39.1044 88.2385 39.032 88.3833C38.9551 88.8793 38.8836 89.3764 38.8191 89.8741C39.0299 89.9443 39.2407 90.0146 39.4579 90.087C39.4579 90.2978 39.4579 90.5087 39.4579 90.7259C40.3715 90.8665 41.2851 91.007 42.2264 91.1518C42.2264 91.2924 42.2264 91.4329 42.2264 91.5777C41.7918 91.5952 41.3569 91.6076 40.922 91.6178C40.559 91.6289 40.5589 91.6289 40.1884 91.6401C39.4579 91.5777 39.4579 91.5777 38.1802 90.9389C38.2505 89.8847 38.3207 88.8305 38.3931 87.7444Z" fill="#154658"/>
<path d="M24.5505 60.4854C24.5505 60.6963 24.5505 60.9071 24.5505 61.1243C24.41 61.1243 24.2694 61.1243 24.1246 61.1243C24.1246 61.2649 24.1246 61.4054 24.1246 61.5502C23.9182 61.6469 23.7117 61.7434 23.4989 61.8431C22.8317 62.1163 22.8317 62.1163 22.6339 62.6151C22.1419 62.6151 21.65 62.6151 21.1431 62.6151C21.0729 62.4745 21.0026 62.3339 20.9302 62.1891C21.4532 61.9042 21.9767 61.6203 22.5008 61.3373C22.6496 61.2559 22.7983 61.1748 22.9516 61.0911C24.0762 60.4854 24.0762 60.4854 24.5505 60.4854Z" fill="#3E89B3"/>
<path d="M68.4209 56.0132C69.1237 56.3646 69.8264 56.716 70.5505 57.078C70.0473 57.616 69.77 57.906 69.0598 58.1429C68.4196 57.5027 68.5069 56.9026 68.4209 56.0132Z" fill="#4195B3"/>
<path d="M43.7172 49.8374C43.7172 50.593 43.4881 50.9382 43.0027 51.5062C42.5402 51.8335 42.2887 51.8003 41.7341 51.7274C41.475 51.6659 41.2158 51.6046 40.9487 51.5411C41.8033 50.7934 42.6971 50.3134 43.7172 49.8374Z" fill="#3D82A9"/>
<path d="M39.4583 52.18C39.6713 52.6059 39.6713 52.6059 39.5115 53.1515C39.2453 53.6707 39.2453 53.6707 38.6064 53.8837C38.1079 53.8244 37.6106 53.7548 37.1157 53.6707C37.8519 53.0819 38.6369 52.638 39.4583 52.18Z" fill="#438FB7"/>
<path d="M27.7451 58.5688C27.9559 58.7093 28.1667 58.8499 28.3839 58.9947C27.892 59.1353 27.4001 59.2758 26.8932 59.4206C26.8932 59.6315 26.8932 59.8423 26.8932 60.0595C25.9445 60.1649 25.9445 60.1649 24.9766 60.2725C25.572 59.8067 26.1762 59.4223 26.84 59.0612C27.0101 58.9683 27.1803 58.8752 27.3558 58.7792C27.4842 58.7098 27.6126 58.6403 27.7451 58.5688Z" fill="#3E8CB4"/>
<path d="M49.3476 0.483675C49.5974 0.505078 49.5974 0.505078 49.8525 0.526927C50.3191 0.643396 50.3191 0.643396 50.958 1.28228C50.0444 1.28228 49.1308 1.28228 48.1895 1.28228C48.1192 1.07145 48.049 0.860616 47.9766 0.643396C48.4979 0.382753 48.7718 0.426942 49.3476 0.483675Z" fill="#3C93B8"/>
<path d="M82.6892 65.3835C82.9703 65.5241 83.2514 65.6647 83.541 65.8095C82.769 66.8477 82.769 66.8477 82.0503 67.0872C82.184 66.4635 82.388 65.9455 82.6892 65.3835Z" fill="#9FABC2"/>
<path d="M43.5044 86.6796C43.4341 86.8905 43.3638 87.1013 43.2914 87.3185C42.3778 87.2482 41.4642 87.178 40.5229 87.1055C40.5229 87.0353 40.5229 86.965 40.5229 86.8926C40.9001 86.8568 41.2773 86.8212 41.6542 86.7861C41.8644 86.7663 42.0744 86.7465 42.2907 86.7263C42.8655 86.6796 42.8655 86.6796 43.5044 86.6796Z" fill="#B0BBD2"/>
<path d="M46.6984 6.60629C47.0551 6.6672 47.4105 6.73786 47.7632 6.81925C47.2551 7.2222 46.896 7.46323 46.2725 7.6711C46.4588 6.84587 46.4588 6.84587 46.6984 6.60629Z" fill="#0A4E60"/>
<path d="M67.9951 74.5409C67.5581 75.0196 67.3547 75.1802 66.7173 75.3927C66.7173 75.1116 66.7173 74.8305 66.7173 74.5409C67.3562 74.3279 67.3562 74.3279 67.9951 74.5409Z" fill="#A4AFC7"/>
</svg>
