<svg width="88" height="93" viewBox="0 0 88 93" fill="none" xmlns="http://www.w3.org/2000/svg">
<path d="M35.5196 2.96275C38.7515 4.17784 40.9077 8.90745 42.5518 11.6698C43.0256 12.4563 43.4447 13.115 44.0996 13.7656C44.6158 14.2862 44.7161 14.5799 44.7776 15.2995C44.9067 15.3178 45.0357 15.3364 45.1686 15.3553C46.607 15.5964 47.7665 16.0819 49.0369 16.7902C49.0765 16.5575 49.0765 16.5575 49.1167 16.3202C49.9126 12.7642 53.3387 10.3251 56.1078 8.28843C56.7075 7.8643 56.7075 7.8643 57.1935 7.36254C58.0289 6.82694 58.7074 6.92469 59.6717 7.00734C59.8389 7.01599 60.0063 7.02464 60.1786 7.03354C61.8071 7.14664 62.8504 7.68022 63.9441 8.91068C65.2219 10.4889 65.2219 10.4889 65.2219 11.0403C65.4766 11.0227 65.7315 11.0052 65.9939 10.9871C66.9537 10.9887 67.4608 11.2677 68.2034 11.8921C68.7487 12.468 69.0241 12.8396 69.2283 13.609C69.5946 14.5152 70.1057 14.6696 70.9718 15.0866C70.9718 15.2271 70.9718 15.3677 70.9718 15.5125C70.3394 15.7233 69.7069 15.9341 69.0552 16.1514C69.0552 15.7297 69.0552 15.308 69.0552 14.8736C68.6685 15.0761 68.2826 15.2806 67.8973 15.4859C67.6822 15.5996 67.4674 15.7131 67.2459 15.8302C66.6911 16.0996 66.6911 16.0996 66.4997 16.5773C66.6228 16.6212 66.7456 16.665 66.8723 16.7104C67.5553 17.1276 67.8311 17.5763 68.2034 18.281C68.4602 19.4484 68.0458 20.1082 67.458 21.0893C67.3196 21.3033 67.1814 21.5171 67.0387 21.7373C66.6441 22.3392 66.6441 22.3392 66.7126 23.1791C67.1451 23.5181 67.544 23.783 68.017 24.0541C68.2155 24.173 68.2155 24.173 68.418 24.2941C68.8418 24.5465 69.2677 24.7946 69.6941 25.0425C69.9816 25.2126 70.2689 25.3832 70.5559 25.554C71.2606 25.9725 71.9674 26.3869 72.6755 26.7994C72.3542 27.4698 72.0022 27.975 71.5042 28.5297C71.3748 28.6752 71.2451 28.8206 71.1116 28.9706C70.3732 29.7753 70.3732 29.7753 69.8466 29.8488C69.5459 29.8588 69.5459 29.8588 69.239 29.869C69.0162 29.8773 68.7935 29.8856 68.5639 29.8939C68.3264 29.9006 68.0888 29.9072 67.8441 29.914C67.6041 29.9221 67.3641 29.9302 67.117 29.9385C65.349 29.9943 63.5832 30.0196 61.8145 29.9938C61.8145 30.1344 61.8145 30.2749 61.8145 30.4197C61.9815 30.4594 62.1484 30.4988 62.3203 30.5394C63.1968 30.8872 63.8515 31.3561 64.6096 31.9096C65.0579 32.222 65.4977 32.507 65.9673 32.7832C66.0931 32.8573 66.219 32.9316 66.3487 33.0081C66.7109 33.2193 67.0749 33.428 67.4388 33.6365C67.9904 34.0401 67.9904 34.0401 68.0747 34.4718C68.1171 34.6104 68.1597 34.749 68.2034 34.8919C68.6084 35.0934 68.6084 35.0934 69.1093 35.2048C70.4627 35.6833 71.5094 36.1671 72.2496 37.4475C72.9545 40.4172 72.4856 43.8058 72.2496 46.8177C74.872 45.3434 74.872 45.3434 77.4931 43.8667C77.891 43.6423 78.2892 43.4182 78.6874 43.1944C79.7101 42.6182 80.7259 42.034 81.7306 41.4271C81.9142 41.3172 82.098 41.2073 82.2873 41.094C82.6325 40.8864 82.976 40.6764 83.3181 40.4636C84.4506 39.7856 84.4506 39.7856 85.2187 39.8083C85.6662 40.003 85.6662 40.003 86.0921 40.4289C86.212 40.8133 86.212 40.8133 86.305 41.2541C86.4056 41.7265 86.4995 42.0992 86.735 42.5228C86.9748 43.0528 86.9984 43.4172 87.001 43.9971C87.0036 44.3016 87.0035 44.3016 87.0063 44.6121C87.0061 44.8334 87.0061 45.0546 87.0059 45.2827C87.0072 45.517 87.0087 45.751 87.0102 45.9923C87.0142 46.7677 87.0151 47.5431 87.0155 48.3185C87.0168 48.8575 87.0182 49.3965 87.0197 49.9355C87.0223 51.0661 87.0231 52.1969 87.0229 53.3275C87.0225 54.6317 87.0272 55.9357 87.0338 57.2396C87.0402 58.497 87.0417 59.7541 87.0412 61.0112C87.0419 61.5446 87.0438 62.0783 87.047 62.6118C87.0513 63.3591 87.05 64.1061 87.0474 64.8534C87.0498 65.073 87.0521 65.2925 87.0547 65.5187C87.0432 66.8476 86.8558 67.8577 86.0921 68.9657C85.6221 69.4133 85.6221 69.4133 85.1146 69.7377C84.927 69.8591 84.7391 69.9805 84.5458 70.1055C83.6115 70.6677 82.6689 71.2092 81.7132 71.7342C79.9139 72.7362 78.1378 73.7695 76.3757 74.8353C74.5798 75.9206 72.7735 76.9826 70.9486 78.0182C65.3938 81.1115 65.3938 81.1115 59.9869 84.4495C59.4719 84.7248 59.4719 84.7248 58.8806 84.8051C58.1032 84.9555 57.599 85.2251 56.9207 85.6307C56.8008 85.7017 56.6811 85.7726 56.5576 85.8456C56.1659 86.078 55.776 86.3131 55.3859 86.5482C55.1126 86.7107 54.8392 86.8729 54.5658 87.035C53.3025 87.7848 52.0439 88.5424 50.7855 89.3007C50.265 89.6138 49.7441 89.9257 49.223 90.2377C48.858 90.4569 48.4944 90.6784 48.1307 90.8998C46.3472 91.9706 45.1488 92.4106 43.0739 92.3914C43.0731 92.2575 43.0722 92.1233 43.0712 91.9853C43.0492 88.7238 43.026 85.4623 43.0018 82.2006C42.9898 80.6234 42.9785 79.0462 42.9681 77.4688C42.9589 76.0941 42.9492 74.7193 42.9383 73.3444C42.9328 72.6167 42.9274 71.8888 42.923 71.1609C42.9178 70.348 42.9115 69.5354 42.9046 68.7227C42.9036 68.4814 42.9023 68.2403 42.901 67.992C42.8978 67.6592 42.8978 67.6592 42.8946 67.3197C42.8934 67.1274 42.8919 66.9353 42.8906 66.7373C42.8763 66.1866 42.8763 66.1866 42.7258 65.6214C42.7002 65.4599 42.6744 65.2985 42.648 65.1324C43.0739 64.7065 43.0739 64.7065 43.5082 64.6782C43.7808 64.679 43.7808 64.679 44.0589 64.6799C45.588 64.5785 46.7746 63.8876 48.0985 63.1757C48.8239 62.7898 48.8239 62.7898 49.4628 62.5769C49.5331 62.366 49.6033 62.1552 49.6757 61.938C50.2865 61.5909 50.8956 61.321 51.5526 61.0727C52.0534 60.9175 52.0535 60.9175 52.2313 60.4473C52.5124 60.4473 52.7935 60.4473 53.0831 60.4473C53.0831 60.3067 53.0831 60.1661 53.0831 60.0213C53.2499 59.9319 53.2499 59.9319 53.42 59.8407C54.5888 59.2042 55.7053 58.5112 56.8142 57.7752C57.2902 57.4965 57.6558 57.3482 58.1942 57.2528C58.1876 56.8576 58.1876 56.8576 58.181 56.4542C58.1797 55.8337 58.2091 55.2915 58.4071 54.6973C58.126 54.7676 57.8449 54.8379 57.5553 54.9103C57.7661 54.6292 57.977 54.348 58.1942 54.0584C58.1239 53.9179 58.0536 53.7773 57.9812 53.6325C57.9731 53.2498 57.9791 52.8667 57.9917 52.484C58.0253 51.2814 58.0464 50.0795 58.057 48.8764C58.0643 48.1488 58.0777 47.4223 58.1045 46.6953C58.3507 43.6378 58.3507 43.6378 57.4578 40.8244C56.6792 40.095 55.7839 39.6921 54.7936 39.3215C54.1805 39.08 53.6507 38.7382 53.0989 38.3809C52.5096 38.0239 51.9197 37.6677 51.3296 37.3122C50.3076 36.6938 49.2965 36.066 48.3024 35.4035C48.0295 35.2237 48.0295 35.2237 47.7514 35.0404C47.4111 34.8146 47.0729 34.5855 46.7373 34.3525C45.7619 33.7087 45.7619 33.7087 44.5996 33.6857C44.3773 33.7324 44.1549 33.779 43.9258 33.8271C43.4886 33.4862 43.062 33.1312 42.648 32.7623C41.7555 32.6358 41.2759 32.8767 40.5367 33.362C40.3393 33.4898 40.1419 33.6176 39.9385 33.7494C39.7347 33.8848 39.5307 34.0203 39.3205 34.1598C38.9184 34.4219 38.5164 34.6839 38.1143 34.946C37.8147 35.143 37.8147 35.143 37.5091 35.344C36.7081 35.8681 35.9006 36.3814 35.092 36.894C34.5391 37.2449 33.9882 37.5989 33.4375 37.9532C32.7724 38.3783 32.1028 38.7927 31.4226 39.1927C29.0192 40.5797 29.0192 40.5797 26.8889 42.3456C26.8672 42.9791 26.8593 43.6078 26.8606 44.2413C26.8604 44.4385 26.8602 44.6357 26.8597 44.8389C26.8593 45.4942 26.8608 46.1493 26.8623 46.8043C26.8625 47.0313 26.8627 47.2582 26.8629 47.4918C26.8659 50.5122 26.9076 53.5286 26.9954 56.5473C27.107 60.4394 27.1264 64.3306 27.1281 68.224C27.1285 68.6897 27.1293 69.1554 27.1302 69.6212C27.1353 72.7317 27.1204 75.8416 27.0322 78.951C27.0207 79.368 27.0107 79.785 27.0007 80.2019C26.9886 80.5763 26.9886 80.5763 26.9762 80.9582C26.9664 81.2872 26.9664 81.2872 26.9564 81.6226C26.8889 82.1693 26.8889 82.1693 26.463 82.8082C25.6665 82.5079 24.9369 82.1461 24.1937 81.7316C23.8436 81.537 23.8436 81.537 23.4866 81.3383C23.2364 81.1982 22.9864 81.0583 22.7362 80.9181C22.4793 80.775 22.2227 80.6319 21.9659 80.4888C20.1457 79.4732 18.3336 78.4435 16.5307 77.3977C16.3605 77.2995 16.1902 77.2011 16.0147 77.0997C15.8671 77.0141 15.7197 76.9285 15.5679 76.8404C15.1471 76.6031 15.1471 76.6031 14.5372 76.4193C14.4846 71.1583 14.4379 65.8976 14.3987 60.6364C14.3804 58.1937 14.36 55.751 14.3349 53.3084C14.3131 51.1798 14.295 49.0513 14.2814 46.9227C14.2739 45.7951 14.2648 44.6677 14.2512 43.5403C14.2382 42.4797 14.2305 41.419 14.2265 40.3584C14.2241 39.9685 14.2199 39.5788 14.2137 39.1891C14.2056 38.6577 14.2041 38.1268 14.2043 37.5953C14.2003 37.4402 14.1964 37.2854 14.1924 37.1257C14.2 36.3281 14.259 36.0219 14.8325 35.4484C15.0163 35.3351 15.1999 35.2216 15.389 35.1049C15.5553 34.9991 15.7214 34.8934 15.8927 34.7844C16.1503 34.6355 16.1503 34.6355 16.4131 34.4835C16.6057 34.3712 16.7984 34.2588 16.9969 34.1432C17.1998 34.0256 17.4028 33.9083 17.6119 33.7871C19.2025 32.8575 20.7682 31.9073 22.3102 30.8989C23.2028 30.3192 24.1151 29.7726 25.0255 29.2218C27.4343 27.9892 27.4343 27.9892 29.2315 26.1605C28.8335 26.1688 28.8335 26.1688 28.4273 26.1773C27.4411 26.1967 26.4549 26.2089 25.4685 26.2191C25.0419 26.2244 24.6153 26.2317 24.189 26.2408C23.575 26.2538 22.9617 26.2598 22.3477 26.2645C22.0626 26.2728 22.0626 26.2728 21.7715 26.2811C20.8142 26.2815 20.4219 26.2689 19.6529 25.6505C19.5107 25.4673 19.3686 25.2844 19.2223 25.0957C19.0805 24.9435 18.9384 24.791 18.7923 24.634C18.6032 24.4211 18.6032 24.4211 18.4105 24.2038C18.2817 24.0603 18.1528 23.9168 18.0204 23.7688C17.7316 23.392 17.7316 23.392 17.7316 22.9661C18.1413 22.6771 18.1413 22.6771 18.7116 22.349C18.9171 22.2291 19.1229 22.1094 19.3345 21.9861C19.5524 21.8615 19.77 21.7369 19.9943 21.6085C20.4187 21.3632 20.8429 21.1174 21.2672 20.8714C21.4667 20.7556 21.6665 20.6399 21.872 20.5207C22.4966 20.1503 23.098 19.7591 23.6945 19.3458C23.5635 18.6756 23.3357 18.2284 22.9491 17.6687C22.4725 16.9408 22.3469 16.3705 22.2038 15.5125C21.8405 15.2987 21.8405 15.2987 21.3519 15.0866C20.8696 14.8069 20.391 14.5239 19.9144 14.2347C19.7862 14.1589 19.658 14.0831 19.526 14.0051C19.2042 13.8096 18.8929 13.5973 18.5834 13.3829C18.5834 13.2423 18.5834 13.1018 18.5834 12.9569C19.0901 12.6192 19.0901 12.6192 19.7681 12.2382C20.0011 12.1042 20.2341 11.9703 20.4743 11.8322C20.8476 11.6267 21.2244 11.4265 21.6107 11.2466C22.6386 10.7608 22.9016 10.1746 23.2894 9.1644C23.6008 8.40835 24.0218 7.78872 24.7593 7.41996C24.9071 7.42984 25.0547 7.43972 25.2069 7.4499C25.8565 7.47805 26.2796 7.44672 26.8889 7.207C27.4132 6.50801 27.7699 5.845 28.1492 5.05741C28.5926 4.4385 28.5926 4.4385 29.3339 4.23218C29.9547 4.22667 30.383 4.24475 30.9618 4.4385C31.6709 4.67391 32.1326 4.6593 32.8518 4.4385C33.4091 4.06757 33.9241 3.66062 34.449 3.24558C34.9814 2.94777 34.9814 2.94777 35.5196 2.96275Z" fill="#E75D71"/>
<path d="M63.0522 30.8724C63.2743 31.0084 63.4964 31.1447 63.7253 31.2849C64.4358 31.7397 65.142 32.1987 65.8375 32.6759C66.4291 33.0703 67.0437 33.4217 67.6643 33.769C67.9903 34.0401 67.9903 34.0401 68.0606 34.4635C68.1076 34.6049 68.1547 34.7463 68.2033 34.892C68.6081 35.0935 68.6081 35.0935 69.1092 35.2048C70.4624 35.6834 71.5093 36.1672 72.2495 37.4475C72.9544 40.4173 72.4855 43.8059 72.2495 46.8178C74.8719 45.3435 74.8719 45.3435 77.4931 43.8668C77.8909 43.6423 78.2891 43.4183 78.6873 43.1945C79.71 42.6182 80.7258 42.0341 81.7306 41.4271C81.9141 41.3172 82.0979 41.2073 82.2872 41.0941C82.6322 40.8864 82.976 40.6764 83.318 40.4637C84.4505 39.7856 84.4505 39.7856 85.2184 39.8084C85.6661 40.0031 85.6661 40.0031 86.092 40.429C86.2117 40.8134 86.2117 40.8134 86.305 41.2542C86.4055 41.7265 86.4994 42.0992 86.7347 42.5228C86.9747 43.0529 86.9984 43.4172 87.0007 43.9971C87.0035 44.3017 87.0035 44.3017 87.0062 44.6122C87.006 44.9442 87.006 44.9442 87.0058 45.2828C87.0071 45.517 87.0086 45.7511 87.0101 45.9924C87.0141 46.7678 87.015 47.5432 87.0154 48.3185C87.0167 48.8575 87.0182 49.3966 87.0197 49.9356C87.0222 51.0662 87.0231 52.197 87.0229 53.3276C87.0224 54.6318 87.0269 55.9357 87.0337 57.2397C87.0399 58.497 87.0416 59.7541 87.0412 61.0112C87.0418 61.5447 87.0437 62.0784 87.0469 62.6119C87.0512 63.3591 87.0499 64.1062 87.0473 64.8535C87.0497 65.073 87.052 65.2926 87.0546 65.5188C87.0431 66.8476 86.8557 67.8577 86.092 68.9658C85.622 69.4134 85.622 69.4134 85.1145 69.7377C84.9269 69.8591 84.7391 69.9803 84.5457 70.1055C83.6114 70.6677 82.6689 71.2093 81.7131 71.7342C79.9138 72.7362 78.1377 73.7695 76.3757 74.8354C74.5798 75.9206 72.7734 76.9825 70.9485 78.0183C65.3937 81.1116 65.3937 81.1116 59.9868 84.4495C59.4719 84.7249 59.4719 84.7249 58.8805 84.8052C58.1032 84.9553 57.5987 85.2251 56.9206 85.6308C56.8007 85.7017 56.681 85.7726 56.5575 85.8455C56.1659 86.078 55.7757 86.3131 55.3856 86.5482C55.1126 86.7107 54.8391 86.873 54.5657 87.0351C53.3024 87.7849 52.0438 88.5424 50.7854 89.3008C50.2649 89.6138 49.744 89.9258 49.2229 90.2378C48.8579 90.4569 48.4944 90.6784 48.1306 90.8999C46.3471 91.9707 45.1488 92.4106 43.0739 92.3915C43.073 92.2575 43.0722 92.1233 43.0711 91.9853C43.0492 88.7238 43.026 85.4624 43.0017 82.2006C42.9898 80.6235 42.9785 79.0463 42.968 77.4689C42.9589 76.0942 42.9489 74.7193 42.9382 73.3444C42.9327 72.6168 42.9274 71.8889 42.9229 71.161C42.9178 70.3481 42.9114 69.5354 42.9046 68.7228C42.9035 68.4815 42.9022 68.2404 42.9009 67.9921C42.8988 67.7702 42.8967 67.5483 42.8946 67.3198C42.8933 67.1275 42.8918 66.9354 42.8905 66.7373C42.876 66.1866 42.876 66.1866 42.7257 65.6214C42.7001 65.46 42.6744 65.2986 42.6479 65.1325C43.0739 64.7065 43.0739 64.7065 43.5081 64.6782C43.6898 64.6788 43.8716 64.6793 44.0588 64.6799C45.5879 64.5785 46.7745 63.8877 48.0985 63.1758C48.8238 62.7899 48.8238 62.7899 49.4627 62.5769C49.533 62.3661 49.6033 62.1553 49.6757 61.938C50.2864 61.5909 50.8955 61.3211 51.5523 61.0728C52.0534 60.9175 52.0534 60.9175 52.2312 60.4473C52.5123 60.4473 52.7934 60.4473 53.083 60.4473C53.083 60.3068 53.083 60.1662 53.083 60.0214C53.1942 59.9618 53.3054 59.9023 53.4199 59.8408C54.5887 59.2043 55.7052 58.5113 56.8141 57.7753C57.2901 57.4965 57.6555 57.3483 58.1941 57.2529C58.1896 56.9893 58.1854 56.7258 58.1809 56.4543C58.1796 55.8337 58.209 55.2915 58.4071 54.6974C58.126 54.7676 57.8448 54.8379 57.5552 54.9103C57.6591 54.7951 57.7631 54.6799 57.8702 54.5613C58.2735 53.935 58.2714 53.5689 58.2667 52.828C58.2665 52.5807 58.2665 52.3335 58.2665 52.0788C58.2631 51.813 58.2599 51.5472 58.2565 51.2734C58.2556 51.0004 58.2546 50.7273 58.2537 50.4462C58.2514 49.7222 58.245 48.9981 58.238 48.2742C58.2314 47.5346 58.2286 46.7952 58.2252 46.0558C58.2184 44.606 58.2075 43.1564 58.1941 41.7067C58.7621 41.9906 59.3298 42.2747 59.8978 42.5586C59.8978 42.91 59.8978 43.2614 59.8978 43.6234C60.3948 43.7978 60.6574 43.8694 61.1611 43.6888C61.3023 43.6078 61.4435 43.5269 61.5889 43.4437C61.7471 43.3546 61.9052 43.2656 62.0681 43.1738C62.2348 43.0763 62.4014 42.9785 62.573 42.878C62.7461 42.7792 62.9191 42.6804 63.0971 42.5784C64.1779 41.9565 65.2401 41.3104 66.2841 40.6285C67.1764 40.0546 68.0825 39.5037 68.9887 38.9515C69.1622 38.8456 69.336 38.7396 69.5151 38.6305C69.9295 38.3779 70.3442 38.1256 70.7588 37.8734C69.2645 36.8857 67.7624 35.9304 66.1933 35.0649C64.6852 34.229 63.1998 33.3574 61.7212 32.4696C61.5027 32.3403 61.2842 32.2108 61.0591 32.0775C60.8563 31.9548 60.6534 31.8322 60.4443 31.7059C60.262 31.5964 60.0794 31.4872 59.8916 31.3745C59.4719 31.0587 59.4719 31.0587 59.2589 30.4198C60.759 30.134 61.7229 30.0501 63.0522 30.8724Z" fill="#C44B5E"/>
<path d="M42.6479 32.5494C42.85 32.7296 43.0521 32.9096 43.2602 33.0953C43.4797 33.2665 43.6995 33.4377 43.9257 33.6142C44.2449 33.5357 44.2449 33.5357 44.5703 33.4554C45.8736 33.3721 46.6373 34.0487 47.6925 34.7589C48.1453 35.0534 48.5982 35.3473 49.0516 35.6408C49.1696 35.7179 49.2876 35.7948 49.4092 35.8742C50.9542 36.8813 52.5397 37.8219 54.121 38.7705C54.4877 38.9905 54.854 39.2115 55.2201 39.4323C55.5344 39.621 55.5344 39.621 55.8549 39.8135C56.0647 39.9464 56.2742 40.0791 56.4904 40.216C56.6903 40.3089 56.6903 40.3089 56.8944 40.4039C57.3635 40.6556 57.6506 40.8605 57.9811 41.2808C58.2017 42.2068 58.1791 43.1164 58.1657 44.0642C58.1689 44.471 58.1689 44.471 58.1721 44.8858C58.1766 45.605 58.1749 46.3235 58.1698 47.0425C58.1644 48.0568 58.1717 49.071 58.1764 50.0853C58.1781 50.6249 58.1781 51.1646 58.1757 51.7042C58.1749 52.0701 58.1749 52.0701 58.174 52.4432C58.1721 52.7654 58.1721 52.7654 58.1704 53.094C58.1706 53.6594 58.1706 53.6594 58.407 54.2715C58.2665 54.412 58.1259 54.5526 57.9811 54.6974C58.1216 54.6974 58.2622 54.6974 58.407 54.6974C58.4449 56.6341 58.4449 56.6341 58.1941 57.2529C57.4989 57.7208 56.8677 58.0405 56.0911 58.3443C55.6017 58.4879 55.6017 58.4879 55.4256 58.9566C55.0546 59.2311 55.0546 59.2311 54.6003 59.5156C54.3772 59.6581 54.3772 59.6581 54.1495 59.8036C53.7219 60.0214 53.7219 60.0214 53.083 60.0214C53.083 60.162 53.083 60.3025 53.083 60.4473C52.8019 60.4473 52.5208 60.4473 52.2311 60.4473C52.1609 60.6582 52.0906 60.869 52.0182 61.0862C51.5524 61.2992 51.5524 61.2992 50.9534 61.5121C50.0521 61.9123 50.0521 61.9123 49.3112 62.5429C48.6749 63.1434 47.9917 63.5048 47.2134 63.8948C47.063 63.9704 46.9129 64.046 46.7583 64.1239C45.5431 64.7059 44.4312 64.9655 43.0738 64.9195C42.8585 65.5688 42.8585 65.5688 43.0738 66.1973C43.0936 66.5455 43.0998 66.8943 43.0994 67.2429C43.0998 67.5745 43.0998 67.5745 43.1002 67.9127C43.0992 68.2777 43.0992 68.2777 43.0981 68.6502C43.0981 68.9057 43.0981 69.1613 43.0981 69.4245C43.0979 70.1264 43.0968 70.8281 43.0953 71.5298C43.0941 72.2628 43.094 72.9959 43.0936 73.7289C43.093 75.1174 43.0913 76.5059 43.0891 77.8944C43.0868 79.475 43.0855 81.0556 43.0845 82.6362C43.0823 85.8879 43.0785 89.1398 43.0738 92.3915C41.4319 91.9326 41.4319 91.9326 40.7894 91.5646C40.655 91.4883 40.5204 91.4121 40.3818 91.3337C40.1726 91.2117 40.1727 91.2117 39.9593 91.0871C39.8093 91.0013 39.6594 90.9155 39.505 90.8269C38.3987 90.1891 37.3119 89.5218 36.2282 88.8461C35.1376 88.174 34.0262 87.5373 32.9183 86.8945C30.747 85.634 28.5978 84.342 26.4629 83.0212C26.4967 82.906 26.5304 82.791 26.5653 82.6724C26.6939 82.0869 26.7214 81.5369 26.7423 80.9376C26.7555 80.5643 26.7555 80.5643 26.7689 80.1833C26.7772 79.913 26.7855 79.6428 26.794 79.3642C26.7985 79.2241 26.803 79.084 26.8074 78.9394C26.9099 75.6811 26.9222 72.4234 26.9163 69.1638C26.9154 68.69 26.915 68.2164 26.9148 67.7425C26.9128 64.1837 26.8958 60.6269 26.7968 57.0691C26.7825 56.5525 26.7691 56.0359 26.7563 55.5192C26.7521 55.3503 26.7478 55.1812 26.7435 55.0072C26.735 54.6669 26.7265 54.3264 26.7182 53.9861C26.6935 53.0039 26.6656 52.022 26.6349 51.04C26.5996 49.8847 26.5749 48.7296 26.5561 47.5738C26.5474 47.1285 26.5351 46.6835 26.5191 46.2384C26.3985 42.8076 26.3985 42.8076 27.0515 41.72C27.5417 41.2647 28.0028 40.955 28.5925 40.642C28.7409 40.5489 28.8893 40.4558 29.042 40.36C29.4569 40.1064 29.8777 39.88 30.3096 39.657C31.3718 39.0856 32.3732 38.5168 33.3051 37.7429C33.7689 37.399 34.2623 37.1245 34.7654 36.8423C35.5808 36.3734 36.3702 35.8623 37.1642 35.358C37.3422 35.2455 37.5202 35.1331 37.7038 35.0175C38.4702 34.5332 39.235 34.0476 39.9876 33.5418C40.189 33.4077 40.3905 33.2733 40.5981 33.1351C40.7668 33.0199 40.9353 32.9044 41.1088 32.7856C41.6762 32.503 42.022 32.4626 42.6479 32.5494Z" fill="#7BD9DA"/>
<path d="M18.1576 13.3829C19.2262 13.4585 19.9835 13.8465 20.8462 14.4477C20.9689 14.5327 21.0916 14.6178 21.2181 14.7054C22.1127 15.3634 22.564 15.9444 22.906 16.9883C23.0613 17.4455 23.2591 17.7509 23.5481 18.1345C23.9076 18.7069 23.9076 18.7069 23.8995 19.1168C23.5879 19.7887 23.1051 20.007 22.4775 20.3874C22.3559 20.4617 22.2343 20.5362 22.1091 20.6129C21.8523 20.7694 21.5946 20.9247 21.3363 21.0789C20.9399 21.3152 20.5464 21.5555 20.1528 21.7965C18.2255 22.9661 18.2255 22.9661 17.7317 22.9661C17.957 23.2641 18.1834 23.5611 18.4104 23.858C18.5365 24.0235 18.6625 24.1889 18.7922 24.3595C18.9343 24.5322 19.0761 24.7049 19.2224 24.8828C19.3645 25.0661 19.5065 25.2495 19.6528 25.4384C20.5423 26.1524 21.2377 26.103 22.3478 26.0981C22.5448 26.1013 22.7418 26.1045 22.9448 26.1079C23.5719 26.1171 24.1987 26.119 24.8258 26.1205C25.252 26.1256 25.6781 26.1309 26.104 26.1369C27.1465 26.1503 28.1889 26.1571 29.2316 26.1605C28.8112 27.1344 28.1108 27.5339 27.2351 28.0772C27.0749 28.1786 26.9148 28.2801 26.7499 28.3847C25.3625 29.2583 23.9555 30.1001 22.5463 30.9381C21.1018 31.7987 19.6788 32.6899 18.26 33.5922C17.2148 34.2567 16.163 34.9066 15.0946 35.5334C14.7549 35.7225 14.7549 35.7225 14.5373 35.9567C14.5164 36.4766 14.5096 36.9905 14.5117 37.5103C14.5115 37.6749 14.5113 37.8395 14.5111 38.009C14.5107 38.5647 14.5119 39.1201 14.513 39.6757C14.5132 40.0722 14.513 40.469 14.513 40.8655C14.5128 41.9456 14.5141 43.0258 14.5156 44.1059C14.517 45.2333 14.517 46.361 14.5173 47.4884C14.5181 49.6252 14.5198 51.7619 14.5219 53.8985C14.5243 56.3305 14.5253 58.7623 14.5264 61.1943C14.5288 66.1983 14.5324 71.2024 14.5373 76.2064C13.767 75.9055 13.067 75.5688 12.3519 75.1524C12.0245 74.9627 12.0245 74.9627 11.6908 74.7693C11.4574 74.633 11.224 74.4967 10.9834 74.3562C10.6137 74.1411 10.2438 73.926 9.87385 73.7111C9.61809 73.5622 9.36232 73.4136 9.10656 73.2647C8.20484 72.7404 7.29913 72.2234 6.39147 71.7093C6.14122 71.567 5.89101 71.4245 5.64085 71.2823C5.16712 71.0129 4.69273 70.7448 4.21761 70.4779C0.829975 68.5443 0.829975 68.5443 0.268844 66.6231C0.176398 65.8 0.179315 64.9823 0.182786 64.1545C0.181317 63.91 0.179869 63.6653 0.178357 63.4132C0.17446 62.6067 0.17529 61.8002 0.176504 60.9937C0.175525 60.4319 0.174396 59.8699 0.173118 59.3079C0.170989 58.1309 0.17167 56.9538 0.173842 55.7768C0.176291 54.4194 0.173288 53.062 0.167581 51.7046C0.162278 50.3949 0.161767 49.0852 0.16313 47.7752C0.163173 47.2196 0.161874 46.6642 0.159233 46.1086C0.15606 45.3313 0.158339 44.5542 0.161981 43.7769C0.159936 43.5484 0.15787 43.3199 0.155762 43.0843C0.167602 41.8768 0.285327 40.9956 0.905597 39.9478C1.31148 39.2483 1.45514 38.6835 1.54661 37.8734C1.25647 37.3403 0.924296 37.0279 0.481805 36.5956C0.205659 36.0434 0.243267 35.645 0.244652 35.0265C0.244673 34.7878 0.244695 34.5491 0.244716 34.3031C0.245802 34.0446 0.246909 33.7858 0.248038 33.5194C0.248336 33.2553 0.248634 32.991 0.248953 32.7191C0.249933 32.0167 0.25185 31.3144 0.254213 30.6121C0.256386 29.8954 0.257366 29.1788 0.258431 28.4624C0.260794 27.0562 0.264351 25.6501 0.268844 24.2439C0.497053 24.1161 0.725262 23.9881 0.960393 23.8565C1.26589 23.6851 1.57138 23.5136 1.87685 23.3422C2.02654 23.2583 2.17623 23.1744 2.33045 23.0881C5.22036 21.4654 8.02578 19.701 10.8411 17.9532C12.265 17.0701 13.6925 16.1931 15.1238 15.3219C15.2997 15.2148 15.4756 15.1076 15.6568 14.9973C16.0056 14.7848 16.3547 14.5725 16.7039 14.3606C16.862 14.2645 17.02 14.1683 17.1827 14.0692C17.3954 13.94 17.3954 13.94 17.6124 13.8079C17.9404 13.6152 17.9404 13.6152 18.1576 13.3829Z" fill="#AEFEF5"/>
<path d="M28.1667 27.2253C28.5926 27.4383 28.5926 27.4383 29.0718 27.9307C29.67 28.5155 30.1956 28.9625 30.9352 29.355C32.2202 29.2791 32.9741 28.666 33.9839 27.9283C34.5555 27.6513 34.5555 27.6513 35.0596 27.762C36.2338 28.4222 36.2338 28.4222 36.7956 28.7529C38.1699 29.5613 39.4704 30.1987 41.0067 30.6527C41.9044 30.9532 42.6966 31.4156 43.4999 31.9105C43.0173 32.5351 42.54 32.6443 41.7957 32.8343C40.962 33.1105 40.2443 33.6116 39.5068 34.0801C39.2528 34.2386 39.2528 34.2386 38.9934 34.4002C38.5068 34.7043 38.0217 35.0108 37.537 35.3179C37.2075 35.5251 37.2075 35.5251 36.8715 35.7363C36.0782 36.2381 35.2896 36.7468 34.5023 37.2577C34.2539 37.4187 34.0054 37.5795 33.7569 37.7403C33.6327 37.8208 33.5086 37.9011 33.3806 37.9841C32.45 38.5828 31.5029 39.149 30.5493 39.7102C29.2555 40.4739 27.9575 41.2769 26.8889 42.3456C26.8672 42.9791 26.8593 43.6078 26.8606 44.2414C26.8604 44.4386 26.8602 44.6358 26.8597 44.8389C26.8593 45.4942 26.8608 46.1493 26.8623 46.8046C26.8625 47.0314 26.8627 47.2582 26.8629 47.4918C26.8659 50.5122 26.9076 53.5286 26.9954 56.5475C27.107 60.4394 27.1264 64.3306 27.1281 68.224C27.1285 68.6897 27.1293 69.1555 27.1302 69.6212C27.1353 72.7317 27.1204 75.8416 27.0322 78.951C27.0207 79.368 27.0107 79.785 27.0007 80.202C26.9886 80.5763 26.9886 80.5763 26.9762 80.9582C26.9664 81.2872 26.9664 81.2872 26.9564 81.6226C26.8889 82.1693 26.8889 82.1693 26.463 82.8082C25.6665 82.5079 24.9369 82.1461 24.1937 81.7317C23.8436 81.537 23.8436 81.537 23.4866 81.3383C23.2364 81.1984 22.9864 81.0583 22.7362 80.9181C22.4793 80.775 22.2227 80.6319 21.9659 80.4888C20.1457 79.4732 18.3336 78.4437 16.5307 77.3977C16.3605 77.2995 16.1902 77.2011 16.0147 77.0998C15.8671 77.0141 15.7197 76.9285 15.5679 76.8404C15.1471 76.6031 15.1471 76.6031 14.5372 76.4193C14.4846 71.1584 14.4379 65.8976 14.3987 60.6364C14.3804 58.1937 14.36 55.751 14.3349 53.3086C14.3131 51.1798 14.295 49.0513 14.2814 46.9228C14.2739 45.7951 14.2648 44.6677 14.2512 43.5403C14.2382 42.4797 14.2305 41.4192 14.2265 40.3584C14.2241 39.9685 14.2199 39.5788 14.2137 39.1891C14.2056 38.6577 14.2041 38.1268 14.2043 37.5953C14.2003 37.4404 14.1964 37.2854 14.1924 37.1257C14.2 36.3281 14.259 36.0219 14.8325 35.4484C15.0163 35.3351 15.1999 35.2216 15.389 35.1049C15.5553 34.9991 15.7214 34.8934 15.8927 34.7844C16.1503 34.6355 16.1503 34.6355 16.4131 34.4835C16.7021 34.315 16.7021 34.315 16.9969 34.1432C17.1998 34.0256 17.4028 33.9083 17.6119 33.7871C19.2012 32.8582 20.7656 31.9084 22.3068 30.9015C23.378 30.2057 24.4731 29.5485 25.5656 28.8873C26.447 28.3528 27.3138 27.8044 28.1667 27.2253Z" fill="#F9798A"/>
<path d="M42.6481 32.5494C42.8502 32.7296 43.0523 32.9096 43.2603 33.0953C43.4799 33.2665 43.6997 33.4377 43.9258 33.6142C44.245 33.5357 44.2451 33.5357 44.5705 33.4554C45.8738 33.3721 46.6375 34.0485 47.6927 34.7589C48.1441 35.0528 48.5963 35.3463 49.0486 35.6391C49.1664 35.716 49.2841 35.7931 49.4055 35.8723C50.3146 36.4647 51.2366 37.0331 52.1663 37.5924C52.3699 37.7146 52.3699 37.7146 52.5774 37.8396C53.113 38.1612 53.649 38.4823 54.1854 38.8026C54.5585 39.0256 54.931 39.2496 55.3035 39.4741C55.5173 39.6021 55.7313 39.7301 55.9517 39.8619C56.4104 40.1634 56.7646 40.4486 57.1294 40.8549C55.7809 41.8164 54.4156 42.732 53.0033 43.5968C52.8174 43.7112 52.6317 43.8257 52.4402 43.9435C44.9242 48.5628 44.9242 48.5628 44.0038 49.0024C43.4511 49.3272 43.4511 49.3272 43.3638 49.9111C43.3623 50.1253 43.361 50.3396 43.3596 50.5602C43.3532 50.9246 43.3532 50.9246 43.3468 51.2964C43.3476 51.5588 43.3485 51.8209 43.3493 52.0912C43.3444 52.4939 43.3444 52.4939 43.3395 52.9049C43.3321 53.6181 43.3289 54.3311 43.328 55.0443C43.3261 55.7724 43.3182 56.5003 43.3106 57.2284C43.2972 58.6563 43.2899 60.0842 43.2869 61.5121C41.2815 61.5426 40.0608 60.7003 38.3848 59.6587C36.9726 58.785 35.5464 57.937 34.1164 57.0932C33.741 56.8711 33.3659 56.649 32.9907 56.4266C32.1521 55.93 31.313 55.4336 30.4735 54.9385C29.8725 54.5841 29.2724 54.2282 28.6725 53.8722C28.4936 53.7672 28.3145 53.662 28.1301 53.5538C27.9682 53.4573 27.8062 53.3608 27.6394 53.2616C27.4986 53.1783 27.3579 53.0953 27.2128 53.0097C26.8889 52.7807 26.8889 52.7807 26.676 52.3548C26.6472 52.0422 26.631 51.7285 26.6215 51.4146C26.6153 51.2197 26.6091 51.0249 26.6027 50.8243C26.5818 49.9294 26.5661 49.0348 26.5546 48.1399C26.5469 47.6688 26.5352 47.198 26.5197 46.7271C26.3936 42.844 26.3936 42.844 27.0519 41.6825C27.544 41.2297 27.9948 40.9382 28.5926 40.642C28.7411 40.5495 28.8895 40.4573 29.0422 40.3621C29.4566 40.1066 29.8772 39.8802 30.3097 39.657C31.372 39.0856 32.3733 38.5168 33.3052 37.7429C33.7693 37.399 34.2625 37.1245 34.7655 36.8423C35.5812 36.3734 36.3706 35.8623 37.1643 35.358C37.3423 35.2455 37.5204 35.1331 37.7039 35.0174C38.4704 34.5332 39.2351 34.0476 39.9877 33.5418C40.1892 33.4077 40.3907 33.2733 40.5983 33.1351C40.767 33.0199 40.9354 32.9044 41.1092 32.7856C41.6763 32.503 42.0222 32.4626 42.6481 32.5494Z" fill="#9FFDF0"/>
<path d="M85.6664 40.003C86.1296 40.4662 86.1748 40.6357 86.3053 41.2542C86.4058 41.7265 86.4998 42.0992 86.7353 42.5228C86.9751 43.0528 86.9989 43.4172 87.0013 43.9971C87.003 44.2001 87.0049 44.403 87.0066 44.6121C87.0066 44.8334 87.0064 45.0547 87.0062 45.2828C87.0074 45.517 87.0089 45.7511 87.0104 45.9923C87.0145 46.7677 87.0153 47.5431 87.0158 48.3185C87.0172 48.8575 87.0185 49.3965 87.02 49.9355C87.0226 51.0661 87.0234 52.197 87.0232 53.3276C87.023 54.6317 87.0275 55.9357 87.0341 57.2397C87.0405 58.497 87.0419 59.7541 87.0417 61.0112C87.0422 61.5447 87.0441 62.0784 87.0473 62.6118C87.0515 63.3591 87.0503 64.1062 87.0477 64.8535C87.05 65.073 87.0524 65.2926 87.0549 65.5187C87.0434 66.8476 86.856 67.8577 86.0924 68.9657C85.6223 69.4134 85.6223 69.4134 85.1149 69.7377C84.9272 69.8591 84.7394 69.9805 84.546 70.1055C83.6118 70.6677 82.6692 71.2093 81.7134 71.7342C79.4052 73.0192 77.139 74.3677 74.8787 75.7347C72.3293 77.2712 72.3293 77.2712 71.824 77.2712C71.7792 73.3783 71.7454 69.4854 71.7247 65.5922C71.7147 63.7844 71.7013 61.9768 71.6794 60.1692C71.6602 58.5937 71.6478 57.018 71.6436 55.4423C71.6412 54.6079 71.6353 53.7739 71.6214 52.9398C71.6082 52.1542 71.6044 51.369 71.6072 50.5831C71.6065 50.1581 71.5961 49.7332 71.5854 49.3084C71.6044 47.4788 71.6044 47.4788 72.2435 46.7944C72.7308 46.4645 73.2054 46.2081 73.7406 45.9659C73.9446 45.8446 74.1489 45.723 74.3591 45.5979C74.5369 45.5 74.7147 45.402 74.8978 45.3013C75.1036 45.1871 75.3095 45.073 75.5214 44.9552C75.7375 44.8364 75.9537 44.7176 76.1765 44.5949C77.6648 43.7729 79.1454 42.943 80.6061 42.0728C80.8584 41.9233 81.1108 41.774 81.3631 41.6247C81.8474 41.3383 82.3287 41.0482 82.8093 40.7558C83.0285 40.6264 83.2478 40.4967 83.4736 40.3631C83.7623 40.1894 83.7623 40.1894 84.0571 40.0118C84.7058 39.7477 85.0107 39.7762 85.6664 40.003Z" fill="#005E69"/>
<path d="M1.97253 37.8734C3.66025 38.7559 5.28951 39.7266 6.91945 40.7105C8.24572 41.511 9.57763 42.3009 10.9178 43.0778C11.1836 43.233 11.4474 43.3914 11.7089 43.5535C12.2028 43.8514 12.2028 43.8514 12.7829 44.1078C14.4067 44.9416 14.4067 44.9416 14.7498 45.9559C14.8261 46.7528 14.8275 47.5323 14.8033 48.3309C14.8024 48.6354 14.8028 48.9397 14.8041 49.2443C14.805 50.0678 14.7911 50.8904 14.7747 51.7135C14.76 52.5752 14.7588 53.4366 14.756 54.298C14.7487 55.928 14.7294 57.5576 14.7059 59.1876C14.6797 61.0436 14.6668 62.8997 14.655 64.7559C14.6306 68.573 14.5895 72.3897 14.5373 76.2064C13.767 75.9055 13.067 75.5688 12.3519 75.1524C12.0245 74.9627 12.0245 74.9627 11.6908 74.7693C11.4574 74.633 11.224 74.4967 10.9834 74.3562C10.6137 74.1411 10.2438 73.926 9.87385 73.7111C9.61809 73.5623 9.36232 73.4136 9.10656 73.2648C8.20484 72.7405 7.29914 72.2234 6.39147 71.7093C6.14122 71.567 5.89102 71.4246 5.64085 71.2823C5.16712 71.0129 4.69273 70.7448 4.21761 70.478C0.829975 68.5443 0.829975 68.5443 0.268844 66.6231C0.176398 65.8001 0.179315 64.9823 0.182786 64.1545C0.181317 63.91 0.179869 63.6653 0.178357 63.4132C0.17446 62.6067 0.17529 61.8002 0.176504 60.9937C0.175525 60.4319 0.174396 59.8699 0.173118 59.3079C0.170989 58.1309 0.17167 56.9539 0.173842 55.7768C0.176291 54.4194 0.173288 53.062 0.167581 51.7046C0.162278 50.3949 0.161767 49.0852 0.16313 47.7752C0.163173 47.2196 0.161874 46.6642 0.159233 46.1086C0.15606 45.3313 0.158339 44.5542 0.161981 43.7769C0.159936 43.5484 0.15787 43.3199 0.155762 43.0844C0.169476 41.6865 0.411635 40.772 1.12069 39.5771C1.24463 39.2994 1.36464 39.02 1.48006 38.7385C1.75957 38.0864 1.75957 38.0864 1.97253 37.8734Z" fill="#7AD9DA"/>
<path d="M58.833 54.2714C58.9578 58.1588 59.0515 62.0456 59.1088 65.9344C59.1362 67.7406 59.1735 69.5454 59.2346 71.3507C59.2879 72.9257 59.3222 74.4997 59.3339 76.0756C59.3409 76.9094 59.3569 77.7408 59.3958 78.5737C59.6233 83.6166 59.6233 83.6166 58.3146 85.0992C57.0431 86.1221 55.6482 86.807 54.1481 87.4309C53.2736 87.8077 52.4812 88.2845 51.6756 88.7877C51.4166 88.9402 51.1574 89.092 50.8976 89.2428C50.7754 89.3142 50.6532 89.3855 50.5273 89.459C50.3429 89.5665 50.3429 89.5665 50.1548 89.6762C49.7611 89.9064 49.3673 90.1366 48.9735 90.3668C48.6279 90.5689 48.282 90.7706 47.9364 90.9725C47.5437 91.2031 47.1531 91.4376 46.7655 91.6768C45.5547 92.3802 44.427 92.4098 43.0739 92.3914C43.0726 92.1904 43.0726 92.1904 43.0711 91.9853C43.0492 88.7238 43.026 85.4623 43.0017 82.2006C42.9898 80.6234 42.9785 79.0462 42.968 77.4688C42.9589 76.0942 42.9489 74.7193 42.9382 73.3444C42.9327 72.6167 42.9274 71.8888 42.9229 71.1609C42.9178 70.3481 42.9114 69.5354 42.9046 68.7227C42.9035 68.4815 42.9022 68.2404 42.9009 67.9921C42.8988 67.7702 42.8967 67.5483 42.8946 67.3198C42.8933 67.1275 42.8918 66.9354 42.8905 66.7373C42.876 66.1866 42.876 66.1866 42.7257 65.6214C42.7001 65.46 42.6744 65.2985 42.6479 65.1324C43.0739 64.7065 43.0739 64.7065 43.5081 64.6782C43.6898 64.6788 43.8716 64.6793 44.0588 64.6799C45.5879 64.5785 46.7745 63.8877 48.0985 63.1758C48.8238 62.7899 48.8238 62.7899 49.4627 62.5769C49.533 62.3661 49.6033 62.1552 49.6757 61.938C50.2864 61.5909 50.8955 61.3211 51.5523 61.073C52.0534 60.9175 52.0534 60.9175 52.2312 60.4473C52.5123 60.4473 52.7934 60.4473 53.083 60.4473C53.083 60.3067 53.083 60.1662 53.083 60.0214C53.1942 59.9617 53.3054 59.9023 53.4199 59.8408C54.5887 59.2042 55.7052 58.5113 56.8141 57.7753C57.2901 57.4965 57.6555 57.3483 58.1941 57.2529C58.1896 56.9894 58.1854 56.7258 58.1809 56.4543C58.1796 55.8337 58.209 55.2915 58.4071 54.6973C58.126 54.7676 57.8448 54.8379 57.5552 54.9103C58.1142 54.2714 58.1142 54.2714 58.833 54.2714Z" fill="#00606B"/>
<path d="M69.0556 14.8736C69.0556 15.2953 69.0556 15.7169 69.0556 16.1514C69.1817 16.0849 69.3075 16.0185 69.4375 15.9501C69.6057 15.8671 69.7739 15.7842 69.9475 15.6988C70.113 15.6149 70.2784 15.5308 70.449 15.4443C71.1565 15.2486 71.3899 15.3821 72.0371 15.7254C72.6008 16.0621 73.1504 16.4188 73.7007 16.777C75.6065 17.9986 77.5436 19.1635 79.4907 20.3173C79.6293 20.3997 79.768 20.4819 79.9109 20.5667C80.1867 20.7305 80.4627 20.8934 80.7391 21.0561C81.0172 21.2215 81.2938 21.3902 81.5684 21.5619C82.3608 22.0489 83.1232 22.4224 83.9997 22.7372C85.1591 23.194 86.1879 23.645 86.9443 24.6698C87.603 26.6712 87.409 28.8739 87.3091 30.9507C87.2842 31.5738 87.28 32.1963 87.2763 32.8198C87.2719 33.4242 87.2591 34.0284 87.2433 34.6325C87.2325 35.0576 87.2246 35.4827 87.2169 35.9078C87.1405 37.4509 86.949 38.3856 85.835 39.4908C85.3925 39.8379 84.9397 40.0686 84.409 40.2551C83.3123 40.6823 82.2988 41.3317 81.2743 41.9064C81.0191 42.0489 80.764 42.1914 80.5089 42.3336C76.7782 44.3949 76.7782 44.3949 73.1136 46.5682C72.676 46.8177 72.676 46.8177 72.25 46.8177C72.2722 46.4121 72.2722 46.4121 72.2948 45.9981C72.7603 41.2339 72.7603 41.2339 71.6333 36.7666C70.6988 35.8756 69.6264 35.3943 68.3831 35.0744C68.2536 35.0142 68.1241 34.9541 67.9908 34.8919C67.8679 34.4745 67.8679 34.4745 67.7779 34.0401C67.2932 33.6976 66.83 33.408 66.3137 33.1218C66.0226 32.9542 65.7317 32.7864 65.441 32.6184C65.2964 32.5355 65.1516 32.4529 65.0025 32.3675C64.2131 31.9079 63.4498 31.4077 62.6825 30.9121C62.2517 30.6293 62.2517 30.6293 61.8149 30.4197C61.8149 30.2792 61.8149 30.1386 61.8149 29.9938C62.0652 29.9887 62.3154 29.9836 62.5733 29.9783C63.5067 29.9574 64.4395 29.927 65.3725 29.8937C65.7754 29.8807 66.1785 29.8701 66.5814 29.8624C67.1628 29.8505 67.7434 29.8294 68.3243 29.8066C68.503 29.8049 68.6817 29.8034 68.8657 29.8017C69.8868 29.7513 70.432 29.5788 71.1718 28.8534C71.7462 28.2113 72.2279 27.5341 72.676 26.7994C72.5209 26.7408 72.3657 26.6825 72.2059 26.622C71.6401 26.3856 71.1384 26.1173 70.6128 25.8028C70.429 25.6927 70.245 25.5826 70.0555 25.4693C69.8661 25.3547 69.6766 25.2403 69.4815 25.1223C69.2922 25.0095 69.1027 24.8966 68.9076 24.7805C67.9846 24.2254 67.1053 23.6719 66.2871 22.9661C66.597 22.0885 67.0425 21.3908 67.5649 20.6235C68.0698 19.8407 68.1003 19.2044 67.9908 18.281C67.6179 17.581 67.2201 16.9374 66.5001 16.5773C66.7599 15.7976 66.9528 15.7418 67.6582 15.366C67.8292 15.2731 68.0002 15.18 68.1763 15.084C68.6297 14.8736 68.6297 14.8736 69.0556 14.8736Z" fill="#4FCEBB"/>
<path d="M35.5196 2.96275C38.7515 4.17784 40.9078 8.90745 42.5518 11.6698C43.0257 12.4563 43.4448 13.115 44.0996 13.7656C44.6159 14.2862 44.7159 14.5799 44.7777 15.2995C44.9068 15.3178 45.0358 15.3364 45.1687 15.3553C46.9424 15.6526 48.5929 16.1692 49.8089 17.5622C50.5008 18.5972 50.5061 19.6331 50.3147 20.8365C50.0084 21.5819 50.0084 21.5819 49.6758 22.1143C49.4413 22.7297 49.4413 22.7297 49.4228 23.3122C49.0346 24.9249 47.8699 26.3358 46.4814 27.2253C44.2704 28.3329 41.9394 27.9439 39.6666 27.2253C38.0524 26.6163 36.9361 25.3894 36.1994 23.8537C36.0269 23.3333 36.0133 22.8733 35.9799 22.3272C35.9115 21.7674 35.9115 21.7674 35.6204 21.2624C35.0119 20.8463 34.4133 20.5337 33.7506 20.2176C30.2731 18.5546 27.6797 15.5621 25.2769 12.62C24.7434 12.091 24.2811 11.8994 23.5348 11.8655C23.3766 11.8743 23.2186 11.8831 23.0557 11.8921C22.3348 13.0517 22.2733 14.1659 22.2038 15.5125C21.4116 15.136 20.6637 14.6892 19.9145 14.2347C19.7863 14.1589 19.6581 14.0831 19.5261 14.0051C19.2043 13.8096 18.8929 13.5973 18.5835 13.3829C18.5835 13.2423 18.5835 13.1018 18.5835 12.9569C19.0901 12.6192 19.0901 12.6192 19.768 12.2382C20.0012 12.1042 20.2342 11.9703 20.4744 11.8322C20.8477 11.6267 21.2244 11.4265 21.6107 11.2466C22.6385 10.7608 22.9017 10.1746 23.2895 9.1644C23.6009 8.40835 24.0219 7.78872 24.7594 7.41996C24.9072 7.42984 25.0547 7.43972 25.207 7.4499C25.8565 7.47805 26.2797 7.44672 26.889 7.207C27.4133 6.50801 27.77 5.845 28.1493 5.05741C28.5927 4.4385 28.5927 4.4385 29.3338 4.23218C29.9548 4.22667 30.383 4.24475 30.9619 4.4385C31.671 4.67391 32.1325 4.6593 32.8519 4.4385C33.4092 4.06757 33.9241 3.66062 34.4491 3.24558C34.9815 2.94777 34.9815 2.94777 35.5196 2.96275Z" fill="#F06477"/>
<path d="M57.383 40.9171C57.7683 41.0678 57.7683 41.0678 57.9812 41.2808C58.0064 41.6628 58.0168 42.0458 58.0215 42.4287C58.027 42.7964 58.027 42.7964 58.0323 43.1717C58.0366 43.5723 58.0366 43.5723 58.0411 43.9811C58.047 44.3971 58.053 44.8132 58.0592 45.2293C58.0696 45.9627 58.0785 46.6964 58.0877 47.43C58.0986 48.3032 58.1096 49.1761 58.1224 50.0493C58.1303 50.5936 58.1371 51.1379 58.1431 51.6824C58.1484 52.0521 58.1484 52.0522 58.1539 52.4295C58.1565 52.647 58.1593 52.8642 58.162 53.0882C58.172 53.6583 58.172 53.6583 58.4071 54.2714C58.2666 54.412 58.126 54.5525 57.9812 54.6973C58.1218 54.6973 58.2623 54.6973 58.4071 54.6973C58.4451 56.6338 58.4451 56.6338 58.1942 57.2529C57.4991 57.7207 56.8679 58.0404 56.0912 58.3443C55.6018 58.4878 55.6018 58.4878 55.4257 58.9566C55.0547 59.2311 55.0547 59.2311 54.6005 59.5156C54.3773 59.6581 54.3773 59.6581 54.1496 59.8035C53.722 60.0214 53.722 60.0214 53.0831 60.0214C53.0831 60.1619 53.0831 60.3025 53.0831 60.4473C52.802 60.4473 52.5209 60.4473 52.2313 60.4473C52.1259 60.7635 52.1259 60.7635 52.0183 61.0862C51.5524 61.2991 51.5524 61.2991 50.9535 61.5121C50.0523 61.9122 50.0523 61.9122 49.3114 62.5428C48.675 63.1434 47.9916 63.5046 47.2135 63.8945C46.9875 64.0086 46.9875 64.0086 46.7569 64.1251C45.6765 64.6441 44.741 64.8907 43.529 64.8705C42.9594 64.9318 42.7888 65.1222 42.4351 65.5584C42.3795 65.378 42.3795 65.378 42.3228 65.194C41.8509 64.4605 41.143 64.1351 40.3987 63.7216C40.068 63.5329 39.7375 63.344 39.407 63.1551C39.2377 63.0593 39.0684 62.9634 38.8937 62.8646C38.1117 62.4191 37.3391 61.958 36.5654 61.4987C35.3722 60.7938 34.1694 60.1091 32.9583 59.4357C31.912 58.8533 30.8951 58.257 29.9211 57.5574C29.4255 57.2241 29.4255 57.2241 28.7615 56.9483C28.0302 56.6061 27.4707 56.3246 26.8889 55.7621C26.6694 54.7367 26.7343 53.8127 26.8889 52.7807C27.7484 53.0972 28.5078 53.508 29.2964 53.9728C29.4234 54.0474 29.5503 54.1219 29.681 54.1988C30.0908 54.4397 30.4997 54.6816 30.9086 54.9235C31.1909 55.09 31.4731 55.2564 31.7555 55.4227C32.5475 55.8897 33.3387 56.3582 34.1296 56.827C34.31 56.9336 34.4903 57.0403 34.676 57.1504C35.8705 57.8581 37.0591 58.5747 38.2333 59.3158C38.388 59.4134 38.5424 59.5109 38.7016 59.6112C38.9983 59.7988 39.2941 59.9871 39.5895 60.1764C40.8208 60.9571 41.8273 61.3151 43.2869 61.5121C43.2756 61.3671 43.2641 61.222 43.2526 61.0728C43.1491 59.6923 43.0718 58.313 43.0222 56.9296C42.9956 56.2175 42.9572 55.5113 42.9012 54.8006C42.5516 50.2313 42.5516 50.2313 43.7699 48.8096C44.9808 47.8117 46.3233 47.1249 47.7478 46.4826C48.7376 46.0202 49.6532 45.4489 50.5808 44.8745C50.9233 44.6707 51.2659 44.4673 51.609 44.2648C52.3654 43.8091 53.104 43.3325 53.8385 42.8422C54.0327 42.7127 54.2271 42.5835 54.4273 42.4502C54.8011 42.1993 55.1735 41.9461 55.5441 41.6903C55.7115 41.5781 55.8789 41.4656 56.0514 41.3498C56.1981 41.2491 56.345 41.1481 56.4962 41.0442C56.9164 40.8549 56.9164 40.8549 57.383 40.9171Z" fill="#4FCFBC"/>
<path d="M23.7076 11.6791C25.703 12.0084 27.3324 14.4789 28.5218 15.9524C29.9722 17.7253 31.7843 19.0403 33.8149 20.0692C35.7147 21.0373 35.7147 21.0373 36.1134 21.7956C36.2043 22.3319 36.2318 22.8494 36.2591 23.392C36.7829 24.9781 37.8526 26.1767 39.307 26.9723C41.6125 27.7149 43.9363 28.1023 46.2075 27.0656C47.7641 26.2142 48.6687 25.0814 49.2497 23.392C49.2865 22.8157 49.2865 22.8157 49.2497 22.3272C49.6713 22.1164 49.6713 22.1164 50.1015 21.9013C50.0312 22.3932 49.961 22.8851 49.8886 23.392C50.0907 23.4578 50.2925 23.5238 50.5008 23.5918C51.1663 23.8179 51.1663 23.8179 51.5922 24.0309C51.6625 23.82 51.7328 23.6092 51.8052 23.392C52.0752 24.368 52.0742 24.9375 51.6189 25.8542C50.6803 27.3812 49.0912 28.0541 47.5626 28.88C46.9244 29.2578 46.399 29.7178 45.8423 30.2067C44.3667 30.9447 41.6764 30.5988 40.1247 30.2193C39.5088 29.9708 38.9549 29.7005 38.3887 29.3549C38.2545 29.2731 38.1201 29.1913 37.9819 29.107C37.0873 28.4607 36.676 27.5748 36.2591 26.5864C36.0636 26.7302 35.8681 26.8741 35.6668 27.0223C32.1131 29.6156 32.1131 29.6156 31.1795 29.5329C30.5379 29.2833 30.0474 28.9021 29.4975 28.4899C29.2878 28.3335 29.078 28.1774 28.8621 28.0164C28.7028 27.8959 28.5435 27.7754 28.3795 27.6512C28.6606 27.1593 28.9417 26.6673 29.2313 26.1605C28.8333 26.1688 28.8333 26.1688 28.4272 26.1773C27.441 26.1967 26.4548 26.2088 25.4683 26.2191C25.0418 26.2244 24.6152 26.2316 24.1889 26.2408C23.5749 26.2538 22.9613 26.2597 22.3476 26.2644C22.0622 26.2727 22.0622 26.2727 21.7713 26.281C20.8141 26.2817 20.4218 26.2689 19.6526 25.6504C19.5105 25.4673 19.3685 25.2844 19.2222 25.0957C19.0803 24.9434 18.9383 24.7909 18.792 24.634C18.6661 24.4922 18.5401 24.3501 18.4104 24.2038C18.2172 23.9885 18.2172 23.9885 18.02 23.7689C17.7314 23.392 17.7314 23.392 17.7314 22.9661C18.1412 22.6771 18.1412 22.6771 18.7115 22.3489C18.917 22.2292 19.1227 22.1095 19.3344 21.986C19.6611 21.7993 19.6611 21.7993 19.9942 21.6084C20.4186 21.3631 20.8428 21.1174 21.267 20.8714C21.4666 20.7555 21.6663 20.6399 21.8718 20.5206C22.4964 20.1503 23.0976 19.7591 23.6944 19.3457C23.5615 18.6711 23.3276 18.2 22.949 17.6288C22.2937 16.6364 22.1655 15.8913 22.1504 14.7006C22.1448 14.4444 22.1393 14.1882 22.1338 13.9244C22.2356 12.8257 22.4871 11.6791 23.7076 11.6791Z" fill="#F87183"/>
<path d="M69.0556 14.8736C69.0556 15.2953 69.0556 15.7169 69.0556 16.1514C69.1817 16.0849 69.3075 16.0185 69.4375 15.9501C69.6057 15.8671 69.7739 15.7842 69.9475 15.6988C70.113 15.6149 70.2784 15.5308 70.449 15.4443C71.1565 15.2486 71.3899 15.3821 72.0371 15.7254C72.6008 16.0621 73.1504 16.4188 73.7007 16.777C75.6065 17.9986 77.5436 19.1635 79.4907 20.3173C79.6293 20.3997 79.768 20.4819 79.9109 20.5667C80.1867 20.7305 80.4627 20.8934 80.7391 21.0561C81.0172 21.2215 81.2936 21.3902 81.5681 21.5621C82.3618 22.0506 83.1234 22.4216 84.0031 22.7333C85.1661 23.1872 86.1975 23.6327 86.9443 24.6698C87.5698 26.7059 87.3443 28.9488 87.2223 31.0501C87.1805 31.8434 87.1622 32.6373 87.142 33.4317C87.0987 34.9846 87.03 36.5349 86.9443 38.0863C86.8038 38.0863 86.6632 38.0863 86.5184 38.0863C86.5184 33.7292 86.5184 29.372 86.5184 24.8828C85.1823 25.4554 83.9471 26.0881 82.6851 26.7994C82.5184 26.8933 82.3514 26.9872 82.1796 27.0839C80.2173 28.1905 78.2638 29.297 76.3762 30.5271C75.6708 30.9713 74.9391 31.3591 74.2042 31.7516C73.1726 32.3187 72.1623 32.9216 71.1505 33.5232C71.0021 33.6116 70.8534 33.6998 70.7003 33.7905C70.5018 33.9089 70.5018 33.9089 70.2993 34.0294C69.9075 34.253 69.9075 34.253 69.4585 34.4549C68.9864 34.6773 68.9864 34.6773 68.6297 35.3179C68.3134 35.107 68.3134 35.107 67.9908 34.8919C67.9727 34.7616 67.9546 34.6311 67.9359 34.4969C67.6752 33.7436 66.9775 33.49 66.3137 33.1218C66.0226 32.9542 65.7317 32.7864 65.441 32.6184C65.2964 32.5355 65.1516 32.4529 65.0025 32.3675C64.2131 31.9079 63.4498 31.4077 62.6825 30.9121C62.2517 30.6293 62.2517 30.6293 61.8149 30.4198C61.8149 30.2792 61.8149 30.1386 61.8149 29.9938C62.0652 29.9887 62.3154 29.9836 62.5733 29.9783C63.5067 29.9574 64.4395 29.927 65.3725 29.8937C65.7754 29.8807 66.1785 29.8701 66.5814 29.8624C67.1628 29.8505 67.7434 29.8294 68.3243 29.8066C68.503 29.8049 68.6817 29.8034 68.8657 29.8017C69.8868 29.7513 70.432 29.5788 71.1718 28.8534C71.7462 28.2113 72.2279 27.5341 72.676 26.7994C72.5209 26.7408 72.3657 26.6825 72.2059 26.622C71.6401 26.3856 71.1384 26.1173 70.6128 25.8028C70.429 25.6927 70.245 25.5826 70.0555 25.4693C69.8661 25.3547 69.6766 25.2403 69.4815 25.1223C69.2922 25.0095 69.1027 24.8966 68.9076 24.7805C67.9846 24.2254 67.1053 23.6719 66.2871 22.9661C66.597 22.0885 67.0425 21.3908 67.5649 20.6235C68.0698 19.8407 68.1003 19.2044 67.9908 18.281C67.6179 17.581 67.2201 16.9374 66.5001 16.5773C66.7599 15.7976 66.9528 15.7418 67.6582 15.366C67.8292 15.2731 68.0002 15.18 68.1763 15.084C68.6297 14.8736 68.6297 14.8736 69.0556 14.8736Z" fill="#59D7C4"/>
<path d="M59.6717 7.00737C59.8389 7.01602 60.0063 7.02466 60.1786 7.03359C61.8071 7.14667 62.8504 7.68026 63.9441 8.91071C65.2219 10.4889 65.2219 10.4889 65.2219 11.0403C65.604 11.014 65.604 11.014 65.9939 10.9871C66.9537 10.9888 67.4608 11.2677 68.2034 11.8922C68.7488 12.468 69.0241 12.8396 69.2281 13.6093C69.5944 14.5152 70.1057 14.6696 70.9719 15.0866C70.9719 15.2271 70.9719 15.3677 70.9719 15.5125C70.3394 15.7233 69.7069 15.9342 69.0552 16.1514C69.0552 15.7297 69.0552 15.3081 69.0552 14.8736C68.6685 15.0761 68.2826 15.2806 67.8971 15.4859C67.6823 15.5996 67.4674 15.7131 67.2459 15.8302C66.6911 16.0996 66.6911 16.0996 66.4997 16.5773C66.6226 16.6212 66.7456 16.6653 66.8724 16.7104C67.5551 17.1276 67.8311 17.5763 68.2034 18.281C68.5015 19.6361 67.8456 20.6018 67.1443 21.7184C65.8352 23.5648 64.0059 24.4126 61.9992 25.3381C61.661 25.4942 61.3252 25.6558 60.9902 25.8188C59.7167 26.3952 58.5183 26.6327 57.1294 26.3735C56.292 26.0275 55.5452 25.5892 54.7868 25.0957C54.6446 25.0052 54.5025 24.9145 54.356 24.8212C54.0698 24.6345 53.7887 24.4403 53.5091 24.2439C54.1422 23.8761 54.7613 23.7151 55.4745 23.5643C58.421 22.9316 61.2887 21.6151 63.4117 19.4391C64.0232 18.0376 63.9908 16.6129 63.4433 15.1905C63.1345 14.5723 62.8112 13.9741 62.4534 13.3829C60.4064 13.3829 58.3384 15.4665 56.8706 16.747C52.5622 20.5037 52.5622 20.5037 50.3146 21.0495C50.3117 20.8823 50.3087 20.7151 50.3055 20.5429C50.2584 18.9942 50.2584 18.9942 49.5427 17.6687C49.0369 17.0032 49.0369 17.0032 49.0103 16.4044C50.2878 12.7847 53.0955 10.5038 56.1078 8.28846C56.7075 7.86435 56.7075 7.86435 57.1935 7.36259C58.0289 6.82697 58.7074 6.92474 59.6717 7.00737Z" fill="#CC4F62"/>
<path d="M28.7669 41.5312C29.5097 41.7235 30.0492 41.9951 30.7093 42.3856C30.8343 42.4589 30.9591 42.5324 31.0878 42.608C31.5356 42.8727 31.9811 43.1412 32.4264 43.4104C32.606 43.5186 32.7857 43.6268 32.9706 43.7381C34.8521 44.8728 36.7287 46.0155 38.5889 47.1847C38.7904 47.3108 38.9918 47.4371 39.1995 47.5672C39.5815 47.807 39.9627 48.0478 40.3431 48.29C40.6018 48.4522 40.6018 48.4522 40.8659 48.6179C41.0154 48.7127 41.1649 48.8075 41.3188 48.9052C41.909 49.2376 41.909 49.2376 43.0745 49.5863C43.0745 53.5218 43.0745 57.4573 43.0745 61.5121C41.18 61.5121 39.9689 60.644 38.3868 59.6604C36.9608 58.7777 35.521 57.9194 34.0769 57.0665C33.8454 56.9296 33.6139 56.7926 33.3756 56.6515C33.1403 56.5122 32.905 56.3731 32.6626 56.2296C32.4245 56.0818 32.1862 55.9338 31.9409 55.7815C31.3665 55.4386 30.7939 55.1914 30.1684 54.9559C29.1394 54.5325 28.21 54.1155 27.5283 53.2066C26.9191 51.3745 27.1614 49.3529 27.2621 47.4566C27.2747 46.9262 27.286 46.3957 27.2954 45.8652C27.3205 44.8998 27.3471 43.9349 27.3982 42.9704C27.4078 42.7773 27.4174 42.5841 27.4272 42.385C27.5973 41.6024 28.0169 41.4844 28.7669 41.5312Z" fill="#C8FDF0"/>
<path d="M0.268881 24.2438C1.15261 24.6097 1.98021 24.9834 2.79696 25.485C2.98686 25.601 3.17674 25.7171 3.37236 25.8366C3.57367 25.9609 3.77499 26.0855 3.98239 26.2137C4.19565 26.3445 4.40891 26.4752 4.62862 26.61C6.38947 27.6921 8.14128 28.7888 9.89108 29.889C11.4776 30.8844 13.0793 31.8521 14.6989 32.7932C15.5265 33.2808 16.2412 33.733 16.8798 34.466C16.7286 34.5558 16.5774 34.6455 16.4215 34.7379C16.1279 34.913 16.1279 34.913 15.8284 35.0916C15.6331 35.2077 15.4381 35.3238 15.2368 35.4435C14.7749 35.7026 14.7749 35.7026 14.5372 35.9567C14.5174 36.251 14.5123 36.5462 14.5132 36.8411C14.5132 37.0285 14.5132 37.2161 14.5132 37.4095C14.5142 37.6133 14.5153 37.8171 14.5164 38.0273C14.5168 38.235 14.517 38.4426 14.5174 38.6566C14.5185 39.3228 14.5213 39.9889 14.524 40.655C14.5251 41.1057 14.526 41.5561 14.5268 42.0065C14.5292 43.1132 14.5328 44.2202 14.5372 45.327C13.8847 45.0782 13.2867 44.8146 12.6947 44.4443C12.5493 44.3542 12.4038 44.2641 12.2539 44.1712C12.0982 44.0739 11.9425 43.9766 11.7822 43.8763C10.2753 42.9437 8.7577 42.0323 7.23004 41.1342C5.71189 40.2415 4.20253 39.3379 2.70963 38.4032C2.20361 38.0855 2.20361 38.0855 1.71719 37.8625C1.02964 37.5 0.61079 36.8535 0.268881 36.1697C0.249544 35.7891 0.243858 35.4077 0.24471 35.0265C0.244732 34.7877 0.244753 34.549 0.244753 34.303C0.24586 34.0445 0.246968 33.7858 0.248096 33.5194C0.248394 33.2553 0.248692 32.991 0.249012 32.719C0.249991 32.0167 0.251908 31.3144 0.254272 30.612C0.256444 29.8954 0.257424 29.1788 0.258489 28.4624C0.260853 27.0562 0.264409 25.65 0.268881 24.2438Z" fill="#C8FDF0"/>
<path d="M53.722 28.7161C54.8537 29.1071 55.7061 29.7935 56.6545 30.5088C57.334 30.9275 57.334 30.9275 58.11 30.696C59.489 30.4452 60.5964 31.4292 61.708 32.1367C61.9602 32.2928 62.2127 32.4483 62.4655 32.6033C62.8546 32.842 63.2433 33.0812 63.6311 33.322C65.1612 34.2727 66.7247 35.1639 68.2877 36.0592C69.2385 36.6093 70.1419 37.146 70.9718 37.8735C70.4709 38.2112 69.9694 38.5483 69.4679 38.885C69.328 38.9794 69.1881 39.0739 69.0439 39.1712C68.1439 39.7741 67.2307 40.3238 66.2867 40.8549C65.9027 41.0834 65.5207 41.3149 65.1386 41.5468C64.4586 41.9587 63.7757 42.3652 63.0923 42.7716C62.8618 42.9089 62.6316 43.0461 62.3944 43.1875C62.1897 43.305 61.9853 43.4226 61.7745 43.5435C61.5958 43.6472 61.4171 43.7512 61.2331 43.8581C60.7497 44.0493 60.7497 44.0493 60.2731 44.0144C60.1491 43.9556 60.0254 43.8968 59.8979 43.8364C59.6849 43.1975 59.6849 43.1975 59.6849 42.5586C59.193 42.2775 58.701 41.9964 58.1942 41.7067C58.1942 45.6423 58.1942 49.5778 58.1942 53.6326C58.1239 53.6326 58.0536 53.6326 57.9812 53.6326C57.9861 53.4826 57.991 53.3325 57.9961 53.1779C58.0393 51.7557 58.066 50.3344 58.0745 48.9114C58.0794 48.1801 58.0905 47.4499 58.1162 46.7188C58.3569 43.6481 58.3569 43.6481 57.4571 40.8232C56.6787 40.0936 55.7841 39.6911 54.7934 39.3212C54.1803 39.0803 53.6504 38.7383 53.0989 38.3809C52.7166 38.1494 52.3341 37.9182 51.9518 37.6871C49.7562 36.3559 47.5819 34.9938 45.4165 33.6142C45.733 32.9813 46.167 32.9655 46.8274 32.7358C49.2994 31.8122 51.8339 30.6042 53.722 28.7161Z" fill="#F57587"/>
<path d="M44.615 0.758562C45.9087 1.26684 47.0409 1.88977 48.1985 2.65498C48.5518 2.88338 48.9053 3.11131 49.2593 3.3388C49.4354 3.45209 49.6115 3.56541 49.7927 3.68215C50.5858 4.18408 51.3936 4.65901 52.2049 5.13065C53.7197 6.01235 55.216 6.91957 56.7037 7.8459C55.9194 8.66578 55.0903 9.35627 54.1882 10.0421C51.7518 11.9351 50.0302 13.8114 49.0371 16.7903C48.8955 16.7304 48.7539 16.6706 48.6078 16.6088C47.7157 16.2655 46.7989 15.9951 45.8802 15.7321C45.46 15.6007 45.46 15.6007 44.7779 15.2995C44.6414 14.8919 44.6414 14.8919 44.565 14.4477C44.4093 14.3299 44.2536 14.2122 44.0933 14.0908C43.2661 13.4006 42.8421 12.569 42.3157 11.6393C41.4589 10.1699 40.5709 8.74115 39.587 7.35343C39.4858 7.20994 39.3847 7.06647 39.2803 6.91863C38.6796 6.08107 38.042 5.29876 37.3488 4.5357C37.1113 4.22557 37.1113 4.22557 37.1113 3.79964C37.4821 3.52684 37.4821 3.52684 37.9981 3.2215C38.1844 3.11044 38.371 2.9994 38.5629 2.885C38.7603 2.76955 38.9577 2.65413 39.1611 2.53519C39.3536 2.42057 39.5459 2.30596 39.7442 2.18789C43.0244 0.246156 43.0244 0.246156 44.615 0.758562Z" fill="#59D9C6"/>
<path d="M14.5376 36.3827C14.8187 36.453 15.0998 36.5232 15.3894 36.5957C15.3894 36.7362 15.3894 36.8768 15.3894 37.0216C15.5445 37.0801 15.6995 37.1385 15.8592 37.1988C16.4261 37.4358 16.9287 37.705 17.4558 38.0199C17.6453 38.1326 17.8351 38.2452 18.0303 38.3615C18.2305 38.4814 18.4307 38.6015 18.6371 38.7253C19.0566 38.9755 19.4761 39.2255 19.8957 39.4755C20.1044 39.6001 20.3131 39.7247 20.528 39.8531C21.0934 40.1887 21.6609 40.5203 22.2299 40.85C22.395 40.9456 22.56 41.0414 22.7302 41.1402C23.0377 41.3185 23.3454 41.4959 23.6538 41.6726C25.3019 42.6312 25.3019 42.6312 25.507 43.3808C25.6501 45.2084 25.635 47.0354 25.6248 48.8675C25.6237 49.2066 25.6228 49.5458 25.622 49.8848C25.6196 50.7082 25.616 51.5315 25.6115 52.3548C26.0332 52.3548 26.4549 52.3548 26.8893 52.3548C26.8893 53.4792 26.8893 54.6036 26.8893 55.7621C25.2135 55.7621 25.2135 55.7621 24.6258 55.3861C24.4912 55.303 24.3566 55.2199 24.2177 55.1343C24.0759 55.043 23.9341 54.9514 23.788 54.8571C23.4726 54.6624 23.1567 54.4686 22.8405 54.2757C22.6716 54.172 22.5027 54.0685 22.3285 53.9616C21.318 53.3574 20.2835 52.7973 19.2493 52.2351C19.0455 52.1233 18.8415 52.0117 18.6315 51.8967C17.5725 51.314 17.5725 51.314 16.4542 50.864C16.4542 50.7235 16.4542 50.5829 16.4542 50.4381C16.2917 50.4075 16.1292 50.3766 15.9616 50.3448C15.3894 50.2252 15.3894 50.2252 14.7505 50.0122C14.5214 49.3245 14.5118 48.8313 14.5133 48.1083C14.5133 47.8483 14.5133 47.5883 14.5135 47.3204C14.5146 47.0395 14.5156 46.7586 14.5167 46.4692C14.5171 46.1789 14.5173 45.8886 14.5176 45.5982C14.5184 44.8347 14.5205 44.071 14.5229 43.3075C14.525 42.5281 14.5261 41.7487 14.5271 40.9692C14.5295 39.4404 14.5331 37.9115 14.5376 36.3827Z" fill="#FA778A"/>
<path d="M48.9432 16.777C49.7467 17.4517 50.2559 17.9506 50.3724 19.0363C50.4145 20.2357 50.3253 21.0741 49.6754 22.1142C49.4409 22.7297 49.4409 22.7297 49.4224 23.3121C49.0341 24.9251 47.8692 26.3358 46.4809 27.2253C44.27 28.3329 41.9389 27.9438 39.6662 27.2253C38.0047 26.5983 36.9299 25.3604 36.2005 23.7747C35.8469 22.9003 35.8152 22.2016 35.8329 21.2624C36.114 21.1921 36.3951 21.1218 36.6847 21.0494C36.6724 20.9129 36.66 20.7766 36.6473 20.6361C36.5876 19.4931 36.6157 18.6796 37.3643 17.7826C40.5547 14.8542 45.3163 14.2296 48.9432 16.777Z" fill="#FCE29B"/>
<path d="M30.9352 10.1885C31.1633 10.4075 31.1633 10.4075 31.3961 10.631C32.0673 11.2894 32.7028 11.9641 33.3161 12.6767C34.1778 13.667 35.0999 14.5897 36.0331 15.5125C36.199 15.6775 36.3649 15.8424 36.5359 16.0125C36.9401 16.4142 37.3447 16.8154 37.75 17.2162C37.5104 17.8491 37.2766 18.3521 36.8981 18.9199C36.801 19.4542 36.801 19.4542 36.765 20.0245C36.7491 20.2166 36.7331 20.4085 36.7167 20.6061C36.7012 20.8257 36.7012 20.8257 36.6852 21.0495C35.9577 21.2969 35.6508 21.2742 34.9225 20.9928C34.6603 20.8563 34.4005 20.7151 34.1429 20.5703C34.0031 20.493 33.8634 20.4157 33.7195 20.3363C30.3362 18.4041 27.7231 15.6151 25.2769 12.6201C24.7434 12.0911 24.2811 11.8994 23.5348 11.8655C23.3766 11.8743 23.2186 11.8831 23.0557 11.8922C22.3348 13.0517 22.2733 14.1659 22.2038 15.5125C21.4116 15.136 20.6637 14.6892 19.9145 14.2347C19.7863 14.1589 19.6581 14.0831 19.5261 14.0052C19.2043 13.8097 18.8929 13.5976 18.5835 13.3829C18.5835 13.2423 18.5835 13.1018 18.5835 12.957C19.0901 12.6192 19.0901 12.6192 19.768 12.2382C20.0012 12.1043 20.2342 11.9703 20.4744 11.8323C20.8477 11.6267 21.2244 11.4265 21.6107 11.2466C22.6385 10.7608 22.9017 10.1746 23.2895 9.16443C23.6009 8.40838 24.0219 7.78874 24.7594 7.41998C27.5174 6.76306 29.0484 8.36883 30.9352 10.1885Z" fill="#FB798A"/>
<path d="M26.8889 52.7807C27.7484 53.0972 28.5078 53.508 29.2964 53.9729C29.4234 54.0474 29.5503 54.1219 29.681 54.1988C30.0908 54.4397 30.4997 54.6816 30.9086 54.9235C31.1909 55.0901 31.4731 55.2564 31.7555 55.4227C32.5475 55.8897 33.3387 56.3582 34.1296 56.827C34.31 56.9337 34.4903 57.0403 34.676 57.1505C35.8622 57.8532 37.0444 58.5611 38.2033 59.3084C40.6298 60.8705 42.4246 61.9269 45.4165 61.2991C47.07 60.7058 48.5896 59.7746 50.1149 58.9165C50.3713 58.7734 50.6275 58.6303 50.8839 58.4872C51.9793 57.8752 53.0727 57.2597 54.1637 56.6398C54.3172 56.5527 54.471 56.4656 54.6292 56.3759C54.8999 56.2219 55.1701 56.0673 55.44 55.9117C57.5713 54.6973 57.5713 54.6973 58.4071 54.6973C58.4451 56.634 58.4451 56.634 58.1942 57.2529C57.4991 57.7208 56.8679 58.0404 56.0912 58.3443C55.6018 58.4878 55.6018 58.4878 55.4257 58.9566C55.0547 59.2311 55.0547 59.2311 54.6005 59.5156C54.3773 59.6581 54.3773 59.6581 54.1496 59.8035C53.722 60.0214 53.722 60.0214 53.0831 60.0214C53.0831 60.1619 53.0831 60.3025 53.0831 60.4473C52.802 60.4473 52.5209 60.4473 52.2313 60.4473C52.161 60.6581 52.0907 60.869 52.0183 61.0862C51.5524 61.2991 51.5524 61.2991 50.9535 61.5121C50.0523 61.9123 50.0523 61.9123 49.3114 62.5428C48.675 63.1434 47.9916 63.5046 47.2135 63.8947C47.0627 63.9707 46.9121 64.0468 46.7569 64.1251C45.6765 64.6441 44.741 64.8907 43.529 64.8705C42.9594 64.9318 42.7888 65.1222 42.4351 65.5584C42.398 65.438 42.361 65.3179 42.3228 65.194C41.8509 64.4608 41.143 64.1351 40.3987 63.7216C40.068 63.5329 39.7375 63.344 39.407 63.1551C39.2377 63.0593 39.0684 62.9634 38.8937 62.8646C38.1117 62.4191 37.3391 61.958 36.5654 61.4989C35.3722 60.7938 34.1694 60.1091 32.9583 59.4357C31.912 58.8533 30.8951 58.257 29.9211 57.5574C29.4255 57.2241 29.4255 57.2241 28.7615 56.9483C28.0302 56.6061 27.4707 56.3246 26.8889 55.7622C26.6694 54.7367 26.7343 53.8127 26.8889 52.7807Z" fill="#3992A2"/>
<path d="M62.028 12.957C63.2084 13.9735 63.8415 15.0696 64.027 16.6332C64.0615 17.6805 64.0487 18.4778 63.612 19.4391C61.3963 21.7681 58.0109 23.594 54.7641 23.8755C53.8796 23.8883 53.0849 23.8474 52.2318 23.6051C52.1615 23.7456 52.0912 23.8862 52.0188 24.031C51.0965 24.031 50.6835 23.8253 49.8892 23.3921C49.8777 23.0861 49.8694 22.7799 49.8626 22.4738C49.8577 22.3033 49.8528 22.1327 49.8477 21.9572C49.8892 21.4755 49.8892 21.4755 50.3151 20.8366C50.583 20.7618 50.8509 20.6873 51.1269 20.6104C53.2981 19.94 55.102 17.9927 56.8042 16.5427C58.2524 15.31 59.6539 14.31 61.3416 13.4253C61.7958 13.2096 61.7958 13.2096 62.028 12.957Z" fill="#FB788A"/>
<path d="M23.7081 11.6791C25.7035 12.0084 27.3329 14.4789 28.5223 15.9524C30.48 18.3452 33.1437 19.8328 35.8336 21.2624C35.8336 21.5435 35.8336 21.8246 35.8336 22.1142C34.9892 22.1249 34.1449 22.1325 33.3003 22.1377C32.8741 22.1408 32.4478 22.1462 32.0216 22.1517C28.9663 22.167 26.6299 21.6615 24.3604 19.4788C22.9774 18.0115 22.1771 16.7451 22.1509 14.7006C22.1454 14.4444 22.1398 14.1882 22.1343 13.9244C22.2361 12.8257 22.4876 11.6791 23.7081 11.6791Z" fill="#9C3042"/>
<path d="M66.6196 16.4442C67.5737 17.0803 68.1009 17.8444 68.3633 18.9597C68.019 20.7104 66.9488 22.3541 65.5541 23.4661C64.4244 24.1955 63.219 24.7754 61.9994 25.3381C61.6612 25.4942 61.3254 25.6558 60.9904 25.8185C59.7169 26.3952 58.5185 26.6327 57.1296 26.3735C56.2923 26.0274 55.5454 25.5891 54.787 25.0957C54.6448 25.0052 54.5027 24.9145 54.3562 24.8212C54.07 24.6344 53.7889 24.4402 53.5093 24.2439C54.1424 23.8761 54.7615 23.7151 55.4747 23.5643C58.0926 23.0021 61.5262 21.804 63.1864 19.5719C63.455 19.1488 63.7033 18.7203 63.9444 18.281C64.5773 17.1991 65.2349 16.2414 66.6196 16.4442Z" fill="#9B3241"/>
<path d="M14.5373 45.7529C15.4741 46.0837 16.275 46.5767 17.106 47.1106C19.1387 48.3979 21.1959 49.6424 23.2687 50.864C23.3994 50.9411 23.53 51.0182 23.6648 51.0976C24.802 51.7627 25.5614 52.1335 26.889 52.3547C26.889 53.4792 26.889 54.6036 26.889 55.7621C25.2132 55.7621 25.2132 55.7621 24.6255 55.386C24.4236 55.2614 24.4236 55.2614 24.2174 55.1343C24.0756 55.0429 23.934 54.9514 23.7877 54.857C23.4723 54.6624 23.1564 54.4686 22.8402 54.2756C22.6713 54.1719 22.5024 54.0684 22.3282 53.9615C21.3177 53.3573 20.2832 52.7973 19.249 52.235C19.0452 52.1232 18.8412 52.0116 18.6312 51.8966C17.5722 51.314 17.5722 51.314 16.4539 50.864C16.4539 50.7234 16.4539 50.5829 16.4539 50.4381C16.2914 50.4074 16.1289 50.3765 15.9613 50.3448C15.3891 50.2251 15.3891 50.2251 14.7502 50.0121C14.5579 49.4357 14.5119 49.1096 14.5164 48.5189C14.517 48.3577 14.5179 48.1964 14.5185 48.0301C14.5202 47.8629 14.5222 47.6956 14.5239 47.5231C14.5249 47.3533 14.5258 47.1836 14.5268 47.0085C14.5294 46.5901 14.5332 46.1714 14.5373 45.7529Z" fill="#EA546A"/>
<path d="M50.102 21.9014C50.0317 22.3933 49.9614 22.8852 49.889 23.3921C50.1921 23.4909 50.1921 23.4909 50.5013 23.5919C51.1668 23.818 51.1668 23.818 51.5927 24.031C51.663 23.8201 51.7333 23.6093 51.8057 23.3921C52.0757 24.3681 52.0747 24.9376 51.6193 25.8543C50.6808 27.3813 49.0917 28.0542 47.5631 28.8801C46.9248 29.2579 46.3995 29.7179 45.8428 30.2068C44.3672 30.9448 41.6768 30.5989 40.1252 30.2194C38.6117 29.6089 37.142 28.7877 36.4725 27.2254C36.3926 26.4534 36.3926 26.4534 36.4725 25.7347C36.7968 25.3703 36.7968 25.3703 37.1114 25.0958C37.2017 25.1961 37.292 25.2962 37.385 25.3995C39.0429 27.1594 41.0301 27.6343 43.3937 27.7312C45.0923 27.6928 46.6114 27.0742 47.8576 25.9136C48.7701 24.8226 49.2525 23.7373 49.2502 22.3273C49.6761 21.9014 49.6761 21.9014 50.102 21.9014Z" fill="#F1AA5D"/>
<path d="M36.6856 20.8366C36.8262 21.0474 36.9667 21.2583 37.1115 21.4755C38.2113 22.985 39.4628 23.7767 41.3032 24.1767C44.034 24.5496 46.4145 24.024 48.8244 22.7533C49.0352 22.7533 49.2461 22.7533 49.4633 22.7533C49.3819 24.3407 48.3944 25.6099 47.267 26.6664C45.7744 27.8424 44.0734 28.0509 42.2226 27.8643C40.0317 27.4657 38.332 26.8528 36.8986 25.0958C36.1223 23.8217 35.8054 22.7658 35.8338 21.2625C36.1149 21.122 36.396 20.9814 36.6856 20.8366Z" fill="#FBC67A"/>
<path d="M36.2593 26.3735C36.3121 26.4876 36.3647 26.6018 36.419 26.7195C36.5508 26.97 36.5508 26.97 36.6852 27.2253C36.7906 27.4274 36.896 27.6293 37.0046 27.8376C37.8533 29.0947 39.5169 29.8424 40.9444 30.2068C41.6906 30.2764 42.4315 30.2856 43.1805 30.2866C43.3773 30.2917 43.5743 30.2971 43.777 30.3024C45.0122 30.3077 45.7141 30.1753 46.6944 29.3549C46.8388 29.245 46.9831 29.1354 47.132 29.0223C47.2598 28.9211 47.3878 28.8202 47.5196 28.716C48.2087 28.193 48.9002 27.7909 49.685 27.4291C50.1955 27.1795 50.6793 26.8788 51.1666 26.5864C52.0099 27.2189 52.8532 27.8514 53.7221 28.5031C52.4939 30.9592 48.6087 32.3489 46.1219 33.3079C45.9077 33.3922 45.9077 33.3922 45.689 33.4783C45.1329 33.6827 44.674 33.8361 44.0781 33.7871C43.481 33.5043 43.0909 33.0291 42.6481 32.5493C42.8589 32.3385 43.0698 32.1277 43.287 31.9105C42.1926 31.3197 41.1261 30.8173 39.9329 30.4598C38.8821 30.1263 37.9583 29.6854 37.0046 29.142C36.8796 29.0713 36.7544 29.0003 36.6256 28.9275C35.9081 28.5056 35.3286 28.0533 34.7686 27.4383C35.2605 27.0869 35.7524 26.7355 36.2593 26.3735Z" fill="#E75668"/>
<path d="M1.9726 37.8734C3.66031 38.7559 5.28959 39.7266 6.91953 40.7105C7.95761 41.337 8.99799 41.9586 10.0455 42.5694C10.3484 42.7466 10.6504 42.9257 10.9511 43.1065C11.6063 43.4996 12.2473 43.861 12.9401 44.1873C13.6039 44.521 14.0588 44.7576 14.5373 45.327C14.7313 46.4274 14.6779 47.4181 14.5373 48.5215C13.0532 47.7363 11.6153 46.8961 10.1899 46.0092C9.34043 45.4836 8.47841 44.9795 7.61607 44.4752C7.01238 44.1208 6.40904 43.7658 5.8059 43.4104C5.66932 43.3301 5.53275 43.2498 5.39205 43.167C5.01426 42.9438 4.63789 42.7183 4.26193 42.4921C4.05001 42.3654 3.83807 42.2389 3.61972 42.1086C2.76307 41.5174 2.1232 40.8679 1.54668 40.003C1.46754 39.4153 1.50866 38.898 1.54668 38.2993C1.68723 38.1588 1.82778 38.0182 1.9726 37.8734Z" fill="#54A2B6"/>
<path d="M25.6113 55.7621C26.033 55.7621 26.4547 55.7621 26.8891 55.7621C27.0799 59.6938 27.1361 63.6176 27.1297 67.5529C27.1287 68.3283 27.1293 69.1035 27.1306 69.8789C27.1346 72.9083 27.1185 75.9372 27.0324 78.9657C27.0207 79.3812 27.0109 79.7969 27.0009 80.2126C26.9928 80.4612 26.9847 80.7097 26.9764 80.9659C26.9698 81.1837 26.9632 81.4016 26.9566 81.6261C26.8891 82.1693 26.8891 82.1693 26.4632 82.8082C26.1821 82.6676 25.901 82.5271 25.6113 82.3823C25.6113 73.5976 25.6113 64.813 25.6113 55.7621Z" fill="#E29194"/>
<path d="M59.8976 56.4011C60.0381 56.4713 60.1787 56.5416 60.3235 56.614C60.3286 59.7835 60.3322 62.9528 60.3346 66.1223C60.3356 67.5943 60.3371 69.0663 60.3397 70.5381C60.342 71.9604 60.3433 73.3826 60.3437 74.8049C60.3442 75.3456 60.345 75.8866 60.3461 76.4273C60.3572 81.868 60.3572 81.868 60.1105 84.299C59.5835 84.5098 59.5835 84.5098 59.0457 84.7249C59.0308 81.2651 59.0195 77.8053 59.0127 74.3456C59.0093 72.739 59.0048 71.1326 58.9976 69.5263C58.9912 68.1265 58.9872 66.7265 58.9857 65.3265C58.9848 64.5852 58.9829 63.8436 58.9782 63.1023C58.9731 62.2752 58.9729 61.448 58.9733 60.6209C58.971 60.3743 58.9687 60.1277 58.9663 59.8736C58.9672 59.6487 58.968 59.4238 58.9689 59.1921C58.9684 58.9964 58.9678 58.8007 58.9672 58.599C59.0615 58.0055 59.2451 57.8558 59.6846 57.4659C59.8384 56.9109 59.8384 56.9109 59.8976 56.4011Z" fill="#D13D54"/>
<path d="M58.1943 41.7067C58.7623 41.9905 59.3301 42.2746 59.898 42.5585C59.8936 42.7297 59.8893 42.9012 59.8848 43.0777C59.835 43.6093 59.835 43.6093 60.111 43.8363C60.1342 44.213 60.1427 44.5906 60.1453 44.9679C60.1474 45.2097 60.1493 45.4514 60.1514 45.7003C60.1523 45.9633 60.1534 46.2263 60.1542 46.4974C60.1555 46.7656 60.1568 47.0337 60.1578 47.3099C60.16 47.8783 60.1615 48.4467 60.1621 49.0153C60.1634 49.7445 60.1685 50.4736 60.1744 51.203C60.1793 51.8973 60.1798 52.5913 60.1808 53.2856C60.1834 53.5482 60.1862 53.8109 60.1889 54.0816C60.1883 54.3238 60.1876 54.5661 60.1868 54.8157C60.1876 55.0299 60.1885 55.244 60.1891 55.4644C60.1634 55.633 60.1376 55.8015 60.111 55.9751C59.4721 56.401 59.4721 56.401 58.8332 56.401C58.8332 55.6982 58.8332 54.9954 58.8332 54.2714C58.6224 54.2011 58.4116 54.1308 58.1943 54.0584C58.1943 49.9823 58.1943 45.9063 58.1943 41.7067Z" fill="#C62748"/>
<path d="M51.5926 9.76257C51.5926 9.90313 51.5926 10.0437 51.5926 10.1885C52.1197 10.3993 52.1197 10.3993 52.6574 10.6144C52.6574 11.2533 52.6574 11.2533 52.3297 11.6135C52.1832 11.745 52.0364 11.8765 51.8854 12.0119C50.4775 13.3699 49.6508 14.949 49.0371 16.7903C48.8957 16.7315 48.7543 16.6727 48.6086 16.6123C47.8502 16.3169 47.0812 16.0596 46.3086 15.8053C46.161 15.7566 46.0135 15.7076 45.8614 15.6573C45.5002 15.5376 45.139 15.4186 44.7779 15.2996C44.7114 14.8336 44.7114 14.8336 44.7779 14.2348C45.5058 13.3335 46.3821 12.8007 47.3734 12.2382C48.5513 11.5538 49.6745 10.8317 50.7716 10.0213C51.1667 9.76257 51.1667 9.76257 51.5926 9.76257Z" fill="#75D9C8"/>
<path d="M63.0521 30.8724C63.2742 31.0084 63.4963 31.1447 63.7252 31.2849C64.4357 31.7397 65.1418 32.1987 65.8374 32.6759C66.429 33.0703 67.0436 33.4217 67.6641 33.769C67.9902 34.0401 67.9902 34.0401 68.0609 34.4537C68.1627 34.9241 68.1627 34.9241 68.5948 35.1448C68.7615 35.2157 68.9283 35.2868 69.1001 35.3601C71.9508 36.7288 71.9508 36.7288 72.469 37.9761C72.7575 39.444 72.6191 40.9184 72.5024 42.3989C72.482 42.8489 72.4634 43.2988 72.447 43.749C72.4027 44.8452 72.3331 45.937 72.2494 47.0308C72.1791 47.0308 72.1089 47.0308 72.0365 47.0308C71.9662 43.9386 71.8959 40.8464 71.8235 37.6605C71.2613 37.5902 70.6991 37.5199 70.1198 37.4475C69.4526 37.114 69.4526 37.114 68.8154 36.6887C68.5729 36.5312 68.3299 36.374 68.0867 36.2172C67.9642 36.1374 67.8415 36.0575 67.7153 35.9751C67.1539 35.6184 66.5742 35.2964 65.9937 34.9719C64.5673 34.1607 63.1549 33.3269 61.7479 32.4828C61.5277 32.3526 61.3075 32.2225 61.0807 32.0884C60.8756 31.9646 60.6705 31.8409 60.4592 31.7133C60.1815 31.5472 60.1815 31.5472 59.8983 31.3779C59.4717 31.0587 59.4718 31.0587 59.2588 30.4198C60.7589 30.134 61.7228 30.0501 63.0521 30.8724Z" fill="#CA5363"/>
<path d="M58.8336 54.2714C58.8336 64.2508 58.8336 74.2301 58.8336 84.5119C58.6227 84.5822 58.4119 84.6524 58.1947 84.7248C58.1947 75.7294 58.1947 66.7339 58.1947 57.4658C57.8433 57.6064 57.4919 57.7469 57.1299 57.8918C57.3407 57.5755 57.3407 57.5755 57.5558 57.2529C57.7666 57.2529 57.9775 57.2529 58.1947 57.2529C58.1902 56.9894 58.186 56.7258 58.1815 56.4543C58.1802 55.8337 58.2096 55.2915 58.4076 54.6973C58.1265 54.7676 57.8454 54.8379 57.5558 54.9103C58.1148 54.2714 58.1148 54.2714 58.8336 54.2714Z" fill="#2F6E7C"/>
<path d="M71.8236 47.2437C71.8288 50.4707 71.8324 53.6977 71.8347 56.9247C71.8358 58.4235 71.8373 59.9223 71.8398 61.4211C71.8422 62.8712 71.8432 64.321 71.8439 65.7708C71.8443 66.3205 71.8449 66.8701 71.8462 67.4198C71.8528 70.6398 71.8026 73.8438 71.6107 77.0582C71.1848 76.6323 71.1848 76.6323 71.1317 76.1248C71.132 75.9103 71.132 75.6959 71.1322 75.4748C71.1313 75.2291 71.1305 74.9833 71.1294 74.7301C71.1313 74.3238 71.1313 74.3238 71.133 73.9091C71.1328 73.6219 71.1324 73.3348 71.132 73.0475C71.1309 72.2666 71.1324 71.4856 71.1345 70.7047C71.1364 69.8889 71.136 69.0728 71.136 68.2569C71.1362 66.887 71.1381 65.5168 71.1409 64.1466C71.1443 62.5604 71.1454 60.9743 71.1454 59.3882C71.1452 57.8647 71.1462 56.3413 71.1479 54.8178C71.1488 54.1683 71.1492 53.5188 71.1492 52.8692C71.1494 52.1053 71.1507 51.3412 71.1528 50.5773C71.1539 50.1614 71.1537 49.7457 71.1537 49.3298C71.1545 49.0847 71.1554 48.8396 71.1562 48.587C71.1567 48.3726 71.1571 48.1581 71.1575 47.9373C71.1922 47.3259 71.208 47.2437 71.8236 47.2437Z" fill="#9B2548"/>
<path d="M42.2221 32.7624C40.7352 33.8478 39.1921 34.8317 37.6335 35.8096C36.4816 36.5326 35.3363 37.2648 34.1963 38.0065C32.9945 38.7866 31.7887 39.5601 30.5759 40.3225C30.3691 40.4532 30.3691 40.4532 30.1581 40.5868C30.0271 40.6685 29.8964 40.7505 29.7614 40.8349C29.6485 40.9058 29.5354 40.9769 29.4189 41.05C28.8731 41.3647 28.3043 41.6379 27.7408 41.9197C27.6705 45.5741 27.6002 49.2285 27.5278 52.9937C26.8889 52.7807 26.8889 52.7807 26.676 52.3548C26.6472 52.0422 26.631 51.7285 26.6215 51.4146C26.6153 51.2197 26.6091 51.0248 26.6027 50.8242C26.5818 49.9294 26.5661 49.0347 26.5546 48.1399C26.5469 47.6688 26.5352 47.1979 26.5197 46.7271C26.3936 42.8439 26.3936 42.8439 27.0519 41.6825C27.544 41.2297 27.9948 40.9382 28.5926 40.6419C28.7411 40.5495 28.8895 40.4573 29.0422 40.3621C29.4566 40.1065 29.8772 39.8802 30.3097 39.657C31.372 39.0856 32.3733 38.5168 33.3052 37.7429C33.7693 37.399 34.2625 37.1245 34.7655 36.8423C35.5812 36.3733 36.3706 35.8622 37.1643 35.3579C37.3421 35.2457 37.5197 35.1335 37.7029 35.0178C38.4744 34.5304 39.2439 34.0414 40.0027 33.5344C40.2079 33.3983 40.4135 33.262 40.6249 33.1218C40.7985 33.0039 40.972 32.8861 41.1507 32.7649C41.5832 32.5494 41.5832 32.5494 42.2221 32.7624Z" fill="#97DCD4"/>
<path d="M26.6761 42.5585C26.6761 45.7913 26.6761 49.024 26.6761 52.3547C26.3247 52.3547 25.9734 52.3547 25.6113 52.3547C25.6113 49.1923 25.6113 46.0298 25.6113 42.7715C26.4632 42.5585 26.4632 42.5585 26.6761 42.5585Z" fill="#EE929A"/>
<path d="M42.2221 32.7624C40.7367 33.8468 39.1955 34.8302 37.6381 35.8064C36.2883 36.6527 34.9499 37.5148 33.6199 38.392C32.8181 38.9161 32.0161 39.3795 31.1481 39.7901C31.0075 39.6495 30.867 39.509 30.7222 39.3642C30.8487 39.2892 30.9754 39.2142 31.1057 39.1371C32.2453 38.4582 33.371 37.7616 34.4882 37.0465C35.5721 36.3546 36.6597 35.6684 37.7486 34.984C38.5038 34.5089 39.2574 34.0327 39.9992 33.5369C40.2057 33.3998 40.4121 33.2628 40.6249 33.1218C40.7984 33.0039 40.9718 32.8861 41.1507 32.7649C41.5832 32.5494 41.5832 32.5494 42.2221 32.7624Z" fill="#83DCBE"/>
<path d="M67.9907 34.892C68.3419 35.077 68.6922 35.2638 69.0423 35.451C69.2374 35.5547 69.4327 35.6586 69.6337 35.7655C69.8646 35.8988 70.0954 36.0324 70.3333 36.1697C70.4919 36.2492 70.6508 36.3288 70.8144 36.4106C72.1484 37.1555 72.1484 37.1555 72.4186 37.9322C72.4718 38.5198 72.4659 39.0792 72.4371 39.6687C72.4344 39.8795 72.4316 40.0903 72.4288 40.3078C72.4182 40.9786 72.3941 41.6484 72.3696 42.319C72.36 42.7749 72.3513 43.2307 72.3434 43.6866C72.3223 44.8017 72.2904 45.9161 72.2499 47.0307C72.1797 47.0307 72.1094 47.0307 72.037 47.0307C71.9667 43.9386 71.8964 40.8464 71.824 37.6605C71.2618 37.5902 70.6996 37.5199 70.1203 37.4475C69.5813 37.2088 69.5813 37.2088 69.162 36.9283C69.0193 36.8365 68.8764 36.7445 68.7295 36.6497C68.5747 36.5175 68.5747 36.5175 68.4166 36.3827C68.4166 36.2421 68.4166 36.1016 68.4166 35.9568C68.2761 35.8162 68.1355 35.6757 67.9907 35.5309C67.9907 35.32 67.9907 35.1092 67.9907 34.892Z" fill="#B96772"/>
<path d="M36.2593 26.3735C36.3121 26.4876 36.3647 26.6018 36.419 26.7195C36.5508 26.97 36.5508 26.97 36.6852 27.2253C36.7906 27.4274 36.896 27.6293 37.0046 27.8376C37.7922 29.0129 39.2833 29.6007 40.5185 30.2068C39.7819 30.453 39.6709 30.4214 38.8904 30.1052C38.5933 29.9555 38.2975 29.8028 38.003 29.6477C37.8567 29.5745 37.7106 29.5012 37.5598 29.4256C36.561 28.9135 35.6685 28.3219 34.7686 27.6512C35.2364 27.1725 35.7167 26.7664 36.2593 26.3735Z" fill="#EE5D6B"/>
<path d="M25.3979 52.1418C25.8899 52.2121 26.3818 52.2823 26.8887 52.3547C26.8887 53.4792 26.8887 54.6036 26.8887 55.7621C26.3967 55.7621 25.9048 55.7621 25.3979 55.7621C25.3979 54.5674 25.3979 53.3727 25.3979 52.1418Z" fill="#E86176"/>
<path d="M31.1478 39.5771C31.1478 39.7176 31.1478 39.8582 31.1478 40.003C30.6599 40.2826 30.1718 40.5622 29.6837 40.8417C29.5451 40.9211 29.4064 41.0005 29.2635 41.0823C28.2145 41.6826 28.2145 41.6826 27.7404 41.9197C27.509 42.5788 27.487 43.2324 27.46 43.9262C27.4512 44.1445 27.4423 44.3625 27.4329 44.5874C27.4206 44.9273 27.4206 44.9273 27.4076 45.2738C27.3984 45.5036 27.3893 45.7334 27.3797 45.9702C27.3573 46.5367 27.3354 47.1031 27.3145 47.6696C27.2442 47.6696 27.174 47.6696 27.1016 47.6696C27.0083 47.0286 26.9414 46.3984 26.8886 45.753C26.8762 45.6137 26.8637 45.4744 26.8511 45.3309C26.6311 42.5666 26.6311 42.5666 27.2014 41.6051C27.6433 41.2071 28.0705 40.9268 28.5923 40.6419C28.8485 40.4826 28.8485 40.4826 29.1098 40.3199C30.3511 39.5771 30.3511 39.5771 31.1478 39.5771Z" fill="#6FE8E5"/>
<path d="M58.6206 54.2714C58.6206 57.2933 58.6206 60.3153 58.6206 63.4287C58.4801 63.4287 58.3395 63.4287 58.1947 63.4287C58.1947 61.461 58.1947 59.4932 58.1947 57.4658C57.8433 57.6064 57.4919 57.7469 57.1299 57.8918C57.3407 57.5755 57.3407 57.5755 57.5558 57.2529C57.7666 57.2529 57.9775 57.2529 58.1947 57.2529C58.1902 56.9894 58.186 56.7258 58.1815 56.4543C58.1802 55.8337 58.2096 55.2915 58.4076 54.6973C58.1265 54.7676 57.8454 54.8379 57.5558 54.9103C58.1414 54.2714 58.1414 54.2714 58.6206 54.2714Z" fill="#0E7C92"/>
<path d="M14.1115 37.0215C14.6494 37.8282 14.5915 38.4665 14.5789 39.3999C14.5783 39.5692 14.5779 39.7385 14.5772 39.9127C14.5749 40.4532 14.5693 40.9933 14.564 41.5338C14.5619 41.9001 14.56 42.2666 14.5583 42.6331C14.5536 43.5311 14.5461 44.429 14.5374 45.327C14.2563 45.1865 13.9752 45.0459 13.6855 44.9011C13.8964 44.7957 13.8964 44.7957 14.1115 44.6881C14.1115 42.1582 14.1115 39.6282 14.1115 37.0215Z" fill="#CDDFE3"/>
<path d="M27.3152 75.5675C27.3614 76.4694 27.4034 77.3715 27.4413 78.2738C27.4549 78.5807 27.4696 78.8878 27.4854 79.1947C27.508 79.6355 27.5265 80.0761 27.5439 80.5171C27.5563 80.7827 27.5686 81.0481 27.5812 81.3215C27.5637 81.5311 27.5463 81.7404 27.5282 81.9563C27.2119 82.1672 27.2119 82.1672 26.8893 82.3823C26.8842 81.4459 26.8801 80.5097 26.8776 79.5733C26.8765 79.2547 26.875 78.9359 26.8733 78.6171C26.8708 78.1599 26.8695 77.7027 26.8686 77.2454C26.8674 76.9699 26.8663 76.6945 26.8652 76.4106C26.8976 75.5675 26.8976 75.5675 27.3152 75.5675Z" fill="#7CD2D1"/>
<path d="M14.1115 69.1787C14.1817 69.1787 14.252 69.1787 14.3244 69.1787C14.5572 70.6739 14.5619 72.1399 14.5506 73.6509C14.5497 73.8971 14.5487 74.1435 14.5478 74.3971C14.5453 75.0002 14.5419 75.6033 14.5374 76.2064C14.2563 76.0659 13.9752 75.9253 13.6855 75.7805C13.8261 75.7102 13.9667 75.6399 14.1115 75.5675C14.0936 75.3918 14.0757 75.2162 14.0574 75.0351C13.8825 73.0525 13.9443 71.1582 14.1115 69.1787Z" fill="#73E2E0"/>
<path d="M58.1943 41.7067C58.616 41.9175 58.616 41.9175 59.0462 42.1326C58.9759 42.2731 58.9056 42.4137 58.8332 42.5585C58.6927 42.4882 58.5521 42.418 58.4073 42.3455C58.4073 46.0702 58.4073 49.7949 58.4073 53.6325C58.337 53.6325 58.2667 53.6325 58.1943 53.6325C58.1943 49.697 58.1943 45.7614 58.1943 41.7067Z" fill="#B7083A"/>
<path d="M14.75 49.3734C15.6568 49.4932 16.2322 49.8091 16.9861 50.3185C17.7159 50.8093 18.3933 51.2042 19.2222 51.503C19.2222 51.6435 19.2222 51.7841 19.2222 51.9289C19.3627 51.9289 19.5033 51.9289 19.6481 51.9289C19.5778 52.0694 19.5075 52.21 19.4351 52.3548C18.4513 51.8629 17.4674 51.3709 16.4537 50.8641C16.4537 50.7235 16.4537 50.583 16.4537 50.4382C16.2912 50.4075 16.1287 50.3766 15.9613 50.3449C15.3889 50.2252 15.3889 50.2252 14.75 50.0122C14.75 49.8014 14.75 49.5906 14.75 49.3734Z" fill="#DE6878"/>
<path d="M20.5005 26.1605C23.3819 26.1605 26.2632 26.1605 29.2319 26.1605C29.0913 26.4416 28.9508 26.7227 28.806 27.0124C28.6654 26.9421 28.5249 26.8718 28.38 26.7994C28.38 26.6589 28.38 26.5183 28.38 26.3735C25.7798 26.3735 23.1795 26.3735 20.5005 26.3735C20.5005 26.3032 20.5005 26.2329 20.5005 26.1605Z" fill="#C3E3DF"/>
<path d="M43.2868 32.1234C43.9975 32.3732 44.5165 32.5896 44.9905 33.1882C44.9905 33.3288 44.9905 33.4693 44.9905 33.6141C44.538 33.7871 44.538 33.7871 43.9257 33.8271C43.4357 33.5196 43.0705 33.165 42.6479 32.7623C42.8588 32.5515 43.0696 32.3406 43.2868 32.1234Z" fill="#145E68"/>
<path d="M58.78 6.96745C59.0083 7.04651 59.2368 7.12558 59.4721 7.20704C58.9944 7.44585 58.5166 7.68243 58.0346 7.91247C57.3242 8.2814 56.6712 8.69981 56.0081 9.14698C55.8863 9.20957 55.7645 9.27216 55.6388 9.33665C55.4983 9.26637 55.3577 9.19609 55.2129 9.12368C57.6587 6.80411 57.6587 6.80411 58.78 6.96745Z" fill="#E35C6D"/>
<path d="M25.6113 55.7621C25.8222 55.8324 26.033 55.9027 26.2502 55.9751C26.2176 56.2407 26.1848 56.506 26.1512 56.7795C26.0189 57.9691 25.9657 59.1587 25.9176 60.354C25.9082 60.5689 25.899 60.7838 25.8897 61.005C25.8673 61.5289 25.8456 62.053 25.8243 62.5769C25.754 62.5769 25.6837 62.5769 25.6113 62.5769C25.6113 60.328 25.6113 58.0792 25.6113 55.7621Z" fill="#E8949D"/>
<path d="M25.8242 52.3548C26.1756 52.3548 26.527 52.3548 26.889 52.3548C26.889 53.4792 26.889 54.6037 26.889 55.7622C26.8187 55.7622 26.7485 55.7622 26.6761 55.7622C26.6058 55.2 26.5355 54.6377 26.4631 54.0585C26.3225 54.199 26.182 54.3396 26.0372 54.4844C25.9669 53.7816 25.8966 53.0789 25.8242 52.3548Z" fill="#D5697C"/>
<path d="M62.0278 30.2068C62.9414 30.2068 63.855 30.2068 64.7963 30.2068C64.5855 30.5582 64.3747 30.9096 64.1574 31.2716C63.3165 31.1515 62.7287 30.9004 62.0278 30.4197C62.0278 30.3495 62.0278 30.2792 62.0278 30.2068Z" fill="#42D9C7"/>
<path d="M50.1016 22.1143C50.8159 22.4099 51.1905 22.7289 51.5924 23.3921C51.5924 23.6029 51.5924 23.8137 51.5924 24.031C50.3678 23.6317 50.3678 23.6317 49.8887 23.3921C49.9589 22.9704 50.0292 22.5488 50.1016 22.1143Z" fill="#FCD995"/>
<path d="M69.2681 14.4477C69.9868 14.5642 70.3503 14.6724 70.9718 15.0866C70.9718 15.2271 70.9718 15.3677 70.9718 15.5125C70.4095 15.7233 69.8473 15.9342 69.2681 16.1514C69.2681 15.5892 69.2681 15.0269 69.2681 14.4477Z" fill="#C22E49"/>
<path d="M41.5835 32.5494C41.7943 32.6197 42.0052 32.6899 42.2224 32.7623C41.8808 33.0019 41.5392 33.2415 41.1976 33.4811C41.0072 33.6144 40.8171 33.7479 40.6209 33.8853C39.4756 34.6826 39.4756 34.6826 38.9879 34.5991C38.8606 34.5553 38.7332 34.5114 38.6021 34.466C39.084 34.1393 39.5676 33.8161 40.0527 33.4945C40.1897 33.4012 40.3266 33.3079 40.4676 33.2119C40.829 32.9742 41.2057 32.76 41.5835 32.5494Z" fill="#8CD3AF"/>
<path d="M26.8892 52.7807C27.1 52.851 27.3108 52.9213 27.528 52.9937C27.5338 53.3353 27.5378 53.6768 27.5412 54.0184C27.5438 54.2088 27.5464 54.399 27.5489 54.5951C27.528 55.1233 27.528 55.1233 27.3151 55.7622C27.1745 55.7622 27.034 55.7622 26.8892 55.7622C26.8892 54.7783 26.8892 53.7944 26.8892 52.7807Z" fill="#4FA7B9"/>
<path d="M14.1114 45.327C14.252 45.327 14.3925 45.327 14.5373 45.327C14.5373 46.3812 14.5373 47.4353 14.5373 48.5214C14.3265 48.4512 14.1157 48.3809 13.8984 48.3085C13.9687 47.3246 14.039 46.3407 14.1114 45.327Z" fill="#5AAAC1"/>
<path d="M31.1484 39.5771C31.1484 39.7176 31.1484 39.8582 31.1484 40.003C30.8485 40.1881 30.5465 40.3693 30.2433 40.5486C30.0753 40.65 29.9072 40.7514 29.7341 40.8557C29.1661 41.0955 28.9453 41.0714 28.3799 40.8549C28.7204 40.6402 29.0622 40.4277 29.4047 40.216C29.595 40.0974 29.7852 39.9787 29.9814 39.8565C30.5095 39.5771 30.5095 39.5771 31.1484 39.5771Z" fill="#76E5CB"/>
<path d="M44.1387 14.2347C44.3495 14.305 44.5603 14.3753 44.7776 14.4477C44.7776 14.7288 44.7776 15.0099 44.7776 15.2995C44.1451 15.2995 43.5126 15.2995 42.8609 15.2995C42.7906 15.159 42.7204 15.0184 42.6479 14.8736C43.1399 14.8736 43.6318 14.8736 44.1387 14.8736C44.1387 14.6628 44.1387 14.452 44.1387 14.2347Z" fill="#EF736D"/>
<path d="M38.1758 29.5679C39.0396 29.6676 39.7657 29.7553 40.5184 30.2068C40.0562 30.4102 39.7596 30.4504 39.2781 30.2916C38.9067 30.1304 38.5408 29.9564 38.1758 29.7809C38.1758 29.7106 38.1758 29.6403 38.1758 29.5679Z" fill="#E96C74"/>
<path d="M47.1202 28.929C47.2607 28.9993 47.4013 29.0696 47.5461 29.142C46.8704 29.895 46.4457 30.3316 45.4165 30.4197C45.579 30.2924 45.7415 30.165 45.9089 30.0339C46.3425 29.6808 46.7364 29.333 47.1202 28.929Z" fill="#E9636C"/>
<path d="M69.2681 14.6606C69.4086 14.8012 69.5492 14.9418 69.694 15.0866C69.9048 15.0866 70.1157 15.0866 70.3329 15.0866C70.3329 15.2271 70.3329 15.3677 70.3329 15.5125C70.1923 15.5125 70.0518 15.5125 69.9069 15.5125C69.9069 15.653 69.9069 15.7936 69.9069 15.9384C69.6961 16.0087 69.4853 16.079 69.2681 16.1514C69.2681 15.6594 69.2681 15.1675 69.2681 14.6606Z" fill="#D22348"/>
<path d="M30.0835 40.429C30.2241 40.4992 30.3646 40.5695 30.5094 40.6419C30.158 40.9933 29.8067 41.3447 29.4446 41.7067C29.1635 41.5662 28.8824 41.4256 28.5928 41.2808C29.7157 40.5944 29.7157 40.5944 30.0835 40.429Z" fill="#AEF8F2"/>
<path d="M68.8424 14.8736C68.9127 14.8736 68.983 14.8736 69.0554 14.8736C69.0554 15.3655 69.0554 15.8575 69.0554 16.3643C69.1959 16.4346 69.3365 16.5049 69.4813 16.5773C69.2705 16.6476 69.0596 16.7178 68.8424 16.7902C68.6028 16.3111 68.6028 16.3111 68.4165 15.7254C68.6028 15.2331 68.6028 15.2331 68.8424 14.8736Z" fill="#44DCC8"/>
<path d="M38.642 34.7589C38.7694 34.8027 38.8967 34.8468 39.0279 34.892C37.8034 35.7438 37.8034 35.7438 37.3242 35.7438C37.5706 35.0048 37.8085 34.616 38.642 34.7589Z" fill="#73E0C6"/>
<path d="M57.7686 6.99408C58.3308 7.06436 58.8931 7.13463 59.4723 7.20704C58.9246 7.55193 58.6893 7.64235 58.0348 7.5531C57.8766 7.50919 57.7186 7.46526 57.5557 7.42C57.6259 7.27945 57.6962 7.13889 57.7686 6.99408Z" fill="#E1828E"/>
</svg>
