<?xml version="1.0" encoding="UTF-8"?>
<svg id="Layer_2" data-name="Layer 2" xmlns="http://www.w3.org/2000/svg" viewBox="0 0 88.7 80.86">
  <defs>
    <style>
      .cls-1 {
        fill: #f7f1d7;
      }

      .cls-1, .cls-2, .cls-3, .cls-4, .cls-5, .cls-6, .cls-7, .cls-8, .cls-9, .cls-10, .cls-11, .cls-12, .cls-13, .cls-14, .cls-15, .cls-16, .cls-17, .cls-18, .cls-19, .cls-20, .cls-21, .cls-22, .cls-23, .cls-24, .cls-25, .cls-26, .cls-27, .cls-28, .cls-29, .cls-30, .cls-31, .cls-32, .cls-33, .cls-34, .cls-35, .cls-36, .cls-37, .cls-38, .cls-39, .cls-40, .cls-41, .cls-42, .cls-43, .cls-44, .cls-45, .cls-46, .cls-47, .cls-48, .cls-49, .cls-50, .cls-51, .cls-52, .cls-53, .cls-54, .cls-55, .cls-56, .cls-57, .cls-58, .cls-59, .cls-60, .cls-61, .cls-62, .cls-63, .cls-64, .cls-65, .cls-66, .cls-67, .cls-68, .cls-69, .cls-70, .cls-71, .cls-72, .cls-73, .cls-74, .cls-75, .cls-76, .cls-77, .cls-78, .cls-79, .cls-80, .cls-81, .cls-82, .cls-83, .cls-84, .cls-85, .cls-86, .cls-87, .cls-88, .cls-89, .cls-90, .cls-91, .cls-92, .cls-93, .cls-94, .cls-95, .cls-96, .cls-97, .cls-98, .cls-99, .cls-100, .cls-101, .cls-102, .cls-103, .cls-104, .cls-105, .cls-106, .cls-107, .cls-108, .cls-109, .cls-110, .cls-111, .cls-112, .cls-113, .cls-114, .cls-115, .cls-116, .cls-117, .cls-118, .cls-119, .cls-120, .cls-121 {
        stroke-width: 0px;
      }

      .cls-2 {
        fill: #f7f1d3;
      }

      .cls-3 {
        fill: #f2eed5;
      }

      .cls-4 {
        fill: #fad79d;
      }

      .cls-5 {
        fill: #f9d79e;
      }

      .cls-6 {
        fill: #7a2b0c;
      }

      .cls-7 {
        fill: #313a94;
      }

      .cls-8 {
        fill: #49a1b6;
      }

      .cls-9 {
        fill: #63260e;
      }

      .cls-10 {
        fill: #88bfd6;
      }

      .cls-11 {
        fill: #88b7ca;
      }

      .cls-12 {
        fill: #93c4dc;
      }

      .cls-13 {
        fill: #2f3996;
      }

      .cls-14 {
        fill: #2f0200;
      }

      .cls-15 {
        fill: #38449f;
      }

      .cls-16 {
        fill: #3844a0;
      }

      .cls-17 {
        fill: #3b3d83;
      }

      .cls-18 {
        fill: #384594;
      }

      .cls-19 {
        fill: #38419d;
      }

      .cls-20 {
        fill: #38459f;
      }

      .cls-21 {
        fill: #3a469a;
      }

      .cls-22 {
        fill: #3a459d;
      }

      .cls-23 {
        fill: #3d478b;
      }

      .cls-24 {
        fill: #394896;
      }

      .cls-25 {
        fill: #5685bc;
      }

      .cls-26 {
        fill: #83441d;
      }

      .cls-27 {
        fill: #2f3c8e;
      }

      .cls-28 {
        fill: #3c4aa6;
      }

      .cls-29 {
        fill: #3e3e7f;
      }

      .cls-30 {
        fill: #3e488d;
      }

      .cls-31 {
        fill: #3e428a;
      }

      .cls-32 {
        fill: #3d4ba6;
      }

      .cls-33 {
        fill: #3f4b9b;
      }

      .cls-34 {
        fill: #3f498b;
      }

      .cls-35 {
        fill: #364098;
      }

      .cls-36 {
        fill: #364a8c;
      }

      .cls-37 {
        fill: #37449f;
      }

      .cls-38 {
        fill: #373b85;
      }

      .cls-39 {
        fill: #374391;
      }

      .cls-40 {
        fill: #374392;
      }

      .cls-41 {
        fill: #439fb0;
      }

      .cls-42 {
        fill: #0e4365;
      }

      .cls-43 {
        fill: #414486;
      }

      .cls-44 {
        fill: #3e9baf;
      }

      .cls-45 {
        fill: #40498d;
      }

      .cls-46 {
        fill: #404989;
      }

      .cls-47 {
        fill: #404a8c;
      }

      .cls-48 {
        fill: #0a3952;
      }

      .cls-49 {
        fill: #42509c;
      }

      .cls-50 {
        fill: #424688;
      }

      .cls-51 {
        fill: #424689;
      }

      .cls-52 {
        fill: #093a54;
      }

      .cls-53 {
        fill: #093547;
      }

      .cls-54 {
        fill: #075e8c;
      }

      .cls-55 {
        fill: #083a57;
      }

      .cls-56 {
        fill: #083954;
      }

      .cls-57 {
        fill: #cfd2c3;
      }

      .cls-58 {
        fill: #dfb583;
      }

      .cls-59 {
        fill: #d2d4c4;
      }

      .cls-60 {
        fill: #d2d4c7;
      }

      .cls-61 {
        fill: #ddbf93;
      }

      .cls-62 {
        fill: #deb576;
      }

      .cls-63 {
        fill: #d0d3c4;
      }

      .cls-64 {
        fill: #c9aa74;
      }

      .cls-65 {
        fill: #e1ba86;
      }

      .cls-66 {
        fill: #d6a972;
      }

      .cls-67 {
        fill: #dcad79;
      }

      .cls-68 {
        fill: #d4d5c5;
      }

      .cls-69 {
        fill: #d4d5c6;
      }

      .cls-70 {
        fill: #d9d9bd;
      }

      .cls-71 {
        fill: #d9debd;
      }

      .cls-72 {
        fill: #bdc3a5;
      }

      .cls-73 {
        fill: #d8d8c8;
      }

      .cls-74 {
        fill: #d8dac9;
      }

      .cls-75 {
        fill: #aa946c;
      }

      .cls-76 {
        fill: #914419;
      }

      .cls-77 {
        fill: #c2cebe;
      }

      .cls-78 {
        fill: #c39561;
      }

      .cls-79 {
        fill: #c2cdbc;
      }

      .cls-80 {
        fill: #743615;
      }

      .cls-81 {
        fill: #65b0ca;
      }

      .cls-82 {
        fill: #303a96;
      }

      .cls-83 {
        fill: #8ebacb;
      }

      .cls-84 {
        fill: #7c9fa4;
      }

      .cls-85 {
        fill: #935325;
      }

      .cls-86 {
        fill: #946640;
      }

      .cls-87 {
        fill: #84bed7;
      }

      .cls-88 {
        fill: #ece9cb;
      }

      .cls-89 {
        fill: #f1ebce;
      }

      .cls-90 {
        fill: #f3ca96;
      }

      .cls-91 {
        fill: #ede7ca;
      }

      .cls-92 {
        fill: #e6e3c6;
      }

      .cls-93 {
        fill: #e4c08d;
      }

      .cls-94 {
        fill: #e4c38e;
      }

      .cls-95 {
        fill: #e9c393;
      }

      .cls-96 {
        fill: #e4ba86;
      }

      .cls-97 {
        fill: #e4b883;
      }

      .cls-98 {
        fill: #f0c189;
      }

      .cls-99 {
        fill: #e3bb88;
      }

      .cls-100 {
        fill: #e5dfc4;
      }

      .cls-101 {
        fill: #e5c796;
      }

      .cls-102 {
        fill: #e5c596;
      }

      .cls-103 {
        fill: #e5c899;
      }

      .cls-104 {
        fill: #f0d4a7;
      }

      .cls-105 {
        fill: #efeccc;
      }

      .cls-106 {
        fill: #faf5d9;
      }

      .cls-107 {
        fill: #e6c896;
      }

      .cls-108 {
        fill: #e6c28c;
      }

      .cls-109 {
        fill: #eccfa5;
      }

      .cls-110 {
        fill: #f0eacb;
      }

      .cls-111 {
        fill: #f1c28b;
      }

      .cls-112 {
        fill: #e8cc9c;
      }

      .cls-113 {
        fill: #f5f1d7;
      }

      .cls-114 {
        fill: #e8c292;
      }

      .cls-115 {
        fill: #e8c191;
      }

      .cls-116 {
        fill: #f3c899;
      }

      .cls-117 {
        fill: #033456;
      }

      .cls-118 {
        fill: #04314b;
      }

      .cls-119 {
        fill: #04324d;
      }

      .cls-120 {
        fill: #043656;
      }

      .cls-121 {
        fill: #6a2d12;
      }
    </style>
  </defs>
  <g id="Layer_1-2" data-name="Layer 1">
    <g>
      <path class="cls-92" d="m42.24,0c.79.13.98.49,1.46,1.13.62.81,1.25,1.58,1.94,2.32,1.07,1.18,2.05,2.43,3.02,3.69.29.38.59.75.89,1.12,1.4,1.74,2.67,3.54,3.87,5.42.11.17.22.34.33.51,3.44,5.39,7.4,11.7,6.69,18.41q-.22.62-.43,1.06c.13,0,.26,0,.39,0,7.3.14,14.39,1.64,21.49,3.25.23.05.46.1.69.16q.31.07.63.15c.18.04.36.08.54.13.49.14.9.3,1.34.57.22,1.05-.22,2.03-.77,2.9-.87,1.19-1.83,2.18-3.06,3-.21.16-.42.32-.64.48.26.78.45.81,1.16,1.2q.92.58,1.15,1.18c.05.33.1.66.15.99.15.76.62,1.19,1.16,1.74.15.16.31.33.46.49.83.79,1.75,1.41,2.69,2.05.14.1.28.2.42.3.13.09.25.17.38.26.38.37.45.62.51,1.14-.25.75-.38.8-1.04,1.18-.18.1-.35.21-.53.32-.19.11-.38.23-.58.34-2.34,1.41-4.57,2.95-6.8,4.52-1.01.72-2.03,1.43-3.05,2.14-.2.14-.4.28-.61.42-1.68,1.17-3.38,2.3-5.09,3.43-1.31.87-2.61,1.76-3.89,2.66-1.81,1.28-3.65,2.53-5.49,3.77-.14.1-.28.19-.43.29-.56.38-1.13.76-1.69,1.14q-3.64,2.44-7.22,4.97c-.17.12-.34.25-.52.38-.33.24-.66.49-.99.74q-.25.18-.5.37c-.14.11-.28.21-.42.32-.71.29-1.22.14-1.97-.01q-.62-.3-1.23-.68c-.23-.14-.46-.29-.7-.44-.12-.08-.24-.15-.37-.23-.66-.42-1.32-.82-1.98-1.23-.14-.08-.27-.17-.41-.26-1.48-.92-2.98-1.8-4.48-2.67-.26-.15-.53-.31-.79-.46-.5-.29-.99-.58-1.49-.87-2.53-1.47-5.04-2.97-7.55-4.48-1.48-.89-2.96-1.77-4.44-2.64-1.42-.84-2.85-1.68-4.26-2.54-1.71-1.03-3.43-2.05-5.15-3.07q-5.57-3.3-7.91-4.72c-.82-.49-1.64-.98-2.46-1.46-.52-.3-1.04-.61-1.55-.91-.37-.22-.74-.43-1.11-.64q-1.59-.95-1.93-1.59-.08-.4,0-1.08.27-.34.66-.56c.54-.33.9-.58,1.35-1.04q.53-.53.93-.71c.51-.25.77-.4,1.09-.88-.02-.56-.07-1.1-.13-1.66-.06-.67-.02-1.05.13-1.74.77-.7,1.75-.99,2.72-1.32.96-.34,1.38-.82,1.96-1.65-.15-.06-.31-.11-.47-.17-.61-.26-1.06-.58-1.59-.97-.77-.57-1.41-.88-2.32-1.14q-.53-.19-.93-.48c-.34-1.1-.13-2.05.33-3.08.61-.63,1.2-.88,2.01-1.17.33-.14.66-.29.98-.44.66-.3,1.32-.57,1.99-.84-.12-.16-.24-.33-.36-.5-.16-.21-.31-.43-.47-.65-.16-.21-.31-.42-.47-.64-.62-.87-.68-1.39-.61-2.47q.64-.43,1.29-.39c.21-.01.41-.03.62-.04.06-.16.12-.31.19-.47.3-.73.68-1.06,1.27-1.57.18-.16.37-.32.56-.49q1.28-1.07,1.93-1.16t.81-.62c.38-.62.74-.94,1.32-1.38.19-.14.37-.29.57-.44.19-.15.39-.3.59-.45.55-.45,1.1-.91,1.65-1.37q.47-.33.93-.42c.13-.04.26-.08.39-.13.06-.15.11-.3.17-.46.39-.9,1.08-1.34,1.84-1.93.31-.25.62-.49.93-.74.15-.12.3-.24.46-.36.55-.43,1.09-.87,1.63-1.32.18-.15.37-.3.55-.45.78-.64,1.54-1.29,2.31-1.95.91-.78,1.84-1.53,2.77-2.29.65-.54,1.29-1.08,1.94-1.63.96-.82,1.95-1.61,2.95-2.39,1.06-.82,2.07-1.68,3.05-2.59.75-.68,1.54-1.31,2.33-1.95.43-.35.84-.71,1.24-1.08q.56-.41,1.07-.5Z"/>
      <path class="cls-112" d="m7.08,28.36c1.28.03,2.08.63,2.98,1.49.49.59.95,1.18,1.41,1.79.69.91,1.43,1.75,2.21,2.58,1.13,1.2,2.14,2.47,3.13,3.79.42.56.84,1.11,1.26,1.66q.13.17.26.34c.52.68,1.04,1.35,1.57,2.02.76.97,1.51,1.94,2.26,2.91.11.14.22.29.34.44q3.53,4.61,3.49,6.79h.43c.17.34.33.69.48,1.04q.41.92,1.3,1.38c.18.04.37.09.56.13-.06.14-.11.27-.17.41-.01.15-.03.29-.04.44.53.19,1,.29,1.55.39.36.07.71.14,1.07.21.19.04.39.08.59.12,4.81,1.03,9.52,2.57,14.06,4.45.22.09.43.18.66.27.92.39,1.69.76,2.48,1.36.87.28,1.75.4,2.59-.02.15-.11.3-.21.45-.32.17-.12.33-.23.5-.35.77-.58,1.54-1.16,2.29-1.76,1.75-1.38,3.55-2.69,5.37-3.99,2.42-1.74,4.82-3.53,7.15-5.39.36-.29.73-.57,1.09-.86,3.09-2.4,6.1-4.94,8.84-7.74.89-.91,1.84-1.71,2.84-2.5.51-.41.96-.85,1.43-1.31.75-.67,1.31-.77,2.29-.72.5.11.87.22,1.29.52.22,1.05-.22,2.03-.77,2.9-.87,1.19-1.83,2.18-3.06,3-.21.16-.42.32-.64.48.26.78.45.81,1.16,1.2q.92.58,1.15,1.18c.05.33.1.66.15.99.15.76.62,1.19,1.16,1.74.15.16.31.33.46.49.83.79,1.75,1.41,2.69,2.05.14.1.28.2.42.3q.19.13.38.26c.38.37.45.62.51,1.14-.25.75-.38.8-1.04,1.18-.18.1-.35.21-.53.32-.19.11-.38.23-.58.34-2.34,1.41-4.57,2.95-6.8,4.52-1.01.72-2.03,1.43-3.05,2.14-.2.14-.4.28-.61.42-1.68,1.17-3.38,2.3-5.09,3.43-1.31.87-2.61,1.76-3.89,2.66-1.81,1.28-3.65,2.53-5.49,3.77-.14.1-.28.19-.43.29-.56.38-1.13.76-1.69,1.14q-3.64,2.44-7.22,4.97c-.17.12-.34.25-.52.38-.33.24-.66.49-.99.74-.16.12-.33.24-.5.37-.14.11-.28.21-.42.32-.71.29-1.22.14-1.97-.01q-.62-.3-1.23-.68c-.23-.14-.46-.29-.7-.44-.12-.08-.24-.15-.37-.23-.66-.42-1.32-.82-1.98-1.23q-.21-.13-.41-.26c-1.48-.92-2.98-1.8-4.48-2.67-.26-.15-.53-.31-.79-.46-.5-.29-.99-.58-1.49-.87-2.53-1.47-5.04-2.97-7.55-4.48-1.48-.89-2.96-1.77-4.44-2.64-1.42-.84-2.85-1.68-4.26-2.54-1.71-1.03-3.43-2.05-5.15-3.07q-5.57-3.3-7.91-4.72c-.82-.49-1.64-.98-2.46-1.46-.52-.3-1.04-.61-1.55-.91-.37-.22-.74-.43-1.11-.64q-1.59-.95-1.93-1.59-.08-.4,0-1.08.27-.34.66-.56c.54-.33.9-.58,1.35-1.04q.53-.53.93-.71c.51-.25.77-.4,1.09-.88-.02-.56-.07-1.1-.13-1.66-.06-.67-.02-1.05.13-1.74.77-.7,1.75-.99,2.72-1.32.96-.34,1.38-.82,1.96-1.65-.15-.06-.31-.11-.47-.17-.61-.26-1.06-.58-1.59-.97-.77-.57-1.41-.88-2.32-1.14q-.53-.19-.93-.48c-.34-1.1-.13-2.05.33-3.08.61-.63,1.2-.88,2.01-1.17.33-.14.66-.29.98-.44.66-.3,1.32-.57,1.99-.84-.12-.16-.24-.33-.36-.5-.16-.21-.31-.43-.47-.65-.16-.21-.31-.42-.47-.64-.62-.88-.64-1.39-.61-2.47.07-.07.14-.14.21-.21Z"/>
      <path class="cls-106" d="m62.52,33.66q.33.02.67.04c6.18.43,12.29,1.78,18.33,3.13.19.04.39.09.59.13.43.1.86.21,1.28.32v.21q-.27.07-.54.15c-.94.36-1.54.9-2.27,1.57-.14.12-.28.25-.42.38-.28.25-.56.5-.84.75-.32.29-.65.58-.98.87-.93.82-1.81,1.67-2.68,2.56-.94.95-1.92,1.8-2.97,2.63-.51.41-1,.84-1.48,1.28-.95.85-1.95,1.62-2.96,2.39-.56.43-1.12.86-1.68,1.3-1.9,1.49-3.82,2.93-5.78,4.34-1.03.73-2.04,1.48-3.06,2.23-.17.12-.34.25-.51.38-.88.65-1.75,1.3-2.61,1.97-.33.26-.67.52-1,.77-.37.29-.74.58-1.11.88-1.01.77-1.69.99-2.96.84-.52-.18-.86-.38-1.31-.68-1.12-.73-2.33-1.17-3.58-1.63-.25-.09-.49-.19-.75-.28-.72-.27-1.43-.53-2.15-.79-.17-.06-.35-.13-.53-.19-2.66-.96-5.39-1.66-8.12-2.37-1.52-.4-3.02-.82-4.53-1.26.34-.72.61-1.04,1.28-1.47.86-.58,1.7-1.17,2.53-1.78,2.5-1.83,5.08-3.54,7.67-5.25.91-.6,1.82-1.2,2.72-1.81.2-.13.41-.27.62-.41,1.24-.82,2.45-1.68,3.65-2.57q.45-.32.66-.32c.08.27.15.55.21.82.11.48.21.86.43,1.3q-.21.11-.43.21.37.04.74.09c2.14.27,4.2.69,6.28,1.28q.33.09.66.19c1.26.37,2.49.78,3.71,1.24,1,.36,2,.59,3.06.39q.55-.47.85-1.06v-.43c-1.34-.74-2.91-1.08-4.37-1.49-.63-.18-1.22-.39-1.83-.62-2.48-.93-5.07-1.55-7.7-1.83q-.55-.1-.98-.52c2.03-1.52,4.1-2.98,6.23-4.36.44-.29.89-.58,1.33-.87.69-.45,1.38-.9,2.08-1.34.3-.19.6-.39.9-.59,1.23-.77,2.23-.82,3.66-.71Z"/>
      <path class="cls-81" d="m4.52,47.5q.43.2.81.7c.59.71,1.25,1,2.08,1.35,1.32.59,2.61,1.22,3.88,1.91,3.93,2.1,8.03,3.91,12.15,5.59.02-.24.04-.47.07-.72.05-.25.1-.51.15-.77.79-.53,1.42-.55,2.34-.43.55.23.99.45,1.49.76.13.08.26.15.39.23,1.5.92,2.71,1.96,3.72,3.41.27.38.56.74.85,1.1q1.51,1.9,1.52,2.87.02.76.46,1.08c.16.1.31.19.48.3.17.11.35.22.53.33.18.11.36.22.55.34.34.21.67.43,1.01.64.36.23.73.46,1.09.69,2.12,1.34,4.22,2.73,6.31,4.13.67.45,1.34.89,2.01,1.34q.32.22.65.44c.2.13.41.27.62.41q.27.18.55.36c.55.3.96.45,1.58.49q.43-.17.81-.49c.15-.11.3-.22.45-.34.16-.12.32-.25.48-.37.34-.26.69-.51,1.03-.77.18-.13.35-.27.53-.4.81-.61,1.63-1.2,2.45-1.79.16-.11.32-.23.48-.35,1.07-.77,2.14-1.53,3.21-2.28,1.28-.9,2.54-1.82,3.8-2.75,3.06-2.27,6.2-4.43,9.35-6.57.54-.37,1.09-.74,1.63-1.11.19-.13.38-.26.57-.39.97-.66,1.79-1.33,2.62-2.16.68-.51,1.37-.99,2.07-1.47.18-.13.36-.25.55-.38.54-.38,1.08-.75,1.63-1.12.18-.12.36-.24.54-.37.17-.11.34-.23.51-.35q.23-.15.46-.31.4-.25,1.04-.46c1.08.28,1.94,1.01,2.82,1.67.16.11.31.23.47.34q.22.17.45.33c.13.1.27.2.41.3.38.39.47.63.53,1.17-.25.75-.38.8-1.04,1.18-.18.1-.35.21-.53.32-.19.11-.38.23-.58.34-2.34,1.41-4.57,2.95-6.8,4.52-1.01.72-2.03,1.43-3.05,2.14-.2.14-.4.28-.61.42-1.68,1.17-3.38,2.3-5.09,3.43-1.31.87-2.61,1.76-3.89,2.66-1.81,1.28-3.65,2.53-5.49,3.77-.14.1-.28.19-.43.29-.56.38-1.13.76-1.69,1.14q-3.64,2.44-7.22,4.97c-.17.12-.34.25-.52.38-.33.24-.66.49-.99.74-.16.12-.33.24-.5.37-.14.11-.28.21-.42.32-.71.29-1.22.14-1.97-.01q-.62-.3-1.23-.68c-.23-.14-.46-.29-.7-.44-.12-.08-.24-.15-.37-.23-.66-.42-1.32-.82-1.98-1.23q-.21-.13-.41-.26c-1.48-.92-2.98-1.8-4.48-2.67-.26-.15-.53-.31-.79-.46-.5-.29-.99-.58-1.49-.87-2.53-1.47-5.04-2.97-7.55-4.48-1.48-.89-2.96-1.77-4.44-2.64-1.42-.84-2.85-1.68-4.26-2.54-1.71-1.03-3.43-2.05-5.15-3.07q-5.57-3.3-7.91-4.72c-.82-.49-1.64-.98-2.46-1.46-.52-.3-1.04-.61-1.55-.91-.37-.22-.74-.43-1.11-.64q-1.59-.95-1.93-1.59-.08-.4,0-1.08.27-.34.66-.56c.54-.33.9-.58,1.35-1.04.42-.42.82-.78,1.29-1.14.12-.09.24-.18.36-.28q.37-.17.79-.16Z"/>
      <path class="cls-61" d="m84.24,37.5q.48.17.85.43c.22,1.05-.22,2.03-.77,2.9-.87,1.19-1.83,2.18-3.06,3-.21.16-.42.32-.64.48.26.78.45.81,1.16,1.2q.92.58,1.15,1.18c.05.33.1.66.14.99.16.77.63,1.17,1.16,1.74.07.21.14.42.21.64-.16.02-.31.05-.48.07-.63.15-.95.34-1.46.73-.73.53-1.47,1.05-2.22,1.56q-2.1,1.37-4.03,2.96c-1.34,1.26-2.93,2.23-4.45,3.25-2.68,1.8-5.32,3.64-7.93,5.54-.79.58-1.59,1.15-2.39,1.73-.32.23-.64.46-.96.69-.64.46-1.28.92-1.91,1.38-.16.11-.32.23-.48.35-.32.23-.63.46-.95.69-.82.59-1.64,1.18-2.45,1.77-1.64,1.18-3.27,2.37-4.94,3.52-.27-.54-.16-.7,0-1.28.12-.67.15-1.25,0-1.91-.83-1.13-2.17-1.8-3.34-2.52-.89-.58-1.73-1.22-2.57-1.87q-.23-.18-.46-.35c-.87-.67-1.72-1.36-2.55-2.06q.64-.21,1.28.06c.26.14.52.28.78.43.14.08.28.15.42.23,1.09.6,2.15,1.24,3.21,1.9.14.09.29.18.44.27q1.03.65,1.42,1.06c.72.68,1.72.73,2.66.73q.52-.46,1.06-1.06c.39-.34.78-.67,1.18-.99q.34-.27.52-.71c-.17-.04-.33-.08-.5-.12-.22-.05-.43-.11-.65-.16-.21-.05-.43-.1-.65-.16-.18-.07-.35-.13-.53-.2-.07-.21-.14-.42-.21-.64q-.39-.12-.85-.21c-.33-.16-.65-.33-.97-.51-2.75-1.5-5.51-2.72-8.47-3.76-.47-.17-.94-.34-1.4-.52-2.85-1.07-5.67-1.71-8.71-1.8q.02-.42.21-.85c2.09-.42,4.18.25,6.16.85.65.16,1.29.33,1.94.49.13.05.26.1.4.15v.43c.42.08.85.15,1.28.21.54.18,1.07.37,1.59.57q.22.08.45.17c1.25.48,2.48,1,3.7,1.53.21.09.42.18.64.28.18.08.35.16.53.24.62.22,1.2.33,1.86.4q.34.05.68.09c1.11-.14,1.79-.7,2.67-1.37q.22-.17.45-.34c.45-.35.9-.7,1.34-1.06,1.75-1.38,3.55-2.69,5.37-3.99,2.42-1.74,4.82-3.53,7.15-5.39.36-.29.73-.57,1.09-.86,3.09-2.4,6.1-4.94,8.84-7.74.89-.91,1.84-1.71,2.84-2.5.51-.41.96-.85,1.43-1.31.85-.76,1.63-.86,2.74-.62Z"/>
      <path class="cls-54" d="m.07,50.89c.98.29,1.84.7,2.72,1.21.14.08.29.16.44.25,3.45,1.98,6.83,4.07,10.22,6.13,1.68,1.02,3.36,2.03,5.05,3.02,1.75,1.03,3.48,2.09,5.2,3.17.63.4,1.26.79,1.9,1.19.21.13.42.26.64.4.62.36,1.25.68,1.88,1,.45.26.9.53,1.34.8.28.17.56.34.84.51.16.09.31.19.48.29q4,2.43,8.07,4.76c1.08.6,2.13,1.26,3.17,1.92q3.4,2.14,6.93,4.06c-.01-.14-.03-.28-.04-.43q-.02-.28-.03-.57t-.04-.56c.26-1.19,1.81-1.93,2.79-2.57.28-.19.57-.37.85-.56.15-.1.3-.2.46-.3.89-.59,1.78-1.19,2.67-1.79.19-.13.38-.26.58-.39.39-.27.79-.53,1.18-.8.4-.27.79-.53,1.19-.8,2.15-1.45,4.3-2.9,6.41-4.41,1.11-.79,2.24-1.54,3.39-2.27.53-.34.96-.64,1.33-1.15.56-.73,1.44-.98,2.26-1.35.62-.34.82-.63,1.24-1.18.35-.15.71-.29,1.06-.43q.44-.35.86-.77,2.87-2.63,4.45-2.63c.08-.28.15-.57.21-.85.4-.21.81-.41,1.22-.6.51-.27.89-.58,1.31-.97,1.43-1.29,2.6-2.23,4.59-2.31q.52.05,1.19.41c.39.48.57.73.61,1.34-.25.75-.38.8-1.04,1.18-.18.1-.35.21-.53.32-.19.11-.38.23-.58.34-2.34,1.41-4.57,2.95-6.8,4.52-1.01.72-2.03,1.43-3.05,2.14-.2.14-.4.28-.61.42-1.68,1.17-3.38,2.3-5.09,3.43-1.31.87-2.61,1.76-3.89,2.66-1.81,1.28-3.65,2.53-5.49,3.77-.14.1-.28.19-.43.29-.56.38-1.13.76-1.69,1.14q-3.64,2.44-7.22,4.97c-.17.12-.34.25-.52.38-.33.24-.66.49-.99.74-.16.12-.33.24-.5.37-.14.11-.28.21-.42.32-.71.29-1.22.14-1.97-.01q-.62-.3-1.23-.68c-.23-.14-.46-.29-.7-.44-.12-.08-.24-.15-.37-.23-.66-.42-1.32-.82-1.98-1.23-.14-.08-.27-.17-.41-.26-1.48-.92-2.98-1.8-4.48-2.67-.26-.15-.53-.31-.79-.46-.5-.29-.99-.58-1.49-.87-2.53-1.47-5.04-2.97-7.55-4.48-1.48-.89-2.96-1.77-4.44-2.64-1.43-.84-2.85-1.68-4.26-2.54-1.71-1.03-3.43-2.05-5.15-3.07-2.86-1.69-5.71-3.39-8.55-5.11-.61-.36-1.22-.72-1.83-1.08-.52-.3-1.04-.61-1.55-.92-.37-.22-.74-.43-1.11-.64-.22-.13-.44-.27-.67-.4-.2-.12-.39-.23-.6-.35-.58-.53-.61-.92-.66-1.68Z"/>
      <path class="cls-64" d="m81.18,45.1c.63.33,1.1.57,1.57,1.11.13.48.22.95.3,1.43.2.77.66,1.18,1.19,1.75.07.21.14.42.21.64-.16.02-.31.05-.48.07-.63.15-.95.34-1.46.73-.73.53-1.47,1.05-2.22,1.56q-2.1,1.37-4.03,2.96c-1.34,1.26-2.93,2.23-4.45,3.25-2.68,1.8-5.32,3.64-7.93,5.54-.79.58-1.59,1.15-2.39,1.73-.32.23-.64.46-.96.69-.64.46-1.28.92-1.91,1.38-.16.11-.32.23-.48.35-.32.23-.63.46-.95.69-.82.59-1.64,1.18-2.45,1.77-1.64,1.18-3.27,2.37-4.94,3.52-.27-.54-.16-.7,0-1.28.12-.67.15-1.25,0-1.91-.83-1.13-2.17-1.8-3.34-2.52-.89-.58-1.73-1.22-2.57-1.87-.15-.12-.3-.23-.46-.35-.87-.67-1.72-1.36-2.55-2.06q.64-.21,1.28.06c.26.14.52.28.78.43.14.08.28.15.42.23,1.09.6,2.15,1.24,3.21,1.9.14.09.29.18.44.27q1.03.65,1.42,1.06c.72.68,1.72.73,2.66.73q.52-.46,1.06-1.06c1.07-1,2.25-1.83,3.45-2.66,1.47-1.01,2.91-2.05,4.34-3.11,1.25-.93,2.51-1.84,3.79-2.74,1.46-1.02,2.89-2.07,4.32-3.13,1.14-.85,2.29-1.69,3.45-2.52.16-.11.31-.22.47-.34.65-.47,1.29-.93,1.94-1.39.51-.37,1.02-.73,1.52-1.1q.24-.17.49-.35c.99-.71,1.95-1.44,2.89-2.21q.33-.23.75-.23.1-.86,0-1.7-.52-.28-1.06-.43,0-.85.4-1.28c.92-.3,1.43-.02,2.28.38Z"/>
      <path class="cls-73" d="m43.64,12.63c1.61.24,2.45,1.26,3.4,2.53,1.79,2.48,3.29,5.03,4.64,7.77.12.25.25.5.38.75q1.54,3.1,1.15,4.47c-.62.59-1.35.92-2.13,1.28-.21.1-.43.21-.65.31q-1.58.75-2.12.75c-.59-.92-1.09-1.89-1.18-2.99-.03-.21-.06-.41-.09-.62-.14-.03-.28-.07-.43-.11-.14-.04-.28-.07-.43-.11-.02-.22-.05-.44-.08-.67-.16-.95-.44-1.34-1.05-2.08-.19-.24-.39-.48-.58-.73-.1-.13-.2-.25-.31-.38-.65-.81-1.26-1.65-1.88-2.48-.56-.75-1.13-1.5-1.71-2.24-.12-.15-.24-.3-.36-.46-.23-.29-.46-.58-.69-.87-.51-.66-.76-1.03-.88-1.87.03-.18.07-.37.1-.56q.53-.25,1.06-.43v-.64c.79.04,1.05.2,1.63.76.21.24.41.49.61.74.11.13.22.26.33.4,1.77,2.16,3.52,4.36,4.86,6.81.13-1.36-.23-2.02-.97-3.1-.2-.3-.39-.6-.58-.9-.1-.15-.19-.3-.29-.45-.42-.67-.8-1.35-1.16-2.05-.12-.23-.24-.46-.36-.69-.28-.76-.3-1.36-.25-2.16Z"/>
      <path class="cls-25" d="m2.1,49.74c.96.39,1.8.92,2.67,1.48.4.25.8.5,1.2.75.21.13.43.27.65.41,1.18.73,2.36,1.45,3.54,2.17.12.08.25.15.38.23,2.05,1.24,4.11,2.46,6.17,3.66,1.92,1.12,3.82,2.26,5.71,3.41,3.65,2.23,7.36,4.36,11.11,6.44,2.1,1.17,4.17,2.38,6.24,3.61,1.72,1.03,3.45,2.04,5.18,3.04.23.13.45.26.69.4.21.12.43.25.65.37.2.12.4.23.61.35.52.28,1.03.52,1.57.75.23.14.46.27.69.41q.12.59,0,1.22c-.03.21-.07.42-.11.63-.04.16-.07.32-.11.48-.95-.28-1.73-.66-2.57-1.18-.12-.07-.24-.15-.37-.22-.26-.16-.51-.32-.77-.47-.54-.33-1.07-.66-1.61-.99-.27-.16-.53-.33-.8-.49-1-.61-2-1.21-3-1.8-.14-.08-.27-.16-.42-.24-1.19-.69-2.39-1.37-3.58-2.05-1.67-.95-3.31-1.93-4.94-2.95-1.36-.85-2.71-1.68-4.13-2.43-1.05-.56-2.05-1.16-3.04-1.81-1.38-.9-2.79-1.75-4.2-2.61-.13-.08-.26-.16-.39-.24-1.87-1.13-3.75-2.25-5.63-3.36-1.47-.86-2.93-1.74-4.39-2.62-1.74-1.04-3.48-2.09-5.22-3.12q-.28-.17-.57-.34c-1.06-.63-2.13-1.21-3.24-1.75q1.29-1.32,2.03-1.15Z"/>
      <path class="cls-91" d="m8.84,32.75c.78.1.98.39,1.48.99q.25.29.5.59c.17.2.34.41.51.62q.24.29.48.59c.32.39.64.78.95,1.17.46.56.94,1.1,1.43,1.64.81.89,1.58,1.81,2.33,2.75.63.76,1.28,1.51,1.93,2.26.91,1.04,1.8,2.1,2.66,3.19.47.58.95,1.15,1.44,1.71,1.16,1.39,2.18,2.87,3.19,4.37.17.25.34.5.51.75q.59.86.59,1.33h.42v.43c-.7.12-1,.05-1.58-.36-.55-.49-.92-.97-1.33-1.58-1.33-1.88-3-3.38-4.74-4.86-.27-.24-.54-.48-.81-.72-.94-.82-1.91-1.62-2.89-2.41-.37-.3-.75-.61-1.12-.91-1.36-1.11-2.71-2.15-4.21-3.07-1.2-.74-2.34-1.57-3.46-2.42-.14-.1-.28-.21-.43-.32-.28-.21-.55-.42-.83-.63-.79-.59-1.47-.92-2.41-1.22-.06-.74.2-1.05.65-1.62.63-.51,1.12-.73,1.87-.98.95-.34,1.91-1.16,2.85-1.29Z"/>
      <path class="cls-72" d="m78.53,45.62c.48.21.72.39,1.03.81q.3,1,0,1.7c-.58.58-1.25.99-1.93,1.43-.8.54-1.57,1.13-2.34,1.7-1.29.95-2.59,1.89-3.91,2.82-1.46,1.02-2.89,2.07-4.32,3.13-1.61,1.19-3.24,2.37-4.87,3.54-.48.35-.96.69-1.44,1.04-1.62,1.17-3.25,2.34-4.88,3.5-.15.11-.31.22-.47.33q-1.08.76-1.55,1v-.43c-.6-.18-1.2-.3-1.81-.43q-.53-.21-.78-.61c.01-.15.02-.3.03-.45q.42-.36,1.04-.7c1.01-.6,1.91-1.24,2.82-1.98q.4-.29,1.04-.51c.24-.25.48-.5.72-.75.92-.86,1.83-1.59,3.1-1.59v-.64c.13-.03.26-.06.4-.09.15-.04.3-.08.45-.12.06-.13.12-.26.18-.39.31-.58.65-.8,1.2-1.15.17-.11.34-.22.51-.34q.44-.25.87-.25c.07-.21.14-.42.21-.64q.31-.26.71-.52c.15-.1.3-.2.45-.3.16-.1.33-.21.5-.32.35-.23.7-.46,1.05-.69.18-.12.37-.24.56-.36,2.37-1.57,4.67-3.24,6.96-4.92.17-.12.34-.25.51-.38.69-.51,1.38-1.02,2.05-1.57q1.21-.96,1.91-.9Z"/>
      <path class="cls-4" d="m30.89,58.54c.9.13,1.59.65,2.34,1.13.3.19.61.39.91.58.16.1.32.2.49.31.91.57,1.83,1.12,2.75,1.68.18.11.35.21.53.32.78.47,1.55.91,2.37,1.3.88.43,1.6,1,2.35,1.63,1.42,1.17,2.89,2.22,4.42,3.25.39.27.79.54,1.18.81.16.11.32.22.49.34q1.25.94,1.4,1.65-.08,1.98-.52,2.73c-.93-.22-1.64-.62-2.43-1.15q-.32-.22-.65-.44c-.22-.15-.44-.3-.67-.46-.22-.15-.43-.29-.66-.44-.44-.3-.88-.59-1.32-.89-1.84-1.25-3.7-2.47-5.59-3.66q-4.01-2.53-4.42-2.95v-.7c-.17-1.63-1.6-2.92-2.61-4.13q-.36-.48-.36-.91Z"/>
      <path class="cls-78" d="m81.68,45.36q.66.35,1.06.85c.15.74.19,1.39,0,2.13q-.58.29-1.28.43c-.29.28-.57.56-.85.85-.33.22-.67.43-1.01.64-1.02.63-1.97,1.32-2.92,2.05-1.41,1.07-2.85,2.08-4.31,3.07-1.32.9-2.62,1.83-3.92,2.77-1.17.85-2.36,1.66-3.55,2.47-1.3.88-2.53,1.79-3.73,2.81-.78.63-1.61,1.16-2.45,1.71-1.78,1.19-3.46,2.54-5.13,3.87-.75.59-1.49,1.18-2.32,1.66-.21-.07-.42-.14-.64-.21.26-.73.51-1.17,1.06-1.7q.14-.25.28-.5c1.01-1.59,2.96-2.6,4.49-3.64,1.15-.78,2.27-1.6,3.39-2.43,1.27-.94,2.54-1.87,3.84-2.78,1.46-1.02,2.89-2.07,4.32-3.13,1.14-.85,2.29-1.69,3.45-2.52.16-.11.31-.22.47-.34.65-.47,1.29-.93,1.94-1.39.51-.37,1.02-.73,1.52-1.1q.24-.17.49-.35c.99-.71,1.95-1.44,2.9-2.21q.33-.23.75-.23.1-.86,0-1.7-.52-.28-1.06-.43,0-.85.4-1.28c1.07-.34,1.83.15,2.79.64Z"/>
      <path class="cls-88" d="m16.65,33.46c2.49.89,4.17,3.37,5.53,5.53.08.2.15.4.23.61.06.15.13.3.19.46.21.07.42.14.64.21.48.59.86,1.26,1.26,1.91.12.2.24.39.36.59,1.49,2.47,2.98,5.16,3.9,7.91q-.37.39-.89.78-.25.2-.51.4-.51.3-1.36.3c-.09-.38-.18-.76-.26-1.14-.77-2.61-2.82-4.83-4.49-6.92-.5-.63-.99-1.26-1.47-1.89-.6-.79-1.21-1.57-1.82-2.36-.26-.34-.53-.69-.79-1.03-.36-.47-.73-.94-1.09-1.4-.18-.23-.36-.46-.54-.69-.16-.2-.32-.41-.49-.62-.11-.17-.21-.35-.32-.52.23-.7.47-.96,1-1.46q.21-.21.43-.42c.16-.08.32-.16.49-.24Z"/>
      <path class="cls-19" d="m.07,50.89c.98.29,1.84.7,2.72,1.21.14.08.29.16.44.25,3.45,1.98,6.83,4.07,10.22,6.13,1.68,1.02,3.36,2.03,5.05,3.02,1.75,1.03,3.48,2.09,5.2,3.17.63.4,1.26.79,1.9,1.19.21.13.42.26.64.4.62.36,1.25.68,1.88,1,.45.26.9.53,1.34.8.28.17.56.34.84.51.16.09.31.19.48.29q4,2.43,8.07,4.76c1.08.6,2.13,1.26,3.17,1.92q3.4,2.14,6.93,4.06v1.06c.14.07.28.14.43.21-1.08-.1-1.8-.32-2.72-.9-.23-.14-.46-.29-.7-.44-.12-.08-.24-.15-.37-.23-.66-.42-1.32-.82-1.98-1.23-.14-.08-.27-.17-.41-.26-1.48-.92-2.98-1.8-4.48-2.67-.26-.15-.53-.31-.79-.46-.5-.29-.99-.58-1.49-.87-2.53-1.47-5.04-2.97-7.55-4.48-1.48-.89-2.96-1.77-4.44-2.64-1.43-.84-2.85-1.68-4.26-2.54-1.71-1.03-3.43-2.05-5.15-3.07-2.86-1.69-5.71-3.39-8.55-5.11-.61-.36-1.22-.72-1.83-1.08-.52-.3-1.04-.61-1.55-.92-.37-.22-.74-.43-1.11-.64-.22-.13-.44-.27-.67-.4-.2-.12-.39-.23-.6-.35-.58-.53-.61-.92-.66-1.68Z"/>
      <path class="cls-5" d="m4.11,44.09q.43.07.85.21v.64q.39.28.9.51c.19.09.39.19.59.29.21.1.42.2.64.3.43.21.87.42,1.3.63.21.1.43.21.65.31.65.31,1.3.64,1.94.97,3.76,1.9,7.6,3.66,11.46,5.34.18.08.35.15.54.23.34.15.68.29,1.02.44q1.14.5,1.38.97c-.24.07-.47.15-.72.23q-.42.15-.77.41c-.06.27-.11.54-.17.82-.08.22-.17.44-.25.66-1.68-.13-3.41-1.19-4.9-1.9-.26-.12-.52-.25-.78-.37-.8-.38-1.59-.75-2.39-1.13-.24-.12-.49-.23-.74-.35-1.53-.73-3.05-1.46-4.57-2.2-.18-.09-.36-.17-.54-.26-.47-.23-.94-.46-1.41-.69-.13-.06-.26-.13-.4-.19-1.3-.65-2.42-1.38-3.39-2.46-.24-.73-.23-1.29-.23-2.06,0-.25,0-.5,0-.76,0-.19,0-.38,0-.58Z"/>
      <path class="cls-70" d="m31.74,58.33c3.12-.2,5.99.61,8.88,1.73.35.14.7.27,1.05.4,2.9,1.1,5.68,2.3,8.39,3.82.28.15.56.29.84.43q.4.21.71.53c.41.4.78.51,1.32.67q.26.08.52.16c.13.04.26.08.4.12-.32.79-.78,1.23-1.43,1.78-.18.16-.36.31-.54.47q-.57.3-1.15.21c-.97-.46-1.9-.96-2.84-1.47-.21-.11-.41-.23-.62-.34-1.39-.76-2.76-1.55-4.13-2.34-3.24-1.87-6.56-3.61-9.97-5.15q-1.18-.54-1.42-1.01Z"/>
      <path class="cls-14" d="m26,55.14c.55.23.99.45,1.49.76.13.08.26.15.39.23,1.5.92,2.71,1.96,3.72,3.41.27.38.56.74.85,1.1q1.54,1.91,1.73,2.94c-.11.23-.21.46-.32.69-2.16.45-4.27-.09-6.13-1.22-1.88-1.29-3.66-2.89-4.28-5.16-.14-.93-.17-1.63.32-2.46.73-.42,1.41-.41,2.23-.31Z"/>
      <path class="cls-74" d="m26,25.6c.57.25.84.44,1.28.85.11.1.22.21.34.32.96.94,1.78,1.94,2.57,3.03.13.18.26.35.39.53,2.42,3.35,4.36,6.8,6.05,10.57.07.15.13.29.2.44.4.89.55,1.55.43,2.53-.41.62-.98.9-1.7,1.06q-.33-.44-.61-1.14c-.11-.26-.22-.51-.33-.78-.11-.28-.22-.56-.34-.84-1.98-4.88-4.92-9.02-8.38-12.97q-1.02-1.17-1.4-1.7.09-.43.43-.85c.16-.21.32-.42.48-.64.19-.14.39-.28.58-.43Z"/>
      <path class="cls-74" d="m32.21,13.27c.57.25.84.44,1.28.85.11.1.22.21.34.32.96.94,1.78,1.94,2.57,3.03.13.18.26.35.39.53,2.42,3.35,4.36,6.8,6.05,10.57.07.15.13.29.2.44.4.89.55,1.55.43,2.53-.41.62-.98.9-1.7,1.06q-.33-.44-.61-1.14c-.11-.26-.22-.51-.33-.78-.11-.28-.22-.56-.34-.84-1.98-4.88-4.92-9.02-8.38-12.97q-1.02-1.17-1.4-1.7.09-.43.43-.85c.16-.21.32-.42.48-.64.19-.14.39-.28.58-.43Z"/>
      <path class="cls-74" d="m33.96,22.63c.38.17.57.3.87.58.08.07.15.14.23.22.66.64,1.21,1.32,1.75,2.06.09.12.17.24.26.36,1.64,2.28,2.97,4.63,4.12,7.19.05.1.09.2.14.3.27.61.37,1.06.3,1.72-.28.42-.67.61-1.16.72q-.22-.3-.42-.78c-.07-.18-.15-.35-.22-.53-.08-.19-.15-.38-.23-.57-1.35-3.32-3.35-6.14-5.7-8.82q-.69-.8-.95-1.16.06-.29.29-.58c.11-.14.21-.29.33-.43.13-.1.26-.19.4-.29Z"/>
      <path class="cls-118" d="m88.49,53.01q.21.64,0,1.28-.36.27-.83.55c-.18.1-.35.21-.53.32-.19.11-.38.23-.58.34-2.34,1.41-4.57,2.95-6.8,4.52-1.01.72-2.03,1.43-3.05,2.14-.2.14-.4.28-.61.42-1.68,1.17-3.38,2.3-5.09,3.43-1.31.87-2.61,1.76-3.89,2.66-1.81,1.28-3.65,2.53-5.49,3.77-.14.1-.28.19-.43.29-.56.38-1.13.76-1.69,1.14q-4.39,2.93-8.65,6.04c-.72.54-.97.73-1.9.73q-.12-.48,0-1.06.45-.4,1.09-.78c.23-.15.47-.29.71-.44q.19-.12.38-.23c.49-.31.96-.65,1.43-.99,1.14-.82,2.28-1.63,3.44-2.43.14-.1.29-.2.44-.3,1.77-1.21,3.55-2.41,5.33-3.6,3.89-2.62,7.77-5.26,11.6-7.98.15-.11.3-.21.46-.32.15-.1.29-.21.44-.31,1.08-.76,2.17-1.5,3.26-2.22,1.06-.7,2.11-1.42,3.16-2.14.94-.65,1.88-1.29,2.82-1.93.12-.08.24-.16.37-.25.61-.41,1.22-.82,1.82-1.24.22-.15.44-.3.67-.46.2-.14.4-.27.61-.41q.76-.53,1.52-.53Z"/>
      <path class="cls-100" d="m9.63,42.17c.97.08,1.55.52,2.34,1.06.18.12.36.23.54.35,3.14,2.05,6.13,4.25,8.81,6.88.21.2.42.41.63.61q1.46,1.42,1.7,2.15c-.71-.28-1.39-.58-2.07-.93-.2-.1-.39-.2-.59-.3q-.32-.16-.64-.33c-3.36-1.69-6.78-3.27-10.21-4.82-.22-.1-.43-.2-.66-.3-.41-.18-.81-.36-1.22-.54-.18-.08-.36-.16-.54-.24q-.23-.1-.47-.21t-.81-.62q-.09-.5,0-1.06c.73-.8,1.57-1.06,2.57-1.36q.4-.1.61-.34Z"/>
      <path class="cls-68" d="m53.42,51.74c-.36.95-.75,1.62-1.49,2.34-1.17.3-2.05.12-3.16-.25-.32-.1-.65-.2-.97-.3-.16-.05-.33-.1-.49-.15-2.65-.8-5.35-1.2-8.09-1.57-.25-.03-.5-.07-.76-.1-.23-.03-.45-.06-.68-.09q-.51-.09-.73-.3-.16-1.14,0-1.7c5.11-1.8,11.5.51,16.37,2.13Z"/>
      <path class="cls-63" d="m61.78,36.14c.17,0,.34,0,.51,0,3.97,0,8.92.15,12.59,1.78q0,.64-.35,1.03c-1.45,1.12-2.69,1.35-4.5,1.17-.53-.09-1.02-.22-1.54-.36-2.23-.58-4.54-.78-6.82-1.07-.62-.08-1.24-.16-1.86-.24-.19-.02-.37-.05-.57-.07-1.19-.16-2.41-.35-3.49-.89v-.43c1.95-.96,3.89-.92,6.03-.93Z"/>
      <path class="cls-57" d="m53.2,38.77c5.13-.25,10.67.72,15.62,2.03q.24.06.49.13.44.13,1.1.39,0,.64-.24.99c-.56.55-.99.91-1.8.96-1.63-.17-3.2-.48-4.79-.87-3.15-.73-6.2-1.08-9.42-1.22-1.04-.04-2.06-.14-3.09-.28.58-.49,1.08-.86,1.78-1.18q.28-.15.56-.31c-.07-.21-.14-.42-.21-.64Z"/>
      <path class="cls-116" d="m7.08,28.36c1.01-.07,1.73.42,2.5,1.02.71.69,1.3,1.46,1.89,2.25.69.91,1.43,1.75,2.21,2.58,1.14,1.2,2.14,2.47,3.13,3.79.42.56.84,1.11,1.26,1.66.09.11.17.22.26.34.52.68,1.04,1.35,1.57,2.02.76.97,1.51,1.94,2.26,2.91.11.14.22.29.34.44q2.74,3.58,3.49,5.51-.07.5-.21.85c-1.37-1.48-2.69-3.02-3.7-4.77-.42-.67-.91-1.25-1.43-1.84-.21-.25-.42-.49-.63-.74q-.16-.18-.32-.37c-.44-.51-.86-1.04-1.28-1.56-.77-.95-1.57-1.86-2.4-2.76-1.96-2.16-3.84-4.4-5.72-6.63-.37-.43-.73-.87-1.1-1.3-.15-.17-.29-.35-.45-.53-.13-.15-.26-.3-.39-.46-.11-.13-.21-.25-.32-.38q-.33-.36-.79-.66c-.13-.1-.25-.2-.39-.31q-.03-.58.21-1.06Z"/>
      <path class="cls-59" d="m47.89,41.96c3.49-.87,8.21,1.42,11.41,2.53.96.32,1.93.61,2.9.89q.57.19,1.21.62c-.18.71-.43,1.3-1.06,1.7-1.83.24-3.52-.52-5.22-1.11-2.94-1.01-5.88-1.67-8.97-2.09-.44-.06-.89-.13-1.33-.2v-.21c.42-.08.85-.15,1.28-.21-.14-.21-.28-.42-.43-.64q-.08-.68.21-1.28Z"/>
      <path class="cls-73" d="m39.81,13.27c.79.04,1.05.2,1.63.76.21.24.41.49.61.74.11.13.22.26.33.4q5.29,6.43,5.29,7.88h-.43c-.07.64-.11,1.27-.13,1.91,0,.18-.02.36-.02.55-.02.45-.04.91-.05,1.36q-.42-.06-.85-.21c-.07-.5-.14-.99-.21-1.49q-.39-.65-.92-1.26c-.19-.24-.39-.48-.58-.73-.1-.13-.2-.25-.31-.38-.65-.81-1.26-1.65-1.88-2.48-.56-.75-1.13-1.5-1.71-2.24-.12-.15-.24-.3-.36-.46-.23-.29-.46-.58-.69-.87-.51-.66-.76-1.03-.88-1.87.03-.18.07-.37.1-.56q.53-.25,1.06-.43v-.64Z"/>
      <path class="cls-111" d="m3.47,36.65c1.28.07,1.99.66,2.95,1.42.14.11.28.22.43.33.29.22.57.45.86.67.59.45,1.18.89,1.78,1.32q.35.29.78.93c.18.1.35.2.53.31.56.35.72.57.96,1.18-.54-.11-1.07-.21-1.59-.37-.72-.07-1,.19-1.59.58-.42.14-.85.29-1.28.43q-.68.35-.76.94t.66.93c.26.13.53.25.79.37.15.07.3.14.45.21.54.25,1.08.5,1.62.74.44.21.89.41,1.33.62.74.35,1.49.69,2.23,1.03,1.78.82,3.55,1.66,5.32,2.51.26.13.53.25.79.38,1.19.57,2.39,1.15,3.56,1.77.15.08.3.16.45.24q.34.25.55.88c-1.92-.58-3.73-1.41-5.55-2.23-.17-.08-.34-.15-.51-.23-4.07-1.82-8.12-3.68-12.04-5.83-.33-.18-.67-.35-1.02-.52q-.43-.33-.71-.84.03-.27.06-.54c.55-.35,1.04-.6,1.63-.85,1.13-.49,1.92-.85,2.62-1.91-.15-.06-.31-.11-.47-.17-.61-.26-1.06-.58-1.59-.97-.76-.56-1.43-.9-2.32-1.18q-.53-.19-.93-.44c-.2-.64-.11-1.02,0-1.7Z"/>
      <path class="cls-69" d="m42.58,52.59q.34.07.7.15c.77.16,1.54.33,2.31.49q.37.08.75.16c1.22.27,2.35.57,3.48,1.11q-.96,1.54-1.7,1.91c-.94-.09-1.81-.36-2.7-.64-4.03-1.24-8.2-1.74-12.39-2.12,2.58-2.69,6.27-1.76,9.56-1.06Z"/>
      <path class="cls-30" d="m.07,50.89c.98.29,1.84.7,2.72,1.21.14.08.29.16.44.25,2.3,1.32,4.56,2.7,6.83,4.07q.19.12.38.23,3.46,2.1,4.87,2.96c.49.3.99.6,1.49.89.13.08.26.15.39.23.36.21.72.42,1.08.63.17.12.33.25.51.37v.64q.32.11.64.21.15.15.3.3c.49.49,1.06.7,1.69.98q.17.1.35.21v.43c.48.12.96.19,1.45.26q.23.08.46.16c.06.13.12.27.19.41.29.54.52.66,1.07.92.16.08.32.16.49.24.17.08.34.16.51.25.34.16.67.33,1,.49.15.07.3.14.45.22.11.08.21.15.33.23v.64c-1.2-.33-2.17-.92-3.21-1.57-.38-.23-.77-.47-1.15-.7-.19-.12-.39-.24-.59-.36-.84-.51-1.69-1.02-2.53-1.53-.17-.1-.34-.2-.51-.31-1.55-.93-3.11-1.85-4.66-2.78-2.86-1.69-5.71-3.39-8.55-5.11-.61-.36-1.22-.72-1.83-1.08-.52-.3-1.04-.61-1.55-.92-.37-.22-.74-.43-1.11-.64-.22-.13-.44-.27-.67-.4-.2-.12-.39-.23-.6-.35-.58-.53-.61-.92-.66-1.68Z"/>
      <path class="cls-60" d="m45.56,46.11c.26,0,.52,0,.79,0,2.58.04,5,.52,7.49,1.17.22.05.43.1.66.16.21.05.43.1.64.16q.29.07.59.14c.15.06.3.12.45.18q.11.32.21.64-.67.97-1.28,1.28c-1.27.07-2.26-.11-3.47-.49-3.66-1.08-7.4-1.36-11.2-1.63.2-.5.32-.79.79-1.07,1.44-.47,2.82-.53,4.33-.53Z"/>
      <path class="cls-2" d="m37.48,60.24c4.63-.24,9.56,4.17,12.88,6.93.41.4.58.81.72,1.36-.77-.12-1.35-.33-2.03-.7-.18-.1-.37-.2-.56-.31-.2-.11-.39-.22-.6-.33-.21-.11-.41-.23-.62-.34-1.6-.89-3.19-1.79-4.78-2.71-.89-.51-1.78-1.01-2.7-1.46-.17-.09-.34-.17-.52-.26-.32-.16-.64-.31-.97-.46q-.43-.21-1.04-.64-.04-.58.21-1.06Z"/>
      <path class="cls-121" d="m26,55.14c.55.23.99.45,1.49.76.13.08.26.15.39.23,1.5.92,2.71,1.96,3.72,3.41.27.38.56.74.85,1.1q1.54,1.91,1.73,2.94c-.11.23-.21.46-.32.69-2.16.45-4.27-.09-6.13-1.22-1.88-1.29-3.66-2.89-4.28-5.16-.14-.93-.17-1.63.32-2.46.73-.42,1.41-.41,2.23-.31Zm-1.63,1.95c-.1.92,0,1.46.55,2.22,1.23,1.36,2.45,2.39,4.06,3.26.14.08.27.15.41.23.9.45,2,.66,2.99.41q.32-.36.43-.85c-.42-1.6-1.48-2.65-2.76-3.61q-.3-.22-.6-.45-1.92-1.44-4.24-1.75-.52.03-.83.55Z"/>
      <path class="cls-97" d="m6.87,29.42c1.98,1.23,3.35,3.1,4.8,4.9,1.34,1.64,2.73,3.25,4.17,4.81.84.91,1.63,1.86,2.4,2.82.76.92,1.55,1.83,2.33,2.73.92,1.05,1.75,2.05,2.43,3.27.38.65.84,1.23,1.3,1.82.09.12.18.24.28.36.37.47.73.92,1.15,1.34q.25.26.25.69h.43c.49.8.72,1.4.64,2.34-.73-.64-1.23-1.3-1.74-2.13-1.41-2.27-3.13-4.29-4.88-6.3-.53-.62-1.05-1.24-1.57-1.88-.83-1.02-1.68-2.02-2.53-3.01-.72-.83-1.43-1.67-2.14-2.51-.94-1.11-1.89-2.22-2.84-3.33-.1-.12-.2-.23-.3-.35-.1-.11-.19-.22-.29-.34-.2-.23-.39-.46-.57-.7q-.58-.73-1.41-1.12-.43-.49-.88-1.12c-.15-.2-.3-.41-.45-.61-.36-.58-.5-1-.58-1.67Z"/>
      <path class="cls-1" d="m7.89,44.22c2.25.05,4.44,1.67,6.35,2.75.74.42,1.48.8,2.25,1.16.99.49,1.92,1.03,2.86,1.62.13.08.26.16.39.25q.92.59,1.16,1.31c-.97.05-1.58-.07-2.45-.51-.22-.11-.45-.22-.68-.34-.24-.12-.48-.24-.73-.37-.38-.19-.76-.38-1.14-.56-.26-.13-.53-.26-.79-.39-1.36-.67-2.73-1.31-4.1-1.95-.39-.18-.77-.36-1.16-.54q-1.25-.59-2.53-1.1c-.15-.07-.3-.14-.45-.21.05-.81.23-1.04,1.02-1.14Z"/>
      <path class="cls-77" d="m48.1,17.31c1.23.65,1.72,1.96,2.31,3.15.11.22.22.44.34.66.22.44.44.88.66,1.32.26.53.53,1.05.8,1.57.71,1.4,1.26,2.55.99,4.14q-.64.43-1.49.43c-.1-.44-.2-.88-.28-1.32-.27-1.13-.85-2.15-1.38-3.18-.11-.22-.22-.45-.34-.68q-.68-1.35-1.59-2.54c-.55-.68-.58-1.03-.55-1.89,0-.22,0-.44.01-.67q.08-.55.5-.98Z"/>
      <path class="cls-118" d="m64.09,69.63q.38.18.8.6c-.18.12-.35.24-.53.36-1.88,1.27-3.76,2.55-5.64,3.82-.38.26-.77.52-1.15.78q-3.41,2.3-6.72,4.73c-.72.54-.97.73-1.9.73q-.12-.48,0-1.06.45-.4,1.09-.78c.23-.15.47-.29.71-.44.12-.08.25-.15.38-.23.62-.4,1.21-.83,1.81-1.26,1.45-1.04,2.91-2.06,4.39-3.06.54-.37,1.09-.74,1.63-1.12.52-.36,1.04-.71,1.56-1.07.26-.18.52-.36.78-.53.37-.25.73-.5,1.1-.75.21-.15.43-.29.65-.44q.57-.29,1.04-.26Z"/>
      <path class="cls-58" d="m31.1,57.27c2.09-.42,4.18.25,6.16.85.65.16,1.29.33,1.94.49q.2.07.4.15v.43c.42.08.85.15,1.28.21.54.18,1.07.37,1.59.57.15.06.29.11.45.17,1.25.48,2.48,1,3.7,1.53q.31.14.64.28c.18.08.36.16.55.24.72.26,1.44.35,2.19.45.15.05.3.11.45.16q.14.44.21.85h.42q.13.64.21,1.28c-.68-.14-1.22-.39-1.82-.72-2.75-1.5-5.51-2.72-8.47-3.76-.47-.17-.94-.34-1.4-.52-2.85-1.07-5.67-1.71-8.71-1.8q.02-.42.21-.85Z"/>
      <path class="cls-79" d="m47.25,23.05c1.44.48,2.35,2.95,3.03,4.28.07.14.14.28.21.42.07.14.14.27.22.41q.19.39.37,1.05-.33.38-.85.64c-.15.09-.31.18-.46.28-.52.23-.88.38-1.45.36-.55-.63-.81-1.34-1.06-2.13-.04-.13-.09-.26-.13-.39-.13-.71-.11-1.42-.11-2.15,0-.15,0-.3,0-.45,0-.8.05-1.54.24-2.32Z"/>
      <path class="cls-99" d="m31.74,58.54c5.04,1.99,9.88,4.73,14.54,7.48,1.29.76,2.61,1.46,3.95,2.12.36.18.71.39,1.06.6q-.11.21-.21.43c-1.33-.1-2.26-.39-3.29-1.21-1.03-.78-2.12-1.4-3.24-2.03-.2-.11-.4-.22-.6-.34-.52-.3-1.05-.59-1.58-.88-.14-.08-.29-.16-.43-.24-.44-.2-.83-.28-1.31-.35-1.16-.24-2.01-.8-2.98-1.46-.35-.23-.71-.46-1.06-.69-.17-.11-.35-.23-.52-.34-.94-.6-1.91-1.14-2.89-1.68-.52-.3-.99-.59-1.44-.98v-.43Z"/>
      <path class="cls-18" d="m.07,50.89c.98.29,1.84.7,2.72,1.21.14.08.28.16.43.24,2.1,1.21,4.18,2.46,6.25,3.72.37.22.74.45,1.12.66.4.23.78.49,1.16.75v.64q-.51.22-1.28.21c-.74-.31-1.4-.73-2.07-1.16-.2-.12-.4-.25-.61-.37-.43-.27-.87-.54-1.3-.8-.61-.37-1.22-.74-1.84-1.1-.51-.3-1.02-.6-1.53-.9-.25-.15-.5-.29-.75-.44-.35-.2-.7-.41-1.05-.62-.2-.12-.4-.24-.61-.36-.59-.53-.62-.91-.67-1.69Z"/>
      <path class="cls-46" d="m18.77,61.73c1.6.9,3.18,1.81,4.72,2.81.68.43,1.36.86,2.04,1.29q.33.21.67.42c.63.37,1.27.69,1.92,1.02.45.26.9.53,1.34.8.28.17.56.34.83.5q.24.14.47.29c1.1.66,2.2,1.32,3.3,1.99.23.14.46.27.69.42,1.11.67,2.22,1.33,3.35,1.96q-.64.21-1.06.06c-.16-.08-.32-.16-.48-.24-.17-.09-.35-.17-.53-.26-.18-.09-.36-.18-.55-.28-.36-.18-.72-.36-1.07-.54-.16-.08-.32-.16-.48-.24q-.51-.23-1.13-.3c-1.15-.2-2.07-.87-3.07-1.46-.22-.12-.43-.25-.66-.38-.21-.12-.41-.24-.62-.37-.19-.11-.38-.22-.57-.33-.14-.11-.27-.23-.41-.35v-.85q-.33-.28-.78-.48c-.16-.08-.32-.16-.49-.24-.17-.08-.34-.16-.52-.25-.34-.16-.67-.33-1.01-.49-.15-.07-.3-.14-.46-.22q-.36-.23-.57-.87-.43-.19-.93-.32c-.74-.2-1.09-.4-1.62-.96q-.41-.23-.85-.42c-.61-.28-1.07-.53-1.49-1.06v-.64Z"/>
      <path class="cls-108" d="m9.84,40.69c1.07.49,1.96,1.1,2.88,1.81.15.11.3.22.45.34,1.19.91,2.34,1.86,3.48,2.84.58.5,1.17.97,1.77,1.44.76.6,1.44,1.23,2.11,1.92.39.39.8.75,1.21,1.11,1.19,1.03,2.22,2.02,3.1,3.33.59.87,1.08,1.38,2.01,1.87-.54.27-.73.17-1.3.01-.15-.04-.31-.08-.47-.13-.12-.03-.24-.07-.36-.1.14-.14.28-.28.43-.43-.13-.05-.25-.1-.39-.15-.59-.35-.75-.75-1.1-1.34-.61-.74-1.26-1.43-1.91-2.13q-.25-.26-.5-.54c-2.35-2.43-5.2-4.41-8.01-6.27-.19-.13-.38-.25-.58-.38-.17-.11-.33-.21-.5-.32-.49-.43-.59-.82-.83-1.42q-.36-.33-.77-.57t-.72-.49v-.43Z"/>
      <path class="cls-71" d="m47.68,20.28c1,.88,1.54,1.86,2.14,3.04.09.17.18.35.27.53.18.34.35.69.53,1.03.17.33.33.65.51.98.08.15.16.3.24.45.07.13.14.26.21.39.24.61.16,1.22.15,1.87q.32.11.64.21c-.56.31-.83.43-1.49.43q-.23-.34-.44-.82-.12-.26-.24-.52t-.24-.56c-.59-1.31-1.18-2.55-2.04-3.71-.43-.63-.47-1.2-.47-1.95,0-.17,0-.33,0-.51q.03-.44.24-.86Z"/>
      <path class="cls-98" d="m3.47,36.65c1.28.07,1.99.66,2.95,1.42.14.11.28.22.43.33.29.22.57.45.86.67.59.45,1.18.89,1.78,1.32q.35.29.78.93c.18.1.35.2.53.31.56.35.72.57.96,1.18q-1.06-.21-1.58-.37t-1.21.28c-.2.1-.4.2-.61.31-.21-.14-.42-.28-.64-.43q.17-.37.49-.77c.1-.13.21-.27.32-.41.08-.1.17-.2.25-.31-.15-.06-.31-.11-.47-.17-.61-.26-1.06-.58-1.59-.97-.76-.56-1.43-.9-2.32-1.18q-.53-.19-.93-.44c-.2-.64-.11-1.02,0-1.7Z"/>
      <path class="cls-118" d="m75.1,62.79l.43.21-.43-.21Zm-.88.16q.25.01.5.02c.12.01.25.02.37.03-.59.62-1.19,1.11-1.91,1.58-.21.14-.41.27-.63.41-.22.14-.44.29-.67.44q-1.99,1.31-3.95,2.67c-.18.13-.37.26-.55.39-.34.24-.69.49-1.03.74-.15.11-.31.22-.46.33-.13.1-.26.19-.4.29q-.39.18-.83.12t-.83-.59c.17-.11.35-.23.53-.35,1.98-1.3,3.92-2.65,5.86-4,.39-.27.79-.55,1.18-.82.3-.21.6-.42.9-.64.66-.48,1.1-.66,1.92-.62Z"/>
      <path class="cls-9" d="m26,55.14c.55.23.99.45,1.49.76.13.08.26.15.39.23,1.61.99,3.15,2.21,4.07,3.9-.07.14-.14.28-.21.43-.1-.09-.19-.18-.29-.27q-2.75-2.56-6.24-3.46-.5.07-.75.45t-.37,1.16h-.43c-.37-.74-.31-1.53-.21-2.34.6-1.02,1.46-.99,2.55-.85Z"/>
      <path class="cls-10" d="m5.81,48.98c1.59.46,2.99,1.17,4.44,1.95,2.69,1.44,5.42,2.74,8.21,3.97.17.07.33.15.5.22,1.49.66,2.99,1.3,4.49,1.95q-.11.21-.21.43c-1.93-.37-3.73-1.24-5.49-2.09-.49-.23-.97-.46-1.46-.69q-.35-.16-.7-.33c-.79-.37-1.59-.7-2.39-1.04-2.18-.94-4.26-2.12-6.32-3.29-.2-.11-.39-.22-.59-.33-.15-.1-.31-.2-.47-.31v-.43Z"/>
      <path class="cls-29" d="m38.54,73.63c1.77.83,3.43,1.83,5.09,2.86.51.31,1.02.63,1.53.94q.18.11.37.23c.98.6,1.98,1.12,3.01,1.6.13.11.27.21.41.32q.03.56,0,1.06.21.11.42.21c-1.21-.1-1.98-.36-2.98-1.06-.05-.16-.09-.33-.14-.5-.44-.89-1.23-1.16-2.09-1.6-1.3-.69-2.53-1.4-3.72-2.28q-.46-.34-1.18-.65-.52-.28-.66-.72c-.02-.13-.05-.27-.07-.41Z"/>
      <path class="cls-20" d="m16.22,61.52q.37-.04.85-.04c.16,0,.32,0,.48,0,.12.02.25.03.37.05v.43h.64v.43c.13.03.25.06.39.09q.47.12.76.42c.5.49,1.07.7,1.7.98q.17.1.35.21v.43c.48.12.96.19,1.45.26q.23.08.46.16t.19.41c.29.54.52.66,1.07.92.16.08.32.16.49.24.17.08.34.16.51.25.34.16.67.33,1,.49.15.07.3.14.45.22.11.08.21.15.33.23v.64c-1.2-.33-2.17-.92-3.21-1.57-.38-.23-.76-.46-1.13-.69-.19-.12-.39-.24-.59-.36-.96-.58-1.92-1.15-2.88-1.73-.66-.39-1.31-.79-1.97-1.18q-.25-.15-.5-.3-.23-.14-.47-.29c-.14-.09-.28-.17-.42-.26-.1-.07-.2-.14-.3-.21v-.21Z"/>
      <path class="cls-102" d="m41.09,63.22c1.73.82,3.37,1.74,5.02,2.71,1.35.79,2.72,1.52,4.12,2.22.36.18.71.39,1.06.6-.07.14-.14.28-.21.43-1.33-.1-2.26-.39-3.29-1.21-1.02-.77-2.11-1.39-3.23-2.02-.39-.22-.78-.44-1.17-.66-.17-.1-.34-.19-.52-.29-.17-.09-.33-.19-.5-.29-.19-.11-.39-.21-.58-.33q-.48-.31-.65-.78c-.01-.13-.03-.25-.04-.39Z"/>
      <path class="cls-95" d="m34.07,57.27c1.53-.13,2.77.27,4.21.76.23.08.47.15.71.23,2.72.91,5.42,1.87,8.06,2.99.14.06.29.12.43.18.72.31,1.02.48,1.47,1.15-.84-.18-1.63-.49-2.43-.8-.15-.06-.3-.11-.46-.17-1.16-.44-2.32-.89-3.48-1.33-.85-.32-1.71-.62-2.57-.91-.14-.06-.27-.13-.41-.19v-.43c-.41-.06-.81-.11-1.22-.14-.56-.09-1.01-.29-1.54-.5-.73-.18-1.46-.33-2.2-.49-.19-.05-.37-.1-.57-.15v-.21Z"/>
      <path class="cls-67" d="m31.1,57.27c2.09-.42,4.19.23,6.16.85q.31.09.62.18.52.16,1.29.46.11.32.21.64c-1.26-.09-2.43-.33-3.65-.64-1.62-.4-3.17-.58-4.85-.64q.02-.42.21-.85Z"/>
      <path class="cls-52" d="m54.17,76.41c.17.07.34.13.52.2-.32.94-1.06,1.37-1.85,1.9-.13.09-.26.18-.39.27-.26.18-.52.36-.78.53-.27.19-.53.38-.79.58q-1,.76-1.94.76-.13-.48,0-1.06.49-.42,1.16-.82c.87-.54,1.66-1.08,2.43-1.74q.78-.63,1.63-.61Z"/>
      <path class="cls-107" d="m18.13,47.06c.96.39,1.61,1.16,2.31,1.89.42.42.86.82,1.31,1.21,1.18,1.03,2.21,2.01,3.08,3.32.59.87,1.08,1.38,2.01,1.87-.54.27-.73.17-1.3.01-.15-.04-.31-.08-.47-.13q-.18-.05-.36-.1c.14-.14.28-.28.43-.43-.13-.05-.25-.1-.39-.15-.59-.35-.75-.75-1.1-1.34-1.75-2.13-3.72-4.11-5.95-5.74.14-.14.28-.28.43-.43Z"/>
      <path class="cls-8" d="m82.11,50.89c.21.07.42.14.64.21-.59.86-1.21,1.33-2.1,1.83q-.48.3-.95.81c-.59.58-1.19,1.02-1.87,1.47-.22.15-.44.3-.67.45q-.56.33-.99.33.02-.47.21-1.06c.44-.38.85-.69,1.33-1.01q.2-.14.4-.27c.28-.19.55-.37.83-.56.41-.28.81-.56,1.21-.85.12-.09.25-.18.38-.27.35-.25.69-.5,1.04-.75.19-.11.37-.21.56-.32Z"/>
      <path class="cls-90" d="m3.47,36.65c1.31.07,2.07.71,3.06,1.49.16.12.31.24.47.36q.82.63,1.15.92v.21c-1.38-.09-3.65-.25-4.68-1.28-.03-.57,0-1.13,0-1.7Z"/>
      <path class="cls-43" d="m28.55,67.68c1.58.85,3.13,1.73,4.66,2.64.41.24.82.48,1.22.73q.29.17.59.35c1.03.61,2.06,1.21,3.09,1.81q-.64.21-1.06.06c-.16-.08-.32-.16-.48-.24-.17-.09-.35-.17-.53-.26q-.27-.14-.55-.28-1.59-.82-3.33-1.2c.28-.07.56-.14.85-.21-.66-.79-1.6-1.13-2.51-1.55-.79-.38-1.4-.74-1.95-1.42v-.43Z"/>
      <path class="cls-109" d="m22.6,46.64q.47,0,1.06.21c.41.47.7,1.01,1,1.55.08.14.17.29.25.44.16.28.31.56.47.84.15.28.32.56.48.84.18.48.1.75-.07,1.23q-3.14-3.38-3.23-4.63c.01-.15.03-.31.04-.47Z"/>
      <path class="cls-113" d="m39.39,51.74c.57.01,1.1.05,1.66.12q.25.03.51.06c3.02.39,6,1.2,8.88,2.16q-.32.24-.85.43c-.56-.12-1.08-.26-1.62-.44-1.69-.51-3.39-.88-5.13-1.21-.24-.04-.48-.09-.72-.14-1.05-.2-2.1-.38-3.16-.56.14-.14.28-.28.43-.43Z"/>
      <path class="cls-119" d="m58.09,73.21c.14.07.28.14.43.21-.04.66-.08.94-.43,1.49-.56.44-1.14.8-1.76,1.15q-.58.32-1.05.71c-.12.09-.25.17-.38.26-.45-.23-.72-.49-1.06-.85.12-.08.24-.17.37-.25.55-.37,1.09-.75,1.64-1.12.19-.13.38-.26.58-.39.18-.12.36-.25.55-.38.17-.11.34-.23.51-.35q.38-.25.61-.49Z"/>
      <path class="cls-85" d="m26.64,55.56c2.12,1.06,4.14,2.32,5.31,4.46-.07.14-.14.28-.21.43-.1-.09-.19-.18-.29-.27-1.41-1.27-2.91-2.43-4.55-3.4-.16-.12-.32-.25-.48-.37q.08-.45.21-.85Z"/>
      <path class="cls-82" d="m39.18,74.69c.68.25,1.25.53,1.85.96,1.17.8,2.41,1.47,3.65,2.14.16.09.32.18.49.27.15.08.29.16.44.24q.37.22.79.65-.11.32-.21.64c-.97-.56-1.93-1.12-2.89-1.68-.33-.19-.66-.38-.99-.57-.47-.27-.94-.55-1.41-.82-.15-.08-.3-.17-.45-.25q-1.03-.61-1.21-1.17c-.02-.13-.04-.26-.07-.4Z"/>
      <path class="cls-39" d="m8.14,55.56c.85.32,1.62.71,2.4,1.16q.34.19.69.38t.52.37v.64c-.78.26-1.19.24-1.97-.05-.22-.13-.45-.26-.68-.39-.23-.13-.46-.25-.69-.38-.16-.15-.33-.3-.49-.46q.03-.69.21-1.28Z"/>
      <path class="cls-96" d="m22.81,48.55c.67.06.84.2,1.28.72.14.21.28.42.43.63q.56.82,1.21,1.56.27.27.27.7h.43c.49.8.72,1.4.64,2.34-.92-.81-1.5-1.72-2.14-2.76-.56-.87-1.17-1.7-1.79-2.53q-.32-.45-.32-.66Z"/>
      <path class="cls-12" d="m5.81,48.98c1.6.48,3.01,1.16,4.48,1.94.22.12.45.23.68.35q1.21.64,1.64.89v.21c-.98.08-1.59-.08-2.45-.54-.21-.11-.43-.23-.65-.34-.22-.12-.44-.24-.67-.36-.22-.12-.44-.24-.67-.36-.81-.43-1.6-.86-2.37-1.37v-.43Z"/>
      <path class="cls-89" d="m35.56,30.48c1.01.69,1.48,1.47,2.05,2.52.08.15.16.3.25.45.23.42.46.85.68,1.28.12.23.25.47.38.71q.26.57.26,1.21h-.43q-.3-.44-.63-1.05-.18-.33-.37-.66c-.13-.23-.25-.46-.38-.7-.25-.45-.5-.9-.75-1.35-.11-.2-.22-.4-.34-.61-.22-.4-.47-.78-.72-1.16v-.64Z"/>
      <path class="cls-120" d="m76.8,60.45c.14.07.28.14.42.21-.16.8-.35,1.2-.94,1.77-.71.47-1.24.6-2.07.58q-.4,0-.81-.01c.66-.7,1.36-1.23,2.15-1.77.22-.15.45-.31.68-.46.19-.11.38-.21.57-.32Z"/>
      <path class="cls-32" d="m10.69,58.12q.53-.05,1.06,0v.43c.35.07.71.14,1.06.21.4.19.8.39,1.18.61.2.11.4.22.6.33.5.3.97.59,1.41.97v.43c-1.31-.09-2.27-.71-3.37-1.37-.19-.11-.37-.21-.57-.32q-1.02-.6-1.37-.86v-.43Z"/>
      <path class="cls-22" d="m28.12,68.11c.78.07,1.25.5,1.87.96.79.53,1.66.9,2.52,1.3.17.09.33.19.51.28v.43c-1.34-.09-2.26-.56-3.4-1.25-.17-.1-.33-.19-.51-.29-.16-.09-.31-.19-.48-.28-.14-.08-.29-.17-.43-.26-.09-.09-.19-.17-.28-.26.07-.21.14-.42.21-.64Z"/>
      <path class="cls-101" d="m9.84,40.69c1.08.5,2,1.13,2.95,1.83.15.11.29.21.44.32.36.27.72.54,1.07.82v.21c-.83.26-1.18.26-1.97-.13q-.58-.5-.78-1.02c-.3-.73-.75-.96-1.4-1.37-.1-.08-.2-.16-.31-.24v-.43Z"/>
      <path class="cls-94" d="m31.74,58.54c1.35.54,2.69,1.11,4.01,1.71.22.1.44.2.66.3.14.11.28.21.43.32q-.06.5-.43.85-.58-.2-1.29-.61c-.12-.07-.25-.14-.37-.21-.37-.22-.74-.44-1.1-.66-.2-.12-.4-.24-.61-.37q-.94-.6-1.31-.9v-.43Z"/>
      <path class="cls-10" d="m17.5,54.71c.81.13,1.49.37,2.24.7.22.1.43.19.66.29.22.1.45.2.68.3.23.1.46.2.69.3.56.25,1.12.5,1.69.75-.07.14-.14.28-.21.43-1.55-.27-3.02-.93-4.42-1.62-.13-.06-.26-.13-.4-.19-.31-.16-.62-.34-.92-.52v-.43Z"/>
      <path class="cls-75" d="m81.09,45.09c.13.09.25.18.38.27v.64q-.42.05-.96.01t-.96-.01v.43q-.53-.16-1.06-.43,0-.85.41-1.28c.9-.29,1.35-.02,2.18.37Z"/>
      <path class="cls-37" d="m22.17,65.13c1.12.07,1.78.34,2.71.96.76.49,1.56.88,2.37,1.28.15.1.3.2.45.3v.64c-1.29-.34-2.35-1.03-3.48-1.71-.2-.12-.39-.24-.6-.36q-1.07-.65-1.45-.9v-.21Z"/>
      <path class="cls-105" d="m30.89,44.3c.87.75,1.2,1.44,1.32,2.59q.02.47-.05,1.24h-.64q-.26-.57-.48-1.32c-.08-.24-.15-.49-.23-.74-.14-.69-.13-1.1.07-1.77Z"/>
      <path class="cls-93" d="m9.84,41.11q1.44.67,1.91,1.28v.43q-1.06-.21-1.58-.37c-.74-.07-1.17.25-1.82.58-.14-.14-.28-.28-.43-.43q.45-.56,1.06-1.06h.85v-.43Z"/>
      <path class="cls-110" d="m44.7,23.68q1.43,1.09,1.55,1.92c0,.42-.03.84-.06,1.27h-.64q-.3-.43-.58-1c-.1-.18-.19-.37-.29-.56-.21-.64-.17-.99.02-1.63Z"/>
      <path class="cls-36" d="m47.25,78.73c.63.17,1.18.46,1.7.85q.08.57,0,1.06c.14.07.28.14.43.21-1.2-.1-1.98-.36-2.98-1.06.07-.21.14-.42.21-.64h.43c.07-.14.14-.28.21-.43Z"/>
      <path class="cls-104" d="m30.89,58.54c.96.2,1.85.56,2.55,1.28q-.11.81-.43,1.49c-1.03-.74-1.72-1.55-2.13-2.76Z"/>
      <path class="cls-21" d="m.07,50.89q.62.17,1.28.43c.07.21.14.42.21.64q.27.1.54.2c.17.07.34.15.52.23v.85c-.96-.11-1.6-.44-2.34-1.06q-.19-.69-.21-1.28Z"/>
      <path class="cls-24" d="m1.55,51.53q2.24,1.06,3.19,1.91-.64.43-1.41.37c-.24-.05-.47-.11-.72-.16-.26-.53-.17-.73,0-1.28q-.63-.11-1.28-.21c.07-.21.14-.42.21-.64Z"/>
      <path class="cls-49" d="m5.59,54.71q.52.02,1.17.16.32.06.64.13.52.14.74.35c0,.43,0,.85,0,1.28-1.03-.3-1.88-.68-2.76-1.28.07-.21.14-.42.21-.64Z"/>
      <path class="cls-44" d="m83.6,49.83c1.41.14,2.35,1.02,3.4,1.91q-.39.23-.85.43c-.21-.07-.42-.14-.64-.21-.07-.14-.13-.27-.2-.41-.29-.56-.48-.67-1.08-.86q-.67-.04-1.28,0,.23-.45.64-.85Z"/>
      <path class="cls-50" d="m28.55,67.68c1.65.89,3.27,1.81,4.89,2.76-.14.14-.28.28-.43.43q-.37-.11-.8-.35-.24-.13-.48-.25t-.5-.28-.49-.26c-.84-.45-1.58-.87-2.19-1.63v-.43Z"/>
      <path class="cls-3" d="m39.39,51.74c.63.03,1.23.09,1.86.17q.25.03.51.06c.91.11,1.82.24,2.73.4q-.21.11-.43.21v.43c-.14-.03-.27-.05-.41-.08-1.56-.29-3.12-.54-4.69-.77.14-.14.28-.28.43-.43Z"/>
      <path class="cls-103" d="m18.13,47.06c1.08.48,2.05,1.4,2.76,2.34-.07.21-.14.42-.21.64-.38-.34-.75-.68-1.13-1.02-.11-.1-.21-.19-.32-.29-.52-.47-1.03-.95-1.52-1.45.14-.07.28-.14.43-.21Z"/>
      <path class="cls-45" d="m11.76,57.69c.85.32,1.63.71,2.42,1.16.23.13.46.25.7.38q.25.18.5.37c-.07.21-.14.42-.21.64-.57-.26-1.13-.53-1.7-.8-.16-.07-.32-.15-.49-.22-.15-.07-.31-.15-.47-.22-.14-.07-.28-.13-.43-.2-.1-.08-.21-.17-.31-.25v-.85Z"/>
      <path class="cls-13" d="m43.21,77.24c1.16.23,2.32.9,3.19,1.7-.07.21-.14.42-.21.64-.54-.31-1.07-.62-1.61-.93-.15-.09-.31-.18-.47-.27-.38-.22-.75-.47-1.11-.72.07-.14.14-.28.21-.43Z"/>
      <path class="cls-86" d="m26,55.14c.07.21.14.42.21.64-.15.03-.3.06-.46.09-.2.04-.39.08-.59.11q-.29.06-.59.11-.48.07-.7.33c-.04.25-.07.5-.11.76-.03.24-.07.48-.11.73h-.21c-.12-.9-.14-1.67.32-2.46.79-.46,1.32-.41,2.23-.31Z"/>
      <path class="cls-34" d="m8.14,55.56c.8.3,1.55.67,2.3,1.08q.31.17.63.34c.16.09.31.19.47.28v.21c-.85.06-1.18.06-1.91-.43v-.42q-.31-.04-.62-.08c-.21-.04-.43-.09-.65-.13q-.19-.44-.21-.85Z"/>
      <path class="cls-38" d="m25.57,66.4c.97.12,1.72.34,2.55.85q.29.47.43.85h-.43v.43c-.21-.07-.42-.14-.64-.21v-.64q-.43-.31-.96-.56c-.32-.16-.64-.33-.96-.5v-.21Z"/>
      <path class="cls-115" d="m34.07,57.27c1.28-.08,2.3.11,3.51.5q.23.07.47.14c.38.12.75.27,1.13.42v.43c-1.22-.26-2.42-.55-3.63-.86q-.22-.06-.44-.11c-.35-.09-.69-.19-1.04-.3v-.21Z"/>
      <path class="cls-42" d="m49.8,78.95c.07.14.14.28.21.43h.64v.64c-.62.6-.81.64-1.7.64q-.11-.49,0-1.06.43-.39.85-.64Z"/>
      <path class="cls-28" d="m13.67,59.6c1.03.1,1.59.34,2.34,1.06v.43c-.92-.11-1.59-.28-2.34-.85v-.64Z"/>
      <path class="cls-118" d="m78.07,59.6c.14.07.28.14.43.21-.14.28-.28.57-.43.85.14.07.28.14.43.21q-.84.53-1.7,1.06c.05-.91.08-1.35.73-2.02q.27-.16.54-.32Z"/>
      <path class="cls-56" d="m65.64,68.64c.11.11.21.21.32.32q-.09.44-.43.85-.52.2-1.06.21-.39-.31-.64-.64,1.14-.88,1.81-.74Z"/>
      <path class="cls-65" d="m48.74,68.11c1.02-.12,1.69.09,2.55.64-.07.14-.14.28-.21.43-.92-.07-1.71-.25-2.55-.64.07-.14.14-.28.21-.43Z"/>
      <path class="cls-48" d="m58.09,73.21c.14.07.28.14.43.21q-.12.74-.43,1.49-.56.2-1.06.21v-.64c-.14-.07-.28-.14-.43-.21.24-.18.48-.36.72-.54q.2-.15.4-.31c.12-.07.24-.14.37-.21Z"/>
      <path class="cls-16" d="m22.17,65.13c1.26.08,2.21.46,3.19,1.28v.43c-.86-.12-1.46-.4-2.19-.85-.19-.11-.38-.23-.57-.35-.14-.1-.28-.19-.43-.29v-.21Z"/>
      <path class="cls-83" d="m20.26,55.78c1.05.42,2.1.84,3.19,1.28-.07.14-.14.28-.21.43q-.62-.11-1.38-.35c-.25-.07-.5-.15-.76-.22-.2-.09-.41-.19-.62-.28-.07-.28-.14-.56-.21-.85Z"/>
      <path class="cls-55" d="m87.64,53.01h.85q.21.64,0,1.28-.54.25-1.06.43-.15-.52-.21-1.06c.21-.07.42-.14.64-.21-.07-.14-.14-.28-.21-.43Z"/>
      <path class="cls-50" d="m35.14,71.72c1.06.38,2.01.93,2.98,1.49-.82.27-1.07.09-1.85-.27-.21-.09-.42-.19-.64-.28-.16-.1-.32-.2-.49-.3v-.64Z"/>
      <path class="cls-6" d="m31.74,60.45c.89.32,1.28.87,1.7,1.7q-.3.36-.64.64c-.18-.31-.36-.62-.53-.93-.1-.17-.2-.35-.3-.52q-.23-.46-.23-.89Z"/>
      <path class="cls-29" d="m45.13,77.67c.76.28,1.47.58,2.13,1.06-.07.21-.14.42-.21.64-.73-.32-1.32-.74-1.91-1.28v-.43Z"/>
      <path class="cls-80" d="m26,55.35c.21.07.42.14.64.21q.04.54,0,1.06c-.28-.02-.57-.05-.85-.08-.16-.01-.32-.03-.48-.04-.12-.03-.25-.06-.37-.09v-.43c-.14-.07-.28-.14-.43-.21.25-.03.49-.06.74-.09q.37-.06.74-.12v-.21Z"/>
      <path class="cls-31" d="m23.87,65.13c.94.26,1.48.53,2.13,1.28q-.64.21-1.03.07c-.13-.08-.26-.15-.4-.23q-.2-.11-.4-.22c-.1-.08-.2-.17-.3-.26v-.64Z"/>
      <path class="cls-47" d="m21.32,63.43c1.02.35,1.87.91,2.76,1.49-.57.28-.79.16-1.38-.03q-.91-.31-1.29-.97c-.03-.16-.06-.32-.09-.49Z"/>
      <path class="cls-26" d="m26.64,55.56q.64.25,1.28.64.08.57,0,1.06-1.25-.58-1.49-1.06c.07-.21.14-.42.21-.64Z"/>
      <path class="cls-95" d="m39.18,58.54q1.76.21,2.55.64v.64c-.35-.09-.71-.19-1.06-.29-.2-.05-.39-.11-.6-.16-.15-.06-.31-.12-.47-.18v-.43c-.14-.07-.28-.14-.43-.21Z"/>
      <path class="cls-27" d="m.07,50.89q.62.17,1.28.43c.07.21.14.42.21.64q-.62.19-1.28.21-.19-.62-.21-1.28Z"/>
      <path class="cls-62" d="m9.84,41.75c-.23.62-.37.82-.96,1.14q-.26.07-.53.13c-.14-.14-.28-.28-.43-.43.57-.77.97-.96,1.91-.85Z"/>
      <path class="cls-35" d="m21.53,64.07c.07.14.14.28.21.43.5.13,1,.2,1.5.28q.2.07.41.14v.64c-.66-.09-1.29-.19-1.91-.43q-.23-.56-.21-1.06Z"/>
      <path class="cls-17" d="m38.54,73.63c.7.35,1.4.7,2.13,1.06q-.21.32-.43.64-1.04-.46-1.49-.85c-.07-.28-.14-.56-.21-.85Z"/>
      <path class="cls-84" d="m31.31,64.28c.46-.03.92-.05,1.38-.05.26,0,.51-.01.78-.02.2.02.4.05.6.07v.64c-.46-.07-.92-.13-1.38-.2q-.38-.06-.78-.11c-.2-.04-.4-.08-.6-.11v-.21Z"/>
      <path class="cls-15" d="m20.05,63.43c.55.08.99.18,1.49.43v.85c-.71-.25-1.23-.46-1.7-1.06.07-.07.14-.14.21-.21Z"/>
      <path class="cls-117" d="m55.33,75.12c.14.07.28.14.43.21q-.12.53-.43,1.06-.53.2-1.06.21c-.14-.14-.28-.28-.43-.43.24-.18.48-.36.72-.54q.2-.15.4-.31c.12-.07.24-.14.37-.21Z"/>
      <path class="cls-51" d="m30.89,69.17c.92.33,1.71.78,2.55,1.28-.14.14-.28.28-.43.43q-.51-.22-1.09-.58c-.19-.12-.39-.23-.59-.36-.15-.11-.3-.22-.45-.34v-.43Z"/>
      <path class="cls-87" d="m11.54,52.38q1.65-.1,2.34.43v.64c-.79-.26-1.58-.51-2.34-.85v-.21Z"/>
      <path class="cls-7" d="m41.3,75.97c.66.32,1.3.66,1.91,1.06v.43c-.74-.14-1.3-.41-1.91-.85v-.64Z"/>
      <path class="cls-66" d="m51.5,68.32h.43c-.24.52-.44.86-.85,1.28q-.53.07-1.06,0c-.14-.21-.28-.42-.43-.64.24.01.47.03.72.04.25-.01.51-.03.77-.04.14-.21.28-.42.43-.64Z"/>
      <path class="cls-40" d="m8.14,56.2q.64.13,1.28.43.19.45.21.85c-.71-.13-1.17-.36-1.7-.85.07-.14.14-.28.21-.43Z"/>
      <path class="cls-53" d="m78.5,59.6q.56-.07,1.06,0-.15.41-.43.85-.56.16-1.06.21.15-.53.43-1.06Z"/>
      <path class="cls-76" d="m30.25,58.97c.67.07.98.13,1.46.62.08.14.16.29.24.44-.07.14-.14.28-.21.43-.25-.21-.5-.42-.74-.62-.14-.12-.28-.23-.42-.35-.11-.1-.21-.2-.33-.3v-.21Z"/>
      <path class="cls-114" d="m47.04,61.52c.92.1,1.31.37,1.91,1.06-.67-.15-1.29-.34-1.91-.64v-.43Z"/>
      <path class="cls-23" d="m8.14,55.56q1.01.4,1.49.64v.43q-.62-.05-1.28-.21-.19-.44-.21-.85Z"/>
      <path class="cls-33" d="m2.83,53.23q.65-.07,1.28,0v.64c-.49-.07-.98-.14-1.49-.21.07-.14.14-.28.21-.43Z"/>
      <path class="cls-41" d="m83.6,49.83q.68.05,1.28.21-.21.11-.43.21c-.07.14-.14.28-.21.43q-.65.03-1.28,0,.24-.44.64-.85Z"/>
      <path class="cls-11" d="m21.75,56.63c.62.07,1.14.14,1.7.43-.07.14-.14.28-.21.43q-.39-.05-.86-.19c-.16-.04-.31-.09-.47-.13q-.18-.05-.36-.11c.07-.14.14-.28.21-.43Z"/>
    </g>
  </g>
</svg>