<?xml version="1.0" encoding="UTF-8"?>
<svg id="Layer_2" data-name="Layer 2" xmlns="http://www.w3.org/2000/svg" xmlns:xlink="http://www.w3.org/1999/xlink" viewBox="0 0 80.75 95.57">
  <defs>
    <style>
      .cls-1 {
        mask: url(#mask);
      }

      .cls-2 {
        fill: #f4ab75;
      }

      .cls-2, .cls-3, .cls-4, .cls-5, .cls-6, .cls-7, .cls-8, .cls-9, .cls-10, .cls-11, .cls-12, .cls-13, .cls-14, .cls-15, .cls-16, .cls-17, .cls-18, .cls-19, .cls-20, .cls-21, .cls-22, .cls-23 {
        stroke-width: 0px;
      }

      .cls-3 {
        fill: #f7af64;
      }

      .cls-4 {
        fill: #f8d25b;
      }

      .cls-5 {
        fill: #f9b762;
      }

      .cls-6 {
        fill: #f9b362;
      }

      .cls-7 {
        fill: #5fb6e2;
      }

      .cls-8 {
        fill: #55b3df;
      }

      .cls-9 {
        fill: #385886;
      }

      .cls-10 {
        fill: #375684;
      }

      .cls-11 {
        fill: #c4b590;
      }

      .cls-12 {
        fill: #d2a283;
      }

      .cls-13 {
        fill: #fce25f;
      }

      .cls-14 {
        fill: #fce062;
      }

      .cls-15 {
        fill: #7dc5e2;
      }

      .cls-16 {
        fill: #f2aa75;
      }

      .cls-17 {
        fill: #fff;
      }

      .cls-18 {
        fill: #fced9c;
      }

      .cls-19 {
        fill: #fbee9b;
      }

      .cls-20 {
        fill: #efba71;
      }

      .cls-21 {
        fill: #eaac79;
      }

      .cls-22 {
        fill: #014b6a;
      }

      .cls-23 {
        fill: #68bde5;
      }
    </style>
    <mask id="mask" x="-14.15" y="-2.62" width="109.04" height="108.82" maskUnits="userSpaceOnUse">
      <g id="mask0_1_4364" data-name="mask0 1 4364">
        <path class="cls-17" d="m94.88-2.62H-14.15v108.82h109.04V-2.62Z"/>
      </g>
    </mask>
  </defs>
  <g id="Layer_1-2" data-name="Layer 1">
    <g class="cls-1">
      <g>
        <path class="cls-23" d="m78.52,5.24q1.28,1.06,2.13,2.98c.08,1.32.11,2.6.11,3.92q0,.59,0,1.19c0,1.3,0,2.6,0,3.9,0,.91,0,1.81,0,2.72,0,1.9,0,3.8,0,5.69,0,2.43,0,4.86,0,7.29,0,1.87,0,3.74,0,5.61,0,.9,0,1.79,0,2.69,0,1.25,0,2.51,0,3.76q0,.55,0,1.12c-.02,4-.86,7.07-3.49,10.14-2.51,1.81-5.21,3.32-7.89,4.88-1.64.96-3.25,1.97-4.86,2.98-3.12,1.91-6.25,3.79-9.43,5.6-1.49.86-2.93,1.78-4.39,2.69-2.41,1.47-4.83,2.93-7.24,4.4-2.05,1.24-4.09,2.5-6.12,3.77-2.15,1.35-4.33,2.67-6.51,3.97-2.45,1.47-4.89,2.96-7.33,4.44-.44.26-.87.53-1.32.8-2.26,1.37-4.51,2.76-6.73,4.19-1.84,1.12-3,1.6-5.13,1.6q-2.46-1.1-2.76-1.7c.35.07.7.14,1.06.21-.14-.49-.28-.98-.43-1.49-.05-1.39-.07-2.77-.07-4.17,0-.43,0-.85,0-1.29,0-1.41,0-2.82-.01-4.22,0-.98,0-1.96,0-2.93,0-2.05,0-4.1,0-6.16,0-2.63-.01-5.26-.02-7.89,0-2.02-.01-4.04-.01-6.06,0-.97,0-1.94-.01-2.91,0-1.36,0-2.71,0-4.07,0-.4,0-.8-.01-1.21.02-2.73.46-4.52,2.25-6.58.88-.76,1.73-1.34,2.73-1.92.37-.22.75-.44,1.13-.66.42-.24.84-.48,1.27-.73.99-.58,1.98-1.16,2.96-1.74,1.59-.93,3.19-1.86,4.78-2.8,4.32-2.53,8.61-5.1,12.89-7.7,2.27-1.38,4.55-2.73,6.85-4.06,2.42-1.41,4.83-2.84,7.24-4.27,2.48-1.47,4.96-2.94,7.44-4.39.51-.3,1.02-.6,1.55-.91,1.05-.61,2.1-1.22,3.15-1.83,2.86-1.66,5.67-3.38,8.44-5.2q4.9-3.23,7.83-3.23v-.43Z"/>
        <path class="cls-22" d="m72.35.78c.84.57,1.69,1.14,2.52,1.72.82.57,1.65,1.13,2.47,1.68q.58.42,1.17.85v.64c-.46.12-.93.25-1.41.37-3.17.85-5.66,2.53-8.37,4.32-1.94,1.27-3.94,2.43-5.95,3.59-.82.48-1.64.96-2.46,1.43-.42.25-.84.49-1.28.74-3.58,2.09-7.17,4.18-10.72,6.32-2.05,1.22-4.1,2.42-6.15,3.62-2.5,1.46-4.99,2.93-7.45,4.45-2.95,1.82-5.93,3.57-8.93,5.31-.78.46-1.56.92-2.34,1.38-1.82,1.08-3.65,2.15-5.47,3.21-1.01.59-2.02,1.19-3.03,1.78-.39.23-.78.46-1.18.69-2.63,1.56-4.36,2.77-5.41,5.69-.1,1.45-.14,2.84-.12,4.28q0,.64,0,1.29c0,1.41,0,2.82.01,4.23,0,.98,0,1.96,0,2.94,0,2.05,0,4.1.02,6.15.01,2.63.02,5.26.02,7.89,0,2.51,0,5.02.01,7.52,0,.48,0,.96,0,1.45,0,1.35,0,2.71.01,4.06,0,.4,0,.8,0,1.22,0,1.5.04,2.95.25,4.44-1.71-.38-2.6-.75-4.05-1.63-.36-.22-.72-.43-1.08-.65-1.78-1.19-2.6-1.83-3.37-3.88-.06-1.39-.09-2.77-.08-4.16,0-.42,0-.84,0-1.28,0-1.4,0-2.79,0-4.19,0-.97,0-1.94,0-2.91,0-2.03,0-4.06,0-6.1,0-2.6,0-5.21,0-7.81,0-2,0-4,0-6.01,0-.96,0-1.92,0-2.88,0-1.34,0-2.69,0-4.03,0-.4,0-.79,0-1.2.02-3.33.57-5.53,2.7-8.11,1.41-1.21,3-2.06,4.61-2.98,2.66-1.56,5.32-3.13,7.94-4.77,2.27-1.41,4.57-2.76,6.88-4.1,1.85-1.09,3.7-2.19,5.54-3.3,2.9-1.74,5.81-3.46,8.73-5.18,2.75-1.63,5.49-3.26,8.22-4.93,2.21-1.34,4.43-2.65,6.67-3.95,1.95-1.14,3.88-2.33,5.81-3.5,1.68-1.02,3.37-2.02,5.07-3.01.98-.59,1.95-1.19,2.91-1.81,2.64-1.62,4.32-2.42,7.28-.94Z"/>
        <path class="cls-4" d="m77.45,39.04c.21.14.42.28.64.43.06.83.08,1.67.08,2.5,0,.51,0,1.02,0,1.54,0,.54,0,1.07,0,1.63,0,.53,0,1.07,0,1.62,0,.51,0,1.02,0,1.55,0,.47,0,.94,0,1.43-.12,1.73-.56,2.55-1.78,3.77-.98.58-1.98,1.15-2.98,1.7-4.21,2.36-8.4,4.76-12.49,7.33q-1.88,1.17-3.67,1.17-1.28-.64-2.13-1.7c-.08-1.48-.12-2.92-.11-4.4,0-.4,0-.81,0-1.22q.01-4.45,1.74-6.24c.95-.7,1.9-1.29,2.93-1.87q.59-.33,1.19-.67c.42-.23.84-.46,1.27-.7,3.36-1.87,6.69-3.77,9.99-5.74q.48-.29.98-.58,2.92-1.75,4.34-1.54Z"/>
        <path class="cls-3" d="m26.87,49.45q.53.32,1.06.64c.1,1.6.14,3.14.12,4.74,0,.44,0,.89,0,1.34q-.02,3.32-.98,4.76c-1.79,1.39-3.78,2.49-5.74,3.61q-.73.43-1.47.88-1.29.61-3.41.61c-.28-.21-.56-.42-.85-.64-.09-1.55-.13-3.06-.12-4.61,0-.43-.01-.86-.02-1.3,0-.41,0-.83,0-1.25,0-.38,0-.76,0-1.15q.13-1.04,1.2-2.74,1.04-.73,2.34-1.49c.5-.31,1-.62,1.52-.94q.79-.48,1.6-.97t1.61-.98q1.43-.72,3.13-.5Z"/>
        <path class="cls-10" d="m72.99,22.67v1.91c-1.23,1.06-2.25,1.74-3.65,2.51-2.94,1.64-5.81,3.38-8.67,5.14-.47.29-.94.58-1.43.87-2.67,1.64-5.33,3.29-7.98,4.95-1.15.72-2.3,1.43-3.45,2.14-2.91,1.8-5.81,3.62-8.72,5.44-.45.28-.89.56-1.35.85q-.6.38-1.22.76c-.38.23-.76.47-1.14.71-.38.24-.76.48-1.14.73q-.98.55-2.04.55-.21-.21-.21-1.49c1.31-1.63,3.13-2.53,4.89-3.61.83-.52,1.66-1.04,2.48-1.55q.64-.4,1.3-.81c1.3-.81,2.6-1.63,3.91-2.44,1.6-1,3.2-2,4.81-2.99,1.37-.85,2.73-1.7,4.09-2.56,3.98-2.52,8.03-4.92,12.07-7.33,1.82-1.1,3.6-2.26,5.38-3.42q1.03-.56,2.1-.35Z"/>
        <path class="cls-19" d="m75.12,44.35c.45.91.28,2.15.29,3.14.01.49.02.99.03,1.5q-.11,1.32-1.17,2.59-3.25,2.13-5.31,2.13-.43-.43-.5-2.35c.09-2.35.49-3.5,1.99-5.3q2.9-1.95,4.68-1.7Z"/>
        <path class="cls-18" d="m64.7,50.94c1.07,1.34.98,1.93.85,3.61-.76,2.53-2.2,4.18-4.46,5.53q-1.7.21-2.34-.21c-.57-1.7-.39-3.58.24-5.22,1.57-2.43,2.8-3.71,5.71-3.71Z"/>
        <path class="cls-2" d="m77.45,39.04c.21.14.42.28.64.43.06.84.08,1.68.08,2.52q0,.77,0,1.55c0,.54,0,1.08-.01,1.64,0,.54,0,1.08,0,1.63q-.01,4.02-.49,4.98c0-.31,0-.62,0-.93-.02-1.38-.04-2.77-.06-4.15,0-.48,0-.97-.01-1.47,0-.46-.01-.92-.02-1.39,0-.43-.01-.85-.02-1.29q-.05-.48-.09-.96-.86-.32-2.76-.21c-1.01.6-2,1.25-2.98,1.91-.88.51-1.76,1.02-2.64,1.53q-4.57,2.62-8.99,5.47-1.12.66-2.61.66c-.14-.07-.28-.14-.43-.21.07-.35.14-.7.21-1.06q1-.65,2.35-1.37c1.84-1,3.67-2.01,5.47-3.07,2.38-1.4,4.79-2.77,7.19-4.13q1.35-.76,2.6-1.64,1.09-.63,2.57-.42Z"/>
        <path class="cls-14" d="m25.81,51.36c.09.87.13,1.73.16,2.6.02.48.04.97.06,1.46-.07.41-.15.82-.22,1.25q-.91.49-2.13.85c-.86.53-1.7,1.08-2.54,1.65q-2.28,1.54-2.99,1.54-.64-3.83.21-5.1c.42-.21.84-.42,1.28-.64.87-.53,1.73-1.07,2.59-1.61.45-.29.91-.57,1.38-.86q1.81-1.14,2.2-1.14Z"/>
        <path class="cls-9" d="m44.08,62.42v1.06c-1.25,1-2.57,1.75-3.96,2.55-2.14,1.25-4.26,2.52-6.35,3.85-1.04.66-2.08,1.31-3.12,1.95q-4.05,2.47-8.04,5.03h-.85q.21-1.06,1.91-2.34c.61-.4,1.23-.79,1.85-1.18.35-.22.71-.44,1.07-.67,1.48-.92,2.97-1.85,4.46-2.76.73-.45,1.46-.9,2.19-1.36,2.7-1.68,5.42-3.33,8.14-4.98q1.91-1.16,2.7-1.16Z"/>
        <path class="cls-9" d="m41.53,70.49v1.06c-1.25,1.04-2.46,1.77-3.87,2.56-2.37,1.35-4.68,2.76-6.97,4.24q-10.36,6.59-11.48,6.59.21-1.06,1.14-1.78c1.18-.76,2.37-1.52,3.56-2.26.45-.28.9-.56,1.36-.85.45-.28.91-.56,1.38-.86.83-.52,1.67-1.04,2.5-1.57,2.39-1.49,4.79-2.96,7.2-4.41.81-.49,1.61-.98,2.42-1.47q2.06-1.26,2.76-1.26Z"/>
        <path class="cls-9" d="m54.29,42.01v1.06c-1.5,1.12-2.97,2.04-4.6,2.98-2.29,1.33-4.54,2.7-6.77,4.14-1.79,1.14-3.6,2.25-5.42,3.36-1.1.68-2.19,1.37-3.28,2.07q-1.41.85-2.26.85.21-1.06,1.28-1.91c.76-.49,1.53-.97,2.3-1.45q.68-.43,1.38-.86c.47-.29.94-.58,1.42-.88.86-.54,1.73-1.08,2.59-1.62q6.51-4.07,8.94-5.49c.94-.55,1.87-1.12,2.78-1.74q.78-.5,1.63-.5Z"/>
        <path class="cls-13" d="m25.81,57.32q.21.85.21,2.76c-1.42,1.42-3.06,2.31-4.82,3.25-.35.19-.69.38-1.05.57q-.93.43-1.99.43-.17-1.3,0-2.76c1.37-1.03,2.73-1.95,4.18-2.84.43-.26.85-.53,1.29-.8q1.11-.61,2.18-.61Z"/>
        <path class="cls-16" d="m26.87,49.45q.53.32,1.06.64c.08,1.38.11,2.7.08,4.08,0,.38,0,.76,0,1.16-.01.95-.04,1.89-.07,2.84h-.21c-.02-1.31-.02-2.62-.01-3.93,0-.38,0-.75,0-1.14,0-.93,0-1.86.01-2.8-2.61,1.38-5.07,2.89-7.47,4.61-1.41.84-2.46.45-4.01.07,1.2-1.2,2.36-1.89,3.83-2.76.41-.26.83-.51,1.26-.78.45-.27.9-.55,1.36-.83.43-.26.86-.53,1.3-.8q1.18-.57,2.89-.36Z"/>
        <path class="cls-15" d="m80,8.64h.64c.06,1.24.08,2.46.08,3.71,0,.39,0,.79,0,1.19,0,1.31,0,2.62,0,3.93,0,.91,0,1.81,0,2.72,0,1.9,0,3.8,0,5.7,0,2.44,0,4.89,0,7.33,0,1.87,0,3.74,0,5.61,0,.9,0,1.8,0,2.71,0,1.26,0,2.51,0,3.77,0,.38,0,.76,0,1.14,0,.85-.02,1.71-.03,2.56h-.21c-.01-1.08-.01-2.17,0-3.25,0-.67,0-1.34,0-2.03,0-1.08.01-2.16.02-3.23,0-1.03.01-2.07.01-3.1,0-.62,0-1.25.01-1.89-.01-.45-.03-.9-.04-1.37h-.43c-.04-.78-.06-1.56-.06-2.34,0-.51,0-1.02,0-1.55,0-.56,0-1.12,0-1.69,0-.57,0-1.13,0-1.72,0-1.2,0-2.4,0-3.6,0-1.85,0-3.69,0-5.54,0-1.16,0-2.32,0-3.49,0-.56,0-1.12,0-1.69,0-.51,0-1.02,0-1.55,0-.45,0-.91,0-1.37q.04-.48.08-.97Z"/>
        <path class="cls-11" d="m77.45,39.04c.21.14.42.28.64.43.06.84.08,1.68.08,2.52,0,.51,0,1.03,0,1.55,0,.54,0,1.08-.01,1.64,0,.54,0,1.08,0,1.63q-.01,4.02-.49,4.98,0-.46.01-.92c.01-1.38,0-2.75,0-4.12,0-.48.01-.96.02-1.45,0-.46,0-.92-.01-1.39,0-.42,0-.85,0-1.28-.08-.34-.16-.68-.24-1.03q-.95-.42-1.91-.85c-.14-.21-.28-.42-.43-.64.38-1.51.8-1.28,2.34-1.06Z"/>
        <path class="cls-8" d="m80,35h.21c.09,2.41.11,4.82.15,7.23.01.69.03,1.38.04,2.09,0,.65.02,1.3.03,1.98,0,.61.02,1.21.03,1.83-.01.44-.02.88-.03,1.33h-.43c-.06-.92-.1-1.83-.12-2.75-.04-1.66-.12-3.25-.31-4.9-.21-.07-.42-.14-.64-.21q.25-1.39.64-2.76h.43c0-1.28,0-2.55,0-3.83Z"/>
        <path class="cls-6" d="m25.38,57.1c-.9.56-1.8,1.12-2.7,1.67-.5.31-1,.62-1.52.94q-1.31.79-2.38,1.21v-.43c.86-.59,1.74-1.16,2.62-1.71.49-.31.97-.62,1.47-.94q1.67-1.02,2.5-.75Z"/>
        <path class="cls-7" d="m79.58,38.82c.14.07.28.14.43.21.04.78.05,1.57.04,2.35q0,.65,0,1.31-.02.5-.04,1.02h-.21c-.07-.63-.14-1.26-.21-1.91-.21-.07-.42-.14-.64-.21.19-.93.4-1.85.64-2.76Z"/>
        <path class="cls-12" d="m76.6,39.04c-.07.7-.14,1.4-.21,2.13-.35-.21-.7-.42-1.06-.64-.07-.35-.14-.7-.21-1.06q.43-.43,1.49-.43Z"/>
        <path class="cls-5" d="m21.34,58.8c.14.07.28.14.43.21q-1.91,1.91-2.98,1.91v-.43c.83-.59,1.68-1.16,2.55-1.7Z"/>
        <path class="cls-5" d="m25.38,57.1q-.53.32-1.06.64c-.21-.07-.42-.14-.64-.21.61-.61.88-.7,1.7-.43Z"/>
        <path class="cls-21" d="m17.52,53.7c.14.07.28.14.43.21q-.63.53-1.28,1.06c-.14-.07-.28-.14-.43-.21.42-.35.84-.7,1.28-1.06Z"/>
        <path class="cls-20" d="m57.26,49.66h.43c-.07.35-.14.7-.21,1.06h-.43c.07-.35.14-.7.21-1.06Z"/>
        <path class="cls-5" d="m20.07,59.65h.43c-.07.21-.14.42-.21.64h-.42c.07-.21.14-.42.21-.64Z"/>
      </g>
    </g>
  </g>
</svg>