<?xml version="1.0" encoding="UTF-8"?>
<svg id="Layer_2" data-name="Layer 2" xmlns="http://www.w3.org/2000/svg" xmlns:xlink="http://www.w3.org/1999/xlink" viewBox="0 0 61.03 68.88">
  <defs>
    <style>
      .cls-1 {
        mask: url(#mask);
      }

      .cls-2 {
        fill: #f4abdc;
      }

      .cls-2, .cls-3, .cls-4, .cls-5, .cls-6, .cls-7, .cls-8, .cls-9, .cls-10, .cls-11, .cls-12, .cls-13, .cls-14, .cls-15, .cls-16, .cls-17, .cls-18, .cls-19, .cls-20, .cls-21, .cls-22, .cls-23, .cls-24, .cls-25, .cls-26, .cls-27, .cls-28, .cls-29, .cls-30, .cls-31, .cls-32, .cls-33, .cls-34, .cls-35, .cls-36, .cls-37, .cls-38, .cls-39, .cls-40, .cls-41, .cls-42, .cls-43, .cls-44, .cls-45, .cls-46, .cls-47, .cls-48, .cls-49, .cls-50, .cls-51, .cls-52, .cls-53, .cls-54, .cls-55, .cls-56, .cls-57, .cls-58, .cls-59, .cls-60, .cls-61, .cls-62, .cls-63, .cls-64, .cls-65, .cls-66, .cls-67, .cls-68, .cls-69, .cls-70, .cls-71, .cls-72, .cls-73, .cls-74, .cls-75, .cls-76, .cls-77, .cls-78, .cls-79, .cls-80, .cls-81, .cls-82, .cls-83, .cls-84, .cls-85, .cls-86, .cls-87, .cls-88, .cls-89, .cls-90, .cls-91, .cls-92, .cls-93, .cls-94, .cls-95, .cls-96, .cls-97, .cls-98, .cls-99, .cls-100, .cls-101, .cls-102, .cls-103, .cls-104, .cls-105, .cls-106, .cls-107, .cls-108, .cls-109, .cls-110, .cls-111, .cls-112, .cls-113, .cls-114, .cls-115, .cls-116, .cls-117, .cls-118, .cls-119, .cls-120, .cls-121, .cls-122, .cls-123, .cls-124, .cls-125 {
        stroke-width: 0px;
      }

      .cls-3 {
        fill: #f7d4c1;
      }

      .cls-4 {
        fill: #47e3fc;
      }

      .cls-5 {
        fill: #4af0d3;
      }

      .cls-6 {
        fill: #5deae4;
      }

      .cls-7 {
        fill: #76d2e6;
      }

      .cls-8 {
        fill: #50eed7;
      }

      .cls-9 {
        fill: #4dfea2;
      }

      .cls-10 {
        fill: #4fecaf;
      }

      .cls-11 {
        fill: #75feed;
      }

      .cls-12 {
        fill: #2496c8;
      }

      .cls-13 {
        fill: #25f8f2;
      }

      .cls-14 {
        fill: #2c6b94;
      }

      .cls-15 {
        fill: #5aebfd;
      }

      .cls-16 {
        fill: #54d6ca;
      }

      .cls-17 {
        fill: #98fdb2;
      }

      .cls-18 {
        fill: #6cf7f6;
      }

      .cls-19 {
        fill: #94f5fb;
      }

      .cls-20 {
        fill: #53c2dc;
      }

      .cls-21 {
        fill: #6df3f1;
      }

      .cls-22 {
        fill: #6dd4db;
      }

      .cls-23 {
        fill: #6ff7ef;
      }

      .cls-24 {
        fill: #2cfeb5;
      }

      .cls-25 {
        fill: #35f6d7;
      }

      .cls-26 {
        fill: #377b9f;
      }

      .cls-27 {
        fill: #3a5c86;
      }

      .cls-28 {
        fill: #24cfd6;
      }

      .cls-29 {
        fill: #55bad6;
      }

      .cls-30 {
        fill: #2bdbeb;
      }

      .cls-31 {
        fill: #17f2b0;
      }

      .cls-32 {
        fill: #1ac3f0;
      }

      .cls-33 {
        fill: #16a5db;
      }

      .cls-34 {
        fill: #09517f;
      }

      .cls-35 {
        fill: #0c1f4f;
      }

      .cls-36 {
        fill: #0ab9d4;
      }

      .cls-37 {
        fill: #0c70a8;
      }

      .cls-38 {
        fill: #0bb6da;
      }

      .cls-39 {
        fill: #0e6290;
      }

      .cls-40 {
        fill: #0e93b5;
      }

      .cls-41 {
        fill: #17c0cf;
      }

      .cls-42 {
        fill: #1c89cb;
      }

      .cls-43 {
        fill: #0c9fdd;
      }

      .cls-44 {
        fill: #0e3b67;
      }

      .cls-45 {
        fill: #0e5581;
      }

      .cls-46 {
        fill: #071f5e;
      }

      .cls-47 {
        fill: #06739d;
      }

      .cls-48 {
        fill: #04bccd;
      }

      .cls-49 {
        fill: #078cbe;
      }

      .cls-50 {
        fill: #058ac0;
      }

      .cls-51 {
        fill: #0b2869;
      }

      .cls-52 {
        fill: #0abbc1;
      }

      .cls-53 {
        fill: #08a1d8;
      }

      .cls-54 {
        fill: #12a4cb;
      }

      .cls-55 {
        fill: #153c65;
      }

      .cls-56 {
        fill: #09a6c6;
      }

      .cls-57 {
        fill: #074775;
      }

      .cls-58 {
        fill: #0a92cb;
      }

      .cls-59 {
        fill: #075a89;
      }

      .cls-60 {
        fill: #07a0d7;
      }

      .cls-61 {
        fill: #1ed7e4;
      }

      .cls-62 {
        fill: #22b5db;
      }

      .cls-63 {
        fill: #1ce9c7;
      }

      .cls-64 {
        fill: #1bd6a8;
      }

      .cls-65 {
        fill: #1f385a;
      }

      .cls-66 {
        fill: #10c7be;
      }

      .cls-67 {
        fill: #125376;
      }

      .cls-68 {
        fill: #10c5e7;
      }

      .cls-69 {
        fill: #123969;
      }

      .cls-70 {
        fill: #117cc3;
      }

      .cls-71 {
        fill: #102d64;
      }

      .cls-72 {
        fill: #1efdb3;
      }

      .cls-73 {
        fill: #1784c2;
      }

      .cls-74 {
        fill: #15a2cf;
      }

      .cls-75 {
        fill: #183870;
      }

      .cls-76 {
        fill: #254a71;
      }

      .cls-77 {
        fill: #14cfa5;
      }

      .cls-78 {
        fill: #d1e0f0;
      }

      .cls-79 {
        fill: #cef7dc;
      }

      .cls-80 {
        fill: #cffbc1;
      }

      .cls-81 {
        fill: #c6c2e3;
      }

      .cls-82 {
        fill: #c6d9ea;
      }

      .cls-83 {
        fill: #d3e1f2;
      }

      .cls-84 {
        fill: #d9e3e5;
      }

      .cls-85 {
        fill: #adf9d6;
      }

      .cls-86 {
        fill: #b8f9eb;
      }

      .cls-87 {
        fill: #8defec;
      }

      .cls-88 {
        fill: #b3cde7;
      }

      .cls-89 {
        fill: #2ffeb7;
      }

      .cls-90 {
        fill: #2eb8d4;
      }

      .cls-91 {
        fill: #2eeaa4;
      }

      .cls-92 {
        fill: #6adaef;
      }

      .cls-93 {
        fill: #7afefb;
      }

      .cls-94 {
        fill: #95fdf8;
      }

      .cls-95 {
        fill: #022152;
      }

      .cls-96 {
        fill: #0298b4;
      }

      .cls-97 {
        fill: #71ccce;
      }

      .cls-98 {
        fill: #66eebf;
      }

      .cls-99 {
        fill: #e3d4b4;
      }

      .cls-100 {
        fill: #fff;
      }

      .cls-101 {
        fill: #e3ebb7;
      }

      .cls-102 {
        fill: #e8f5b5;
      }

      .cls-103 {
        fill: #e6c8d5;
      }

      .cls-104 {
        fill: #efa6f1;
      }

      .cls-105 {
        fill: #f5f1b4;
      }

      .cls-106 {
        fill: #f5d7c2;
      }

      .cls-107 {
        fill: #052b5a;
      }

      .cls-108 {
        fill: #022e5d;
      }

      .cls-109 {
        fill: #027cb3;
      }

      .cls-110 {
        fill: #010c39;
      }

      .cls-111 {
        fill: #03caa7;
      }

      .cls-112 {
        fill: #061343;
      }

      .cls-113 {
        fill: #03d0bc;
      }

      .cls-114 {
        fill: #029ad1;
      }

      .cls-115 {
        fill: #051144;
      }

      .cls-116 {
        fill: #012357;
      }

      .cls-117 {
        fill: #68d6d4;
      }

      .cls-118 {
        fill: #000442;
      }

      .cls-119 {
        fill: #000345;
      }

      .cls-120 {
        fill: #04315d;
      }

      .cls-121 {
        fill: #042e5a;
      }

      .cls-122 {
        fill: #038bb3;
      }

      .cls-123 {
        fill: #001c46;
      }

      .cls-124 {
        fill: #002045;
      }

      .cls-125 {
        fill: #001d50;
      }
    </style>
    <mask id="mask" x="-29.19" y="-14.6" width="108.82" height="108.82" maskUnits="userSpaceOnUse">
      <g id="mask0_1_2439" data-name="mask0 1 2439">
        <path class="cls-100" d="m79.63-14.6H-29.19v108.82h108.82V-14.6Z"/>
      </g>
    </mask>
  </defs>
  <g id="Layer_1-2" data-name="Layer 1">
    <g class="cls-1">
      <g>
        <path class="cls-93" d="m23.52.16c.21,0,.43,0,.65.01,5.09.16,9.63,2.19,13.81,5q.32.22.65.44c3.74,2.63,7.21,5.92,9.97,9.55.2.25.39.5.59.76,5.46,7.06,9.52,15.34,11.31,24.11q.06.27.12.55c.38,1.98.4,3.94.4,5.95,0,.18,0,.36,0,.54,0,2.67-.14,5.12-1.16,7.63-.09.24-.19.48-.29.72-1.47,3.26-3.97,5.03-6.83,6.97q-1.71,1.16-3.4,2.34c-4.79,3.39-9.25,4.6-15.14,3.88-10.7-2.08-19.66-10.47-25.56-19.22-2.45-3.78-4.38-7.69-5.95-11.9-.06-.16-.12-.32-.18-.48-.71-1.92-1.25-3.87-1.69-5.87-.04-.2-.09-.39-.13-.6C-.75,23.74,0,16.51,3.54,10.48c2.54-3.89,6.23-6.6,10.77-7.7.67-.14,1.32-.19,1.99-.23.95-.08,1.52-.36,2.29-.9,1.62-1.09,2.97-1.55,4.92-1.49Z"/>
        <path class="cls-119" d="m23.52.16c.21,0,.43,0,.65.01,5.09.16,9.63,2.19,13.81,5q.32.22.65.44c3.74,2.63,7.21,5.92,9.97,9.55.2.25.39.5.59.76,5.46,7.06,9.52,15.34,11.31,24.11q.06.27.12.55c.38,1.98.4,3.94.4,5.95,0,.18,0,.36,0,.54,0,2.67-.14,5.12-1.16,7.63-.09.24-.19.48-.29.72-1.47,3.26-3.97,5.03-6.83,6.97q-1.71,1.16-3.4,2.34c-4.79,3.39-9.25,4.6-15.14,3.88-10.7-2.08-19.66-10.47-25.56-19.22-2.45-3.78-4.38-7.69-5.95-11.9-.06-.16-.12-.32-.18-.48-.71-1.92-1.25-3.87-1.69-5.87-.04-.2-.09-.39-.13-.6C-.75,23.74,0,16.51,3.54,10.48c2.54-3.89,6.23-6.6,10.77-7.7.67-.14,1.32-.19,1.99-.23.95-.08,1.52-.36,2.29-.9,1.62-1.09,2.97-1.55,4.92-1.49ZM6.34,10.11C2.05,15.58,1.52,22.35,2.12,29.05c.43,3.52,1.54,7.08,3.1,10.27.19.4.37.8.54,1.21,3.35,7.77,8.61,14.87,15.43,19.91.17.13.35.26.52.4,1.56,1.15,3.28,2.06,4.98,2.97.37.2.74.41,1.11.61,3.97,2.15,9.25,3.23,13.7,2.2.77-.25,1.48-.53,2.21-.88.24-.11.48-.22.73-.33,2.72-1.35,4.51-3.26,6.07-5.83.14-.22.27-.44.41-.67,2.85-5.1,3.04-12.7,1.58-18.29-.1-.34-.2-.68-.3-1.02-.06-.21-.12-.42-.18-.64-2.06-7.29-5.18-14.3-10.02-20.19-.09-.11-.18-.22-.28-.34-5.24-6.47-12.73-13.18-21.4-14.11-5.47-.39-10.39,1.62-13.99,5.79Z"/>
        <path class="cls-80" d="m32.71,9.73c1.47,1.1,2.88,2.24,4.2,3.52.13.12.26.25.39.38,1.76,1.7,3.44,3.42,4.92,5.36q.22.27.43.54c4.18,5.3,7.37,11.77,9.01,18.32.13.52.27,1.05.42,1.57.1.36.19.72.29,1.08q.07.25.14.5c.4,1.53.58,2.98.55,4.56-1.73-.49-3.41-1.09-5.1-1.7q-.31-.11-.64-.23c-.9-.32-1.8-.66-2.69-1.02-1.15-.46-2.32-.86-3.51-1.25-.2-.07-.41-.13-.62-.2-.49-.16-.99-.33-1.48-.49-.02-.15-.05-.29-.07-.44-.92-5.55-3.22-9.83-6.94-14.01-.13-.14-.25-.29-.38-.44-1.76-1.89-4.01-3.17-6.42-4.03-.24-.09-.48-.18-.73-.28-2-.39-3.85-.31-5.65.7-.47.33-.86.67-1.28,1.06-1.02-.3-1.57-.9-2.24-1.69q-.77-.89-1.65-1.66-.17-.13-.35-.26v-.43c-.11-.05-.23-.1-.35-.16-.64-.34-1.19-.75-1.77-1.19-.22-.16-.43-.32-.66-.49-.74-.6-1.39-1.25-2.05-1.94-.88-.91-1.82-1.68-2.83-2.44q-.43-.38-.65-1.02c.41-.7.96-1.3,1.49-1.91.15-.18.3-.36.45-.55,7.06-8.24,18.09-5.37,25.74.22Z"/>
        <path class="cls-78" d="m5.03,12.18c.28.2.56.4.84.6.16.11.31.22.47.34q.39.34.61.98c.28.15.56.29.85.43q.39.35.76.74c.45.47.82.8,1.37,1.17v.42c.11.05.23.1.35.16.64.34,1.19.75,1.77,1.19.22.16.43.32.66.49.61.49,1.15,1.01,1.69,1.57.14.14.29.29.44.44.77.77,1.55,1.55,2.32,2.32.74-.35,1.4-.78,2.08-1.23,1.61-.89,3.41-.94,5.18-.53.64.2,1.26.44,1.88.7.18.07.36.15.54.23,5.23,2.4,9.1,7.68,11.13,12.95.07.21.15.42.23.64.08.23.17.46.25.69.95,3,1.17,6.89-.06,9.85q-1.51,2.61-2.54,3.02-.21.02-.42.04-.48-.41-.85-.85c-.26.11-.52.21-.78.32-2.14.69-4.05.46-6.07-.5-4.26-2.34-6.99-5.94-9.09-10.23q-.11.32-.21.64h-.43c-.21-.37-.42-.75-.62-1.12q-.23-.4-.65-.79c-.16-.45-.31-.91-.45-1.37-.08-.25-.15-.49-.23-.74q-.17-.65-.17-1.29c-.24.06-.47.13-.71.19-1.5.33-3.03.42-4.55.54-.52.04-1.04.08-1.57.13-1.91.15-3.79.25-5.71.21-.13-.55-.27-1.1-.4-1.65-.04-.15-.07-.3-.11-.46-.6-2.52-.85-4.96-.84-7.55,0-.16,0-.32,0-.48.02-3.76.2-9.33,3.05-12.18Z"/>
        <path class="cls-104" d="m33.09,10.27c2,.91,3.59,2.67,5.11,4.21.19.19.37.38.57.57,1.24,1.26,2.4,2.52,3.46,3.93.14.18.28.35.43.53,4.18,5.3,7.37,11.78,9.01,18.32.13.52.27,1.05.42,1.57.1.36.19.72.29,1.08.04.17.09.33.14.5.4,1.53.58,2.98.55,4.56-1.73-.49-3.41-1.09-5.1-1.7-.21-.08-.42-.15-.64-.23-.9-.32-1.8-.66-2.69-1.02-1.15-.46-2.32-.86-3.51-1.25-.2-.07-.41-.13-.62-.2-.49-.16-.99-.33-1.48-.49-.02-.15-.05-.29-.07-.44-.98-5.9-3.63-11.17-8.17-15.16-.36-.46-.4-.82-.48-1.39q.11-.53.29-1.08.1-.3.2-.61t.21-.63c.07-.21.14-.41.21-.63.27-.82.54-1.63.83-2.44.17-.54.28-1.06.36-1.62.2-1.22.56-2.37.94-3.54.22-1.03.05-1.86-.27-2.84Z"/>
        <path class="cls-9" d="m5.03,12.18c.28.2.56.4.84.6.16.11.31.22.47.34q.39.34.61.98c.28.15.56.29.85.43q.39.35.76.74c.45.47.82.8,1.37,1.17v.42c.11.05.23.1.35.16.64.34,1.19.75,1.77,1.19.22.16.43.32.66.49.61.49,1.15,1.01,1.69,1.57.14.14.29.29.44.44.77.77,1.55,1.55,2.32,2.32.74-.35,1.4-.78,2.08-1.23,1.61-.89,3.41-.94,5.18-.53.64.2,1.26.44,1.88.7.18.07.36.15.54.23,5.23,2.4,9.1,7.68,11.13,12.95.07.21.15.42.23.64.08.23.17.46.25.69.95,3,1.17,6.89-.06,9.85q-1.55,2.67-2.57,2.99c-.13.02-.25.04-.39.07q-.42-.53-.85-1.06c.1-.1.2-.19.3-.29,1.97-2.06,2.35-4.51,2.3-7.28-.19-5.19-2.75-9.96-6.44-13.55-.63-.55-1.31-1.01-2.01-1.48-.47-.32-.89-.67-1.32-1.04-1.7-1.28-4.13-1.73-6.22-1.45-1.12.35-1.93.87-2.76,1.7q-.39.71-.64,1.49c-.07.21-.15.43-.22.65-.29,1.04-.28,2.09-.28,3.17v.65c.03,1.89.4,3.5.93,5.31.16.78.3,1.56.43,2.34q-.32.11-.64.21c-.21-.37-.42-.75-.62-1.12q-.23-.4-.65-.79c-.16-.45-.31-.91-.45-1.37-.08-.25-.15-.49-.23-.74q-.17-.65-.17-1.29c-.24.06-.47.13-.71.19-1.5.33-3.03.42-4.55.54-.52.04-1.04.08-1.57.13-1.91.15-3.79.25-5.71.21-.13-.55-.27-1.1-.4-1.65-.04-.15-.07-.3-.11-.46-.6-2.52-.85-4.96-.84-7.55,0-.16,0-.32,0-.48.02-3.76.2-9.33,3.05-12.18Z"/>
        <path class="cls-121" d="m17.41,2.57c.2,0,.39,0,.6,0,5.54.09,10.42,2.17,14.87,5.36.23.16.46.33.69.49,1.21.89,2.35,1.82,3.45,2.84.37.34.74.67,1.12,1,1.18,1.04,2.21,2.1,3.18,3.34.43.54.87,1.05,1.32,1.57,6.22,7.11,10.09,16.39,11.7,25.62.04.2.08.4.12.6.18,1.22.14,2.45.14,3.68,0,.48,0,.95,0,1.43.02,5.62-1.21,10.99-4.88,15.38q-.32.35-.27.8c-.44.32-.87.62-1.33.9-.13.09-.27.17-.41.26-4.39,2.73-8.99,3.64-14.13,2.64-11.52-3.01-20.65-11.74-26.6-21.8-1.72-2.96-3.09-6-4.29-9.21-.06-.16-.12-.32-.18-.48-.71-1.92-1.25-3.87-1.69-5.87-.04-.2-.09-.39-.13-.6C-.75,23.74,0,16.51,3.54,10.48c2.62-4,6.47-6.78,11.17-7.78.9-.14,1.79-.15,2.69-.14Zm-11.07,7.55C2.05,15.58,1.52,22.35,2.12,29.05c.43,3.52,1.54,7.08,3.1,10.27.19.4.37.8.54,1.21,3.35,7.77,8.61,14.87,15.43,19.91.17.13.35.26.52.4,1.56,1.15,3.28,2.06,4.98,2.97.37.2.74.41,1.11.61,3.97,2.15,9.25,3.23,13.7,2.2.77-.25,1.48-.53,2.21-.88.24-.11.48-.22.73-.33,2.72-1.35,4.51-3.26,6.07-5.83.14-.22.27-.44.41-.67,2.85-5.1,3.04-12.7,1.58-18.29-.1-.34-.2-.68-.3-1.02-.06-.21-.12-.42-.18-.64-2.06-7.29-5.18-14.3-10.02-20.19-.09-.11-.18-.23-.28-.34-5.24-6.47-12.73-13.18-21.4-14.11-5.47-.39-10.39,1.62-13.99,5.79Z"/>
        <path class="cls-85" d="m21.61,44.7c.52.52,1.04,1.03,1.53,1.57,2.7,2.86,5.81,4.24,9.73,4.38.06.18.12.36.18.55.85,2.5,1.84,4.94,2.85,7.38.12.28.23.57.35.85q.08.21.17.42c.46,1.12.89,2.24,1.32,3.37.3.77.61,1.54.93,2.3q.15.43.15,1.07c-.43.01-.87.02-1.3.03-.24,0-.48,0-.73.01q-.73-.04-1.35-.27c-.71-.22-1.17-.13-1.89-.01-.9.05-1.7-.27-2.53-.56-.19-.07-.39-.13-.58-.2-2.15-.77-4.1-1.87-6.06-3.04-.22-.13-.45-.26-.68-.4-2.63-1.6-4.96-3.65-7.18-5.77-.19-.18-.39-.37-.58-.56q-.99-.96-1.33-1.36v-.43c.13-.06.26-.11.39-.17,1.2-.66,1.94-2.01,2.67-3.14.37-.56.77-1.1,1.17-1.63,1.02-1.39,2.02-2.86,2.79-4.41Z"/>
        <path class="cls-87" d="m15.87,33.44c.04.13.08.27.12.41,1.11,3.72,2.43,7.33,5.35,10.02q.27.41.25,1.03c-.2.69-.45,1.17-.84,1.76-.13.2-.27.4-.41.61-.56.81-1.13,1.6-1.71,2.39-.4.55-.79,1.1-1.18,1.66-.24.35-.49.69-.73,1.04-.13.18-.26.37-.39.56-.13.18-.26.35-.39.53-.11.16-.23.32-.35.48q-.36.34-1.21.34-.32-.28-.61-.69-.17-.22-.34-.45c-.12-.16-.23-.32-.35-.49-.12-.17-.24-.33-.37-.5-.25-.34-.5-.68-.74-1.02-.3-.41-.6-.81-.9-1.2-2.39-3.19-4.56-6.9-5.94-10.64-.32-.85-.64-1.69-1-2.52-.34-.83-.51-1.58-.58-2.47q.21,0,.42.01c1.88.03,3.73-.11,5.6-.27.53-.05,1.06-.09,1.59-.13.34-.03.68-.06,1.03-.08q.23-.02.47-.04c1.07-.09,2.15-.33,3.22-.33Z"/>
        <path class="cls-23" d="m16.93,4.53c.03.12.06.24.09.36.3,1.07.67,2.09,1.11,3.11,1.1,2.52,2.06,5.1,2.96,7.69q.97,3.11,3.1,5.37c.2.09.39.18.6.27q-.43.21-1.06,0c-2.14-.18-3.96.05-5.66,1.43-.17.16-.33.32-.5.48-1.02-.3-1.57-.9-2.24-1.69q-.77-.89-1.65-1.66-.17-.13-.35-.26v-.43c-.11-.05-.23-.1-.35-.16-.64-.34-1.19-.75-1.77-1.19-.22-.16-.43-.32-.66-.49-.74-.6-1.39-1.25-2.05-1.94-.88-.91-1.82-1.68-2.83-2.44q-.43-.38-.65-1.02c.41-.7.96-1.3,1.49-1.91.15-.18.3-.36.45-.55,2.31-2.7,6.24-5.28,9.96-4.98Z"/>
        <path class="cls-81" d="m47.97,28.34c1.79,3.34,2.96,6.78,4,10.41.06.22.12.43.19.65.56,2.03,1,4.04.92,6.15-1.73-.49-3.41-1.09-5.1-1.7-.21-.08-.42-.15-.64-.23-.9-.32-1.8-.66-2.69-1.02-1.15-.46-2.32-.86-3.51-1.25-.2-.07-.41-.13-.62-.2-.49-.16-.99-.33-1.48-.49-.02-.15-.05-.29-.07-.44-.4-2.42-.97-4.77-2.06-6.98q-.2-.44-.2-.87,5.53-2.22,7.51-2.97c.75-.29,1.48-.6,2.22-.92.53-.17.98-.17,1.53-.15Z"/>
        <path class="cls-4" d="m18.21,36.84c.38.57.67,1.14.97,1.76.87,1.81,1.86,3.43,3.07,5.04.11.15.21.3.32.46,1.65,2.13,4.72,4.22,7.33,4.85,1.57.18,2.83.04,4.29-.54q.39-.1.93.15.31.39.31.81c.49-.28.98-.56,1.49-.85q.14.24.28.47c.31.51.64,1,.98,1.49.13.19.26.37.4.56.15.22.31.44.47.66.19.27.38.54.57.81,2.17,3.09,4.38,6.17,6.66,9.18.11.16.23.31.34.48.34.43.65.59,1.15.8-1.51,1.71-3.62,2.63-5.74,3.4-.21.08-.43.16-.65.24-1.18.33-2.42.24-3.63.22q-.37,0-.75,0c-1.05,0-2.02-.02-3.05-.25v-.43c.35-.07.7-.14,1.06-.21v.43c1.26.07,2.53.14,3.83.21-.26-.69-.52-1.38-.78-2.07-.07-.19-.14-.38-.22-.58-.47-1.24-.97-2.47-1.48-3.69-.5-1.22-.98-2.45-1.46-3.67-.2-.51-.4-1.02-.6-1.53-.09-.24-.19-.48-.28-.73-.17-.44-.35-.88-.53-1.32-.08-.19-.16-.37-.24-.57-.07-.16-.14-.32-.21-.49q-.15-.44-.15-1.29c-.15,0-.3.02-.46.03-3.16.11-5.71-1.02-8.07-3.07-.98-.92-1.88-1.88-2.74-2.91-.09-.1-.18-.21-.27-.32q-3.87-4.62-4.41-7.12c.14-.07.28-.14.43-.21q.64,1.22.64,1.7c.14-.07.28-.14.43-.21-.07-.56-.14-1.12-.21-1.7Z"/>
        <path class="cls-27" d="m32.56,2.11c1.92.83,3.68,1.9,5.42,3.06q.32.22.65.44c3.74,2.63,7.21,5.92,9.97,9.55.2.25.39.5.59.76,5.46,7.06,9.52,15.34,11.31,24.11.04.18.08.36.12.55.38,1.98.4,3.94.4,5.95,0,.18,0,.36,0,.54,0,2.67-.14,5.12-1.16,7.63-.09.24-.19.48-.29.72-1.13,2.51-2.95,4.67-5.45,5.87.34-.84.93-1.41,1.55-2.05,1.79-1.91,2.49-3.92,3.12-6.46.04-.13.08-.26.12-.4.44-1.64.4-3.33.4-5.01,0-.16,0-.33,0-.5,0-3.08-.38-5.99-1.16-8.97-.05-.2-.1-.39-.15-.59-.59-2.2-1.32-4.34-2.22-6.44-.18-.42-.36-.85-.53-1.28-1.76-4.19-4.08-8.26-6.84-11.88q-.17-.22-.34-.44c-.22-.29-.44-.58-.67-.87-.25-.33-.5-.66-.76-.99-2.35-3-5.18-5.66-8.26-7.9-.17-.13-.34-.26-.52-.4C32.34,3.03,26.29,1.39,19.48,1.34c3.45-2.71,9.4-.73,13.08.76Z"/>
        <path class="cls-118" d="m21.82,1.28c.25,0,.5,0,.75-.01,1.86,0,3.83.08,5.41,1.14-.14.14-.28.28-.43.43q-.6,0-1.3-.08c-.23-.02-.47-.05-.71-.07-.18-.02-.36-.04-.54-.06.18.06.36.12.54.19,7.73,2.88,14.36,8.59,19.18,15.19.17.23.34.46.51.69,5.27,7.11,8.93,14.99,10.58,23.67q.06.31.12.64c.31,1.78.38,3.53.38,5.34,0,.48,0,.96.02,1.44.02,2.13-.28,3.95-.95,5.98-.06.18-.11.35-.17.54-.22.67-.47,1.34-.71,2q-.25.65.03,1.29-.07.4-.21.85-.07.24-.13.49c-.4.78-1.01,1.17-1.73,1.65-.13.09-.26.18-.39.27-.38.26-.76.52-1.15.78-.13.08-.25.17-.38.25-.3.2-.6.4-.89.6-.14-.07-.28-.14-.43-.21.11-.15.23-.31.34-.47.15-.21.3-.41.46-.62.15-.2.3-.4.45-.61,3.12-4.36,3.95-9.46,3.95-14.73q0-.23,0-.47c-.04-11.2-5.39-22.3-12.51-30.73-.33-.39-.65-.78-.97-1.17-.93-1.13-1.85-2.2-2.99-3.13-.39-.33-.73-.68-1.09-1.05-.85-.86-1.78-1.56-2.75-2.27-.18-.13-.36-.26-.54-.39-5.14-3.71-9.95-5.32-16.22-6,1.36-1.46,2.54-1.35,4.46-1.34Z"/>
        <path class="cls-3" d="m25.65,5.81c2.49.87,6.42,2.56,7.82,4.89.6,1.52-.09,3.09-.59,4.57-.17.59-.3,1.14-.41,1.74-.28,1.45-.74,2.85-1.19,4.25-.34,1.09-.62,2.12-.74,3.25-.69-.33-1.32-.72-1.97-1.14-.95-.61-1.9-1.14-2.92-1.62.03-.12.07-.24.1-.36.35-1.6.09-3.35-.1-4.96h.43V6.23h-.43v-.43Z"/>
        <path class="cls-83" d="m25.22,29.83c2.73.92,4.66,3.01,5.95,5.53.96,1.96,1.53,3.52,1.28,5.74-.44,1.19-1.19,1.99-2.34,2.55-1.65.14-2.91-.69-4.14-1.72-2.98-2.87-3.93-6.09-4.03-10.15.12-.81.38-1.16.95-1.74.74-.37,1.53-.29,2.34-.21Z"/>
        <path class="cls-108" d="m25.79,28.04c1.45.52,2.55,1.4,3.68,2.42.18.16.36.32.55.48,1.48,1.37,2.38,2.85,3.28,4.62q.17.3.34.61c1.19,2.35,1.07,5.41.3,7.89-.52.99-1.22,1.88-2.32,2.25-2.25.43-3.75-.08-5.61-1.3-3.24-2.33-5.36-6.42-6.1-10.31-.27-1.99-.18-3.87,1.06-5.53,1.37-1.45,2.91-1.58,4.82-1.14Zm-3.54,2.63c-.88,1.75-.11,4.6.43,6.38,1.04,2.82,3.04,5.04,5.74,6.38.14.07.28.14.43.21.79.09,1.21.03,1.93-.32.96-.81,1.58-1.56,1.78-2.83.11-2.89-1.3-5.64-3.18-7.77-1.46-1.54-2.88-2.89-5.09-2.96-.93,0-1.38.23-2.03.92Z"/>
        <path class="cls-120" d="m26.29,21.96q.27.11.54.23c5.23,2.4,9.1,7.68,11.13,12.95.07.21.15.42.23.64.08.23.17.46.25.69.95,3,1.17,6.89-.06,9.85q-1.55,2.67-2.57,2.99c-.13.02-.25.04-.39.07-.28-.35-.56-.7-.85-1.06.1-.1.2-.19.3-.29,1.97-2.06,2.35-4.51,2.3-7.28-.19-5.19-2.75-9.96-6.44-13.55-.63-.55-1.31-1.01-2.01-1.48-.47-.32-.89-.67-1.32-1.04-1.7-1.28-4.13-1.73-6.22-1.45-1.12.35-1.93.87-2.76,1.7q-.39.71-.64,1.49c-.07.21-.15.43-.22.65-.29,1.04-.28,2.09-.28,3.17,0,.22,0,.43,0,.65.03,1.89.4,3.5.93,5.31.16.78.3,1.56.43,2.34q-.32.11-.64.21c-.21-.37-.42-.75-.62-1.12q-.23-.4-.65-.79c-1.55-3.38-1.94-7.64-.83-11.2.75-1.91,1.96-3.29,3.83-4.16,2.2-.84,4.46-.4,6.57.48Z"/>
        <path class="cls-89" d="m5.03,12.18c.28.2.56.4.84.6.16.11.31.22.47.34q.39.34.61.98c.28.15.56.29.85.43q.39.35.76.74c.45.47.82.8,1.37,1.17v.42c.11.05.23.1.35.16.64.34,1.19.75,1.77,1.19.22.16.43.32.66.49.61.49,1.15,1.01,1.69,1.57.14.14.29.29.44.44.28.28.57.57.85.85.25.25.5.49.76.73.25.24.49.49.72.74q0,.64-.39,1.26c-.64,1.05-.85,2.23-1.1,3.41-.22-.17-.44-.33-.66-.5-.78-.59-1.58-1.16-2.38-1.73-2.66-1.89-5.28-3.83-7.86-5.83-.67-.52-1.36-1.01-2.06-1.5.22-1.35.65-2.55,1.17-3.81q.1-.24.2-.49.49-1.17.97-1.65Z"/>
        <path class="cls-67" d="m24.37,2.41c1.63.08,3.01.36,4.52.96.19.08.39.15.58.23,1.75.71,3.33,1.59,4.89,2.64.2.14.4.27.61.41,3.98,2.79,7.73,6.34,10.65,10.22.15.19.3.37.45.57,5.41,6.96,9.11,15.09,11.03,23.66.06.26.12.51.17.78,1.07,5.99.18,12.07-2.94,17.29q-.21-.43-.03-1.01c.19-.48.37-.97.56-1.45.92-2.61,1.33-4.93,1.29-7.68,0-.16,0-.32,0-.48-.02-3.2-.45-6.24-1.18-9.36-.05-.2-.09-.4-.14-.6-.48-2.08-1.09-4.04-1.99-5.98-.14-.32-.28-.64-.42-.96-2.63-6.01-5.93-11.78-10.4-16.62-.4-.43-.78-.88-1.17-1.32-4.29-4.89-10.23-9.19-16.5-11.07v-.21Z"/>
        <path class="cls-15" d="m38.19,45.98q.23.23.46.46c.39.39.78.77,1.17,1.16q.29.28.58.57c.19.19.38.38.58.57.45.46.87.93,1.29,1.42.82.94,1.69,1.82,2.58,2.69.33.33.67.66,1,.99.52.51,1.04,1.03,1.56,1.54.51.5,1.01,1,1.52,1.5.16.15.31.31.48.47.14.14.29.29.44.43q.19.19.39.38.3.35.51.99c-.71,1.42-1.7,2.66-2.76,3.83-1.29-.27-1.74-.89-2.46-1.91-.11-.15-.22-.3-.33-.46-.23-.32-.46-.64-.69-.96-.34-.48-.69-.96-1.04-1.44-1.26-1.73-2.5-3.48-3.73-5.23-.47-.66-.93-1.32-1.42-1.97-.15-.2-.31-.41-.47-.62-.13-.17-.26-.34-.4-.52-.34-.54-.48-.91-.52-1.55q.2-.45.5-.88c.36-.51.57-.86.77-1.46Z"/>
        <path class="cls-106" d="m47.97,28.34c.27.53.54,1.06.81,1.59.08.15.15.3.23.45q1.41,2.8,1.3,4.33c-2.76.36-5.53.55-8.31.7-.14,0-.29.02-.44.03-.4.02-.8.04-1.2.07-.6.05-1.16.14-1.75.27v1.06c-.54-.54-.69-1.04-.96-1.75-.09-.24-.18-.48-.27-.72-.24-.66-.47-1.32-.68-1.99q5.53-2.22,7.51-2.97c.75-.29,1.48-.6,2.22-.92.53-.17.98-.17,1.53-.15Z"/>
        <path class="cls-17" d="m2.69,18.14c.71.32,1.29.74,1.91,1.21q.33.25.68.51c.13.1.25.19.38.29.86.65,1.72,1.3,2.58,1.95.17.13.35.26.53.4,1.06.8,2.13,1.57,3.22,2.32.58.41,1.16.82,1.74,1.24.19.14.38.27.58.42.16.13.33.25.5.38.13.1.25.19.39.29.38.53.29,1,.25,1.62-.39-.09-.77-.19-1.16-.28-.21-.05-.43-.1-.65-.16-2.17-.59-4.27-1.41-6.38-2.17-1.65-.59-3.3-1.17-5-1.65v1.28h-.21q-.11-6.16.64-7.65Z"/>
        <path class="cls-107" d="m24.37,27.91v.43q.2.05.41.09c1.4.37,2.34.88,3.42,1.82.17.14.34.28.52.43,2.25,1.92,4.17,4.48,4.8,7.44.05.64.04,1.27.04,1.91,0,.17,0,.34,0,.52,0,.17,0,.33,0,.5,0,.15,0,.3,0,.46-.06.5-.23.85-.48,1.28v-.64q-.42.21-.85.43c0-.26.02-.53.03-.8.05-2.02.05-3.73-.88-5.58q-.14-.29-.27-.59c-1.12-2.24-2.82-4.17-5.04-5.37-.91-.27-1.82-.37-2.76-.21q-.63.47-1.06,1.06c-.14.14-.28.28-.42.43-.66,1.94-.28,4.51.57,6.32.76,1.53,1.61,2.89,2.83,4.09.12.12.24.24.36.36.09.09.18.18.28.28q-.42.21-.85.43c.56.42,1.12.84,1.7,1.28q-.32.11-.64.21c-3.14-1.75-4.84-5.17-5.86-8.48-.53-1.94-.71-4.04.14-5.91,1.01-1.71,2.09-2.22,4.01-2.19Z"/>
        <path class="cls-84" d="m21.19,45.55h.21c.01.65.02,1.29.03,1.94,0,.18,0,.36.01.55,0,1.05-.11,1.83-.46,2.82-.03.54-.05,1.07-.05,1.61-.06,1.74-.62,3.03-1.43,4.56-.15.35-.29.71-.43,1.06.28.35.56.7.85,1.06-.82-.34-1.42-.9-2.06-1.5-.11-.1-.22-.21-.34-.31q-2.29-2.14-2.92-2.86v-.43c.13-.06.26-.11.39-.17,1.2-.66,1.94-2.01,2.67-3.13.38-.57.78-1.11,1.18-1.66.74-1.01,1.41-2.04,2.06-3.1.09-.14.19-.28.29-.43Z"/>
        <path class="cls-48" d="m18.21,36.84c.38.57.67,1.14.97,1.76.87,1.81,1.86,3.43,3.07,5.04.11.15.21.3.32.46,1.65,2.13,4.72,4.22,7.33,4.85,1.7.2,3.1,0,4.68-.64.35.35.7.7,1.06,1.06-1.35,1.09-2.98,1.4-4.69,1.35-4.01-.48-6.85-3.04-9.34-6.03-.09-.1-.18-.21-.27-.32q-3.87-4.62-4.41-7.12c.14-.07.28-.14.43-.21q.64,1.22.64,1.7c.14-.07.28-.14.43-.21-.07-.56-.14-1.12-.21-1.7Z"/>
        <path class="cls-109" d="m24.37,27.91c2.63.17,4.38,1.84,6.16,3.61.14.13.28.27.43.4,2.11,2.16,3.48,5.3,3.45,8.28q0,.27,0,.55c0,1.97-.33,3.56-1.76,5-1.25.8-2.59.83-4.04.64-2.23-.73-4.03-2.32-5.31-4.25q.41.17.85.43c.07.21.14.42.21.64q.38.22.85.43c.59.37,1.17.75,1.75,1.14,1.26.76,2.32.95,3.77.78.78-.23,1.3-.57,1.76-1.25,1.09-2.05,1.14-4.75.6-6.98-.25-.68-.54-1.32-.87-1.97-.09-.18-.18-.37-.28-.56-1.7-3.09-4.32-5.23-7.58-6.45v-.43Z"/>
        <path class="cls-116" d="m21.18,32.16h.21q.03.4.06.81.23,2.77,1.21,5.36c.08.16.16.32.24.49.75,1.46,1.79,2.61,2.95,3.76-.28.14-.56.28-.85.42.56.42,1.12.84,1.7,1.28q-.32.11-.64.21c-3.06-1.7-4.79-5.06-5.81-8.28-.24-1.13-.2-2.26-.14-3.41.28.07.56.14.85.21.07-.28.14-.56.21-.85Z"/>
        <path class="cls-36" d="m18.21,36.84c.38.57.67,1.14.97,1.76.87,1.81,1.86,3.43,3.07,5.04.11.15.21.3.32.46,1.6,2.07,4.4,3.93,6.9,4.64v.21c-1.95-.06-3.3-.81-4.74-2.1q-.52-.52-1.06-.4c-.75-.07-1-.41-1.48-.97-.11-.13-.21-.26-.32-.4q-.17-.2-.34-.41-4.17-5.12-4.6-7.42c.14-.07.28-.14.43-.21q.64,1.22.64,1.7c.14-.07.28-.14.43-.21-.07-.56-.14-1.12-.21-1.7Z"/>
        <path class="cls-60" d="m21.82,31.31h.21c.02.27.05.53.07.81q.23,2.73.99,5.36c.06.17.13.34.2.51,1,2.3,2.79,4.09,4.99,5.25.65.22,1.15.25,1.83.19.92-.5,1.51-1.07,2.13-1.91-.06.84-.16,1.22-.72,1.87-.88.73-1.56.77-2.68.68-2.73-.72-4.69-2.7-6.1-5.07-1.12-2.08-1.59-4.26-1.34-6.62q.22-.6.43-1.06Z"/>
        <path class="cls-32" d="m23.31,42.15q.41.17.85.43c.07.21.14.42.21.64q.38.22.85.43c.59.37,1.17.75,1.75,1.14,1.26.76,2.32.96,3.77.78.94-.34,1.56-.87,2.13-1.7h.43c.07-.21.14-.42.21-.64h.64c-.35,1.34-.95,2.22-2.14,2.95-1.26.46-2.68.47-3.96.05-1.98-.93-3.54-2.24-4.74-4.06Z"/>
        <path class="cls-105" d="m25.65,5.81c.28.07.56.14.85.21.25.79.24,1.53.24,2.35v.45c0,.49,0,.98,0,1.48,0,.34,0,.68,0,1.03,0,.9,0,1.8,0,2.7,0,.92,0,1.84,0,2.75,0,1.8,0,3.6-.01,5.4-.35-.14-.7-.28-1.06-.43.03-.12.07-.24.1-.36.35-1.6.09-3.35-.1-4.96h.43V6.23h-.43v-.43Z"/>
        <path class="cls-82" d="m23.95,44.49c.2.04.39.07.6.11q.67.12,1.32.11.35.24.64.64c.03.21.05.43.08.65.04.21.09.41.13.62q.47.24,1.06.43c.24.09.47.18.72.27.25.09.51.18.77.28q.38.14.77.28c.6.2,1.16.35,1.78.45v.21c-1.18.06-2.03-.06-3.13-.5q-.5-.17-1.09-.09c-.94-.06-1.41-.5-2.12-1.1-.12-.1-.25-.2-.38-.3q-.84-.68-1.15-.99c0-.35,0-.71,0-1.06Z"/>
        <path class="cls-111" d="m24.2,46.31c.54.27.85.52,1.29.92,1.3,1.15,2.7,1.6,4.41,1.73-.05.13-.1.25-.15.39-.02.15-.04.31-.07.46q.29.38.64.64c-2.46-.21-4.62-1.39-6.33-3.16-.24-.28-.46-.58-.68-.88q.43-.21.89-.09Z"/>
        <path class="cls-31" d="m15.02,28.98h.43c.04.74.08,1.48.12,2.22q.02.32.04.64c.01.2.02.4.03.61.01.19.02.37.03.56q0,.43-.22.65c-.47.06-.95.11-1.42.15-.14.01-.29.03-.44.04-.47.04-.93.08-1.4.13-.31.03-.61.06-.92.08-.88.08-1.75.16-2.63.23-.24.02-.49.04-.74.07-1.12.1-2.23.17-3.35.16q-.35,0-.71,0c-.17,0-.34,0-.51,0-.14-.63-.28-1.26-.43-1.91h.43c.21.49.42.98.64,1.49,1.42-.06,2.83-.13,4.25-.21.22-.01.43-.03.66-.04.65-.04,1.31-.09,1.96-.13.2-.01.41-.02.62-.04,1.27-.1,2.09-.35,3.14-1.07v-.43h.42v-3.19Z"/>
        <path class="cls-56" d="m18.21,36.84c.31.47.57.9.82,1.41.07.15.15.29.22.44q.11.23.23.46t.23.46c.68,1.37,1.1,2.51,1.26,4.03-.81-.76-1.43-1.55-2.02-2.48-.08-.13-.16-.26-.25-.39-.66-1.06-1.25-2.15-1.77-3.29.14-.14.28-.28.43-.43q.64,1.22.64,1.7c.14-.07.28-.14.43-.21-.07-.56-.14-1.12-.21-1.7Z"/>
        <path class="cls-94" d="m21.82,44.92c.77.77,1.44,1.5,2.13,2.34-.08.11-.16.22-.24.34-.86,1.24-1.51,2.52-2.1,3.91h-.21q.21-3.26.43-6.59Z"/>
        <path class="cls-61" d="m26.87,24.09c.31.2.61.42.9.63q-.43.21-.93.05c-.2-.08-.4-.16-.61-.24-1.79-.71-3.56-.82-5.47-.66-1.51.67-2.54,2.13-3.19,3.61q-.21-.43.01-1.21c.53-1.34,1.43-2.42,2.75-3.04,2.07-.62,4.68-.24,6.54.86Z"/>
        <path class="cls-50" d="m33.3,35.99c1.1,1.31,1.13,2.65,1.1,4.28,0,.19,0,.38,0,.58q-.01,1.74-.25,2.37-.32.11-.64.21c-.07.14-.14.28-.21.43-.14-.07-.28-.14-.43-.21q.1-.36.21-.73c.24-.97.27-1.89.26-2.88,0-.16,0-.32,0-.49,0-.8-.05-1.58-.16-2.37q-.09-.76.12-1.18Z"/>
        <path class="cls-90" d="m47.33,27.91v.43q-2.28.91-2.72,1.09c-.32.13-.64.26-.97.39-.36.14-.71.28-1.07.43-.38.15-.75.3-1.13.45-.58.23-1.16.46-1.74.69-.2.08-.39.16-.59.24-.19.07-.38.15-.57.22-.17.07-.34.13-.51.2-.53.13-.82.08-1.32-.09,1.98-.99,4-1.82,6.06-2.62.24-.09.48-.18.72-.28q3-1.14,3.85-1.14Z"/>
        <path class="cls-86" d="m21.61,44.7h.21q.07,7.09-.85,8.93h-.43c.02-.43.05-.87.08-1.3.01-.24.03-.48.04-.73q.09-.73.3-1.32c.3-.99.3-1.95.33-2.97.01-.4.03-.8.04-1.21,0-.18.01-.35.02-.54q.04-.44.25-.86Z"/>
        <path class="cls-8" d="m3.54,34.29c.53.47.75.83.94,1.5.61,1.96,1.43,3.85,2.33,5.7.1.21.2.41.3.63.09.19.19.38.28.58.2.57.18.82-.03,1.38-.94-1.81-1.83-3.61-2.53-5.53-.22-.6-.46-1.19-.71-1.77-.34-.83-.51-1.58-.58-2.47Z"/>
        <path class="cls-12" d="m21.82,31.31h.21c.03.27.06.54.09.82.04.36.08.73.11,1.09.02.18.04.36.06.54.11,1.1.24,2.19.38,3.29h-.85c-.42-1.92-.83-3.89,0-5.74Z"/>
        <path class="cls-76" d="m58.59,56.82c-.72,2.07-2.46,3.32-4.25,4.46,0-.86.33-1.07.9-1.7.17-.18.34-.37.51-.56.43-.44.84-.81,1.35-1.14h.43c.07-.14.13-.27.2-.41q.34-.65.86-.65Z"/>
        <path class="cls-38" d="m33.51,43.22h.64c-.32,1.23-.85,2.1-1.9,2.84-.58.18-1.11.16-1.71.13.27-.8.62-.88,1.34-1.26.46-.28.7-.63,1-1.07h.43c.07-.21.14-.42.21-.64Z"/>
        <path class="cls-110" d="m20.33,34.93c.69.35.77,1.1,1.01,1.79.46,1.28.98,2.42,1.73,3.56q.23.39.23.81h-.43c-.22-.35-.43-.71-.64-1.06-.14-.12-.27-.24-.41-.37-.55-.6-.76-1.17-1.02-1.94-.09-.25-.18-.51-.28-.77-.19-.71-.24-1.29-.2-2.02Z"/>
        <path class="cls-88" d="m24.16,44.92c.93.1,1.28.39,1.91,1.06.21.07.42.14.64.21v.43c.84.34,1.69.66,2.55.97q.38.14.77.28c.6.2,1.16.35,1.78.45v.21c-2.71.15-5.02-1.12-7.07-2.84-.19-.18-.39-.37-.58-.56v-.21Z"/>
        <path class="cls-24" d="m2.91,32.59h.43c.21.49.42.98.64,1.49q2.74-.11,5.47-.33c1.5-.15,3.01-.11,4.52-.09v.21c-1.07.09-2.14.18-3.21.27-.36.03-.73.06-1.09.09-2.12.18-4.21.32-6.33.27-.14-.63-.28-1.26-.43-1.91Z"/>
        <path class="cls-39" d="m18.21,36.84c.36.54.62,1.02.88,1.61.08.17.15.33.23.51q.17.44.17.86-.43.35-.85.64-1.39-1.96-1.7-3.19c.14-.07.28-.14.43-.21q.64,1.22.64,1.7c.14-.07.28-.14.43-.21-.07-.56-.14-1.12-.21-1.7Z"/>
        <path class="cls-53" d="m22.04,36.63c.07.14.14.28.21.43h.64c.08.17.17.34.26.52.11.23.23.45.34.69.11.22.22.45.34.68.3.59.63,1.16.98,1.72q-.85,0-1.26-.39c-.69-1.07-1.5-2.35-1.5-3.65Z"/>
        <path class="cls-22" d="m9.92,6.87c.07.21.14.42.21.64q-.16.11-.32.23c-1.91,1.39-3.15,2.84-4.36,4.87-.14-.21-.28-.42-.43-.64,1.43-1.9,2.86-3.81,4.89-5.1Z"/>
        <path class="cls-37" d="m24.37,27.91c1.6.1,3.13.73,4.28,1.87.13.15.26.31.4.47-.21.14-.42.28-.64.43q-.26-.24-.53-.48c-1.04-.86-2.25-1.39-3.51-1.86v-.43Z"/>
        <path class="cls-45" d="m24.37,2.41c1.87.04,3.39.54,5.1,1.28v.85c-1.11-.35-2.19-.77-3.27-1.2-.18-.07-.35-.14-.54-.21-.43-.17-.87-.34-1.3-.51v-.21Z"/>
        <path class="cls-97" d="m23.95,45.55c.28.19.56.37.84.56.17.12.35.23.53.35.35.23.7.47,1.04.71,1.01.7,1.95,1.18,3.12,1.57v.21c-2.43-.08-4.02-1.35-5.74-2.98.07-.14.14-.28.21-.43Z"/>
        <path class="cls-10" d="m5.03,12.18c.14.21.28.42.43.64q-.18.26-.37.52c-.89,1.34-1.46,2.8-1.75,4.37q.09.46.21.85c-.28-.21-.56-.42-.85-.64.28-1.25.67-2.4,1.17-3.59.07-.16.13-.32.2-.49q.49-1.18.97-1.66Z"/>
        <path class="cls-124" d="m33.09,38.11h.43c.01.62.02,1.24.03,1.86q0,.26.01.53c0,.17,0,.34,0,.51,0,.16,0,.31,0,.47-.06.51-.22.85-.47,1.3v-.64q-.42.21-.85.43c.04-.2.09-.4.13-.6.06-.26.11-.53.17-.8.06-.26.11-.52.17-.78.15-.76.27-1.51.37-2.28Z"/>
        <path class="cls-102" d="m24.59,47.89c.35.21.7.42,1.06.64q-.21.11-.43.21c0,.16,0,.32,0,.48,0,.71,0,1.43,0,2.14,0,.25,0,.5,0,.75,0,.24,0,.48,0,.72,0,.22,0,.44,0,.66q-.02.56-.24,1.2h-.43c0-.28,0-.56,0-.85q.02-2.68-.19-5.36c0-.13-.02-.25-.03-.38.07-.07.14-.14.21-.21Z"/>
        <path class="cls-92" d="m38.61,65.11c.41.41.61.75.85,1.28h1.7c-.73.49-1.01.48-1.87.47-.24,0-.48,0-.73,0q-.38,0-.77,0t-.76,0c-1.06,0-2.05-.01-3.09-.25v-.43c.35-.07.7-.14,1.06-.21v.43c1.26.07,2.52.14,3.83.21-.07-.49-.14-.98-.21-1.49Z"/>
        <path class="cls-14" d="m22.46.49v.43q1.16.11,2.34.21v.21h-5.31q1.56-1.17,2.98-.85Z"/>
        <path class="cls-73" d="m33.3,35.99c1.01,1.2,1.12,2.4,1.09,3.91,0,.16,0,.31,0,.47,0,.38-.01.76-.02,1.15-.14-.07-.28-.14-.43-.21q-.08-.63-.12-1.43c-.05-.89-.11-1.73-.31-2.6h-.43c.07-.42.14-.84.21-1.28Z"/>
        <path class="cls-18" d="m52.43,45.55h.64v6.16c-.42-.83-.49-1.19-.51-2.1,0-.24-.02-.47-.02-.72,0-.25-.01-.49-.02-.75,0-.25-.02-.5-.02-.76-.02-.62-.04-1.23-.05-1.85Z"/>
        <path class="cls-123" d="m26.29,29.19c1.21.29,1.87.88,2.74,1.73.13.12.25.24.38.36.31.29.61.59.92.89-.07.14-.14.28-.21.43-.15-.15-.31-.31-.47-.47-.21-.2-.42-.4-.62-.6-.1-.1-.2-.2-.31-.31-.56-.53-.85-.75-1.63-.8q-.29.02-.58.05-.4-.32-.64-.64c.21-.07.42-.14.64-.21-.07-.14-.14-.28-.21-.43Z"/>
        <path class="cls-2" d="m33.09,10.27c.61.27,1.04.57,1.49,1.06h-.64c.01.2.03.4.04.61,0,1.06-.34,1.99-.68,2.99-.06.19-.12.37-.18.56-.15.45-.3.91-.45,1.36-.35-1.1.12-2.04.48-3.09.41-1.27.37-2.21-.06-3.5Z"/>
        <path class="cls-49" d="m31.6,33.01c.82.71,1.36,1.53,1.7,2.55q-.05.74-.21,1.28c-.37-.55-.68-1.09-.98-1.67-.09-.18-.19-.36-.29-.54-.23-.58-.26-.99-.22-1.61Z"/>
        <path class="cls-96" d="m34.36,48.32q1.04.56,1.28,1.28-1.36.65-2.01.57c-.11-.05-.22-.1-.33-.15.21-.14.42-.28.64-.43-.07-.28-.14-.56-.21-.85.21-.14.42-.28.64-.43Z"/>
        <path class="cls-70" d="m23.31,42.15q.41.17.85.43c.07.21.14.42.21.64q.38.22.85.43c.41.25.82.5,1.22.76q.31.2.63.4c.16.11.32.22.48.33v.21c-1.15.1-1.64-.34-2.5-1.04-.69-.65-1.23-1.36-1.75-2.14Z"/>
        <path class="cls-115" d="m53.49,59.79c.35.07.7.14,1.06.21-.14.28-.28.57-.43.85-.06.14-.11.29-.17.44-.34.55-.75.75-1.32,1.05v-.85c.28-.07.56-.14.85-.21-.07-.14-.14-.28-.21-.43q-.21.11-.43.21c.21-.43.43-.85.64-1.28Z"/>
        <path class="cls-40" d="m32.03,41.52c.24.58.23.8-.01,1.39-.51.65-.91.87-1.69,1.16q-.82.04-1.49,0c.45-.45.66-.52,1.25-.7.99-.35,1.47-.91,1.94-1.85Z"/>
        <path class="cls-66" d="m29.3,48.9c.2.02.39.04.6.05-.05.13-.1.25-.15.39q-.03.23-.07.47.29.38.64.64c-.86-.1-1.59-.19-2.34-.64.39-.69.5-.84,1.32-.9Z"/>
        <path class="cls-62" d="m41.16,30.68c-.4.17-.81.34-1.21.5-.22.09-.45.19-.68.28-.22.09-.44.18-.66.27q-.28.13-.56.26c-.55.18-.81.15-1.35-.05q3.35-1.83,4.46-1.28Z"/>
        <path class="cls-71" d="m27.54,30.3c.55.21.77.47,1.13.92.11.14.22.27.34.41.08.1.16.21.25.32-.14.14-.28.28-.43.43-.27-.24-.55-.48-.82-.72-.15-.13-.31-.27-.46-.4-.29-.26-.57-.52-.84-.79q.43-.21.83-.17Z"/>
        <path class="cls-125" d="m23.52,41.3c.53.52,1.03,1.02,1.47,1.61.51.6,1.05.96,1.71,1.37-.21.07-.42.14-.64.21-1.12-.59-1.96-1.44-2.55-2.55v-.64Z"/>
        <path class="cls-63" d="m16.3,24.09q.21.43.1.84-.09.24-.18.49c-.27.76-.46,1.48-.56,2.28-.21-.14-.42-.28-.64-.43.14-.71.28-1.42.43-2.13h.43c.14-.35.28-.7.43-1.06Z"/>
        <path class="cls-44" d="m56.04,58.73q.13.39.21.85c-.55.9-1.17,1.29-2.13,1.7.31-.69.69-1.19,1.2-1.75.13-.15.27-.3.41-.46.1-.11.2-.23.31-.34Z"/>
        <path class="cls-52" d="m21.4,44.07h.43v.43h.43v.43c.12.05.25.11.37.16.54.3.91.66,1.33,1.12-.28.07-.56.14-.85.21-.28-.35-.57-.7-.85-1.05-.16-.19-.32-.39-.48-.59q-.37-.49-.37-.7Z"/>
        <path class="cls-69" d="m28.2,65.96c.77.28,1.54.56,2.34.85v.64c-.35-.1-.69-.2-1.04-.31-.19-.06-.38-.11-.58-.17q-.51-.16-.93-.37c.07-.21.14-.42.21-.64Z"/>
        <path class="cls-98" d="m5.03,12.18c.14.21.28.42.43.64q-.2.28-.4.57c-.38.59-.65,1.11-.88,1.77-.14-.07-.28-.14-.43-.21q.61-2.04,1.28-2.76Z"/>
        <path class="cls-54" d="m33.51,43.22h.64q-.35,1.22-1.06,1.7c-.21-.21-.42-.42-.64-.64.14-.06.27-.11.41-.17q.51-.23.65-.89Z"/>
        <path class="cls-74" d="m26.71,42.37c.84.42,1.68.84,2.55,1.28v.21q-1.82-.18-2.55-.64v-.85Z"/>
        <path class="cls-46" d="m21.82,39.82q.41.16.85.43.16.45.21.85c.21-.07.42-.14.64-.21.07.35.14.7.21,1.06h-.64q-.34-.41-.68-.94c-.11-.17-.23-.35-.34-.53q-.26-.44-.26-.65Z"/>
        <path class="cls-5" d="m3.54,34.29c.65.53.8,1.04,1,1.85q.08.32.16.64c.04.16.08.32.12.49q-.21.11-.43.21c-.14-.41-.28-.82-.43-1.24-.08-.23-.16-.46-.24-.69q-.19-.62-.19-1.26Z"/>
        <path class="cls-95" d="m32.03,35.56c.21.07.42.14.64.21-.07.84-.14,1.68-.21,2.55-.55-.83-.56-1.35-.64-2.34.07-.14.14-.28.21-.43Z"/>
        <path class="cls-6" d="m6.09,40.45c.49.49.7.94,1,1.57.1.2.19.41.29.62.21.6.21.85-.02,1.43-.21-.44-.43-.88-.64-1.33-.12-.25-.24-.49-.36-.75q-.28-.69-.28-1.54Z"/>
        <path class="cls-20" d="m42.65,29.83v.43c-.41.11-.81.22-1.22.33-.23.06-.45.12-.69.19-.61.11-.92.12-1.49-.09.49-.18.97-.36,1.46-.54.14-.05.28-.1.42-.16q1.05-.38,1.52-.15Z"/>
        <path class="cls-28" d="m22.04,43.64c.69.67,1.32,1.36,1.91,2.13-.85,0-1.1-.25-1.7-.85q-.17-.69-.21-1.28Z"/>
        <path class="cls-122" d="m19.06,39.82h.64q.15.37.21.85-.31.48-.64.85c-.21-.35-.42-.7-.64-1.06.14-.21.28-.42.43-.64Z"/>
        <path class="cls-7" d="m9.92,6.87c.07.21.14.42.21.64-.27.21-.54.42-.81.62q-.23.17-.46.35-.43.3-1.07.51c.3-.73.66-1.08,1.3-1.54.15-.11.31-.22.47-.34.12-.08.24-.16.36-.25Z"/>
        <path class="cls-57" d="m24.37,2.41c.38.02.75.05,1.13.08q.31.02.64.04.57.09,1.21.51c-.07.14-.14.28-.21.43-.34-.1-.68-.19-1.02-.29q-.28-.08-.58-.16-.53-.18-1.16-.61Z"/>
        <path class="cls-51" d="m34.15,10.7c.62.02.97.12,1.42.56.32.37.62.75.92,1.14-.07.14-.14.28-.21.43-.35-.31-.71-.63-1.06-.94-.2-.17-.39-.35-.6-.53-.15-.14-.31-.29-.47-.44v-.21Z"/>
        <path class="cls-42" d="m33.3,35.99c.6.68.75,1.23.85,2.13q-.21.11-.43.21c-.07-.35-.14-.7-.21-1.06h-.43c.07-.42.14-.84.21-1.28Z"/>
        <path class="cls-117" d="m23.95,45.55c.63.42,1.26.84,1.91,1.28-.07.21-.14.42-.21.64-.29-.2-.57-.4-.85-.6-.16-.11-.32-.22-.48-.34-.12-.11-.25-.23-.37-.34v-.64Z"/>
        <path class="cls-29" d="m47.33,27.91v.43c-1.06.41-2.07.54-3.19.64.6-.4,1.03-.57,1.71-.77.19-.06.37-.11.57-.17q.48-.12.91-.12Z"/>
        <path class="cls-99" d="m19.91,59.16c.6.29,1.17.6,1.74.94.15.09.3.17.45.26q.36.28.58.92c-.69-.32-1.26-.71-1.86-1.18-.17-.13-.34-.26-.51-.4-.13-.11-.26-.22-.39-.33v-.21Z"/>
        <path class="cls-79" d="m20.76,50.87h.21c.03.23.06.46.09.7q.09.77.33,1.42-.21.32-.43.64h-.43c.07-.91.14-1.82.21-2.76Z"/>
        <path class="cls-34" d="m24.37,27.91q1.43.19,1.91.43v.64c-.63-.21-1.26-.42-1.91-.64v-.43Z"/>
        <path class="cls-41" d="m26.92,24.09q.5.45.85.85c-.34-.1-.68-.19-1.02-.29-.19-.05-.38-.11-.58-.16q-.53-.18-1.16-.61c.82-.27,1.13-.12,1.91.21Z"/>
        <path class="cls-59" d="m17.15,37.05c.43.54.81,1.06,1.06,1.7-.07.21-.14.42-.21.64q-.98-1.39-1.06-2.13c.07-.07.14-.14.21-.21Z"/>
        <path class="cls-21" d="m16.93,37.48c.34.51.61.98.88,1.53.08.15.15.3.23.46.06.12.11.23.17.35h-.43v-.43c-.28-.07-.56-.14-.85-.21v-1.7Z"/>
        <path class="cls-25" d="m16.08,22.39q.63.42,1.28.85c-.28.35-.56.7-.85,1.06-.14-.63-.28-1.26-.43-1.91Z"/>
        <path class="cls-55" d="m30.96,67.23q1.43.16,1.91.64c-.81.31-1.34.09-2.13-.21.07-.14.14-.28.21-.43Z"/>
        <path class="cls-113" d="m24.28,46.36q.52.25.73.68c-.35.07-.7.14-1.06.21-.21-.28-.42-.56-.64-.85q.43-.21.97-.04Z"/>
        <path class="cls-11" d="m30.32,50.65h2.34v.21c-.49.07-.98.14-1.49.21v1.28q-.43-.64-.85-1.7Z"/>
        <path class="cls-13" d="m35.21,50.02c-.27.14-.54.28-.81.41-.15.08-.3.15-.46.23q-.43.21-1.07.42c-.07-.21-.14-.42-.21-.64.34-.11.69-.22,1.04-.33.19-.06.38-.12.58-.19q.51-.12.93.09Z"/>
        <path class="cls-30" d="m18.21,25.15c.21.07.42.14.64.21-.13.19-.26.39-.4.58-.33.51-.62.99-.88,1.54q-.21-.43-.1-.83c.06-.15.12-.3.18-.46.06-.15.12-.3.18-.46q.17-.38.38-.59Z"/>
        <path class="cls-101" d="m26.5,20.69h.21v1.49q-.53-.21-1.06-.43c.14-.28.28-.56.43-.85.07.07.14.14.21.21.07-.14.14-.28.21-.43Z"/>
        <path class="cls-58" d="m33.73,40.45c.38.66.43.9.43,1.7h-.43c-.07.14-.14.28-.21.43q-.03-1.65.21-2.13Z"/>
        <path class="cls-75" d="m31.6,9h1.06v.43h.64c.07.21.14.42.21.64-.85,0-1.24-.35-1.91-.85v-.21Z"/>
        <path class="cls-91" d="m2.91,32.59h.43c.21.49.42.98.64,1.49q-.32.21-.64.43c-.14-.63-.28-1.26-.43-1.91Z"/>
        <path class="cls-35" d="m29.05,32.16c.81.31,1.12.71,1.49,1.49-.07.14-.14.28-.21.43-.21-.24-.43-.48-.64-.72-.12-.13-.24-.27-.36-.4q-.28-.37-.28-.79Z"/>
        <path class="cls-72" d="m15.23,32.38c.14.07.28.14.43.21-.07.35-.14.7-.21,1.06h-1.28c.28-.07.56-.14.85-.21.07-.35.14-.7.21-1.06Z"/>
        <path class="cls-65" d="m2.69,11.97c.2.46.24.76.08,1.24-.16.37-.33.74-.51,1.1h-.43c.26-.79.53-1.57.85-2.34Z"/>
        <path class="cls-77" d="m26.71,48.74q.63.11,1.28.21v.85c-.42-.14-.84-.28-1.28-.43v-.64Z"/>
        <path class="cls-68" d="m29.47,45.77h1.49c.07.21.14.42.21.64h-1.49c-.07-.21-.14-.42-.21-.64Z"/>
        <path class="cls-112" d="m21.19,37.05q.43.64.64,1.28-.2.47-.43.85-.45-1.41-.21-2.13Z"/>
        <path class="cls-16" d="m5.88,10.7h.21q.05.48,0,1.06-.43.49-.85.85c-.07-.21-.14-.42-.21-.64q.4-.68.85-1.28Z"/>
        <path class="cls-26" d="m21.26.67c.11.08.23.17.35.25q-1.34.52-2.13.21,1.15-.68,1.78-.46Z"/>
        <path class="cls-64" d="m24.59,47.68h.85v.43c.28.14.56.28.85.43-.07.14-.14.28-.21.43-.25-.17-.5-.34-.74-.52-.14-.1-.28-.19-.42-.29-.11-.08-.21-.17-.33-.25v-.21Z"/>
        <path class="cls-43" d="m25.65,44.49c.81.11,1.29.32,1.91.85q-.48.05-1.06,0-.49-.43-.85-.85Z"/>
        <path class="cls-19" d="m39.04,40.67c.49.07.98.14,1.49.21-.35.36-.7.71-1.06,1.06h-.21c-.07-.42-.14-.84-.21-1.28Z"/>
        <path class="cls-114" d="m25.22,40.88v1.06c-.35-.35-.7-.7-1.06-1.06q.43-.21,1.06,0Z"/>
        <path class="cls-47" d="m18,39.39h1.49v.43q-.43.35-.85.64c-.21-.35-.42-.7-.64-1.06Z"/>
        <path class="cls-33" d="m22.89,37.48c.5.5.53.8.64,1.49-.21.07-.42.14-.64.21-.21-.65-.21-1.05,0-1.7Z"/>
        <path class="cls-103" d="m37.98,35.35h1.7v.21c-.35.07-.7.14-1.06.21v1.06c-.5-.5-.53-.8-.64-1.49Z"/>
      </g>
    </g>
  </g>
</svg>