<svg width="110" height="111" viewBox="0 0 110 111" fill="none" xmlns="http://www.w3.org/2000/svg">
<g clip-path="url(#clip0_1_4104)">
<mask id="mask0_1_4104" style="mask-type:luminance" maskUnits="userSpaceOnUse" x="0" y="0" width="110" height="110">
<path d="M109.036 0.947144H0V109.983H109.036V0.947144Z" fill="white"/>
</mask>
<g mask="url(#mask0_1_4104)">
<path d="M82.6024 17.7978C83.4385 18.1421 84.1668 18.5035 84.5804 19.3328C84.7605 19.907 84.8127 20.3509 84.814 20.9505C84.8163 21.261 84.8163 21.261 84.8187 21.5779C84.818 21.8037 84.8176 22.0295 84.817 22.2622C84.818 22.5032 84.8193 22.7445 84.8204 22.993C84.8236 23.8029 84.8238 24.6126 84.8238 25.4225C84.8253 26.0026 84.8272 26.5825 84.8293 27.1626C84.8342 28.7396 84.8357 30.3166 84.837 31.8935C84.8376 32.8787 84.8389 33.8638 84.8406 34.849C84.8447 37.5777 84.8481 40.3066 84.8487 43.0354C84.8489 43.2099 84.8489 43.3845 84.8489 43.5644C84.8489 43.9184 84.8491 44.2723 84.8491 44.626C84.8491 44.8017 84.8491 44.9774 84.8493 45.1584C84.8493 45.4223 84.8493 45.4223 84.8493 45.6915C84.8502 48.5407 84.8559 51.3897 84.8638 54.2389C84.8719 57.1656 84.8762 60.0926 84.8762 63.0193C84.8762 64.6621 84.8781 66.3046 84.8843 67.9472C84.8894 69.3461 84.8911 70.7451 84.8879 72.144C84.8862 72.8572 84.887 73.5702 84.8913 74.2836C84.8956 75.0584 84.8934 75.8327 84.8896 76.6075C84.8924 76.8309 84.8951 77.0543 84.8981 77.2845C84.8792 78.9579 84.4658 80.363 83.3369 81.6361C82.4465 82.4895 81.4175 82.8879 80.2724 83.2959C77.8455 84.2153 75.5713 85.3736 73.2721 86.5708C72.8524 86.7874 72.4329 87.0038 72.0131 87.2199C70.289 88.1086 68.5681 89.0039 66.8488 89.9024C66.4056 90.1339 65.962 90.3652 65.5184 90.5965C64.9948 90.8693 64.472 91.1442 63.95 91.4204C63.609 91.5989 63.609 91.5989 63.2613 91.7809C63.0668 91.8836 62.8724 91.9862 62.6722 92.0921C62.1848 92.3076 62.1848 92.3076 61.5459 92.3076C61.551 92.593 61.551 92.593 61.5561 92.8839C61.567 93.59 61.5748 94.296 61.581 95.0022C61.5842 95.3076 61.5885 95.6132 61.594 95.9186C61.6019 96.3579 61.6055 96.797 61.6083 97.2364C61.6134 97.6329 61.6134 97.6329 61.6185 98.0373C61.5459 98.6964 61.5459 98.6964 61.2484 99.0989C60.8412 99.3809 60.5456 99.4603 60.0551 99.5216C59.9101 99.5429 59.7653 99.5645 59.616 99.5866C59.2033 99.5483 59.2033 99.5483 58.8619 99.2944C58.4645 98.7801 58.491 98.4671 58.502 97.822C58.5042 97.6129 58.5061 97.4035 58.5082 97.1878C58.5137 96.9697 58.5191 96.7517 58.5246 96.5268C58.5274 96.3064 58.5303 96.0857 58.5333 95.8585C58.5408 95.3135 58.5512 94.769 58.5644 94.2242C53.694 96.6258 53.694 96.6258 48.9011 99.1773C47.1891 100.124 45.465 101.046 43.7368 101.962C43.4118 102.135 43.0871 102.307 42.7623 102.48C42.3048 102.724 41.8468 102.967 41.3887 103.209C41.2528 103.282 41.1169 103.354 40.977 103.429C38.679 104.641 36.4859 105.328 33.8661 104.727C31.5086 103.927 29.553 102.311 27.6655 100.727C27.2513 100.383 27.2513 100.383 26.7434 100.058C25.9026 99.4452 25.4121 99.0231 25.1902 97.9815C25.154 97.1469 25.1749 96.3357 25.2228 95.502C25.2324 95.2122 25.2411 94.9225 25.249 94.6327C25.2714 93.9278 25.3029 93.2246 25.3425 92.5206C25.2094 92.4588 25.0763 92.397 24.9392 92.3334C24.1838 91.9313 23.9042 91.3999 23.6388 90.6039C23.5545 89.4874 23.6737 88.7844 24.2777 87.8354C24.4234 87.7396 24.5692 87.6437 24.7194 87.5449C25.1726 87.23 25.1726 87.23 25.2433 86.7108C25.2507 86.1004 25.256 85.4911 25.2494 84.8806C25.2543 84.6689 25.2594 84.4572 25.2648 84.2391C25.2699 82.9473 25.2699 82.9473 24.6029 81.8708C24.3365 81.6608 24.3365 81.6608 24.0647 81.4466C23.7557 80.5198 23.7138 79.6456 23.8518 78.6781C24.1482 78.1148 24.4344 77.8365 24.9166 77.4003C25.0571 77.4003 25.1977 77.4003 25.3425 77.4003C25.3376 76.6102 25.3212 75.821 25.3027 75.0311C25.3008 74.6968 25.3008 74.6968 25.2988 74.3556C25.258 72.9209 25.114 72.2198 24.0647 71.2244C23.6697 70.4344 23.7434 69.5052 23.9649 68.6664C24.1976 68.063 24.3674 67.674 24.9398 67.3496C25.0727 67.293 25.2056 67.2365 25.3425 67.1782C25.3438 66.4991 25.331 65.8208 25.3159 65.1416C25.3165 64.951 25.3169 64.7604 25.3176 64.5641C25.2797 63.2744 25.0441 62.6717 24.1401 61.7562C23.5756 61.1141 23.6946 60.4435 23.7378 59.6398C23.9169 58.7686 24.2541 58.3916 24.9166 57.8079C25.0571 57.8079 25.1977 57.8079 25.3425 57.8079C25.3438 57.0579 25.331 56.3084 25.3159 55.5584C25.3165 55.3476 25.3169 55.1365 25.3176 54.9193C25.2769 53.3875 24.9449 52.6815 23.8518 51.632C23.4821 50.8926 23.5398 50.0979 23.6388 49.2895C24.0115 48.5441 24.0115 48.5441 24.4907 48.0117C24.9466 47.872 24.9466 47.872 25.3425 47.7987C25.338 47.6629 25.3333 47.527 25.3287 47.3869C25.282 45.9707 25.2416 44.5543 25.2047 43.1377C25.1902 42.6091 25.174 42.0807 25.1564 41.5524C25.131 40.7923 25.1114 40.0323 25.0929 39.272C25.084 39.0362 25.0748 38.8007 25.0654 38.5579C25.0335 36.9192 25.2486 36.2115 26.3849 35.026C28.6206 33.1044 28.6206 33.1044 29.6017 33.1044C29.6722 33.6856 29.7329 34.2653 29.7881 34.8479C29.8089 35.0117 29.8298 35.1755 29.8513 35.3444C29.8935 35.8348 29.9124 36.2416 29.8147 36.7248C29.5312 37.0423 29.5312 37.0423 29.1775 37.3079C28.4886 37.7146 28.4886 37.7146 28.427 38.3386C28.7673 39.9371 30.3217 41.1908 31.5857 42.1046C33.1782 42.9856 35.3065 42.7126 37.0221 42.345C37.5643 42.148 38.0412 41.9023 38.5461 41.6229C38.7989 41.4936 39.0521 41.365 39.3055 41.2368C41.2709 40.2307 43.1829 39.1304 45.1 38.036C46.9538 36.9852 48.841 36.0052 50.7366 35.0319C52.7316 34.0061 54.6966 32.9336 56.6478 31.8267C56.5654 31.7315 56.4832 31.6361 56.3982 31.5379C55.8941 30.9529 55.3962 30.3696 54.9232 29.7586C54.5079 29.259 54.0882 28.8935 53.5733 28.4991C52.6888 27.8096 51.8293 27.0985 50.9777 26.3695C50.089 25.6097 49.1905 24.879 48.2333 24.2067C47.6953 23.7661 47.5015 23.3719 47.384 22.696C47.4904 22.0305 47.4904 22.0305 48.0495 21.4049C48.7682 20.9656 48.7682 20.9656 49.3805 20.9124C50.1667 21.2269 50.6395 21.6379 51.2547 22.211C51.8163 22.7309 52.3983 23.219 52.9876 23.7075C53.152 23.8447 53.152 23.8447 53.3196 23.9848C53.8339 24.4131 54.3514 24.8354 54.8776 25.2489C56.6701 26.6653 58.2499 28.2755 59.8422 29.91C60.5611 29.6344 61.2358 29.3246 61.912 28.9566C62.1072 28.8507 62.3025 28.7447 62.5038 28.6357C62.7148 28.5202 62.9257 28.405 63.1431 28.2862C63.4774 28.1041 63.4774 28.1041 63.8186 27.9184C64.5522 27.5185 65.2853 27.1172 66.0181 26.7156C66.2067 26.6121 66.2067 26.6121 66.3993 26.5067C69.3958 24.8641 72.3841 23.2073 75.3562 21.5207C76.724 20.7453 78.097 19.9798 79.4746 19.222C79.6518 19.1245 79.829 19.0269 80.0115 18.9264C80.9332 18.421 80.9332 18.421 81.3512 18.1971C81.501 18.1169 81.6507 18.0366 81.8049 17.954C82.2031 17.7712 82.2031 17.7712 82.6024 17.7978Z" fill="#FFC558"/>
<path d="M80.7122 23.5211C81.2325 23.9324 81.3488 24.153 81.5641 24.7989C81.5839 25.0847 81.5924 25.3715 81.5932 25.658C81.5943 25.8335 81.5954 26.0087 81.5964 26.1895C81.5966 26.382 81.5966 26.5748 81.5969 26.7733C81.5981 27.0803 81.5981 27.0803 81.5996 27.3934C81.6026 28.0825 81.6039 28.7717 81.6052 29.4606C81.6069 29.9534 81.6086 30.4464 81.6105 30.9392C81.616 32.5611 81.6192 34.1828 81.6222 35.8047C81.6235 36.3631 81.6245 36.9215 81.6258 37.4799C81.6303 39.8033 81.6343 42.1267 81.6367 44.4501C81.6373 45.053 81.638 45.6559 81.6386 46.259C81.6388 46.4087 81.639 46.5586 81.639 46.713C81.6418 49.1369 81.6488 51.5609 81.6578 53.9846C81.6667 56.4756 81.6718 58.9666 81.6729 61.4576C81.6737 62.8552 81.6763 64.2527 81.6831 65.6503C81.6895 66.9664 81.691 68.2828 81.6884 69.5989C81.6884 70.0806 81.6901 70.5623 81.6938 71.044C81.7125 73.5887 81.7114 75.7402 80.4993 78.0391C80.4066 78.2223 80.314 78.4056 80.2186 78.5943C79.1653 80.5591 76.9247 81.4359 75.0121 82.384C74.7114 82.5335 74.4107 82.6832 74.1102 82.8329C73.9428 82.916 73.7754 82.9992 73.6032 83.085C72.7453 83.5131 71.889 83.9441 71.0327 84.3749C70.049 84.8697 69.065 85.3635 68.0806 85.8574C67.5695 86.114 67.0586 86.3708 66.548 86.6281C65.8043 87.0027 65.0602 87.3758 64.3159 87.7489C64.0866 87.8645 63.8572 87.9804 63.6208 88.0996C63.3048 88.2576 63.3048 88.2576 62.9826 88.4189C62.7971 88.5121 62.6114 88.6054 62.4204 88.7015C61.9716 88.9001 61.9716 88.9002 61.5457 88.9002C61.4754 70.4875 61.4052 52.0749 61.3328 33.1044C66.8044 30.0118 66.8044 30.0118 68.9862 28.8586C71.0806 27.7429 73.1387 26.5754 75.1748 25.3562C78.9308 23.1242 78.9308 23.1242 80.7122 23.5211Z" fill="#FFC558"/>
<path d="M25.3425 40.558C27.7477 42.362 27.7477 42.362 28.8348 43.269C29.4944 43.808 30.09 44.2296 30.8829 44.5484C31.8318 44.9714 32.548 45.3385 33.0091 46.3079C33.3903 48.6914 33.1888 51.1524 33.0091 53.5486C33.6165 53.8523 34.121 53.6851 34.7752 53.6067C37.6793 53.3135 37.6793 53.3135 38.7058 53.8812C39.185 54.4004 39.185 54.4005 39.3049 55.1326C39.1339 56.2147 38.7022 56.8659 37.9072 57.5949C36.3087 58.4248 34.7722 58.281 33.0091 58.2337C33.0091 59.4285 33.0091 60.6232 33.0091 61.8541C33.747 61.6433 33.747 61.6433 34.4998 61.4282C35.7224 61.2995 36.3049 61.5231 37.2683 62.28C37.6005 62.6122 37.5335 62.9378 37.5479 63.3981C37.5349 64.0772 37.4906 64.3913 37.1753 65.0085C36.428 65.6465 35.6198 65.9691 34.7128 66.3263C34.502 66.4317 34.502 66.4317 34.2869 66.5392C33.8609 66.5477 33.435 66.5484 33.0091 66.5392C33.0091 67.242 25.3176 63.8399 25.3176 64.564C25.5425 65.5837 25.3316 66.7358 25.3425 67.0197C25.3425 67.1781 25.715 67.0197 25.3425 67.1781C25.1163 66.6457 25.7552 67.4976 25.3425 67.1781C25.167 67.2526 27.2063 67.1781 25.3425 67.1781C25.0358 67.1615 24.9398 67.3495 26.5845 69.4453C33.9276 76.5248 33.0619 73.4815 33.089 73.7667C33.1111 74.0001 33.1111 74.0001 33.1339 74.2382C33.1631 74.3681 33.192 74.498 33.2221 74.6317C33.7355 74.8886 33.9504 74.8383 34.5132 74.7648C34.7688 74.7344 34.7688 74.7344 35.0297 74.7033C35.3804 74.6564 35.7305 74.6045 36.0796 74.547C37.3392 74.357 37.3392 74.357 38.0935 74.685C38.2428 74.8079 38.3923 74.931 38.5461 75.0577C38.7371 75.1895 38.7371 75.1895 38.9322 75.3239C39.3577 75.9508 39.2723 76.4519 39.185 77.1873C38.5863 78.3179 37.8554 79.0439 36.6961 79.5831C35.541 79.8446 34.3529 79.9068 33.2221 79.5299C33.2221 81.0057 33.2221 82.4815 33.2221 84.002C35.062 84.0534 35.062 84.0534 36.4165 83.5761C37.4374 83.4275 38.1078 83.429 38.9854 84.002C39.4158 84.6684 39.5579 85.1239 39.4978 85.9212C39.2684 86.8934 38.7101 87.389 37.9006 87.8903C36.3 88.6531 34.7417 88.5373 33.0091 88.4742C33.0091 89.95 33.0091 91.4259 33.0091 92.9464C35.0171 93.0322 35.0171 93.0322 36.8424 92.3075C37.7119 92.1655 38.0037 92.2266 38.7324 92.7334C39.2133 93.4121 39.3191 93.8229 39.2599 94.6526C39.0836 95.6495 38.7326 96.2045 37.9472 96.8329C36.1675 97.81 35.2126 97.6315 33.0091 97.6315C33.0091 99.8101 33.0091 101.989 33.0091 104.233C31.5705 103.754 31.5705 103.754 30.9585 103.289C30.8228 103.187 30.6874 103.085 30.5477 102.98C30.3364 102.816 30.3364 102.816 30.1209 102.649C29.8999 102.481 29.8999 102.481 29.6746 102.309C26.5683 99.9221 26.5683 99.9221 25.3425 98.6963C25.3238 98.2393 25.3197 97.7819 25.3216 97.3247C25.3225 97.0465 25.3231 96.7686 25.3238 96.4824C25.3257 96.1866 25.3274 95.8908 25.3293 95.5952C25.3304 95.2985 25.3312 95.0019 25.3321 94.7055C25.3346 93.9771 25.3382 93.2488 25.3425 92.5205C25.2094 92.4587 25.0763 92.397 24.9392 92.3333C24.1838 91.9312 23.9042 91.3999 23.6388 90.6038C23.5545 89.4873 23.6737 88.7843 24.2777 87.8353C24.4234 87.7395 24.5692 87.6437 24.7194 87.5448C25.1726 87.2299 25.1726 87.2299 25.2433 86.7107C25.2507 86.1003 25.256 85.4911 25.2494 84.8805C25.2543 84.6688 25.2594 84.4571 25.2648 84.2391C25.2699 82.9472 25.2699 82.9472 24.6029 81.8707C24.4253 81.7308 24.2477 81.5907 24.0647 81.4465C23.7557 80.5197 23.7138 79.6457 23.8518 78.678C24.1482 78.1147 24.4344 77.8364 24.9166 77.4002C25.0571 77.4002 25.1977 77.4002 25.3425 77.4002C25.3376 76.6102 25.3212 75.8209 25.3027 75.031C25.3008 74.6967 25.3008 74.6967 25.2988 74.3555C25.258 72.9208 25.114 72.2197 24.0647 71.2244C23.6697 70.4343 23.7434 69.5051 23.9649 68.6663C24.1976 68.063 24.3674 67.6739 24.9398 67.3495C25.1391 67.2646 25.1391 67.2646 25.3425 67.1781C25.3438 66.499 25.314 66.8866 25.2988 66.2076C25.2995 66.0168 25.3169 64.7604 25.3176 64.564C25.2797 63.2743 25.0441 62.6716 24.1401 61.7561C23.5756 61.114 23.6946 60.4434 23.7378 59.6397C23.9169 58.7685 24.2541 58.3916 24.9166 57.8078C25.0571 57.8078 25.1977 57.8078 25.3425 57.8078C25.3438 57.0578 25.331 56.3084 25.3159 55.5585C25.3165 55.3475 25.3169 55.1364 25.3176 54.9192C25.2769 53.3874 24.9449 52.6814 23.8518 51.632C23.4821 50.8926 23.5398 50.0978 23.6388 49.2894C24.0115 48.544 24.0115 48.544 24.4907 48.0116C24.9123 47.9062 24.9123 47.9062 25.3425 47.7987C25.3425 45.4092 25.3425 43.0198 25.3425 40.558Z" fill="#4D270D"/>
<path d="M82.6695 17.8136C83.4781 18.1716 84.1764 18.523 84.5802 19.3327C84.7603 19.907 84.8125 20.3508 84.8138 20.9504C84.8153 21.1575 84.8168 21.3645 84.8183 21.5778C84.8178 21.8036 84.8174 22.0294 84.8168 22.2621C84.8178 22.5031 84.8191 22.7444 84.8202 22.993C84.8234 23.8028 84.8236 24.6125 84.8236 25.4224C84.8251 26.0025 84.827 26.5824 84.8291 27.1625C84.8338 28.7395 84.8355 30.3165 84.8366 31.8934C84.8374 32.8786 84.8387 33.8638 84.8402 34.8489C84.8444 37.5776 84.8479 40.3065 84.8485 43.0354C84.8487 43.2971 84.8487 43.2971 84.8487 43.5644C84.8487 43.9183 84.8489 44.2722 84.8489 44.6262C84.8489 44.8896 84.8489 44.8896 84.8491 45.1584C84.8491 45.3343 84.8491 45.5102 84.8491 45.6914C84.85 48.5406 84.8557 51.3896 84.8636 54.2388C84.8717 57.1657 84.8758 60.0925 84.876 63.0192C84.876 64.662 84.8779 66.3045 84.8841 67.9471C84.8892 69.346 84.8909 70.745 84.8877 72.1439C84.886 72.8571 84.8868 73.5703 84.8911 74.2835C84.8953 75.0583 84.8932 75.8326 84.8894 76.6074C84.8921 76.8308 84.8949 77.0542 84.8979 77.2844C84.8787 78.9578 84.4656 80.3629 83.3367 81.636C82.4463 82.4896 81.4173 82.8878 80.2722 83.2958C77.8453 84.2152 75.5711 85.3735 73.2717 86.571C72.8522 86.7873 72.4327 87.0037 72.0129 87.2199C70.2888 88.1086 68.5678 89.0041 66.8486 89.9023C66.4052 90.134 65.9618 90.3651 65.5182 90.5964C64.9946 90.8692 64.4717 91.1441 63.9498 91.4203C63.7225 91.5394 63.4951 91.6584 63.2611 91.7809C63.0666 91.8835 62.8722 91.9861 62.672 92.092C62.1845 92.3075 62.1845 92.3075 61.5457 92.3075C61.5457 91.1831 61.5457 90.0586 61.5457 88.9001C62.1609 88.5941 62.1609 88.5941 62.7885 88.2821C64.1557 87.6019 65.5225 86.9211 66.8891 86.2396C67.7162 85.8271 68.5433 85.4148 69.3711 85.0036C70.1723 84.6051 70.9732 84.206 71.7738 83.8063C72.0766 83.6553 72.3796 83.5045 72.6829 83.354C74.4862 82.4589 76.2498 81.5219 77.9863 80.5022C78.5825 80.1687 78.5825 80.1687 79.2214 79.9558C79.4469 79.592 79.4469 79.592 79.6473 79.1039C79.8256 78.7547 79.8256 78.7547 80.0075 78.3986C80.1404 78.1367 80.2732 77.8749 80.4059 77.6132C80.4734 77.482 80.5407 77.3508 80.6101 77.2156C81.1025 76.2415 81.3772 75.4687 81.3789 74.3804C81.3802 74.1153 81.3802 74.1153 81.3815 73.8446C81.3813 73.6515 81.3811 73.4583 81.3809 73.2592C81.3815 73.0533 81.3821 72.8471 81.3828 72.6348C81.3847 71.9425 81.3851 71.2501 81.3853 70.5576C81.3864 70.062 81.3874 69.5665 81.3885 69.0707C81.3913 67.7231 81.3928 66.3752 81.3936 65.0276C81.3943 64.1862 81.3951 63.3446 81.3962 62.5032C81.3987 60.1734 81.4009 57.8436 81.4017 55.5138C81.4017 55.3647 81.4017 55.2157 81.4017 55.0621C81.4017 54.9126 81.4019 54.7633 81.4019 54.6094C81.4019 54.3065 81.4021 54.0037 81.4021 53.7011C81.4021 53.5507 81.4024 53.4006 81.4024 53.246C81.4032 50.8112 81.4068 48.3766 81.4119 45.9418C81.4168 43.4423 81.4196 40.9426 81.4198 38.4431C81.42 37.0394 81.4213 35.636 81.4251 34.2326C81.4285 32.9131 81.429 31.5936 81.4273 30.2741C81.4271 29.7892 81.4279 29.3045 81.43 28.8196C81.4328 28.1588 81.4315 27.4981 81.4292 26.8373C81.4311 26.6446 81.4328 26.4519 81.4345 26.2534C81.4266 25.254 81.4015 24.5224 80.7122 23.7341C77.9106 23.1167 74.5842 25.8963 72.2998 27.2481C70.51 28.301 68.6848 29.2679 66.8369 30.2138C65.3775 30.962 63.94 31.7376 62.5236 32.5639C61.5885 33.1043 61.5885 33.1043 61.1197 33.1043C60.7684 32.1205 60.417 31.1366 60.0549 30.1229C61.8947 28.9695 63.749 27.8996 65.6718 26.8887C66.1989 26.6092 66.7253 26.329 67.2515 26.0483C67.4474 25.944 67.4474 25.944 67.6472 25.8375C69.471 24.8621 71.265 23.8342 73.0617 22.8102C74.8415 21.7987 76.6282 20.7995 78.4173 19.8045C78.9539 19.5052 79.4891 19.2033 80.0243 18.9008C80.3111 18.7415 80.598 18.5823 80.8851 18.4233C81.1238 18.2897 81.3623 18.156 81.6081 18.0182C82.2029 17.7712 82.2029 17.7712 82.6695 17.8136Z" fill="#F5A92E"/>
<path d="M47.2773 22.4563C47.3256 22.5749 47.374 22.6935 47.4238 22.8158C48.0231 23.8719 49.04 24.6206 49.9659 25.3845C50.0758 25.4754 50.1859 25.5664 50.2992 25.6599C50.6402 25.9414 50.9818 26.2221 51.3236 26.5026C51.538 26.6789 51.7525 26.855 51.9733 27.0367C53.0873 27.952 53.0873 27.952 54.2177 28.8468C54.6994 29.2451 55.0972 29.6486 55.5029 30.1229C55.6243 30.2634 55.7457 30.404 55.8707 30.5488C56.2142 30.9656 56.5402 31.3917 56.8605 31.8266C55.0203 32.9161 53.1439 33.9208 51.2437 34.9013C49.3601 35.8741 47.5005 36.8748 45.6592 37.9254C44.6353 38.5061 43.6067 39.0788 42.5781 39.6512C42.2037 39.8597 41.8298 40.0688 41.456 40.2779C38.3794 41.9908 35.9714 43.2145 32.37 42.6876C31.558 42.3222 31.0518 41.8451 30.4534 41.1969C30.1804 40.9724 29.9054 40.7505 29.6282 40.5314C28.8909 39.8865 28.4134 39.3026 28.2173 38.3219C28.3727 37.5446 28.7923 37.2215 29.3886 36.7247C29.5291 36.7247 29.6697 36.7247 29.8145 36.7247C29.7442 36.5841 29.6739 36.4436 29.6015 36.2988C29.5351 35.7336 29.4827 35.1754 29.4418 34.6083C29.4273 34.4532 29.4126 34.298 29.3977 34.1381C29.3172 33.0113 29.3172 33.0113 29.6164 32.5087C30.2036 32.1428 30.8137 31.8415 31.4383 31.5472C32.9878 30.7946 34.4909 29.9717 35.9904 29.1245C38.0165 27.9803 40.0539 26.8601 42.1032 25.7576C43.5305 24.988 44.9407 24.1947 46.3373 23.3705C46.8514 23.0952 46.8514 23.0952 47.2773 23.0952C47.2773 22.8844 47.2773 22.6735 47.2773 22.4563Z" fill="#ABC4CC"/>
<path d="M49.3804 20.9122C50.1666 21.2267 50.6394 21.6377 51.2547 22.2109C51.8162 22.7307 52.3983 23.2188 52.9873 23.7073C53.1524 23.8451 53.1524 23.8451 53.3206 23.9855C53.8289 24.4093 54.3407 24.8267 54.8624 25.2338C58.0886 27.7685 60.918 30.1658 61.5458 34.382C61.5641 34.7683 61.5733 35.1551 61.5737 35.5418C61.5745 35.768 61.5754 35.9943 61.5763 36.2273C61.576 36.4733 61.5758 36.7195 61.5756 36.9729C61.5763 37.2363 61.5769 37.4996 61.5775 37.7709C61.5792 38.5 61.5797 39.229 61.5799 39.9582C61.5803 40.7453 61.5818 41.5322 61.5833 42.3191C61.5863 44.0385 61.5875 45.758 61.5884 47.4774C61.589 48.5507 61.5899 49.6241 61.5909 50.6972C61.5935 53.6684 61.5956 56.6394 61.5965 59.6104C61.5965 59.8954 61.5965 59.8954 61.5965 60.1863C61.5967 60.4719 61.5967 60.4719 61.5967 60.7634C61.5967 61.1493 61.5969 61.5354 61.5969 61.9213C61.5969 62.1127 61.5971 62.3042 61.5971 62.5014C61.598 65.6076 61.6016 68.7141 61.6067 71.8204C61.6116 75.0086 61.6144 78.197 61.6146 81.3855C61.6148 83.1761 61.6161 84.9664 61.6199 86.757C61.6231 88.2805 61.6242 89.8043 61.6225 91.3278C61.6216 92.1055 61.6218 92.8833 61.6248 93.661C61.628 94.5028 61.6263 95.3447 61.624 96.1865C61.6267 96.5577 61.6267 96.5577 61.6293 96.9363C61.6271 97.2732 61.6271 97.2732 61.625 97.6168C61.6252 97.8112 61.6252 98.0056 61.6254 98.206C61.53 98.7931 61.3737 98.9782 60.9069 99.3351C60.4942 99.4665 60.4942 99.4665 60.0551 99.5215C59.91 99.543 59.7652 99.5643 59.6159 99.5864C59.2032 99.5481 59.2032 99.5481 58.8629 99.2934C58.4662 98.7827 58.4851 98.4771 58.4866 97.834C58.4855 97.6104 58.4845 97.3868 58.4832 97.1563C58.4853 96.9099 58.4873 96.6633 58.4894 96.4095C58.4892 96.1482 58.4887 95.8869 58.4883 95.6179C58.4879 94.8913 58.4904 94.1649 58.4941 93.4382C58.4973 92.6552 58.4966 91.8721 58.4966 91.0891C58.4968 89.7312 58.4992 88.3734 58.503 87.0155C58.5085 84.8678 58.5081 82.7199 58.5068 80.5722C58.5066 79.8373 58.5062 79.1023 58.506 78.3674C58.5058 78.1836 58.5058 78.0001 58.5058 77.8107C58.5049 75.7188 58.5058 73.6269 58.5071 71.535C58.5071 71.3438 58.5073 71.1525 58.5075 70.9555C58.5094 67.8603 58.5147 64.7652 58.5209 61.6698C58.5271 58.4907 58.5273 55.3114 58.523 52.1321C58.5205 50.1722 58.5228 48.2123 58.5311 46.2525C58.5367 44.9074 58.5367 43.5626 58.5324 42.2177C58.5301 41.4425 58.5303 40.6678 58.5369 39.8928C58.6876 35.5816 58.6876 35.5816 56.8607 31.8265C56.7608 31.6996 56.6609 31.5724 56.5578 31.4417C56.2614 31.086 56.2614 31.086 55.7692 30.6552C55.5974 30.4948 55.4255 30.3345 55.2485 30.1694C55.0777 30.0135 54.9069 29.8574 54.731 29.6969C54.5611 29.5248 54.3912 29.3527 54.2161 29.1753C53.6187 28.585 52.9918 28.0396 52.3484 27.5008C52.2281 27.399 52.1076 27.2974 51.9834 27.1929C51.2404 26.5689 50.4878 25.9592 49.7265 25.3578C49.0005 24.7828 48.3371 24.1957 47.7033 23.521C47.6331 23.4507 47.5628 23.3804 47.4904 23.308C47.3971 22.7224 47.3971 22.7224 47.4904 22.0303C48.0928 21.3562 48.4651 20.9918 49.3804 20.9122Z" fill="#15415E"/>
<path d="M57.2866 32.0396C59.1627 34.2173 58.7341 37.2982 58.7094 39.9679C58.7091 40.5139 58.7093 41.0597 58.71 41.6056C58.7102 42.7771 58.7066 43.9481 58.6996 45.1196C58.6891 46.8131 58.6857 48.5066 58.6842 50.2C58.6814 52.9481 58.6729 55.6963 58.6608 58.4444C58.6491 61.1126 58.6399 63.7806 58.6346 66.4487C58.6342 66.6136 58.634 66.7782 58.6335 66.9479C58.6318 67.7744 58.6303 68.6007 58.6286 69.4272C58.6154 76.2731 58.5929 83.1191 58.5643 89.965C58.494 89.965 58.4238 89.965 58.3514 89.965C58.3514 71.8335 58.3514 53.702 58.3514 35.021C54.0244 37.3638 54.0244 37.3638 49.7126 39.7341C49.3188 39.9521 48.9249 40.1702 48.5311 40.3883C48.405 40.4581 48.2792 40.5278 48.1495 40.5995C47.3794 41.025 46.6066 41.4443 45.8307 41.859C44.0679 42.8045 42.3974 43.7801 40.7868 44.9691C39.9283 45.6026 39.1059 46.1176 38.1201 46.5209C37.8979 46.615 37.676 46.7092 37.4471 46.8063C35.2604 47.6962 35.2604 47.6962 34.0738 47.5857C33.7927 47.4452 33.5116 47.3046 33.222 47.1598C33.1517 49.2681 33.0814 51.3764 33.009 53.5486C32.9387 53.5486 32.8684 53.5486 32.796 53.5486C32.7909 52.5858 32.7869 51.6232 32.7843 50.6604C32.7833 50.3329 32.7818 50.0052 32.7801 49.6776C32.7775 49.2072 32.7762 48.7366 32.7754 48.2661C32.7741 48.1194 32.773 47.9725 32.772 47.821C32.7718 46.7824 32.7718 46.7824 33.009 46.308C32.7933 46.24 32.7933 46.24 32.5731 46.1706C31.7404 45.7883 31.103 45.2525 30.4002 44.6707C30.1153 44.4386 29.8303 44.2065 29.5452 43.9745C29.4083 43.8627 29.2713 43.7507 29.1303 43.6355C28.6548 43.2492 28.1712 42.8742 27.685 42.5013C27.5402 42.3871 27.3951 42.2728 27.2458 42.1552C26.9673 41.9395 26.683 41.731 26.394 41.5295C25.829 41.1104 25.4203 40.8038 25.2036 40.1195C25.1405 39.6214 25.1277 39.1433 25.1294 38.6414C25.1169 38.475 25.1043 38.3087 25.0913 38.1373C25.0247 36.9758 25.194 36.3525 25.9813 35.4469C28.3496 33.1044 28.3496 33.1044 29.6016 33.1044C29.6721 33.6855 29.7328 34.2652 29.788 34.8479C29.8088 35.0116 29.8297 35.1754 29.8512 35.3443C29.8934 35.8347 29.9123 36.2415 29.8146 36.7247C29.5311 37.0422 29.5311 37.0422 29.1774 37.3078C28.4885 37.7146 28.4885 37.7146 28.4271 38.3385C28.7675 39.937 30.3216 41.1907 31.5858 42.1045C33.1781 42.9855 35.3064 42.7125 37.022 42.345C37.5642 42.148 38.0411 41.9022 38.546 41.6228C38.7988 41.4935 39.052 41.3649 39.3056 41.2367C41.2708 40.2307 43.1828 39.1303 45.0999 38.0359C46.9541 36.9849 48.8407 36.0032 50.738 35.0325C52.3576 34.2015 53.9544 33.3401 55.5211 32.4133C56.5791 31.8038 56.5791 31.8038 57.2866 32.0396Z" fill="#ECA934"/>
<path d="M25.262 87.303C26.5724 87.4972 27.4483 88.4202 28.3233 89.3661C29.0968 90.1664 29.981 90.7838 30.8923 91.4157C31.0382 91.5181 31.1841 91.6203 31.3344 91.7258C32.6665 92.6328 33.9317 93.1726 35.564 92.9464C35.9933 92.7403 36.4197 92.5278 36.8418 92.3076C37.7113 92.1655 38.0031 92.2266 38.7318 92.7335C39.2127 93.4122 39.3185 93.823 39.2593 94.6527C39.083 95.6496 38.732 96.2045 37.9466 96.833C36.1669 97.81 35.212 97.6316 33.0085 97.6316C33.0085 99.8102 33.0085 101.989 33.0085 104.233C31.5699 103.754 31.5699 103.754 30.9579 103.289C30.8222 103.187 30.6868 103.085 30.5471 102.98C30.4061 102.871 30.2653 102.762 30.1203 102.649C29.9729 102.537 29.8256 102.425 29.6739 102.309C26.5677 99.9222 26.5677 99.9222 25.3419 98.6964C25.3232 98.2394 25.3191 97.7819 25.321 97.3247C25.3219 97.0466 25.3225 96.7687 25.3232 96.4825C25.3251 96.1866 25.3268 95.8908 25.3287 95.5953C25.3298 95.2986 25.3306 95.0019 25.3315 94.7055C25.334 93.9772 25.3376 93.2489 25.3419 92.5205C25.2088 92.4588 25.0757 92.397 24.9385 92.3333C24.1832 91.9313 23.9036 91.3999 23.6382 90.6039C23.5537 89.4835 23.6951 88.798 24.2771 87.8354C24.703 87.4095 24.703 87.4095 25.262 87.303Z" fill="#4C270C"/>
<path d="M58.5644 90.8168C58.5644 91.9412 58.5644 93.0656 58.5644 94.2241C57.908 94.5487 57.908 94.5487 57.2382 94.8796C54.435 96.269 51.6391 97.6624 48.901 99.1774C47.189 100.124 45.4647 101.046 43.7367 101.962C43.4118 102.135 43.087 102.307 42.7622 102.48C42.3046 102.724 41.8467 102.967 41.3886 103.209C41.2528 103.282 41.1169 103.354 40.977 103.429C39.2814 104.323 37.8477 104.901 35.9106 104.912C35.6806 104.915 35.4506 104.918 35.2136 104.921C34.4998 104.872 34.4998 104.872 33.009 104.446C33.009 103.111 33.009 101.776 33.009 100.4C33.5713 100.47 34.1335 100.541 34.7127 100.613C38.9496 101.041 42.5092 99.1493 46.0648 97.1036C46.8193 96.6777 47.589 96.2918 48.3688 95.9146C49.7309 95.2487 51.0602 94.5291 52.3885 93.7982C53.8155 93.0139 55.246 92.2404 56.7009 91.5089C56.8417 91.4376 56.9827 91.3662 57.1277 91.2925C58.0856 90.8168 58.0856 90.8168 58.5644 90.8168Z" fill="#F9A829"/>
<path d="M76.2502 13.5111C76.8654 13.8274 77.4264 14.1993 77.9971 14.5901C78.2267 14.7463 78.4561 14.9025 78.6927 15.0634C78.8671 15.1839 79.0417 15.3044 79.2216 15.4286C79.0087 16.0675 79.0087 16.0675 78.3773 16.4277C78.0961 16.5623 77.814 16.6949 77.5312 16.8261C76.2591 17.4395 75.0101 18.0793 73.7779 18.7694C73.5422 18.9012 73.5422 18.9012 73.302 19.0357C71.771 19.8956 70.2439 20.7627 68.7163 21.6283C67.2273 22.4708 65.7308 23.2986 64.2298 24.12C62.0451 25.3179 59.8793 26.5498 57.7126 27.7803C57.6136 27.6949 57.5143 27.6095 57.4123 27.5214C57.2147 27.3514 57.2147 27.3514 57.013 27.1781C56.8181 27.0103 56.8181 27.0103 56.6195 26.8393C56.3626 26.6218 56.1032 26.4076 55.8404 26.1974C55.5346 25.9527 55.2384 25.6963 54.9441 25.4378C54.9441 25.2972 54.9441 25.1566 54.9441 25.0118C55.0668 24.949 55.1896 24.886 55.3159 24.8212C57.8789 23.5041 60.4144 22.1503 62.9174 20.7225C64.2976 19.9357 65.6861 19.1668 67.0829 18.41C69.159 17.2842 71.2173 16.1284 73.2713 14.9627C73.543 14.8096 73.543 14.8096 73.8201 14.6533C74.1383 14.4703 74.4535 14.2824 74.7646 14.0876C75.6925 13.5122 75.6925 13.5122 76.2502 13.5111Z" fill="#ABC3CB"/>
<path d="M81.2795 16.6572C81.8298 17.1826 81.9352 17.4506 81.99 18.197C81.8106 18.2829 81.6313 18.3689 81.4467 18.4574C77.4622 20.3959 73.63 22.6398 69.7794 24.8286C67.9699 25.8527 66.1401 26.8379 64.3042 27.8137C64.0865 27.9297 63.8689 28.0458 63.6444 28.1655C63.4351 28.2769 63.2258 28.3883 63.01 28.503C62.2236 28.9422 61.4722 29.4301 60.7258 29.9341C60.2679 30.1228 60.2679 30.1228 59.8107 29.9686C59.3198 29.6307 58.9254 29.2465 58.511 28.8184C58.3607 28.6642 58.2101 28.5098 58.0551 28.351C57.942 28.2328 57.8289 28.1148 57.7124 27.9932C57.9854 27.1744 58.2327 27.1288 58.9853 26.7372C59.3211 26.5598 59.3211 26.5598 59.6638 26.379C59.907 26.2527 60.1504 26.1266 60.401 25.9967C60.9117 25.7279 61.4218 25.4575 61.9316 25.1872C62.0611 25.1189 62.1903 25.0505 62.3237 24.9802C63.542 24.3352 64.7412 23.6592 65.938 22.9754C67.831 21.8966 69.7398 20.8508 71.6579 19.8174C72.75 19.2284 73.8395 18.6359 74.9201 18.0258C75.1997 17.8682 75.48 17.7119 75.7611 17.5571C76.371 17.2194 76.9483 16.87 77.5169 16.4659C79.0419 15.4297 79.7532 15.6743 81.2795 16.6572Z" fill="#D3F3FC"/>
<path d="M72.673 9.652C73.0067 9.6608 73.3406 9.66957 73.6846 9.67862C73.6846 10.5219 73.6846 11.3653 73.6846 12.2342C73.3502 12.4143 73.0159 12.5943 72.6713 12.7799C70.5811 13.9076 68.4939 15.0358 66.4373 16.2239C65.1306 16.9744 63.8094 17.6994 62.4913 18.4299C61.1079 19.1967 59.7254 19.9652 58.3465 20.7401C57.9885 20.9412 57.9885 20.9412 57.6233 21.1464C57.1716 21.4004 56.7201 21.6547 56.2688 21.9094C55.131 22.5491 53.9878 23.1618 52.8144 23.7341C51.8588 22.9112 50.9239 22.084 50.0459 21.1785C50.172 21.1317 50.298 21.0849 50.428 21.0366C51.8691 20.4832 53.2075 19.8073 54.5581 19.0622C54.7792 18.9413 55.0004 18.8204 55.2283 18.6958C56.9514 17.7511 58.6625 16.7858 60.3707 15.8148C61.9628 14.9109 63.5664 14.0298 65.1753 13.1564C66.6234 12.37 68.0656 11.5734 69.5037 10.7691C69.6498 10.6876 69.7957 10.6061 69.946 10.5222C70.0723 10.4514 70.1988 10.3807 70.3289 10.3078C71.1708 9.85046 71.6972 9.62634 72.673 9.652Z" fill="#A5ABAA"/>
<path d="M54.5181 29.484C55.3998 30.2132 56.1581 30.914 56.8607 31.8266C55.0205 32.9161 53.1441 33.9208 51.2438 34.9013C49.3602 35.8741 47.5006 36.8748 45.6593 37.9254C44.6354 38.5061 43.6068 39.0788 42.5782 39.6512C42.2038 39.8597 41.8299 40.0688 41.4561 40.2779C37.0544 42.7285 37.0544 42.7285 34.6595 42.7008C34.5008 42.6999 34.3422 42.6989 34.1786 42.698C33.7887 42.6955 33.399 42.6916 33.009 42.6876C33.2033 41.6986 33.3772 41.1834 34.2029 40.5748C34.5417 40.3761 34.5417 40.3761 34.8874 40.1736C35.0102 40.1008 35.1331 40.0281 35.2598 39.953C35.6438 39.7264 36.0299 39.503 36.4164 39.2802C36.6462 39.1454 36.876 39.0108 37.1128 38.872C37.8145 38.4629 38.519 38.0587 39.2249 37.6564C39.3517 37.584 39.4786 37.5114 39.6093 37.4368C41.9161 36.1207 44.2463 34.8519 46.5896 33.6018C47.4748 33.1293 48.3571 32.6514 49.2365 32.1677C49.4471 32.0519 49.6577 31.936 49.8747 31.8168C50.2665 31.6011 50.658 31.3847 51.049 31.1675C52.1819 30.5443 53.3276 29.9883 54.5181 29.484Z" fill="#D4F3FC"/>
<path d="M47.2772 22.4563C47.3256 22.5749 47.3739 22.6935 47.4235 22.8158C47.7828 23.4485 48.2419 23.8714 48.7679 24.3729C49.1234 24.7273 49.4784 25.0823 49.8327 25.4378C49.6436 25.5287 49.4545 25.6194 49.2597 25.7131C47.2821 26.6761 45.365 27.7267 43.4554 28.8174C41.9766 29.6606 40.4855 30.4768 38.9849 31.281C37.1839 32.2495 35.4023 33.2475 33.6343 34.2756C33.4228 34.3981 33.2114 34.5208 32.9935 34.647C31.8923 35.2921 30.8388 35.9631 29.8144 36.7247C29.4811 36.0581 29.4945 35.3411 29.4417 34.6083C29.4272 34.4532 29.4126 34.298 29.3976 34.1381C29.3171 33.0113 29.3171 33.0113 29.6164 32.5087C30.2035 32.1428 30.8136 31.8415 31.4382 31.5472C32.9877 30.7946 34.4908 29.9717 35.9903 29.1245C38.0164 27.9803 40.0538 26.8601 42.1031 25.7576C43.5304 24.988 44.9406 24.1947 46.3372 23.3705C46.8513 23.0952 46.8513 23.0952 47.2772 23.0952C47.2772 22.8844 47.2772 22.6735 47.2772 22.4563Z" fill="#A6ADAC"/>
<path d="M80.9253 23.0951C81.9405 24.0583 82.2201 24.5973 82.2695 25.9811C82.2827 26.3489 82.2827 26.3489 82.2961 26.7242C82.3044 26.9933 82.3125 27.2623 82.321 27.5396C82.3255 27.6795 82.33 27.8196 82.3347 27.964C82.4452 31.4902 82.4473 35.0164 82.4445 38.5444C82.4441 39.4733 82.4445 40.4024 82.445 41.3314C82.4454 42.8937 82.4448 44.4559 82.4437 46.0182C82.4428 47.5971 82.4428 49.1762 82.4437 50.7551C82.4467 55.5574 82.4416 60.3594 82.4201 65.1617C82.4173 65.7772 82.4152 66.3926 82.4132 67.0081C82.409 68.545 82.4003 70.0815 82.3815 71.618C82.3768 72.0491 82.3738 72.4801 82.373 72.9111C82.3649 75.5318 82.1389 77.5439 80.6857 79.8092C79.3008 81.104 77.6384 81.9356 75.9448 82.7551C74.9396 83.2574 73.9768 83.8363 73.0057 84.4012C71.4854 85.2831 69.9561 86.0856 68.3563 86.8122C66.8814 87.4873 65.4984 88.2899 64.1014 89.113C63.7295 89.3275 63.3571 89.5406 62.9833 89.7519C62.8372 89.8354 62.6911 89.9189 62.5408 90.0049C62.1847 90.1778 62.1847 90.1778 61.7588 90.1778C61.7588 89.7562 61.7588 89.3345 61.7588 88.9001C63.905 87.7558 66.0604 86.6335 68.2383 85.5508C68.4451 85.4482 68.6519 85.3453 68.8651 85.2393C69.7142 84.8176 70.5635 84.3968 71.4132 83.9766C73.6567 82.8664 75.8839 81.7539 78.038 80.477C78.5827 80.1686 78.5827 80.1686 79.2216 79.9557C79.4471 79.5919 79.4471 79.5919 79.6475 79.1038C79.8258 78.7546 79.8258 78.7546 80.0076 78.3985C80.1405 78.1366 80.2734 77.8748 80.4061 77.6131C80.4736 77.4819 80.5409 77.3507 80.6103 77.2155C81.1025 76.2416 81.3774 75.469 81.3791 74.381C81.3804 74.1161 81.3804 74.1161 81.3817 73.8456C81.3814 73.6525 81.3812 73.4595 81.381 73.2606C81.3817 73.0547 81.3823 72.8488 81.3829 72.6366C81.3848 71.9447 81.3853 71.2528 81.3855 70.5609C81.3866 70.0656 81.3876 69.5704 81.3887 69.0751C81.3915 67.7283 81.3929 66.3813 81.3938 65.0346C81.3944 64.1936 81.3953 63.3524 81.3964 62.5114C81.3989 60.1825 81.401 57.8535 81.4019 55.5246C81.4019 55.3757 81.4019 55.2267 81.4019 55.0731C81.4019 54.9238 81.4021 54.7745 81.4021 54.6206C81.4021 54.3179 81.4023 54.0153 81.4023 53.7127C81.4023 53.5626 81.4025 53.4124 81.4025 53.2576C81.4034 50.8245 81.407 48.3915 81.4121 45.9582C81.417 43.4599 81.4198 40.9615 81.42 38.463C81.4202 37.0602 81.4215 35.6577 81.4253 34.2551C81.4287 32.936 81.4291 31.6169 81.4274 30.2981C81.4272 29.8136 81.4281 29.3293 81.4302 28.8448C81.433 28.1842 81.4317 27.5236 81.4294 26.8628C81.4313 26.6707 81.433 26.4786 81.4347 26.2808C81.426 25.1815 81.2615 24.4991 80.7123 23.521C80.7826 23.3805 80.8529 23.2399 80.9253 23.0951Z" fill="#E79D26"/>
<path d="M49.7394 25.4244C50.4758 25.7454 50.9537 26.1598 51.5363 26.7154C51.5363 26.856 51.5363 26.9965 51.5363 27.1413C51.3628 27.2333 51.1894 27.3255 51.0107 27.4203C46.3925 29.8717 46.3925 29.8717 41.8144 32.397C41.0252 32.8408 40.2351 33.2829 39.4452 33.7254C38.9976 33.9761 38.55 34.227 38.1023 34.4781C36.8678 35.17 35.6318 35.8595 34.3938 36.5457C34.262 36.6187 34.1302 36.6918 33.9945 36.7672C33.3533 37.1226 32.7121 37.4778 32.0704 37.8324C31.8404 37.9597 31.6102 38.0873 31.3732 38.2187C31.0678 38.3876 31.0678 38.3876 30.756 38.5599C30.362 38.7848 29.9787 39.0284 29.6013 39.2801C28.6343 39.1649 28.6343 39.1649 28.3236 38.8542C28.2437 38.375 28.2437 38.375 28.3236 37.7894C28.9535 37.0334 29.6167 36.5817 30.4532 36.0857C30.6434 35.9588 30.8337 35.8321 31.0297 35.7013C33.2547 34.218 35.5998 32.9786 37.956 31.7181C38.7124 31.3107 39.4623 30.8926 40.2093 30.4688C41.9098 29.505 43.6189 28.5569 45.3285 27.6092C45.692 27.4075 46.0558 27.2059 46.4195 27.004C46.6433 26.88 46.8674 26.7561 47.098 26.6283C47.5982 26.3481 48.093 26.0608 48.5864 25.7688C49.1937 25.4376 49.1937 25.4376 49.7394 25.4244Z" fill="#F9FBFB"/>
<path d="M25.3423 40.558C27.756 42.3684 27.756 42.3684 28.8342 43.269C29.4963 43.8107 30.0928 44.2307 30.8901 44.5484C31.8402 44.9686 32.5625 45.3289 33.0089 46.3079C33.3292 48.701 33.0491 51.159 32.7959 53.5486C31.7275 53.272 31.1761 52.8754 30.421 52.0787C30.273 51.9258 30.273 51.9258 30.122 51.77C29.7037 51.3379 29.2906 50.9009 28.877 50.4641C28.5727 50.1442 28.2656 49.8269 27.9585 49.5098C27.7781 49.3196 27.5978 49.1295 27.4121 48.9333C26.7444 48.3117 26.7444 48.3117 25.3423 47.7987C25.3423 45.4092 25.3423 43.0198 25.3423 40.558Z" fill="#925C01"/>
<path d="M24.6008 62.2245C27.4279 64.6985 28.4294 64.7357 29.5077 65.6363C30.1698 66.1781 31.9987 66.107 32.796 66.4247C33.746 66.8449 32.5818 66.8594 33.0281 67.8384C33.3484 70.2314 33.0492 72.6681 32.796 75.0577C31.7276 74.7811 31.1762 74.3846 30.4211 73.5879C30.273 73.435 30.273 73.435 30.1221 73.2791C29.7038 72.847 29.2907 72.41 28.8771 71.9732C28.5728 71.6533 28.2657 71.336 27.9586 71.0189C27.7782 70.8287 27.5978 70.6386 27.4121 70.4424C26.7445 69.8208 24.8068 68.6791 25.0519 67.392C25.037 67.7429 25.2531 63.9101 24.6008 62.2245Z" fill="#925C01"/>
<path d="M25.3425 92.7334C25.9813 93.1542 26.6113 93.5786 27.2308 94.0278C28.7803 95.1467 30.3617 96.0356 32.0857 96.8587C32.7961 97.2056 32.7961 97.2056 33.435 97.6315C33.2944 97.6315 33.1539 97.6315 33.0091 97.6315C33.0091 99.8101 33.0091 101.989 33.0091 104.233C31.5705 103.754 31.5705 103.754 30.9585 103.289C30.823 103.187 30.6874 103.085 30.5477 102.98C30.4067 102.871 30.2659 102.762 30.1209 102.649C29.9735 102.537 29.8261 102.425 29.6745 102.309C26.5685 99.9221 26.5685 99.9221 25.3425 98.6963C25.3237 98.2548 25.3197 97.8129 25.3218 97.3711C25.3224 97.1027 25.3231 96.8344 25.3237 96.558C25.3256 96.2724 25.3273 95.987 25.3293 95.7016C25.3303 95.4152 25.3312 95.129 25.332 94.8426C25.3346 94.1396 25.3382 93.4364 25.3425 92.7334Z" fill="#945E04"/>
<path d="M25.3424 82.9371C26.118 83.3249 26.5567 83.6595 27.1791 84.2415C29.0745 85.9727 30.9298 87.328 33.2219 88.4741C33.1516 89.8797 33.0814 91.2852 33.009 92.7333C32.0636 92.3553 31.3219 91.9224 30.5067 91.3359C30.3101 91.1953 30.3101 91.1953 30.1095 91.052C29.1343 90.3394 28.2819 89.5598 27.4645 88.6679C26.7754 87.9979 25.9849 87.6242 25.1294 87.1964C25.1997 85.7908 25.2699 84.3853 25.3424 82.9371Z" fill="#8E5901"/>
<path d="M25.3423 53.3357C26.1162 53.7226 26.622 54.0968 27.2721 54.6535C29.0738 56.147 31.0631 57.6616 33.4348 58.0208C33.224 58.1263 33.224 58.1263 33.0089 58.2338C33.0089 59.4285 33.0089 60.6232 33.0089 61.8541C33.2197 61.9596 33.2197 61.9596 33.4348 62.0671C32.4712 62.3282 32.1098 62.3586 31.1855 61.9206C30.033 61.1213 28.9875 60.1675 27.9344 59.2437C27.0345 58.4638 26.5574 58.0509 25.3423 57.8079C25.3423 56.3321 25.3423 54.8562 25.3423 53.3357Z" fill="#915A02"/>
<path d="M25.3423 73.1411C26.274 73.9397 27.102 74.6757 27.9379 75.5501C29.4463 77.0918 31.0714 78.3482 33.0089 79.317C33.0089 80.7928 33.0089 82.2686 33.0089 83.7892C32.0178 83.3928 31.6872 83.1797 30.9858 82.445C30.8299 82.2831 30.674 82.1215 30.5132 81.9549C30.3528 81.7871 30.1927 81.6193 30.0274 81.4466C29.8609 81.2801 29.6941 81.1133 29.5225 80.9417C29.1053 80.5245 28.6928 80.1041 28.2831 79.6797C28.0437 79.4345 27.8043 79.1894 27.5652 78.9443C27.4451 78.8189 27.325 78.6934 27.2012 78.5642C27.0837 78.4447 26.9663 78.3252 26.8456 78.2023C26.7408 78.0942 26.636 77.986 26.5281 77.8748C26.1475 77.5402 26.1475 77.5402 25.3423 77.4003C25.3423 75.9948 25.3423 74.5892 25.3423 73.1411Z" fill="#915B02"/>
<path d="M58.5644 90.8168C58.5644 91.9412 58.5644 93.0656 58.5644 94.2241C58.4941 94.2241 58.4238 94.2241 58.3514 94.2241C58.3514 93.5917 58.3514 92.9592 58.3514 92.3075C57.0755 92.756 55.9072 93.3037 54.7178 93.9447C54.5411 94.0387 54.3645 94.1326 54.1827 94.2295C53.655 94.5106 53.1281 94.793 52.6014 95.076C52.0558 95.369 51.5102 95.6621 50.9642 95.9545C50.7717 96.0577 50.7717 96.0577 50.5751 96.1632C49.5056 96.7335 48.4232 97.2759 47.3362 97.8123C46.5346 98.2097 45.7409 98.6186 44.9523 99.0415C44.6857 99.1842 44.6857 99.1842 44.4135 99.3299C44.0707 99.5141 43.7286 99.6994 43.3873 99.8861C40.2523 101.569 36.6815 102.168 33.222 101.252C33.1517 100.971 33.0814 100.69 33.009 100.4C33.2373 100.435 33.4658 100.47 33.7012 100.506C34.0381 100.545 34.3752 100.58 34.7127 100.613C34.8884 100.63 35.0641 100.647 35.2451 100.665C39.2978 100.86 42.6547 99.0656 46.0648 97.1036C46.8193 96.6777 47.589 96.2918 48.3688 95.9146C49.7309 95.2487 51.0602 94.5291 52.3885 93.7982C53.8155 93.0139 55.246 92.2404 56.7009 91.5089C56.8417 91.4376 56.9827 91.3662 57.1277 91.2925C58.0856 90.8168 58.0856 90.8168 58.5644 90.8168Z" fill="#EC9E24"/>
<path d="M56.2216 35.6598C56.4325 35.7652 56.4325 35.7652 56.6476 35.8728C54.8549 36.9173 53.0424 37.921 51.2171 38.9074C50.9986 39.0259 50.7801 39.144 50.555 39.2661C49.4733 39.8511 48.3904 40.4329 47.3039 41.0087C45.3268 42.0627 43.4312 43.153 41.6014 44.4476C39.523 45.9173 36.7161 47.8235 34.0737 47.5856C33.7926 47.4451 33.5115 47.3045 33.2219 47.1597C33.1516 49.268 33.0813 51.3763 33.0089 53.5485C32.9386 53.5485 32.8683 53.5485 32.7959 53.5485C32.7906 52.5857 32.7868 51.6231 32.7842 50.6603C32.7832 50.3328 32.7817 50.0051 32.78 49.6775C32.7772 49.2071 32.7761 48.7365 32.7751 48.266C32.774 48.1193 32.7729 47.9723 32.7719 47.8209C32.7717 46.7823 32.7717 46.7823 33.0089 46.3078C32.8651 46.2625 32.7212 46.2173 32.573 46.1705C31.7401 45.7882 31.1029 45.2524 30.4001 44.6706C30.1152 44.4385 29.83 44.2063 29.5449 43.9744C29.4082 43.8626 29.2712 43.7506 29.1302 43.6354C28.6545 43.2491 28.1708 42.8741 27.6849 42.5012C27.5403 42.3879 27.3955 42.2744 27.2464 42.1577C26.9629 41.9368 26.6759 41.72 26.3862 41.5071C25.3627 40.7155 25.3627 40.7155 25.249 39.8391C25.2952 39.5625 25.2952 39.5625 25.3423 39.2801C25.4892 39.4328 25.636 39.5853 25.7874 39.7427C26.4182 40.3728 27.0999 40.9184 27.8046 41.463C27.9345 41.5639 28.0644 41.6649 28.1983 41.7688C28.4649 41.9756 28.7322 42.1817 28.9995 42.3877C29.3645 42.669 29.728 42.9522 30.0915 43.2357C32.8258 45.3376 34.9283 45.929 38.3329 45.669C39.4916 45.4445 40.3228 44.7669 41.2701 44.0924C41.4034 43.9976 41.5365 43.9031 41.6739 43.8055C41.8127 43.7063 41.9518 43.6069 42.0949 43.5046C44.2375 42.0167 46.5975 40.8729 48.9054 39.6669C50.0183 39.0844 51.1195 38.4832 52.2154 37.8693C52.4397 37.744 52.4397 37.744 52.6686 37.6165C53.3192 37.2532 53.9681 36.8869 54.6153 36.5174C54.8291 36.3968 55.0429 36.2765 55.2633 36.1522C55.4411 36.0504 55.6192 35.9486 55.8023 35.8436C55.9408 35.7829 56.0792 35.7224 56.2216 35.6598Z" fill="#EA9B1A"/>
<path d="M25.3423 63.1318C26.173 63.4641 26.6292 63.6828 27.299 64.2098C27.8899 64.6733 27.8899 64.6732 28.5367 65.0485C28.177 66.0079 27.7228 66.9047 27.2589 67.817C26.6264 67.6061 25.9939 67.3953 25.3423 67.1781C25.3423 65.8428 25.3423 64.5076 25.3423 63.1318Z" fill="#905B02"/>
<path d="M25.3423 39.2803C25.5625 39.5092 25.5625 39.5092 25.7874 39.7428C26.4182 40.373 27.1001 40.9184 27.8046 41.4631C27.934 41.5639 28.0635 41.6646 28.1968 41.7685C30.2973 43.465 30.2973 43.465 32.5446 44.9412C32.698 45.0409 32.8511 45.1405 33.0089 45.2432C33.0753 45.8156 33.0753 45.8156 33.0089 46.308C31.9596 45.9777 31.2332 45.3603 30.4001 44.6707C30.1152 44.4386 29.83 44.2065 29.5449 43.9746C29.4082 43.8628 29.2712 43.7508 29.1302 43.6355C28.6545 43.2492 28.1708 42.8742 27.6849 42.5013C27.5403 42.388 27.3955 42.2745 27.2464 42.1578C26.9629 41.937 26.6759 41.7202 26.3862 41.5072C25.3627 40.7156 25.3627 40.7156 25.249 39.8393C25.2799 39.6549 25.3106 39.4702 25.3423 39.2803Z" fill="#D78E0F"/>
<path d="M33.009 100.4C34.6957 100.541 36.3823 100.681 38.1201 100.826C38.1201 101.037 38.1201 101.248 38.1201 101.465C36.4477 101.897 34.8675 101.688 33.222 101.252C33.1517 100.971 33.0814 100.69 33.009 100.4Z" fill="#EA9B19"/>
<path d="M30.2405 72.0763C31.1541 72.3574 32.0677 72.6385 33.009 72.9281C33.009 73.4904 33.009 74.0526 33.009 74.6318C32.2787 74.3103 31.7404 73.8828 31.1456 73.3541C30.9754 73.2048 30.8053 73.0555 30.6298 72.9015C30.2405 72.5022 30.2405 72.5022 30.2405 72.0763Z" fill="#865802"/>
<path d="M81.5642 42.6876C81.6345 42.9687 81.7048 43.2498 81.7772 43.5395C81.9177 43.5395 82.0583 43.5395 82.2031 43.5395C82.2031 44.8045 82.2031 46.0694 82.2031 47.3728C82.0625 47.3728 81.922 47.3728 81.7772 47.3728C81.7069 47.5133 81.6366 47.6539 81.5642 47.7987C81.5642 46.112 81.5642 44.4254 81.5642 42.6876Z" fill="#D79429"/>
<path d="M30.6665 66.5393C31.4396 66.5393 32.2126 66.5393 33.0091 66.5393C33.0091 67.1718 33.0091 67.8043 33.0091 68.456C32.6975 68.2579 32.3872 68.0579 32.0774 67.8571C31.9044 67.7457 31.7315 67.6346 31.5533 67.52C31.0924 67.1782 31.0924 67.1782 30.6665 66.5393Z" fill="#8E5A02"/>
<path d="M30.0276 32.2524C30.1681 32.3227 30.3087 32.393 30.4535 32.4654C30.3832 32.606 30.313 32.7465 30.2406 32.8913C30.2252 33.5055 30.2207 34.1141 30.2271 34.7281C30.2282 34.8989 30.2291 35.0697 30.2301 35.2456C30.2327 35.6675 30.2365 36.0896 30.2406 36.5117C30.1 36.5819 29.9594 36.6522 29.8146 36.7246C29.4813 36.0581 29.4948 35.341 29.442 34.6082C29.4275 34.4532 29.4128 34.2979 29.3979 34.138C29.3157 32.9897 29.3157 32.9897 29.7047 32.4646C29.8112 32.3945 29.9179 32.3246 30.0276 32.2524Z" fill="#B5B3A6"/>
<path d="M23.8516 88.4742C23.9921 88.6148 24.1327 88.7554 24.2775 88.9002C24.2726 89.361 24.2726 89.361 24.1976 89.8851C24.174 90.0591 24.1503 90.2333 24.1261 90.4126C24.1058 90.5459 24.0854 90.6795 24.0645 90.8168C23.924 90.7465 23.7834 90.6763 23.6386 90.6039C23.612 89.193 23.612 89.193 23.8516 88.4742Z" fill="#5C3E2B"/>
<path d="M30.6665 66.5393C31.4396 66.5393 32.2126 66.5393 33.0091 66.5393C33.0091 66.6096 33.0091 66.6799 33.0091 66.7523C32.8421 66.7787 32.6754 66.8051 32.5033 66.8321C31.9142 66.9207 31.9142 66.9207 31.5183 67.3912C31.2372 67.11 30.9561 66.8289 30.6665 66.5393Z" fill="#805407"/>
<path d="M33.009 100.4C33.6415 100.505 33.6415 100.505 34.2868 100.613C34.2165 100.824 34.1462 101.035 34.0738 101.252C33.7225 101.182 33.3711 101.111 33.009 101.039C33.009 100.828 33.009 100.617 33.009 100.4Z" fill="#E29414"/>
<path d="M30.2405 72.0763C30.6621 72.2168 31.0838 72.3574 31.5182 72.5022C31.448 72.7833 31.3777 73.0644 31.3053 73.3541C30.9418 73.0813 30.5868 72.7965 30.2405 72.5022C30.2405 72.3617 30.2405 72.2211 30.2405 72.0763Z" fill="#7A5106"/>
<path d="M81.351 17.1322C81.4916 17.1322 81.6321 17.1322 81.777 17.1322C81.8472 17.4836 81.9175 17.835 81.9899 18.197C81.5683 18.2673 81.1466 18.3376 80.7122 18.41C80.923 17.9883 81.1338 17.5666 81.351 17.1322Z" fill="#CEF0EC"/>
</g>
</g>
<defs>
<clipPath id="clip0_1_4104">
<rect width="109.036" height="109.462" fill="white" transform="translate(0 0.733887)"/>
</clipPath>
</defs>
</svg>
