<svg fill="none" height="110" viewBox="0 0 110 110" width="110" xmlns="http://www.w3.org/2000/svg" xmlns:xlink="http://www.w3.org/1999/xlink"><clipPath id="a"><path d="m.255859.702698h109.036v108.823h-109.036z"/></clipPath><mask id="b" height="110" maskUnits="userSpaceOnUse" width="110" x="0" y="0"><path d="m109.186.702576h-108.823939v108.823424h108.823939z" fill="#fff"/></mask><g clip-path="url(#a)"><g mask="url(#b)"><path d="m60.3001 21.5322c.263.077.5261.154.7971.2333 4.2877 1.4118 8.644 3.7872 10.7867 7.9232.5314 1.0937.5314 1.0937.5314 1.8332h.425v.4251c.2105.0701.4209.1402.6377.2125.3934.7471.4795 1.3805.4816 2.2169.0009.2199.0017.4401.0026.6667-.0019.2321-.0041.464-.006.7031-.0017.3579-.0017.3579-.0034.7229-.0204 1.7875-.1683 3.4928-.4748 5.255-.0804.5269-.1601 1.0538-.2391 1.5809-.0617.394-.1235.7881-.186 1.1822-.1717-.1074-.3437-.2149-.5205-.3254-.2272-.1382-.4545-.2763-.6885-.4185-.2242-.1382-.4487-.2761-.6799-.4185-.6893-.3391-.9762-.3958-1.7244-.3255-.4687.1996-.4687.1996-.9141.4983-.1711.1064-.3425.2129-.5187.3226-.1804.115-.3606.2298-.5466.3482-1.8428 1.1428-3.7145 2.1522-5.6722 3.0819-.0496.7216-.0797 1.4425-.1063 2.1654-.0143.2038-.0285.4079-.0432.6181-.0544 1.1131-.0544 1.1131.4812 2.0336.4443.2831.8855.4999 1.3686.7091.2538.1305.5074.2616.7605.3936.26.1262.5201.2519.7805.3768 1.4158.6936 2.8035 1.4317 4.1844 2.192.1877.1029.3753.206.5685.3123 1.3295.7354 1.3295.7354 1.5703.9762.0457 1.2043.0249 2.4086 0 3.6133-.0036.18-.0072.36-.0108.5454-.0842 1.2297-.4914 2.3817-.8785 3.5444-.2754.8304-.4799 1.6323-.5985 2.4991-1.0627-.4251-1.0627-.4251-1.5475-.6936-.595-.2221-.595-.2221-1.2188.0878-.2321.1358-.4642.2717-.7033.4115-.125.0714-.2497.1428-.3785.2162-.3977.2283-.7922.4616-1.1867.6954-.3972.2313-.7951.4615-1.1934.6908-.3605.2083-.7191.4194-1.0778.6304-.5582.2995-.5582.2995-.9833.2995-.3141 3.1601-.3141 3.1601.7473 5.9704.6504.3577 1.2615.6234 1.961.8617.9394.3562 1.8045.871 2.6851 1.3509.3511.1845.7024.3683 1.0544.5513.1503.0783.3005.1565.4553.237.1067.0555.2134.111.3235.1682-.5293 1.4995-1.2039 2.4049-2.6037 3.175-.1926.106-.1926.106-.3892.2142-1.5059.8119-3.0734 1.4963-4.6588 2.137-.1375.0567-.275.1132-.4168.1717-1.0085.3998-1.9939.6387-3.0636.8113-.1596.0265-.3193.0531-.4838.0803-.4495.0733-.8993.1433-1.3494.2119-.1839.0287-.3677.0576-.5571.0872-5.7602.729-13.0661.037-17.8713-3.4837-.529-.4148-1.0455-.8361-1.5509-1.2795-.162-.1324-.162-.1324-.3272-.2676-1.4899-1.776-1.3205-6.0805-1.5858-8.3139-.0563-.4657-.1124-.9314-.1687-1.3969-.373-3.1148-.7006-6.2303-.9703-9.3558-.0814-.9333-.1762-1.8634-.284-2.7937-.276-2.3848-.4748-4.7738-.661-7.1671-.0544-.6952-.1103-1.3902-.1664-2.0855-.3411-4.2976-.5535-8.5994-.5754-12.9113-.0025-.3394-.007-.6789-.0131-1.0183-.0672-3.7338.7796-6.4191 3.3312-9.2162 6.2465-5.9891 17.8241-7.1533 25.8634-4.774z" fill="#1c0000"/><path d="m60.2998 21.532c.2632.077.5261.154.7971.2333 4.2877 1.4118 8.644 3.7872 10.7867 7.9231.5314 1.0938.5314 1.0938.5314 1.8332.1402.0702.2805.1403.4251.2126-.1339 3.6375-.5614 6.7551-3.3525 9.3686-3.0494 2.6319-6.5666 4.3531-10.463 5.297-.1801.0468-.3601.0938-.5454.142-.4544.1114-.9072.2009-1.3675.2831-.2018.0391-.4032.0785-.6111.1188-6.4969 1.1108-14.3137.2617-19.8731-3.5178-2.5116-1.9212-4.2186-3.7716-5.0719-6.8829-.1074-.5375-.1074-.5375-.3745-.7705-.2492-3.5499.5028-6.1489 2.7631-8.9269 5.9852-6.5607 18.2166-7.7225 26.3556-5.3136z" fill="#d8fafa"/><path d="m72.6274 31.7343c.5813.2131.8068.3379 1.0874.9018.197.6149.2427 1.0959.2442 1.7401.0008.22.0019.4402.0028.6668-.0022.2321-.0041.4639-.006.7031-.0017.3579-.0017.3579-.0034.7228-.0204 1.7873-.1683 3.4928-.4748 5.255-.0804.5269-.1601 1.0538-.2391 1.5809-.0617.3941-.1235.7881-.186 1.1822-.1718-.1073-.3437-.2149-.5205-.3254-.2273-.1382-.4545-.2763-.6885-.4185-.2242-.1382-.4487-.2761-.6799-.4185-.6895-.339-.976-.3964-1.7244-.3254-.4723.203-.4723.203-.9216.5056-.1724.1076-.3445.2151-.522.3261-.2719.1736-.2719.1736-.549.3505-1.7642 1.0961-3.54 2.0357-5.4465 2.8562-.1403-.2105-.2806-.4209-.4251-.6377-1.2177 1.6047-2.1769 3.3198-3.1384 5.0854-.0825.1503-.1652.3003-.2504.4553-.1877.3432-.3709.6888-.5533 1.0351-.7063 1.0023-2.2266 1.0935-3.3642 1.3284-1.1879.2032-2.3305.2038-3.5335.1726v3.4007c-2.8516.1326-5.1719-.1235-7.8642-1.0627-.0056.9475-.0092 1.8948-.0117 2.8423-.0011.3199-.0026.64-.0045.9599-.0117 2.0455.0385 4.0788.146 6.1215.1214 2.385.1507 4.7721.189 7.1596.0552 3.4484.1494 6.8904.3188 10.3351-1.4464.3467-2.4976-.2782-3.8258-.8502-.1594-.0663-.3191-.1326-.4834-.2009-1.2618-.5717-2.3003-1.4482-3.3425-2.3496-.1083-.0885-.2165-.1769-.3281-.2681-1.4889-1.7779-1.3195-6.0794-1.5848-8.3135-.0563-.4657-.1124-.9314-.1687-1.397-.373-3.1147-.7006-6.2304-.9705-9.3557-.0812-.9333-.176-1.8634-.2838-2.7939-.2761-2.3845-.4748-4.7736-.661-7.1668-.0544-.6953-.1103-1.3903-.1664-2.0855-.3618-4.5598-.5556-9.1051-.5127-13.6793.1403.0702.2806.1403.4251.2126.1273.4125.24.83.3454 1.2487.9284 3.1195 3.3223 5.3043 6.1011 6.8665 1.5346.8147 3.1619 1.3647 4.8185 1.8744.2159.0676.4316.1354.6542.2051 4.5997 1.2913 9.8007 1.2479 14.4365.22.1645-.0353.3293-.0708.4989-.1071 4.7346-1.0423 10.0545-3.3064 12.7984-7.5314 1.1762-2.2034 1.2785-4.5856 1.3684-7.0271z" fill="#451517"/><path d="m62.0004 46.825c.9763.3623 1.8834.8308 2.8031 1.3152.2584.1358.2584.1358.5222.2744 1.8041.9594 3.5712 1.982 5.3362 3.0109.4406.257.8821.5129 1.3239.7675.4321.2495.8621.5023 1.2904.758.2047.1188.4094.2376.6202.36.1807.1069.3613.2138.5475.3239.6406.2504.9365.2039 1.5846-.0085.441-.2125.441-.2125.8584-.4873.1575-.0985.315-.1969.4772-.2982.2463-.1569.2463-.1569.4976-.3172.3407-.2129.6816-.4255 1.0229-.6376.1652-.1027.3303-.2053.5006-.3112.915-.5588 1.8568-1.0657 2.8071-1.5618 1.258 1.5892 1.5511 3.0537 1.5528 5.045.002.1773.0037.3543.0056.5369.0051.5809.0068 1.1618.0083 1.7427.0019.407.0038.814.0057 1.2211.0036.8516.0053 1.7031.006 2.5546.001 1.0867.0091 2.1732.0187 3.26.0063.8402.0078 1.6804.008 2.5208.0009.4004.0036.8008.0081 1.2013.0427 4.1742.0427 4.1742-1.1881 5.7228-1.243 1.199-2.7448 2.0064-4.2509 2.8294-1.8313 1.0098-1.8313 1.0098-3.6273 2.08-.1626.0999-.3255.2-.4929.3031-.3002.1861-.5986.3751-.8951.5672-.6512.4009-1.0604.5998-1.8336.5726-.7866-.2512-1.3773-.6042-2.0781-1.0387-.0159.1699-.0318.3397-.0482.5148-.2969 2.4809-1.1675 4.8138-3.1491 6.4278-4.6915 3.4747-10.0213 4.4174-15.7193 4.3224 0-1.5431 0-3.0862 0-4.676.3416-.0234.6834-.0466 1.0354-.0706 5.4254-.3873 12.5013-1.1008 16.3934-5.4556.2895-.4126.2895-.4126.4914-.8103.1184-.2236.2368-.4472.3588-.6776-.2544-.0739-.2544-.0739-.5139-.1494-.9618-.3481-1.8386-.806-2.7406-1.2852-.1709-.0889-.3418-.1775-.5178-.2691-.3445-.1818-.6865-.3684-1.0259-.5599-.3488-.194-.7048-.3755-1.0662-.5447-.559-.2955-.9466-.5395-1.3622-1.0175-.2308-.9233-.1819-1.7924-.1194-2.7365.0127-.3715.0127-.3715.0261-.7505.0223-.6098.0538-1.2177.0933-1.8266.1339-.0729.2678-.1456.4056-.2207.6134-.3337 1.2264-.6676 1.8393-1.0015.2107-.1145.4213-.2291.6381-.3471.3093-.1685.3093-.1685.6249-.3402.2011-.1095.4021-.2188.6091-.3314.48-.2659.9501-.5426 1.4201-.8253.6268-.3346.6268-.3346 1.1847-.2151.1666.1009.3331.2017.5048.3056.1972.1139.3945.2279.5977.3454.2302.1448.2302.1448.465.2923.0177-.2587.0351-.5174.0532-.7839.0941-.8799.3116-1.6691.5845-2.5106.5602-1.7622.6459-3.3289.641-5.1642-.0004-.2517-.0004-.2517-.0009-.5084-.0006-.4117-.0014-.8234-.0025-1.2351-.2891-.1524-.2891-.1524-.5839-.308-.7275-.3843-1.4548-.769-2.182-1.1541-.3122-.1652-.6246-.3303-.9373-.4953-5.303-2.7979-5.303-2.7979-5.8614-3.3563-.0533-.738-.0393-1.4787-.0399-2.2185-.0026-.2083-.0051-.4166-.0079-.6313-.0004-.1992-.0006-.3981-.0011-.6032-.001-.1834-.0019-.3669-.0027-.5558.0516-.4547.0516-.4547.4767-.8797z" fill="#c0fbfb"/><path d="m66.6497 32.6392c1.1108.9488 2.208 1.98 2.7897 3.3459-.0531.651-.0531.651-.4251 1.2752-.0676.1233-.1354.2466-.2051.3737-2.3161 3.6556-7.3498 5.2799-11.2724 6.4278-.2448.0729-.4899.1458-.7422.2208-5.5861 1.3805-12.0503.4534-17.0219-2.4391-1.8339-1.1833-4.2084-2.863-4.9783-5.0083.0776-1.749 1.4126-2.9271 2.6129-4.0823 8.0414-6.8291 21.1228-6.4903 29.2424-.1137z" fill="#591212"/><path d="m57.1116 53.4139c-.1264 1.0715-.357 2.0301-.6933 3.0603-.0967.3014-.193.6025-.2893.9039-.0489.1533-.0977.3065-.1481.4644-.4158 1.3231-.7881 2.6596-1.1675 3.9936-.068.2387-.068.2387-.1373.4822-.8591 3.0169-1.6889 6.0402-2.4734 9.0777-.1798.6756-.3739 1.3454-.5733 2.0155-1.1343 3.9834-1.1112 7.9858-1.1067 12.0969.1403.0701.2806.1403.4251.2125-1.844-.0729-3.6622-.2168-5.4864-.5048-.1637-.0242-.3274-.0484-.4959-.0733-.6544-.1095-1.1458-.1936-1.6719-.6126-.0693-.0979-.1386-.1961-.21-.2971.0701-.0701.1403-.1403.2125-.2126.0049-.2841-.0055-.5687-.0221-.8525-.0095-.1823-.0193-.3645-.0293-.5522-.0115-.2004-.0232-.4006-.0348-.607-.0917-1.7784-.155-3.5546-.186-5.3351-.0041-.2262-.0081-.4521-.0124-.6848-.0157-.9244-.0306-1.8488-.0452-2.7731-.0383-2.3457-.0838-4.6879-.2073-7.0308-.1077-2.049-.1254-4.0909-.1139-6.1422.0013-.3381.0021-.6761.003-1.0143.0023-.8087.0059-1.6176.0104-2.4264 2.405.5837 2.405.5837 3.2099.8817.9297.2733 1.8566.281 2.8211.3139.197.0083.3941.0164.597.0249.4827.0199.9659.0376 1.4488.0548 0-1.1222 0-2.2445 0-3.4007.7628-.0855.7628-.0855 1.5409-.1726 1.3412-.159 2.626-.4066 3.9304-.7656.4799-.1246.4799-.1246.905-.1246z" fill="#350707"/><path d="m72.6277 31.7343c.5813.2131.8068.3379 1.0873.9018.1971.6149.2428 1.0959.2443 1.7401.001.22.0019.4402.0027.6668-.0021.2321-.004.4639-.0059.7031-.0017.3579-.0017.3579-.0034.7228-.0204 1.7873-.1684 3.4928-.4749 5.255-.0803.5269-.16 1.0538-.2391 1.5809-.0616.3941-.1235.7881-.186 1.1822-.1717-.1073-.3436-.2149-.5205-.3254-.2272-.1382-.4544-.2763-.6884-.4185-.2242-.1382-.4487-.2761-.6799-.4185-.6895-.339-.9761-.3964-1.7244-.3254-.4723.203-.4723.203-.9216.5056-.1724.1076-.3446.2151-.522.3261-.2719.1736-.2719.1736-.5491.3505-1.7641 1.0961-3.5399 2.0357-5.4464 2.8562-.1403-.2105-.2806-.4209-.4251-.6377-1.2177 1.6047-2.1769 3.3198-3.1385 5.0854-.0824.1503-.1651.3003-.2504.4553-.1876.3432-.3709.6888-.5532 1.0351-.5463.7751-1.3354.8608-2.2218 1.0759-.1685.0414-.3371.0827-.5105.1254-4.2794.9033-8.3467.4259-12.4548-.9756.1052 1.3677.1052 1.3677.2126 2.7631-.8079-.3231-1.2088-.4887-1.8358-1.0039-.1392-.1135-.2784-.227-.4217-.3439-.2174-.1811-.2174-.1811-.4393-.3658-.1507-.1241-.3014-.248-.4565-.3759-1.0126-.8379-2.0029-1.697-2.9708-2.5865-.5964-.5454-1.2102-1.0696-1.8264-1.5924-.3388-.3205-.3388-.3205-.7639-.9582-.4485-.2146-.4485-.2146-.9565-.3588-.1687-.0533-.3375-.1067-.5113-.1617-.437-.1352-.437-.1352-.8702-.1171-.5076-8.4678-.5076-8.4678-.4251-12.3277.1403.0702.2806.1403.4251.2126.1273.4125.24.83.3454 1.2487.9284 3.1195 3.3223 5.3043 6.1011 6.8665 1.5346.8147 3.1618 1.3647 4.8184 1.8744.216.0676.4317.1354.6542.2051 4.5998 1.2913 9.8007 1.2479 14.4366.22.1645-.0353.3292-.0708.4988-.1071 4.7347-1.0423 10.0545-3.3064 12.7985-7.5314 1.1762-2.2034 1.2785-4.5856 1.3684-7.0271z" fill="#757288"/><path d="m66.8765 27.5041c1.6486 1.5233 3.0618 3.0031 3.2571 5.326.0138.9447-.0034 1.8189-.2689 2.7299-.1403 0-.2805 0-.4251 0-.0701.1403-.1402.2806-.2125.4251-.0852-.1337-.1705-.2674-.2583-.4051-2.7012-4.0673-7.1978-6.1681-11.8702-7.1269-6.5513-1.1968-13.1268.0576-18.6907 3.7062-1.5243 1.1022-2.5675 2.4883-3.6132 4.0384-.1403-.0702-.2806-.1403-.4251-.2126-.515-1.9057-.4068-4.1578.4251-5.9513 2.2549-3.6271 6.378-5.5474 10.3815-6.5889 7.1605-1.5912 15.8732-.7987 21.7003 4.0592z" fill="#c0d8e9"/><path d="m83.4673 52.3512c.2414.8704.2486 1.7127.2535 2.6105.0026.2655.0026.2655.0053.5365.0051.5855.0088 1.1711.0117 1.7564.0013.2007.0024.4013.0037.6079.0055 1.0623.0097 2.1244.0127 3.1867.0028.8766.0087 1.7531.0174 2.6296.0107 1.0608.0158 2.1215.0172 3.1823.0015.4027.0047.8057.0098 1.2085.0504 4.2018.0504 4.2018-1.1815 5.7487-1.2908 1.2487-2.8775 2.094-4.4369 2.9625-.2191.125-.4385.25-.6642.379-1.6183.9095-1.6183.9095-2.338.9095.075-.1478.1498-.2957.2272-.4479 1.0117-2.2491.9915-4.3419.9858-6.7696.0027-.4248.0059-.8499.0098-1.2748.0082-1.1093.0106-2.2188.0114-3.3281.0019-1.1356.01-2.2712.0175-3.4071.0136-2.2215.0206-4.443.0236-6.6648.1543-.0856.3086-.1713.4676-.2597.5777-.3212 1.1551-.643 1.7326-.965.3705-.2066.7416-.4125 1.1125-.6185.2357-.1315.4712-.2629.7139-.3985.216-.1201.4319-.2404.6545-.3643.4514-.2638.8918-.5462 1.3239-.8406.5839-.3792.5839-.3792 1.009-.3792z" fill="#65819d"/><path d="m35.4321 50.4383c.8058.4691 1.4483.9643 2.1255 1.6073.8823.8155 1.7837 1.5798 2.7365 2.3116.1137.0876.2274.1754.3446.2657.6499.4933 1.3122.9356 2.02 1.3416-.1052-.2104-.1052-.2104-.2126-.4251-.0148-.3983-.0178-.7971-.0131-1.1956.0019-.2132.0038-.4263.0057-.6459.0023-.1639.0049-.3277.0074-.4965.2423.054.4844.108.734.1637 2.5061.5481 5.0148.9706 7.5553 1.3241v3.1882c-.6336.0295-1.2657.0502-1.8997.0663-.1724.0089-.3448.0179-.5224.027-2.0554.0391-3.273-.5182-5.4421-1.156v14.028c-1.9917-.3983-3.6964-1.5677-5.3136-2.7631-.2104-.0701-.4209-.1403-.6376-.2125-.6037-5.8008-1.0447-11.614-1.4879-17.4288z" fill="#632b33"/><path d="m70.9271 42.9992c.5637.2997.5637.2997 1.0496.6508.1641.1165.3282.2329.4971.353.121.0895.2417.1792.3662.2714.0702-.4909.1403-.9819.2126-1.4878h.2125c.0049.2617.0098.5233.0149.7928.1027.7956.1522.8708.8204 1.4098.2766.1441.5563.2819.8385.4143.3091.1594.6179.319.9265.4791.1641.0829.328.1655.4969.251.9057.4674 1.7859.9785 2.6681 1.4884.1686.0953.3369.1903.5106.2885.9694.5558 1.8151 1.1477 2.6511 1.8901-.7865.9208-1.7871 1.4252-2.8295 2.006-.3538.1981-.7073.3971-1.0603.5969-.1705.096-.3412.1923-.517.2914-.4531.2763-.8493.5794-1.2614.9124-.7082.4443-.7082.4443-1.3973.4883-1.1565-.3716-2.1297-.9678-3.1633-1.5982-.4544-.2712-.9089-.5422-1.3633-.813-.2285-.1371-.4572-.2742-.6927-.4153-1.0346-.6168-2.0789-1.2166-3.1248-1.8139-.1788-.1028-.3573-.2057-.5414-.3115-.9235-.5284-1.8493-1.026-2.8149-1.473-.4047-.2319-.6861-.5039-1.0009-.8457.7422-.6138 1.5684-1.0085 2.4311-1.4215 1.3979-.6759 2.6783-1.4396 3.9527-2.3255.8175-.3779 1.2551-.3063 2.118-.0788z" fill="#d3fdfd"/><path d="m72.6276 31.7343c.5813.2131.8068.3379 1.0874.9018.1972.6149.2427 1.0959.2444 1.7401.0008.22.0017.4402.0025.6668-.0019.2321-.004.4639-.0059.7031-.0011.2384-.0023.4771-.0034.7228-.0204 1.7873-.1683 3.4928-.4748 5.255-.0804.5269-.1601 1.0538-.2392 1.5809-.0616.3941-.1234.7881-.1859 1.1822-.1718-.1073-.3435-.2149-.5206-.3254-.2272-.1382-.4542-.2763-.6884-.4185-.2242-.1382-.4487-.2761-.6799-.4185-.6895-.339-.976-.3964-1.7244-.3254-.4723.203-.4723.203-.9216.5056-.1722.1076-.3445.2151-.522.3261-.1811.1156-.3624.2314-.549.3505-1.7642 1.0961-3.54 2.0357-5.4465 2.8562-.1403-.2105-.2806-.4209-.4251-.6377-1.2177 1.6047-2.1769 3.3198-3.1385 5.0854-.0824.1503-.1651.3003-.2501.4553-.1877.3432-.3711.6888-.5535 1.0351-.7766 1.1022-2.6396 1.1868-3.8872 1.4304-.9984.1048-2.0067.0706-3.0105.0706 0-2.3848 0-4.7696 0-7.2266 1.6833-.1052 1.6833-.1052 3.4007-.2125.6334-.0759 1.2474-.1546 1.8729-.2657.1567-.0274.3133-.0551.4747-.0833 5.3895-.9886 10.9216-2.9638 14.4401-7.4107 1.4908-2.295 1.6062-4.8915 1.7038-7.5436z" fill="#2b2133"/><path d="m50.3105 23.0198c.2623 1.0141.2364 2.0033.2257 3.042-.0008.1777-.0019.3554-.0027.5386-.0026.4359-.0064.872-.0104 1.308-.1433.0255-.2863.051-.4339.0773-5.8802 1.0651-11.4105 2.6252-14.99 7.7603-.1005.149-.201.298-.3045.4517-.1403-.0702-.2806-.1403-.4251-.2126-.515-1.9057-.4068-4.1578.4251-5.9513 2.3847-3.8358 6.8444-5.7566 11.0789-6.7749 1.4815-.2918 2.9323-.3007 4.4369-.2391z" fill="#7c90af"/><path d="m68.8019 78.7068c.2104.1053.2104.1053.4251.2126-.0072 2.4251-.5167 4.2686-1.9661 6.2301-3.9399 3.8505-9.7932 5.2884-15.1439 5.2739-.7891-.0131-.7891-.0131-1.5941-.0265 0-1.5431 0-3.0862 0-4.676.3416-.0234.6834-.0466 1.0354-.0706 5.4254-.3873 12.5013-1.1008 16.3934-5.4556.2895-.4126.2895-.4126.4914-.8103.1184-.2236.2368-.4472.3588-.6776z" fill="#7c91a9"/><path d="m35.0071 79.5571c.1205.1581.241.3162.3653.479 1.9306 2.324 4.611 3.4849 7.4715 4.2269.665.1826.665.1826 1.15.3924.6634.2472 1.2821.3467 1.9833.4427.3977.0555.3977.0555.8034.1123.4124.0554.4124.0554.833.112.282.0389.5639.078.8457.1171.6878.095 1.3756.1883 2.0636.2814v4.4635c-4.7227.194-9.8366-1.5183-13.3904-4.676-1.6538-1.8052-2.0096-3.5534-2.1254-5.9513z" fill="#bbd1e4"/><path d="m42.446 46.1874c.9916.1239 1.9659.2506 2.9491.4119 1.7739.2778 3.5551.4599 5.3402.6508v7.4391c-1.2064 0-2.2513-.0793-3.4273-.2657-.1628-.0233-.3254-.0465-.4931-.0705-1.5407-.2408-2.8334-.6791-4.3689-1.1516 0-2.3146 0-4.6293 0-7.014z" fill="#5b566d"/><path d="m31.1812 35.7726c.2104.1053.2104.1053.4251.2126.1273.4125.24.83.3454 1.2487.4933 1.6953 1.3847 3.032 2.6302 4.2775.1229.5252.1229.5252.22 1.183.0362.2393.0721.4787.1093.7254.0359.2513.072.5027.109.7616.037.2457.0738.4914.1118.7443.1579 1.0659.3022 2.1174.3698 3.1929.0698.833.0697.833.5705 1.3309.1877.1203.3754.2404.5686.3643.2102.1374.4204.2747.6368.4162 2.0066 1.2313 2.0066 1.2313 4.094 2.3095.4077.1969.4077.1969 1.0744.6619.1918.6874.1918.6874.1992 1.4347.0064.2487.0127.4976.0191.7539-.0019.1896-.0038.3792-.0057.5745-1.0842-.3335-1.8405-1.0005-2.6968-1.7135-.1507-.1242-.3014-.2481-.4565-.376-1.0126-.8379-2.0029-1.697-2.9708-2.5865-.5964-.5454-1.2102-1.0695-1.8264-1.5924-.3388-.3205-.3388-.3205-.7639-.9582-.4485-.2146-.4485-.2146-.9565-.3587-.2531-.0802-.2531-.0802-.5113-.1618-.437-.1352-.437-.1352-.8702-.1171-.5076-8.4678-.5076-8.4678-.4251-12.3277z" fill="#756376"/><path d="m71.1396 60.6405h.2126c.0059.403.01.806.0131 1.209.0026.2242.0051.4486.0077.6799-.0064.7101-.0625 1.4111-.1229 2.1187-.0909 1.1169-.1358 2.227-.1553 3.3469-.003.1564-.0062.3131-.0092.4744-.0123.6466-.024 1.2934-.0312 1.9399-.006.4795-.0157.9586-.0259 1.4381-.0009.146-.0015.292-.0022.4427-.0157.6062-.0372 1.0139-.3883 1.5193-.3486.2215-.3486.2215-.9273.209-.8358-.24-1.5357-.622-2.2775-1.0634-.2992-.1735-.5985-.3465-.8982-.519-.1519-.088-.3037-.176-.4601-.2666-.7355-.4206-1.4808-.8219-2.2282-1.2204-.2002-.1078-.2002-.1078-.4044-.2177-.5473-.2916-1.0647-.5422-1.6547-.7388.3726-1.1175 1.6294-1.5203 2.622-2.0712.4047-.2258.8055-.4574 1.2064-.6897.2567-.1442.5139-.288.7713-.4315.3503-.1975.3503-.1975.7076-.3992.644-.2342.644-.2342 1.2225-.0829.5218.295 1.0394.5924 1.5469.9114.0177-.2586.0351-.5173.0532-.7838.1205-1.1248.4659-2.1448.8136-3.2171.2525-.87.3473-1.6862.4085-2.588z" fill="#d2fbfb"/><path d="m72.6274 31.7343c.5814.2131.8069.3379 1.0874.9018.1973.6149.2427 1.0959.2444 1.7401.0009.22.0018.4402.0026.6668-.0019.2321-.004.4639-.006.7031-.001.2384-.0023.4771-.0033.7228-.0205 1.7873-.1684 3.4928-.4749 5.255-.0803.5269-.16 1.0538-.2391 1.5809-.0616.3941-.1235.7881-.186 1.1822-.1717-.1073-.3434-.2149-.5205-.3254-.2272-.1382-.4542-.2763-.6884-.4185-.2243-.1382-.4487-.2761-.68-.4185-.6895-.339-.976-.3964-1.7244-.3254-.4722.203-.4722.203-.9215.5056-.2585.1614-.2585.1614-.5221.3261-.181.1156-.3624.2314-.549.3505-1.7641 1.0961-3.5399 2.0357-5.4465 2.8562-.0701-.2806-.1402-.5612-.2125-.8502.491-.2104.982-.4209 1.4878-.6377-.0701-.2104-.1403-.4208-.2125-.6376.1077-.0521.2157-.1044.3269-.1579 3.4341-1.6802 7.0395-3.6673 8.4672-7.4406.4429-1.317.6023-2.5665.6773-3.9453.0139-.2361.0139-.2361.0279-.4772.0225-.3855.044-.7711.0652-1.1568z" fill="#5a7a94"/><path d="m42.446 53.2014c.8681.1906.8681.1906 1.7535.3851 2.1653.4655 4.3432.7977 6.5358 1.1027v3.1882c-2.8364.132-5.1891-.0925-7.8642-1.0628-.0701.491-.1402.982-.2125 1.4879-.0701 0-.1403 0-.2126 0 0-1.6834 0-3.3668 0-5.1011z" fill="#462932"/><path d="m54.327 29.843c.4834.2982.8944.6385 1.297 1.0411.0797.4914.0797.4914 0 1.0627-.8379.9496-1.9703 1.2948-3.1882 1.4878-1.6226.0857-3.1758.1598-4.4634-.9698-.3852-.4126-.3852-.4126-.6377-.7306.0723-.5838.1688-.8104.6102-1.2121 1.8753-1.1303 4.2945-1.4727 6.3821-.6791z" fill="#ad6860"/><path d="m31.6064 44.0619c.4997.4997.7578.7955 1.0828 1.3841 1.098 1.9184 2.0872 3.2026 4.0183 4.3546.2747.1752.5484.3514.822.528 1.2922.8276 2.5354 1.5841 3.9472 2.1952.5545.2848.5545.2848.9696.6776.2557.9343.274 1.8002.2125 2.7631-1.0842-.3335-1.8404-1.0005-2.6968-1.7136-.1504-.1241-.3011-.248-.4565-.376-1.0126-.8378-2.0028-1.6969-2.9705-2.5864-.5967-.5454-1.2105-1.0696-1.8267-1.5924-.3388-.3206-.3388-.3206-.7638-.9582-.4485-.2147-.4485-.2147-.9565-.3588-.1688-.0533-.3375-.1067-.5114-.1617-.437-.1352-.437-.1352-.8702-.1171 0-1.3327 0-2.6654 0-4.0384z" fill="#685566"/><path d="m57.1117 53.4139c-.1109 1.2749-.359 2.5253-1.0627 3.6133-.6.3979-1.212.5046-1.9129.6377-.3548.0871-.3548.0871-.7165.1759-1.8821.4617-1.8821.4617-2.6843.4617-.0701.2104-.1403.4208-.2125.6376 0-.2805 0-.5611 0-.8501-.6313 0-1.2625 0-1.9129 0 0-.0702 0-.1403 0-.2126h2.1254c0-1.1222 0-2.2445 0-3.4007.7628-.0855.7628-.0855 1.541-.1726 1.3411-.159 2.6262-.4066 3.9304-.7656.4799-.1246.4799-.1246.905-.1246z" fill="#2b0d12"/><path d="m81.9797 50.0132c.8256.7386 1.1752 1.2833 1.4879 2.338-.1618.0933-.3237.1864-.4904.2825-.6042.3481-1.2083.6963-1.8124 1.0446-.2607.1503-.5213.3006-.7821.4508-.3764.2168-.7524.4336-1.1286.6506-.226.1301-.4519.2604-.6849.3945-.4085.2377-.8138.4812-1.2147.7314-.4758.2714-.4759.2714-.9009.2714-.2105-.7715-.4209-1.5431-.6377-2.338 1.9578-1.4442 4.0497-2.6275 6.1638-3.8258z" fill="#a0c7ea"/><path d="m60.9633 38.3008c.3463.2349.3463.2349.8245.66 0 .5845 0 .5845-.2125 1.2752-.9276.7809-1.9829.965-3.1651.9059-.8146-.1012-1.4648-.2971-2.1354-.773-.2257-.3454-.2257-.3454-.2257-.7571.2999-.6185.7152-.9021 1.2752-1.2887 1.1097-.3698 2.5427-.4848 3.639-.0223z" fill="#f88970"/><path d="m41.596 34.9224c.6714.2596 1.3968.5467 1.9129 1.0628.0931.4782.0931.4782 0 1.0627-.64.64-1.2015 1.1913-2.1255 1.2753-.3551.0527-.3551.0527-.7173.1063-.8332-.115-.9596-.1937-1.5012-.7837-.359-.4804-.5414-.799-.704-1.3816.1594-.4916.1594-.4916.6908-.983.8542-.4119 1.5216-.5358 2.4443-.3588z" fill="#984d44"/><path d="m61.5751 46.1874h.2125c-.0701 1.6833-.1402 3.3667-.2125 5.1011-1.2625.5611-2.5251 1.1222-3.8258 1.7003.1789-.8948.3207-1.3398.7539-2.098.1643-.2884.1643-.2884.332-.5824.1152-.1983.2302-.3966.3488-.6008.1118-.1973.2235-.3947.3387-.5981.6086-1.0581 1.2207-2.026 2.0524-2.9221z" fill="#160f1b"/><path d="m54.5613 30.0339c1.1694.0478 1.8474.3209 2.7057 1.1307.2699.3571.2699.3571.3362 1.0079-.4765 1.0666-1.1794 1.5297-2.2183 1.9661-1.3197.2342-2.7569.4599-3.9835-.1635-.1497-.1082-.2993-.2164-.4534-.3279 0-.0702 0-.1403 0-.2126.1975-.0361.3951-.0723.5985-.1097 1.443-.2827 2.6483-.5381 3.865-1.3781.0712-.4957.0712-.4957 0-1.0627-.403-.4919-.403-.4919-.8502-.8502z" fill="#813230"/><path d="m69.0142 41.2988c.3156.5012.4304.7756.3874 1.3737-.2231.6878-.4497.81-1.0748 1.156-.1868.1055-.3737.2107-.5662.3191-.3002.1615-.3002.1615-.6062.3262-.2015.1116-.4032.2234-.6109.3384-1.4831.8134-2.9848 1.566-4.5434 2.2254-.0701-.2806-.1402-.5612-.2125-.8502.491-.2104.982-.4209 1.4878-.6377-.0701-.2104-.1403-.4208-.2125-.6376.1122-.0565.2246-.1133.3403-.1715 2.966-1.471 2.966-1.471 5.611-3.4418z" fill="#7d97b4"/><path d="m50.3104 29.6088c.2125 1.2752.4251 2.5505.6376 3.8258-1.2126.0195-1.9607-.1518-2.8825-.9696-.2475-.2398-.4925-.4821-.7308-.7308.034-.3819.034-.3819.2126-.8502.5173-.3619.5173-.3619 1.1558-.6907.21-.1108.4202-.2215.6368-.3354.5454-.2491.5454-.2491.9705-.2491z" fill="#9e554c"/><path d="m47.5471 39.1733c.5845.3588.5845.3588.8502.8502-.0532.5845-.0532.5845-.2126 1.0627-1.6536.6377-1.6536.6377-2.5106.6377-.6338-.2897-.9239-.7099-1.3152-1.2753.5722-1.5943 1.6238-1.4415 3.1882-1.2753z" fill="#793435"/><path d="m31.6064 44.0619c.4963.4963.7839.8317 1.1276 1.4138.0891.1478.1781.2953.2697.4472.1837.3078.3662.616.548.9248.5407.8923 1.0465 1.4583 1.8806 2.1027.0663.6908.0663.6908 0 1.2753-.6181-.4716-1.0528-.8353-1.4878-1.4878-.4485-.2147-.4485-.2147-.9565-.3588-.1688-.0533-.3375-.1067-.5114-.1617-.437-.1352-.437-.1352-.8702-.1171 0-1.3327 0-2.6654 0-4.0384z" fill="#6a3d46"/><path d="m62.013 33.5906c.1669.0013.3337.0023.5057.0034.2493-.0017.2493-.0017.5039-.0034.4657.0565.4657.0565 1.1033.4816-.0531.6111-.0531.6111-.2125 1.2753-.4946.403-.8527.4253-1.4878.4914-.7016-.0729-.9771-.2325-1.4879-.704.2266-1.4346.2266-1.4347 1.0753-1.5443z" fill="#f87d74"/><path d="m46.9095 39.1733c-.668 1.579-.668 1.579-1.0627 2.338-.5705-.0786-.8221-.1864-1.2487-.5845-.2391-.4782-.2391-.4782-.0929-1.0495.5518-.9722 1.3945-.7204 2.4043-.704z" fill="#9a5148"/><path d="m70.0771 63.6161c.4251.6376.4251.6376.3271 1.3507-.0642.2689-.1282.5378-.1943.8147-.0946.4055-.0946.4055-.1909.8194-.051.2074-.102.4149-.1545.6285-1.0096-.3986-1.0096-.3986-1.4878-.6377.335-1.1726.8336-2.1088 1.7004-2.9756z" fill="#240c0c"/><path d="m40.2941 34.8659c.149.0013.298.0023.4516.0034.149-.0011.298-.0021.4517-.0034.3985.0565.3985.0565.8236.4816v.6377c-.6376.4251-.6376.4251-1.3947.3985-.7307-.186-.7308-.186-1.0364-.6242-.0591-.2041-.0591-.2041-.1194-.412.4251-.4251.4251-.4251.8236-.4816z" fill="#efe7e2"/><path d="m31.1812 35.7726c.425.2126.425.2126.6525.8842.0765.2761.1511.5527.2242.8294.0387.1411.0774.282.1171.4272.0952.3488.1885.698.2814 1.0474-.1403 0-.2805 0-.4251 0-.0701.2105-.1402.4209-.2125.6377-.2104.2104-.4209.4208-.6376.6376 0-1.4729 0-2.9459 0-4.4635z" fill="#928ca1"/><path d="m66.4637 81.47c.0701.2104.1403.4208.2125.6376-4.5672 2.3948-4.5672 2.3948-6.8014 2.5506.7398-.4934 1.516-.7909 2.338-1.1159 1.4772-.5941 2.8772-1.2623 4.2509-2.0723z" fill="#3a7990"/><path d="m68.8017 78.7068c.1403.0702.2806.1403.4251.2126.1329.6508.1329.6508 0 1.4878-.6718.6304-1.5905 1.4878-2.5505 1.4878.2193-.5118.4202-.8455.8236-1.2353.5798-.597.9078-1.2208 1.3018-1.9529z" fill="#4f84a2"/><path d="m71.1399 60.6405h.2125c.0058.4561.0098.9122.0132 1.3684.0026.2538.0051.5077.0077.7696-.0209.6251-.0209.6251-.2334.8376-.043.4866-.0678.9727-.0906 1.4604-.122.4526-.122.4526-.5562.7257-.1373.0501-.2746.1003-.416.152.3601-1.9378.3601-1.9378.6509-2.7763.2667-.836.3383-1.6662.4119-2.5374z" fill="#e2e5ea"/><path d="m70.2895 60.6405c.2634.7471.1618 1.1628-.1162 1.8946-.0746.1969-.149.3935-.2258.5962-.0801.2039-.16.4077-.2425.6177-.0767.2055-.1534.411-.2325.6227-.589 1.5278-.589 1.5278-1.3084 2.0075.1485-1.0263.5413-1.9218.9432-2.8693.1325-.3167.2651-.6332.3977-.9499.0621-.1477.1244-.2952.1883-.4474.2043-.4886.4017-.9796.5962-1.4721z" fill="#320000"/><path d="m41.8086 42.149h2.5505v.4251c-.3507 0-.7014 0-1.0627 0 .2806.2805.5611.5611.8502.8502-1.3558-.1044-1.3558-.1044-2.006-.6377-.332-.4251-.332-.4251-.332-.6376z" fill="#430c0b"/><path d="m33.0942 48.1003c1.7501.1684 1.7501.1684 2.338.8502.0532.6776.0532.6776 0 1.2753-.618-.4716-1.0527-.8353-1.4878-1.4878-.4357-.2534-.4357-.2534-.8502-.4251 0-.0702 0-.1403 0-.2126z" fill="#5e3941"/><path d="m61.7877 37.473c-.1403.3507-.2806.7014-.4251 1.0627-.2629-.0986-.2629-.0986-.5314-.1994-.827-.251-1.586-.3494-2.4442-.4382 0-.0702 0-.1403 0-.2126 1.1492-.1641 2.24-.2334 3.4007-.2125z" fill="#430502"/><path d="m53.0733 36.1977c.4516.0797.4516.0797.8502.2125.1194.412.1194.412.2125.8502-.2125.2126-.2125.2126-.7571.2257-.2565-.0063-.2565-.0063-.5182-.0131-.1328-.3986-.1328-.3986-.2125-.8502z" fill="#f29585"/><path d="m66.4635 81.47c.0702.2104.1403.4208.2126.6376-.3348.1847-.6719.3656-1.0096.5446-.1875.1011-.3747.2023-.5679.3064-.548.2117-.548.2117-1.3982-.0008.9119-.491 1.8237-.982 2.7631-1.4878z" fill="#276c85"/><path d="m61.5752 69.5674h.2125c.0357.8016.071 1.6031.1063 2.4044.0153.3417.0153.3417.0308.6905.0096.2185.0192.437.0289.6621.009.2015.0179.403.027.6104.0145.386.0196.7724.0196 1.1588-.1403-.0701-.2806-.1402-.4251-.2125 0-1.7535 0-3.507 0-5.3137z" fill="#c3e7ee"/><path d="m63.2754 45.5497c.1403.0701.2806.1403.4251.2125-1.0931 1.1841-1.0931 1.1841-1.9129 1.2753 0-.2806 0-.5611 0-.8502.4897-.2268.9862-.4387 1.4878-.6376z" fill="#617a9b"/><path d="m50.3103 31.9468c.1403.0701.2806.1403.4251.2125.1329.6508.1329.6508.2126 1.2753-.3146-.0242-.629-.0512-.9433-.0797-.1749-.0149-.3501-.0295-.5305-.0449-.145-.0291-.2897-.058-.4391-.0879-.0702-.1403-.1403-.2806-.2126-.4251.5261.1052.5261.1052 1.0627.2125.1403-.3507.2806-.7014.4251-1.0627z" fill="#873834"/><path d="m68.5892 80.4072c-.3084.813-.7188 1.1034-1.4878 1.4878-.1403 0-.2806 0-.4251 0 .3894-.9411.8578-1.4878 1.9129-1.4878z" fill="#4685a9"/><path d="m71.1397 60.6405h.2125v2.7631c-.2104.0701-.4208.1403-.6376.2125.1403-.9819.2806-1.9639.4251-2.9756z" fill="#b3d5d9"/><path d="m68.8018 35.3475c.2104.2104.4208.4208.6376.6376-.2318.8024-.4055 1.3752-1.0627 1.9129.0306-.1447.0614-.2893.0931-.4382.1341-.7017.2349-1.4048.332-2.1123z" fill="#6b2e25"/><path d="m35.0071 79.5571c.8502.983.8502.983.8502 1.7003-.2105.0702-.4209.1403-.6377.2126-.0701-.6313-.1403-1.2625-.2125-1.9129z" fill="#aec0d7"/><path d="m63.7009 45.3372c-.2657.3322-.2657.3322-.6377.6376-.4516-.0397-.4516-.0397-.8502-.2125-.0701-.1403-.1402-.2806-.2125-.4251.6993-.2332 1.0017-.1701 1.7004 0z" fill="#232a38"/><path d="m75.8156 76.5814c.2104.2806.4209.5611.6377.8502-.2806.2806-.5612.5611-.8502.8502-.1403-.0702-.2806-.1403-.4251-.2126.2104-.4909.4208-.9819.6376-1.4878z" fill="#76a0b6"/><path d="m64.3385 44.2744c.1403.0702.2806.1403.4251.2126-.1358.0569-.2718.1139-.4119.1725-.5086.2285-.5086.2285-.6508.8902-.2105-.2104-.4209-.4209-.6377-.6376.4177-.227.8436-.4392 1.2753-.6377z" fill="#7087a4"/><path d="m40.3206 41.9365c1.4081.1594 1.4081.1594 2.1254.6376-.3454.1462-.3454.1462-.8502.2125-.6907-.3056-.6907-.3056-1.2752-.6376 0-.0701 0-.1403 0-.2125z" fill="#562324"/><path d="m54.5613 30.0339c.6312.1052.6312.1052 1.2753.2125v1.4878c-.0789-.184-.0789-.184-.1595-.3719-.3011-.542-.6644-.9072-1.1158-1.3284z" fill="#86403c"/></g></g></svg>