<svg width="128" height="128" viewBox="0 0 128 128" fill="none" xmlns="http://www.w3.org/2000/svg">
<path d="M40.8801 87.77C40.8801 87.77 40.4701 116.13 41.2901 117.27C42.1201 118.41 49.5701 123.69 63.8601 123.89C78.1501 124.09 86.2201 118.09 86.4301 116.75C86.6401 115.4 87.1501 85.8 87.1501 85.8C87.1501 85.8 94.8101 81.76 100.19 72.65C105.57 63.54 109.3 51.12 109.09 40.97C108.9 31.86 105.47 30.41 103.71 29.17C101.95 27.93 100.19 28.13 100.19 28.13C100.19 28.13 99.1901 15.06 93.6701 9.70004C86.6401 2.89004 75.8701 3.30004 63.9701 3.30004C51.8601 3.30004 39.7801 2.54004 31.3601 14.27C24.0101 24.52 25.7701 40.56 26.1801 48.53C26.5901 56.5 29.5601 69.46 31.7701 74.51C36.1201 84.46 40.8801 87.77 40.8801 87.77Z" fill="#DC0D28"/>
<path d="M47.7301 107.38C47.6201 112.12 49.4001 115.4 64.0901 115.35C78.7801 115.3 79.8101 112.6 79.9701 107.76C80.1001 103.98 78.4601 101.57 72.6501 101.78C68.5101 101.93 59.0701 101.82 53.8601 101.67C51.0101 101.59 47.8301 102.54 47.7301 107.38Z" fill="#FFC402"/>
<path d="M40.8803 87.7701C40.8803 87.7701 50.4303 90.9101 63.7503 91.0501C77.3603 91.1901 87.1503 85.8101 87.1503 85.8101L86.9603 93.3001C86.9603 93.3001 78.2603 97.5101 63.8903 97.5101C49.5203 97.5101 40.8203 94.0701 40.8203 94.0701L40.8803 87.7701Z" fill="#950D19"/>
<path d="M79.3197 26.1699C81.3497 28.6599 84.7197 26.5899 86.8897 26.0299C89.0597 25.4699 93.0597 25.5399 93.1997 25.8899C93.3397 26.2399 88.0797 27.2899 85.2797 33.1799C83.1097 37.7299 83.7097 43.3199 83.9197 45.2099C84.2197 47.9399 85.6997 51.8999 89.2797 51.8999C93.6297 51.8999 94.0497 48.0399 94.1897 46.0799C94.3297 44.1199 93.0397 35.1199 95.5097 31.2499C97.6597 27.8699 100.2 28.1299 100.2 28.1299C100.2 28.1299 100.01 26.2299 99.7997 24.9699C99.5897 23.7099 99.3197 22.3599 99.3197 22.3599C99.3197 22.3599 95.4597 20.3399 92.5797 19.1499C89.6997 17.9599 84.3697 17.4799 80.9997 20.0699C78.2797 22.1699 78.6897 25.3999 79.3197 26.1699Z" fill="#950D19"/>
</svg>
