<svg width="128" height="128" viewBox="0 0 128 128" fill="none" xmlns="http://www.w3.org/2000/svg">
<path d="M52.6801 96.8902C52.6801 96.8902 53.9301 105.69 52.5901 106.56C51.2801 107.4 47.0501 106.82 44.8001 107.22C43.2001 107.5 42.0801 109.28 42.1701 111.16C42.2601 113.04 44.2301 114.54 46.3001 114.54C48.3701 114.54 52.5901 114.46 54.3701 114.26C56.9001 113.98 58.5201 112.39 58.9701 111.26C59.9101 108.91 59.2501 96.2402 59.2501 96.2402L52.6801 96.8902Z" fill="#FC9301"/>
<path d="M69.1995 97.5498L75.8595 96.7998C75.8595 96.7998 76.0495 106.09 76.1395 108.06C76.2295 110.03 76.6995 115.76 76.0495 117.26C75.3195 118.93 71.6395 122.05 67.4195 122.61C63.1995 123.17 58.4995 123.45 58.3195 119.7C58.1395 115.95 61.0395 116.04 62.1695 115.76C63.2995 115.48 67.8995 114.63 69.0195 113.51C70.1395 112.37 69.1995 97.5498 69.1995 97.5498Z" fill="#FC9301"/>
<path d="M17.25 43.0202C17.25 43.0202 18.26 34.3402 19.08 31.2902C20.68 25.3302 27.34 13.2702 46.67 12.4702C72.27 11.4102 78.06 34.7102 78.06 34.7102C78.06 34.7102 89.46 37.9502 100.87 41.7502C112.28 45.5502 122.55 50.7602 123.11 52.4502C123.67 54.1402 119.85 78.3602 98.76 91.3102C78.35 103.84 36.68 103.56 25.13 79.6302C19.58 68.1202 20.46 61.0602 19.36 53.7302C18.03 44.8502 17.25 43.0202 17.25 43.0202Z" fill="#FFB903"/>
<path d="M4.62981 42.7401C4.84981 45.8301 18.7098 49.6901 18.7098 49.6901C18.7098 49.6901 21.0598 48.5601 21.0598 42.7401C21.0598 36.9201 18.7098 35.3301 18.7098 35.3301C18.7098 35.3301 4.43981 40.1101 4.62981 42.7401Z" fill="#FA9100"/>
<path d="M39.9253 40.1299C40.8682 37.3413 39.5543 34.3781 36.9907 33.5113C34.4272 32.6445 31.5846 34.2024 30.6418 36.9909C29.6989 39.7795 31.0128 42.7427 33.5763 43.6095C36.1399 44.4763 38.9824 42.9184 39.9253 40.1299Z" fill="#2F302B"/>
<path d="M51.9296 73.14C49.1996 75.87 55.7796 80.93 64.0396 84.4C72.2996 87.87 81.9696 86.75 89.3796 83.37C96.4496 80.15 103.08 69.57 101.96 64.6C100.84 59.63 96.5196 58.22 90.5996 56.81C84.6896 55.4 75.7696 53.24 73.7997 52.96C71.8297 52.68 70.4197 52.87 70.0497 54.65C69.7796 55.95 71.0797 57.18 74.3696 58.12C77.6497 59.06 94.3596 63.09 94.3596 66.38C94.3596 69.66 90.9797 75.77 83.9397 78.77C77.1097 81.68 70.4296 82.05 63.6696 78.86C59.4996 76.89 56.0696 74.07 55.2196 73.51C54.3696 72.96 53.2496 71.83 51.9296 73.14Z" fill="#FC9301"/>
</svg>
