<svg width="128" height="128" viewBox="0 0 128 128" fill="none" xmlns="http://www.w3.org/2000/svg">
<path d="M15.9905 35.76L11.7305 36.74C11.7305 36.74 5.82048 45.86 4.53048 55.56C3.72048 61.65 3.69048 69.6 4.25048 73.56C4.82048 77.52 6.86048 85.95 10.0705 91.89C13.1605 97.61 16.1705 99.86 19.4605 101.85C20.8705 102.7 22.1305 105.61 24.3305 107.02C26.3905 108.34 29.1105 108.6 29.1105 108.6C29.1105 108.6 36.6305 120.41 52.9005 122.46C71.9905 124.86 81.3305 116.24 81.3305 116.24C81.3305 116.24 88.9705 116.22 96.1805 113.13C104.27 109.66 108.59 102.44 108.59 102.44C108.59 102.44 118.72 93.72 121.93 83.28C124.51 74.9 124.58 58.97 122.6 51.47C120.62 43.97 116.79 37.62 113.75 33.55C111.33 30.31 84.3105 15.95 81.0505 14.67C77.8005 13.4 47.5305 11.42 46.4005 12.27C45.2705 13.13 15.9905 35.76 15.9905 35.76Z" fill="#AC5811"/>
<path d="M26.53 19.7502C19.48 25.4902 15.83 28.4902 12.17 35.6702C8.51004 42.8502 9.69004 52.3802 10.35 55.9002C11 59.4202 12.18 66.2102 12.83 69.6002C13.48 73.0002 15.21 81.0602 20 86.0502C26.71 93.0402 32.79 95.4502 32.79 95.4502C32.79 95.4502 37.72 103.09 49.63 107.46C65.29 113.2 72.34 104.85 78.34 102.63C84.34 100.41 91.52 100.28 97.66 95.9702C103.79 91.6602 110.58 86.4402 115.02 75.4802C119.46 64.5202 118.54 59.6902 118.67 56.9502C118.8 54.2102 118.41 41.0302 113.32 32.9402C108.23 24.8502 102.11 19.9902 99.75 18.4502C94.53 15.0602 75.89 6.95022 71.2 6.04022C66.5 5.13022 49.74 6.55022 43.09 9.29022C36.44 12.0302 26.53 19.7502 26.53 19.7502Z" fill="url(#paint0_radial_2_152935)"/>
<path d="M56.2801 71.4602C55.1701 71.1102 54.0001 69.4602 53.7201 65.9302C53.3301 60.9002 57.0401 59.5102 57.0401 59.5102C57.0401 59.5102 61.4601 58.3402 64.5701 57.2302C67.4601 56.2002 69.5401 54.8802 69.5401 54.8802C69.5401 54.8802 69.8201 49.4902 71.6101 47.9002C73.4101 46.3102 76.5801 46.4502 80.1101 46.8602C83.6301 47.2702 89.3001 49.6202 88.4701 51.7602C87.6401 53.9002 86.6701 56.0402 83.2901 57.9802C79.9101 59.9102 77.4901 61.7102 75.7601 63.2302C74.0301 64.7602 70.8601 66.6802 65.6101 68.6202C60.3601 70.5602 57.8801 71.9602 56.2801 71.4602Z" fill="#FFC86E"/>
<path d="M26.5497 26.47C23.2297 25.79 18.5397 32.98 17.6697 35.36C16.7897 37.74 15.8897 43.5399 15.7897 46.1899C15.6597 49.4799 15.5997 52.57 16.9797 55.08C18.0397 57.02 20.6097 58.11 22.9197 56.11C25.2297 54.11 29.2397 48.63 30.2997 47.86C31.3597 47.09 34.4597 46.07 33.2397 41.03C32.7397 38.9699 27.6697 34.71 27.4197 34.13C27.1797 33.56 28.4297 26.86 26.5497 26.47Z" fill="#FFC86E"/>
<path d="M50.02 17.4401C50.15 19.3701 51.73 22.4601 53.44 24.1301C56 26.6201 67.74 35.0401 70.78 34.5601C73.82 34.0801 77.13 28.6201 78.1 27.1001C79.07 25.5801 81 23.4401 81.76 22.4701C82.52 21.5001 84.52 19.2901 82.87 17.0801C81.21 14.8701 77.07 13.4201 74.31 13.2101C71.55 13.0001 67.26 11.2101 63.6 11.3501C59.94 11.4901 49.68 12.4601 50.02 17.4401Z" fill="#FFC86E"/>
<path d="M98.34 43.1898C98.57 45.2898 101.52 45.7498 103.87 47.2698C106.22 48.7898 107.81 50.3798 109.19 49.9598C110.57 49.5498 112.45 47.3398 112.02 43.4698C111.47 38.4998 108.36 32.1398 104.01 32.3498C101.38 32.4798 101.74 37.0498 101.74 37.0498C101.74 37.0498 98.2 41.9498 98.34 43.1898Z" fill="#FFC86E"/>
<path d="M41.4703 30.2298C41.4703 30.2298 32.0403 30.1698 32.2103 31.1098C32.3903 32.0498 33.2103 35.1498 35.6703 35.2698C38.1303 35.3898 41.3003 35.6198 42.8203 35.1498C44.3403 34.6798 48.5603 31.2798 48.5603 29.7598C48.5603 28.2398 46.8603 26.0098 46.8603 26.0098L41.4703 30.2298Z" fill="#CF701E"/>
<path d="M54.9402 47.5199C54.9402 47.5199 54.8302 47.5899 54.6702 47.7199C54.2002 48.1099 53.3002 49.0199 53.6502 50.0399C54.1202 51.3899 56.8702 53.9099 59.5702 53.9099C62.2702 53.9099 63.7302 51.3899 64.2002 49.7499C64.6702 48.1099 64.4302 47.1099 64.4302 47.1099L54.9402 47.5199Z" fill="#CF701E"/>
<path d="M33.9097 55.2001C33.9097 55.2001 32.2697 55.7901 32.3297 56.8401C32.3897 57.8901 32.7997 59.8301 34.9097 61.8801C37.0397 63.9501 40.1297 64.5201 42.9397 63.7601C45.7497 63.0001 47.7997 60.8901 47.5697 58.0801C47.3397 55.2701 44.6397 53.1001 44.6397 53.1001L33.9097 55.2001Z" fill="#CF701E"/>
<path d="M21.7804 70.7298C21.7804 70.7298 20.0204 71.1398 20.2004 72.3098C20.3804 73.4798 22.3704 77.1698 25.5304 76.7598C28.6904 76.3498 33.6804 72.7198 33.6804 71.3098C33.6804 69.8998 31.1604 68.0298 31.1604 68.0298L21.7804 70.7298Z" fill="#CF701E"/>
<path d="M43.3403 85.3799C43.3403 85.3799 42.6903 89.1599 47.7903 90.5399C56.2903 92.8299 57.1703 87.6699 57.1703 87.6699L43.3403 85.3799Z" fill="#CF701E"/>
<path d="M76.7301 87.1299C76.7301 87.1299 74.4501 89.4099 77.0401 91.1999C79.6301 92.9899 82.5801 93.5999 85.3601 93.2899C88.1401 92.9799 90.0401 90.7599 90.0401 90.7599L76.7301 87.1299Z" fill="#CF701E"/>
<path d="M98.0099 61.8101C98.0099 61.8101 93.7099 63.9801 97.0399 67.7301C99.5699 70.5901 105.36 70.0101 107.73 68.4001C109.28 67.3501 109.74 65.4901 109.16 64.5501C108.57 63.6101 98.0099 61.8101 98.0099 61.8101Z" fill="#CF701E"/>
<path d="M81.3701 36.9702C81.3701 36.9702 81.1401 41.8802 87.7601 41.7202C97.0201 41.4902 95.8501 35.7402 95.8501 35.7402L81.3701 36.9702Z" fill="#CF701E"/>
<path d="M85.6498 30.8201C85.6498 30.8201 81.3097 33.5201 80.8397 34.6301C80.3697 35.7401 79.3698 39.2601 84.4098 39.0301C89.4498 38.8001 94.4898 38.6201 96.1898 36.5701C97.8898 34.5201 97.4798 32.6401 96.7798 31.1201C96.0798 29.6001 92.1398 23.8501 89.0098 23.9201C86.9598 23.9601 85.6498 30.8201 85.6498 30.8201Z" fill="#593329"/>
<path d="M88.9896 23.9C88.9896 23.9 86.2396 23.55 83.8296 27.83C81.4296 32.11 80.8096 34.66 80.8096 34.66C80.8096 34.66 85.6996 34.68 88.6296 34.33C91.5596 33.98 93.5496 32.16 93.5496 32.16C93.5496 32.16 91.1596 24.43 88.9896 23.9Z" fill="#925849"/>
<path d="M55.7099 43.8899C55.7099 43.8899 53.3099 43.7299 53.1299 44.6599C52.9499 45.5999 53.4799 47.9899 54.2999 49.0399C55.1199 50.0899 57.5799 52.4399 60.0399 51.9699C62.4999 51.4999 63.9599 49.0899 64.3699 48.2599C64.7399 47.4799 65.1399 46.6399 64.4399 45.5899C63.7299 44.5299 55.7099 43.8899 55.7099 43.8899Z" fill="#593329"/>
<path d="M59.28 40.1398C57.24 39.9198 52.32 43.8298 53.2 45.1698C54.18 46.6398 54.35 45.7098 57.05 47.0598C59.28 48.1698 60.25 49.1998 61.65 49.0198C63.05 48.8398 64.72 46.5298 64.43 45.5898C64.14 44.6498 62.04 40.4298 59.28 40.1398Z" fill="#925849"/>
<path d="M36.1896 24.3099L31.3896 27.6299C31.3896 27.6299 31.2096 29.8799 32.2096 31.1099C33.2096 32.3399 33.4996 33.0999 38.1896 33.0999C42.8796 33.0999 47.2696 32.4599 48.0896 29.1199C48.9096 25.7799 47.4696 23.6399 46.5896 22.4099C45.7096 21.1799 36.1896 24.3099 36.1896 24.3099Z" fill="#593329"/>
<path d="M36.2495 19.1001C35.1695 19.5601 32.6195 23.0301 32.0295 24.5501C31.4395 26.0701 31.3095 27.6901 31.3895 27.7101C32.3595 27.9501 38.0695 28.4801 40.5895 28.0701C43.1095 27.6601 45.1595 26.5501 45.9795 25.0801C46.6295 23.9101 46.5795 22.3601 46.5795 22.3601C46.5795 22.3601 44.8695 19.2801 42.5195 18.3401C40.1795 17.4001 36.6595 18.9201 36.2495 19.1001Z" fill="#925949"/>
<path d="M32.2302 55.4201C32.2302 55.4201 31.8302 56.0301 32.5902 57.2001C33.3502 58.3701 34.8402 59.7701 37.0702 60.4201C39.3002 61.0601 40.8802 61.9401 42.3402 61.7701C43.8102 61.5901 46.6802 60.4201 46.7902 56.3801C46.9102 52.3401 46.0902 50.4601 44.3302 48.7001C42.5702 46.9401 41.3002 47.2401 41.3002 47.2401L32.2302 55.4201Z" fill="#593329"/>
<path d="M32.7397 51.6801C32.1197 52.7201 31.6597 56.1001 32.4197 56.8601C33.1797 57.6201 37.7497 57.6701 38.9497 57.5401C40.1597 57.4101 44.1097 55.5501 44.1697 54.1401C44.2297 52.7301 43.4697 50.8601 43.4697 50.1601C43.4697 49.4601 44.3497 47.8201 41.9497 47.2301C39.5497 46.6401 34.0197 49.5101 32.7397 51.6801Z" fill="#925849"/>
<path d="M24.8204 66.86C24.8204 66.86 21.0504 67.79 20.8104 69.08C20.5804 70.37 21.1204 71.67 22.4104 72.9C23.7004 74.13 24.6404 75.42 25.6304 75.3C26.6304 75.18 29.2604 72.84 30.0804 72.08C30.9004 71.32 32.0704 69.97 31.9604 68.86C31.8504 67.75 31.3704 66.63 30.3204 65.75C29.2804 64.87 24.8204 66.86 24.8204 66.86Z" fill="#593329"/>
<path d="M25.7604 63.5202C24.0004 63.5602 22.6504 65.6902 22.0704 66.4502C21.4804 67.2102 20.4904 69.0302 20.9004 69.3202C21.3104 69.6102 23.0104 69.7902 23.8304 70.3202C24.6504 70.8502 25.8804 71.6702 26.8204 70.9102C27.7604 70.1502 28.5804 68.0402 29.0504 67.3402C29.5204 66.6402 30.3404 65.7602 30.3404 65.7602C30.3404 65.7602 28.5704 63.4602 25.7604 63.5202Z" fill="#925849"/>
<path d="M47.2704 77.6401C46.9204 78.0501 41.9404 82.0901 41.9404 82.0901C41.9404 82.0901 42.1204 85.6101 43.2304 86.4301C44.3404 87.2501 47.8004 88.4201 50.0304 88.8901C52.2604 89.3601 56.2404 89.8901 57.2404 89.4801C58.2404 89.0701 59.2904 86.9001 59.3504 84.0901C59.4104 81.2801 58.4104 79.1801 57.3004 77.8901C56.1904 76.6001 55.3004 76.1201 55.3004 76.1201L47.2704 77.6401Z" fill="#593329"/>
<path d="M53.8896 82.91C54.5396 82.18 55.2996 76.11 55.2996 76.11C55.2996 76.11 50.7896 72.65 48.9096 72.42C47.0296 72.19 44.8096 72.36 44.1596 73.06C43.5196 73.76 40.9996 76.28 41.2296 77.92C41.4596 79.56 41.9296 82.08 41.9296 82.08C41.9296 82.08 52.5396 84.44 53.8896 82.91Z" fill="#925849"/>
<path d="M75.7498 85.7999C75.7498 85.7999 75.1798 89.5999 79.3598 90.3199C83.5398 91.0299 87.0098 91.9799 88.8198 91.5999C90.6298 91.2199 92.4298 88.7999 92.6198 87.0399C92.8098 85.2799 92.9098 82.7399 92.6198 82.0499C91.8598 80.2199 88.3398 75.2099 86.6298 74.6799C85.6698 74.3899 84.7598 74.5499 84.7598 74.5499L75.7498 85.7999Z" fill="#593329"/>
<path d="M78.4597 79.1402C76.5897 81.2102 75.6297 84.2002 75.7297 85.7802C75.8297 87.2702 82.9197 86.6202 83.7597 86.1102C84.5997 85.6002 86.4297 83.3202 86.4897 82.5602C86.5497 81.8002 85.9697 79.4202 85.8697 77.9502C85.7697 76.4802 85.7297 74.4802 84.9197 74.5302C84.1097 74.5802 81.1197 76.2002 78.4597 79.1402Z" fill="#925849"/>
<path d="M102.44 53.3398C102.44 53.3398 104.09 53.5798 106.12 54.7998C108.49 56.2198 110.97 59.8398 110.78 62.7898C110.59 65.7398 108.02 67.0698 104.89 67.1198C101.76 67.1698 98.7003 66.9998 98.1303 65.3798C97.5603 63.7598 102.44 53.3398 102.44 53.3398Z" fill="#593329"/>
<path d="M99.9399 54.3298C99.4499 55.0098 98.1799 57.0898 97.7499 59.7498C97.3199 62.4098 97.6099 65.4498 98.5599 65.9798C99.5099 66.4998 104.74 61.9898 105.02 61.5098C105.31 61.0298 103.35 53.7598 102.73 53.4298C102.11 53.0998 100.56 53.4798 99.9399 54.3298Z" fill="#925849"/>
<defs>
<radialGradient id="paint0_radial_2_152935" cx="0" cy="0" r="1" gradientUnits="userSpaceOnUse" gradientTransform="translate(64.1644 57.5966) scale(53.202 53.202)">
<stop offset="0.507" stop-color="#F29F58"/>
<stop offset="0.7151" stop-color="#F09D56"/>
<stop offset="0.8262" stop-color="#EB9550"/>
<stop offset="0.9141" stop-color="#E18745"/>
<stop offset="0.9898" stop-color="#D47436"/>
<stop offset="1" stop-color="#D27133"/>
</radialGradient>
</defs>
</svg>
