<svg width="122" height="115" viewBox="0 0 122 115" fill="none" xmlns="http://www.w3.org/2000/svg">
<path d="M91.4239 13.84C93.8639 12.66 95.5539 10.17 95.5539 7.28C95.5539 3.26 92.2939 0 88.2739 0C84.2539 0 80.9939 3.26 80.9939 7.28C80.9939 10.21 82.7239 12.72 85.2139 13.88C82.3339 29.48 77.9139 41.09 61.4639 43.57C61.4639 43.57 65.8939 65.72 86.6139 65.72C107.334 65.72 109.434 43.79 109.434 43.79C92.6239 44.65 91.2039 23.52 91.4239 13.84Z" fill="#F19534"/>
<path d="M31.6436 13.84C29.2036 12.66 27.5136 10.17 27.5136 7.28C27.5136 3.26 30.7736 0 34.7936 0C38.8136 0 42.0736 3.26 42.0736 7.28C42.0736 10.21 40.3436 12.72 37.8536 13.88C40.7336 29.48 45.1536 41.09 61.6036 43.57C61.6036 43.57 57.1736 65.72 36.4536 65.72C15.7336 65.72 13.6436 43.8 13.6436 43.8C30.4436 44.65 31.8636 23.52 31.6436 13.84Z" fill="#F19534"/>
<path d="M86.334 65.7199C86.424 65.7199 86.514 65.7299 86.604 65.7299C92.314 65.7299 96.604 64.0599 99.824 61.6499L86.334 65.7199Z" fill="#FFCA28"/>
<path d="M116.144 8.89022C112.814 8.44022 109.634 11.6102 109.054 15.9502C108.694 18.6602 109.424 21.1902 110.834 22.8202L108.434 32.7702C108.434 32.7702 104.764 56.2802 86.2239 60.9202C71.4039 64.6302 66.0339 37.5002 64.7339 29.1202C67.5539 27.7202 69.5039 24.8202 69.5039 21.4502C69.5039 16.7202 65.6739 12.8902 60.9439 12.8902C56.2139 12.8902 52.3839 16.7202 52.3839 21.4502C52.3839 24.8402 54.3639 27.7702 57.2339 29.1502C56.2039 37.4202 51.6639 63.6502 35.6639 60.9102C19.4239 58.1202 12.3339 30.7702 10.6939 23.3302C12.6439 21.7302 13.7339 18.9102 13.3339 15.8802C12.7539 11.5302 9.31386 8.41022 5.65386 8.90022C1.99386 9.39022 -0.496141 13.3102 0.0838586 17.6502C0.503859 20.8102 2.44386 23.3202 4.87386 24.2702L17.5939 103.3C17.5939 103.3 28.6939 112.07 60.9439 112.07C93.1939 112.07 104.294 103.3 104.294 103.3L117.044 24.0602C119.104 22.9802 120.724 20.5502 121.124 17.5702C121.714 13.2202 119.484 9.34022 116.144 8.89022Z" fill="#FFCA28"/>
<path d="M61.3435 91.9402C66.7228 91.9402 71.0835 86.7422 71.0835 80.3302C71.0835 73.9182 66.7228 68.7202 61.3435 68.7202C55.9643 68.7202 51.6035 73.9182 51.6035 80.3302C51.6035 86.7422 55.9643 91.9402 61.3435 91.9402Z" fill="#26A69A"/>
<path d="M61.3437 71.59C61.7237 72.01 62.0637 72.78 61.3437 74.28C60.6237 75.78 56.7437 77.81 56.0337 78.22C55.3237 78.64 54.8537 78.45 54.6337 78.28C53.5837 77.44 53.9837 75.54 54.6637 74.38C56.1237 71.87 59.2137 69.28 61.3437 71.59Z" fill="#69F0AE"/>
<path d="M60.6239 84.6602C59.5239 85.1902 55.9139 86.8002 57.1039 88.7102C57.8039 89.8402 59.2539 90.3202 60.5839 90.3802C61.9139 90.4402 63.2239 90.0202 64.4039 89.4102C70.0039 86.5102 70.4539 78.8902 69.3639 78.3102C68.2439 77.7102 67.4839 79.2602 66.9039 79.9202C65.1539 81.8902 62.9939 83.5102 60.6239 84.6602Z" fill="#00796B"/>
<path d="M114.994 70.83C116.554 62.2 110.754 60.04 110.754 60.04C110.754 60.04 107.014 59.36 105.254 69.07C103.494 78.77 107.234 79.45 107.234 79.45C107.234 79.45 113.424 79.46 114.994 70.83Z" fill="#26A69A"/>
<path d="M112.414 62.9898C113.774 64.8098 112.164 67.4998 109.554 69.2898C108.784 69.8198 107.764 69.6198 107.614 69.1798C107.194 67.9198 107.374 66.4898 107.934 65.2798C109.594 61.6498 111.724 62.0698 112.414 62.9898Z" fill="#69F0AE"/>
<path d="M6.66372 71.0898C5.09372 62.4698 10.9037 60.2998 10.9037 60.2998C10.9037 60.2998 14.6437 59.6198 16.4037 69.3298C18.1637 79.0298 14.4237 79.7098 14.4237 79.7098C14.4237 79.7098 8.22372 79.7198 6.66372 71.0898Z" fill="#26A69A"/>
<path d="M12.6838 63.2301C14.0238 64.2301 13.4738 65.5401 12.4638 66.4501C11.3138 67.5001 10.4338 68.6501 9.45379 69.8401C9.30379 70.0201 9.13378 70.2201 8.89378 70.2701C8.43378 70.3701 8.06379 69.9001 7.91379 69.4501C7.48379 68.1901 7.56379 66.7101 8.20379 65.5501C10.0238 62.2401 12.1638 62.8401 12.6838 63.2301Z" fill="#69F0AE"/>
<path d="M96.8938 79.1902C96.2038 83.1202 93.0538 85.8502 89.8438 85.2902C86.6338 84.7302 86.1938 81.3801 86.8838 77.4501C87.5738 73.5201 89.1238 70.5101 92.3238 71.0701C95.5338 71.6301 97.5838 75.2702 96.8938 79.1902Z" fill="#F44336"/>
<path d="M27.3334 79.1902C28.0234 83.1202 31.1734 85.8502 34.3834 85.2902C37.5934 84.7302 38.0334 81.3801 37.3434 77.4501C36.6534 73.5201 35.1034 70.5101 31.9034 71.0701C28.7034 71.6301 26.6534 75.2702 27.3334 79.1902Z" fill="#F44336"/>
<path d="M31.9838 76.5701C31.2538 77.3901 29.4738 79.0401 28.8438 77.7801C27.9838 76.0601 29.1738 73.4601 30.5338 72.6001C31.8938 71.7401 33.0038 72.4201 33.1938 73.1901C33.4238 74.1701 32.6338 75.8301 31.9838 76.5701Z" fill="#FFA8A4"/>
<path d="M88.884 79.0798C87.894 78.9298 87.784 75.5198 90.444 72.8398C91.714 71.5598 93.534 73.0798 93.074 75.1298C92.634 77.0798 90.694 79.3598 88.884 79.0798Z" fill="#FFA8A4"/>
<path d="M106.054 90.2402C100.064 93.2402 86.3241 101.23 60.9541 101.23C35.5841 101.23 21.8441 93.2402 15.8541 90.2402C15.8541 90.2402 13.7041 91.3902 13.7041 92.5902V101.8C13.7041 103.03 14.3541 104.16 15.4141 104.79C20.0941 107.55 34.3541 114.07 60.9641 114.07C87.5741 114.07 101.834 107.55 106.514 104.79C107.574 104.16 108.224 103.03 108.224 101.8V92.5902C108.204 91.3902 106.054 90.2402 106.054 90.2402Z" fill="#FFCA28"/>
<path d="M36.5035 102.87C39.3035 103.42 40.1535 103.66 39.9635 105.22C39.5735 108.29 33.2035 107.56 29.4335 106.57C21.6435 104.52 20.0635 102.36 20.0635 100.43C20.0635 98.6598 21.4235 98.4498 23.5235 99.1898C26.0335 100.08 29.9135 101.58 36.5035 102.87Z" fill="#FFF59D"/>
<path d="M106.054 92.2598C106.054 92.2598 89.4835 101.64 60.9535 101.64C32.4235 101.64 15.8535 92.2598 15.8535 92.2598" stroke="#F19534" stroke-width="4" stroke-miterlimit="10" stroke-linecap="round"/>
<path d="M23.8742 41.6002C29.1942 37.8002 32.0542 30.9902 32.3042 20.1502C32.3242 19.1702 32.6042 18.8802 33.1342 18.8202C33.9842 18.7302 34.1242 19.5002 34.1142 20.0502C33.8742 31.7502 32.3842 39.0602 26.4842 43.1802C26.1942 43.3802 24.1242 44.6402 23.2442 43.7702C22.1942 42.7502 23.5342 41.8402 23.8742 41.6002Z" fill="#FFCA28"/>
<path d="M28.7436 7.56984C28.5736 5.75984 28.9936 2.49984 33.7436 1.01984C35.1336 0.589839 35.9936 1.26984 36.1536 1.79984C36.5536 3.11984 35.3936 3.63984 34.8636 3.80984C31.2136 4.98984 31.0336 6.80984 30.2836 7.96984C29.5336 9.12984 28.8036 8.11984 28.7436 7.56984Z" fill="#FFCA28"/>
<path d="M75.1237 39.2002C79.9337 34.9302 83.1237 30.1602 85.2237 19.3002C85.4137 18.3402 85.6937 18.0802 86.2137 18.1002C87.0637 18.1202 87.1037 18.9102 87.0137 19.4502C85.2337 31.0302 83.5437 34.3302 77.6137 40.9002C76.9437 41.6402 75.3137 42.3102 74.3937 41.5402C73.5637 40.8502 74.5237 39.7402 75.1237 39.2002Z" fill="#FFCA28"/>
<path d="M82.2036 7.66017C82.0336 5.85017 82.4536 2.59017 87.2036 1.11017C88.5936 0.680172 89.4535 1.36017 89.6135 1.89017C90.0135 3.21017 88.8535 3.73017 88.3235 3.90017C84.6735 5.08017 84.4935 6.90017 83.7435 8.06017C83.0035 9.22017 82.2636 8.21017 82.2036 7.66017Z" fill="#FFCA28"/>
<path d="M28.4939 63.65C16.8739 58.38 13.4539 44.63 11.6339 38.66C11.3939 37.87 11.5139 37.12 12.3039 36.88C13.0939 36.64 13.5639 37.15 13.8139 37.94C15.1339 42.27 20.2639 56.73 30.8539 60.84C31.6239 61.14 32.8239 61.87 32.1739 63.12C31.7439 63.93 30.3639 64.5 28.4939 63.65Z" fill="#FFF59D"/>
<path d="M9.58345 16.6598C9.02345 15.4998 8.79345 14.3998 5.74345 13.1298C4.97345 12.8098 4.46345 12.0998 4.67345 11.2998C4.88345 10.4998 5.68345 9.8998 6.84345 10.0998C10.6135 10.7498 11.4335 14.5798 11.5935 15.9098C11.7435 17.1898 10.1535 17.8198 9.58345 16.6598Z" fill="#FFF59D"/>
<path d="M93.7735 63.65C105.393 58.38 108.813 44.63 110.633 38.66C110.873 37.87 110.753 37.12 109.963 36.88C109.173 36.64 108.703 37.15 108.453 37.94C107.133 42.27 102.003 56.73 91.4135 60.84C90.6435 61.14 89.4435 61.87 90.0935 63.12C90.5235 63.93 91.9035 64.5 93.7735 63.65Z" fill="#FFF59D"/>
<path d="M112.684 16.6598C113.244 15.4998 113.474 14.3998 116.524 13.1298C117.294 12.8098 117.804 12.0998 117.594 11.2998C117.384 10.4998 116.584 9.8998 115.424 10.0998C111.654 10.7498 110.834 14.5798 110.674 15.9098C110.524 17.1898 112.124 17.8198 112.684 16.6598Z" fill="#FFF59D"/>
<path d="M56.2838 21.5799C56.8938 20.3299 57.9638 18.6199 61.4538 17.8999C62.7938 17.6199 63.1838 17.0399 63.0638 16.1599C62.8238 14.3299 60.5438 14.4599 59.3138 14.7499C55.2138 15.7099 54.3038 19.3499 54.1338 20.7899C53.9638 22.1599 55.6838 22.8299 56.2838 21.5799Z" fill="#FFF59D"/>
</svg>
