<svg width="128" height="128" viewBox="0 0 128 128" fill="none" xmlns="http://www.w3.org/2000/svg">
<path d="M50.1 95.3999H50C31.9 95.3999 13.2 99.0999 4 107.6V109.9V112V123.9H99H100.5H102V120.5C102 103.7 75.7 95.3999 50.1 95.3999Z" fill="url(#paint0_linear_2_203627)"/>
<path d="M87.8002 40.3802C88.0902 43.3002 88.3702 46.4202 88.6302 49.6902C88.6602 50.1102 88.6902 50.5202 88.7302 50.9402C88.7702 51.4802 88.8102 52.0302 88.8502 52.5802C88.9002 53.3102 88.9602 54.0302 89.0002 54.7702C89.1802 57.4002 89.3302 60.1102 89.4602 62.8602C89.5402 64.6202 89.6002 66.3802 89.6702 68.1602C89.6702 68.2502 89.6802 68.3302 89.6702 68.4202C89.6902 69.3602 89.7202 70.3102 89.7402 71.2602C89.7402 71.5202 89.7502 71.7902 89.7602 72.0702C89.7902 73.7402 89.8002 75.4102 89.8102 77.0902C89.8102 78.7402 89.8002 80.3902 89.7802 82.0302C89.7702 82.6902 89.7602 83.3602 89.7402 84.0302C89.7402 84.6702 89.7102 85.2802 89.6902 85.9102C89.6702 86.4002 89.6502 86.9002 89.6402 87.3802C89.6202 87.8702 89.6002 88.3602 89.5702 88.8502C89.5302 89.6202 89.4602 91.0202 89.3802 92.6202C89.3002 93.8102 89.2102 94.9802 89.1202 96.1402C89.0702 96.7502 89.0102 97.3602 88.9602 97.9602C88.9102 98.4902 88.9302 99.8502 88.9102 100.68C88.9102 100.71 88.9202 100.74 88.9102 100.77C88.9102 100.87 88.8902 100.95 88.8902 101.02C88.8902 101.08 88.8902 101.13 88.8802 101.16L11.2402 99.9002C11.1702 99.2602 11.1002 98.6102 11.0402 97.9602C10.9802 97.3602 10.9302 96.7502 10.8802 96.1402C10.6902 93.7602 10.5302 91.3102 10.4302 88.8502C10.4002 88.3602 10.3802 87.8702 10.3702 87.3802C10.3502 86.8902 10.3402 86.3902 10.3202 85.9102C10.3002 85.2802 10.2802 84.6702 10.2702 84.0302C10.2502 83.3602 10.2402 82.7002 10.2302 82.0302C10.2102 80.3902 10.2002 78.7402 10.2002 77.0902C10.2102 75.4202 10.2202 73.7402 10.2502 72.0702C10.2602 71.7902 10.2602 71.5302 10.2702 71.2602C10.2902 70.3102 10.3202 69.3602 10.3402 68.4202C10.3402 68.3302 10.3502 68.2502 10.3502 68.1602C10.4102 66.3702 10.4702 64.6102 10.5602 62.8602C10.6902 60.1102 10.8402 57.4002 11.0202 54.7702C11.0602 54.0402 11.1202 53.3102 11.1702 52.5802C11.2202 52.0302 11.2502 51.4802 11.2902 50.9402C11.3202 50.5202 11.3502 50.1002 11.3902 49.6902C11.6502 46.4202 11.9302 43.3002 12.2202 40.3802C12.2302 40.2602 12.4002 38.3802 13.0902 35.5702L43.5402 7.60018C45.4702 7.35018 47.5502 7.21018 49.7602 7.18018L86.6902 33.9302C87.6202 37.6202 87.7902 40.2302 87.8002 40.3802Z" fill="#312D2D"/>
<path d="M87.8002 40.3802C88.0902 43.3002 88.3702 46.4202 88.6302 49.6902C88.6602 50.1102 88.6902 50.5202 88.7302 50.9402C88.7702 51.4802 88.8102 52.0302 88.8502 52.5802C88.9002 53.3102 88.9602 54.0302 89.0002 54.7702C89.1802 57.4002 89.3302 60.1102 89.4602 62.8602C89.5402 64.6202 89.6002 66.3802 89.6702 68.1602C89.6702 68.2502 89.6802 68.3302 89.6702 68.4202C89.6902 69.3602 89.7202 70.3102 89.7402 71.2602C89.7402 71.5202 89.7502 71.7902 89.7602 72.0702C89.7902 73.7402 89.8002 75.4102 89.8102 77.0902C89.8202 78.7302 89.8102 80.3902 89.7802 82.0302C89.7702 82.6902 89.7602 83.3602 89.7402 84.0302C89.7402 84.6702 89.7102 85.2802 89.6902 85.9102C89.6702 86.4002 89.6502 86.9002 89.6402 87.3802C89.6202 87.8702 89.6002 88.3602 89.5702 88.8502C89.5302 89.6202 89.4602 91.0202 89.3802 92.6202C89.2102 95.6302 89.0002 99.3302 88.9002 100.69C88.9002 100.72 88.9102 100.75 88.9002 100.78C88.9002 100.88 88.8802 100.96 88.8802 101.03C88.8802 101.09 88.8802 101.14 88.8702 101.17L11.2402 99.9002C11.1702 99.2602 11.1002 98.6102 11.0402 97.9602C10.9802 97.3602 10.9302 96.7502 10.8802 96.1402C10.6902 93.7602 10.5302 91.3102 10.4302 88.8502C10.4002 88.3602 10.3802 87.8702 10.3702 87.3802C10.3502 86.8902 10.3402 86.3902 10.3202 85.9102C10.3002 85.2802 10.2802 84.6702 10.2702 84.0302C10.2502 83.3602 10.2402 82.7002 10.2302 82.0302C10.2102 80.3902 10.2002 78.7402 10.2002 77.0902C10.2102 75.4202 10.2202 73.7402 10.2502 72.0702C10.2602 71.7902 10.2602 71.5302 10.2702 71.2602C10.2902 70.3102 10.3202 69.3602 10.3402 68.4202C10.3402 68.3302 10.3502 68.2502 10.3502 68.1602C10.4102 66.3702 10.4702 64.6102 10.5602 62.8602C10.6902 60.1102 10.8402 57.4002 11.0202 54.7702C11.0602 54.0402 11.1202 53.3102 11.1702 52.5802C11.2202 52.0302 11.2502 51.4802 11.2902 50.9402C11.3202 50.5202 11.3502 50.1002 11.3902 49.6902C11.6502 46.4202 11.9302 43.3002 12.2202 40.3802C12.2302 40.2602 12.4002 38.3802 13.0902 35.5702L43.5402 7.60018C45.4702 7.35018 47.5502 7.21018 49.7602 7.18018L86.6902 33.9302C87.6202 37.6202 87.7902 40.2302 87.8002 40.3802Z" fill="url(#paint1_radial_2_203627)"/>
<path d="M33.4804 96.3302C37.5403 97.1802 40.9403 118.43 45.7603 123.9H51.7104C60.1104 118.33 68.6103 96.3302 73.2403 94.3402C76.8303 92.8302 79.0004 90.9402 79.0004 88.9602C79.0004 83.9602 66.0603 79.9902 50.1003 79.9902C34.1403 79.9902 21.1104 84.0502 21.1104 88.9602C21.1104 92.0802 26.0204 94.7202 33.4804 96.3302Z" fill="#404042"/>
<path d="M49.0702 110.53C44.6002 110.53 40.9502 106.93 40.9502 102.51V92.46H59.0302V102.51C59.0302 106.94 55.3802 110.53 50.9102 110.53H49.0702Z" fill="#EDC391"/>
<path d="M50.0298 95.68C47.6698 95.68 44.9698 95.17 42.2598 94.21C30.6098 90.09 17.0098 77.42 17.0098 55.28C17.0098 25.76 34.7998 15.29 50.0298 15.29C65.2598 15.29 83.0498 25.76 83.0498 55.28C83.0498 77.46 69.4198 90.12 57.7598 94.23C55.0498 95.18 52.3698 95.68 50.0298 95.68Z" fill="#F9DDBD"/>
<path d="M34.1998 63.8001C36.906 63.8001 39.0998 61.5168 39.0998 58.7001C39.0998 55.8834 36.906 53.6001 34.1998 53.6001C31.4936 53.6001 29.2998 55.8834 29.2998 58.7001C29.2998 61.5168 31.4936 63.8001 34.1998 63.8001Z" fill="#312D2D"/>
<path d="M65.7998 66.2003C69.1135 66.2003 71.7998 63.4245 71.7998 60.0003C71.7998 56.5761 69.1135 53.8003 65.7998 53.8003C62.4861 53.8003 59.7998 56.5761 59.7998 60.0003C59.7998 63.4245 62.4861 66.2003 65.7998 66.2003Z" fill="#312D2D"/>
<path d="M53.8995 67.8998C53.7995 67.8998 53.6995 67.7998 53.5995 67.7998H46.4995C46.3995 67.7998 46.2995 67.7998 46.1995 67.8998C45.5995 68.1998 45.1995 68.7998 45.4995 69.4998C45.7995 70.1998 47.1995 72.1998 49.9995 72.1998C52.7995 72.1998 54.1995 70.1998 54.4995 69.4998C54.8995 68.7998 54.4995 68.1998 53.8995 67.8998Z" fill="#DBA689"/>
<path d="M58.4995 76.0002C55.2995 77.9002 44.8995 77.9002 41.6995 76.0002C39.8995 74.9002 37.9995 76.6002 38.7995 78.2002C39.5995 79.8002 45.2995 83.6002 50.1995 83.6002C55.0995 83.6002 60.6995 79.8002 61.4995 78.2002C62.1995 76.6002 60.3995 74.9002 58.4995 76.0002Z" fill="#444444"/>
<path d="M41.4296 50.8298C40.4996 49.5998 38.3596 47.8198 34.1996 47.8198C30.0396 47.8198 27.8896 49.6098 26.9696 50.8298C26.5596 51.3698 26.6596 51.9998 26.9496 52.3798C27.2096 52.7298 27.9896 53.0598 28.8496 52.7698C29.7096 52.4798 31.3896 51.6098 34.1996 51.5898C37.0096 51.6098 38.6896 52.4798 39.5496 52.7698C40.4096 53.0598 41.1896 52.7398 41.4496 52.3798C41.7396 51.9998 41.8396 51.3798 41.4296 50.8298Z" fill="#454140"/>
<path d="M75.4797 50.59C74.3697 49.12 71.7997 46.98 66.8097 46.98C61.8197 46.98 59.2497 49.12 58.1397 50.59C57.6497 51.24 57.7697 51.99 58.1097 52.45C58.4297 52.87 59.3597 53.26 60.3897 52.91C61.4197 52.56 63.4397 51.52 66.8097 51.49C70.1797 51.51 72.1997 52.56 73.2297 52.91C74.2597 53.26 75.1897 52.87 75.5097 52.45C75.8397 51.99 75.9697 51.24 75.4797 50.59Z" fill="#454140"/>
<path d="M87.7999 40.3799C88.5399 47.8099 89.2199 56.5599 89.5799 65.7399C89.5799 65.7899 89.5699 65.8599 89.5699 65.9099H81.8699C81.5999 61.8199 79.3799 45.2799 76.3299 43.1699C72.6799 40.6399 62.7499 34.1199 59.5299 27.6699C59.5299 27.6699 47.9499 38.4399 26.6899 43.1999C20.7999 44.5199 17.3799 62.7699 17.1799 65.8899L10.4199 65.8999C10.7599 56.6599 11.4499 47.8499 12.1899 40.3699C12.1999 40.2399 12.3799 38.2699 13.1099 35.3399L47.0099 7.26992C48.1199 7.19992 49.2799 7.16992 50.4799 7.16992C51.6799 7.16992 52.8499 7.19992 53.9599 7.26992L86.6399 33.8299C87.6199 37.5799 87.7899 40.2299 87.7999 40.3799Z" fill="#312D2D"/>
<path d="M87.7999 40.3799C88.5399 47.8099 89.2199 56.5599 89.5799 65.7399C89.5799 65.7899 89.5699 65.8599 89.5699 65.9099H81.8699C81.5999 61.8199 79.3799 45.2799 76.3299 43.1699C72.6799 40.6399 62.7499 34.1199 59.5299 27.6699C59.5299 27.6699 47.9499 38.4399 26.6899 43.1999C20.7999 44.5199 17.3799 62.7699 17.1799 65.8899L10.4199 65.8999C10.7599 56.6599 11.4499 47.8499 12.1899 40.3699C12.1999 40.2399 12.3799 38.2699 13.1099 35.3399L47.0099 7.26992C48.1199 7.19992 49.2799 7.16992 50.4799 7.16992C51.6799 7.16992 52.8499 7.19992 53.9599 7.26992L86.6399 33.8299C87.6199 37.5799 87.7899 40.2299 87.7999 40.3799Z" fill="url(#paint2_radial_2_203627)"/>
<path d="M58.4004 124L60.6004 105H39.4004L41.9004 124H58.4004Z" fill="#BDBDBD"/>
<path d="M116.9 124L114.8 112.4L104.9 109.9C101.6 109.1 98.3996 111.2 97.8996 114.6C97.8996 114.6 97.0996 117.5 95.5996 124H116.9Z" fill="#616161"/>
<path d="M106.5 122.4C111.305 122.4 115.2 118.818 115.2 114.4C115.2 109.982 111.305 106.4 106.5 106.4C101.695 106.4 97.7998 109.982 97.7998 114.4C97.7998 118.818 101.695 122.4 106.5 122.4Z" fill="#404042"/>
<path d="M24.5497 97.4599L24.2497 97.3099C23.6597 97.0199 11.9097 96.0599 5.43971 103.87C4.56971 104.91 4.47971 106.19 5.23971 107.25L8.33971 110.95C9.04971 111.8 10.0297 112.46 10.9497 112.46C11.3097 112.46 11.6697 112.36 11.9897 112.13C20.1597 106.34 24.8297 106.07 27.3097 106.87L29.5597 107.59L24.5497 97.4599Z" fill="#808080"/>
<path d="M11.2996 108.2C12.7908 108.2 13.9996 106.991 13.9996 105.5C13.9996 104.009 12.7908 102.8 11.2996 102.8C9.80844 102.8 8.59961 104.009 8.59961 105.5C8.59961 106.991 9.80844 108.2 11.2996 108.2Z" fill="#757575" stroke="#9E9E9E" stroke-miterlimit="10"/>
<path d="M12.1996 106.2C12.531 106.2 12.7996 105.931 12.7996 105.6C12.7996 105.268 12.531 105 12.1996 105C11.8682 105 11.5996 105.268 11.5996 105.6C11.5996 105.931 11.8682 106.2 12.1996 106.2Z" fill="#424242"/>
<path d="M10.3998 105.9C10.7312 105.9 10.9998 105.631 10.9998 105.3C10.9998 104.968 10.7312 104.7 10.3998 104.7C10.0684 104.7 9.7998 104.968 9.7998 105.3C9.7998 105.631 10.0684 105.9 10.3998 105.9Z" fill="#424242"/>
<path d="M92.6696 103.86C86.0996 96.06 74.4296 97.01 73.8496 97.31L73.5496 97.46L68.5596 107.58L70.8096 106.86C73.2896 106.06 77.9596 106.33 86.0596 112.08C86.3796 112.35 86.7396 112.46 87.1096 112.46C88.1096 112.46 89.1796 111.65 89.7596 110.96L92.9096 107.2C93.6296 106.18 93.5396 104.9 92.6696 103.86Z" fill="#808080"/>
<path d="M86.7 108.2C88.1912 108.2 89.4 106.991 89.4 105.5C89.4 104.009 88.1912 102.8 86.7 102.8C85.2088 102.8 84 104.009 84 105.5C84 106.991 85.2088 108.2 86.7 108.2Z" fill="#757575" stroke="#9E9E9E" stroke-miterlimit="10"/>
<path d="M85.7992 106.2C86.1306 106.2 86.3992 105.931 86.3992 105.6C86.3992 105.269 86.1306 105 85.7992 105C85.4679 105 85.1992 105.269 85.1992 105.6C85.1992 105.931 85.4679 106.2 85.7992 106.2Z" fill="#424242"/>
<path d="M87.6996 105.9C88.031 105.9 88.2996 105.632 88.2996 105.3C88.2996 104.969 88.031 104.7 87.6996 104.7C87.3682 104.7 87.0996 104.969 87.0996 105.3C87.0996 105.632 87.3682 105.9 87.6996 105.9Z" fill="#424242"/>
<path d="M46.5998 124L43.3998 96.5C43.1998 95.7 42.5998 95.1 41.8998 95.1C41.0998 95.2 40.2998 95.2 39.5998 95.2C31.7998 95.2 24.7998 92 21.2998 90L32.6998 124H46.5998Z" fill="url(#paint3_linear_2_203627)"/>
<path d="M67.3998 124L78.7998 90C75.2998 92 68.1998 95.2 60.7998 95.2C59.8998 95.2 58.9998 95.2 58.1998 95H58.0998C57.4998 95 56.8998 95.6 56.6998 96.4L53.2998 124H67.3998Z" fill="url(#paint4_linear_2_203627)"/>
<path d="M83.5 26.7602C79 25.6202 72.6 24.6802 66.5 24.0602C61.4 23.5402 55.8 24.5802 50 24.5802C44.2 24.5802 38.6 23.5402 33.5 24.0602C27.4 24.5802 19.8 26.7602 15.3 27.9002C7.5 29.8802 4 31.9502 4 34.8602C4 37.7702 8.1 39.1202 16 41.0902C20.5 42.2302 24 44.8301 31.9 45.7601C37 46.3801 45.5 44.5101 51.2 44.5101C57 44.5101 64.6 46.3802 69.7 45.8602C75.8 45.3402 79.4 42.8501 83.9 41.7101C91.8 39.7401 95.9 37.6602 95.9 34.7502C95.9 31.8402 91.4 28.7302 83.5 26.7602Z" fill="url(#paint5_radial_2_203627)"/>
<path d="M64.6002 4.44001C61.8002 3.71001 57.2002 4.03001 54.4002 4.44001C47.3002 5.69001 48.3002 4.96001 41.6002 4.34001C38.9002 4.03001 35.3002 3.82001 32.7002 4.65001C22.7002 7.77001 21.5002 16.59 15.2002 30.09C15.3002 42.45 85.2002 42.34 85.1002 30.09C79.0002 17.21 75.0002 7.24001 64.6002 4.44001Z" fill="url(#paint6_radial_2_203627)"/>
<path opacity="0.2" d="M38.7996 10.3498C41.9996 12.6298 45.8996 13.7798 49.7996 13.2598C53.2996 12.8498 56.6996 11.4898 59.8996 9.93982C60.3996 9.62982 60.9996 10.2498 60.7996 10.8798C60.2996 12.2298 55.2996 17.3198 49.3996 17.3198C43.8996 17.3198 40.1996 14.9298 38.2996 11.4998C37.8996 10.9798 38.0996 9.83982 38.7996 10.3498Z" fill="#EEEEEE"/>
<path d="M82.0998 23.4398C70.4998 30.2898 29.7998 30.2898 18.2998 23.3398C17.2998 25.5198 16.2998 27.8098 15.2998 30.0898C15.3998 42.4498 85.2998 42.3398 85.1998 30.0898C84.0998 27.8998 83.0998 25.6198 82.0998 23.4398Z" fill="#404042"/>
<g opacity="0.6">
<path opacity="0.6" d="M90.1697 43.4001C97.4697 52.6001 95.9697 66.1001 86.8697 73.5001C77.7697 80.9001 64.2697 79.3001 56.8697 70.1001C49.4697 60.9001 51.0697 47.4001 60.2697 40.0001C69.4697 32.6001 82.7697 34.2001 90.1697 43.4001Z" fill="url(#paint7_radial_2_203627)"/>
</g>
<path d="M101.16 85.78L95.4799 90.3L82.8398 74.52L88.5198 70L101.16 85.78Z" fill="#C7C7C7"/>
<path d="M92.5001 41.2999C84.1001 30.6999 68.8001 28.9999 58.3001 37.4999C47.8001 45.9999 46.1001 61.3999 54.5001 71.8999C62.9001 82.3999 78.2001 84.1998 88.7001 75.6998C99.2001 67.1998 100.9 51.7999 92.5001 41.2999ZM85.1401 71.1698C77.1001 77.5998 65.3601 76.3699 58.9301 68.2398C52.5001 60.1098 53.8201 48.3699 61.8601 41.8399C69.9001 35.3099 81.6401 36.6399 88.0701 44.7699C94.5101 52.8999 93.1801 64.7299 85.1401 71.1698Z" fill="url(#paint8_radial_2_203627)"/>
<path d="M113.1 100.6L112.7 100.1C112.3 96.6998 110.3 92.1998 106.9 87.8998C103.9 84.0998 100.5 81.2998 97.5004 79.9998C96.7004 79.5998 96.0004 78.9998 95.4004 78.2998L94.6004 77.2998L88.4004 82.2998L89.2004 83.2998C89.8004 83.9998 90.2004 84.7998 90.4004 85.6998C91.0004 88.9998 93.0004 92.9998 96.0004 96.6998C99.4004 101 103.3 104 106.5 105.1L106.9 105.6C107.3 106.1 107.9 106.4 108.6 106.4C109.1 106.4 109.5 106.2 109.9 105.9L110.8 105.2C111 105.1 111.2 105 111.4 104.8C111.6 104.7 111.7 104.5 111.9 104.3L112.8 103.6C113.7 102.9 113.9 101.5 113.1 100.6Z" fill="url(#paint9_radial_2_203627)"/>
<path d="M96.6006 80.3997L90.8006 84.9997C90.1006 85.4997 89.2006 85.3997 88.7006 84.7997L88.3006 84.1997C87.8006 83.4997 87.9006 82.5997 88.5006 82.0997L94.3006 77.3997C95.0006 76.8997 95.9006 76.9997 96.4006 77.5997L96.8006 78.1997C97.4006 78.8997 97.3006 79.7997 96.6006 80.3997Z" fill="#ABABAB"/>
<path d="M101.529 97.6197C100.709 98.4897 99.9691 99.4297 99.4091 100.48C98.5991 101.98 91.3491 104.78 95.3491 110.77C96.5191 112.38 100.169 117.46 103.369 118.87C110.059 121.82 119.579 112.54 120.469 112.05C126.069 109 111.529 94.6397 107.129 94.7497C106.599 94.7897 105.809 94.9397 105.099 95.0497C103.729 95.2897 102.389 96.7197 101.529 97.6197Z" fill="url(#paint10_radial_2_203627)"/>
<path d="M119.9 107.09L114.16 111.29C113.41 111.81 113.18 112.76 113.58 113.52C114 114.36 115.07 114.64 115.95 114.2L122.17 110.76C123.18 110.23 123.58 108.99 123.01 108.05L122.72 107.57C122.12 106.61 120.83 106.39 119.9 107.09Z" fill="url(#paint11_radial_2_203627)"/>
<path d="M98.3495 114.61C98.3495 114.61 100.09 114.53 102.37 113.89C109.27 111.93 104.96 104.96 104.31 103.86C101 98.2199 106.45 95.8699 110.11 92.6599C110.87 91.9899 113.29 89.4699 112.65 87.0899C111.12 83.4799 108.07 85.8899 101.25 90.4799C99.3895 91.7299 97.6495 93.1099 96.0795 94.7099C88.5795 102.3 95.1095 110.96 98.3495 114.61Z" fill="url(#paint12_radial_2_203627)"/>
<path d="M114.64 96.5799L107.08 103.45C106.06 104.36 106.67 105.2 107.4 106.27C108.18 107.45 109.04 108.31 110.28 107.48L118.69 101.65C120.11 100.67 120.48 98.7399 119.46 97.4399L118.94 96.7799C117.88 95.4599 115.92 95.3599 114.64 96.5799Z" fill="url(#paint13_radial_2_203627)"/>
<path d="M110.879 91.9001L104.689 98.1801C103.759 99.1001 103.659 100.51 104.409 101.5C105.209 102.59 106.809 102.73 107.949 101.88L115.009 96.5601C116.319 95.5601 116.579 93.6901 115.539 92.4901L115.009 91.8801C113.929 90.6701 112.039 90.6701 110.879 91.9001Z" fill="url(#paint14_radial_2_203627)"/>
<path d="M117.649 102.04L111.519 107.29C110.589 108.05 110.389 109.33 110.999 110.29C111.639 111.35 113.079 111.61 114.189 110.92L121.039 106.61C122.319 105.8 122.709 104.12 121.849 102.94L121.419 102.34C120.529 101.17 118.809 101.02 117.649 102.04Z" fill="url(#paint15_radial_2_203627)"/>
<path d="M118.859 101.51C118.259 100.54 111.719 107.01 110.259 106.95C108.589 106.88 107.439 105.14 108.249 103.62C109.169 101.91 115.829 96.41 115.529 96.03C114.969 95.32 107.649 104.27 105.139 101.1C103.579 99.14 105.689 97.54 106.909 96.2C107.629 95.41 111.109 92.3 110.909 92.04C110.709 91.79 109.869 92.56 109.759 92.63C109.039 93.08 104.989 96.71 104.039 97.87C102.469 99.79 102.829 101.22 103.429 102.08C104.129 103.09 104.859 104.58 105.259 105.74C106.099 108.21 105.099 111.87 105.229 112.19C105.369 112.53 106.349 110.5 106.539 108.68C106.649 107.61 107.689 107.28 108.529 107.96C109.039 108.38 109.489 108.78 109.649 109C109.989 109.46 112.009 112.15 112.559 113.18C112.769 113.58 112.959 113.88 113.369 114.19C113.669 114.42 114.009 114.59 114.379 114.69C116.019 115.14 117.549 114.11 118.789 113.25C119.529 112.73 122.649 110.85 123.019 109.95C121.409 111.15 115.909 115.59 114.469 113.23C113.689 111.89 115.069 111.38 115.949 110.82C116.949 110.19 118.719 108.87 119.579 108.06C119.819 107.83 121.209 106.81 121.059 106.61C120.829 106.32 117.929 108.48 117.599 108.72C116.409 109.57 114.109 111.63 112.519 110.66C111.939 110.3 111.529 109.62 111.529 108.93C111.529 107.27 119.169 102.01 118.859 101.51Z" fill="#EDBD82"/>
<defs>
<linearGradient id="paint0_linear_2_203627" x1="53" y1="95.2597" x2="53" y2="134.33" gradientUnits="userSpaceOnUse">
<stop offset="0.1609" stop-color="#606060"/>
<stop offset="0.2878" stop-color="#606060"/>
<stop offset="0.449" stop-color="#595959"/>
<stop offset="0.6836" stop-color="#464646"/>
<stop offset="0.962" stop-color="#262626"/>
<stop offset="1" stop-color="#212121"/>
</linearGradient>
<radialGradient id="paint1_radial_2_203627" cx="0" cy="0" r="1" gradientUnits="userSpaceOnUse" gradientTransform="translate(50.3865 65.4993) scale(42.3755 50.4311)">
<stop offset="0.7936" stop-color="#454140" stop-opacity="0"/>
<stop offset="1" stop-color="#454140"/>
</radialGradient>
<radialGradient id="paint2_radial_2_203627" cx="0" cy="0" r="1" gradientUnits="userSpaceOnUse" gradientTransform="translate(50.3311 62.0029) scale(41.2825 50.0963)">
<stop offset="0.7945" stop-color="#454140" stop-opacity="0"/>
<stop offset="1" stop-color="#454140"/>
</radialGradient>
<linearGradient id="paint3_linear_2_203627" x1="33.9498" y1="94.8159" x2="33.9498" y2="136.17" gradientUnits="userSpaceOnUse">
<stop offset="0.1252" stop-color="#757575"/>
<stop offset="0.2997" stop-color="#707070"/>
<stop offset="0.5018" stop-color="#626262"/>
<stop offset="0.7177" stop-color="#4B4B4B"/>
<stop offset="0.9419" stop-color="#2B2B2B"/>
<stop offset="1" stop-color="#212121"/>
</linearGradient>
<linearGradient id="paint4_linear_2_203627" x1="66.0498" y1="94.789" x2="66.0498" y2="136.17" gradientUnits="userSpaceOnUse">
<stop offset="0.1252" stop-color="#757575"/>
<stop offset="0.2997" stop-color="#707070"/>
<stop offset="0.5018" stop-color="#626262"/>
<stop offset="0.7177" stop-color="#4B4B4B"/>
<stop offset="0.9419" stop-color="#2B2B2B"/>
<stop offset="1" stop-color="#212121"/>
</linearGradient>
<radialGradient id="paint5_radial_2_203627" cx="0" cy="0" r="1" gradientUnits="userSpaceOnUse" gradientTransform="translate(49.95 35.002) scale(56.6876 48.2975)">
<stop offset="0.0032" stop-color="#757575"/>
<stop offset="0.3326" stop-color="#686868"/>
<stop offset="0.9409" stop-color="#464646"/>
<stop offset="1" stop-color="#424242"/>
</radialGradient>
<radialGradient id="paint6_radial_2_203627" cx="0" cy="0" r="1" gradientUnits="userSpaceOnUse" gradientTransform="translate(49.3442 6.961) rotate(90) scale(31.1947 47.2418)">
<stop offset="0.0032" stop-color="#757575"/>
<stop offset="0.3326" stop-color="#686868"/>
<stop offset="0.9409" stop-color="#464646"/>
<stop offset="1" stop-color="#424242"/>
</radialGradient>
<radialGradient id="paint7_radial_2_203627" cx="0" cy="0" r="1" gradientUnits="userSpaceOnUse" gradientTransform="translate(61.1584 41.4724) rotate(6.3674) scale(41.9067 41.9067)">
<stop stop-color="#FAFAFA"/>
<stop offset="1" stop-color="#EEEEEE"/>
</radialGradient>
<radialGradient id="paint8_radial_2_203627" cx="0" cy="0" r="1" gradientUnits="userSpaceOnUse" gradientTransform="translate(72.0588 32.3202) rotate(-1.34088) scale(48.9627 48.9627)">
<stop stop-color="#E0E0E0"/>
<stop offset="0.2274" stop-color="#DBDBDB"/>
<stop offset="0.4939" stop-color="#CDCDCD"/>
<stop offset="0.7789" stop-color="#B5B5B5"/>
<stop offset="1" stop-color="#9E9E9E"/>
</radialGradient>
<radialGradient id="paint9_radial_2_203627" cx="0" cy="0" r="1" gradientUnits="userSpaceOnUse" gradientTransform="translate(93.198 81.5846) scale(13.6102)">
<stop stop-color="#FFA726"/>
<stop offset="0.0404" stop-color="#FFA623"/>
<stop offset="0.5168" stop-color="#FF9800"/>
<stop offset="1" stop-color="#FB8C00"/>
</radialGradient>
<radialGradient id="paint10_radial_2_203627" cx="0" cy="0" r="1" gradientUnits="userSpaceOnUse" gradientTransform="translate(101.093 114.915) rotate(-129.42) scale(21.6844 22.926)">
<stop offset="0.3074" stop-color="#F9DDBD"/>
<stop offset="1" stop-color="#FFD29C"/>
</radialGradient>
<radialGradient id="paint11_radial_2_203627" cx="0" cy="0" r="1" gradientUnits="userSpaceOnUse" gradientTransform="translate(118.136 95.1176) rotate(-58.0408) scale(15.8883)">
<stop stop-color="#FFD29C"/>
<stop offset="1" stop-color="#F9DDBD"/>
</radialGradient>
<radialGradient id="paint12_radial_2_203627" cx="0" cy="0" r="1" gradientUnits="userSpaceOnUse" gradientTransform="translate(109.797 91.176) rotate(-28.04) scale(16.3255 15.8752)">
<stop stop-color="#FFD29C"/>
<stop offset="1" stop-color="#F9DDBD"/>
</radialGradient>
<radialGradient id="paint13_radial_2_203627" cx="0" cy="0" r="1" gradientUnits="userSpaceOnUse" gradientTransform="translate(122.058 93.5824) rotate(-41.201) scale(18.0599)">
<stop stop-color="#FFD29C"/>
<stop offset="1" stop-color="#F9DDBD"/>
</radialGradient>
<radialGradient id="paint14_radial_2_203627" cx="0" cy="0" r="1" gradientUnits="userSpaceOnUse" gradientTransform="translate(121.891 94.348) rotate(-33.0513) scale(17.2589)">
<stop stop-color="#FFD29C"/>
<stop offset="1" stop-color="#F9DDBD"/>
</radialGradient>
<radialGradient id="paint15_radial_2_203627" cx="0" cy="0" r="1" gradientUnits="userSpaceOnUse" gradientTransform="translate(119.965 93.8472) rotate(-50.38) scale(17.2649)">
<stop stop-color="#FFD29C"/>
<stop offset="1" stop-color="#F9DDBD"/>
</radialGradient>
</defs>
</svg>
