<svg width="71" height="92" viewBox="0 0 71 92" fill="none" xmlns="http://www.w3.org/2000/svg">
<path d="M31.4742 0.286011C31.9242 0.438406 31.9242 0.438406 32.539 0.711933C32.6706 0.76364 32.8025 0.815346 32.9381 0.868608C34.0268 1.30692 35.1048 1.79226 35.9464 2.62858C36.4375 3.84972 36.3949 4.99006 36.3574 6.28968C36.3595 6.65329 36.3632 7.0169 36.3683 7.38049C36.3781 8.34077 36.3678 9.29984 36.3529 10.26C36.3412 11.2039 36.3457 12.1476 36.35 13.0916C36.3512 13.4664 36.3525 13.8412 36.354 14.2158C36.3546 14.4015 36.3553 14.587 36.3559 14.7782C36.3574 15.3404 36.357 15.9024 36.3563 16.4647C36.3549 19.0012 36.3926 21.5342 36.4975 24.0686C36.5127 24.4435 36.5261 24.8183 36.5374 25.1933C36.554 25.7116 36.577 26.2291 36.6021 26.7473C36.6057 26.8993 36.6096 27.0514 36.6134 27.2081C36.663 28.0495 36.7859 28.3824 37.343 29.0323C37.5146 29.174 37.6863 29.3158 37.863 29.4617C38.2523 29.0724 38.1456 28.4541 38.175 27.929C38.1829 27.7912 38.191 27.6532 38.1993 27.5112C38.2257 27.0524 38.2506 26.5937 38.2758 26.135C38.2939 25.8158 38.3122 25.4963 38.3305 25.1771C38.3788 24.3331 38.4261 23.4892 38.4732 22.6452C38.5479 21.301 38.6244 19.957 38.701 18.613C38.7277 18.1458 38.7534 17.6783 38.7792 17.2111C38.8248 16.3963 38.8757 15.5817 38.9278 14.7674C38.9398 14.5506 38.9517 14.3338 38.9641 14.1104C38.9841 13.8267 38.9841 13.8267 39.0047 13.5371C39.0149 13.3782 39.025 13.2193 39.0356 13.0556C39.2477 12.2133 39.9556 11.7942 40.6447 11.3334C40.7862 11.2312 40.9273 11.1291 41.0728 11.0239C41.4186 10.7752 41.7698 10.5343 42.1223 10.2952C43.0514 10.7494 43.9337 11.2742 44.8243 11.7992C45.0748 11.946 45.0748 11.946 45.3303 12.0958C45.5686 12.236 45.5686 12.236 45.8116 12.379C46.0293 12.5071 46.0293 12.5071 46.2514 12.6377C46.5944 12.8507 46.5944 12.8507 46.8074 13.0637C46.8195 13.3972 46.8168 13.7311 46.8078 14.0646C46.8006 14.3845 46.8006 14.3845 46.7934 14.7109C46.7876 14.9435 46.7818 15.1758 46.7759 15.4154C46.768 15.9039 46.7603 16.3923 46.7533 16.8808C46.7416 17.6538 46.7276 18.4267 46.7067 19.1997C46.6873 19.9436 46.6775 20.6872 46.6694 21.4315C46.6568 21.777 46.6568 21.777 46.6441 22.1294C46.6113 23.3201 46.6113 23.3201 47.1484 24.3327C47.5494 24.6696 47.5494 24.6696 47.9755 24.9262C48.2981 25.2024 48.2981 25.2024 48.3571 25.6392C48.3069 26.1099 48.2087 26.5426 48.0852 26.9994C48.014 27.3095 47.9431 27.6198 47.8722 27.9303C47.8171 28.1532 47.8171 28.1532 47.7608 28.3809C47.6137 29.0213 47.5287 29.6621 47.4463 30.3135C47.7274 30.3838 48.0085 30.4541 48.2981 30.5265C48.3656 30.4036 48.4332 30.2805 48.5028 30.1538C48.828 29.6365 49.1185 29.2302 49.5759 28.8228C50.313 28.6735 50.9646 28.737 51.7055 28.8228C51.7277 28.7069 51.75 28.5913 51.773 28.472C52.0758 26.9257 52.4172 25.3888 52.7654 23.8523C52.863 23.4212 52.9599 22.99 53.057 22.5588C53.2425 21.7357 53.4318 20.9134 53.6222 20.0914C53.7073 19.7176 53.7073 19.7176 53.7942 19.3362C53.8481 19.1079 53.902 18.8798 53.9574 18.6447C54.004 18.4448 54.0506 18.245 54.0986 18.0391C54.3347 17.3073 54.7291 16.94 55.3258 16.471C55.5235 16.2734 55.7211 16.0758 55.9247 15.8722C56.1553 15.6416 56.1553 15.6416 56.3907 15.4062C57.0217 15.7027 57.5709 16.0468 58.1344 16.457C58.3007 16.5775 58.467 16.6983 58.6385 16.8224C58.8103 16.9481 58.9822 17.0737 59.1591 17.2032C59.331 17.3278 59.5029 17.4526 59.6798 17.5812C60.146 17.92 60.6115 18.2593 61.0758 18.6007C61.2347 18.6995 61.3937 18.7985 61.5573 18.9003C61.9276 19.2395 61.9276 19.2395 61.9947 19.6778C61.7498 21.6388 61.3039 23.5475 60.8496 25.4686C60.764 25.8364 60.6786 26.2044 60.5934 26.5724C60.1837 28.3281 59.7561 30.0771 59.2848 31.8174C59.2445 31.9672 59.2045 32.1169 59.163 32.271C58.9754 32.9683 58.7837 33.6634 58.5844 34.3574C58.1544 35.9291 58.0247 37.2215 58.3073 38.832C58.3759 38.7334 58.4442 38.635 58.5149 38.5334C60.902 35.1068 60.902 35.1068 62.2213 33.5037C62.5618 33.0878 62.8858 32.6625 63.2054 32.2302C63.8713 32.3605 64.3145 32.5771 64.865 32.9706C65.016 33.0775 65.1668 33.1847 65.3225 33.295C65.4803 33.4091 65.6383 33.5233 65.801 33.641C65.9628 33.7571 66.1247 33.8729 66.2914 33.9926C69.4682 36.2783 69.4682 36.2783 70.4461 37.5542C70.2789 37.7344 70.1117 37.9143 69.9394 38.0998C68.8746 39.2489 67.8145 40.3991 66.7891 41.5838C66.2901 42.1512 65.7797 42.7078 65.2686 43.2641C65.1683 43.3733 65.0682 43.4824 64.9649 43.5948C64.4776 44.1253 63.9895 44.6552 63.5008 45.1842C62.459 46.3184 61.467 47.478 60.501 48.6771C59.8187 49.4983 59.0938 50.2769 58.3631 51.0548C57.8594 51.635 57.4535 52.2476 57.0295 52.8874C56.6764 53.1736 56.3212 53.4573 55.9647 53.7392C55.732 53.9937 55.5041 54.2531 55.2801 54.5155C54.5164 55.3984 53.7295 56.256 52.93 57.1066C52.792 57.2537 52.654 57.4009 52.5118 57.5525C51.3443 58.7913 50.1496 59.9984 48.937 61.1929C48.6689 61.4637 48.6689 61.4637 48.3955 61.7402C46.7169 63.4002 45.3644 64.1743 42.9741 64.1743C42.5874 63.6677 42.5874 63.6677 42.2155 62.9898C42.0865 62.7568 41.9574 62.5241 41.8245 62.2843C41.5645 61.7772 41.3315 61.2827 41.1239 60.7537C40.5566 59.4838 39.2266 59.0994 38.0285 58.5308C37.5102 58.2508 37.1782 58.0142 36.7982 57.5725C36.9337 57.4252 36.9337 57.4251 37.0719 57.2748C39.4707 54.7414 39.4707 54.7414 40.6315 51.6096C40.5178 51.7619 40.4043 51.9144 40.2872 52.0713C40.0491 52.3897 40.0491 52.3897 39.8063 52.7145C39.7216 52.8277 39.637 52.941 39.5497 53.058C39.0791 53.686 38.6039 54.3102 38.1209 54.9288C38.0245 55.0526 37.9282 55.1763 37.8288 55.3038C37.6413 55.5438 37.4531 55.7834 37.2642 56.0224C36.86 56.5409 36.5821 56.943 36.3723 57.5725C36.2537 57.5419 36.1351 57.511 36.0128 57.4792C35.8504 57.4398 35.6879 57.4002 35.5205 57.3596C35.3516 57.3067 35.1827 57.2541 35.0089 57.1998C34.4465 57.0859 34.4465 57.0859 34.0314 57.4386C33.899 57.5838 33.7667 57.729 33.6304 57.8788C33.4102 58.1162 33.4102 58.1162 33.1854 58.3586C32.9709 58.602 32.9709 58.602 32.752 58.8503C32.6287 58.9883 32.5054 59.1265 32.3784 59.2688C32.2603 59.4029 32.1418 59.5373 32.0198 59.6755C31.8969 59.8135 31.7741 59.9517 31.6471 60.094C31.2436 60.561 31.2436 60.561 30.862 61.1271C30.1611 62.0602 29.7011 62.6069 28.5319 62.8582C27.6665 62.9304 26.805 62.9106 25.9372 62.8965C25.546 62.9287 25.1552 62.967 24.7659 63.0162C24.52 63.0471 24.274 63.0778 24.0206 63.1095C23.0497 61.7101 22.1983 60.2663 21.3852 58.7704C21.2691 58.5609 21.1528 58.3515 21.0334 58.1358C20.9237 57.935 20.8142 57.7344 20.7014 57.5276C20.6026 57.3468 20.5035 57.1662 20.4015 56.9799C20.1873 56.5077 20.1873 56.5077 20.1873 55.8688C20.0582 55.8842 19.9292 55.8995 19.7963 55.9155C19.4196 55.9572 19.042 55.9921 18.6642 56.0219C18.0656 56.0673 18.0656 56.0673 17.5244 56.2083C16.886 56.3148 16.5384 56.3107 15.9281 56.0818C15.1327 55.2576 14.5321 54.3351 13.91 53.3765C13.3453 52.5253 12.7311 51.7106 12.1214 50.8909C11.9966 50.7214 11.8716 50.552 11.743 50.3774C10.3476 48.4844 8.92462 46.6114 7.47457 44.7599C6.59036 43.6304 5.73766 42.4813 4.89412 41.321C4.02248 40.1276 3.13933 38.9567 2.17887 37.8336C1.4071 36.93 0.76251 36.0275 0.168945 34.9987C1.16986 33.7175 2.15119 32.5145 3.4215 31.4923C3.82314 31.1353 4.11959 30.7518 4.42817 30.3135C5.22166 30.6012 5.86842 30.9592 6.55778 31.4448C6.73347 31.567 6.90916 31.6892 7.09018 31.8151C7.67135 32.2681 8.17649 32.7649 8.68739 33.295C7.45924 28.6296 5.93721 24.0416 4.33489 19.4925C4.20434 19.1182 4.0738 18.7438 3.94325 18.3694C3.72688 17.7501 3.50775 17.1321 3.28265 16.516C3.20385 16.2947 3.12506 16.0734 3.04392 15.8454C2.97577 15.659 2.90784 15.4727 2.83756 15.2806C2.69807 14.6479 2.70595 14.3106 2.93744 13.7026C3.44237 13.2392 3.44237 13.2392 4.09552 12.7843C4.32893 12.6199 4.56212 12.4552 4.7951 12.29C4.91223 12.2073 5.02957 12.1246 5.15032 12.0394C5.8467 11.5242 6.48239 10.9293 7.1217 10.3459C7.62258 10.0822 7.62258 10.0822 8.24315 10.2112C8.45994 10.3092 8.67695 10.4072 8.90035 10.5081C9.23022 10.5996 9.23022 10.5996 9.5667 10.6928C10.5798 11.4453 10.7077 12.5449 11.0168 13.7292C11.0875 13.9841 11.1584 14.2388 11.2314 14.5014C11.379 15.0333 11.5242 15.566 11.6673 16.0992C11.9378 17.105 12.2189 18.1079 12.5007 19.1105C12.6259 19.5571 12.75 20.0036 12.8729 20.4509C13.2156 21.6937 13.5889 22.9195 14.0114 24.1376C14.0172 23.6585 14.0212 23.1793 14.0246 22.7002C14.0272 22.4333 14.0297 22.1665 14.0323 21.8915C14.0152 21.2891 13.9416 20.8753 13.7985 20.3043C13.771 20.0126 13.7514 19.7202 13.7386 19.4276C13.7267 19.181 13.7267 19.181 13.7143 18.9293C13.7071 18.7593 13.6996 18.5894 13.692 18.4143C13.6438 17.3227 13.5719 16.27 13.3725 15.1933C13.2362 14.3704 13.177 13.6678 13.3725 12.8507C13.9752 12.1178 14.7033 11.649 15.5021 11.147C15.6987 11.018 15.8953 10.889 16.0978 10.756C16.4871 10.5042 16.8791 10.2568 17.274 10.014C17.9855 9.56807 18.6642 9.08098 19.3412 8.58485C19.7614 8.37853 19.7614 8.37853 20.1864 8.41265C20.6869 8.62239 21.0596 8.88791 21.4917 9.21706C22.9579 10.2756 24.5487 11.1098 26.1372 11.9675C26.6455 12.2505 27.1432 12.5492 27.6409 12.8507C27.6332 12.7336 27.6258 12.6167 27.6179 12.496C27.5421 11.2663 27.491 10.0372 27.4537 8.80571C27.4367 8.34776 27.4135 7.89 27.3839 7.43268C27.1498 3.73048 27.1498 3.73048 27.9795 2.5884C28.8814 1.70224 29.9215 1.06121 31.0483 0.498972C31.1888 0.428695 31.3294 0.358417 31.4742 0.286011Z" fill="#FCC424"/>
<path d="M56.6036 59.7022C56.6585 62.7352 56.5935 65.7522 56.4172 68.7796C56.4046 69.0047 56.4047 69.0047 56.3919 69.2345C56.3427 70.1036 56.2841 70.9714 56.2126 71.8393C56.1889 72.1291 56.167 72.4191 56.1468 72.7094C55.9464 75.4515 55.9464 75.4515 55.1627 76.2033C54.8057 76.456 54.8057 76.456 54.4207 76.6858C54.1498 76.8722 53.8794 77.0587 53.6089 77.2457C53.4698 77.3368 53.331 77.428 53.1879 77.5219C52.5051 77.983 51.8688 78.5002 51.2263 79.0152C50.9763 79.212 50.7263 79.4085 50.476 79.6049C49.2679 80.5562 48.0677 81.5168 46.8755 82.4882C45.244 83.8177 43.6042 85.1344 41.9467 86.4313C39.6955 88.1927 37.4677 89.9872 35.3075 91.8593C34.4799 91.5616 33.8097 91.1733 33.0863 90.6748C32.7558 90.448 32.7558 90.448 32.4184 90.2169C32.1835 90.0544 31.9486 89.8922 31.7137 89.7297C31.4716 89.5634 31.2295 89.3973 30.9871 89.2311C30.6266 88.9843 30.266 88.7373 29.9059 88.4898C29.0181 87.8799 28.1258 87.2772 27.2284 86.6818C27.107 86.6011 26.9858 86.5206 26.8608 86.4377C26.6146 86.2742 26.3684 86.1108 26.1222 85.9477C25.3366 85.4262 24.5523 84.9023 23.7677 84.379C23.4415 84.1616 23.1154 83.9442 22.7894 83.7267C21.3794 82.7867 19.9694 81.8467 18.5593 80.9067C18.4245 80.8171 18.29 80.7274 18.1513 80.6348C17.8764 80.4516 17.6014 80.2682 17.3267 80.0847C16.7104 79.6735 16.0933 79.2633 15.4746 78.8555C14.8423 78.4376 14.2135 78.0149 13.5854 77.5909C13.4557 77.5051 13.3263 77.4195 13.1927 77.3311C12.78 77.0572 12.3707 76.7789 11.9616 76.4995C11.8328 76.4151 11.7041 76.331 11.5715 76.2441C10.5062 75.5056 10.3009 74.7905 10.0513 73.557C9.79494 71.8606 9.6365 70.1718 9.52597 68.4602C9.4148 66.6573 9.4148 66.6573 9.20802 64.8639C9.08855 63.9948 9.09025 63.147 9.10005 62.2709C9.1009 62.105 9.10196 61.9391 9.10282 61.7681C9.10537 61.3635 9.1092 60.9586 9.11325 60.554C9.79877 60.8701 10.3725 61.2608 10.9767 61.7121C11.9365 62.4183 12.9078 63.1027 13.8917 63.7751C15.2154 64.6804 16.532 65.5957 17.8447 66.5169C19.1184 67.4105 20.3944 68.2998 21.6779 69.1789C22.9299 70.0368 24.1753 70.9033 25.4182 71.7745C25.5941 71.8976 25.77 72.0207 25.9512 72.1474C26.9419 72.8408 27.9311 73.5366 28.9186 74.2342C29.349 74.5368 29.7794 74.8394 30.2098 75.1419C30.407 75.282 30.6044 75.4223 30.8078 75.5667C32.1179 76.485 33.4615 77.2802 34.8815 78.0168C34.8815 77.8763 34.8815 77.7357 34.8815 77.5909C35.2114 77.2891 35.5562 77.0036 35.9065 76.7259C36.1216 76.5534 36.3369 76.3809 36.5586 76.2033C36.7782 76.0288 36.9979 75.8542 37.2241 75.6743C38.6561 74.517 40.0633 73.3353 41.4573 72.1331C42.3284 71.3842 43.217 70.6626 44.1187 69.9509C44.8142 69.3879 45.4912 68.8052 46.1685 68.2206C47.0088 67.4951 47.8523 66.7791 48.724 66.091C49.7232 65.302 50.6862 64.4748 51.6501 63.6437C52.6248 62.8044 53.6132 61.9849 54.6119 61.1746C55.0404 60.826 55.4636 60.472 55.8848 60.1149C56.3906 59.7022 56.3906 59.7022 56.6036 59.7022Z" fill="#FC8350"/>
<path d="M7.19653 44.582C8.14123 45.3152 8.85167 46.0761 9.5391 47.0576C9.74291 47.3417 9.94671 47.6256 10.1505 47.9095C10.3115 48.1352 10.3115 48.1352 10.4757 48.3654C11.0833 49.2128 11.7024 50.0517 12.3208 50.8909C12.4462 51.0615 12.5717 51.2321 12.7007 51.408C13.6333 52.6741 14.5903 53.9186 15.567 55.151C15.9279 55.6559 15.9279 55.6559 15.9279 56.0819C16.1215 56.0589 16.1215 56.0589 16.3189 56.0352C17.6142 55.8919 18.8845 55.844 20.1872 55.8689C20.2853 56.0729 20.3837 56.2769 20.4849 56.4869C21.5595 58.6896 22.7538 60.7994 24.0205 62.8966C25.3659 62.8811 26.7048 62.8249 28.0444 62.6937C28.3781 62.6619 28.3781 62.6619 28.7188 62.6294C30.0219 62.2988 30.5586 61.4074 31.2611 60.3411C31.8148 59.7109 32.3966 59.1087 32.978 58.5043C33.2604 58.2047 33.5426 57.9046 33.8241 57.6041C34.0326 57.3828 34.2409 57.1616 34.4555 56.9337C35.088 57.1445 35.7205 57.3554 36.3722 57.5726C36.4425 57.2915 36.5127 57.0104 36.5852 56.7207C36.8986 56.2752 37.2162 55.8531 37.5567 55.4298C37.7503 55.1842 37.9436 54.9385 38.1366 54.6927C38.282 54.5079 38.282 54.5079 38.4305 54.3194C39.0006 53.5834 39.5379 52.8238 40.079 52.0665C40.4185 51.6097 40.4185 51.6097 40.8444 51.1838C40.6621 53.5536 38.6432 55.9405 37.0111 57.5726C38.0559 58.2415 39.1121 58.8655 40.2098 59.4443C40.9898 59.9213 41.3404 60.4052 41.683 61.2462C41.955 61.8902 42.2446 62.495 42.6013 63.0964C42.974 63.7485 42.974 63.7485 42.974 64.1744C45.8366 63.806 47.7366 62.6688 49.5675 60.4184C50.1729 59.7167 50.8329 59.075 51.4924 58.4244C52.3971 57.5283 53.2809 56.63 54.107 55.6602C54.5987 55.0837 55.1002 54.5168 55.6051 53.9523C55.7844 53.7502 55.9638 53.5483 56.1484 53.34C56.6035 52.8875 56.6035 52.8875 57.0294 52.8875C57.0141 53.0687 56.9987 53.2499 56.9828 53.4365C56.8064 55.7405 56.7954 58.0311 56.8165 60.3411C56.6759 60.2005 56.5353 60.06 56.3905 59.9152C56.1158 60.1511 56.1158 60.1511 55.8358 60.3918C53.5405 62.3623 51.2431 64.3277 48.8969 66.2375C48.2303 66.7855 47.5714 67.3424 46.9138 67.9012C45.8977 68.7639 44.8732 69.6145 43.8399 70.4567C41.6168 72.2692 39.4056 74.093 37.2349 75.968C37.1278 76.06 37.0204 76.152 36.9101 76.2467C36.6833 76.4416 36.4578 76.6377 36.2327 76.8347C35.3549 77.5909 35.3549 77.5909 34.8815 77.5909C34.8815 77.7315 34.8815 77.872 34.8815 78.0169C33.8797 77.7306 33.0826 77.3 32.2327 76.7125C32.0981 76.6209 31.9633 76.5295 31.8244 76.4352C31.3512 76.1128 30.8801 75.7874 30.4093 75.4613C30.2253 75.3342 30.0411 75.207 29.8515 75.0759C27.4798 73.4354 25.1185 71.7796 22.7572 70.1241C21.5556 69.2827 20.3488 68.4496 19.1385 67.6205C17.8101 66.7093 16.4914 65.7844 15.173 64.8586C13.8773 63.9501 12.5759 63.0508 11.2664 62.1621C10.5228 61.6544 9.80914 61.1271 9.11318 60.554C9.11318 60.9054 9.11318 61.2568 9.11318 61.6189C9.04291 61.6189 8.97263 61.6189 8.90022 61.6189C8.80119 60.5809 8.70387 59.5427 8.6074 58.5043C8.59271 58.3469 8.57801 58.1898 8.56311 58.0277C8.35185 55.7477 8.18382 53.4695 8.04838 51.1838C7.91336 48.9449 7.67846 46.7729 7.19653 44.582Z" fill="#FCFCBB"/>
<path d="M61.9275 19.4526C61.7967 21.5064 61.3193 23.4586 60.8495 25.4555C60.7639 25.8244 60.6785 26.1932 60.5933 26.5621C60.1836 28.3216 59.757 30.0746 59.2847 31.8184C59.2444 31.9681 59.2044 32.1176 59.1628 32.2718C58.9752 32.9688 58.7836 33.6637 58.5842 34.3575C58.1543 35.9289 58.0246 37.2216 58.3072 38.832C58.3757 38.7334 58.4441 38.635 58.5148 38.5335C60.9019 35.1069 60.9019 35.1069 62.2212 33.5037C62.5617 33.0878 62.8856 32.6625 63.2053 32.2302C63.8712 32.3606 64.3144 32.5772 64.8649 32.9707C65.0159 33.0776 65.1666 33.1847 65.3223 33.295C65.5591 33.4663 65.5591 33.4663 65.8008 33.6411C65.9627 33.7572 66.1245 33.873 66.2913 33.9927C69.468 36.2784 69.468 36.2784 70.4459 37.5543C70.1951 37.8243 70.1951 37.8243 69.9393 38.0999C68.8745 39.249 67.8144 40.3992 66.789 41.5839C66.29 42.1512 65.7795 42.7079 65.2684 43.2642C65.1181 43.4279 65.1181 43.4279 64.9647 43.5949C64.4775 44.1254 63.9894 44.6552 63.5006 45.1842C62.4588 46.3185 61.4669 47.478 60.5009 48.6772C59.8185 49.4984 59.0936 50.277 58.363 51.0549C57.8593 51.635 57.4534 52.2477 57.0294 52.8875C56.6763 53.1737 56.3211 53.4573 55.9646 53.7393C55.7318 53.9938 55.504 54.2532 55.2799 54.5155C54.5162 55.3985 53.7293 56.2561 52.9299 57.1066C52.7919 57.2538 52.6539 57.401 52.5116 57.5526C51.3442 58.7914 50.1495 59.9984 48.9369 61.1929C48.6688 61.4638 48.6688 61.4638 48.3953 61.7402C46.7168 63.4003 45.3642 64.1744 42.974 64.1744C42.5872 63.6678 42.5872 63.6678 42.2154 62.9899C42.0863 62.7569 41.9573 62.5242 41.8244 62.2844C41.5644 61.7773 41.3314 61.2828 41.1238 60.7538C40.5564 59.4839 39.2265 59.0995 38.0284 58.5309C37.51 58.2509 37.178 58.0143 36.7981 57.5726C36.9335 57.4252 36.9335 57.4252 37.0718 57.2749C38.5154 55.6694 39.7229 53.9978 40.6314 52.0356C40.7632 52.1849 40.895 52.3342 41.0307 52.4882C42.1145 53.5689 43.5485 54.5094 45.1036 54.5911C45.1521 54.4566 45.2007 54.3222 45.2507 54.1835C45.7167 53.0849 46.3028 52.0482 46.8667 50.9974C46.9589 50.8245 47.0509 50.6516 47.1459 50.4733C47.2364 50.3045 47.3269 50.1358 47.4202 49.9618C47.6331 49.5323 47.7882 49.1161 47.9411 48.6632C48.4341 47.7323 49.0338 47.4912 49.9751 47.0843C50.2764 46.9461 50.5775 46.8074 50.8784 46.6684C51.0203 46.6043 51.1621 46.5402 51.3084 46.4741C51.8176 46.2324 52.2946 45.949 52.7702 45.6468C52.2782 45.2251 51.7863 44.8035 51.2794 44.369C51.6534 42.9296 52.0755 41.5185 52.5647 40.1141C52.7617 39.498 52.9171 38.8787 53.07 38.2504C53.3207 37.2893 53.6316 36.3457 53.9283 35.398C54.4225 33.7983 54.86 32.2204 55.1826 30.5772C55.34 29.8191 55.5348 29.0776 55.7384 28.3305C56.0606 27.1456 56.3615 25.9583 56.6435 24.7634C56.6789 24.6137 56.7144 24.4642 56.7511 24.31C56.904 23.656 57.0296 23.0814 57.0202 22.4066C57.4112 21.3303 58.4907 21.0178 59.4784 20.544C59.7943 20.3851 59.7943 20.3851 60.1165 20.2229C61.6592 19.4526 61.6592 19.4526 61.9275 19.4526Z" fill="#EF9413"/>
<path d="M56.6035 59.7022C56.6585 62.7352 56.5935 65.7522 56.4172 68.7796C56.4089 68.9298 56.4004 69.0799 56.3919 69.2345C56.3427 70.1036 56.2841 70.9714 56.2125 71.8393C56.1889 72.1291 56.167 72.4191 56.1467 72.7094C55.9463 75.4515 55.9463 75.4515 55.1626 76.2033C54.8057 76.456 54.8057 76.456 54.4207 76.6858C54.1498 76.8722 53.8793 77.0587 53.6089 77.2457C53.4698 77.3368 53.331 77.428 53.1879 77.5219C52.5051 77.983 51.8688 78.5002 51.2263 79.0152C50.9763 79.212 50.7262 79.4085 50.476 79.6049C49.2679 80.5562 48.0676 81.5168 46.8755 82.4882C45.244 83.8177 43.6042 85.1344 41.9467 86.4313C39.9489 87.9945 37.9616 89.5781 36.0396 91.2336C35.5204 91.6463 35.5204 91.6463 35.0945 91.6463C35.04 89.8506 34.9984 88.0552 34.9731 86.2588C34.9609 85.4245 34.9443 84.5907 34.9177 83.7568C34.8922 82.9503 34.8783 82.1442 34.8721 81.3375C34.8679 81.0313 34.8596 80.725 34.8468 80.419C34.7948 79.1191 34.7657 78.016 35.5956 76.9429C36.1857 76.4005 36.7847 75.9264 37.437 75.4613C37.7799 75.1876 38.1217 74.9129 38.462 74.6361C38.6345 74.5004 38.8072 74.3648 38.9853 74.2251C39.6897 73.6588 40.3733 73.0708 41.0574 72.4798C42.0609 71.6135 43.078 70.7725 44.1187 69.9509C44.8142 69.3879 45.4912 68.8052 46.1684 68.2206C47.0088 67.4951 47.8523 66.7791 48.724 66.091C49.7232 65.302 50.6862 64.4748 51.6501 63.6437C52.6248 62.8044 53.6131 61.9849 54.6119 61.1746C55.0404 60.826 55.4636 60.472 55.8848 60.1149C56.3906 59.7022 56.3906 59.7022 56.6035 59.7022Z" fill="#8E3215"/>
<path d="M42.1222 10.2952C43.0514 10.7495 43.9339 11.2742 44.8243 11.7993C44.9913 11.8971 45.1582 11.995 45.3305 12.0958C45.4892 12.1893 45.648 12.2828 45.8116 12.3791C45.9568 12.4645 46.1019 12.5498 46.2516 12.6378C46.5944 12.8508 46.5944 12.8508 46.8074 13.0637C46.8283 13.348 46.8346 13.6334 46.8351 13.9183C46.8357 14.0996 46.8364 14.2808 46.837 14.4676C46.8364 14.7634 46.8363 14.7634 46.8357 15.0651C46.8359 15.2666 46.8361 15.4681 46.8363 15.6757C46.8366 16.1029 46.8361 16.5299 46.8353 16.9571C46.834 17.6115 46.8351 18.2657 46.8366 18.9201C46.8363 19.3344 46.8361 19.7488 46.8357 20.163C46.8361 20.3593 46.8366 20.5557 46.837 20.758C46.8359 21.0319 46.8359 21.0319 46.8351 21.3113C46.8349 21.4718 46.8346 21.6324 46.8344 21.7981C46.8074 22.221 46.8074 22.221 46.5944 22.8599C46.5533 23.2433 46.5216 23.6274 46.4954 24.012C46.4788 24.2406 46.4622 24.4691 46.4451 24.7046C46.4119 25.1816 46.3793 25.6584 46.347 26.1355C46.2428 27.5572 46.0635 28.924 45.7426 30.3136C45.5418 30.305 45.5418 30.305 45.3367 30.2963C44.7764 30.2852 44.3568 30.3421 43.8259 30.5265C43.2352 31.1452 42.9132 31.8886 42.5482 32.6561C42.4191 32.9138 42.2892 33.1711 42.1589 33.4281C41.8692 34.0012 41.583 34.576 41.2987 35.1518C40.229 37.3089 39.099 39.433 37.8764 41.5072C37.7959 41.6456 37.7154 41.7841 37.6326 41.9265C37.4377 42.2515 37.2261 42.5663 37.0112 42.8783C36.8706 42.8783 36.7301 42.8783 36.5853 42.8783C36.5288 43.0329 36.4722 43.1873 36.414 43.3466C36.1591 43.9435 35.8605 44.4339 35.4938 44.9678C35.3218 45.2204 35.3218 45.2204 35.1461 45.4779C35.0151 45.667 35.0151 45.667 34.8816 45.8597C34.4556 45.4338 34.4556 45.4338 34.0297 44.7949C33.9701 45.0266 33.9107 45.2583 33.8493 45.497C33.3078 47.5172 32.6519 49.2219 31.4742 50.9708C31.3396 51.1714 31.3396 51.1714 31.2025 51.3761C30.5235 52.3846 29.8299 53.3828 29.1316 54.3782C28.9728 54.606 28.8137 54.8339 28.6499 55.0686C28.3145 55.549 27.9782 56.0288 27.6409 56.5078C27.3804 55.7262 27.5059 55.5228 27.7874 54.764C28.4983 52.7237 28.9683 50.6286 29.447 48.5243C29.5303 48.1584 29.5303 48.1584 29.6155 47.7853C29.7254 47.3015 29.8344 46.8176 29.9421 46.3333C30.1649 45.3497 30.3894 44.3852 30.7288 43.4347C31.1869 42.1212 31.4126 40.7544 31.6739 39.391C31.7297 39.1065 31.7855 38.822 31.8418 38.5377C32.0488 37.4874 32.2538 36.4368 32.457 35.3859C32.5667 34.8217 32.6789 34.258 32.792 33.6943C32.8222 33.5333 32.8525 33.3723 32.8838 33.2064C33.0505 32.3842 33.2009 31.7534 33.8168 31.1654C34.3617 30.8958 34.3617 30.8958 34.9748 30.6862C35.2775 30.5791 35.2775 30.5791 35.5863 30.4699C36.1593 30.3136 36.1593 30.3136 37.0112 30.3136C37.0815 30.5244 37.1517 30.7352 37.2241 30.9524C37.8281 30.4667 38.056 30.2018 38.2093 29.4304C38.2219 29.1663 38.2346 28.9023 38.2476 28.6301C38.2598 28.4108 38.2598 28.4108 38.2721 28.1869C38.2979 27.7042 38.3179 27.2212 38.3381 26.7382C38.3552 26.4006 38.3724 26.0633 38.3901 25.7257C38.4359 24.8368 38.477 23.9477 38.517 23.0584C38.566 21.9842 38.6205 20.9103 38.6744 19.8363C38.7164 18.9992 38.7572 18.162 38.7958 17.3246C38.8352 16.4719 38.8799 15.6197 38.9278 14.7674C38.9393 14.5474 38.9508 14.3272 38.9625 14.1004C38.9828 13.8165 38.9828 13.8165 39.0034 13.5269C39.0137 13.3695 39.0241 13.2119 39.0347 13.0499C39.2503 12.2126 39.9586 11.7923 40.6449 11.3334C40.7861 11.2313 40.9273 11.1292 41.0728 11.024C41.4186 10.7752 41.77 10.5344 42.1222 10.2952Z" fill="#FBA515"/>
<path d="M35.7335 2.84158C36.1151 11.2238 36.4175 19.5793 36.3724 27.971C36.3021 27.8304 36.2318 27.6899 36.1594 27.5451C36.0295 27.4814 35.8998 27.4177 35.7659 27.3521C35.1117 27.0195 34.7072 26.518 34.217 25.9811C33.7581 25.5767 33.3273 25.3999 32.7521 25.2025C30.1529 28.26 29.3847 31.1803 28.6447 35.0577C28.4937 35.8467 28.3363 36.634 28.1768 37.4211C27.9234 38.6716 27.6742 39.9228 27.428 41.1746C27.2875 41.1746 27.1469 41.1746 27.0021 41.1746C26.4439 39.8793 26.261 38.7979 26.2301 37.3945C26.2193 37.0406 26.2075 36.6868 26.1952 36.3331C26.1914 36.1787 26.1877 36.0245 26.1839 35.8657C26.1626 35.4229 26.1626 35.4229 26.0434 34.997C25.9311 34.5481 25.9073 34.1532 25.8998 33.6909C25.8283 30.9384 25.4688 28.3109 24.98 25.6039C24.7856 24.4933 24.6244 23.3776 24.4662 22.2613C24.3401 21.3847 24.1951 20.5184 24.0149 19.6514C23.9802 19.477 23.9457 19.3026 23.9101 19.1231C23.8437 18.7932 23.7725 18.4642 23.6957 18.1367C23.6079 17.6899 23.6079 17.6899 23.5947 16.897C24.0607 16.3048 24.0607 16.3048 24.6595 15.8322C24.877 15.6342 24.877 15.6342 25.0987 15.4321C25.3031 15.2547 25.3031 15.2547 25.5114 15.0736C25.6568 14.9467 25.8023 14.8198 25.9522 14.6892C26.2849 14.4077 26.6288 14.1394 26.9755 13.8755C27.5045 13.4754 27.5045 13.4754 27.8539 12.6378C29.1892 12.6378 30.5245 12.6378 31.9002 12.6378C31.8502 12.1552 31.8003 11.6726 31.7488 11.1753C31.3237 6.32916 31.3237 6.32916 31.956 5.0785C32.7122 4.24493 33.6329 3.87251 34.6687 3.48047C35.571 2.84158 35.571 2.84158 35.7335 2.84158Z" fill="#EC9519"/>
<path d="M8.27978 10.2361C8.48465 10.3259 8.6893 10.4157 8.90035 10.5082C9.12864 10.5872 9.35715 10.6663 9.59247 10.7478C10.3136 11.2394 10.426 11.5852 10.6598 12.3965C10.5467 13.3176 9.62548 13.8425 8.95444 14.4105C8.76533 14.5766 8.57622 14.7427 8.38115 14.9137C8.1882 15.077 7.99526 15.2404 7.79636 15.4088C7.35893 16.1284 7.37384 16.2541 7.52441 17.045C7.62237 17.4232 7.72608 17.7997 7.83554 18.1748C7.88218 18.3526 7.92903 18.5306 7.97716 18.7138C8.12219 19.2598 8.2768 19.802 8.43439 20.3442C8.4904 20.5384 8.5464 20.7329 8.60412 20.9328C9.01364 22.3399 9.46065 23.7297 9.93364 25.1169C10.2446 26.0381 10.5293 26.9664 10.8121 27.8969C11.0053 28.5289 11.2035 29.1591 11.4035 29.789C12.1058 32.0094 12.7475 34.2461 13.3725 36.4894C13.4266 36.6819 13.4807 36.8747 13.5363 37.0731C13.6924 37.6322 13.8457 38.192 13.9982 38.7521C14.0457 38.9225 14.0934 39.0927 14.1424 39.2681C14.4618 40.462 14.4618 40.462 14.2244 41.1746C14.1315 40.9686 14.0389 40.7627 13.9433 40.5506C12.7831 38.0027 11.4346 35.7541 9.75219 33.508C8.81197 33.6117 8.40969 33.9022 7.7691 34.586C7.62045 34.7423 7.47202 34.8984 7.3189 35.0594C7.20837 35.1799 7.09763 35.3005 6.9837 35.4246C7.3353 36.4266 7.86451 37.2825 8.42119 38.1797C8.57281 38.4259 8.57281 38.4259 8.72742 38.677C10.9252 42.2336 10.9252 42.2336 13.2177 45.7292C13.5259 46.1953 13.7944 46.6558 14.0514 47.1507C14.5915 48.1424 15.23 49.0567 15.8791 49.9784C16.2801 50.55 16.6707 51.1167 17.0061 51.7293C17.5331 52.6642 18.1348 53.5404 18.7381 54.4271C19.0465 54.9003 19.3118 55.3578 19.5484 55.8689C19.2074 55.9281 18.8656 55.9832 18.5219 56.022C18.0494 56.0731 18.0494 56.0731 17.5668 56.2083C16.9171 56.3163 16.5522 56.3067 15.9281 56.0818C15.1307 55.2594 14.5321 54.3351 13.91 53.3766C13.3453 52.5254 12.7311 51.7104 12.1214 50.8909C11.9966 50.7214 11.8716 50.5521 11.743 50.3775C10.3476 48.4844 8.92462 46.6115 7.47457 44.76C6.59036 43.6304 5.73766 42.4813 4.89413 41.3209C4.02248 40.1276 3.13933 38.9568 2.17887 37.8336C1.4071 36.93 0.76251 36.0275 0.168945 34.9987C1.16986 33.7175 2.15119 32.5145 3.4215 31.4923C3.82314 31.1354 4.11959 30.7518 4.42817 30.3136C5.22166 30.6013 5.86842 30.9592 6.55778 31.4448C6.73347 31.567 6.90916 31.6893 7.09018 31.8151C7.67135 32.2681 8.17649 32.7649 8.68739 33.295C7.45924 28.6297 5.93721 24.0416 4.33489 19.4924C4.20434 19.1182 4.0738 18.7438 3.94325 18.3694C3.72689 17.7501 3.50775 17.1321 3.28265 16.516C3.20385 16.2948 3.12506 16.0735 3.04392 15.8454C2.97577 15.6591 2.90784 15.4727 2.83756 15.2806C2.69807 14.6479 2.70595 14.3106 2.93744 13.7026C3.44237 13.2392 3.44237 13.2392 4.09552 12.7841C4.32893 12.6199 4.56212 12.4553 4.7951 12.2901C4.91223 12.2074 5.02957 12.1247 5.15032 12.0395C5.8467 11.5243 6.48239 10.9293 7.1217 10.346C7.62258 10.0823 7.62258 10.0823 8.27978 10.2361Z" fill="#FEDA1D"/>
<path d="M40.6315 51.1837C40.8404 51.7321 40.8668 51.9749 40.6606 52.5339C39.6593 54.3285 38.4712 56.1125 37.0111 57.5726C38.0559 58.2415 39.1122 58.8655 40.2098 59.4443C40.9899 59.9213 41.3404 60.4052 41.6831 61.2462C41.955 61.8901 42.2446 62.495 42.6014 63.0964C42.974 63.7484 42.974 63.7484 42.974 64.1744C45.8367 63.8059 47.7367 62.6687 49.5675 60.4184C50.173 59.7167 50.8329 59.075 51.4925 58.4244C52.3971 57.5283 53.2809 56.63 54.107 55.6602C54.5987 55.0837 55.1003 54.5168 55.6052 53.9522C55.7845 53.7501 55.9638 53.5483 56.1485 53.34C56.6035 52.8874 56.6035 52.8874 57.0295 52.8874C57.0141 53.0687 56.9988 53.2499 56.9828 53.4364C56.8065 55.7405 56.7954 58.0311 56.8165 60.3411C56.676 60.2005 56.5354 60.06 56.3906 59.9151C56.1159 60.1511 56.1159 60.1511 55.8358 60.3918C53.5405 62.3623 51.2431 64.3277 48.8969 66.2375C48.2303 66.7855 47.5714 67.3424 46.9138 67.9012C45.8978 68.7639 44.8732 69.6145 43.8399 70.4567C43.0311 71.1163 42.2234 71.7773 41.4169 72.4398C41.2625 72.5667 41.1081 72.6934 40.9492 72.824C39.8158 73.758 38.6967 74.7072 37.5923 75.6753C36.7856 76.3764 35.9738 76.9629 35.0945 77.5909C35.0945 70.8443 35.0945 64.0977 35.0945 57.1467C35.5161 57.2872 35.9378 57.4278 36.3722 57.5726C36.3874 57.4586 36.4025 57.3447 36.418 57.2274C36.6519 56.5186 37.0953 56.0033 37.5567 55.4298C37.7501 55.1842 37.9431 54.9385 38.1358 54.6927C38.2327 54.5694 38.3296 54.4463 38.4295 54.3194C39.6355 52.818 39.6355 52.818 40.6315 51.1837Z" fill="#CFA48A"/>
<path d="M56.3905 15.4063C57.3989 15.8812 58.2597 16.5376 59.159 17.1899C59.3309 17.3127 59.5028 17.4358 59.6797 17.5625C60.4871 18.1461 61.2552 18.7108 61.9275 19.4526C61.2273 19.8444 60.526 20.2344 59.8245 20.6239C59.625 20.7357 59.4255 20.8473 59.2197 20.9625C59.0289 21.0681 58.8381 21.1737 58.6415 21.2828C58.4654 21.3809 58.2893 21.4789 58.1076 21.5801C57.6683 21.7951 57.6683 21.7951 57.2424 21.7951C57.2341 21.9331 57.2258 22.0709 57.2173 22.213C57.1006 23.797 56.8009 25.2875 56.4172 26.8263C56.3626 27.0536 56.3079 27.281 56.2517 27.5151C55.9661 28.6834 55.6428 29.8214 55.2497 30.9576C55.0553 31.5549 54.9364 32.1591 54.82 32.7758C54.5574 34.0574 54.2034 35.2813 53.8012 36.5235C53.5209 37.3935 53.276 38.2619 53.063 39.1515C52.8614 39.9931 52.6143 40.7787 52.2936 41.5814C51.9622 42.4903 51.735 43.4333 51.4924 44.369C51.9844 44.7907 52.4763 45.2123 52.9832 45.6468C52.1965 46.3018 51.3148 46.718 50.401 47.1641C50.246 47.2408 50.0907 47.3172 49.931 47.3962C49.5289 47.5945 49.1264 47.7921 48.7239 47.9893C48.1223 48.29 48.1059 48.6272 47.8721 49.2539C47.1238 51.1235 46.1041 52.8472 45.1036 54.5911C44.1108 54.6563 43.569 54.5298 42.7344 53.9923C42.4701 53.8253 42.4701 53.8253 42.2003 53.6552C42.034 53.5425 41.8677 53.4296 41.6962 53.3134C41.4575 53.1607 41.4575 53.1607 41.2137 53.0048C40.8444 52.6745 40.8444 52.6745 40.7164 52.2752C40.6996 50.7514 41.325 49.6845 42.1222 48.4153C42.1924 48.6964 42.2627 48.9775 42.3351 49.2671C43.517 48.1489 44.3578 46.8279 44.771 45.2475C45.1249 43.9218 45.76 42.6898 46.5943 41.6005C47.0503 41.4549 47.0503 41.4549 47.4462 41.3876C47.6674 40.9659 47.8783 40.5387 48.0851 40.1098C48.307 39.831 48.5338 39.5563 48.764 39.2846C49.9764 37.7728 51.7054 35.069 51.7054 33.0821C51.3725 32.7271 51.3725 32.7271 50.9334 32.39C50.0941 31.6895 49.4146 30.9467 48.7239 30.1006C49.3362 29.0624 49.3362 29.0624 49.5758 28.8229C50.2856 28.7926 50.9952 28.8139 51.7054 28.8229C51.7278 28.707 51.7499 28.5914 51.7729 28.4721C52.0757 26.9258 52.4173 25.3889 52.7653 23.8523C52.8628 23.4213 52.96 22.9901 53.0569 22.5588C53.2423 21.7357 53.4317 20.9135 53.6221 20.0915C53.6789 19.8423 53.7356 19.5931 53.7941 19.3363C53.848 19.108 53.9019 18.8799 53.9573 18.6448C54.0039 18.4448 54.0505 18.2451 54.0984 18.0391C54.3348 17.3074 54.729 16.9401 55.3257 16.4711C55.5234 16.2735 55.721 16.0759 55.9248 15.8723C56.0783 15.7185 56.2321 15.5648 56.3905 15.4063Z" fill="#FED52C"/>
<path d="M31.9225 0.424142C32.7428 0.807195 33.5237 1.24771 34.3091 1.69693C34.8494 2.0044 35.3897 2.31185 35.9464 2.62863C35.9464 4.03417 35.9464 5.43971 35.9464 6.88785C35.8761 6.88785 35.8058 6.88785 35.7334 6.88785C35.628 4.99037 35.628 4.99037 35.5204 3.05455C35.2947 3.22119 35.0692 3.38781 34.8366 3.5595C34.541 3.77719 34.2454 3.99486 33.9498 4.21253C33.7267 4.37744 33.7267 4.37744 33.499 4.5457C33.3561 4.65069 33.2134 4.75571 33.0665 4.86389C32.9349 4.96091 32.8033 5.05794 32.6676 5.1579C32.326 5.39712 32.326 5.39712 31.9001 5.61008C31.9001 7.92923 31.9001 10.2484 31.9001 12.6378C30.5648 12.6378 29.2296 12.6378 27.8538 12.6378C27.7133 12.9892 27.5727 13.3406 27.4279 13.7026C26.9038 14.2574 26.9038 14.2574 26.2832 14.8074C25.9777 15.082 25.9777 15.0819 25.6661 15.3622C25.0853 15.8322 25.0853 15.8322 24.6111 16.0426C24.0525 16.3614 23.9912 16.7169 23.8076 17.3229C23.831 17.895 23.831 17.895 23.969 18.49C24.0141 18.7178 24.0591 18.9457 24.1055 19.1804C24.1566 19.4238 24.2075 19.6674 24.2601 19.9185C24.3623 20.4349 24.4637 20.9514 24.5647 21.4682C24.6164 21.7327 24.6682 21.9974 24.7216 22.27C24.961 23.5448 25.1586 24.8251 25.3515 26.1076C25.3863 26.3365 25.4208 26.5657 25.4565 26.8016C25.5198 27.2239 25.5826 27.6467 25.6444 28.0694C25.7085 28.5032 25.7773 28.9363 25.8473 29.3693C25.9947 30.5691 26.0213 31.7738 26.066 32.9809C26.0782 33.2695 26.0782 33.2695 26.0903 33.5638C26.0967 33.7371 26.1031 33.9105 26.1099 34.0891C26.1489 34.5572 26.2492 34.9704 26.3631 35.4246C26.3778 36.0124 26.3831 36.5942 26.3763 37.1816C26.3755 37.3402 26.3744 37.4989 26.3735 37.6624C26.371 38.0523 26.3672 38.4421 26.3631 38.832C25.198 37.7761 24.8053 36.1715 24.4264 34.691C24.2439 34.1092 24.2439 34.1092 23.8229 33.5148C23.2385 32.5002 23.1074 31.4454 22.944 30.2995C22.8918 29.9526 22.8918 29.9526 22.8384 29.5987C22.4197 26.7288 22.1435 23.8427 21.8643 20.9565C21.784 20.1332 21.7033 19.3099 21.6211 18.4866C21.5708 17.9806 21.5214 17.4746 21.4733 16.9684C21.3351 15.5745 21.1324 14.2178 20.8261 12.8508C20.614 13.0435 20.614 13.0435 20.3976 13.2401C20.2096 13.4102 20.0216 13.5806 19.8278 13.7558C19.5498 14.0078 19.5498 14.0078 19.2664 14.265C18.1724 15.2295 18.1724 15.2295 17.6317 15.6193C16.4896 15.4864 15.6096 14.701 14.7078 14.0346C14.2245 13.67 14.2245 13.67 13.5854 13.4896C13.6525 12.8529 13.7 12.5181 14.1728 12.0696C14.3391 11.9628 14.5054 11.856 14.6769 11.746C14.9614 11.5591 14.9614 11.5591 15.2517 11.3684C15.4748 11.2251 15.698 11.0818 15.928 10.9341C16.349 10.6542 16.7688 10.3724 17.1885 10.0907C17.8317 9.65977 18.4772 9.23232 19.1224 8.8045C19.3333 8.66394 19.5441 8.52339 19.7613 8.37858C20.485 8.45035 20.9234 8.78431 21.4916 9.21711C22.9579 10.2756 24.5487 11.1098 26.1372 11.9675C26.6455 12.2505 27.1432 12.5492 27.6409 12.8508C27.6332 12.7336 27.6258 12.6167 27.6179 12.496C27.5421 11.2663 27.491 10.0372 27.4537 8.80575C27.4366 8.3478 27.4134 7.89004 27.3838 7.43273C27.1498 3.73053 27.1498 3.73053 27.9795 2.58844C28.8814 1.70229 29.9215 1.06126 31.0483 0.499019C31.4742 0.286058 31.4742 0.286058 31.9225 0.424142Z" fill="#FDD339"/>
<path d="M65.605 37.4576C65.881 37.4642 65.881 37.4642 66.1628 37.471C66.3625 37.4738 66.5621 37.4765 66.768 37.4793C66.9759 37.4865 67.1837 37.4936 67.3982 37.501C67.6086 37.5049 67.819 37.5087 68.0358 37.5127C68.5554 37.5227 69.0748 37.5368 69.5942 37.5543C69.4292 38.6125 68.9781 39.1953 68.2764 39.9767C68.1638 40.1053 68.0509 40.2337 67.9348 40.3662C66.8276 41.6193 65.6838 42.8387 64.5381 44.0562C63.1343 45.5486 61.7956 47.0758 60.5084 48.6698C59.8229 49.4929 59.0963 50.2744 58.3631 51.0549C57.8594 51.635 57.4535 52.2477 57.0295 52.8875C56.6764 53.1737 56.3212 53.4573 55.9647 53.7393C55.7319 53.9938 55.5041 54.2532 55.28 54.5155C54.5164 55.3985 53.7295 56.2561 52.93 57.1066C52.792 57.2538 52.654 57.401 52.5118 57.5526C51.3443 58.7914 50.1496 59.9984 48.937 61.1929C48.6689 61.4638 48.6689 61.4638 48.3954 61.7402C46.7169 63.4003 45.3644 64.1744 42.9741 64.1744C42.5109 63.5623 42.3352 63.245 42.3352 62.4707C42.6101 62.1792 42.6101 62.1792 43.0133 61.8576C44.2282 60.839 45.3331 59.7178 46.4511 58.5955C46.82 58.2255 47.1899 57.8569 47.5598 57.4883C48.6657 56.3828 49.7518 55.2752 50.767 54.0845C51.1871 53.6005 51.6429 53.1583 52.1048 52.7145C53.0088 51.8214 53.8068 50.8807 54.5988 49.8885C55.1723 49.1954 55.7756 48.539 56.3906 47.8829C57.3328 46.8758 58.2229 45.8427 59.0876 44.7675C59.6589 44.0653 60.2457 43.3779 60.8362 42.6919C61.0528 42.4402 61.2694 42.1883 61.4859 41.9366C61.5937 41.8114 61.7015 41.6859 61.8124 41.5569C62.3544 40.9254 62.8934 40.2919 63.4316 39.6573C63.5764 39.4873 63.5764 39.4873 63.7239 39.3137C64.0994 38.8706 64.4604 38.4427 64.7679 37.9489C65.122 37.5543 65.122 37.5543 65.605 37.4576Z" fill="#D27502"/>
<path d="M48.724 30.1006C48.8691 30.2456 49.0139 30.3905 49.1632 30.5397C49.2596 30.636 49.3559 30.732 49.4554 30.8311C49.6943 31.0707 49.932 31.3115 50.169 31.553C50.2983 31.6842 50.4275 31.8156 50.5608 31.9508C50.6822 32.0746 50.8036 32.1983 50.9286 32.3258C51.306 32.6994 51.306 32.6994 51.9185 33.0821C51.7986 34.1984 51.4274 35.0413 50.9201 36.0235C50.8441 36.1734 50.7678 36.3231 50.6893 36.4775C49.3433 39.0816 49.3433 39.0816 48.388 40.0108C48.0304 40.3445 48.0304 40.3445 47.7789 40.9882C47.6693 41.1903 47.5594 41.3922 47.4463 41.6005C47.3145 41.622 47.1826 41.6433 47.047 41.6655C46.3227 41.9025 46.1766 42.4326 45.8359 43.0912C45.7371 43.2803 45.7371 43.2803 45.6365 43.4735C45.2924 44.1494 45.0068 44.812 44.7975 45.5403C44.5326 46.4379 44.0845 47.208 43.5998 48.0025C43.4869 48.1895 43.4869 48.1895 43.3717 48.3803C43.1809 48.6842 42.9724 48.9771 42.7611 49.2671C42.6206 49.2671 42.48 49.2671 42.3352 49.2671C42.2649 49.0563 42.1947 48.8454 42.1223 48.6282C42.0313 48.8346 41.9406 49.0412 41.8469 49.2539C40.9073 51.2988 39.7631 52.966 38.2998 54.6718C37.1424 56.006 37.1424 56.006 36.3723 57.5726C36.1945 57.5264 36.1945 57.5264 36.0128 57.4793C35.8503 57.4399 35.6879 57.4003 35.5205 57.3596C35.2673 57.2806 35.2673 57.2806 35.0089 57.1999C34.4465 57.086 34.4465 57.086 34.0314 57.4386C33.899 57.5839 33.7667 57.7291 33.6304 57.8788C33.4835 58.0371 33.3368 58.1955 33.1853 58.3586C33.0425 58.5209 32.8993 58.6832 32.752 58.8504C32.6287 58.9884 32.5054 59.1266 32.3784 59.2688C32.2602 59.403 32.1418 59.5374 32.0198 59.6756C31.898 59.8134 31.7762 59.9511 31.6505 60.0932C31.3656 60.4305 31.0945 60.7796 30.8319 61.1348C29.6685 62.6204 29.6685 62.6204 28.6542 62.8185C28.0185 62.817 27.4171 62.7793 26.7891 62.6837C27.4279 62.2577 27.4279 62.2577 27.8671 62.1779C28.3128 62.0869 28.3128 62.0869 28.4795 61.6721C28.5914 61.4348 28.5914 61.4348 28.7057 61.1929C28.8678 61.0315 29.0296 60.8701 29.1966 60.7038C29.7492 60.1494 30.2005 59.5876 30.6624 58.9568C31.2668 58.1371 31.8771 57.3256 32.5056 56.5242C33.371 55.4174 34.1677 54.2898 34.9065 53.0938C35.3791 52.3487 35.881 51.6278 36.3855 50.9044C37.8681 48.769 39.249 46.5697 40.6315 44.369C40.7959 44.1092 40.9603 43.8494 41.1247 43.5896C43.8626 39.4375 43.8626 39.4375 45.6585 34.8607C45.9556 34.3598 45.9556 34.3598 46.7516 34.0696C47.0753 33.9974 47.4001 33.9303 47.7257 33.8675C47.8875 33.8315 48.0494 33.7957 48.2161 33.7589C49.035 33.5844 49.7991 33.4626 50.6407 33.508C50.4013 33.2328 50.1617 32.9577 49.922 32.6828C49.7886 32.5296 49.6551 32.3763 49.5178 32.2185C49.262 31.9304 48.9964 31.6508 48.724 31.3784C48.6974 30.7129 48.6974 30.7129 48.724 30.1006Z" fill="#E18A07"/>
<path d="M61.9276 19.4526C61.7968 21.5064 61.3194 23.4586 60.8496 25.4555C60.764 25.8246 60.6784 26.1939 60.593 26.5629C60.1843 28.3167 59.7596 30.0644 59.2922 31.8035C59.2526 31.9521 59.2128 32.1005 59.1719 32.2537C58.987 32.9441 58.7986 33.6326 58.6028 34.32C58.261 35.5756 58.0626 36.6637 58.1052 37.9685C58.1394 39.2224 57.9848 39.7297 57.1892 40.6954C56.9941 40.9414 56.7995 41.1876 56.6053 41.4342C56.5016 41.562 56.3978 41.69 56.2909 41.8218C55.9364 42.2756 55.6093 42.7424 55.2843 43.2177C55.1714 43.3826 55.0587 43.5472 54.9425 43.7169C54.7227 44.0398 54.5033 44.3628 54.2848 44.6865C54.1831 44.8333 54.0813 44.98 53.9765 45.131C53.8875 45.2615 53.7984 45.3919 53.7067 45.5265C53.3619 45.9126 53.0299 46.0831 52.5573 46.2857C52.5573 46.0046 52.5573 45.7234 52.5573 45.4338C52.2845 45.1037 52.2845 45.1037 51.9184 44.8482C51.7076 44.6899 51.4968 44.5319 51.2795 44.369C51.6535 42.9296 52.0756 41.5185 52.5648 40.1141C52.7618 39.498 52.9172 38.8787 53.0701 38.2504C53.3208 37.2893 53.6317 36.3457 53.9283 35.398C54.4226 33.7983 54.8601 32.2204 55.1827 30.5772C55.3401 29.8191 55.5349 29.0776 55.7385 28.3305C56.0607 27.1456 56.3616 25.9583 56.6436 24.7634C56.679 24.6137 56.7145 24.4642 56.7511 24.31C56.9041 23.656 57.0297 23.0814 57.0203 22.4066C57.4113 21.3303 58.4908 21.0178 59.4785 20.544C59.6892 20.4379 59.8996 20.3321 60.1166 20.2229C61.6593 19.4526 61.6593 19.4526 61.9276 19.4526Z" fill="#DD8705"/>
<path d="M21.0392 12.6378C21.3761 14.3275 21.5924 16.0096 21.7562 17.724C21.8092 18.2549 21.8622 18.786 21.9151 19.3169C21.996 20.1385 22.0765 20.9601 22.1561 21.7819C22.4334 24.6288 22.7303 27.4697 23.1571 30.2987C23.1881 30.5155 23.219 30.7325 23.2508 30.9559C23.4501 32.2066 23.7559 33.0851 24.4465 34.1469C24.6171 34.6461 24.6171 34.6461 24.7261 35.1052C25.0807 36.3877 25.6549 37.5489 26.2309 38.743C27.0021 40.369 27.0021 40.369 27.0021 41.1746C27.1426 41.2449 27.2832 41.3151 27.428 41.3876C27.2619 42.1246 27.0924 42.8608 26.9222 43.597C26.8749 43.8068 26.8279 44.0166 26.7791 44.2325C26.7325 44.4329 26.6858 44.6333 26.6377 44.8399C26.5953 45.0249 26.5529 45.2102 26.5093 45.4008C26.3632 45.8597 26.3632 45.8597 25.9373 46.2857C25.3256 45.2153 24.9561 44.1786 24.6595 42.9848C24.4063 41.9704 24.1188 41.0696 23.609 40.1556C23.2897 39.4926 23.074 38.799 22.8493 38.0999C22.5145 37.0598 22.1451 36.0623 21.6831 35.072C21.303 34.2016 21.0038 33.3021 20.689 32.4066C20.3841 31.5415 20.0685 30.6805 19.7482 29.8212C19.6945 29.6768 19.6411 29.5324 19.5859 29.3836C19.292 28.6005 18.9698 27.8443 18.6035 27.0925C18.2491 26.3082 18.1689 25.8229 18.4836 24.9896C18.806 24.5025 19.1355 24.1349 19.5484 23.7118C19.689 23.7118 19.8295 23.7118 19.9743 23.7118C19.5263 22.9347 19.0363 22.2221 18.4836 21.5157C18.3386 21.3275 18.1938 21.1394 18.0445 20.9459C17.9082 20.8044 17.7721 20.663 17.6318 20.5174C17.4209 20.5174 17.2101 20.5174 16.9929 20.5174C16.6098 16.3981 16.6098 16.3981 17.462 15.1393C18.0639 14.6665 18.6685 14.2889 19.3355 13.9156C19.6347 13.6703 19.9288 13.4183 20.2139 13.157C20.8262 12.6378 20.8262 12.6378 21.0392 12.6378Z" fill="#FBB735"/>
<path d="M0.807587 34.9987C1.93245 35.2694 3.0309 35.5799 4.13084 35.9387C4.68199 36.0735 5.14049 36.1067 5.70569 36.0635C6.19231 35.7653 6.19231 35.7653 6.55753 35.4246C6.55753 35.5652 6.55753 35.7057 6.55753 35.8505C6.76837 35.9208 6.9792 35.9911 7.19642 36.0635C7.52118 36.5637 7.81379 37.0597 8.1015 37.5808C9.24957 39.5995 10.5154 41.5328 11.7925 43.4713C13.4392 45.9738 13.4392 45.9738 14.0644 47.1775C14.6004 48.1595 15.2359 49.0652 15.8788 49.9784C16.2798 50.55 16.6704 51.1169 17.0058 51.7293C17.5329 52.6642 18.1345 53.5404 18.7378 54.4271C19.0462 54.9003 19.3116 55.3578 19.5482 55.8689C19.2072 55.9281 18.8654 55.9832 18.5217 56.022C18.0491 56.0731 18.0491 56.0731 17.5666 56.2083C16.9168 56.3163 16.552 56.3067 15.9278 56.0818C15.1305 55.2594 14.5319 54.3351 13.9098 53.3766C13.345 52.5254 12.7308 51.7106 12.1211 50.8909C11.9963 50.7214 11.8713 50.5521 11.7427 50.3775C10.3474 48.4844 8.92438 46.6115 7.47433 44.76C6.59012 43.6304 5.73742 42.4811 4.89367 41.3211C3.85932 39.9064 2.79664 38.5334 1.65688 37.2024C1.51717 37.0374 1.37747 36.8723 1.23351 36.7024C1.10467 36.5571 0.976039 36.4119 0.843364 36.2624C0.594626 35.8505 0.594626 35.8505 0.661176 35.3714C0.709497 35.2485 0.757797 35.1254 0.807587 34.9987Z" fill="#FECC1C"/>
<path d="M36.7982 30.3135C36.7279 32.0002 36.6577 33.6868 36.5853 35.4246C36.9366 35.284 37.288 35.1435 37.6501 34.9987C37.6307 35.1801 37.6307 35.1801 37.6111 35.3654C37.5031 36.4059 37.4141 37.4454 37.344 38.4893C37.1202 41.3926 36.8463 43.6313 34.8816 45.8597C34.4556 45.4338 34.4556 45.4338 34.0297 44.7949C33.9701 45.0266 33.9107 45.2583 33.8493 45.497C33.3078 47.5172 32.6519 49.2219 31.4742 50.9708C31.3845 51.1045 31.2949 51.2382 31.2025 51.376C30.5235 52.3846 29.8299 53.3828 29.1316 54.3781C28.9728 54.606 28.8137 54.8339 28.6499 55.0686C28.3145 55.549 27.9782 56.0288 27.6409 56.5077C27.3804 55.7262 27.5059 55.5228 27.7874 54.764C28.4983 52.7236 28.9683 50.6285 29.447 48.5243C29.5303 48.1584 29.5303 48.1584 29.6155 47.7853C29.7254 47.3014 29.8344 46.8176 29.9421 46.3333C30.1649 45.3497 30.3894 44.3852 30.7288 43.4347C31.1869 42.1212 31.4126 40.7544 31.6739 39.391C31.7297 39.1065 31.7855 38.822 31.8418 38.5377C32.0488 37.4873 32.2538 36.4368 32.457 35.3858C32.5667 34.8217 32.6789 34.258 32.792 33.6943C32.8374 33.4528 32.8374 33.4528 32.8838 33.2064C33.0505 32.3842 33.2002 31.7527 33.8168 31.1654C34.3692 30.8958 34.3692 30.8958 34.988 30.6862C35.2945 30.5791 35.2945 30.5791 35.6069 30.4698C36.1593 30.3135 36.1593 30.3135 36.7982 30.3135Z" fill="#E08809"/>
<path d="M10.1781 12.8507C10.3186 12.8507 10.4592 12.8507 10.604 12.8507C11.4199 15.3581 12.1705 17.8779 12.8697 20.4204C13.1054 21.2757 13.3403 22.125 13.6221 22.9664C13.7984 23.4988 13.7984 23.4988 13.9049 24.2842C13.9645 25.0172 13.9645 25.0172 14.4373 25.6284C14.5376 26.1638 14.5376 26.1638 14.6036 26.808C14.629 27.0474 14.6543 27.2869 14.6803 27.5335C14.7054 27.7921 14.7308 28.0506 14.7567 28.317C14.7842 28.5858 14.8117 28.8545 14.84 29.1314C15.0513 31.2384 15.2261 33.3474 15.3873 35.4587C15.5266 37.2631 15.688 39.0658 15.8482 40.8683C15.8701 41.1149 15.8701 41.1149 15.8925 41.3662C15.9749 42.2962 16.0579 43.2262 16.141 44.156C15.0853 43.6283 14.5957 41.6009 14.2243 40.5357C13.8749 39.3439 13.5776 38.1394 13.2794 36.9341C12.8075 35.033 12.2361 33.1926 11.5911 31.3447C11.0964 29.9091 10.6796 28.4476 10.2579 26.9894C10.1293 26.5446 10.0007 26.0999 9.87206 25.655C9.80732 25.4316 9.74279 25.2084 9.67635 24.9782C9.32198 23.7612 8.95058 22.5554 8.54105 21.356C8.17859 20.2893 7.84382 19.2202 7.54269 18.1347C7.47071 17.877 7.39894 17.6194 7.32483 17.3538C7.13934 16.3842 7.13934 16.3842 7.40959 15.8322C7.78653 15.4154 8.16007 15.0315 8.56767 14.6477C9.16567 14.0755 9.71553 13.5444 10.1781 12.8507Z" fill="#DF8709"/>
<path d="M35.7334 2.84158C36.1152 11.2238 36.4174 19.5793 36.3723 27.971C36.2669 27.7602 36.2669 27.7602 36.1593 27.5451C36.0294 27.4814 35.8997 27.4177 35.766 27.3521C35.2523 27.091 34.9635 26.7967 34.5755 26.3738C33.7942 25.5673 33.7942 25.5673 32.7519 25.2025C32.2964 25.5066 32.2964 25.5066 31.9001 25.8414C31.803 23.2407 31.7223 20.64 31.6624 18.0383C31.6339 16.8299 31.6 15.6222 31.5532 14.4145C31.5083 13.2477 31.478 12.0815 31.458 10.9141C31.4478 10.4699 31.4322 10.0258 31.4114 9.58199C31.2565 6.19214 31.2565 6.19214 31.9785 5.21657C32.7769 4.45282 33.6881 3.97336 34.6686 3.48047C35.5451 2.84158 35.5451 2.84158 35.7334 2.84158Z" fill="#DE8708"/>
<path d="M49.7888 37.9802C50.0596 38.5219 49.9636 38.6712 49.7896 39.2396C49.7408 39.4017 49.6921 39.5635 49.642 39.7305C49.5894 39.8996 49.5368 40.0687 49.4827 40.2429C49.431 40.4137 49.3792 40.5845 49.3258 40.7604C49.1976 41.1827 49.0675 41.6045 48.9369 42.0264C49.0327 42.1093 49.1286 42.1923 49.2272 42.2777C50.4968 43.3817 51.7412 44.5119 52.9832 45.6468C52.1965 46.3018 51.3148 46.718 50.401 47.1641C50.246 47.2408 50.0907 47.3172 49.931 47.3962C49.5289 47.5945 49.1264 47.7921 48.7239 47.9893C48.1223 48.29 48.1059 48.6271 47.8721 49.2539C47.1238 51.1235 46.1041 52.8472 45.1036 54.5911C44.1108 54.6563 43.569 54.5298 42.7344 53.9923C42.5583 53.8809 42.382 53.7697 42.2003 53.6552C42.034 53.5425 41.8677 53.4296 41.6962 53.3134C41.4575 53.1607 41.4575 53.1607 41.2137 53.0048C40.8444 52.6745 40.8444 52.6745 40.7164 52.2752C40.6996 50.7514 41.325 49.6845 42.1222 48.4153C42.1924 48.6964 42.2627 48.9775 42.3351 49.2671C43.517 48.1488 44.3578 46.8278 44.771 45.2475C45.1249 43.9218 45.76 42.6898 46.5943 41.6005C47.0511 41.454 47.0511 41.454 47.4462 41.3875C47.6634 40.9637 47.8751 40.5372 48.0851 40.1098C48.6309 39.3817 49.2067 38.6797 49.7888 37.9802Z" fill="#FED72F"/>
<path d="M46.8074 13.0637C46.8127 14.3562 46.8166 15.6486 46.8191 16.9411C46.8202 17.3809 46.8217 17.8206 46.8234 18.2604C46.8262 18.892 46.8272 19.5239 46.8283 20.1555C46.8294 20.3525 46.8304 20.5495 46.8315 20.7525C46.8315 21.0274 46.8315 21.0274 46.8317 21.3079C46.8321 21.4691 46.8326 21.6305 46.833 21.7966C46.8074 22.221 46.8074 22.221 46.5945 22.8599C46.5534 23.2433 46.5216 23.6274 46.4954 24.012C46.4705 24.3549 46.4705 24.3549 46.4452 24.7046C46.412 25.1816 46.3792 25.6584 46.347 26.1355C46.2429 27.5572 46.0636 28.924 45.7426 30.3136C45.6087 30.308 45.4745 30.3025 45.3365 30.2967C44.7719 30.285 44.3597 30.3353 43.826 30.5265C43.2563 31.1656 42.9119 31.8856 42.5482 32.6561C42.46 32.8278 42.3719 32.9992 42.2812 33.176C42.0801 33.5676 41.8874 33.9633 41.6964 34.3598C41.6261 34.3598 41.5558 34.3598 41.4834 34.3598C41.5085 33.8008 41.5354 33.2418 41.5633 32.6828C41.5731 32.4566 41.5731 32.4566 41.5833 32.226C41.6337 31.2412 41.7257 30.2691 41.8478 29.2905C42.0644 27.527 42.1689 25.7788 42.2213 24.0029C42.2466 23.2878 42.2726 22.5724 42.2986 21.8573C42.3144 21.3686 42.3263 20.8796 42.3348 20.3904C42.4179 16.0663 42.4179 16.0663 43.2844 15.1452C43.8777 14.7146 44.434 14.4203 45.1037 14.1285C45.5201 13.814 45.5201 13.814 45.8623 13.4896C46.3815 13.0637 46.3815 13.0637 46.8074 13.0637Z" fill="#E08908"/>
<path d="M52.7702 46.2856C52.4339 47.2361 51.9362 48.0605 51.3991 48.9076C51.2582 49.1314 51.2581 49.1314 51.1142 49.3595C45.3911 58.3624 45.3911 58.3624 41.6962 61.1929C41.2703 60.9799 41.2703 60.9799 41.0465 60.505C40.4323 59.6323 39.6073 59.2705 38.6747 58.7839C38.495 58.687 38.315 58.5903 38.1295 58.4906C37.687 58.253 37.2432 58.0181 36.7981 57.7855C36.9927 57.5259 37.1874 57.2663 37.382 57.0069C37.499 56.8511 37.6159 56.695 37.7362 56.5344C38.0047 56.1768 38.2739 55.8197 38.5433 55.463C39.3656 54.3579 40.063 53.291 40.6314 52.0356C40.7632 52.1849 40.895 52.3342 41.0307 52.4881C42.1145 53.5689 43.5485 54.5093 45.1036 54.5911C45.1521 54.4565 45.2007 54.3221 45.2507 54.1835C45.7167 53.0848 46.3028 52.0481 46.8667 50.9974C46.9589 50.8245 47.0509 50.6516 47.1459 50.4733C47.2817 50.2201 47.2817 50.2201 47.4204 49.9616C47.6331 49.5326 47.7867 49.1174 47.9385 48.6648C48.4392 47.724 49.064 47.4729 50.0149 47.0576C50.171 46.9848 50.3271 46.9122 50.4879 46.8372C50.8919 46.6494 51.2984 46.4671 51.7054 46.2856C52.1313 46.0727 52.1313 46.0727 52.7702 46.2856Z" fill="#DE8B05"/>
<path d="M28.8012 12.5339C29.1732 12.5409 29.5453 12.5537 29.9169 12.5714C30.1069 12.576 30.297 12.5809 30.493 12.5858C30.9623 12.5984 31.431 12.6159 31.9 12.6378C31.9247 14.3854 31.9436 16.1329 31.9551 17.8807C31.9607 18.6925 31.9683 19.5041 31.9803 20.3157C31.992 21.1 31.9984 21.8841 32.0011 22.6685C32.0031 22.9668 32.0069 23.265 32.0126 23.5631C32.0457 25.3409 31.9899 26.5774 30.8352 27.971C30.6365 28.3017 30.4404 28.6339 30.2495 28.9694C30.1629 29.1195 30.0762 29.2696 29.9867 29.4242C29.7501 29.9313 29.6462 30.4017 29.5574 30.9524C29.4871 30.9524 29.4169 30.9524 29.3445 30.9524C28.7511 26.4387 28.1817 21.9246 27.6955 17.3981C27.6789 17.2444 27.6623 17.0908 27.6452 16.9326C27.6009 16.5209 27.5571 16.1093 27.5134 15.6974C27.4419 14.9842 27.4419 14.9842 27.2709 14.3136C27.2148 13.7026 27.2148 13.7026 27.392 13.0946C27.9308 12.5616 28.0703 12.5639 28.8012 12.5339Z" fill="#FCA415"/>
<path d="M42.1222 10.2952C42.7132 10.5837 43.283 10.8941 43.8491 11.2286C44.0099 11.3233 44.1704 11.418 44.3359 11.5156C44.5014 11.6136 44.6669 11.7116 44.8374 11.8126C45.0907 11.9621 45.0907 11.9621 45.349 12.1146C45.7643 12.3597 46.1795 12.6052 46.5944 12.8508C45.9657 13.7056 45.2896 14.3098 44.4381 14.9403C44.2137 15.1088 43.989 15.277 43.7577 15.4504C43.187 15.8322 43.187 15.8322 42.7611 15.8322C42.766 16.1101 42.7709 16.3878 42.776 16.674C42.8011 18.727 42.7594 20.6317 42.3352 22.647C41.1404 22.647 39.9457 22.647 38.7148 22.647C38.6912 21.3185 38.6893 19.9922 38.7078 18.6635C38.7125 18.1942 38.7127 17.7246 38.7086 17.2552C38.6859 12.9764 38.6859 12.9764 39.8329 11.781C40.5416 11.1759 41.2938 10.7181 42.1222 10.2952Z" fill="#FDD432"/>
<path d="M14.6503 27.3321C15.1493 27.8311 15.3058 28.2466 15.5703 28.9002C15.6661 29.1357 15.7617 29.371 15.8603 29.6136C16.0124 29.9931 16.0124 29.9931 16.1676 30.38C16.2716 30.6371 16.3753 30.8939 16.4824 31.1588C17.3438 33.2989 18.1735 35.4506 18.9789 37.6126C19.1218 37.9953 19.1218 37.9953 19.3354 38.4061C19.3399 38.8942 19.3333 39.3823 19.322 39.8702C19.295 41.8955 19.4509 43.9033 19.6099 45.9213C19.703 47.1113 19.7892 48.2862 19.7613 49.4801C18.931 48.7245 18.3371 47.8479 17.7116 46.9245C17.6072 46.7729 17.5029 46.6215 17.3954 46.4654C15.7532 44.0604 15.6371 41.5507 15.3822 38.6989C15.3543 38.3948 15.3264 38.0907 15.2983 37.7864C15.1314 35.9487 14.99 34.1122 14.9082 32.2686C14.8756 31.596 14.8756 31.596 14.7525 30.9591C14.6341 30.2114 14.6298 29.4996 14.6369 28.743C14.6388 28.4779 14.6407 28.2127 14.6428 27.9395C14.6452 27.7391 14.6477 27.5387 14.6503 27.3321Z" fill="#FDAF15"/>
<path d="M21.465 16.4711C22.0975 16.5414 22.73 16.6117 23.3817 16.6841C23.3817 16.8949 23.3817 17.1057 23.3817 17.3229C23.5222 17.3229 23.6628 17.3229 23.8076 17.3229C24.4914 20.8952 25.118 24.4703 25.6444 28.0694C25.7085 28.5032 25.7773 28.9363 25.8473 29.3693C25.9949 30.5691 26.0213 31.7738 26.0663 32.9809C26.0742 33.1732 26.082 33.3655 26.0903 33.5638C26.0967 33.7371 26.1033 33.9105 26.1099 34.0892C26.1489 34.5572 26.2492 34.9704 26.3631 35.4246C26.378 36.0124 26.3832 36.5942 26.3766 37.1816C26.3755 37.3402 26.3746 37.4989 26.3736 37.6624C26.371 38.0524 26.3672 38.4421 26.3631 38.832C25.198 37.7761 24.8055 36.1715 24.4265 34.691C24.2399 34.1036 24.2399 34.1036 23.8136 33.4705C23.2626 32.5288 23.1234 31.5828 22.9692 30.5133C22.9357 30.2944 22.9023 30.0755 22.8678 29.8499C22.372 26.4451 22.0296 23.0169 21.668 19.5957C21.6475 19.4038 21.6269 19.2119 21.6056 19.0141C21.5172 18.1629 21.4382 17.3285 21.465 16.4711Z" fill="#FED31F"/>
<path d="M50.9067 28.743C51.1495 28.7325 51.3921 28.7221 51.6421 28.7115C52.5623 28.8575 52.823 29.1766 53.409 29.8876C53.5683 30.0804 53.7274 30.2731 53.8916 30.4716C54.5158 31.4574 54.9751 32.2498 54.8297 33.4452C54.5273 34.7391 54.0737 35.9785 53.6069 37.221C53.3643 37.8907 53.1933 38.5503 53.0363 39.2447C52.8428 40.0619 52.6038 40.8296 52.2935 41.6097C51.995 42.3763 51.7475 43.1611 51.4924 43.9431C50.8535 43.9431 50.8535 43.9431 50.4874 43.6394C50.3622 43.5069 50.2372 43.3742 50.1081 43.2377C49.9829 43.1068 49.8577 42.9758 49.7288 42.8408C49.5476 42.6485 49.5476 42.6485 49.3628 42.4523C49.1504 42.2387 48.9379 42.0254 48.7239 41.8135C48.7982 41.5773 48.8727 41.3413 48.9494 41.0981C49.0471 40.7863 49.1451 40.4748 49.2431 40.163C49.2921 40.0075 49.341 39.8523 49.3915 39.6922C49.4388 39.5412 49.4861 39.3902 49.535 39.2347C49.5785 39.0963 49.6219 38.9581 49.6667 38.8156C49.7484 38.5409 49.8217 38.2636 49.8864 37.9846C50.0127 37.5127 50.1903 37.0983 50.3952 36.6549C50.4712 36.4877 50.5475 36.3203 50.626 36.1478C50.787 35.7977 50.9485 35.4478 51.1101 35.0982C51.1861 34.931 51.2619 34.764 51.3401 34.5919C51.4102 34.4401 51.4802 34.2883 51.5522 34.1317C51.7424 33.6943 51.7424 33.6943 51.7053 33.0821C51.3725 32.727 51.3725 32.727 50.9333 32.3899C50.0941 31.6895 49.4145 30.9467 48.7239 30.1006C49.4196 28.921 49.514 28.7836 50.9067 28.743Z" fill="#FAA81C"/>
<path d="M21.0392 12.6378C21.3831 14.3592 21.6007 16.075 21.7713 17.8213C21.7979 18.086 21.8248 18.3509 21.8522 18.6237C21.937 19.4632 22.0207 20.3031 22.104 21.1431C22.1872 21.9821 22.2709 22.821 22.3557 23.66C22.4081 24.1797 22.4598 24.6995 22.5107 25.2196C22.6506 26.6051 22.8348 27.9706 23.0838 29.3412C23.1915 30.0335 23.2005 30.6797 23.1688 31.3784C22.7017 30.7979 22.3927 30.2669 22.1323 29.5699C22.0631 29.3861 21.9936 29.2024 21.9223 29.0128C21.8505 28.8184 21.7788 28.6239 21.7047 28.4236C21.6288 28.2232 21.5528 28.0228 21.4747 27.8164C21.1465 26.9456 20.8253 26.0767 20.5534 25.1868C19.9594 23.2927 19.0944 21.8707 17.6318 20.5174C17.4209 20.5174 17.2101 20.5174 16.9929 20.5174C16.6098 16.3981 16.6098 16.3981 17.462 15.1393C18.0639 14.6665 18.6685 14.2889 19.3355 13.9156C19.6347 13.6703 19.9288 13.4183 20.2139 13.157C20.8262 12.6378 20.8262 12.6378 21.0392 12.6378Z" fill="#F89B14"/>
<path d="M20.1871 55.8689C20.2853 56.0729 20.3837 56.2769 20.4848 56.4869C21.5594 58.6896 22.7537 60.7994 24.0204 62.8966C24.1388 62.8815 24.2572 62.8662 24.3793 62.8504C25.4801 62.7173 26.5453 62.6604 27.654 62.6704C28.0729 62.6732 28.0729 62.6732 28.5001 62.6762C28.7086 62.6785 28.9168 62.6811 29.1315 62.6837C29.0442 62.7942 28.9569 62.9049 28.867 63.0189C28.6949 63.2416 28.6949 63.2416 28.5192 63.469C28.4055 63.6147 28.292 63.7604 28.1749 63.9107C27.8399 64.4078 27.6308 64.8897 27.4278 65.4521C24.815 65.5823 22.3312 65.4406 20.1871 63.7485C19.8144 63.2793 19.5212 62.7799 19.2288 62.2577C19.1472 62.1172 19.0657 61.9766 18.9816 61.8318C18.3644 60.7561 17.8054 59.6545 17.2664 58.5375C17.0319 58.0758 16.7842 57.6625 16.4869 57.2399C16.1409 56.7207 16.1409 56.7207 16.1409 56.0819C17.5 55.9064 18.8172 55.8431 20.1871 55.8689Z" fill="#EDD6AB"/>
<path d="M49.7888 37.9802C50.0597 38.5219 49.9636 38.6712 49.7897 39.2396C49.7409 39.4017 49.6921 39.5635 49.6421 39.7305C49.5895 39.8996 49.5369 40.0687 49.4826 40.2429C49.431 40.4137 49.3793 40.5845 49.3258 40.7604C49.1976 41.1827 49.0675 41.6045 48.937 42.0264C49.0328 42.1093 49.1286 42.1923 49.2272 42.2777C50.4967 43.3817 51.7412 44.5119 52.9832 45.6468C52.2971 46.2028 51.5836 46.5853 50.7872 46.9646C50.555 47.0772 50.3231 47.1901 50.0842 47.3064C49.2868 47.5905 48.7123 47.6467 47.8721 47.5634C47.4341 47.2237 47.0077 46.8681 46.5944 46.4986C45.8995 46.2124 45.4278 46.0727 44.6777 46.0727C44.9299 44.3911 45.5513 42.956 46.5944 41.6005C47.0518 41.4533 47.0518 41.4533 47.4462 41.3875C47.6634 40.9637 47.8751 40.5372 48.0851 40.1098C48.6309 39.3817 49.2068 38.6797 49.7888 37.9802Z" fill="#FCCA44"/>
<path d="M40.6314 52.0356C40.7632 52.1849 40.895 52.3342 41.0307 52.4882C42.0808 53.5383 43.4152 54.3699 44.8906 54.5911C44.2204 56.0474 43.4265 57.3669 42.5197 58.6881C42.1541 59.2292 41.8135 59.778 41.4832 60.3411C40.8827 60.0455 40.2945 59.7335 39.7097 59.4077C39.4544 59.2656 39.4544 59.2656 39.1939 59.1208C39.0182 59.0227 38.8425 58.9247 38.6615 58.8237C38.4826 58.7241 38.3035 58.6244 38.1191 58.5218C37.6787 58.2764 37.2383 58.0311 36.7981 57.7856C36.9927 57.526 37.1874 57.2664 37.382 57.007C37.499 56.8511 37.6159 56.695 37.7362 56.5344C38.0047 56.1769 38.2739 55.8197 38.5433 55.463C39.3656 54.358 40.063 53.291 40.6314 52.0356Z" fill="#FAA215"/>
<path d="M19.1223 38.4061C19.6521 39.2008 19.9684 40.0233 20.3202 40.9084C20.3941 41.0938 20.468 41.2793 20.544 41.4704C21.1258 42.9494 21.671 44.4399 22.1968 45.9396C22.2696 46.1457 22.3424 46.3519 22.4174 46.5642C23.0365 48.3552 23.1983 49.9081 23.1817 51.796C23.1809 52.0036 23.1798 52.2111 23.1789 52.4249C23.1764 52.9341 23.173 53.443 23.1685 53.9522C22.9577 54.0576 22.9577 54.0576 22.7426 54.1652C22.769 54.0114 22.7952 53.8577 22.8225 53.6992C22.8018 53.0384 22.8018 53.0384 22.157 52.5946C21.9815 52.4641 21.9815 52.4641 21.8026 52.3309C21.4316 52.0066 21.2431 51.71 21.0123 51.277C20.6735 50.5508 20.6735 50.5508 20.176 50.1751C19.6095 49.5169 19.5908 48.8938 19.5382 48.06C19.5252 47.8997 19.5122 47.7393 19.4988 47.574C19.4719 47.2335 19.447 46.8928 19.4238 46.552C19.3891 46.0437 19.3491 45.536 19.3077 45.0283C19.1361 42.8182 19.0903 40.6221 19.1223 38.4061Z" fill="#E3890D"/>
<path d="M4.42809 30.3135C5.23032 30.604 5.88603 30.9692 6.58433 31.4582C6.76492 31.5828 6.94551 31.7074 7.13164 31.8358C7.62251 32.2302 7.62251 32.2302 7.95771 32.701C8.05802 32.8267 8.15811 32.9526 8.26139 33.082C9.03359 33.1532 9.03359 33.1532 9.75212 33.082C9.6318 33.1325 9.51169 33.183 9.38774 33.2351C8.7923 33.5684 8.39023 33.9771 7.91533 34.4663C7.75007 34.6354 7.58482 34.8045 7.41445 34.9787C7.2724 35.1258 7.13014 35.273 6.98363 35.4246C6.5577 35.8505 6.5577 35.8505 6.13178 35.8505C5.99123 35.9911 5.85067 36.1316 5.70586 36.2764C4.34653 36.2251 3.1433 35.8096 1.86255 35.3697C1.24625 35.2148 0.96471 35.201 0.381836 35.4246C0.381836 34.2793 1.34868 33.4792 2.08552 32.6561C2.51634 32.2519 2.95462 31.8707 3.41397 31.4997C3.81817 31.1396 4.11738 30.7554 4.42809 30.3135Z" fill="#FDD443"/>
<path d="M46.3816 22.86C46.4519 22.86 46.5222 22.86 46.5946 22.86C46.6385 23.0489 46.6823 23.2377 46.7277 23.4324C47.0118 24.1164 47.1287 24.2821 47.6777 24.7142C47.8826 24.8754 48.0872 25.0364 48.2983 25.2025C48.2546 25.4466 48.211 25.6906 48.166 25.9421C48.1081 26.268 48.0502 26.5938 47.992 26.9194C47.9635 27.0798 47.9348 27.2399 47.9052 27.405C47.7335 28.3724 47.5795 29.3399 47.4464 30.3136C47.8494 30.4586 47.8494 30.4586 48.2983 30.5266C48.4388 30.386 48.5794 30.2454 48.7242 30.1006C48.7638 30.3159 48.8032 30.531 48.8439 30.7527C49.0939 31.6638 49.6391 32.1508 50.3297 32.7669C50.6409 33.0821 50.6409 33.0821 50.6409 33.508C47.5227 34.2957 47.5227 34.2957 46.3816 34.1469C45.9689 33.8541 45.9689 33.8541 45.7428 33.508C45.7428 33.3675 45.7428 33.2269 45.7428 33.0821C45.6154 33.0337 45.488 32.9854 45.3569 32.9356C44.754 32.574 44.5587 32.2194 44.252 31.5914C44.1055 30.9925 44.1055 30.9925 44.0391 30.5266C44.777 30.4211 44.777 30.4211 45.5298 30.3136C45.9598 27.8262 46.2807 25.384 46.3816 22.86Z" fill="#FCC740"/>
<path d="M13.3724 12.8507C13.4427 13.0616 13.513 13.2724 13.5854 13.4896C13.9861 13.6174 13.9861 13.6174 14.4372 13.7026C14.8075 13.9028 14.8075 13.9028 15.1726 14.1426C15.3044 14.2284 15.4362 14.3142 15.5719 14.4026C15.7069 14.4922 15.8421 14.5819 15.9812 14.6741C16.1196 14.7646 16.2578 14.8551 16.4005 14.9484C16.7406 15.1709 17.0796 15.395 17.4187 15.6192C17.2078 15.7246 17.2078 15.7246 16.9927 15.8322C17.007 15.9727 17.0213 16.1133 17.036 16.2581C17.0964 16.901 17.1446 17.5442 17.1925 18.188C17.2151 18.4092 17.2376 18.6303 17.2611 18.8582C17.3697 20.4884 17.3697 20.4884 16.8912 21.1941C16.4918 21.5855 16.4919 21.5855 16.0896 21.9075C15.2739 22.5901 14.904 23.6281 14.4372 24.5636C14.0594 22.2875 13.7349 20.0384 13.6473 17.7307C13.6143 16.8663 13.5155 16.0452 13.3724 15.1933C13.3588 14.7765 13.3541 14.3591 13.3592 13.9422C13.3611 13.7362 13.363 13.5303 13.3649 13.3182C13.3673 13.164 13.3698 13.0096 13.3724 12.8507Z" fill="#FEDA23"/>
<path d="M8.30163 10.1621C8.49926 10.2763 8.69689 10.3905 8.90048 10.5082C9.12877 10.5872 9.35728 10.6663 9.5926 10.7478C10.3137 11.2394 10.4261 11.5852 10.66 12.3966C10.5695 13.1327 10.0762 13.4311 9.53936 13.9156C9.35622 14.0987 9.17307 14.2819 8.9846 14.4703C8.31761 15.1373 7.65082 15.8041 6.98383 16.4711C6.86713 16.3397 6.75042 16.2081 6.63031 16.0727C6.08364 15.5754 5.67284 15.404 4.9739 15.1801C4.14804 14.9124 3.45677 14.5977 2.72461 14.1285C3.4868 13.3172 4.30563 12.638 5.19453 11.9682C5.54187 11.6999 5.88069 11.4203 6.21099 11.1313C7.45596 10.0627 7.45596 10.0627 8.30163 10.1621Z" fill="#FCC842"/>
<path d="M63.2055 32.2302C63.8714 32.3606 64.3146 32.5771 64.8651 32.9707C65.0915 33.1313 65.0915 33.1313 65.3226 33.295C65.4804 33.4092 65.6384 33.5233 65.8011 33.6411C65.9627 33.7569 66.1244 33.8728 66.2911 33.9921C69.4387 36.2563 69.4387 36.2563 70.2332 37.3413C64.2744 37.6965 64.2744 37.6965 62.7263 36.383C62.2306 35.844 62.2306 35.844 61.9277 35.4246C61.3185 35.7141 60.893 35.9879 60.437 36.4894C60.437 35.6095 60.8082 35.29 61.3421 34.5994C61.5101 34.3803 61.6781 34.1614 61.8513 33.9356C62.2994 33.3642 62.7504 32.7958 63.2055 32.2302Z" fill="#FCBA34"/>
<path d="M36.3723 23.9247C36.4426 23.9247 36.5128 23.9247 36.5853 23.9247C36.5861 24.0546 36.587 24.1845 36.5878 24.3183C36.5948 24.9105 36.61 25.5023 36.6253 26.0944C36.6264 26.2986 36.6276 26.503 36.6289 26.7136C36.6504 28.0195 36.6504 28.0195 37.3415 29.0733C37.5136 29.2015 37.6856 29.3297 37.863 29.4617C38.0036 29.3914 38.1441 29.3211 38.2889 29.2487C38.2008 30.278 37.7642 30.7026 37.0112 31.3783C37.0112 31.027 37.0112 30.6756 37.0112 30.3135C36.7854 30.3904 36.5599 30.4673 36.3274 30.5465C36.0318 30.6464 35.7362 30.7461 35.4406 30.8459C35.2917 30.8966 35.1431 30.9475 34.9898 30.9999C33.8651 31.3783 33.8651 31.3783 33.3908 31.3783C33.0782 30.7533 32.766 30.1281 32.4557 29.5017C32.2523 29.0986 32.0434 28.698 31.8237 28.3036C31.5807 27.8645 31.5807 27.8645 31.2612 27.1191C31.5728 26.273 32.1699 25.6633 32.752 24.9895C33.6607 25.2838 34.1624 25.697 34.8151 26.387C35.4218 27.0542 35.4218 27.0542 36.1593 27.5451C36.2296 26.3503 36.2999 25.1556 36.3723 23.9247Z" fill="#FBC845"/>
<path d="M17.2059 20.3044C18.0601 20.6355 18.499 21.1865 19.0693 21.8884C19.2395 22.0945 19.4098 22.3007 19.5851 22.513C19.9744 23.0729 19.9744 23.0729 19.9744 23.7118C19.8119 23.8391 19.6494 23.9665 19.482 24.0976C18.867 24.5193 18.867 24.5193 18.67 25.1893C18.0469 26.2068 17.047 26.5639 15.9281 26.9062C15.2136 26.9345 15.2136 26.9345 14.6504 26.9062C14.5009 26.6059 14.3552 26.3039 14.2112 26.0011C14.1297 25.8331 14.0481 25.665 13.9642 25.4919C13.7772 24.925 13.7883 24.6848 14.0115 24.1377C14.152 23.9971 14.2926 23.8566 14.4374 23.7118C14.556 23.5625 14.6746 23.4132 14.7969 23.2592C15.3261 22.6012 15.8806 21.9712 16.4422 21.3409C16.8147 20.9181 16.8147 20.9181 17.2059 20.3044Z" fill="#FDD140"/>
<path d="M32.0123 0.363414C32.1861 0.478434 32.3599 0.593454 32.539 0.711967C32.8214 0.866896 33.1046 1.02038 33.3883 1.17284C33.6958 1.34674 34.0027 1.52158 34.3091 1.69691C34.8494 2.00439 35.3897 2.31184 35.9463 2.62862C35.9463 4.03416 35.9463 5.4397 35.9463 6.88784C35.8761 6.88784 35.8058 6.88784 35.7334 6.88784C35.628 4.99035 35.628 4.99035 35.5204 3.05454C35.2972 3.22118 35.0741 3.3878 34.8441 3.55949C34.5504 3.7772 34.2569 3.99489 33.9633 4.21251C33.7426 4.37743 33.7426 4.37743 33.5177 4.54569C33.3757 4.65068 33.2337 4.75569 33.0871 4.86388C32.8914 5.00941 32.8914 5.00941 32.6919 5.15789C32.326 5.39711 32.326 5.39711 31.6871 5.61007C31.6871 5.46952 31.6871 5.32896 31.6871 5.18415C31.5342 5.12761 31.3813 5.07104 31.2237 5.01278C30.4158 4.67078 29.7047 4.21 28.9627 3.745C28.5208 3.44564 28.5208 3.44564 28.0668 3.48046C27.9262 3.62102 27.7857 3.76157 27.6409 3.90638C27.7133 3.2944 27.7655 2.93577 28.1935 2.47935C28.6633 2.13889 29.1335 1.80073 29.6108 1.47064C29.7735 1.35 29.9364 1.22933 30.104 1.10503C31.3027 0.261405 31.3027 0.261406 32.0123 0.363414Z" fill="#FACC44"/>
<path d="M56.3908 15.4063C57.3992 15.8812 58.26 16.5376 59.1593 17.1899C59.3312 17.3127 59.503 17.4358 59.68 17.5625C60.4874 18.1461 61.2555 18.7108 61.9278 19.4526C61.2331 19.851 60.5359 20.2446 59.8382 20.6371C59.6404 20.7508 59.4426 20.8643 59.2388 20.9812C59.0486 21.0875 58.8586 21.194 58.6627 21.3034C58.4876 21.4027 58.3126 21.5021 58.1322 21.6043C57.6686 21.7951 57.6686 21.7951 57.0297 21.5822C56.8185 21.1554 56.8185 21.1554 56.6304 20.6107C56.3504 19.8506 56.0456 19.2053 55.5922 18.5343C55.2871 18.0598 55.1112 17.7412 54.9666 17.1899C55.1974 16.3927 55.776 15.9389 56.3908 15.4063Z" fill="#FCCD45"/>
<path d="M37.6501 34.9987C37.6307 35.1801 37.6307 35.1801 37.6109 35.3654C37.5032 36.4059 37.414 37.4454 37.3439 38.4893C37.1203 41.3926 36.8464 43.6313 34.8816 45.8597C34.2902 45.2683 34.2031 44.7568 34.0298 43.9431C34.0532 42.743 34.5079 41.7892 34.9807 40.7086C35.4964 39.4773 35.8813 38.1944 36.2846 36.9228C36.3451 36.7352 36.4058 36.5478 36.468 36.3546C36.5214 36.1857 36.5749 36.0169 36.63 35.8429C36.8551 35.2832 37.0189 34.9987 37.6501 34.9987Z" fill="#B7937B"/>
<path d="M7.19653 44.582C8.02559 45.2505 8.61698 45.7469 9.11318 46.7116C9.04291 46.7819 8.97263 46.8521 8.90022 46.9245C8.70558 50.1963 9.10126 53.5129 9.56572 56.7474C9.7576 58.0952 9.79764 59.4075 9.75207 60.767C9.54123 60.6967 9.3304 60.6265 9.11318 60.554C9.11318 60.9054 9.11318 61.2568 9.11318 61.6189C9.04291 61.6189 8.97263 61.6189 8.90022 61.6189C8.80119 60.5809 8.70387 59.5427 8.6074 58.5043C8.59271 58.3469 8.57801 58.1898 8.56311 58.0277C8.35185 55.7477 8.18382 53.4695 8.04838 51.1838C7.91336 48.9449 7.67846 46.7729 7.19653 44.582Z" fill="#FAEBA8"/>
<path d="M46.3813 22.86C46.4516 22.86 46.5219 22.86 46.5943 22.86C46.6601 23.1432 46.6601 23.1432 46.7274 23.4324C47.0115 24.1164 47.1284 24.2821 47.6774 24.7142C47.8823 24.8754 48.0869 25.0364 48.298 25.2025C48.207 25.7754 48.1135 26.3474 48.0186 26.9194C47.9934 27.0798 47.9683 27.2399 47.9423 27.405C47.7641 28.4604 47.4791 29.3457 47.0202 30.3136C46.5985 30.3136 46.1769 30.3136 45.7424 30.3136C45.7708 30.061 45.7991 29.8084 45.828 29.5482C46.0727 27.3202 46.264 25.0986 46.3813 22.86Z" fill="#F6AB2E"/>
<path d="M27.6142 62.6705C27.8342 62.6717 27.8342 62.6717 28.0585 62.6732C28.4162 62.6758 28.7738 62.6796 29.1316 62.6837C28.7057 63.2516 28.2797 63.8194 27.8538 64.3874C27.7509 64.543 27.6479 64.6987 27.5418 64.8591C27.2149 65.2392 27.2149 65.2392 26.4163 65.4123C25.7536 65.3889 25.5515 65.2784 25.0687 64.809C24.6943 64.326 24.348 63.8383 24.0205 63.3226C25.1296 62.5831 26.3169 62.6541 27.6142 62.6705Z" fill="#C4A78D"/>
<path d="M34.4555 56.9337C34.6663 57.004 34.8771 57.0743 35.0944 57.1467C35.0944 63.8933 35.0944 70.6399 35.0944 77.5909C35.0241 77.5909 34.9538 77.5909 34.8814 77.5909C34.8814 70.9146 34.8814 64.2383 34.8814 57.3596C34.7408 57.3596 34.6003 57.3596 34.4555 57.3596C34.4012 57.4859 34.3469 57.6122 34.2908 57.7423C34.0044 58.2566 33.7118 58.5335 33.2576 58.9036C33.123 59.0146 32.9886 59.1255 32.85 59.2397C32.7473 59.3221 32.6447 59.4045 32.5388 59.4892C32.6559 58.664 33.0235 58.2975 33.6168 57.7323C33.7731 57.582 33.9292 57.4314 34.0902 57.2764C34.2108 57.1633 34.3313 57.0502 34.4555 56.9337Z" fill="#F0E9B5"/>
<path d="M40.6316 51.1837C40.8676 51.9734 40.8676 51.9734 40.6608 52.5339C39.6194 54.4003 38.3678 56.3131 36.7983 57.7855C36.5875 57.7153 36.3766 57.645 36.1594 57.5726C36.7653 56.4435 37.4576 55.4815 38.2758 54.4978C39.1545 53.4401 39.9293 52.3676 40.6316 51.1837Z" fill="#BC9479"/>
<path d="M7.19653 44.582C8.02559 45.2505 8.61698 45.7469 9.11318 46.7116C9.04291 46.7819 8.97263 46.8521 8.90022 46.9245C8.88169 47.2883 8.87743 47.6527 8.87935 48.0168C8.8802 48.237 8.88084 48.4574 8.88148 48.6845C8.88319 48.9162 8.8851 49.1481 8.88702 49.3868C8.88787 49.6196 8.88894 49.8521 8.88979 50.0919C8.89234 50.6688 8.89575 51.2457 8.90022 51.8226C8.68939 51.7524 8.47856 51.6821 8.26134 51.6097C8.23791 51.4057 8.2147 51.2016 8.19064 50.9917C7.93679 48.8391 7.592 46.7126 7.19653 44.582Z" fill="#FAE79E"/>
<path d="M57.6683 36.0635C57.8089 36.0635 57.9494 36.0635 58.0942 36.0635C58.3572 38.4116 58.0644 39.6924 56.5969 41.5332C56.4585 41.6959 56.3201 41.8586 56.1776 42.0264C55.9646 41.6005 55.9646 41.6005 56.0739 41.1814C56.1361 41.0134 56.1984 40.8453 56.2625 40.6722C56.3294 40.4871 56.3965 40.3021 56.4655 40.1115C56.5373 39.9177 56.6093 39.7239 56.6834 39.5241C57.3165 37.8317 57.3165 37.8317 57.6683 36.0635Z" fill="#BC8E63"/>
<path d="M46.5944 41.6005C46.8052 41.6005 47.016 41.6005 47.2333 41.6005C46.7873 43.2009 46.095 44.5221 45.1037 45.8597C44.9631 45.93 44.8225 46.0003 44.6777 46.0727C44.9303 44.3892 45.559 42.9634 46.5944 41.6005Z" fill="#F5E5CB"/>
<path d="M9.11325 56.2948C9.94869 57.1302 9.76427 58.464 9.76555 59.5825C9.76214 59.9773 9.75809 60.3722 9.75213 60.767C9.5413 60.6967 9.33047 60.6264 9.11325 60.554C9.11325 60.9054 9.11325 61.2568 9.11325 61.6188C9.04297 61.6188 8.97269 61.6188 8.90029 61.6188C8.89411 60.8911 8.89028 60.1637 8.88708 59.436C8.88517 59.2298 8.88346 59.0237 8.88155 58.8111C8.88091 58.6122 8.88027 58.4131 8.87963 58.208C8.87835 58.0253 8.87729 57.8424 8.87622 57.6539C8.89922 57.1707 8.9778 56.7578 9.11325 56.2948Z" fill="#FAEBA1"/>
<path d="M44.4649 44.7949C44.5352 44.7949 44.6054 44.7949 44.6778 44.7949C44.7984 46.1325 44.4775 46.8097 43.7461 47.8696C43.6584 48.0051 43.5704 48.1405 43.4799 48.28C43.2544 48.6188 43.0091 48.9444 42.7612 49.2671C42.6206 49.2671 42.4801 49.2671 42.3353 49.2671C42.1756 48.7879 42.1756 48.7879 42.1223 48.2023C42.4041 47.916 42.6886 47.6326 42.9742 47.3504C43.2474 46.9136 43.5089 46.4694 43.7596 46.0194C43.9891 45.6082 44.2227 45.1991 44.4649 44.7949Z" fill="#BB760A"/>
<path d="M49.7889 37.9802C50.0018 38.4061 50.0018 38.4061 49.7897 39.1466C49.689 39.4415 49.5866 39.736 49.4826 40.0299C49.4311 40.1803 49.3793 40.3308 49.3259 40.4859C49.1977 40.8579 49.0676 41.2293 48.937 41.6005C48.5856 41.5302 48.2343 41.4599 47.8722 41.3875C47.8109 40.7361 47.8075 40.4171 48.1834 39.8685C48.3179 39.7286 48.4523 39.5884 48.591 39.4443C49.0465 38.9626 49.4187 38.5354 49.7889 37.9802Z" fill="#F5F3E2"/>
<path d="M34.0298 43.9431C34.4508 44.7502 34.6687 45.3578 34.6687 46.2856C34.3156 46.9196 33.8935 47.4663 33.3909 47.9893C33.3207 47.9893 33.2504 47.9893 33.178 47.9893C33.3349 46.6083 33.6791 45.2864 34.0298 43.9431Z" fill="#F1D8AA"/>
<path d="M20.6133 9.01746C21.8191 9.33198 21.8191 9.33198 22.1839 9.89592C22.2497 10.0936 22.2497 10.0936 22.317 10.2952C21.6845 10.8223 21.6845 10.8223 21.0392 11.36C20.8986 10.587 20.7581 9.81393 20.6133 9.01746Z" fill="#FBC62B"/>
<path d="M4.42806 30.3135C4.56861 30.3135 4.70917 30.3135 4.85398 30.3135C4.56478 30.9616 4.23959 31.4045 3.73423 31.9007C3.60113 32.0326 3.46803 32.1644 3.33088 32.3C3.19225 32.4351 3.05361 32.5703 2.91071 32.7093C2.77037 32.8478 2.63024 32.986 2.48564 33.1287C2.14022 33.469 1.79394 33.8084 1.4466 34.1468C1.37633 34.0063 1.30605 33.8657 1.23364 33.7209C1.84058 32.9743 2.4373 32.2617 3.19033 31.6577C3.70804 31.232 4.03493 30.8444 4.42806 30.3135Z" fill="#FAD84B"/>
<path d="M42.1222 48.4153C42.1925 48.4153 42.2628 48.4153 42.3352 48.4153C42.516 48.9937 42.6165 49.3159 42.5482 49.906C42.122 50.5476 41.612 51.0773 41.0574 51.6097C40.9118 51.2602 40.9118 51.2602 40.8445 50.7578C41.1032 50.1622 41.1032 50.1622 41.4702 49.5333C41.5905 49.3235 41.711 49.1138 41.8352 48.8978C41.9299 48.7385 42.0247 48.5792 42.1222 48.4153Z" fill="#ECCF9F"/>
<path d="M7.19653 44.582C8.44768 45.5669 8.44768 45.5669 8.68726 46.2857C8.59398 46.8581 8.59398 46.8581 8.4743 47.3505C8.26347 47.3505 8.05264 47.3505 7.83542 47.3505C7.62458 46.4369 7.41375 45.5233 7.19653 44.582Z" fill="#FCDF90"/>
<path d="M37.8631 55.6559C38.0037 55.7965 38.1442 55.937 38.289 56.0818C37.7971 56.6441 37.3052 57.2063 36.7983 57.7855C36.5875 57.7152 36.3766 57.645 36.1594 57.5726C37.0113 55.9298 37.0113 55.9298 37.8631 55.6559Z" fill="#C6926F"/>
<path d="M9.7521 33.0821C9.63178 33.1325 9.51167 33.183 9.38773 33.2352C8.79229 33.5685 8.39022 33.9771 7.91531 34.4663C7.75006 34.6354 7.5848 34.8045 7.41443 34.9787C7.27238 35.1258 7.13013 35.273 6.98361 35.4246C6.84306 35.5652 6.7025 35.7057 6.55769 35.8505C6.48741 35.6397 6.41713 35.4289 6.34473 35.2117C6.44993 35.109 6.55492 35.0064 6.66332 34.9005C6.79982 34.7659 6.93612 34.6316 7.07689 34.4929C7.21276 34.3596 7.34863 34.2261 7.48854 34.0887C7.85228 33.7386 7.85228 33.7386 8.04841 33.295C8.67196 33.0872 9.10385 33.0646 9.7521 33.0821Z" fill="#FDC134"/>
<path d="M36.7984 32.2302C36.8686 32.2302 36.9389 32.2302 37.0113 32.2302C37.0288 33.1164 37.0077 33.9226 36.7984 34.7858C37.2948 34.5815 37.2948 34.5815 37.6502 33.9339C37.6502 34.2853 37.6502 34.6367 37.6502 34.9987C37.2285 35.2095 36.8069 35.4204 36.3724 35.6376C36.3222 34.4071 36.4005 33.3987 36.7984 32.2302Z" fill="#F8BF13"/>
<path d="M19.1226 38.4061C19.504 38.9781 19.6892 39.3991 19.8945 40.0433C19.9499 40.2154 20.0055 40.3875 20.0626 40.5649C20.1037 40.6958 20.145 40.8266 20.1874 40.9616C19.9765 41.1724 19.7657 41.3833 19.5485 41.6005C19.1351 41.1871 19.2505 40.4349 19.2158 39.8836C19.1979 39.6087 19.1801 39.3339 19.1617 39.0507C19.1488 38.838 19.1358 38.6252 19.1226 38.4061Z" fill="#DB8516"/>
<path d="M37.65 34.9987C37.5797 35.7015 37.5095 36.4042 37.437 37.1283C37.1559 36.9877 36.8748 36.8472 36.5852 36.7024C37.0499 34.9987 37.0499 34.9987 37.65 34.9987Z" fill="#CC9167"/>
<path d="M8.47446 55.23C8.68529 55.3003 8.89612 55.3706 9.11334 55.443C9.04306 56.708 8.97279 57.9729 8.90038 59.2763C8.8301 59.2763 8.75983 59.2763 8.68742 59.2763C8.52876 57.9191 8.45231 56.5966 8.47446 55.23Z" fill="#F9EDC4"/>
<path d="M26.15 35.4246C26.2203 35.4246 26.2906 35.4246 26.363 35.4246C26.363 36.5491 26.363 37.6735 26.363 38.832C26.1522 38.6212 25.9413 38.4103 25.7241 38.1931C25.7774 37.4878 25.7774 37.4878 25.9371 36.7024C25.9767 36.4609 26.0161 36.2192 26.0568 35.9702C26.0876 35.7903 26.1183 35.6101 26.15 35.4246Z" fill="#FAC415"/>
<path d="M57.4554 39.6838C57.3261 40.3553 57.1057 40.7889 56.6966 41.3343C56.5513 41.5302 56.5513 41.5302 56.4031 41.7302C56.3286 41.8279 56.2543 41.9257 56.1776 42.0264C55.9646 41.6005 55.9646 41.6005 56.1243 40.8551C56.3965 40.0929 56.5826 39.6838 57.4554 39.6838Z" fill="#C1926C"/>
<path d="M46.5944 41.6005C46.8053 41.6005 47.0161 41.6005 47.2333 41.6005C47.0225 42.233 46.8117 42.8655 46.5944 43.5171C46.3836 43.236 46.1728 42.9549 45.9556 42.6653C46.235 42.1329 46.235 42.1329 46.5944 41.6005Z" fill="#EFDDC4"/>
<path d="M43.1871 47.5634C43.3336 47.9361 43.3336 47.9361 43.4001 48.4152C43.1207 48.8944 43.1207 48.8944 42.7612 49.2671C42.6206 49.2671 42.4801 49.2671 42.3353 49.2671C42.265 48.9157 42.1947 48.5643 42.1223 48.2023C42.4737 47.9914 42.8251 47.7806 43.1871 47.5634Z" fill="#C58010"/>
<path d="M14.0114 21.1562C14.0816 21.1562 14.1519 21.1562 14.2243 21.1562C14.2243 22.351 14.2243 23.5457 14.2243 24.7766C13.8097 24.1545 13.6809 23.7985 13.5854 23.0729C13.6557 23.0026 13.726 22.9323 13.7984 22.8599C13.8476 22.5731 13.8861 22.2841 13.9181 21.9949C13.949 21.718 13.9796 21.4414 14.0114 21.1562Z" fill="#F2ECD2"/>
<path d="M38.0759 29.2488C38.2489 29.5948 38.2489 29.5948 38.2889 30.1006C37.9799 30.59 37.6279 30.9554 37.2241 31.3784C37.1538 31.3784 37.0835 31.3784 37.0111 31.3784C37.0111 31.027 37.0111 30.6756 37.0111 30.3136C36.8706 30.2433 36.73 30.173 36.5852 30.1006C37.3231 29.9952 37.3231 29.9952 38.0759 29.8877C38.0759 29.6768 38.0759 29.466 38.0759 29.2488Z" fill="#FCC037"/>
<path d="M44.4648 44.7949C44.5351 44.7949 44.6054 44.7949 44.6778 44.7949C44.7178 45.5136 44.7178 45.5136 44.6778 46.2856C44.3615 46.4965 44.3615 46.4965 44.0389 46.7115C43.8924 46.3521 43.8924 46.3521 43.8259 45.8597C44.1187 45.2741 44.1187 45.2741 44.4648 44.7949Z" fill="#AD690A"/>
<path d="M67.0386 37.3413C68.163 37.3413 69.2874 37.3413 70.446 37.3413C70.1648 37.6224 69.8837 37.9035 69.5941 38.1932C69.5941 37.9823 69.5941 37.7715 69.5941 37.5543C68.7508 37.5543 67.9075 37.5543 67.0386 37.5543C67.0386 37.484 67.0386 37.4137 67.0386 37.3413Z" fill="#E0900D"/>
<path d="M27.8538 54.3782C28.1349 54.589 28.416 54.7998 28.7056 55.0171C28.3542 55.509 28.0029 56.0009 27.6408 56.5078C27.3614 55.6694 27.5891 55.2034 27.8538 54.3782Z" fill="#E89911"/>
<path d="M44.6777 46.0727C44.8182 46.0727 44.9588 46.0727 45.1036 46.0727C44.7518 46.8348 44.298 47.5097 43.8258 48.2023C43.6853 48.132 43.5447 48.0617 43.3999 47.9893C43.6022 47.6688 43.8067 47.3496 44.0122 47.031C44.1259 46.8532 44.2394 46.6751 44.3565 46.492C44.5156 46.2843 44.5156 46.2843 44.6777 46.0727Z" fill="#F6CC2E"/>
<path d="M41.4834 32.6561C41.7645 32.7264 42.0456 32.7967 42.3352 32.8691C42.207 33.2993 42.0641 33.7254 41.9093 34.1469C41.6985 34.2523 41.6985 34.2523 41.4834 34.3598C41.4834 33.7976 41.4834 33.2354 41.4834 32.6561Z" fill="#E5990F"/>
<path d="M8.90039 59.7022C9.11122 59.7022 9.32205 59.7022 9.53927 59.7022C9.60955 60.0536 9.67983 60.405 9.75223 60.767C9.5414 60.6967 9.33057 60.6264 9.11335 60.554C9.11335 60.9054 9.11335 61.2568 9.11335 61.6188C9.04307 61.6188 8.9728 61.6188 8.90039 61.6188C8.90039 60.9863 8.90039 60.3538 8.90039 59.7022Z" fill="#F6D5A2"/>
<path d="M61.2887 34.7858C61.4995 34.9263 61.7103 35.0669 61.9276 35.2117C61.4352 35.7441 61.4352 35.7441 60.8628 36.2765C60.6519 36.2765 60.4411 36.2765 60.2239 36.2765C61.0491 35.0253 61.0491 35.0253 61.2887 34.7858Z" fill="#F6AE28"/>
<path d="M49.7889 37.9802C50.1296 38.6619 49.7957 39.1989 49.5759 39.8968C49.4353 39.8968 49.2948 39.8968 49.15 39.8968C48.9903 39.5373 48.9903 39.5373 48.937 39.045C49.3497 38.4593 49.3497 38.4593 49.7889 37.9802Z" fill="#F5EED4"/>
<path d="M8.04841 30.9525C8.59487 31.7722 8.59167 32.3229 8.68729 33.2951C8.40618 33.1545 8.12508 33.0139 7.83545 32.8691C7.976 32.7989 8.11656 32.7286 8.26137 32.6562C8.19109 32.094 8.12082 31.5317 8.04841 30.9525Z" fill="#F8EEBC"/>
</svg>
