<svg width="128" height="128" viewBox="0 0 128 128" fill="none" xmlns="http://www.w3.org/2000/svg">
<path d="M97.6596 113.81C91.9496 87.4899 81.9096 83.9999 70.2296 70.5499C62.1196 61.2099 60.0696 57.0799 54.9996 46.9799C49.9296 36.8799 46.5996 30.2399 46.5996 30.2399L65.8696 19.3799C65.8696 19.3799 77.8796 46.9399 88.7396 57.7999C94.1996 63.2599 111.79 80.6999 123.94 113.84C125.09 116.98 123.94 125.59 110.73 123.75C99.8096 122.22 98.5396 117.84 97.6596 113.81Z" fill="#FFCC80"/>
<path d="M68.8197 25.8795C66.8197 26.3495 63.7197 27.2496 63.6097 27.1796L61.3997 23.0396L56.0097 25.6595L47.9697 32.9896C49.3997 35.8396 51.8697 40.7596 54.9997 46.9896C56.6797 50.3296 58.5197 53.8396 60.4497 57.2696C60.4497 57.2696 60.4297 49.8495 65.9797 44.2095C69.0797 41.0595 72.6197 35.4095 72.6197 33.3695C71.3397 30.5595 70.0597 28.2695 68.8197 25.8795Z" fill="#EAAB57"/>
<path d="M29.6101 65.9196C30.4201 66.2896 32.5601 67.2996 33.7501 65.8296C37.6501 61.0396 47.9301 41.1096 53.6801 39.7296C55.5201 39.2896 57.3901 38.9896 59.2001 38.4496C66.8501 36.1796 69.7701 32.3196 71.0101 30.1096C71.7301 28.8296 71.7701 27.6896 70.6101 25.6296C69.3201 23.3296 60.3301 4.97961 60.3301 4.97961C60.3301 4.97961 57.1801 4.05961 53.3401 5.25961C51.9001 5.70961 46.3801 8.61961 42.4801 11.5496C39.7601 13.5896 40.6001 15.6596 34.5501 17.8396C27.4201 20.4196 14.8301 23.3096 8.67012 24.7596C5.08012 25.6096 4.28012 26.6996 4.18012 29.7296C4.00012 35.6096 8.31012 56.3396 29.6101 65.9196Z" fill="#F44336"/>
<path d="M51.9998 5.01002C50.0498 5.69002 14.7198 21.68 8.45979 23.96C4.98979 25.22 3.81979 24.7 3.72979 27.74C3.56979 32.68 7.06979 50.17 20.7498 60.66C19.1298 58.44 9.38979 48.99 7.43979 30.76C7.22979 28.83 8.31979 27.02 10.2198 26.61C17.3798 25.06 39.5398 20.08 52.4198 14.04C57.6898 11.57 61.9698 7.65001 60.3498 5.00001C59.5698 3.73001 55.9998 3.60002 51.9998 5.01002Z" fill="#C62828"/>
<path d="M24.2695 44.4298C19.4995 38.2098 18.0895 24.8098 18.0895 24.8098C18.0895 24.8098 10.9395 23.4098 8.12945 24.3298C4.61945 25.4798 4.29945 24.8998 4.21945 28.3498C4.08945 34.2098 6.56945 55.2898 29.6195 65.9098C30.4295 66.2798 32.5695 67.2898 33.7595 65.8198C34.9595 64.3498 37.4895 60.2698 39.5795 56.9198C33.9095 54.4798 29.6495 51.4498 24.2695 44.4298Z" fill="#E0E0E0"/>
<path d="M10.2096 26.5997C11.6196 26.2897 18.0896 24.8097 18.0896 24.8097L14.4696 21.4897C14.4696 21.4897 10.5596 22.7897 7.14963 23.9797C4.26962 24.9797 3.71962 25.1797 3.72962 27.7397C3.73962 32.6797 6.22962 49.8897 20.7496 60.6597C19.1296 58.4397 9.38963 48.9897 7.43963 30.7597C7.22962 28.8297 8.30962 27.0097 10.2096 26.5997Z" fill="#BDBDBD"/>
<path d="M49.8615 12.3096C55.1351 9.99276 59.005 7.19239 58.5052 6.05475C58.0054 4.91711 53.3252 5.87301 48.0516 8.18982C42.778 10.5066 38.9081 13.307 39.4079 14.4446C39.9077 15.5823 44.5879 14.6264 49.8615 12.3096Z" fill="#FFCC80"/>
<path d="M50.1302 17.8599C51.9102 18.1999 53.0202 19.9499 53.8602 21.5599C55.9002 25.4999 57.5902 29.6199 58.9002 33.8599C58.9802 34.1099 59.0502 34.3699 58.9802 34.6099C58.8802 34.9399 58.5402 35.1399 58.2202 35.2899C56.3702 36.1999 54.2502 37.0099 52.2802 36.3899C49.8002 35.6099 48.5302 32.9399 47.5302 30.5499C46.4602 27.9699 45.3902 25.3799 44.3202 22.7999C42.8502 19.2499 46.8502 17.2299 50.1302 17.8599Z" fill="#FF5450"/>
</svg>
