<svg width="128" height="128" viewBox="0 0 128 128" fill="none" xmlns="http://www.w3.org/2000/svg">
<path d="M64.7997 120.71C68.4797 120.71 96.9097 96.5299 113.5 76.6399C129.46 57.4999 123.7 34.8999 120.19 28.6099C116.04 21.1799 63.2497 45.6199 63.2497 45.6199C63.2497 45.6199 14.0697 17.9899 10.3897 23.9899C5.39972 32.1299 -1.59027 53.5399 12.5197 73.4499C27.4997 94.5999 60.8497 120.71 64.7997 120.71Z" fill="#DB0A28"/>
<path d="M64.5495 114.2C64.5495 114.2 116.81 75.5199 121.3 51.8999C125.55 29.5299 116.85 18.6799 106.14 13.4499C78.9895 0.189869 65.2895 26.2099 63.9995 26.2099C62.7095 26.2099 49.9495 0.13987 23.6995 11.4199C9.23953 17.6299 3.17953 34.5299 8.90953 53.5699C17.3195 81.5099 64.5495 114.2 64.5495 114.2Z" fill="#FF262E"/>
</svg>
