<svg width="128" height="128" viewBox="0 0 128 128" fill="none" xmlns="http://www.w3.org/2000/svg">
<path d="M63.8302 52.6201C58.7902 52.9401 49.9902 57.6601 37.7502 62.8201C25.5102 67.9801 14.4602 72.6901 12.6402 73.5501C10.8202 74.4101 9.31015 74.9201 9.21015 77.9301C9.11015 80.9401 47.8402 105.53 47.8402 105.53L85.9402 106.17L117.99 77.4301C117.99 77.4301 117.94 75.3201 115.88 73.6501C113.94 72.0801 97.0002 65.5001 90.3401 62.8201C83.6901 60.1301 66.1102 52.4801 63.8302 52.6201Z" fill="#858585"/>
<path d="M67.3401 100.9C74.2101 100.8 82.5901 95.3502 95.4501 88.5802C105.36 83.3602 115.35 77.9002 115.78 77.7302C117.4 77.0902 117.24 75.1602 117.24 75.1602C117.24 75.1602 118.7 77.2902 118.89 81.6002C119.06 85.4702 119 94.1602 118.89 95.2302C118.78 96.3002 119.1 98.0202 116.64 99.4202C114.18 100.82 78.0301 120.71 75.8601 121.85C73.6001 123.04 71.2501 124.45 68.4401 124.45C65.9101 124.46 63.0301 123.21 58.8101 121.79C56.7901 121.11 45.2801 116.26 34.0401 110.81C26.5301 107.17 18.4201 103.18 13.7301 100.5C11.0401 98.9602 10.1801 97.8402 9.86009 97.0602C8.88009 94.6902 9.15009 80.2902 9.14009 79.0002C9.12009 77.1002 9.56009 76.0002 9.56009 76.0002C9.56009 76.0002 10.8201 76.9902 14.5901 78.7902C17.9101 80.3702 28.3201 85.8902 37.3401 89.8801C59.4401 99.6402 64.1301 100.95 67.3401 100.9Z" fill="#5E6367"/>
<path d="M63.8801 57.5399C56.8101 57.5699 52.5801 59.9499 49.9601 62.9499C46.5101 66.9099 46.5401 71.9799 46.8101 74.1799C47.2701 78.0299 52.0101 83.1799 64.7801 83.1799C78.6801 83.1799 81.4201 77.1199 81.8701 75.3199C82.3401 73.4299 82.7001 66.6599 78.1001 62.1899C75.5101 59.6799 70.3801 57.5099 63.8801 57.5399Z" fill="#282828"/>
<path d="M57.8096 42.7901V63.1801C57.8096 63.1801 58.8296 66.2601 63.9896 66.2901C69.2796 66.3201 70.2596 63.8201 70.2596 63.8201L70.2796 42.6401L57.8096 42.7901Z" fill="#6DA3AC"/>
<path d="M63.9603 3.56009C50.5703 3.48009 42.3402 12.7201 42.2602 24.4901C42.1802 36.2601 52.0303 45.7701 63.8803 45.6501C77.6303 45.5001 85.4903 36.6001 85.3603 23.3601C85.2503 10.7301 75.0403 3.62009 63.9603 3.56009Z" fill="#FF4F28"/>
<path d="M59.6601 8.06996C57.1701 6.73996 52.9001 7.88996 49.1101 12.63C45.3301 17.34 44.7601 24.7 48.9301 25.3C52.6201 25.83 53.0401 21.81 53.2001 20.68C53.5601 18.15 55.4701 15.17 57.8201 14.37C58.6001 14.11 60.5101 13.78 61.0701 12.5C61.9201 10.53 61.1601 8.86996 59.6601 8.06996Z" fill="#FDFFFC"/>
<path d="M23.8897 76.26C24.0297 80.07 29.5097 81.68 33.9697 81.68C40.1597 81.68 43.7297 79.17 43.6597 75.85C43.5797 72.17 38.2197 70.39 33.7597 70.33C28.5897 70.28 23.7497 72.37 23.8897 76.26Z" fill="#DD0C22"/>
<path d="M27.3898 74.5099C27.3198 76.7699 30.4298 77.6899 33.6798 77.6899C36.9298 77.6899 39.6198 76.5599 39.6898 74.3699C39.7598 72.1799 35.7998 71.1899 33.2498 71.3299C30.7098 71.4699 27.4598 72.1099 27.3898 74.5099Z" fill="#FF4C2A"/>
</svg>
