<svg width="128" height="128" viewBox="0 0 128 128" fill="none" xmlns="http://www.w3.org/2000/svg">
<path d="M52.9504 5.40987C52.9504 5.40987 50.3704 5.10987 47.4804 7.29987C43.8204 10.0799 44.2004 11.3799 44.2004 11.3799C44.2004 11.3799 36.7404 12.3699 28.3904 18.8399C20.0404 25.3099 14.4804 37.2199 11.5004 43.0799C8.52043 48.9399 4.44043 56.9999 3.94043 59.1899C3.44043 61.3799 3.54043 62.8699 4.24043 66.6499C4.94043 70.4299 8.32043 82.2599 9.11043 85.6399C9.91043 89.0199 12.0904 94.4899 12.2904 95.8799C12.4904 97.2699 16.6804 97.7399 21.5304 96.6799C25.6104 95.7899 29.4804 93.2999 29.8804 91.9099C30.2804 90.5199 27.0004 80.8799 25.4104 76.5999C23.8204 72.3299 22.8304 67.6499 22.8304 67.6499C22.8304 67.6499 25.1204 63.8699 27.1004 60.1899C29.0804 56.5099 33.2604 49.8499 33.2604 49.8499C33.2604 49.8499 33.5604 53.8299 33.5604 58.1999C33.5604 62.5699 32.1704 68.1399 33.2604 71.0199C34.3504 73.8999 36.3404 78.5699 36.3404 78.5699C36.3404 78.5699 34.1504 88.0099 31.4704 96.4599C28.7904 104.91 27.1004 109.78 27.1004 109.78C27.1004 109.78 28.2904 110.77 29.7804 111.47C31.2704 112.17 32.5604 112.56 32.5604 112.56L31.9604 115.74C31.9604 115.74 42.6004 122.8 64.5604 123.29C86.5304 123.79 102.53 116.53 103.13 114.84C103.73 113.15 96.4704 88.3999 95.9704 86.5099C95.4704 84.6199 93.2904 76.3699 93.2904 76.3699C93.2904 76.3699 96.3704 73.7899 96.6704 67.6199C96.9704 61.4499 96.1704 49.9299 96.9704 49.7299C97.7704 49.5299 105.22 66.5299 105.22 66.5299C105.22 66.5299 104.62 74.7799 102.83 81.0399C101.04 87.2999 100.05 90.8799 100.64 91.9699C101.24 93.0599 103.92 95.3499 109.59 96.4399C115.26 97.5299 119.43 97.3299 119.93 95.6399C120.43 93.9499 122.91 79.5399 123.61 69.9899C124.31 60.4399 122.81 55.4799 121.32 51.4999C119.83 47.5199 114.56 39.2699 112.77 34.2999C110.98 29.3299 107.7 20.7799 105.22 19.3899C102.74 17.9999 96.9704 15.0199 92.3004 13.6199C87.6304 12.2299 83.4504 10.9399 83.4504 10.9399C83.4504 10.9399 82.6304 8.37987 78.4004 6.49987C75.7204 5.30987 74.0304 5.79987 74.0304 5.79987L64.0904 7.78987L52.9504 5.40987Z" fill="#C9C9C9"/>
<path d="M27.3302 23.8699C27.3302 23.8699 21.7302 28.5399 16.7502 38.1799C11.7702 47.8199 10.7402 53.1099 8.97015 55.2899C7.20015 57.4699 5.55015 60.0599 6.79015 66.2799C8.03015 72.4999 13.8402 93.9699 13.8402 93.9699C13.8402 93.9699 18.8202 93.1399 21.4102 92.3099C24.0002 91.4799 27.1102 90.3399 26.9102 89.4099C26.7002 88.4799 20.6902 67.5299 20.6902 67.5299C20.6902 67.5299 13.8502 63.9999 14.4702 63.2799C15.0902 62.5499 21.5202 63.3799 21.5202 63.3799C21.5202 63.3799 26.3902 55.3999 27.8502 52.7999C29.3002 50.2099 30.6502 48.5499 30.5501 47.2999C30.4501 46.0599 27.5402 37.9699 28.3702 37.1399C29.2002 36.3099 34.4902 43.7799 35.7302 45.2299C36.9701 46.6799 37.2902 47.4099 37.2902 47.4099C37.2902 47.4099 35.5301 66.2799 36.6701 67.8399C37.8101 69.3999 39.4701 69.2899 39.4701 69.2899C39.4701 69.2899 46.8302 59.0199 50.8801 52.1799C54.9301 45.3399 57.2101 40.5699 57.2101 40.5699C57.2101 40.5699 50.6801 31.0699 47.2402 23.9999C44.3702 18.0899 43.6001 13.6099 43.6001 13.6099C43.6001 13.6099 39.7602 14.9599 36.8602 16.7199C33.9602 18.4799 31.5702 20.2499 31.5702 20.2499C31.5702 20.2499 36.2402 32.0699 34.7801 33.4199C33.3401 34.7599 27.3302 23.8699 27.3302 23.8699Z" fill="#FEFEFE"/>
<path d="M58.9396 38.99C58.9396 38.99 61.8096 34.02 61.5996 33.32C61.3896 32.62 55.0696 25.29 52.5596 20.08C48.0796 10.76 50.0396 7.75 50.0396 7.75C50.0396 7.75 48.7096 8.1 47.3096 9.78C45.9096 11.46 45.3496 13.07 45.3496 13.07C45.3496 13.07 46.3296 18.18 49.0596 23.79C53.1196 32.11 58.9396 38.99 58.9396 38.99Z" fill="#FEFEFE"/>
<path d="M73.65 8.03023C73.65 8.03023 75.26 7.47023 76.03 7.40023C76.8 7.33023 78.75 8.40023 79.95 9.43023C81.16 10.4702 82.26 12.3702 82.26 12.3702C82.26 12.3702 79.73 21.0902 72.39 34.8602C65.04 48.6302 58.05 60.8202 54.63 66.2402C51.21 71.6602 48.21 75.5102 48.21 75.5102C48.21 75.5102 46.43 76.2202 45.78 74.3002C45.14 72.3702 44.5 68.7402 44.5 68.7402L55.63 52.0502L64.26 35.6502L72.03 18.8902L73.65 8.03023Z" fill="#FEFEFE"/>
<path d="M84.2596 13.5502C84.8996 13.4102 88.1596 14.2502 92.5796 15.9602C96.9996 17.6702 101.07 19.6702 101.21 20.6702C101.35 21.6702 97.1396 33.9402 98.4996 34.5102C99.8596 35.0802 104.85 24.6702 105.63 24.6702C106.41 24.6702 108.55 28.2402 109.62 31.2302C110.69 34.2202 111.12 36.9402 112.12 38.8602C113.12 40.7802 120.82 51.4102 120.96 64.1102C121.1 76.8102 118.11 91.4302 117.75 92.2802C117.39 93.1402 113.68 93.6402 110.47 92.8502C107.26 92.0702 102.84 90.8502 103.19 89.4302C103.55 88.0002 105.26 82.5802 106.11 79.3702C106.97 76.1602 107.25 72.4502 107.61 71.8802C107.97 71.3102 115.03 68.5302 114.89 67.4602C114.75 66.3902 109.18 66.6002 108.19 65.3202C107.19 64.0402 99.3496 47.4202 99.2696 46.2802C99.1996 45.1402 102.98 39.4302 101.84 38.6502C100.7 37.8702 91.7796 48.9202 91.6396 49.6302C91.4996 50.3402 93.2096 54.1202 93.2796 59.9002C93.3496 65.6802 94.2796 69.6002 90.2796 71.8102C86.2896 74.0202 78.9396 74.8102 73.9496 73.5902C68.9596 72.3702 67.5296 70.3102 67.5296 70.3102C67.5296 70.3102 64.1096 72.1602 59.4696 73.5202C54.8296 74.8802 51.3096 75.1702 51.3096 75.1702C51.3096 75.1702 63.2096 58.1202 72.3996 39.7002C81.7796 20.9302 84.2596 13.5502 84.2596 13.5502Z" fill="#FEFEFE"/>
<path d="M41.8703 90.3698C40.1203 90.6598 39.7103 95.8898 38.7903 100.23C37.9403 104.25 35.5703 112.96 35.5703 112.96C35.5703 112.96 38.3303 114.25 44.1903 115.63C50.0503 117.01 50.0503 117.01 50.0503 117.01L55.7403 93.6498C55.7403 93.6498 51.7903 92.6998 48.0703 91.6698C45.2303 90.8898 43.4303 90.1098 41.8703 90.3698Z" fill="#FEFEFE"/>
<path d="M64.8204 96.6302C64.0104 96.5802 61.6104 102.33 60.3304 107.96C59.0504 113.59 58.1904 118.36 58.1904 118.36C58.1904 118.36 61.1104 119 63.9604 119.14C66.8104 119.28 69.7704 118.74 69.7704 118.74C69.7704 118.74 69.4404 111.43 68.8304 107.44C68.1904 103.19 66.1004 96.7002 64.8204 96.6302Z" fill="#FEFEFE"/>
<path d="M75.5098 92.8499C75.5098 92.8499 79.0698 92.6399 83.8498 91.6399C88.6198 90.6399 90.6898 89.0799 91.8998 89.9999C93.1098 90.9299 94.6798 98.1899 95.8898 103.04C97.0998 107.88 98.5298 112.73 97.8098 113.44C97.0998 114.15 89.1198 115.93 87.0498 116.57C84.9798 117.21 79.4298 108.45 79.3598 107.88C79.2798 107.31 75.5098 92.8499 75.5098 92.8499Z" fill="#FEFEFE"/>
<path d="M37.44 83.6699C37.44 83.8999 34.49 94.6899 33.58 98.1499C32.67 101.61 29.79 111.47 29.79 111.47C29.79 111.47 30.79 111.89 31.31 112.06C31.83 112.23 32.58 112.56 32.58 112.56C32.58 112.56 36.25 98.1999 37.05 95.0799C37.85 91.9599 38.92 87.5799 39.38 86.2199C39.84 84.8599 40.17 83.7799 40.17 83.7799L37.44 83.6699Z" fill="#9A9A9A"/>
<path d="M38.6299 77.2C38.6299 77.2 38.8599 75.33 39.1999 74.64C39.5399 73.95 51.6299 56.64 56.4499 47.78C61.6899 38.15 63.9999 32.52 63.9999 32.52C63.9999 32.52 58.6799 26.36 55.7599 21.5C52.8399 16.64 51.6799 11.71 51.9099 9.63002C52.1399 7.55002 53.8399 5.55002 53.8399 5.55002C53.8399 5.55002 56.9999 4.39002 64.2399 4.16002C71.6399 3.93002 75.5699 5.93002 75.5699 5.93002C75.5699 5.93002 77.7999 9.92002 74.1099 18.8C69.0999 30.82 64.8599 39.22 59.5499 48.54C54.2399 57.86 42.0299 78.22 42.0299 78.22L38.6299 77.2Z" fill="#9A9A9A"/>
<path d="M13.7297 94.1399C14.0397 95.2999 16.1397 95.9499 21.0697 94.5599C25.9997 93.1699 27.6997 91.0899 27.3897 90.0899C27.0797 89.0899 25.4597 89.4699 20.2197 91.0899C14.9897 92.7099 13.4297 92.9999 13.7297 94.1399Z" fill="#9A9A9A"/>
<path d="M102.75 90.3202C102.75 91.7302 105.45 93.8602 109.76 94.7902C114.07 95.7202 117.54 94.8702 117.77 93.4802C118 92.0902 114.69 91.8602 110.76 91.0102C106.84 90.1602 102.75 88.7802 102.75 90.3202Z" fill="#9A9A9A"/>
<path d="M33.7096 75.2399C32.3496 75.7599 32.9996 77.9699 32.8996 79.8899C32.7996 81.8099 32.8996 83.0299 33.6096 83.9399C34.3196 84.8499 43.9296 89.4999 64.6596 89.2999C85.3896 89.0999 95.2496 85.1299 95.7996 84.4599C96.5696 83.5299 96.5596 81.1899 96.5796 79.2199C96.6196 76.5599 96.2596 74.2299 94.8696 74.6699C93.9496 74.9599 85.5996 78.1799 76.6896 79.0899C67.7896 79.9999 55.2096 79.5499 48.9796 78.6899C38.0596 77.1599 35.0296 74.7299 33.7096 75.2399Z" fill="#434343"/>
<path d="M68.2397 79.5402C68.2397 79.5402 67.0497 77.9402 65.0397 77.9802C63.3597 78.0102 62.0497 79.6002 62.0497 79.6002C62.0497 79.6002 53.5997 88.0202 50.0297 96.6502C47.3297 103.18 44.9497 110.55 42.8597 114.91C40.7797 119.27 38.6497 122.12 39.4497 123.61C40.2397 125.1 49.2697 126.78 50.8597 125.69C52.4497 124.6 54.9197 112.63 56.6597 106.51C58.8497 98.8202 61.2397 94.3902 62.9097 91.9902C63.2697 91.4702 63.9997 92.0502 65.1297 92.3502C65.5097 92.4502 66.7697 91.6602 66.9497 91.9402C68.1797 93.8402 69.8997 97.0102 71.7797 102.08C75.6397 112.52 76.6397 125.09 77.4297 125.68C78.2197 126.28 81.1897 126.5 83.9597 126.07C86.5197 125.68 89.5297 124.78 90.0197 123.79C90.5097 122.8 85.6597 109.81 80.3997 98.9002C75.1497 88.0002 68.2397 79.5402 68.2397 79.5402Z" fill="#434343"/>
<path d="M59.2902 79.4602L62.1202 79.5102C62.1202 79.5102 58.1902 84.0702 58.4302 85.3402C58.6702 86.6102 63.5802 91.0802 65.2002 90.8802C66.8202 90.6802 71.2802 86.0102 71.1802 85.0802C71.0802 84.1502 68.2602 79.5302 68.2602 79.5302L71.0902 79.4502C71.0902 79.4502 74.3102 83.6102 74.1602 85.5702C74.0102 87.5302 68.0402 93.3302 65.2002 93.4302C62.3502 93.5302 55.9602 88.2802 55.7802 85.3302C55.6402 82.8902 59.4302 79.3102 59.2902 79.4602Z" fill="#606568"/>
</svg>
