<svg width="128" height="128" viewBox="0 0 128 128" fill="none" xmlns="http://www.w3.org/2000/svg">
<path d="M35.9596 3.19005C35.4996 3.47005 35.7596 27.6 36.0496 28.09C36.4096 28.7 41.1596 33.13 45.3896 36.82C48.6996 39.7001 51.6196 37.68 52.1696 37.68C53.4196 37.68 74.4196 37.91 75.0496 37.91C75.3096 37.91 79.0296 40.08 82.1596 37.42C86.6096 33.62 91.9596 28.85 92.0496 28.15C92.1396 27.47 92.1496 3.49005 91.8196 3.28005C91.6696 3.18005 87.8796 3.12005 82.5896 3.06005C78.0896 3.01005 68.9196 5.32005 63.0696 5.30005C55.5696 5.28005 51.2796 2.94005 45.4396 2.99005C40.0896 3.03005 36.1296 3.08005 35.9596 3.19005Z" fill="#176BC6"/>
<path d="M45.4196 2.96018L45.3896 36.8202C45.3896 36.8202 47.0296 38.2802 48.6796 39.6302C50.2396 40.9102 51.8096 42.0802 51.9296 42.0702C53.0196 41.9902 75.6897 42.5502 76.1597 42.3202C76.4197 42.1902 78.1096 40.8602 79.6996 39.5502C80.9296 38.5302 82.1796 37.4502 82.1796 37.4502L82.6296 3.04018C82.6296 3.04018 79.7896 3.03018 76.0696 3.00018C76.0496 3.00018 66.8097 4.08018 63.3097 4.09018C59.1097 4.10018 55.2696 2.93018 51.5696 2.93018C47.2896 2.93018 45.4196 2.96018 45.4196 2.96018Z" fill="white"/>
<path d="M51.8201 42.0998C51.1901 41.6298 51.5601 2.92981 51.5601 2.92981C51.5601 2.92981 55.7001 2.87981 64.4901 2.91981C72.1501 2.94981 76.0701 2.99981 76.0701 2.99981C76.0701 2.99981 76.4301 41.6398 76.0401 42.2698C75.6501 42.8998 69.2401 46.0998 64.8601 46.1698C60.4801 46.2398 52.1301 42.3398 51.8201 42.0998Z" fill="#DB0D2A"/>
<path d="M64.2501 52.54C66.3301 52.42 76.5101 42.58 76.3201 42.26C76.1901 42.04 70.1301 42.01 64.0101 41.98C57.8902 41.95 51.7401 41.82 51.7101 42.04C51.6601 42.47 61.6901 52.69 64.2501 52.54Z" fill="#FBC21F"/>
<path d="M63.9904 50.8198C63.3004 50.8198 62.8304 52.1198 62.4204 52.9998C62.0104 53.8798 51.6804 76.9298 51.5504 77.1398C51.4104 77.3398 28.2004 77.5498 27.1104 77.6898C26.0204 77.8298 25.2204 78.2298 25.2204 78.7098C25.2204 79.1898 25.0704 80.1698 25.6804 80.6398C26.2904 81.1198 45.1004 96.6798 45.1004 97.0198C45.1004 97.3598 38.9604 121.97 39.0304 122.52C39.1004 123.07 39.4504 123.65 39.8604 123.99C40.2704 124.33 40.5504 124.32 41.2404 124.17C42.5304 123.89 62.8704 111.4 63.1504 111.47C63.4204 111.54 84.3304 123.83 84.8704 123.9C85.4204 123.97 86.0304 123.9 86.4304 123.62C86.8304 123.34 87.2404 122.27 87.0304 121.52C86.8304 120.77 82.6104 99.0798 82.7504 98.6698C82.8904 98.2598 100.82 82.7798 101.16 82.0998C101.5 81.4198 100.85 79.8198 100.24 79.3398C99.6304 78.8598 76.6004 77.2198 76.1204 76.9498C75.6404 76.6798 66.1004 53.2098 65.9704 52.7298C65.8404 52.2498 64.7404 50.8198 63.9904 50.8198Z" fill="#FBC21F"/>
<path d="M54.4502 77.27C54.4502 77.79 60.9302 90.7 61.3402 90.7C61.7502 90.7 64.2002 89.68 64.2002 89.68C64.2002 89.68 64.2702 56.48 64.0602 56.82C63.8602 57.16 54.4502 76.18 54.4502 77.27Z" fill="#FDEFAA"/>
<path d="M67.9503 90.9802C67.6903 90.6602 73.9503 80.5502 74.7703 80.2102C75.5903 79.8702 97.6103 81.1602 97.5403 81.6402C97.4703 82.1102 68.2203 91.3202 67.9503 90.9802Z" fill="#FDEFAA"/>
<path d="M47.7002 97.3902C47.3702 97.6802 42.5202 118.05 42.7902 118.52C43.0602 119 60.7902 97.5902 60.7202 97.1802C60.6502 96.7702 60.7902 92.9502 60.7902 92.9502C60.7902 92.9502 48.2402 96.9102 47.7002 97.3902Z" fill="#FDEFAA"/>
<path d="M66.02 89.6898C65.95 89.4798 65.36 86.7498 65.22 86.0198C65.08 85.3298 64.6 84.5698 63.91 84.5698C63.25 84.5698 62.75 85.2798 62.53 86.2298C62.22 87.5398 61.74 89.6898 61.74 89.6898C61.74 89.6898 59.18 89.4698 58.6 89.4498C57.7 89.4198 56.63 89.4798 56.46 90.2798C56.35 90.7698 56.51 91.4198 57.84 92.2498C58.95 92.9398 60.26 93.6998 60.26 93.6998C60.26 93.6998 59.87 95.1498 59.57 96.4598C59.4 97.2198 58.98 98.6398 59.71 99.0198C60.43 99.3998 61.27 98.7798 62.09 97.9798C62.62 97.4698 63.85 96.2898 63.85 96.2898C63.85 96.2898 65.39 97.4598 65.97 97.9298C66.67 98.4998 67.77 98.8598 68.32 98.3798C68.91 97.8598 68.78 96.9998 68.46 96.0598C68.11 95.0598 67.42 93.5698 67.42 93.5698C67.42 93.5698 69.8 92.0698 70.24 91.7598C70.69 91.4498 71.21 90.7198 70.9 89.9298C70.69 89.3898 69.79 89.1998 69.03 89.3398C68.27 89.4798 66.02 89.6898 66.02 89.6898Z" fill="#F6922C"/>
<path d="M73.7403 89.0598C74.0803 90.2698 75.2803 90.0298 77.4103 89.4898C79.5303 88.9598 99.6103 82.7698 100.29 82.5398C101.03 82.2898 102.17 81.4298 101.83 80.4198C101.49 79.3998 100.43 79.1598 99.2203 79.4498C98.0103 79.7398 78.0803 86.4498 76.7703 86.9298C75.9203 87.2498 73.4003 87.8498 73.7403 89.0598Z" fill="#F6922C"/>
<path d="M64.0401 81.1101C65.2901 80.9701 65.2001 78.3101 65.3701 76.1301C65.5401 73.9501 65.8401 52.6401 65.8401 51.9201C65.8401 51.1401 65.3701 49.8901 64.3001 49.8901C63.2301 49.8901 62.6801 50.7101 62.5701 51.9401C62.4601 53.1801 62.5601 74.4101 62.6401 75.7901C62.7801 77.9901 62.8501 81.2501 64.0401 81.1101Z" fill="#F6922C"/>
<path d="M53.2805 88.82C53.5905 87.61 51.1805 86.74 49.1605 85.9C47.1405 85.05 28.1305 78.3 27.4405 78.07C26.7005 77.83 25.4505 77.84 25.1105 78.85C24.7705 79.87 25.3005 80.68 26.4405 81.18C27.5805 81.68 46.4905 88.13 47.8305 88.49C49.9605 89.05 52.9605 90.07 53.2805 88.82Z" fill="#F6922C"/>
<path d="M58.07 100.98C57 100.32 55.43 102.02 53.95 103.64C52.47 105.26 39.85 121.12 39.4 121.69C38.92 122.31 38.44 123.66 39.29 124.31C40.13 124.97 41.15 124.58 42 123.67C42.85 122.76 55.21 107 55.99 105.85C57.23 104.04 59.09 101.61 58.07 100.98Z" fill="#F6922C"/>
<path d="M69.8904 100.64C68.9504 101.47 70.3704 103.17 71.4904 105.05C72.6104 106.93 83.6504 122.71 84.0704 123.3C84.5204 123.94 85.6704 124.79 86.5504 124.17C87.4304 123.55 87.3504 122.47 86.7304 121.4C86.1104 120.33 74.5604 104.51 73.6904 103.43C72.3004 101.72 70.7904 99.8501 69.8904 100.64Z" fill="#F6922C"/>
</svg>
