<svg width="128" height="128" viewBox="0 0 128 128" fill="none" xmlns="http://www.w3.org/2000/svg">
<path d="M35.3498 21.07C38.3798 13.49 43.8998 7.68 50.6098 5.24C52.8498 4.44 73.5398 4 73.5398 4C73.5398 4 75.9398 10.96 79.9798 21.07C81.2798 24.33 83.2998 26.64 87.5898 27.25C88.9998 27.45 90.0698 28.71 90.0698 30.26V114.07H21.7998V30.37C21.7998 28.75 22.9698 27.44 24.4498 27.35C31.8298 26.9 33.9698 24.53 35.3498 21.07Z" fill="url(#paint0_linear_2_215349)"/>
<path d="M44.5602 8.59033C40.6102 11.6003 37.4102 15.9303 35.3502 21.0703C33.9702 24.5303 31.8302 26.9003 24.4402 27.3403C23.7602 27.3803 23.1602 27.6903 22.7002 28.1503H61.3702V8.59033H44.5602Z" fill="url(#paint1_linear_2_215349)"/>
<path d="M51.2199 21.07C55.2599 10.96 63.7399 4 73.5399 4C83.3499 4 91.8199 10.96 95.8599 21.07C97.1599 24.33 99.1799 26.64 103.47 27.25C104.88 27.45 105.95 28.71 105.95 30.26V114.07H37.6699V30.37C37.6699 28.75 38.8399 27.44 40.3199 27.35C47.6999 26.9 49.8399 24.53 51.2199 21.07Z" fill="url(#paint2_linear_2_215349)"/>
<path d="M37.6696 33.98C38.1396 40.35 38.3896 46.72 38.5496 53.09C38.7296 59.46 38.7796 65.83 38.8096 72.2C38.7896 78.57 38.7496 84.94 38.5696 91.31C38.4096 97.68 38.1596 104.05 37.6996 110.42C37.2296 104.05 36.9796 97.68 36.8096 91.31C36.6296 84.94 36.5796 78.57 36.5596 72.2C36.5796 65.83 36.6296 59.46 36.7996 53.09C36.9596 46.71 37.2096 40.34 37.6696 33.98Z" fill="#BDBDBD"/>
<path d="M73.5399 4.00017C70.1299 4.87017 67.0399 6.34017 64.2599 8.26017C61.4799 10.1602 58.9699 12.4802 56.8599 15.0602C56.3299 15.7102 55.8899 16.3702 55.4299 17.1002L54.0499 19.2902C53.1399 20.7702 52.2199 22.2602 51.1799 23.7102C50.8999 24.0802 50.6799 24.4202 50.3299 24.8102C49.9899 25.1802 49.6199 25.5002 49.2199 25.7702C48.4299 26.3202 47.5799 26.7102 46.6999 26.9702C44.9399 27.4902 43.1099 27.5502 41.3799 27.2702C43.1299 27.1002 44.8299 26.7302 46.3299 26.0002C47.0699 25.6302 47.7799 25.2102 48.3599 24.6702C48.9599 24.1402 49.3299 23.5502 49.7799 22.7902C50.6399 21.3202 51.4499 19.7802 52.2999 18.2602C53.1499 16.7402 53.9799 15.1702 55.1199 13.7002C57.3399 10.8102 60.1399 8.46017 63.2699 6.67017C66.4199 4.92017 69.9999 3.82017 73.5399 4.00017Z" fill="#E0E0E0"/>
<g opacity="0.55">
<path opacity="0.55" d="M92.5802 41.3702C91.4802 41.4202 90.2502 41.2102 89.3402 41.1702C88.4302 41.1302 87.5302 41.3302 86.6202 41.3402C84.8702 41.3502 83.1802 40.6102 81.4302 40.5902C79.1502 40.5602 76.9502 41.7502 74.6702 41.5502C73.4102 41.4402 72.2002 40.9102 70.9302 40.9002C69.6902 40.8902 68.4902 41.3802 67.2402 41.4502C65.1502 41.5702 63.0902 40.4702 61.0202 40.7502C59.9602 40.8902 58.9702 41.3902 57.9302 41.6202C56.0602 42.0302 53.6602 40.9802 53.6602 38.8202C53.6602 37.3202 54.8802 36.1002 56.3802 36.1002C57.5002 36.1002 58.6002 36.2002 59.7202 36.1002C61.2002 35.9702 62.6802 35.6802 64.1702 35.8302C65.3302 35.9502 66.4702 36.3302 67.6302 36.2002C68.3702 36.1102 69.0702 35.8202 69.8002 35.6302C70.9402 35.3202 72.1602 35.2802 73.3202 35.4902C74.3902 35.6902 75.4202 36.1102 76.5002 36.1502C77.9602 36.2102 79.3802 35.5802 80.8402 35.5902C82.0302 35.6002 83.1802 36.0402 84.3702 36.0902C85.4702 36.1402 86.5602 35.8602 87.6602 35.7302C89.9702 35.4502 95.3202 35.4502 95.3202 38.8302C95.3202 40.7902 94.0602 41.3102 92.5802 41.3702Z" fill="#777777"/>
</g>
<g opacity="0.55">
<g opacity="0.55">
<path opacity="0.55" d="M69.1201 66.8903C67.9901 66.8803 66.7201 66.5303 65.6201 66.6803C64.9501 66.7703 64.3001 66.9503 63.6401 67.0403C63.0201 67.1203 62.3901 67.1203 61.7601 67.1203C59.4001 67.1203 53.8301 68.0103 53.8301 64.2303C53.8301 63.1303 54.5501 62.0203 55.6201 61.6703C56.8401 61.2703 58.7101 61.9403 59.9801 62.1203C60.5901 62.2103 61.2001 62.3003 61.8201 62.3003C64.2801 62.3103 71.8501 59.4503 71.8501 64.2203C71.8501 65.2803 71.1201 66.5303 70.0301 66.7903C69.7301 66.8703 69.4301 66.9003 69.1201 66.8903Z" fill="#777777"/>
</g>
<g opacity="0.55">
<path opacity="0.55" d="M92.4296 66.9402C91.5696 66.9302 90.7497 66.5702 89.8596 66.5502C89.0696 66.5302 88.3296 66.9202 87.5596 67.1202C85.6196 67.6102 83.5596 66.8402 81.5896 67.1902C80.2996 67.4202 79.6697 67.5402 78.6597 66.7202C77.8197 66.0402 77.1396 65.4202 77.1396 64.2502C77.1396 62.9902 78.0097 61.9002 79.2197 61.6002C80.8197 61.1902 81.5497 61.9802 83.0396 62.3002C83.8696 62.4802 84.7096 62.1302 85.5296 61.9202C86.6296 61.6402 87.7897 61.6002 88.9097 61.8102C89.2797 61.8802 89.6496 61.9802 90.0296 62.0102C91.3496 62.1102 92.3796 61.1802 93.6396 61.8002C94.5596 62.2602 95.1597 63.2202 95.1597 64.2402C95.1597 65.3802 94.3997 66.4802 93.2997 66.8202C92.9897 66.9102 92.7096 66.9402 92.4296 66.9402Z" fill="#777777"/>
</g>
</g>
<g opacity="0.55">
<path opacity="0.55" d="M86.3394 54.1502C84.7194 54.2302 82.7494 53.7102 81.5794 53.6602C80.1694 53.6002 78.7894 54.1002 77.3794 54.2602C75.1394 54.5002 72.8994 53.8602 70.6394 53.8602C67.9994 53.8702 59.8994 56.3602 59.8994 51.5302C59.8994 48.5102 62.6494 49.1402 64.5894 49.5002C66.5194 49.8602 68.4794 48.8902 70.4294 49.0702C71.4794 49.1702 72.4694 49.5902 73.5194 49.7002C75.4394 49.8902 77.3194 49.0002 79.2394 49.0402C79.8394 49.0502 80.4294 49.1602 81.0294 49.2002C81.9794 49.2702 82.9294 49.1802 83.8594 49.0202C84.6594 48.8902 85.5994 48.4702 86.4094 48.5902C87.7994 48.7902 89.0394 50.1202 89.0394 51.5202C89.0694 53.5002 87.8494 54.0802 86.3394 54.1502Z" fill="#777777"/>
</g>
<path d="M93.63 61.79C92.37 61.17 91.33 62.1 90.02 62C89.64 61.97 89.27 61.87 88.9 61.8C87.78 61.59 86.62 61.63 85.52 61.91C84.7 62.12 83.86 62.47 83.03 62.29C81.54 61.97 80.81 61.18 79.21 61.59C78.31 61.82 77.6 62.48 77.29 63.32C77.57 63.12 77.88 62.96 78.22 62.88C79.82 62.47 80.55 63.26 82.04 63.58C82.87 63.76 83.71 63.41 84.53 63.2C85.63 62.92 86.79 62.88 87.91 63.09C88.28 63.16 88.65 63.26 89.03 63.29C90.35 63.39 91.38 62.46 92.64 63.08C93.56 63.54 94.16 64.5 94.16 65.52C94.16 65.84 94.09 66.16 93.98 66.46C94.69 65.96 95.15 65.11 95.15 64.23C95.15 63.2 94.55 62.24 93.63 61.79Z" fill="#777777"/>
<path d="M61.81 62.3101C61.19 62.3101 60.58 62.2201 59.97 62.1301C58.7 61.9501 56.84 61.2801 55.61 61.6801C54.85 61.9301 54.28 62.5601 54 63.2901C54.19 63.1601 54.39 63.0401 54.62 62.9701C55.84 62.5701 57.71 63.2401 58.98 63.4201C59.59 63.5101 60.2 63.6001 60.82 63.6001C63.28 63.6101 70.85 60.7501 70.85 65.5201C70.85 65.8401 70.78 66.1801 70.65 66.5101C71.38 66.0101 71.84 65.0701 71.84 64.2301C71.84 59.4601 64.27 62.3201 61.81 62.3101Z" fill="#777777"/>
<path d="M86.4298 48.5999C85.6198 48.4799 84.6698 48.8999 83.8798 49.0299C82.9398 49.1899 81.9898 49.2699 81.0498 49.2099C80.4498 49.1699 79.8598 49.0599 79.2598 49.0499C77.3298 49.0099 75.4498 49.8999 73.5398 49.7099C72.4898 49.5999 71.4998 49.1799 70.4498 49.0799C68.4998 48.8999 66.5298 49.8699 64.6098 49.5099C62.8698 49.1799 60.4798 48.6499 60.0098 50.7199C60.9898 50.2699 62.4498 50.5799 63.6198 50.7999C65.5498 51.1599 67.5098 50.1899 69.4598 50.3699C70.5098 50.4699 71.4998 50.8899 72.5498 50.9999C74.4698 51.1899 76.3498 50.2999 78.2698 50.3399C78.8698 50.3499 79.4598 50.4599 80.0598 50.4999C81.0098 50.5699 81.9598 50.4799 82.8898 50.3199C83.6898 50.1899 84.6298 49.7699 85.4398 49.8899C86.8298 50.0899 88.0698 51.4199 88.0698 52.8199C88.0698 53.1799 88.0198 53.4899 87.9398 53.7599C88.6198 53.3899 89.0598 52.7099 89.0598 51.5299C89.0698 50.1299 87.8198 48.7999 86.4298 48.5999Z" fill="#777777"/>
<path d="M87.6601 35.7301C86.5601 35.8601 85.4701 36.1401 84.3701 36.0901C83.1801 36.0401 82.0301 35.6001 80.8401 35.5901C79.3801 35.5801 77.9601 36.2101 76.5001 36.1501C75.4201 36.1101 74.3801 35.6901 73.3201 35.4901C72.1501 35.2701 70.9401 35.3201 69.8001 35.6301C69.0801 35.8201 68.3801 36.1201 67.6301 36.2001C66.4701 36.3301 65.3301 35.9501 64.1701 35.8301C62.6801 35.6801 61.2001 35.9701 59.7201 36.1001C58.6001 36.2001 57.5001 36.1001 56.3801 36.1001C55.2101 36.1001 54.2101 36.8501 53.8301 37.8901C54.2701 37.5801 54.8101 37.3901 55.3901 37.3901C56.5101 37.3901 57.6101 37.4901 58.7301 37.3901C60.2101 37.2601 61.6901 36.9701 63.1801 37.1201C64.3401 37.2401 65.4801 37.6201 66.6401 37.4901C67.3801 37.4001 68.0801 37.1101 68.8101 36.9201C69.9601 36.6101 71.1701 36.5701 72.3301 36.7801C73.4001 36.9801 74.4301 37.4001 75.5101 37.4401C76.9701 37.5001 78.3901 36.8701 79.8501 36.8801C81.0401 36.8901 82.1901 37.3301 83.3801 37.3801C84.4801 37.4301 85.5701 37.1501 86.6701 37.0201C88.9801 36.7401 94.3301 36.7401 94.3301 40.1201C94.3301 40.4601 94.2801 40.7301 94.2101 40.9901C94.8701 40.6301 95.3101 39.9901 95.3101 38.8301C95.3201 35.4501 89.9701 35.4501 87.6601 35.7301Z" fill="#777777"/>
<path d="M93.2698 124H18.5998C17.4698 124 16.5498 123.08 16.5498 121.95V108.72C16.5498 107.59 17.4698 106.67 18.5998 106.67H93.2698C94.3998 106.67 95.3198 107.59 95.3198 108.72V121.95C95.3198 123.08 94.3998 124 93.2698 124Z" fill="url(#paint3_linear_2_215349)"/>
<path d="M109.6 124H34.5297C33.5097 124 32.6797 123.17 32.6797 122.15V108.52C32.6797 107.5 33.5097 106.67 34.5297 106.67H109.6C110.62 106.67 111.45 107.5 111.45 108.52V122.15C111.45 123.17 110.62 124 109.6 124Z" fill="url(#paint4_linear_2_215349)"/>
<path d="M32.6801 108.76C32.6101 107.91 33.1301 107.01 33.9801 106.65C34.4001 106.45 34.8901 106.46 35.2901 106.44L36.5601 106.37L41.6301 106.13C45.0101 106 48.3901 105.88 51.7701 105.8C58.5301 105.62 65.2901 105.57 72.0601 105.55C78.8201 105.57 85.5801 105.62 92.3501 105.8C95.7301 105.88 99.1101 106 102.49 106.13L107.56 106.37L108.83 106.44C109.23 106.47 109.72 106.45 110.14 106.65C110.99 107.02 111.51 107.91 111.44 108.76C111.39 107.9 110.77 107.17 110.02 106.96C109.65 106.83 109.26 106.89 108.83 106.91L107.56 106.98L102.49 107.22C99.1101 107.35 95.7301 107.47 92.3501 107.55C85.5901 107.73 78.8301 107.78 72.0601 107.8C65.3001 107.78 58.5401 107.73 51.7701 107.55C48.3901 107.47 45.0101 107.35 41.6301 107.22L36.5601 106.98L35.2901 106.91C34.8501 106.89 34.4701 106.83 34.1001 106.96C33.3501 107.17 32.7301 107.9 32.6801 108.76Z" fill="#E0E0E0"/>
<defs>
<linearGradient id="paint0_linear_2_215349" x1="55.9345" y1="29.979" x2="55.9345" y2="127.592" gradientUnits="userSpaceOnUse">
<stop offset="0.1042" stop-color="#9E9E9E"/>
<stop offset="0.4542" stop-color="#849298"/>
<stop offset="0.6732" stop-color="#7A8D96"/>
<stop offset="0.9483" stop-color="#505E64"/>
</linearGradient>
<linearGradient id="paint1_linear_2_215349" x1="42.0314" y1="8.83933" x2="42.0314" y2="29.1553" gradientUnits="userSpaceOnUse">
<stop stop-color="#757575" stop-opacity="0"/>
<stop offset="0.8282" stop-color="#757575"/>
<stop offset="0.9543" stop-color="#757575" stop-opacity="0"/>
</linearGradient>
<linearGradient id="paint2_linear_2_215349" x1="83.5677" y1="19.5368" x2="52.4533" y2="158.474" gradientUnits="userSpaceOnUse">
<stop offset="0.1528" stop-color="#BDBDBD"/>
<stop offset="1" stop-color="#6E818A"/>
</linearGradient>
<linearGradient id="paint3_linear_2_215349" x1="55.9345" y1="99.8975" x2="55.9345" y2="136.13" gradientUnits="userSpaceOnUse">
<stop offset="0.1042" stop-color="#9E9E9E"/>
<stop offset="0.4542" stop-color="#849298"/>
<stop offset="0.6732" stop-color="#7A8D96"/>
<stop offset="0.9483" stop-color="#505E64"/>
</linearGradient>
<linearGradient id="paint4_linear_2_215349" x1="72.065" y1="104.24" x2="72.065" y2="138.268" gradientUnits="userSpaceOnUse">
<stop offset="0.1528" stop-color="#BDBDBD"/>
<stop offset="1" stop-color="#6E818A"/>
</linearGradient>
</defs>
</svg>
