<svg width="59" height="96" viewBox="0 0 59 96" fill="none" xmlns="http://www.w3.org/2000/svg">
<path d="M44.6011 67.3713C45.048 67.6433 45.4077 67.9453 45.7205 68.3663C45.7122 68.4647 45.7042 68.5632 45.6956 68.6648C45.9708 68.8328 46.2462 69.0003 46.5242 69.1634C47.1688 69.5452 47.7755 69.9629 48.3793 70.4064C48.745 70.6682 49.1139 70.9217 49.4873 71.1725C49.6056 71.2527 49.7241 71.333 49.8462 71.4157C50.0824 71.5756 50.3195 71.7343 50.5575 71.8915C51.5587 72.5733 52.3032 73.375 52.929 74.4143C52.9911 74.5163 53.0535 74.6185 53.1176 74.7236C53.5467 75.4575 53.5467 75.4575 53.5074 75.9278C52.4792 75.7678 52.4792 75.7678 51.4303 75.6046C51.7282 76.6729 52.0438 77.7146 52.4365 78.7506C52.871 79.9018 53.239 81.0648 53.5828 82.2464C53.6133 82.3516 53.6439 82.4568 53.6755 82.5652C53.882 83.2785 54.0826 83.9932 54.2795 84.7091C54.3167 84.8422 54.3538 84.9753 54.3921 85.1124C54.5493 85.7083 54.6226 86.2464 54.645 86.8624C54.7336 87.9701 55.2806 88.874 55.7931 89.838C55.9826 90.1994 56.156 90.5668 56.3253 90.9381C56.3741 91.0438 56.4228 91.1496 56.473 91.2586C56.5687 91.5125 56.5687 91.5125 56.5438 91.8111C56.6424 91.8192 56.7409 91.8274 56.8423 91.8358C57.0319 92.2546 57.2188 92.6741 57.4046 93.0944C57.458 93.212 57.5115 93.3294 57.5666 93.4506C57.8838 94.1746 58.0448 94.7502 58.0368 95.5423C57.2124 95.0587 56.5276 94.6022 55.9221 93.8633C55.7224 93.7073 55.5228 93.5514 55.323 93.3954C54.8519 93.0068 54.4248 92.5708 53.9894 92.1432C53.1198 91.295 53.1198 91.295 52.1795 90.5272C51.5518 90.0546 51.0424 89.4809 50.52 88.8984C50.1694 88.5093 49.8251 88.1515 49.4072 87.8354C48.6877 87.2622 48.2395 86.4252 47.737 85.6675C47.2375 84.9528 46.7497 84.3091 46.0951 83.7272C45.9565 83.5671 45.8193 83.4056 45.6845 83.2422C45.695 83.6283 45.7068 84.0144 45.7197 84.4006C45.7224 84.5091 45.7253 84.6177 45.7281 84.7296C45.7495 85.3407 45.8322 85.8412 46.0208 86.4263C46.0223 86.8331 45.969 87.215 45.9213 87.6204C45.1365 87.3471 44.6731 86.9466 44.1099 86.3613C44.0262 86.2753 43.9423 86.1895 43.8561 86.101C43.06 85.2646 42.3534 84.3634 41.7666 83.367C41.7748 83.2684 41.783 83.1699 41.7914 83.0685C41.5759 82.9761 41.5759 82.9761 41.356 82.8819C41.1666 82.6127 41.1666 82.6127 40.9791 82.2705C40.8766 82.0847 40.8766 82.0847 40.7722 81.8951C40.7021 81.765 40.632 81.6347 40.56 81.5006C40.4891 81.3726 40.4183 81.2447 40.3454 81.1129C40.0141 80.5058 39.7401 79.9433 39.5522 79.275C39.4537 79.2667 39.3552 79.2586 39.2536 79.2501C38.7525 78.0997 38.2523 76.8366 38.3578 75.5685C38.2633 75.5111 38.169 75.4536 38.0718 75.3945C38.135 75.26 38.135 75.26 38.1994 75.1228C38.8212 73.7878 39.4404 72.4412 39.9485 71.0583C40.1235 70.6056 40.1235 70.6056 40.2853 70.4688C40.3135 70.2789 40.3416 70.0891 40.3707 69.8935C40.5288 69.0136 40.9656 68.3113 41.4293 67.5581C41.5771 67.5704 41.7248 67.5827 41.8771 67.5954C42.0032 67.5316 42.1295 67.4676 42.2595 67.4017C43.0647 67.139 43.781 67.1642 44.6011 67.3713Z" fill="#FAD68B"/>
<path d="M40.7209 68.8518C40.8614 69.0327 40.8614 69.0327 41.0046 69.2171C42.5554 70.9329 45.226 71.8314 47.2752 72.8192C47.9128 73.1285 48.5467 73.4451 49.1793 73.7641C49.1711 73.8627 49.1628 73.9612 49.1545 74.0626C48.8097 74.034 48.4649 74.0053 48.1096 73.9757C48.1465 74.0694 48.1832 74.163 48.2211 74.2594C49.2177 76.8072 50.048 79.3495 50.7271 81.998C50.9471 82.8539 51.1948 83.6988 51.4557 84.5434C51.5561 84.9334 51.5561 84.9334 51.5188 85.3811C50.8658 85.1284 50.3585 84.8229 49.8069 84.3932C49.7252 84.3298 49.6436 84.2663 49.5594 84.201C48.5588 83.4162 47.5844 82.5981 46.6105 81.7805C46.2217 81.4558 45.8304 81.135 45.4361 80.8169C45.2419 80.6599 45.2419 80.6599 45.0436 80.4998C44.9194 80.4041 44.7951 80.3084 44.667 80.2098C44.557 80.1242 44.4469 80.0383 44.3334 79.95C44.0235 79.7578 44.0235 79.7578 43.6877 79.8823C43.4741 80.0021 43.265 80.13 43.0588 80.2621C42.7619 80.4441 42.7619 80.4441 42.4634 80.4192C42.4326 80.2835 42.4019 80.1478 42.3701 80.0081C42.0854 78.7918 41.7598 77.6075 41.3412 76.4297C41.0793 75.6564 41.0152 74.9529 41.0323 74.1381C41.1121 74.2594 41.192 74.3807 41.2742 74.5057C41.7701 75.2304 42.232 75.63 42.9729 76.1032C43.0713 76.1112 43.1699 76.1195 43.2714 76.1279C42.2364 74.1386 42.2364 74.1386 41.1978 72.151C41.1297 72.0192 41.0617 71.8874 40.9914 71.7517C40.8184 71.4201 40.8184 71.4201 40.6285 71.1473C40.2938 70.6478 40.2686 70.3356 40.3727 69.7623C40.4572 69.412 40.5334 69.16 40.7209 68.8518Z" fill="#ED820C"/>
<path d="M1.53259 0.297974C1.83214 0.297974 1.83214 0.297974 2.16509 0.617997C2.30228 0.75952 2.43962 0.901042 2.58101 1.04685C2.73573 1.18952 2.89149 1.33088 3.04846 1.47101C4.73417 2.98155 6.3441 4.84743 7.07425 7.03784C7.4105 7.17846 7.4105 7.17846 7.83241 7.2625C8.07894 7.31898 8.07894 7.31898 8.33041 7.37659C8.87769 7.48841 9.42602 7.58687 9.97614 7.68374C15.0161 8.59655 21.4976 10.5337 25.0847 14.4447C25.373 14.8643 25.5347 15.2539 25.7025 15.7341C26.005 16.5559 26.3579 17.3244 26.7568 18.1031C27.5501 19.6645 28.2424 21.2706 28.9351 22.8783C29.4156 23.9877 29.9185 25.0854 30.4298 26.1809C31.1148 27.6507 31.7603 29.1332 32.3842 30.6299C32.8244 31.6825 33.2899 32.7199 33.7716 33.7539C34.5506 35.4359 35.3809 37.247 35.6812 39.0896C35.7743 39.1033 35.8673 39.1171 35.9631 39.1311C36.2803 39.2394 36.2803 39.2394 36.4422 39.4735C36.4821 39.5727 36.5219 39.672 36.563 39.7741C36.6076 39.8839 36.6524 39.9935 36.6984 40.1065C36.7427 40.2219 36.787 40.3374 36.8327 40.4563C36.8787 40.5684 36.9247 40.6803 36.9721 40.7957C37.1821 41.3232 37.328 41.7799 37.4066 42.346C37.4851 42.8783 37.6382 43.1357 37.9279 43.5829C38.1142 43.9668 38.2789 44.359 38.4428 44.7529C38.4894 44.8638 38.5359 44.9746 38.584 45.0887C38.97 46.0386 39.1851 46.9784 39.3495 47.9884C39.8826 49.2559 41.3529 49.8457 42.5241 50.4351C42.6604 50.5052 42.7969 50.5753 42.9374 50.6475C43.48 50.9256 44.0235 51.1997 44.5729 51.4642C45.2171 51.8016 45.7533 52.2616 46.3153 52.7192C46.4551 52.8283 46.4551 52.8283 46.5979 52.9398C47.2139 53.4367 47.6798 53.9909 48.1465 54.6294C48.4573 55.023 48.8056 55.3609 49.161 55.7146C49.4449 56.0308 49.7195 56.3545 49.994 56.6789C50.1532 56.8657 50.3123 57.0524 50.4715 57.2394C50.5522 57.3343 50.633 57.4291 50.7161 57.5271C51.0237 57.8885 51.333 58.2485 51.6423 58.6086C53.2661 60.4992 53.2661 60.4992 54.0198 61.4014C54.2657 61.6928 54.5162 61.9802 54.7723 62.2626C55.3865 62.9621 55.7347 63.4534 55.7311 64.4004C55.5198 64.8898 55.1587 65.0455 54.7026 65.3002C54.2434 65.4699 54.2434 65.4699 53.7198 65.6185C52.4313 65.9985 51.165 66.437 49.8965 66.8784C48.8202 67.2527 47.7429 67.6213 46.6588 67.9724C42.7761 69.2094 42.7761 69.2094 40.1078 72.1361C39.7285 72.9119 39.4915 73.5889 39.4613 74.4552C39.4256 74.736 39.4256 74.736 39.1261 75.1854C39.0281 75.4951 38.9388 75.8077 38.8547 76.1215C38.5637 77.1691 38.2304 78.1973 37.8805 79.2269C37.3735 80.7209 36.8772 82.2182 36.402 83.7225C36.3639 83.8431 36.3259 83.9638 36.2866 84.0881C36.099 84.6851 35.9182 85.283 35.7468 85.885C35.4958 86.739 35.137 87.5503 34.7826 88.3655C34.0369 86.8916 33.3668 85.3657 32.8232 83.8063C32.2488 82.2053 31.5633 80.591 30.8095 79.066C30.4617 78.2522 30.3662 77.3637 30.2237 76.4959C30.0355 75.3775 29.8456 74.2677 29.5739 73.1666C28.7688 69.8454 28.9643 65.8993 30.5422 62.8289C30.6075 62.7007 30.6729 62.5725 30.7405 62.4404C30.7893 62.3462 30.8381 62.252 30.8884 62.155C31.2762 62.2095 31.4477 62.2592 31.7097 62.5583C31.7777 62.6673 31.8458 62.7764 31.9158 62.8886C31.9927 63.0108 32.0697 63.133 32.1489 63.2588C32.5457 63.9175 32.9365 64.5789 33.3223 65.2441C33.9137 66.253 34.5116 67.2546 35.157 68.2301C35.2145 68.3182 35.2722 68.4063 35.3315 68.497C36.0054 69.5263 36.0054 69.5263 37.0574 70.0369C38.2827 69.836 39.2293 69.2339 40.0247 68.2957C40.0741 68.1475 40.1236 67.9992 40.1745 67.8464C40.0395 67.8076 40.0395 67.8076 39.9019 67.7681C39.4082 67.4336 39.3158 66.9503 39.1448 66.4048C39.0673 66.1722 38.9898 65.9398 38.9119 65.7075C38.8729 65.5893 38.834 65.4711 38.7939 65.3494C38.617 64.8229 38.4238 64.3032 38.2274 63.7838C38.1903 63.6855 38.1531 63.5873 38.1148 63.486C38.003 63.1919 37.8907 62.898 37.7781 62.6043C37.7418 62.5089 37.7056 62.4135 37.6682 62.3152C36.9715 60.491 36.1589 58.7741 35.1349 57.1094C34.2109 55.5288 33.8552 53.7751 34.2928 51.9679C34.9283 50.3253 35.9775 48.3414 37.3288 47.1775C37.4276 47.1775 37.5265 47.1775 37.6283 47.1775C37.3318 46.4361 37.0352 45.6947 36.7297 44.9309C36.5814 44.9309 36.4331 44.9309 36.2803 44.9309C36.1815 45.1286 36.0826 45.3263 35.9808 45.53C35.6194 45.1686 35.4997 44.8419 35.3068 44.3692C35.2118 44.1387 35.2118 44.1387 35.1149 43.9036C34.4754 42.2554 34.4754 42.2554 34.726 41.5075C34.8006 41.0843 34.6945 40.8766 34.5181 40.4873C34.4589 40.3534 34.3996 40.2195 34.3385 40.0816C34.275 39.9428 34.2115 39.8038 34.146 39.6606C33.7066 38.6841 33.3007 37.7177 32.9853 36.6932C32.6919 37.1081 32.3986 37.5232 32.1054 37.9382C32.0221 38.0559 31.939 38.1736 31.8531 38.2948C31.773 38.4083 31.6929 38.5217 31.6104 38.6385C31.5367 38.7429 31.463 38.8472 31.387 38.9547C31.2175 39.1972 31.0525 39.4427 30.8884 39.6887C30.7896 39.6887 30.6907 39.6887 30.5889 39.6887C30.5456 39.7783 30.5025 39.8679 30.4578 39.9601C30.2893 40.2878 30.2893 40.2878 29.9898 40.7372C29.8415 40.7372 29.6932 40.7372 29.5405 40.7372C29.491 40.9349 29.4416 41.1326 29.3907 41.3363C29.2918 41.3363 29.193 41.3363 29.0911 41.3363C29.0911 41.4351 29.0911 41.534 29.0911 41.6358C28.9923 41.6358 28.8934 41.6358 28.7916 41.6358C28.7422 41.7841 28.6927 41.9324 28.6418 42.0851C28.3809 42.3531 28.3809 42.3531 28.0614 42.6281C27.9045 42.7654 27.9045 42.7654 27.7444 42.9055C27.4436 43.1336 27.4436 43.1336 26.9943 43.2833C26.9554 43.3695 26.9163 43.4556 26.8761 43.5442C26.6097 44.041 26.1837 44.3205 25.7399 44.65C25.6535 44.7162 25.5669 44.7824 25.4778 44.8507C25.0501 45.1739 24.6313 45.4483 24.1486 45.6797C24.0497 45.7786 23.9509 45.8774 23.849 45.9793C23.8215 45.9007 23.7938 45.8222 23.7653 45.7411C23.4336 44.8546 23.0191 44.0373 22.5667 43.2085C22.1293 42.4045 21.7673 41.6505 21.5444 40.7577C21.4159 40.3096 21.1994 39.9231 20.9811 39.5132C20.8037 39.1323 20.7452 38.7564 20.7038 38.3408C20.5555 38.2913 20.4072 38.2419 20.2544 38.191C20.1366 37.9358 20.0202 37.6795 19.918 37.4176C19.7681 37.0527 19.5598 36.7307 19.3558 36.3937C19.2512 36.146 19.1498 35.8969 19.0562 35.6448C18.9574 35.6448 18.8585 35.6448 18.7567 35.6448C18.7567 35.4471 18.7567 35.2494 18.7567 35.0457C18.6578 35.0457 18.559 35.0457 18.4571 35.0457C18.2666 34.6902 18.0764 34.3343 17.8862 33.9786C17.8327 33.879 17.7794 33.7794 17.7243 33.6766C17.5684 33.3846 17.4135 33.0919 17.2589 32.7991C17.1719 32.6357 17.0848 32.4724 16.995 32.3041C16.8096 31.9005 16.8096 31.9005 16.8096 31.4511C16.7108 31.4511 16.6119 31.4511 16.5101 31.4511C16.2629 30.9569 16.0158 30.4626 15.7612 29.9534C15.8106 30.1017 15.86 30.2499 15.911 30.4027C15.7627 30.4521 15.6144 30.5016 15.4616 30.5525C15.4616 30.4042 15.4616 30.2559 15.4616 30.1032C15.1879 30.1512 14.9141 30.1995 14.6404 30.2478C14.4053 30.2892 14.17 30.3301 13.9347 30.3707C13.4521 30.4545 12.9728 30.5393 12.4954 30.6491C10.3569 31.1363 7.97335 31.0041 5.87606 30.4027C4.06079 24.8603 3.92269 18.978 3.91026 13.1973C3.90981 13.0691 3.90936 12.9409 3.90906 12.809C3.90547 11.3247 3.94157 9.86469 4.07876 8.38581C4.82014 8.38581 5.56153 8.38581 6.32538 8.38581C5.86482 6.42089 4.77012 4.67603 3.47966 3.14369C3.27642 2.88812 3.07362 2.63224 2.87127 2.3761C2.38705 1.77218 1.8907 1.18156 1.38281 0.597523C1.43224 0.498672 1.48166 0.39982 1.53259 0.297974Z" fill="#B4D8E9"/>
<path d="M1.53259 0.297974C1.83214 0.297974 1.83214 0.297974 2.16509 0.617997C2.30228 0.75952 2.43962 0.901042 2.58101 1.04685C2.73573 1.18952 2.89149 1.33088 3.04846 1.47101C4.73417 2.98155 6.3441 4.84743 7.07425 7.03784C7.4105 7.17846 7.4105 7.17846 7.83241 7.2625C8.07894 7.31898 8.07894 7.31898 8.33041 7.37659C8.87769 7.48841 9.42602 7.58687 9.97614 7.68374C14.8031 8.5579 22.3212 10.5435 25.3468 14.8261C25.9968 16.7763 25.4476 18.8844 24.5979 20.6673C24.5506 20.7708 24.5034 20.8745 24.4546 20.9811C23.8803 22.2361 23.2682 23.3693 22.3513 24.4117C22.2667 24.514 22.1822 24.6163 22.095 24.7218C21.4886 25.4434 20.8261 26.0543 20.1047 26.6583C19.9703 26.7759 19.836 26.8935 19.6974 27.0147C16.2911 29.9504 12.426 31.1135 7.9729 30.852C7.25982 30.7625 6.56667 30.6007 5.87606 30.4027C4.06079 24.8603 3.92269 18.978 3.91026 13.1973C3.90981 13.0691 3.90936 12.9409 3.90906 12.809C3.90547 11.3247 3.94156 9.86469 4.07876 8.38581C4.82014 8.38581 5.56153 8.38581 6.32538 8.38581C5.86482 6.42089 4.77012 4.67603 3.47966 3.14369C3.27641 2.88812 3.07362 2.63224 2.87127 2.3761C2.38705 1.77218 1.8907 1.18156 1.38281 0.597523C1.43224 0.498672 1.48166 0.39982 1.53259 0.297974Z" fill="#025078"/>
<path d="M32.8352 36.2439C33.1637 36.7367 33.3481 37.236 33.5467 37.7884C33.777 38.4246 34.0096 39.0537 34.2973 39.6665C35.0175 41.2076 35.0175 41.2076 34.8099 42.1928C34.7212 43.2932 35.4054 44.4764 35.9805 45.3802C36.1782 45.1825 36.3759 44.9848 36.5796 44.7811C37.0315 45.0071 37.0838 45.351 37.2723 45.8108C37.3391 45.971 37.4059 46.1313 37.4748 46.2963C37.628 46.7281 37.628 46.7281 37.628 47.1775C37.4315 47.3633 37.4315 47.3633 37.1624 47.5577C36.4571 48.1333 36.0753 48.8398 35.6435 49.63C35.5277 49.8339 35.5277 49.8339 35.4096 50.0419C34.4338 51.7871 33.9641 53.4265 34.4921 55.4338C34.9021 56.5995 35.5475 57.6899 36.2239 58.7194C36.7009 59.4683 37.0026 60.2836 37.3285 61.1065C37.4188 61.3268 37.5093 61.547 37.5999 61.767C38.231 63.3095 38.8056 64.8621 39.3202 66.4476C39.3666 66.5868 39.4132 66.7259 39.461 66.8694C39.5013 66.993 39.5414 67.1167 39.5829 67.2441C39.7168 67.5975 39.7168 67.5975 40.1742 67.8464C40.0396 68.6141 39.5663 69.0193 38.976 69.4939C38.2158 69.953 37.4768 70.2483 36.5796 70.093C36.251 69.8487 36.0749 69.6633 35.8307 69.3441C35.7021 69.1822 35.7021 69.1822 35.571 69.017C34.719 67.8975 34.0259 66.6943 33.3244 65.4775C33.0192 64.9508 32.7078 64.4279 32.3952 63.9055C32.3131 63.7671 32.3131 63.7671 32.2294 63.6259C31.7302 62.6923 31.7302 62.6923 30.8882 62.1549C30.848 62.2878 30.8079 62.4206 30.7666 62.5575C30.5886 63.0536 30.5886 63.0536 30.3674 63.3976C30.1062 63.8613 30.0091 64.2639 29.9053 64.7853C29.871 64.9524 29.8369 65.1194 29.8017 65.2914C29.764 65.494 29.7268 65.6967 29.69 65.8993C29.6645 66.0353 29.639 66.1713 29.6128 66.3113C29.0281 69.5854 29.5347 72.6056 30.2498 75.8039C30.3884 76.4283 30.5038 77.0521 30.6021 77.6842C30.6962 78.2749 30.8167 78.7936 31.0661 79.3416C31.1313 79.4887 31.1966 79.6359 31.2638 79.7875C31.3375 79.9492 31.4113 80.111 31.4873 80.2777C31.6206 80.5795 31.753 80.8817 31.8851 81.1841C31.9722 81.3835 32.06 81.5827 32.1482 81.7817C32.4409 82.444 32.7144 83.1126 32.9814 83.7856C33.1325 84.1663 33.2858 84.5463 33.4396 84.9259C33.5408 85.177 33.6421 85.428 33.7432 85.6789C33.8193 85.8662 33.8193 85.8662 33.8968 86.0572C34.2229 86.8676 34.5163 87.6833 34.7823 88.5153C34.219 89.1174 33.823 89.288 33.0037 89.3203C32.8775 89.3277 32.7512 89.335 32.6211 89.3425C32.0491 89.2261 31.8556 88.9637 31.4873 88.5153C31.2244 88.097 30.9989 87.664 30.7758 87.2235C30.7114 87.0989 30.6472 86.9741 30.5808 86.8456C30.018 85.7466 29.4899 84.6315 28.9669 83.5131C28.4006 82.3053 27.7995 81.1133 27.1847 79.9296C26.994 79.5288 26.994 79.5288 26.994 79.2293C26.9 79.1911 26.8059 79.1529 26.7092 79.1135C26.2603 78.8511 26.1941 78.4985 26.0515 78.0176C25.9056 77.4171 25.7937 76.812 25.6865 76.2035C25.4969 75.1422 25.253 74.0945 25.004 73.0457C24.4856 70.8287 24.5743 68.7253 24.7795 66.4753C24.9447 64.5894 24.9951 62.6989 25.047 60.807C25.2584 60.8288 25.4698 60.8511 25.6811 60.8736C25.7988 60.886 25.9165 60.8985 26.0379 60.9112C26.7733 61.005 27.4889 61.194 28.208 61.3704C29.2019 61.6093 30.167 61.7886 31.1877 61.8554C31.1371 61.7559 31.0866 61.6565 31.0345 61.554C30.9677 61.4218 30.9009 61.2895 30.832 61.1532C30.766 61.0229 30.6999 60.8926 30.6319 60.7584C30.1393 59.7358 30.1393 59.7358 30.1393 59.1594C30.0404 59.1594 29.9416 59.1594 29.8397 59.1594C29.5293 58.4759 29.23 57.7912 28.9598 57.0907C28.611 56.2045 28.1789 55.3623 27.7429 54.5164C26.8535 54.6505 25.9925 54.7971 25.1311 55.0594C24.2645 55.2855 23.4285 55.3095 22.5382 55.312C22.4054 55.3129 22.2724 55.3137 22.1355 55.3146C20.2634 55.2945 20.2634 55.2945 19.5176 54.7598C19.0289 54.1342 18.6701 53.4911 18.3305 52.7735C18.0483 52.1969 17.6956 51.6866 17.2868 51.1932C17.2281 51.1037 17.1694 51.0141 17.1089 50.9218C17.1583 50.7735 17.2077 50.6253 17.2587 50.4725C17.4069 50.5457 17.5552 50.6188 17.708 50.6942C18.6189 51.0348 19.5707 50.9834 20.5291 50.9721C20.8525 50.9687 21.1757 50.9692 21.4991 50.9701C22.527 50.968 23.4637 50.9316 24.4479 50.6223C24.7219 50.5639 24.9965 50.5072 25.2716 50.4538C25.3998 50.4286 25.528 50.4036 25.6601 50.3777C25.8014 50.3504 25.8014 50.3504 25.9456 50.3227C25.846 50.1011 25.7461 49.8795 25.6461 49.658C25.5793 49.5098 25.5125 49.3615 25.4436 49.2087C25.2589 48.8094 25.0696 48.4144 24.875 48.0199C24.8199 47.907 24.7649 47.7942 24.7082 47.678C24.5981 47.4524 24.4865 47.2278 24.3736 47.0037C24.3228 46.899 24.272 46.7945 24.2197 46.6866C24.1504 46.5471 24.1504 46.5471 24.0797 46.4046C23.9774 46.0571 24.0214 45.866 24.1483 45.5299C24.4104 45.3117 24.4104 45.3117 24.7474 45.1088C25.7937 44.4489 26.7292 43.7207 27.5931 42.834C27.8674 42.5975 28.1444 42.365 28.4239 42.1348C28.6607 41.9416 28.6607 41.9416 28.7913 41.6358C28.8902 41.6358 28.989 41.6358 29.0909 41.6358C29.0909 41.5369 29.0909 41.4381 29.0909 41.3362C29.1897 41.3362 29.2886 41.3362 29.3904 41.3362C29.4058 41.2405 29.4213 41.1447 29.4372 41.046C29.4712 40.9441 29.5051 40.8421 29.5402 40.7371C29.6885 40.6877 29.8368 40.6383 29.9895 40.5874C30.1907 40.2887 30.3905 39.9893 30.5886 39.6887C30.6875 39.6887 30.7863 39.6887 30.8882 39.6887C30.922 39.6113 30.9557 39.5338 30.9906 39.4542C31.3161 38.8524 31.7425 38.3196 32.1545 37.7747C32.5255 37.2697 32.7755 36.8866 32.8352 36.2439Z" fill="#B0BDC8"/>
<path d="M39.725 48.9747C40.3864 49.2147 40.9809 49.5506 41.5879 49.9015C42.375 50.3525 43.1661 50.7731 43.9843 51.1652C44.8559 51.5941 45.5805 52.0875 46.3151 52.7191C46.4528 52.8271 46.4527 52.8271 46.5931 52.9373C47.2123 53.4335 47.6787 53.9893 48.1464 54.6293C48.4572 55.0229 48.8054 55.3608 49.1608 55.7146C49.4448 56.0308 49.7195 56.3544 49.994 56.6788C50.1531 56.8656 50.3123 57.0524 50.4714 57.2393C50.5521 57.3343 50.6328 57.4291 50.7159 57.527C51.0236 57.8884 51.3329 58.2485 51.6421 58.6085C53.2662 60.4991 53.2662 60.4991 54.0198 61.4014C54.2656 61.6927 54.5162 61.9801 54.7721 62.2626C55.3864 62.962 55.7346 63.4533 55.731 64.4003C55.5197 64.8898 55.1586 65.0454 54.7025 65.3002C54.2433 65.4699 54.2433 65.4699 53.7197 65.6185C52.4312 65.9984 51.1648 66.437 49.8964 66.8784C48.8201 67.2526 47.7428 67.6212 46.6588 67.9723C42.7761 69.2093 42.7761 69.2093 40.1077 72.136C39.7283 72.9119 39.4914 73.5889 39.4611 74.4552C39.4255 74.736 39.4255 74.736 39.1259 75.1853C39.028 75.495 38.9387 75.8076 38.8545 76.1214C38.5635 77.1691 38.2303 78.1973 37.8804 79.2268C37.3734 80.7208 36.8772 82.2181 36.402 83.7225C36.3638 83.843 36.3257 83.9638 36.2865 84.0881C36.0988 84.6851 35.918 85.283 35.7467 85.8849C35.4957 86.7389 35.1368 87.5503 34.7825 88.3655C34.0367 86.8916 33.3668 85.3657 32.8231 83.8062C32.2487 82.2053 31.5632 80.591 30.8094 79.066C30.4616 78.2521 30.3662 77.3636 30.2238 76.4958C30.0353 75.3775 29.8454 74.2676 29.5737 73.1665C28.7688 69.8454 28.9641 65.8993 30.542 62.8289C30.6075 62.7007 30.6729 62.5725 30.7403 62.4404C30.7892 62.3462 30.838 62.252 30.8883 62.1549C31.2761 62.2094 31.4476 62.2592 31.7097 62.5583C31.7777 62.6673 31.8457 62.7763 31.9158 62.8885C31.9926 63.0107 32.0696 63.1329 32.1488 63.2587C32.5456 63.9175 32.9363 64.5789 33.3221 65.244C33.9136 66.2529 34.5115 67.2546 35.1569 68.2301C35.2146 68.3181 35.2721 68.4062 35.3314 68.497C36.0052 69.5262 36.0052 69.5262 37.0572 70.0368C38.2521 69.8409 39.1992 69.286 39.9555 68.3396C40.3523 67.7169 40.57 67.0543 40.7734 66.3486C40.8097 66.231 40.8459 66.1136 40.8834 65.9924C41.1897 64.9545 41.3254 63.9533 41.4007 62.8756C41.413 62.7188 41.4251 62.562 41.4378 62.4004C41.4673 62.0191 41.4955 61.6377 41.5223 61.2563C41.6706 61.2068 41.8189 61.1574 41.9716 61.1065C42.0269 58.2666 42.0269 58.2666 41.4001 55.5121C41.0586 54.5025 40.7865 53.4788 40.5241 52.4465C40.4451 52.1357 40.365 51.8254 40.2846 51.5151C40.0682 50.6715 39.8571 49.8365 39.725 48.9747Z" fill="#025078"/>
<path d="M15.6116 29.8036C16.0089 30.1744 16.3125 30.4911 16.5102 31.0018C16.5102 31.1501 16.5102 31.2983 16.5102 31.4511C16.6091 31.4511 16.7079 31.4511 16.8098 31.4511C16.8409 31.5258 16.8719 31.6006 16.904 31.6776C17.2981 32.596 17.7634 33.466 18.249 34.3383C18.4573 34.7462 18.4573 34.7462 18.4573 35.0457C18.5562 35.0457 18.655 35.0457 18.7569 35.0457C18.7569 35.2434 18.7569 35.4411 18.7569 35.6448C18.8557 35.6448 18.9546 35.6448 19.0564 35.6448C19.1052 35.7335 19.1541 35.822 19.2044 35.9134C19.4854 36.4214 19.7654 36.9275 20.0674 37.4234C20.2546 37.7417 20.2546 37.7417 20.4044 38.191C20.4754 38.2584 20.5465 38.3258 20.6198 38.3951C20.9207 38.7104 21.0138 39.0055 21.1533 39.4173C21.5651 40.6169 22.0169 41.7651 22.5668 42.9089C22.624 43.0292 22.6813 43.1494 22.7403 43.2734C23.1929 44.2217 23.6611 45.1613 24.1383 46.0974C25.9461 49.6535 25.9461 49.6535 25.9461 50.3227C25.6655 50.4204 25.3845 50.5168 25.1036 50.613C24.869 50.6937 24.869 50.6937 24.6297 50.7761C23.499 51.1186 22.3706 51.1044 21.2004 51.1076C20.8744 51.1091 20.5485 51.1137 20.2224 51.1183C17.8239 51.1374 17.8239 51.1374 16.9338 50.3257C16.4166 49.6023 15.9778 48.8865 15.6116 48.0761C15.4097 47.6377 15.4097 47.6377 15.0967 47.2805C14.644 46.7915 14.4134 46.1904 14.4134 45.5299C14.3145 45.5299 14.2157 45.5299 14.1138 45.5299C14.1138 45.4311 14.1138 45.3322 14.1138 45.2304C14.015 45.2304 13.9161 45.2304 13.8143 45.2304C13.6287 44.785 13.4697 44.3538 13.365 43.8824C13.2661 43.8824 13.1673 43.8824 13.0654 43.8824C12.9649 43.6643 12.8652 43.4458 12.7659 43.2272C12.7103 43.1055 12.6546 42.9839 12.5974 42.8586C12.4663 42.5344 12.4663 42.5344 12.4663 42.2349C12.3675 42.2349 12.2686 42.2349 12.1668 42.2349C12.1046 42.083 12.0425 41.931 11.9784 41.7745C11.7377 41.2131 11.4467 40.6931 11.1371 40.1662C10.7712 39.5388 10.4229 38.9112 10.1074 38.2566C9.90278 37.8327 9.72305 37.533 9.4241 37.1613C9.17128 36.843 9.17128 36.843 9.17128 36.2439C9.07243 36.2439 8.97357 36.2439 8.87173 36.2439C8.65291 35.8475 8.57218 35.6607 8.57218 35.1955C8.47333 35.1955 8.37448 35.1955 8.27263 35.1955C8.12435 34.7507 7.97607 34.3058 7.8233 33.8475C7.72445 33.8475 7.6256 33.8475 7.52375 33.8475C7.47493 33.7247 7.4261 33.6019 7.37578 33.4755C7.27752 33.2333 7.27753 33.2333 7.17748 32.9863C7.11307 32.8265 7.04882 32.6665 6.98262 32.5019C6.79675 32.0558 6.79675 32.0558 6.53449 31.7295C6.32556 31.4511 6.32556 31.4511 6.17578 30.852C8.25166 30.852 10.3275 30.852 12.4663 30.852C12.4663 30.7532 12.4663 30.6543 12.4663 30.5525C13.4478 30.2101 14.429 30.1621 15.4618 30.1031C15.536 30.2514 15.536 30.2514 15.6116 30.4027C15.6116 30.205 15.6116 30.0073 15.6116 29.8036Z" fill="#DAF2F9"/>
<path d="M25.4961 15.7249C25.8245 16.2176 26.0851 16.7309 26.348 17.26C26.4012 17.3673 26.4545 17.4745 26.5094 17.5851C27.3719 19.3275 28.1655 21.0934 28.9348 22.8785C29.4151 23.9879 29.918 25.0855 30.4294 26.1809C31.1143 27.6508 31.7598 29.1333 32.3838 30.63C32.824 31.6826 33.2895 32.7199 33.7711 33.754C34.5501 35.436 35.3805 37.247 35.6808 39.0897C35.8203 39.1102 35.8203 39.1102 35.9626 39.1312C36.2799 39.2395 36.2799 39.2395 36.4418 39.4736C36.4816 39.5727 36.5214 39.672 36.5625 39.7742C36.6071 39.884 36.6519 39.9936 36.6979 40.1065C36.7422 40.222 36.7865 40.3375 36.8322 40.4564C36.8782 40.5684 36.9242 40.6803 36.9717 40.7958C37.1816 41.3233 37.3275 41.78 37.4062 42.3461C37.4846 42.8784 37.6377 43.1357 37.9274 43.583C38.1137 43.9668 38.2787 44.3589 38.4423 44.753C38.4881 44.8634 38.534 44.9738 38.5813 45.0875C38.9334 45.9629 39.1873 46.8421 39.3889 47.763C39.4961 48.2493 39.5935 48.5532 39.8745 48.9749C39.9471 49.279 40.0182 49.5838 40.0817 49.89C40.2598 50.7251 40.4703 51.5529 40.6756 52.3818C40.728 52.5936 40.78 52.8056 40.8315 53.0177C41.1138 54.178 41.4134 55.3142 41.851 56.4282C42.0525 56.9893 42.1013 57.5183 42.1211 58.1111C42.125 58.2148 42.1289 58.3183 42.1328 58.425C42.1447 58.7884 42.1524 59.1517 42.1585 59.5153C42.1618 59.6348 42.165 59.7543 42.1683 59.8774C42.1702 60.2208 42.1702 60.2208 42.1211 60.8071C42.0475 60.879 41.974 60.951 41.8982 61.0251C41.5958 61.334 41.6094 61.5215 41.5939 61.9485C41.5865 62.0873 41.579 62.226 41.5714 62.3691C41.5644 62.5178 41.5573 62.6665 41.5501 62.8197C41.469 64.0608 41.2903 65.2062 40.9229 66.3955C40.8838 66.5223 40.8445 66.6492 40.8043 66.7799C40.5201 67.6501 40.5201 67.6501 40.174 67.9963C39.5535 67.4479 39.2939 67.0178 39.06 66.2271C38.9981 66.0263 38.9357 65.8256 38.8728 65.625C38.841 65.522 38.8091 65.4189 38.7763 65.3127C38.4826 64.3967 38.1233 63.5018 37.7776 62.6044C37.7229 62.4606 37.7229 62.4606 37.6671 62.3141C36.9706 60.4901 36.1581 58.7737 35.1344 57.1094C34.2104 55.5289 33.8547 53.7751 34.2923 51.968C34.9278 50.3254 35.977 48.3415 37.3283 47.1776C37.4271 47.1776 37.526 47.1776 37.6278 47.1776C37.3313 46.4362 37.0347 45.6948 36.7292 44.9309C36.5809 44.9309 36.4326 44.9309 36.2799 44.9309C36.181 45.1286 36.0822 45.3263 35.9803 45.53C35.6189 45.1686 35.4992 44.842 35.3063 44.3693C35.243 44.2156 35.1796 44.0619 35.1145 43.9036C34.4764 42.2597 34.4764 42.2597 34.7244 41.5053C34.7989 41.0942 34.7054 40.9024 34.5335 40.5243C34.4767 40.3965 34.4201 40.2687 34.3617 40.1372C34.2995 40.0015 34.2375 39.866 34.1737 39.7263C34.0472 39.4421 33.9212 39.1577 33.7957 38.8733C33.7335 38.7325 33.6715 38.5917 33.6074 38.4466C33.3687 37.8882 33.1609 37.3212 32.9567 36.7495C32.6008 35.774 32.1645 34.8909 31.6368 33.9974C31.4245 33.6337 31.2125 33.2698 31.001 32.9055C30.8534 32.6518 30.7049 32.3984 30.5558 32.1454C29.9221 31.063 29.6191 30.1206 29.3868 28.8845C29.2371 28.2931 29.0327 27.7587 28.7997 27.1963C28.6475 26.8232 28.5085 26.4481 28.3734 26.0686C27.6251 23.9912 26.7862 21.8769 25.2996 20.2088C25.0485 19.9039 25.0485 19.9039 24.897 19.619C24.9346 19.2676 25.05 19.0127 25.1995 18.6928C25.4044 18.1039 25.4222 17.5334 25.4493 16.9138C25.4573 16.7394 25.4573 16.7394 25.4654 16.5618C25.4771 16.2829 25.4868 16.0039 25.4961 15.7249Z" fill="#5B84A4"/>
<path d="M4.07832 8.38574C4.32545 8.38574 4.57258 8.38574 4.8272 8.38574C4.67892 8.45988 4.67892 8.45988 4.52765 8.53552C4.52765 8.68379 4.52765 8.83207 4.52765 8.98484C4.62665 9.00087 4.72565 9.01689 4.82765 9.03337C5.3938 9.16113 5.92609 9.34505 6.46528 9.55578C6.56863 9.59008 6.67212 9.62438 6.77861 9.65973C7.66932 10.0168 7.96738 10.585 8.3511 11.4391C8.77541 12.4809 9.181 13.5283 9.57311 14.5827C9.70102 14.9248 9.82908 15.2667 9.95773 15.6085C10.037 15.8189 10.1157 16.0296 10.1939 16.2405C10.418 16.8381 10.6784 17.4029 10.968 17.9713C11.0694 18.2704 11.1691 18.57 11.2675 18.87C11.4944 19.3999 11.7296 19.9259 11.9655 20.4519C12.1522 20.9312 12.253 21.3568 12.3159 21.8655C12.4148 21.8655 12.5136 21.8655 12.6155 21.8655C12.6841 22.0427 12.7528 22.22 12.8237 22.4026C13.2977 23.6238 13.7731 24.8442 14.263 26.0592C14.3629 26.3087 14.4627 26.5584 14.5626 26.808C14.6115 26.9304 14.6605 27.0529 14.7111 27.179C14.8154 27.4401 14.919 27.7014 15.0224 27.963C15.0745 28.0946 15.1266 28.2263 15.1804 28.362C15.2271 28.4804 15.2737 28.599 15.3219 28.7211C15.4551 29.0401 15.6023 29.3467 15.7608 29.6538C15.4082 29.7727 15.0556 29.8912 14.7029 30.0095C14.6045 30.0427 14.5061 30.0758 14.4048 30.1101C11.6454 31.0344 8.69558 31.2111 5.87562 30.4026C4.06035 24.8602 3.92211 18.978 3.90983 13.1973C3.90938 13.069 3.90893 12.9408 3.90848 12.8089C3.90503 11.3263 3.93244 9.86237 4.07832 8.38574Z" fill="#04B6EE"/>
<path d="M25.0466 60.8069C25.2587 60.8289 25.4706 60.8515 25.6826 60.8741C25.8598 60.8929 25.8598 60.8929 26.0404 60.912C26.8141 61.0095 27.5637 61.2104 28.3183 61.4036C28.4221 61.4301 28.526 61.4566 28.633 61.4839C28.8389 61.5366 29.0446 61.5901 29.2501 61.6443C29.944 61.8227 30.6247 61.9281 31.3372 62.0051C31.1889 62.0545 31.0406 62.1039 30.8878 62.1549C30.78 62.4516 30.6812 62.7517 30.5883 63.0535C30.516 63.1669 30.4435 63.2801 30.3689 63.3969C30.1057 63.8611 30.009 64.2626 29.905 64.7852C29.8709 64.9524 29.8366 65.1194 29.8014 65.2913C29.7636 65.4939 29.7265 65.6966 29.6896 65.8992C29.6642 66.0352 29.6387 66.1712 29.6125 66.3113C29.0278 69.5853 29.5345 72.6055 30.2497 75.8038C30.388 76.4282 30.5035 77.0521 30.6018 77.6841C30.696 78.2748 30.8164 78.7935 31.0658 79.3415C31.1309 79.4886 31.1962 79.6358 31.2635 79.7874C31.3372 79.9492 31.411 80.1109 31.4869 80.2776C31.6204 80.5794 31.7526 80.8816 31.8847 81.184C31.9719 81.3834 32.0597 81.5826 32.1479 81.7816C32.4406 82.4439 32.714 83.1125 32.9811 83.7855C33.1324 84.1662 33.2856 84.5462 33.4393 84.9259C33.5405 85.1769 33.6417 85.4279 33.743 85.6788C33.8189 85.8662 33.8189 85.8662 33.8965 86.0571C34.2226 86.8675 34.516 87.6832 34.782 88.5152C34.2187 89.1173 33.8227 89.2879 33.0034 89.3203C32.8771 89.3276 32.7509 89.3349 32.6209 89.3424C32.0487 89.2261 31.8552 88.9636 31.4869 88.5152C31.2242 88.0969 30.9985 87.6639 30.7755 87.2234C30.6791 87.0363 30.6791 87.0363 30.5805 86.8455C30.0176 85.7465 29.4895 84.6314 28.9665 83.513C28.4002 82.3053 27.7992 81.1132 27.1845 79.9295C26.9937 79.5287 26.9937 79.5287 26.9937 79.2292C26.8528 79.1718 26.8528 79.1718 26.7088 79.1134C26.2601 78.851 26.1937 78.4984 26.0512 78.0175C25.9053 77.4171 25.7934 76.812 25.6862 76.2034C25.4965 75.1421 25.2529 74.0945 25.0038 73.0456C24.4853 70.8286 24.5741 68.7252 24.7791 66.4753C24.9443 64.5893 24.9948 62.6988 25.0466 60.8069Z" fill="#04B6EE"/>
<path d="M36.5796 44.7811C37.0315 45.0071 37.0838 45.351 37.2723 45.8108C37.3391 45.9711 37.4059 46.1313 37.4748 46.2964C37.628 46.7282 37.628 46.7282 37.628 47.1775C37.4315 47.3634 37.4315 47.3634 37.1624 47.5578C36.4571 48.1334 36.0753 48.8399 35.6435 49.6301C35.5278 49.8339 35.5278 49.8339 35.4096 50.042C34.4338 51.7871 33.9641 53.4266 34.4921 55.4339C34.9021 56.5996 35.5475 57.6899 36.2239 58.7195C36.7009 59.4683 37.0026 60.2837 37.3285 61.1066C37.4188 61.3269 37.5093 61.5471 37.5999 61.7671C38.231 63.3096 38.8056 64.8622 39.3202 66.4477C39.3666 66.5868 39.4132 66.726 39.461 66.8695C39.5013 66.993 39.5414 67.1167 39.5829 67.2442C39.7168 67.5975 39.7168 67.5975 40.1742 67.8464C40.0396 68.6142 39.5663 69.0193 38.976 69.494C38.2158 69.953 37.4768 70.2484 36.5796 70.0931C36.251 69.8488 36.0749 69.6634 35.8307 69.3442C35.7021 69.1823 35.7021 69.1823 35.571 69.0171C34.719 67.8975 34.026 66.6944 33.3244 65.4776C33.0192 64.9508 32.7078 64.428 32.3952 63.9056C32.3405 63.8133 32.2859 63.721 32.2294 63.6259C32.0086 63.2569 31.7856 62.9022 31.5241 62.5604C31.3375 62.3048 31.3375 62.3048 31.3375 62.0052C30.9421 62.0052 30.5467 62.0052 30.1393 62.0052C30.1393 61.9558 30.1393 61.9064 30.1393 61.8555C30.4853 61.8555 30.8313 61.8555 31.1877 61.8555C31.1118 61.7063 31.1118 61.7063 31.0345 61.5541C30.9677 61.4219 30.9009 61.2896 30.832 61.1533C30.766 61.023 30.6999 60.8927 30.6319 60.7585C30.1393 59.7358 30.1393 59.7358 30.1393 59.1595C30.0405 59.1595 29.9416 59.1595 29.8398 59.1595C29.5293 58.4759 29.23 57.7913 28.9598 57.0908C28.3814 55.5418 28.3814 55.5418 27.4434 54.2169C27.7399 54.1181 28.0365 54.0192 28.342 53.9174C28.342 53.8185 28.342 53.7197 28.342 53.6178C28.6386 53.5437 28.6386 53.5437 28.9411 53.4681C28.9411 53.3692 28.9411 53.2704 28.9411 53.1685C29.4596 52.7192 29.4596 52.7192 29.8398 52.7192C29.8398 52.6203 29.8398 52.5215 29.8398 52.4196C30.0807 52.1821 30.0807 52.1821 30.4014 51.9142C30.7487 51.6201 31.0757 51.3324 31.3937 51.0061C31.6371 50.7721 31.6371 50.7721 31.9366 50.7721C31.986 50.6238 32.0355 50.4756 32.0864 50.3228C32.3295 50.0668 32.5796 49.8175 32.8353 49.5739C32.9187 49.4844 33.0021 49.3948 33.0881 49.3025C33.2846 49.1246 33.2846 49.1246 33.5841 49.1246C33.635 49.0042 33.635 49.0042 33.6872 48.8812C33.952 48.4019 34.2637 48.0327 34.6325 47.6268C34.7314 47.6268 34.8303 47.6268 34.9321 47.6268C35.1009 47.2169 35.249 46.8178 35.3721 46.3912C35.4508 46.1874 35.4508 46.1874 35.5312 45.9793C35.6795 45.9299 35.8278 45.8805 35.9805 45.8296C36.1638 45.5856 36.1638 45.5856 36.3082 45.2961C36.3978 45.1261 36.4874 44.9562 36.5796 44.7811Z" fill="#B5DBEB"/>
<path d="M1.53259 0.297974C1.83214 0.297974 1.83214 0.297974 2.16509 0.617997C2.30228 0.75952 2.43962 0.901042 2.58101 1.04685C2.73573 1.18952 2.89149 1.33088 3.04846 1.47101C4.73417 2.98155 6.3441 4.84743 7.07425 7.03784C7.4105 7.17846 7.4105 7.17846 7.83241 7.2625C8.07894 7.31898 8.07894 7.31898 8.33041 7.37659C8.87769 7.48841 9.42602 7.58687 9.97614 7.68374C14.8031 8.5579 22.3212 10.5435 25.3468 14.8261C25.558 15.4597 25.5301 16.0627 25.534 16.7265C25.5386 16.9227 25.5386 16.9227 25.5433 17.1228C25.5487 18.01 25.4065 18.6571 25.0472 19.4691C24.899 19.3703 24.7507 19.2714 24.5979 19.1696C24.5979 19.0707 24.5979 18.9719 24.5979 18.87C24.4685 18.8094 24.4685 18.8094 24.3365 18.7474C23.9939 18.568 23.6984 18.3661 23.3874 18.1365C23.2724 18.0523 23.1575 17.9681 23.0391 17.8812C22.8006 17.7054 22.5623 17.5296 22.324 17.3536C21.6536 16.8629 20.985 16.4203 20.2544 16.0243C20.2544 15.9255 20.2544 15.8266 20.2544 15.7248C20.1184 15.6815 19.9826 15.6384 19.8426 15.5937C19.4573 15.4604 19.1142 15.3181 18.7567 15.1257C18.7567 15.0268 18.7567 14.928 18.7567 14.8261C18.6767 14.8023 18.5969 14.7787 18.5145 14.7542C17.7631 14.5188 17.0837 14.2239 16.3849 13.8637C14.7586 13.0546 13.0807 12.342 11.4084 11.6341C11.2903 11.584 11.1722 11.5339 11.0506 11.4824C10.2877 11.1629 9.52038 10.8796 8.72642 10.6447C7.95808 10.2354 7.6452 9.07088 7.28424 8.31796C7.1123 7.92001 7.1123 7.92001 6.7747 7.78671C6.72528 7.93499 6.67585 8.08327 6.62493 8.23604C6.52608 8.23604 6.42723 8.23604 6.32538 8.23604C6.29602 8.14138 6.26667 8.04687 6.23642 7.94937C5.63657 6.15504 4.6849 4.59413 3.47966 3.14369C3.27656 2.88801 3.07377 2.63214 2.87127 2.3761C2.38705 1.77218 1.8907 1.18156 1.38281 0.597523C1.43224 0.498672 1.48166 0.39982 1.53259 0.297974Z" fill="#07294B"/>
<path d="M26.6104 28.5772C26.8604 28.5741 26.8604 28.5741 27.1153 28.5709C27.9532 28.6314 28.4028 28.8938 28.9599 29.5133C30.0018 30.7497 30.121 31.9624 29.9896 33.5479C29.6654 35.8316 28.6593 37.5367 26.9942 39.0896C25.9492 39.8287 25.1374 40.1662 23.8489 39.9883C22.7492 39.6364 21.9303 39.0086 21.3027 38.0412C20.4773 36.3815 20.8971 34.7806 21.4525 33.0986C22.1238 31.3245 23.403 29.7282 25.0471 28.7551C25.5653 28.581 26.0666 28.5804 26.6104 28.5772Z" fill="#023B65"/>
<path d="M37.628 46.8781C37.9467 47.3563 38.0478 47.7087 38.1897 48.2635C38.215 48.3613 38.2403 48.4592 38.2664 48.56C38.3231 48.779 38.3793 48.9981 38.4353 49.2174C38.6008 49.8641 38.7701 50.5099 38.9385 51.1559C38.9758 51.2996 39.0131 51.4432 39.0515 51.591C39.322 52.63 39.5986 53.667 39.8779 54.7036C40.0831 55.4667 40.2837 56.2312 40.4848 56.9953C40.6069 57.4504 40.7351 57.9028 40.8663 58.3551C41.7375 61.4687 41.7253 64.6909 40.4737 67.6967C40.3749 67.7956 40.276 67.8944 40.1742 67.9963C39.5537 67.448 39.2941 67.0178 39.0602 66.2272C38.9982 66.0263 38.9357 65.8256 38.873 65.6251C38.841 65.522 38.8093 65.419 38.7765 65.3128C38.4828 64.3968 38.1235 63.5019 37.7778 62.6044C37.723 62.4606 37.723 62.4606 37.6671 62.3141C36.9708 60.4902 36.1581 58.7738 35.1344 57.1095C34.2106 55.5289 33.8549 53.7752 34.2925 51.968C34.928 50.3254 35.9771 48.3415 37.3285 47.1776C37.4273 47.1776 37.5262 47.1776 37.628 47.1776C37.628 47.0787 37.628 46.9799 37.628 46.8781Z" fill="#658BAB"/>
<path d="M27.8925 54.5164C28.1272 54.9154 28.3099 55.2909 28.4916 55.7146C28.6014 55.9692 28.6014 55.9692 28.7133 56.2289C28.8676 56.5876 29.0197 56.9471 29.1709 57.3071C29.3167 57.6423 29.474 57.9726 29.6425 58.297C29.8396 58.7101 29.8396 58.7101 29.8396 59.1594C29.9384 59.1594 30.0373 59.1594 30.1391 59.1594C30.2151 59.3573 30.2151 59.3573 30.2924 59.559C30.3592 59.7329 30.426 59.9069 30.4949 60.0861C30.5939 60.3441 30.5939 60.3441 30.695 60.6074C30.8564 61.0246 31.0204 61.4405 31.1876 61.8554C30.0668 61.9503 29.1243 61.7279 28.0499 61.4195C27.0647 61.1435 26.0537 60.9816 25.0468 60.8069C25.0492 60.9693 25.0492 60.9693 25.0516 61.1348C25.0828 63.6399 25.0074 66.103 24.7473 68.5952C24.6978 68.5952 24.6484 68.5952 24.5975 68.5952C24.5716 66.2502 24.5716 66.2502 24.6724 65.5248C24.7549 64.8898 24.7802 64.2549 24.794 63.6152C24.7985 63.5125 24.803 63.4096 24.8075 63.3037C24.8138 62.7699 24.7657 62.4825 24.4705 62.0321C24.2298 61.7883 23.9842 61.5491 23.7363 61.3124C23.3993 60.9567 23.3993 60.9567 23.3993 60.5074C23.3004 60.5074 23.2016 60.5074 23.0997 60.5074C22.9236 60.2331 22.7603 59.9507 22.6037 59.6649C22.3136 59.1512 22.0468 58.7047 21.6676 58.2513C21.092 57.5579 20.4038 56.6396 20.4038 55.7146C20.3049 55.7146 20.2061 55.7146 20.1042 55.7146C20.0054 55.4675 19.9065 55.2203 19.8047 54.9657C19.9724 54.9892 20.1402 55.0129 20.3132 55.0372C22.3625 55.2898 24.2922 55.1733 26.282 54.6199C26.4059 54.5856 26.5297 54.5511 26.6575 54.5158C26.7661 54.4836 26.8747 54.4515 26.9865 54.4183C27.346 54.3578 27.5555 54.3778 27.8925 54.5164Z" fill="#D8F1F8"/>
<path d="M35.8312 39.2395C35.9795 39.2395 36.1277 39.2395 36.2805 39.2395C36.4536 39.6413 36.625 40.0439 36.7954 40.447C36.8441 40.5598 36.8929 40.6724 36.9431 40.7885C37.2329 41.4786 37.3724 42.0897 37.4787 42.8341C37.6792 43.2088 37.6792 43.2088 37.928 43.583C38.1143 43.9668 38.2794 44.359 38.4429 44.753C38.4888 44.8634 38.5348 44.9738 38.5819 45.0875C38.9341 45.9629 39.1879 46.8421 39.3895 47.763C39.4968 48.2494 39.5941 48.5532 39.8751 48.9749C39.9479 49.2791 40.0189 49.5838 40.0824 49.89C40.2605 50.7251 40.4709 51.5529 40.6762 52.3818C40.7287 52.5936 40.7806 52.8057 40.8322 53.0177C41.1146 54.178 41.4142 55.3142 41.8517 56.4283C42.0533 56.9893 42.1019 57.5183 42.1217 58.1111C42.1256 58.2148 42.1295 58.3183 42.1334 58.4251C42.1455 58.7884 42.153 59.1518 42.1592 59.5153C42.1625 59.6348 42.1656 59.7543 42.169 59.8774C42.1738 60.7539 42.1738 60.7539 41.8988 61.0349C41.8241 61.108 41.7494 61.1811 41.6724 61.2564C41.6161 61.6502 41.5824 62.0129 41.5695 62.4079C41.5644 62.5129 41.5592 62.618 41.5539 62.7263C41.5416 62.9851 41.5319 63.2441 41.5226 63.503C41.4732 63.503 41.4238 63.503 41.3728 63.503C41.3725 63.3393 41.3721 63.1756 41.3716 63.007C41.3369 61.122 40.9704 59.417 40.4727 57.6049C40.2724 56.8728 40.0788 56.1389 39.885 55.405C39.7364 54.8421 39.5874 54.2794 39.4367 53.717C39.1619 52.6896 38.8986 51.6627 38.6769 50.6224C38.3405 49.1425 37.9553 47.7434 37.308 46.3643C36.7975 45.2681 36.7975 45.2681 36.8796 44.6314C36.7313 44.6314 36.583 44.6314 36.4303 44.6314C36.1184 43.9875 35.8216 43.3384 35.5316 42.6843C35.4702 42.5542 35.4088 42.424 35.3456 42.29C35.011 41.452 35.1076 40.964 35.4287 40.1194C35.5586 39.8242 35.6913 39.5302 35.8312 39.2395Z" fill="#2F6F98"/>
<path d="M25.646 28.6054C25.9548 28.5973 26.2638 28.5915 26.5728 28.5867C26.7447 28.5832 26.9168 28.5798 27.094 28.5762C27.9455 28.626 28.3942 28.8846 28.9598 29.5133C30.0014 30.7497 30.1208 31.9624 29.9895 33.5479C29.7414 35.2942 29.0618 37.3811 27.5931 38.4905C27.0467 38.5711 26.7383 38.5873 26.2451 38.3407C26.2451 38.2419 26.2451 38.143 26.2451 38.0412C26.1462 38.0412 26.0474 38.0412 25.9455 38.0412C25.8883 37.5403 25.9011 37.3491 26.2181 36.9448C26.326 36.8123 26.4337 36.6799 26.5446 36.5434C27.58 34.7921 28.0565 32.9433 27.668 30.9094C27.4415 30.1448 27.122 29.6053 26.5446 29.0547C26.0721 28.8426 26.0721 28.8426 25.646 28.7552C25.646 28.7057 25.646 28.6563 25.646 28.6054Z" fill="#0E92CE"/>
<path d="M1.53237 0.447652C1.67091 0.652889 1.80826 0.859053 1.93961 1.06898C2.16412 1.39339 2.41724 1.67326 2.68384 1.96412C3.77705 3.18261 4.69172 4.4575 5.5014 5.87699C5.5664 5.98847 5.63141 6.09996 5.69821 6.21482C6.10619 6.95116 6.27199 7.54472 6.32516 8.38572C5.5727 8.63659 4.84239 8.57084 4.07854 8.38572C4.07854 8.28686 4.07854 8.18801 4.07854 8.08617C3.97969 8.08617 3.88084 8.08617 3.77899 8.08617C3.77899 7.98731 3.77899 7.88846 3.77899 7.78662C3.55658 7.71248 3.55658 7.71248 3.32967 7.63684C2.8086 6.9964 2.46712 6.22656 2.14615 5.47155C1.95174 5.02125 1.74191 4.57934 1.53237 4.13586C0.378955 1.62976 0.378955 1.62976 0.483947 0.447652C0.934919 0.307718 1.06313 0.291212 1.53237 0.447652Z" fill="#BEDBE9"/>
<path d="M1.53259 0.297974C1.83214 0.297974 1.83214 0.297974 2.16509 0.617997C2.30228 0.75952 2.43962 0.901042 2.58101 1.04685C2.73573 1.18952 2.89149 1.33088 3.04846 1.47101C4.73417 2.98155 6.3441 4.84743 7.07425 7.03784C7.4105 7.17846 7.4105 7.17846 7.83241 7.2625C8.07894 7.31898 8.07894 7.31898 8.33041 7.37659C8.87769 7.48841 9.42602 7.58687 9.97614 7.68374C11.0112 7.86744 12.0227 8.12056 13.0371 8.3951C13.1812 8.43374 13.3251 8.47238 13.4735 8.51207C13.6085 8.54937 13.7436 8.58666 13.8826 8.62515C14.003 8.65825 14.1234 8.6915 14.2476 8.7258C14.563 8.83514 14.563 8.83514 15.0123 9.13469C15.0123 9.23354 15.0123 9.33239 15.0123 9.43424C14.468 9.78261 13.9982 9.7582 13.3648 9.73379C13.3648 9.63494 13.3648 9.53608 13.3648 9.43424C12.5493 9.3601 12.5493 9.3601 11.7173 9.28446C11.6678 9.13618 11.6184 8.98791 11.5675 8.83514C11.1721 8.88456 10.7767 8.93399 10.3693 8.98491C10.3693 8.88606 10.3693 8.78721 10.3693 8.68536C9.85033 8.7595 9.85033 8.7595 9.32088 8.83514C9.27145 8.98341 9.22202 9.13169 9.1711 9.28446C9.07225 9.28446 8.9734 9.28446 8.87155 9.28446C8.87155 9.38331 8.87155 9.48216 8.87155 9.58401C8.7727 9.58401 8.67385 9.58401 8.572 9.58401C8.572 9.68286 8.572 9.78171 8.572 9.88356C8.30166 9.86484 8.30166 9.86484 7.9729 9.73379C7.72832 9.33119 7.72832 9.33119 7.50486 8.83514C7.26312 8.19695 7.26312 8.19695 6.7747 7.78671C6.72528 7.93499 6.67585 8.08327 6.62493 8.23604C6.52608 8.23604 6.42723 8.23604 6.32538 8.23604C6.29602 8.14138 6.26667 8.04687 6.23641 7.94937C5.63657 6.15504 4.6849 4.59413 3.47966 3.14369C3.27656 2.88801 3.07377 2.63214 2.87127 2.3761C2.38705 1.77218 1.8907 1.18156 1.38281 0.597523C1.43224 0.498672 1.48166 0.39982 1.53259 0.297974Z" fill="#025078"/>
<path d="M28.0427 28.7551C29.0154 29.5256 29.8053 30.3185 29.9898 31.6008C30.0644 32.7871 29.9816 33.8937 29.6903 35.0457C29.5914 35.0457 29.4926 35.0457 29.3907 35.0457C29.3413 35.1939 29.2919 35.3422 29.2409 35.495C29.0432 35.3961 28.8455 35.2973 28.6418 35.1954C28.5924 35.2943 28.543 35.3931 28.4921 35.495C28.4921 35.3467 28.4921 35.1984 28.4921 35.0457C28.3438 35.0457 28.1955 35.0457 28.0427 35.0457C28.0444 34.9521 28.0459 34.8586 28.0475 34.7621C28.0538 34.3324 28.0577 33.9027 28.0615 33.473C28.064 33.326 28.0666 33.1787 28.0691 33.0272C28.0751 32.142 27.9867 31.4025 27.7432 30.5524C27.6807 29.5979 27.6807 29.5979 28.0427 29.0547C28.0427 28.9558 28.0427 28.857 28.0427 28.7551Z" fill="#10A1DD"/>
<path d="M39.7251 48.9747C40.3865 49.2147 40.9808 49.5506 41.588 49.9015C42.6951 50.5337 43.8205 51.1135 44.9672 51.6707C44.8931 51.8931 44.8931 51.8931 44.8174 52.12C44.7198 52.1182 44.622 52.1166 44.5213 52.1148C43.8026 52.1073 43.1283 52.1209 42.421 52.2698C42.421 52.3686 42.421 52.4675 42.421 52.5693C42.1267 52.7766 41.8264 52.9755 41.5224 53.1684C41.3217 53.3169 41.1217 53.4663 40.9233 53.6177C40.2065 51.2007 40.2065 51.2007 39.903 50.1168C39.868 49.992 39.8331 49.8674 39.797 49.7389C39.7251 49.4241 39.7251 49.4241 39.7251 48.9747Z" fill="#07294B"/>
<path d="M1.53259 0.297974C1.83214 0.297974 1.83214 0.297974 2.16509 0.617997C2.30228 0.75952 2.43962 0.901042 2.58101 1.04685C2.73573 1.18952 2.89149 1.33088 3.04846 1.47101C4.57376 2.83784 5.5819 4.24915 6.61385 6.01516C6.67001 6.11106 6.72633 6.20698 6.78429 6.30579C6.98529 6.71115 7.11934 7.03275 6.99053 7.47547C6.86876 7.72905 6.74685 7.98247 6.62493 8.23604C6.52608 8.23604 6.42723 8.23604 6.32538 8.23604C6.29602 8.14138 6.26667 8.04687 6.23642 7.94937C5.63657 6.15504 4.6849 4.59413 3.47966 3.1437C3.27656 2.88801 3.07377 2.63214 2.87127 2.3761C2.38705 1.77218 1.8907 1.18156 1.38281 0.597523C1.43224 0.498672 1.48166 0.399821 1.53259 0.297974Z" fill="#5A83A0"/>
<path d="M35.8312 39.2395C35.9795 39.2395 36.1277 39.2395 36.2805 39.2395C36.4584 39.6346 36.6325 40.0308 36.8047 40.4284C36.8547 40.5385 36.9048 40.6486 36.9563 40.7621C37.3701 41.7291 37.4893 42.5714 37.1979 43.5929C37.1423 43.7163 37.0867 43.8397 37.0294 43.9667C36.9738 44.0936 36.9182 44.2204 36.8609 44.3512C36.796 44.4899 36.796 44.4899 36.7298 44.6314C36.631 44.6314 36.5321 44.6314 36.4303 44.6314C36.1184 43.9875 35.8216 43.3384 35.5316 42.6843C35.4702 42.5542 35.4088 42.424 35.3456 42.29C35.011 41.452 35.1076 40.964 35.4287 40.1194C35.5586 39.8242 35.6913 39.5302 35.8312 39.2395Z" fill="#355973"/>
<path d="M25.7961 37.442C25.8456 37.6397 25.895 37.8374 25.9459 38.0411C26.0448 38.0411 26.1436 38.0411 26.2455 38.0411C26.2455 38.14 26.2455 38.2388 26.2455 38.3407C26.6409 38.3407 27.0363 38.3407 27.4437 38.3407C27.18 39.1316 26.4363 39.4953 25.7494 39.8851C24.5834 40.1835 23.7092 40.0021 22.6555 39.4471C22.3513 39.2393 22.3513 39.2393 22.0518 38.79C22.184 38.768 22.3163 38.746 22.4526 38.7233C23.7123 38.4879 24.7122 38.1256 25.7961 37.442Z" fill="#085D88"/>
<path d="M24.897 71.8904C25.1965 72.1899 25.1965 72.1899 25.1965 72.789C25.2954 72.789 25.3942 72.789 25.4961 72.789C25.7577 73.3612 25.8436 73.8476 25.8798 74.474C25.8663 75.0268 25.8663 75.0268 26.0952 75.485C26.1624 75.9798 26.2178 76.4744 26.2692 76.971C26.3369 77.5697 26.4371 78.0837 26.6943 78.6302C27.0051 78.6526 27.0051 78.6526 27.2934 78.4805C27.3115 78.5691 27.3296 78.6577 27.3483 78.749C27.5354 79.6916 27.5354 79.6916 27.8925 80.5773C28.1149 80.6515 28.1149 80.6515 28.3418 80.7271C28.8202 81.3945 29.0108 82.1529 29.1662 82.9462C29.2792 83.444 29.4615 83.8652 29.6898 84.3217C29.838 84.3958 29.838 84.3958 29.9893 84.4715C30.2941 85.2081 30.53 85.9493 30.7382 86.7181C30.2571 86.4775 30.121 85.978 29.8957 85.5106C29.7879 85.2906 29.68 85.0706 29.5722 84.8505C29.5171 84.7376 29.4621 84.6247 29.4053 84.5083C29.2006 84.0906 28.9911 83.6754 28.7812 83.2602C28.3234 82.3528 27.8766 81.4405 27.4431 80.5212C27.3978 80.4257 27.3524 80.3303 27.3057 80.2321C26.9938 79.5645 26.9938 79.5645 26.9938 79.2293C26.8527 79.172 26.8527 79.172 26.7089 79.1136C26.2607 78.8515 26.1942 78.4999 26.0519 78.0195C25.878 77.3049 25.7487 76.5827 25.6201 75.8588C25.4642 74.9912 25.2756 74.1306 25.0872 73.2695C24.9862 72.8016 24.897 72.3706 24.897 71.8904Z" fill="#2FBAE3"/>
<path d="M27.2935 35.0457C27.4661 35.6178 27.3669 35.8425 27.1438 36.3936C27.1186 36.8743 27.1186 36.8743 27.1438 37.2923C27.2426 37.2429 27.3415 37.1934 27.4433 37.1425C27.7927 37.1365 28.1423 37.1361 28.4917 37.1425C28.2569 37.7188 27.9236 38.0975 27.4433 38.4905C26.9636 38.5469 26.6778 38.557 26.2451 38.3407C26.2451 38.2418 26.2451 38.143 26.2451 38.0412C26.1463 38.0412 26.0474 38.0412 25.9456 38.0412C25.8906 37.5598 25.8972 37.355 26.1984 36.9646C26.3126 36.8256 26.4269 36.6866 26.5447 36.5434C26.8114 36.0523 27.0543 35.5507 27.2935 35.0457Z" fill="#0A7EB2"/>
<path d="M34.7825 41.0366C34.8814 41.0366 34.9802 41.0366 35.0821 41.0366C35.251 41.4671 35.4194 41.8977 35.5876 42.3284C35.635 42.4494 35.6825 42.5705 35.7315 42.6952C35.9815 43.3358 36.2202 43.9761 36.43 44.6312C36.5783 44.6312 36.7266 44.6312 36.8794 44.6312C36.8299 44.7301 36.7805 44.8289 36.7296 44.9308C36.5813 44.9308 36.433 44.9308 36.2803 44.9308C36.1814 45.1285 36.0826 45.3262 35.9807 45.5299C35.6193 45.1685 35.4996 44.8418 35.3067 44.3691C35.2434 44.2154 35.1802 44.0618 35.1149 43.9035C34.7076 42.854 34.5297 42.143 34.7825 41.0366Z" fill="#76808E"/>
<path d="M36.5797 44.7811C37.0315 45.0071 37.0838 45.351 37.2724 45.8108C37.3392 45.9711 37.406 46.1313 37.4749 46.2964C37.6281 46.7282 37.6281 46.7282 37.6281 47.1775C37.2537 47.4303 37.2537 47.4303 36.8792 47.6268C36.3547 47.2771 36.2295 46.9975 35.9806 46.4287C35.9806 46.3298 35.9806 46.2309 35.9806 46.1291C35.8323 46.1785 35.684 46.228 35.5312 46.2789C35.5312 46.18 35.5312 46.0812 35.5312 45.9793C35.6795 45.9299 35.8278 45.8805 35.9806 45.8296C36.1639 45.5856 36.1639 45.5856 36.3083 45.2961C36.3978 45.1261 36.4874 44.9562 36.5797 44.7811Z" fill="#A3C0D5"/>
<path d="M39.4256 73.0886C39.61 73.4572 39.5733 73.6464 39.5286 74.0529C39.511 74.2286 39.511 74.2286 39.4928 74.408C39.4256 74.7361 39.4256 74.7361 39.126 75.1855C39.0281 75.4952 38.9388 75.8078 38.8546 76.1216C38.6307 76.9265 38.3941 77.7242 38.1338 78.518C38.0731 78.7041 38.0125 78.8901 37.95 79.082C37.7781 79.5289 37.7781 79.5289 37.4785 79.8285C37.5151 78.9358 37.6213 78.2623 38.0607 77.4842C38.3604 76.8522 38.5108 76.1708 38.6872 75.4961C38.8265 75.0357 38.8265 75.0357 39.126 74.5864C39.1885 74.25 39.1885 74.25 39.2102 73.8937C39.2611 73.2531 39.2611 73.2531 39.4256 73.0886Z" fill="#2C595A"/>
<path d="M24.897 71.8904C25.1965 72.1899 25.1965 72.1899 25.1965 72.789C25.2954 72.789 25.3942 72.789 25.4961 72.789C25.7577 73.3612 25.8436 73.8476 25.8798 74.474C25.8663 75.0268 25.8663 75.0268 26.0952 75.485C26.106 75.7375 26.1078 75.9905 26.1045 76.2431C26.1031 76.3809 26.1018 76.5186 26.1004 76.6604C26.0988 76.7668 26.097 76.8731 26.0952 76.9827C25.8173 76.4879 25.6918 76.0092 25.5698 75.4564C25.5302 75.2778 25.4907 75.0993 25.4498 74.9154C25.4095 74.7297 25.3692 74.5438 25.3276 74.3524C25.2861 74.1659 25.2446 73.9794 25.2018 73.7874C24.897 72.4008 24.897 72.4008 24.897 71.8904Z" fill="#2894B4"/>
<path d="M25.646 28.6054C25.9611 28.5973 26.2763 28.5915 26.5914 28.5867C26.8547 28.5814 26.8547 28.5814 27.1232 28.5762C27.5931 28.6054 27.5931 28.6054 28.0424 28.9049C27.7458 28.9049 27.4493 28.9049 27.1437 28.9049C27.1437 29.0038 27.1437 29.1026 27.1437 29.2045C27.2426 29.2045 27.3414 29.2045 27.4433 29.2045C27.4927 29.4022 27.5421 29.5999 27.5931 29.8036C27.4448 29.8036 27.2965 29.8036 27.1437 29.8036C27.0542 29.6862 26.9646 29.5689 26.8724 29.4479C26.4909 28.9903 26.2147 28.8973 25.646 28.7552C25.646 28.7057 25.646 28.6563 25.646 28.6054Z" fill="#1A82B6"/>
<path d="M30.7383 86.8678C31.1876 87.0176 31.1876 87.0176 31.3795 87.3821C31.4397 87.5306 31.5 87.679 31.562 87.832C31.8282 88.5096 31.8282 88.5096 32.3858 88.9646C32.7271 89.0326 32.7271 89.0326 33.0879 89.0583C33.209 89.0695 33.33 89.0807 33.4547 89.0923C33.5469 89.0996 33.6388 89.1069 33.7338 89.1144C33.7338 89.1638 33.7338 89.2133 33.7338 89.2642C32.4096 89.38 32.4096 89.38 31.8149 88.9834C30.7383 87.4455 30.7383 87.4455 30.7383 86.8678Z" fill="#42B6D7"/>
<path d="M34.4831 87.7664C34.6516 88.0285 34.6516 88.0285 34.7826 88.3655C34.6441 88.7697 34.5693 88.9214 34.1835 89.1143C33.8778 89.125 33.572 89.1269 33.2662 89.1236C33.102 89.1223 32.938 89.1209 32.7689 89.1196C32.5794 89.117 32.5794 89.117 32.3862 89.1143C32.5839 89.0649 32.7816 89.0155 32.9853 88.9646C32.9853 88.8657 32.9853 88.7669 32.9853 88.665C33.149 88.6929 33.3127 88.7206 33.4814 88.7492C34.0242 88.8534 34.0242 88.8534 34.4831 88.665C34.4831 88.3685 34.4831 88.0719 34.4831 87.7664Z" fill="#1AA9D1"/>
<path d="M24.7476 70.6919C24.8958 70.7413 25.0441 70.7907 25.1969 70.8417C25.2463 71.4842 25.2957 72.1267 25.3467 72.7887C25.0471 72.1896 25.0471 72.1896 25.0471 71.8901C24.9483 71.8901 24.8494 71.8901 24.7476 71.8901C24.7476 71.4947 24.7476 71.0993 24.7476 70.6919Z" fill="#1FAEDB"/>
<path d="M37.1788 80.1279C37.2777 80.1774 37.3765 80.2268 37.4784 80.2777C37.2807 80.9202 37.083 81.5628 36.8793 82.2248C36.8298 82.2248 36.7804 82.2248 36.7295 82.2248C36.7466 81.9594 36.7657 81.6943 36.7857 81.4292C36.7961 81.2813 36.8065 81.1337 36.8173 80.9815C36.8793 80.5773 36.8793 80.5773 37.1788 80.1279Z" fill="#296575"/>
<path d="M47.2139 76.9825C48.0751 77.1136 48.0751 77.1136 48.4121 77.2821C48.4121 77.3809 48.4121 77.4798 48.4121 77.5816C48.0167 77.6311 47.6213 77.6805 47.2139 77.7314C47.2139 77.4843 47.2139 77.2372 47.2139 76.9825Z" fill="#E9A43D"/>
<path d="M18.607 27.7068C18.607 28.1561 18.607 28.1561 18.2887 28.5493C17.8205 28.936 17.5559 29.0131 16.9595 29.0548C17.4581 28.5163 18.0064 28.1226 18.607 27.7068Z" fill="#CDC8D6"/>
<path d="M27.8926 81.1763C28.0409 81.2257 28.1891 81.2751 28.3419 81.326C28.484 81.6683 28.484 81.6683 28.5947 82.0842C28.6323 82.222 28.6699 82.3596 28.7087 82.5015C28.736 82.6078 28.7632 82.7142 28.7912 82.8238C28.3612 82.4203 28.134 82.0161 27.8926 81.4758C27.8926 81.377 27.8926 81.2781 27.8926 81.1763Z" fill="#3AB6DF"/>
<path d="M39.5753 73.0886C39.8748 73.5379 39.8748 73.5379 39.8386 73.9094C39.8073 74.0433 39.776 74.177 39.7438 74.315C39.7132 74.4499 39.6828 74.5849 39.6514 74.7239C39.6136 74.8783 39.6136 74.8783 39.5753 75.0357C39.2757 74.7361 39.2757 74.7361 39.2739 74.4225C39.29 74.3036 39.306 74.1847 39.3225 74.0622C39.3374 73.9432 39.3523 73.8243 39.3675 73.7018C39.4255 73.3882 39.4255 73.3882 39.5753 73.0886Z" fill="#AA7F40"/>
<path d="M45.7158 84.7709C46.1277 84.7896 46.1277 84.7896 46.6145 84.9206C46.9702 85.3793 46.9702 85.3793 47.2136 85.8193C46.6774 85.5719 46.1981 85.2605 45.7158 84.9206C45.7158 84.8712 45.7158 84.8218 45.7158 84.7709Z" fill="#DE8A24"/>
<path d="M44.2183 83.8723C44.7864 84.0224 45.224 84.1434 45.716 84.4714C45.716 84.5703 45.716 84.6691 45.716 84.771C45.1783 84.5713 44.6981 84.3375 44.2183 84.0221C44.2183 83.9727 44.2183 83.9232 44.2183 83.8723Z" fill="#DF8924"/>
</svg>
