<svg width="128" height="128" viewBox="0 0 128 128" fill="none" xmlns="http://www.w3.org/2000/svg">
<path d="M15.5601 120.59C15.3301 120.18 15.0901 119.78 14.9301 119.36C14.1301 117.33 14.0501 115.83 12.0301 114.99C11.0101 114.56 8.7701 113.91 7.7101 113.59C5.8201 113.03 4.2601 111.45 3.7401 109.54C3.2201 107.63 3.7601 105.48 5.1101 104.04C7.1901 101.82 10.5501 101.58 13.5701 101.24C21.8201 100.29 27.8601 91.5501 33.3701 86.0401C37.0301 82.3801 40.6901 78.7201 44.3501 75.0601L52.9901 83.7001C52.9901 83.7001 42.9701 93.7201 42.3701 94.3201C36.8701 99.8201 27.3601 106.01 27.6401 114.62C27.6901 116.23 28.0301 117.89 27.5201 119.42C26.8301 121.5 24.7301 122.79 22.6601 123.52C21.5801 123.9 20.4101 124.18 19.2901 123.94C17.6001 123.57 16.4401 122.15 15.5601 120.59Z" fill="#C8DEE9"/>
<path d="M14.4398 110.53C16.6098 110.76 16.7598 113.46 16.2198 115.89C16.0298 116.74 15.5798 117.65 14.8498 117.97C14.1798 118.26 14.0998 116.4 12.6498 115.36C12.1798 115.02 8.49977 114.32 6.29977 112.97C5.67977 112.59 5.81977 111.66 6.53977 111.51C8.95977 111.01 13.4698 110.42 14.4398 110.53Z" fill="#8ABFD1"/>
<path d="M25.8506 94.0399C25.8506 94.0399 25.8506 94.0499 25.8506 94.0399C26.0906 93.7999 28.8006 93.9599 29.9406 95.9799C30.6806 97.2899 31.0406 98.8299 30.8606 100.3C30.6106 102.31 29.7206 104.17 28.9106 106.01C27.2406 109.8 27.7606 112.17 27.8006 112.32C29.0606 104.88 37.3806 99.3099 42.3806 94.3099C42.9906 93.6999 53.0006 83.6899 53.0006 83.6899L43.6006 74.8799C42.2406 76.2499 27.2806 92.6199 25.8506 94.0399Z" fill="#8ABFD1"/>
<path d="M27.4205 90.6699C27.3705 90.7199 27.3205 90.7799 27.2705 90.8299L27.2305 90.9599C27.2905 90.8599 27.3605 90.7699 27.4205 90.6699Z" fill="#A5C7D3"/>
<path d="M112.44 120.59C112.67 120.18 112.88 119.77 113.07 119.36C114.01 117.38 115.04 115.19 117.06 114.34C118.08 113.91 119.23 113.91 120.29 113.59C122.18 113.03 123.74 111.45 124.26 109.54C124.78 107.63 124.24 105.48 122.89 104.04C120.81 101.82 117.45 101.58 114.43 101.24C106.18 100.29 100.14 91.5496 94.6298 86.0396C90.9698 82.3796 87.3098 78.7196 83.6498 75.0596L75.0098 83.6996C75.0098 83.6996 85.0298 93.7196 85.6298 94.3196C91.1298 99.8196 100.64 106.01 100.36 114.62C100.31 116.23 99.9698 117.89 100.48 119.42C101.17 121.5 103.27 122.79 105.34 123.52C106.42 123.9 107.59 124.18 108.71 123.94C110.4 123.57 111.56 122.15 112.44 120.59Z" fill="#C8DEE9"/>
<path d="M102.15 94.0396C102.15 94.0396 102.15 94.0497 102.15 94.0396C101.91 93.7997 99.1998 93.9597 98.0598 95.9797C97.3198 97.2897 96.9598 98.8297 97.1398 100.3C97.3898 102.31 98.2798 104.17 99.0898 106.01C100.76 109.8 100.24 112.17 100.2 112.32C98.9398 104.88 90.6198 99.3096 85.6198 94.3096C85.0198 93.7196 75.0098 83.6996 75.0098 83.6996L84.4098 74.8896C85.7598 76.2496 100.72 92.6196 102.15 94.0396Z" fill="#8ABFD1"/>
<path d="M100.58 90.6694C100.63 90.7194 100.68 90.7794 100.73 90.8294L100.77 90.9594C100.71 90.8594 100.64 90.7694 100.58 90.6694Z" fill="#A5C7D3"/>
<path d="M113.72 110.529C111.55 110.759 111.4 113.459 111.94 115.889C112.13 116.739 112.58 117.649 113.31 117.969C113.98 118.259 114.06 116.399 115.51 115.359C115.98 115.019 119.66 114.319 121.86 112.969C122.48 112.589 122.34 111.659 121.62 111.509C119.2 111.009 114.69 110.419 113.72 110.529Z" fill="#8ABFD1"/>
<path d="M15.5601 7.40984C15.3301 7.81984 15.1201 8.22984 14.9301 8.63984C13.9901 10.6198 12.9601 12.8098 10.9401 13.6598C9.9201 14.0898 8.7701 14.0898 7.7101 14.4098C5.8201 14.9698 4.2601 16.5498 3.7401 18.4598C3.2201 20.3598 3.7601 22.5198 5.1101 23.9598C7.1901 26.1798 10.5501 26.4198 13.5701 26.7598C21.8201 27.7098 27.8601 36.4498 33.3701 41.9598C37.0301 45.6198 40.6901 49.2798 44.3501 52.9398L52.9901 44.2998C52.9901 44.2998 42.9701 34.2798 42.3701 33.6798C36.8701 28.1798 27.3601 21.9898 27.6401 13.3798C27.6901 11.7698 28.0301 10.1098 27.5201 8.57984C26.8301 6.49984 24.7301 5.20984 22.6601 4.47984C21.5801 4.09984 20.4101 3.81984 19.2901 4.05984C17.6001 4.42984 16.4401 5.84984 15.5601 7.40984Z" fill="#C8DEE9"/>
<path d="M27.4205 37.33C27.3705 37.28 27.3205 37.22 27.2705 37.17L27.2305 37.04C27.2905 37.14 27.3605 37.23 27.4205 37.33Z" fill="#A5C7D3"/>
<path d="M7.88981 22.54C12.8198 22.64 14.0398 21.7899 15.3098 21.3299C19.3898 19.8699 20.4798 22.5799 19.3398 24.7399C17.9398 27.3999 12.2898 27.2599 8.11981 25.7599C7.22981 25.4399 4.91981 24.4099 4.63981 23.3199C4.19981 21.6099 7.17981 22.52 7.88981 22.54Z" fill="#8ABFD1"/>
<path d="M52.9903 44.2996C52.9903 44.2996 38.9003 31.0696 35.9003 27.8496C29.8303 28.4596 26.5403 32.2896 26.0303 34.2096C29.2503 37.1996 40.6903 49.2796 44.3503 52.9396L52.9903 44.2996Z" fill="#8ABFD1"/>
<path d="M112.44 7.40984C112.67 7.81984 112.88 8.22984 113.07 8.63984C114.01 10.6198 115.04 12.8098 117.06 13.6598C118.08 14.0898 119.23 14.0898 120.29 14.4098C122.18 14.9698 123.74 16.5498 124.26 18.4598C124.78 20.3598 124.24 22.5198 122.89 23.9598C120.81 26.1798 117.45 26.4198 114.43 26.7598C106.18 27.7098 100.14 36.4498 94.6298 41.9598C90.9698 45.6198 87.3098 49.2798 83.6498 52.9398L75.0098 44.2998C75.0098 44.2998 85.0298 34.2798 85.6298 33.6798C91.1298 28.1798 100.64 21.9898 100.36 13.3798C100.31 11.7698 99.9698 10.1098 100.48 8.57984C101.17 6.49984 103.27 5.20984 105.34 4.47984C106.42 4.09984 107.59 3.81984 108.71 4.05984C110.4 4.42984 111.56 5.84984 112.44 7.40984Z" fill="#C8DEE9"/>
<path d="M100.58 37.33C100.63 37.28 100.68 37.22 100.73 37.17L100.77 37.04C100.71 37.14 100.64 37.23 100.58 37.33Z" fill="#A5C7D3"/>
<path d="M120.11 22.4296C115.18 22.5296 113.96 21.6796 112.69 21.2196C108.61 19.7596 107.52 22.4696 108.66 24.6296C110.06 27.2896 115.71 27.1496 119.88 25.6496C120.77 25.3296 123.08 24.2996 123.36 23.2096C123.8 21.5096 120.82 22.4196 120.11 22.4296Z" fill="#8ABFD1"/>
<path d="M75.0098 44.2997C75.0098 44.2997 90.3598 29.9397 93.3598 26.7197C101.37 28.4597 102.76 33.3497 102.76 33.3497C102.76 33.3497 87.3198 49.2697 83.6598 52.9297C83.6498 52.9397 75.0098 44.2997 75.0098 44.2997Z" fill="#8ABFD1"/>
<path d="M99.71 68.4801C100.13 65.9501 101.88 54.7001 100.29 45.8601C99.27 40.2301 96.51 35.8701 92.58 32.1501C85.01 24.9801 74.7 21.6201 64.85 21.3301C64.8 21.3201 64.74 21.3201 64.69 21.3201C64.64 21.3201 64.58 21.3101 64.53 21.3101C64.44 21.3101 64.35 21.3201 64.27 21.3201C64.18 21.3201 64.09 21.3101 64.01 21.3101C63.96 21.3101 63.9 21.3201 63.85 21.3201C63.8 21.3201 63.74 21.3101 63.69 21.3301C53.84 21.6201 43.53 24.9801 35.96 32.1501C32.04 35.8701 29.27 40.2301 28.25 45.8601C26.65 54.7001 28.41 65.9501 28.83 68.4801C29.4 71.9301 27.89 75.7401 27.59 79.1801C27.27 82.9201 29.03 85.8201 32.19 87.8701C34.83 89.5801 37.89 90.4901 40.74 91.8201C44.13 93.4001 41.05 99.1001 42.3 101.98C42.93 103.44 44.31 104.43 45.73 105.14C47.54 106.04 49.63 106.61 51.59 106.11C51.29 106.19 52.15 107.91 53.29 108.61C54.32 109.25 55.61 109.9 56.8 110.16C59.18 110.68 61.53 109.81 62.99 109.05C63.79 108.64 64.73 108.64 65.52 109.05C66.99 109.81 69.34 110.69 71.71 110.16C73.5 109.77 75.09 108.71 76.23 107.32C76.76 106.67 77.59 106.31 78.43 106.37C80.92 106.53 84.73 105.52 86.39 101.76C87.31 99.6701 86.38 97.2101 87 95.0201C88.04 91.3101 91.69 90.3901 94.63 88.6701C98.52 86.3801 100.82 83.8301 100.93 80.2201C101.08 76.3801 99.22 71.4401 99.71 68.4801Z" fill="#E1E7EA"/>
<path d="M55.3471 68.4816C56.795 63.0777 53.9859 57.6298 49.0728 56.3134C44.1597 54.997 39.0031 58.3106 37.5552 63.7145C36.1073 69.1183 38.9164 74.5662 43.8295 75.8826C48.7426 77.199 53.8992 73.8854 55.3471 68.4816Z" fill="#424242"/>
<path d="M84.7193 75.8853C89.6324 74.5689 92.4415 69.121 90.9936 63.7172C89.5457 58.3133 84.3891 54.9998 79.476 56.3162C74.5629 57.6326 71.7538 63.0804 73.2017 68.4843C74.6496 73.8881 79.8062 77.2017 84.7193 75.8853Z" fill="#424242"/>
<path d="M58.3604 82.7199C58.3604 79.4499 61.0103 71.3599 64.2803 71.3599C67.5504 71.3599 70.2003 79.4499 70.2003 82.7199C70.2003 89.3599 64.2803 84.8399 64.2803 84.8399C64.2803 84.8399 58.3604 89.7499 58.3604 82.7199Z" fill="#424242"/>
<path d="M49.9101 106.3C49.8301 105.63 50.0001 98.8103 50.0001 97.6003C50.0001 96.7403 50.6901 96.0503 51.5501 96.0503C52.4101 96.0503 53.1001 96.7503 53.1001 97.6003C53.1001 98.6703 52.6801 106.33 52.6801 106.33C52.6801 106.33 51.2801 106.69 49.9101 106.3Z" fill="#8ABFD1"/>
<path d="M62.7402 109.27C62.7402 109.27 62.7502 108.22 62.7502 107.68C62.7502 104.32 62.7502 100.96 62.7502 97.6003C62.7502 96.7403 63.4402 96.0503 64.3002 96.0503C65.1602 96.0503 65.8502 96.7503 65.8502 97.6003C65.8502 97.6503 65.8502 97.7103 65.8502 97.7603C65.8502 99.5303 65.8502 101.29 65.8502 103.06C65.8502 104.17 65.7902 109.27 65.7902 109.27C63.3902 108.37 62.7402 109.27 62.7402 109.27Z" fill="#8ABFD1"/>
<path d="M75.6998 107.18C75.6998 107.18 75.5498 98.9003 75.5498 97.6003C75.5498 96.7403 76.2498 96.0503 77.0998 96.0503C77.9598 96.0503 78.6498 96.7503 78.6498 97.6003C78.6498 98.9903 78.6398 106.38 78.6398 106.38C78.6398 106.38 77.8198 106.34 77.1898 106.45C76.9198 106.48 75.6998 107.18 75.6998 107.18Z" fill="#8ABFD1"/>
<path d="M64.2704 105.37C63.5104 105.43 62.7504 105.52 62.7404 105.61C62.5104 108.24 58.6904 108.41 56.7404 107.99C55.6104 107.74 54.3404 107.36 53.6504 106.39C53.0004 105.49 52.7104 104.35 52.7204 103.25C52.7204 103.19 49.9004 102.89 49.9004 102.89C49.9004 102.89 49.7104 104.44 47.8004 104.29C44.6604 104.04 44.0404 103.03 43.3704 101.92C42.5304 100.52 42.2304 97.4199 42.2304 97.4199C40.9104 103 43.7104 105.06 45.1004 105.82C47.7004 107.24 50.9804 106.49 50.9804 106.49C50.9804 106.49 52.2904 108.58 53.4204 109.28C54.4504 109.92 55.5404 110.24 56.7304 110.5C59.1104 111.02 61.4604 110.15 62.9204 109.39C63.3404 109.17 63.8004 109.08 64.2504 109.09V105.37H64.2704Z" fill="#8ABFD1"/>
<path d="M64.2695 105.37C65.0295 105.43 65.7895 105.52 65.7995 105.61C66.0295 108.24 69.8495 108.41 71.7995 107.99C72.9295 107.74 74.1995 107.36 74.8895 106.39C75.5395 105.49 75.8295 104.35 75.8195 103.25C75.8195 103.19 78.6395 102.89 78.6395 102.89C78.6395 102.89 78.8295 104.44 80.7395 104.29C83.8795 104.04 84.4995 103.03 85.1695 101.92C86.0095 100.52 86.8095 97.4199 86.8095 97.4199C87.7495 103.11 84.8295 105.06 83.4395 105.82C80.8395 107.24 77.5595 106.49 77.5595 106.49C77.5595 106.49 76.2495 108.58 75.1195 109.28C74.0895 109.92 72.9995 110.24 71.8095 110.5C69.4295 111.02 67.0795 110.15 65.6195 109.39C65.1995 109.17 64.7395 109.08 64.2895 109.09V105.37H64.2695Z" fill="#8ABFD1"/>
</svg>
