<svg width="129" height="129" viewBox="0 0 129 129" fill="none" xmlns="http://www.w3.org/2000/svg">
<g clip-path="url(#clip0_2_220096)">
<path d="M16.971 28.2287C7.13473 18.3925 3.57715 3.57764 3.57715 3.57764L96.9107 96.9112L91.277 102.545C91.277 102.535 26.8072 38.065 16.971 28.2287Z" fill="#82AEC0"/>
<path d="M28.2282 16.9715C18.392 7.13521 3.57715 3.57764 3.57715 3.57764L96.9107 96.9112L102.544 91.2775C102.544 91.2775 38.0645 26.8077 28.2282 16.9715Z" fill="#C9E3E6"/>
<path d="M98.8559 98.8464L103.27 94.4321L118.317 111.746L116.714 116.715L111.746 118.317L94.4316 103.271L98.8559 98.8464Z" fill="#874D36"/>
<path d="M98.8559 98.8462L103.28 94.4219L118.327 111.736C118.327 111.736 119.768 113.651 116.724 116.695C113.681 119.738 111.766 118.297 111.766 118.297L94.4316 103.27L98.8559 98.8462Z" fill="#693928"/>
<path d="M112.28 114.518C112.038 114.669 111.121 115.112 109.992 114.145C109.357 113.6 109.286 112.996 110.002 112.562C111.574 111.605 113.59 109.096 114.456 107.352L116.563 109.781C115.464 111.635 114.084 113.419 112.28 114.518Z" fill="#A65F3E"/>
<path d="M107.895 109.246C107.654 109.398 106.535 109.982 105.688 109.478C104.489 108.763 104.701 107.856 105.416 107.422C106.988 106.465 109.236 104.117 110.223 102.464L112.289 104.842C111.02 106.656 109.649 108.178 107.895 109.246Z" fill="#A65F3E"/>
<path d="M102.453 105.407C102.211 105.558 101.254 105.81 100.287 105.135C99.6617 104.691 99.4501 103.694 100.166 103.26C101.97 102.172 104.61 99.4003 105.83 97.4351L107.885 99.8034C106.374 102 104.146 104.369 102.453 105.407Z" fill="#A65F3E"/>
<path d="M111.343 121.441L111.746 118.317C111.746 118.317 113.308 118.327 115.817 115.818C118.327 113.308 118.317 111.746 118.317 111.746L121.441 111.343C123.739 110.94 125.714 112.996 125.391 115.283C125.079 117.43 123.88 119.859 121.874 121.874C119.869 123.88 117.44 125.079 115.283 125.392C113.005 125.714 111.05 123.729 111.343 121.441Z" fill="#9E740B"/>
<path d="M78.9819 113.117L89.5639 100.176L94.8751 94.8653L100.186 89.5541L113.127 78.9721C113.751 78.448 114.669 78.4883 115.253 79.0628C115.838 79.6473 115.868 80.5946 115.314 81.2195C112.512 84.3437 106.868 90.8844 104.338 93.5753C102.565 95.47 100.71 97.3546 99.0373 99.0175C97.3745 100.68 95.4798 102.535 93.5952 104.319C90.9043 106.848 84.3636 112.492 81.2394 115.294C80.6145 115.848 79.6773 115.818 79.0827 115.233C78.488 114.659 78.4578 113.742 78.9819 113.117Z" fill="#9E740B"/>
<path d="M112.029 28.2287C121.865 18.3925 125.422 3.57764 125.422 3.57764L32.0889 96.9112L37.7225 102.545C37.7225 102.535 102.192 38.065 112.029 28.2287Z" fill="#82AEC0"/>
<path d="M100.771 16.9715C110.607 7.13521 125.422 3.57764 125.422 3.57764L32.0888 96.9112L26.4551 91.2775C26.4551 91.2775 90.9349 26.8077 100.771 16.9715Z" fill="#C9E3E6"/>
<path d="M30.1435 98.8464L25.7293 94.4321L10.6826 111.746L12.285 116.715L17.2536 118.317L34.5678 103.271L30.1435 98.8464Z" fill="#874D36"/>
<path d="M30.1434 98.8462L25.7191 94.4219L10.6826 111.746C10.6826 111.746 9.13053 113.55 12.285 116.705C15.4394 119.859 17.2434 118.307 17.2434 118.307L34.5576 103.26L30.1434 98.8462Z" fill="#693928"/>
<path d="M17.6567 121.441L17.2535 118.317C17.2535 118.317 15.6914 118.327 13.182 115.818C10.6725 113.308 10.6826 111.746 10.6826 111.746L7.55838 111.343C5.27065 111.051 3.28526 112.996 3.60776 115.284C3.92018 117.43 5.11948 119.859 7.12502 121.875C9.13057 123.88 11.5594 125.08 13.7161 125.392C15.9938 125.715 17.9489 123.729 17.6567 121.441Z" fill="#9E740B"/>
<path d="M50.0172 113.117L39.4352 100.176L34.124 94.8653L28.8129 89.5541L15.8725 78.9721C15.2477 78.448 14.3306 78.4883 13.7461 79.0628C13.1615 79.6473 13.1313 80.5946 13.6856 81.2195C16.4873 84.3437 22.1311 90.8844 24.6607 93.5753C26.4344 95.47 28.2888 97.3546 29.9618 99.0175C31.6247 100.68 33.5193 102.535 35.404 104.319C38.0948 106.848 44.6355 112.492 47.7597 115.294C48.3846 115.848 49.3218 115.818 49.9164 115.233C50.5111 114.659 50.5413 113.742 50.0172 113.117Z" fill="#9E740B"/>
<path d="M5.1398 114.75C5.40183 115.777 6.09722 117.622 8.02215 119.144C10.0378 120.736 11.2068 119.527 10.2998 117.692C9.5641 116.221 9.0098 115.485 7.91129 113.53C6.87324 111.686 4.64597 112.774 5.1398 114.75Z" fill="#E2A610"/>
<path d="M17.6066 83.3259C16.7398 82.308 18.1004 81.9553 20.1362 83.6887C22.172 85.4222 30.7384 92.7389 30.7384 92.7389C33.4897 95.2383 32.0989 97.8183 32.0989 97.8183C29.8716 96.0546 18.4733 84.3438 17.6066 83.3259Z" fill="#E2A610"/>
<path d="M16.6787 114.518C16.9206 114.669 17.8377 115.112 18.9664 114.145C19.6014 113.6 19.6719 112.996 18.9564 112.562C17.3842 111.605 15.3686 109.096 14.5018 107.352L12.3955 109.781C13.5041 111.635 14.8747 113.419 16.6787 114.518Z" fill="#A65F3E"/>
<path d="M21.0728 109.246C21.3146 109.398 22.4333 109.982 23.2799 109.478C24.4792 108.763 24.2675 107.856 23.552 107.422C21.9798 106.465 19.7324 104.117 18.7447 102.464L16.6787 104.842C17.9385 106.656 19.3192 108.178 21.0728 109.246Z" fill="#A65F3E"/>
<path d="M26.5054 105.407C26.7472 105.558 27.7046 105.81 28.6721 105.135C29.297 104.691 29.5086 103.694 28.7931 103.26C26.9891 102.172 24.3486 99.4003 23.1292 97.4351L21.0732 99.8034C22.585 102 24.8122 104.369 26.5054 105.407Z" fill="#A65F3E"/>
<path d="M64.5 75.7573L70.1135 81.3809L79.5466 68.2894L75.7573 64.5L64.5 75.7573Z" fill="#2F7889"/>
<path d="M103.059 88.5161C101.164 90.0882 104.54 90.6022 106.899 88.2238L111.635 83.5173C112.814 82.318 112.814 80.2621 110.627 81.9753L103.059 88.5161Z" fill="#E2A610"/>
<path d="M119.678 115.838C119.003 116.886 119.295 117.924 120.394 117.934C121.18 117.944 122.026 117.36 122.419 116.967C122.994 116.392 123.407 115.929 123.689 114.749C124.062 113.167 122.349 111.575 121.341 113.097C120.444 114.447 120.353 114.8 119.678 115.838Z" fill="#E2A610"/>
</g>
<defs>
<clipPath id="clip0_2_220096">
<rect width="129" height="129" fill="white"/>
</clipPath>
</defs>
</svg>
