<svg width="128" height="128" viewBox="0 0 128 128" fill="none" xmlns="http://www.w3.org/2000/svg">
<path d="M63.0402 7.57016C36.7202 6.97016 7.69016 28.8002 8.25016 64.1602C8.74016 95.2502 32.1002 118.78 62.3702 119.27C92.6402 119.76 119.46 99.7502 119.62 64.0002C119.79 27.9702 91.9902 8.23016 63.0402 7.57016Z" fill="#FF2A23"/>
<path d="M63.1202 20.1899C42.2402 20.8999 21.1702 36.4799 20.6802 63.9499C20.1902 91.4199 44.2002 106.72 63.1202 106.72C87.1402 106.72 107.21 87.7999 106.71 62.6299C106.22 37.4699 87.3002 19.3699 63.1202 20.1899Z" fill="#FFFDFE"/>
<path d="M63.6099 30.89C44.6899 30.46 30.7099 47.18 30.5399 63.13C30.3799 79.42 40.5699 96.03 63.2799 96.85C85.9899 97.67 96.6699 79.58 96.9999 64.28C97.3399 48.98 85.1599 31.38 63.6099 30.89Z" fill="#FF2A23"/>
<path d="M41.9804 63.73C41.8204 78.04 52.0104 86.27 64.3504 86.27C75.5604 86.27 86.5604 79.2 86.5604 64.23C86.5604 50.74 76.3604 42.68 65.0104 42.19C53.6604 41.69 42.1404 49.92 41.9804 63.73Z" fill="white"/>
<path d="M52.1 63.6202C51.49 72.1502 58.43 76.2302 64.68 76.2302C70.6 76.2302 76.44 72.3402 76.61 64.4402C76.76 57.0202 70.94 52.4902 64.68 52.2702C58.22 52.0502 52.59 56.6902 52.1 63.6202Z" fill="#FB2B22"/>
<path d="M66.7396 64.29L63.3896 66.15L69.7796 75.24C69.7796 75.24 74.7196 75.62 75.8596 74.33C76.9997 73.04 75.7096 69.24 75.7096 69.24L66.7396 64.29Z" fill="#CC1935"/>
<path d="M87.4198 54.4102C86.5198 52.5502 85.5998 51.0602 83.1598 51.5202C80.7298 51.9802 76.2398 54.5602 75.3998 55.7802C74.6298 56.9002 73.8798 58.2902 73.8798 58.2902C73.8798 58.2902 65.2798 62.9902 63.9198 63.7602C61.7898 64.9802 63.2598 67.4602 64.7598 67.1802C66.8098 66.8002 75.9698 63.0702 75.9698 63.0702C75.9698 63.0702 77.9098 63.5302 79.0498 63.5302C80.1898 63.5302 86.6898 60.3202 87.5698 59.7302C89.0198 58.7402 88.3298 56.3102 87.4198 54.4102Z" fill="#ACB1B5"/>
<path d="M75.6798 69.2202C75.6798 69.2202 75.1998 70.9202 73.4498 72.6802C71.6298 74.5002 69.7598 75.2202 69.7598 75.2202L75.5298 83.6802C75.5298 83.6802 79.8198 83.9902 82.9398 80.9502C86.0598 77.9102 84.6998 73.9302 84.6998 73.9302L75.6798 69.2202Z" fill="#C8C8C8"/>
<path d="M81.3995 92.5699L75.5195 83.6699C75.5195 83.6699 76.4995 83.1499 77.7895 82.2699C80.1595 80.6499 81.4795 79.3599 83.1695 76.7199C84.0895 75.2999 84.6795 73.9199 84.6795 73.9199L93.7695 78.4099C93.7695 78.4099 93.5695 85.4299 90.5995 88.8499C87.6295 92.2699 81.3995 92.5699 81.3995 92.5699Z" fill="#CC1935"/>
<path d="M81.4004 92.5699L86.4504 100.14C86.4504 100.14 93.0404 100.79 98.4404 94.3199C103.84 87.8499 102.4 82.5299 102.4 82.5299L93.7704 78.3999C93.7704 78.3999 92.0904 82.4399 88.7504 86.3199C85.4104 90.1999 81.4004 92.5699 81.4004 92.5699Z" fill="#C8C8C8"/>
<path d="M93.93 111.33L86.46 100.15C86.46 100.15 92.09 96.8598 96.09 92.1298C100.24 87.2198 102.41 82.5498 102.41 82.5498L114.5 88.5598C114.5 88.5598 111.78 95.5898 105.75 101.94C99.85 108.13 93.93 111.33 93.93 111.33Z" fill="#CC1935"/>
<path d="M81.6096 57.37C82.7396 59.48 84.6096 59.5 86.5896 58.66C88.5696 57.82 97.9196 51.21 97.9196 51.21C97.9196 51.21 110.62 57.6 118.83 54.4C127.04 51.21 126.81 42.54 126.81 42.54L121.95 39.46C121.95 39.46 125.49 37.62 126.63 36.94C127.19 36.6 128.02 35.34 127.56 34.21C127.2 33.33 125.82 33.03 124.68 33.49C123.54 33.95 120.25 34.98 120.25 34.98C120.25 34.98 121.56 29.53 121.33 29.23C121.1 28.93 118.74 27.71 118.74 27.71C118.74 27.71 111.06 27.71 110.07 28.09C109.08 28.47 101.48 36 101.48 36L97.8296 43.45L96.2696 46.77C96.2696 46.77 85.6196 51.54 84.0196 52.22C82.4296 52.91 80.2196 54.8 81.6096 57.37Z" fill="#006CA9"/>
<path d="M98.5399 45.8502C98.5399 45.8502 103.02 42.6102 106.21 41.0102C109.4 39.4102 115.32 37.4602 117.07 37.2502C118.82 37.0402 119.54 37.5102 119.85 38.3302C120.16 39.1502 119.13 40.1802 118.25 40.6502C117.38 41.1102 112.74 43.2202 107.6 45.9502C102.46 48.6802 100.02 50.6802 97.9399 51.1502C96.8899 51.3902 95.5399 50.4502 95.4599 48.8802C95.3999 47.6602 95.6399 46.6402 96.4399 44.3002C97.4199 41.4202 99.5699 37.0902 101.38 34.2702C104.06 30.1002 107.92 27.2702 112.19 26.5002C116.46 25.7302 119.96 26.8102 120.84 27.5302C121.71 28.2502 121.66 28.9902 121.35 29.2402C121.04 29.4902 120.58 29.6902 118.26 28.8702C116.65 28.3002 111.52 28.3002 107.92 30.9802C104.28 33.6802 103.39 35.3502 101.8 38.2902C100.21 41.2302 98.5399 45.8502 98.5399 45.8502Z" fill="#1F87FD"/>
</svg>
